<svg version="1" xmlns="http://www.w3.org/2000/svg" width="917.333" height="917.333" viewBox="0 0 688.000000 688.000000"><path d="M329.8 8.5c-.2.2-1.9.7-3.8 1-10.1 1.7-17.4 5.3-25.1 12.6-2.6 2.4-8.6 8.1-13.5 12.6-26 24-74.4 72.3-105 104.9-2.2 2.3-11.1 11.7-19.9 20.9-20.6 21.6-21.2 22.2-39.5 41.5-8.5 9-17.5 18.4-20 21-6.3 6.5-10 10.9-10 11.6 0 .4 1.9 2.8 4.3 5.3 2.3 2.6 5.5 6.2 7.1 8.1 1.6 1.9 4.5 5.3 6.5 7.5 2 2.3 5.7 6.5 8.3 9.5 2.5 3 5.4 6.5 6.5 7.6 1 1.2 4.1 4.8 6.8 8 2.8 3.2 6.8 7.9 9 10.4s6.2 7.2 8.9 10.3l4.9 5.6 4.1-4.3c7.4-7.8 28.2-30 33.9-36.1 3-3.3 7.5-8.1 9.9-10.6 2.3-2.6 9.5-10.2 15.8-16.9 6.3-6.8 13.8-14.7 16.5-17.6 2.8-2.9 8.6-9.2 13-13.9 11.7-12.6 16.6-17.9 30.5-32.6 6.9-7.2 12.7-13.5 13-13.8.5-.7 11.6-9.8 15.1-12.4 1.4-1.1 5.9-3.7 9.9-5.8 11.8-6.3 26-8.6 39.5-6.6 9.2 1.4 22.3 7.5 32.5 15.1 9.9 7.4 10.7 8.1 71.5 70.1 20.4 20.7 46.2 47 57.3 58.3 11.2 11.4 37.2 37.8 57.7 58.7 20.6 20.9 45.1 45.8 54.5 55.4l17.1 17.4 3.6-3.4c4-3.7 15.2-15.1 16.9-17.2 6.7-7.9 15.8-23.1 16.9-28.1.1-.6.5-1.8.8-2.6 3.2-7.5 3-24.1-.2-33.4-2.6-7.4-7.9-16.9-12.9-23.3-3.3-4.1-11.9-13.4-29.7-31.8C562 187.7 538 163.1 492.4 117.6c-39.5-39.5-65-64.4-84.3-82.3-4.1-3.7-9.4-8.7-11.8-11.1-5.2-5.2-15.1-10.3-24.3-12.7-1-.2-8.6-1.8-11-2.2-3.2-.6-30.7-1.3-31.2-.8z"/><path d="M342 245.9c0 .3-2.4.7-5.3.7-6.7.2-9.9.9-17.2 4.2-5.9 2.6-22 12.7-25.4 16-.9.9-4.6 4.2-8.1 7.2-7.8 6.7-31 29.9-44.5 44.4-5.5 6-12.8 13.7-16.2 17.3-3.5 3.7-6.3 6.8-6.3 7 0 .2-1.1 2.1-2.5 4.3-1.4 2.2-2.3 4-2.1 4 .3 0-.1 1.2-.9 2.7-1.5 2.9-1 4.5 2.9 9.5 1.2 1.4 3.2 4.1 4.6 5.9 8.4 11 22.2 21.6 33 25.4 9.4 3.3 26.7 2.5 35-1.5.8-.4 3.8-1.8 6.5-3.1 4.8-2.2 16.4-8.9 18.8-10.9.7-.6 5.3-4.1 10.2-7.9 5-3.8 10.8-8.5 13-10.5 2.2-2 4.5-3.6 5-3.6 1 0 6.3 5 51.3 48.8 37.6 36.6 44.5 43.3 50.3 48.8 10 9.4 9.6 8.7 5.8 13.6-1.8 2.4-3.9 5-4.6 5.8-.7.8-2.6 3.1-4.1 5.1-4.2 5.6-10.5 13.1-12.9 15.7-1.3 1.2-2.3 2.5-2.3 2.8 0 1.2-30.5 32.4-35.1 35.9-20.3 15.4-37.4 21.2-52.9 18-3.3-.7-6-1-6-.8 0 .3-.6 0-1.4-.6-.8-.6-1.8-1.1-2.2-1-4.4 1-32.4-16.1-45.1-27.6-.6-.5-3.7-3.2-7-5.9-5.8-4.9-72.6-71.8-112.8-112.9C152 390.9 127 365.4 108 346c-19-19.4-40.4-41.3-47.6-48.6C53.2 290 47.6 284 47.9 284c.3 0-.5-.7-1.7-1.6-2.1-1.4-2.5-1.4-4.9.2-4.9 3.1-17.5 15-23.8 22.4C14.7 308.2 6 321.4 6 322.4c0 .2-.8 2.1-1.7 4.2-.9 2.2-1.8 4.3-1.9 4.9-4.8 18.8-1.3 35.3 10.9 51.5 4.6 6.2 8.1 10 22 24.4 5.4 5.5 15.5 16.1 22.5 23.5 38.6 40.7 136 138.7 171 172.1 10.1 9.6 22.4 21.3 27.3 26 4.9 4.7 12.8 12.2 17.6 16.7 4.9 4.4 11.5 10.7 14.8 13.8 8.3 7.9 14.7 11.9 23.5 14.8 13.6 4.5 18.1 5.2 35 5.1 18.8 0 23.8-1.7 35.1-12.2 25.4-23.5 77.2-75.9 106.6-107.8 2.1-2.3 8.5-9.3 14.3-15.5 5.8-6.1 11.9-12.7 13.6-14.5 1.7-1.8 7.3-7.9 12.5-13.5 5.2-5.7 11-11.9 12.9-13.9 1.9-2.1 7.8-8.3 13-14 5.2-5.6 11.4-12.3 13.8-14.9 2.4-2.5 6.5-6.9 9-9.6 2.6-2.8 5.3-5.7 6-6.7 1.4-1.7 2.7-.3-25.2-27.1-26.5-25.6-59.2-57.6-82.7-80.7-53.4-52.8-63.8-62.7-77.9-74.6-20.9-17.4-35.1-25.3-50.7-28.2-2.9-.5-5.3-.7-5.3-.3z"/></svg>