<?xml version="1.0" standalone="no"?>
<!DOCTYPE svg PUBLIC "-//W3C//DTD SVG 20010904//EN"
 "http://www.w3.org/TR/2001/REC-SVG-20010904/DTD/svg10.dtd">
<svg version="1.0" xmlns="http://www.w3.org/2000/svg"
 width="493.000000pt" height="493.000000pt" viewBox="0 0 493.000000 493.000000"
 preserveAspectRatio="xMidYMid meet">
<metadata>
Created by potrace 1.11, written by Peter Selinger 2001-2013
</metadata>
<g transform="translate(0.000000,493.000000) scale(0.100000,-0.100000)"
fill="#000000" stroke="none">
<path d="M1780 4759 c-667 -78 -1234 -511 -1487 -1134 -61 -150 -95 -280 -122
-475 -5 -37 -10 -699 -10 -1538 l-1 -1473 1502 4 c827 2 1517 6 1535 9 17 4
60 12 95 18 110 20 286 70 335 95 15 8 32 15 36 15 24 0 217 104 317 171 300
201 537 489 667 809 40 100 46 113 49 125 1 6 12 41 23 78 11 38 27 103 35
145 8 42 18 93 23 112 4 19 8 713 10 1543 l4 1507 -1473 -1 c-810 -1 -1502 -5
-1538 -10z m2049 -921 c-7 -228 -111 -407 -299 -518 -36 -21 -85 -44 -110 -51
-25 -7 -52 -15 -60 -17 -8 -3 -253 -8 -545 -11 -578 -7 -552 -4 -678 -68 -64
-32 -155 -126 -190 -197 -90 -179 -52 -407 92 -546 72 -69 111 -89 370 -185
112 -41 211 -79 220 -84 9 -6 -109 -9 -304 -7 -176 1 -325 5 -331 8 -6 4 -25
10 -42 13 -81 14 -195 63 -288 123 -242 158 -397 442 -398 732 -1 237 104 485
271 640 54 51 120 103 143 113 8 4 30 16 49 28 57 34 154 69 247 89 83 17 150
19 972 19 l884 1 -3 -82z m-904 -1091 c17 -4 45 -9 63 -12 139 -23 320 -122
438 -240 265 -264 333 -668 169 -1010 -96 -198 -282 -367 -489 -442 -144 -52
-155 -52 -1104 -52 l-883 0 5 92 c4 94 5 101 26 175 37 139 175 295 316 358
124 55 91 53 839 58 343 2 374 4 427 22 287 104 407 428 253 690 -34 58 -113
134 -171 166 -27 14 -130 56 -229 93 -194 71 -256 95 -267 105 -10 8 569 5
607 -3z"/>
</g>
</svg>
