<?xml version="1.0" encoding="UTF-8"?>
<svg width="53px" height="58px" viewBox="0 0 53 58" version="1.1" xmlns="http://www.w3.org/2000/svg" xmlns:xlink="http://www.w3.org/1999/xlink">
    <!-- Generator: Sketch 48.2 (47327) - http://www.bohemiancoding.com/sketch -->
    <title>Page 1</title>
    <desc>Created with Sketch.</desc>
    <defs>
        <polygon id="path-1" points="0.353333333 0.615151515 22.525 0.615151515 22.525 12.1272727 0.353333333 12.1272727"></polygon>
        <linearGradient x1="74.534899%" y1="100%" x2="74.534899%" y2="-45.4167626%" id="linearGradient-3">
            <stop stop-color="#1490E0" offset="0%"></stop>
            <stop stop-color="#20F0FF" offset="100%"></stop>
        </linearGradient>
    </defs>
    <g id="Mobile" stroke="none" stroke-width="1" fill="none" fill-rule="evenodd" transform="translate(-41.000000, -4354.000000)">
        <g id="SECTION:-BENEFITS" transform="translate(1.000000, 4299.000000)">
            <g id="Page-1" transform="translate(40.000000, 55.000000)">
                <path d="M36.0535714,29.7706767 L31.2321429,34.2669173 L32.3928571,40.6654135 L26.5,37.6390977 L20.6071429,40.6654135 L21.7678571,34.2669173 L16.9464286,29.7706767 L23.5535714,28.906015 L26.5,23.0263158 L29.4464286,28.906015 L36.0535714,29.7706767 Z M22.6607143,27.6954887 L14,28.8195489 L20.3392857,34.6992481 L18.8214286,43 L26.5,39.0225564 L34.1785714,43 L32.6607143,34.6992481 L39,28.8195489 L30.3392857,27.6954887 L26.5,20 L22.6607143,27.6954887 Z" id="Fill-1" fill="#1C88D1"></path>
                <polygon id="Fill-2" fill="#1C88D1" points="38.6521739 25.9698492 35.9565217 20 33 26.3316583 34.1304348 26.8743719 35.9565217 23.1658291 37.7826087 27.2361809 42.1304348 27.8693467 39 30.9447236 39.7826087 35.4673367 36.2173913 33.4773869 35.6086957 34.6532663 41.5217391 38 40.3913043 31.4874372 45 26.8743719"></polygon>
                <polygon id="Fill-3" fill="#1C88D1" points="16.3913043 34.6532663 15.7826087 33.4773869 12.2173913 35.4673367 13 30.9447236 9.86956522 27.8693467 14.2173913 27.2361809 16.0434783 23.1658291 17.8695652 26.8743719 19 26.3316583 16.0434783 20 13.3478261 25.9698492 7 26.8743719 11.6086957 31.4874372 10.4782609 38"></polygon>
                <g id="Group-17">
                    <g id="Group-6" transform="translate(7.066667, 0.000000)">
                        <mask id="mask-2" fill="white">
                            <use xlink:href="#path-1"></use>
                        </mask>
                        <g id="Clip-5"></g>
                    </g>
                    <path d="M26.1466667,1.93333333 C27.295,1.93333333 28.2666667,2.9 28.2666667,4.04242424 C28.2666667,5.18484848 27.295,6.15151515 26.1466667,6.15151515 C24.9983333,6.15151515 24.0266667,5.18484848 24.0266667,4.04242424 C24.0266667,2.81212121 24.9983333,1.93333333 26.1466667,1.93333333 Z M8.39166667,12.1272727 C12.2783333,8.17272727 17.4016667,5.62424242 22.8783333,4.92121212 C23.32,6.32727273 24.5566667,7.46969697 26.1466667,7.46969697 C28.0016667,7.46969697 29.5916667,5.97575758 29.5916667,4.04242424 C29.5916667,2.10909091 28.09,0.615151515 26.1466667,0.615151515 C24.38,0.615151515 22.9666667,1.93333333 22.79,3.6030303 C16.96,4.30606061 11.4833333,7.03030303 7.42,11.1606061 L8.39166667,12.1272727 Z" id="Fill-4" fill="url(#linearGradient-3)"></path>
                    <path d="M2.29666667,15.5545455 C2.65,14.9393939 3.35666667,14.5 4.15166667,14.5 C4.505,14.5 4.85833333,14.5878788 5.21166667,14.7636364 C6.18333333,15.3787879 6.53666667,16.6090909 6.00666667,17.6636364 C5.38833333,18.630303 4.06333333,18.9818182 3.09166667,18.3666667 C2.56166667,18.1030303 2.29666667,17.6636364 2.12,17.0484848 C1.94333333,16.6090909 2.03166667,15.9939394 2.29666667,15.5545455 M1.06,36.7333333 L2.29666667,36.3818182 C1.59,34.0969697 1.325,31.8121212 1.325,29.4393939 C1.325,26.1878788 1.94333333,22.9363636 3.18,19.9484848 C3.445,20.0363636 3.79833333,20.0363636 4.06333333,20.0363636 C5.3,20.0363636 6.44833333,19.4212121 7.06666667,18.3666667 C8.03833333,16.6969697 7.42,14.6757576 5.83,13.7090909 C5.3,13.4454545 4.68166667,13.269697 4.06333333,13.269697 C2.82666667,13.269697 1.67833333,13.8848485 1.06,14.9393939 C0.706666667,15.6424242 0.53,16.6090909 0.795,17.4878788 C0.971666667,18.1909091 1.41333333,18.8060606 2.03166667,19.2454545 C0.706666667,22.4090909 0,25.8363636 0,29.3515152 C0,31.8121212 0.353333333,34.3606061 1.06,36.7333333" id="Fill-7" fill="url(#linearGradient-3)"></path>
                    <path d="M2.12,42.8848485 C1.855,42.3575758 1.76666667,41.830303 1.94333333,41.3030303 C2.12,40.7757576 2.47333333,40.3363636 2.915,40.0727273 C3.26833333,39.8969697 3.62166667,39.8090909 3.975,39.8090909 C4.77,39.8090909 5.47666667,40.2484848 5.83,40.8636364 C6.095,41.3909091 6.18333333,41.9181818 6.00666667,42.4454545 C5.83,42.9727273 5.47666667,43.4121212 5.035,43.6757576 C4.06333333,44.2909091 2.73833333,43.8515152 2.12,42.8848485 M6.36,44.2909091 C6.80166667,43.8515152 7.06666667,43.4121212 7.24333333,42.7969697 C7.50833333,41.9181818 7.33166667,41.0393939 6.89,40.2484848 C6.27166667,39.1939394 5.12333333,38.4909091 3.88666667,38.4909091 C3.26833333,38.4909091 2.73833333,38.6666667 2.20833333,38.930303 C0.618333333,39.8090909 0.0883333333,41.9181818 0.971666667,43.5878788 C1.59,44.6424242 2.73833333,45.3454545 3.975,45.3454545 C4.41666667,45.3454545 4.85833333,45.2575758 5.3,45.0818182 C8.745,49.5636364 13.515,52.9030303 18.9916667,54.3969697 L19.345,53.1666667 C14.2216667,51.6727273 9.62833333,48.5090909 6.36,44.2909091" id="Fill-9" fill="url(#linearGradient-3)"></path>
                    <path d="M26.1466667,56.769697 L26.1466667,57.4727273 L26.1466667,56.769697 C24.9983333,56.769697 24.0266667,55.8030303 24.0266667,54.6606061 C24.0266667,53.5181818 24.9983333,52.5515152 26.1466667,52.5515152 C26.6766667,52.5515152 27.2066667,52.8151515 27.6483333,53.1666667 C28.0016667,53.6060606 28.2666667,54.1333333 28.2666667,54.6606061 C28.2666667,55.8909091 27.295,56.769697 26.1466667,56.769697 Z M43.725,46.7515152 C39.8383333,50.6181818 34.8033333,53.0787879 29.415,53.7818182 C29.2383333,53.2545455 28.9733333,52.7272727 28.5316667,52.2878788 C27.9133333,51.6727273 27.03,51.2333333 26.0583333,51.2333333 C24.2033333,51.2333333 22.6133333,52.7272727 22.6133333,54.5727273 C22.6133333,56.4181818 24.115,58 25.97,58 C27.7366667,58 29.15,56.6818182 29.3266667,55.0121212 C35.0683333,54.3090909 40.3683333,51.6727273 44.52,47.5424242 L43.725,46.7515152 Z" id="Fill-11" fill="url(#linearGradient-3)"></path>
                    <path d="M50.2616667,15.9939394 C50.5266667,16.5212121 50.615,17.0484848 50.4383333,17.5757576 C50.2616667,18.1030303 49.9083333,18.5424242 49.4666667,18.8060606 C48.495,19.3333333 47.17,18.9818182 46.64,18.0151515 C46.375,17.4878788 46.2866667,16.9606061 46.4633333,16.4333333 C46.64,15.9060606 46.9933333,15.4666667 47.435,15.2030303 C47.7883333,15.0272727 48.1416667,14.9393939 48.495,14.9393939 C49.2016667,14.9393939 49.9083333,15.3787879 50.2616667,15.9939394 M46.0216667,14.5878788 C45.58,15.0272727 45.315,15.4666667 45.1383333,16.0818182 C44.8733333,16.9606061 44.9616667,17.8393939 45.4033333,18.7181818 C46.0216667,19.7727273 47.17,20.4757576 48.4066667,20.4757576 C49.025,20.4757576 49.555,20.3 50.085,20.0363636 C50.88,19.5969697 51.4983333,18.8939394 51.675,18.0151515 C51.94,17.1363636 51.8516667,16.2575758 51.41,15.3787879 C50.7916667,14.3242424 49.6433333,13.6212121 48.4066667,13.6212121 C47.965,13.6212121 47.5233333,13.7090909 47.17,13.8848485 C43.5483333,9.05151515 38.3366667,5.53636364 32.5066667,4.13030303 L32.1533333,5.44848485 C37.7183333,6.76666667 42.665,10.0181818 46.0216667,14.5878788" id="Fill-13" fill="url(#linearGradient-3)"></path>
                    <path d="M49.82,43.4121212 C49.4666667,44.0272727 48.76,44.4666667 47.965,44.4666667 C47.6116667,44.4666667 47.2583333,44.3787879 46.905,44.2030303 C46.4633333,43.9393939 46.11,43.5 45.9333333,42.8848485 C45.7566667,42.3575758 45.845,41.7424242 46.1983333,41.3030303 C46.5516667,40.6878788 47.2583333,40.2484848 48.0533333,40.2484848 C48.4066667,40.2484848 48.76,40.3363636 49.1133333,40.5121212 C49.555,40.7757576 49.9083333,41.2151515 50.085,41.830303 C50.2616667,42.3575758 50.1733333,42.8848485 49.82,43.4121212 M50.1733333,39.6333333 C51.5866667,36.3818182 52.2933333,32.9545455 52.2933333,29.3515152 C52.2933333,27.1545455 52.0283333,24.869697 51.41,22.7606061 L50.085,23.1121212 C50.615,25.1333333 50.88,27.2424242 50.88,29.3515152 C50.88,32.6909091 50.1733333,35.9424242 48.8483333,39.0181818 C48.5833333,38.930303 48.23,38.930303 47.8766667,38.930303 C46.64,38.930303 45.58,39.5454545 44.9616667,40.6 C44.52,41.3909091 44.3433333,42.269697 44.6083333,43.1484848 C44.8733333,44.0272727 45.4033333,44.8181818 46.1983333,45.2575758 C46.7283333,45.6090909 47.3466667,45.6969697 47.965,45.6969697 C49.2016667,45.6969697 50.2616667,45.0818182 50.88,44.0272727 C51.3216667,43.2363636 51.4983333,42.3575758 51.2333333,41.4787879 C51.2333333,40.7757576 50.7916667,40.1606061 50.1733333,39.6333333" id="Fill-15" fill="url(#linearGradient-3)"></path>
                </g>
            </g>
        </g>
    </g>
</svg>