<?xml version="1.0" encoding="UTF-8"?>
<svg width="768px" height="1024px" viewBox="0 0 768 1024" version="1.1" xmlns="http://www.w3.org/2000/svg" xmlns:xlink="http://www.w3.org/1999/xlink">
    <!-- Generator: Sketch 50.2 (55047) - http://www.bohemiancoding.com/sketch -->
    <title>Group</title>
    <desc>Created with Sketch.</desc>
    <defs>
        <rect id="path-1" x="0" y="0" width="768" height="1025"></rect>
    </defs>
    <g id="Tablet" stroke="none" stroke-width="1" fill="none" fill-rule="evenodd">
        <g id="Desktop-HD">
            <g id="Group">
                <mask id="mask-2" fill="white">
                    <use xlink:href="#path-1"></use>
                </mask>
                <g id="Mask"></g>
                <g id="Page-1" opacity="0.100000001" mask="url(#mask-2)" fill="#1C63E8">
                    <g transform="translate(-390.000000, -12.000000)" id="Fill-5">
                        <path d="M992.216401,0 L993.860393,0.949371104 L992.099494,0.949371104 L1063.57298,42.1910256 L1063.57298,91.9161629 L1035.58614,75.7671169 L1035.58614,74.7495859 L975.006844,39.7956892 L975.006844,0 L972.498234,0 L972.498234,0.949371104 L972.376456,0.949371104 L972.376456,39.8638492 L883.812758,90.9667917 L883.812758,42.1228656 L955.1669,0.949371104 L953.647121,0.949371104 L955.288678,0 L950.271456,0 L882.560889,39.0727066 L814.855192,0 L809.835535,0 L811.479528,0.949371104 L809.716194,0.949371104 L881.187242,42.1910256 L881.187242,90.8986318 L792.625979,39.7956892 L792.625979,0 L790.114933,0 L790.114933,0.949371104 L789.993156,0.949371104 L789.993156,39.8638492 L701.436764,90.9667917 L701.436764,41.2440888 L729.411426,25.0974771 L729.411426,25.9738197 L772.783599,0.949371104 L771.261384,0.949371104 L772.902941,0 L767.88572,0 L700.180023,39.0727066 L632.471891,0 L627.452234,0 L698.923282,41.2440888 L698.923282,90.9667917 L610.240243,39.7956892 L610.240243,0 L607.729196,0 L607.729196,39.7956892 L519.051028,90.9667917 L519.051028,41.2440888 L590.522076,0 L585.502419,0 L517.794287,39.0727066 L450.08859,0 L445.066498,0 L516.539982,41.2440888 L516.539982,90.9667917 L427.856942,39.7956892 L427.856942,0 L425.34346,0 L425.34346,39.7956892 L336.665291,90.9667917 L336.665291,41.2440888 L408.136339,0 L403.119118,0 L335.415857,39.0727066 L267.705289,0 L262.685633,0 L334.159116,41.2440888 L334.159116,90.9667917 L245.476076,39.7956892 L245.476076,0 L242.962595,0 L242.962595,39.7956892 L154.284426,90.9667917 L154.284426,41.2440888 L225.753039,0 L220.735817,0 L153.027685,39.0727066 L85.3195531,0 L80.2998962,0 L151.77338,41.2440888 L151.77338,90.9667917 L63.0903401,39.7956892 L63.0903401,0 L60.5792939,0 L60.5792939,39.7956892 L0,74.7544544 L0,77.6488192 L61.8360347,41.9622028 L150.52151,93.1406081 L61.8360347,144.316579 L0,108.629963 L0,111.526762 L60.5792939,146.490396 L60.5792939,196.213099 L0,161.256768 L0,164.151132 L59.3274241,198.386915 L0,232.617829 L0,235.521931 L60.5792939,200.558297 L60.5792939,250.288303 L0,285.2422 L0,288.138999 L61.8360347,252.454817 L150.52151,303.630788 L61.8360347,354.806759 L0,319.117708 L0,322.019376 L60.5792939,356.973272 L60.5792939,406.703278 L0,371.746947 L0,374.641312 L59.3274241,408.884397 L0,443.115311 L0,446.007242 L60.5792939,411.046042 L60.5792939,460.773614 L0,495.737248 L0,498.629178 L61.8360347,462.944996 L150.52151,514.118533 L61.8360347,565.296938 L0,529.610322 L0,532.509555 L60.5792939,567.46832 L60.5792939,617.193458 L0,582.234692 L0,585.126623 L59.3274241,619.36484 L0,653.603056 L0,656.499855 L60.5792939,621.536222 L60.5792939,671.266228 L0,706.220124 L0,709.119357 L61.8360347,673.440044 L150.52151,724.603844 L61.8360347,775.782249 L0,740.095633 L0,742.994866 L60.5792939,777.956065 L60.5792939,827.681203 L0,792.720003 L0,795.621671 L59.3274241,829.857453 L0,864.088367 L0,866.985166 L60.5792939,832.028835 L60.5792939,881.751538 L0,916.710304 L0,919.607103 L61.8360347,883.922921 L150.52151,935.096457 L61.8360347,986.274863 L0,950.588246 L0,953.485045 L60.5792939,988.446245 L60.5792939,1035.05063 L63.0903401,1035.05063 L63.0903401,988.446245 L151.77338,937.270274 L151.77338,937.272708 L151.77338,986.997845 L68.499684,1035.05063 L73.5120342,1035.05063 L153.027685,989.169227 L232.540901,1035.05063 L237.553251,1035.05063 L154.284426,986.997845 L154.284426,937.270274 L242.962595,988.446245 L242.962595,1035.05063 L245.476076,1035.05063 L245.476076,988.446245 L334.159116,937.270274 L334.159116,937.272708 L334.159116,986.997845 L250.880549,1035.05063 L255.897771,1035.05063 L335.415857,989.169227 L414.924201,1035.05063 L419.941423,1035.05063 L336.665291,986.997845 L336.665291,937.270274 L425.34346,988.446245 L425.34346,1035.05063 L427.856942,1035.05063 L427.856942,988.446245 L516.539982,937.270274 L516.539982,937.272708 L516.539982,986.997845 L433.26385,1035.05063 L438.283507,1035.05063 L517.794287,989.169227 L597.307502,1035.05063 L602.322288,1035.05063 L519.051028,986.997845 L519.051028,937.270274 L607.729196,988.446245 L607.729196,1035.05063 L610.240243,1035.05063 L610.240243,988.446245 L698.923282,937.270274 L698.923282,937.272708 L698.923282,986.997845 L615.649587,1035.05063 L620.664372,1035.05063 L700.180023,989.169227 L729.411426,1006.03882 L729.411426,1007.05635 L779.569026,1036 L784.583812,1036 L782.939819,1035.05063 L784.705589,1035.05063 L701.436764,986.997845 L701.436764,937.270274 L729.411426,953.416885 L729.411426,954.434416 L789.993156,989.395616 L789.993156,1036 L792.504202,1036 L792.504202,1035.05063 L792.625979,1035.05063 L792.625979,989.325022 L881.187242,938.219645 L881.187242,938.222079 L881.187242,987.063571 L798.035323,1035.05063 L799.555103,1035.05063 L797.91111,1036 L802.928332,1036 L882.443982,990.118599 L961.957198,1036 L966.969548,1036 L965.325556,1035.05063 L967.08889,1035.05063 L883.812758,986.997845 L883.812758,938.285371 L972.376456,989.395616 L972.376456,1036 L974.889938,1036 L974.889938,1035.05063 L975.006844,1035.05063 L975.006844,989.32989 L1063.57298,938.219645 L1063.57298,938.222079 L1063.57298,987.944782 L1035.58614,1004.09626 L1035.58614,1003.21505 L980.413753,1035.05063 L981.938403,1035.05063 L980.296847,1036 L985.311632,1036 L1064.82728,990.118599 L1144.33806,1036 L1149.35285,1036 L1066.07915,987.944782 L1066.07915,938.219645 L1154.75732,989.395616 L1154.75732,1036 L1157.26837,1036 L1157.26837,989.395616 L1245.95141,938.219645 L1245.95141,938.222079 L1245.95141,987.944782 L1162.67771,1036 L1167.69737,1036 L1247.20815,990.118599 L1326.72136,1036 L1331.73615,1036 L1248.46489,987.944782 L1248.46489,938.219645 L1337.14306,989.395616 L1337.14306,1036 L1339.65654,1036 L1339.65654,989.395616 L1428.33958,938.219645 L1428.33958,938.222079 L1428.33958,987.944782 L1345.06345,1036 L1350.07823,1036 L1429.59389,990.118599 L1509.10466,1036 L1514.11945,1036 L1430.84819,987.944782 L1430.84819,938.219645 L1519.52879,989.395616 L1519.52879,1036 L1522.03984,1036 L1522.03984,989.395616 L1610.71801,938.219645 L1610.71801,987.944782 L1527.44675,1036 L1532.46397,1036 L1611.97475,990.118599 L1691.49284,1036 L1696.50519,1036 L1613.22662,987.944782 L1613.22662,938.222079 L1613.22662,938.219645 L1701.90966,989.395616 L1701.90966,1036 L1704.42071,1036 L1704.42071,989.395616 L1765,954.436851 L1765,951.542486 L1703.16397,987.2218 L1614.4858,936.045828 L1703.16397,884.872292 L1765,920.551605 L1765,917.654806 L1704.42071,882.70091 L1704.42071,832.975772 L1765,867.929669 L1765,865.03287 L1705.67745,830.806824 L1765,796.571042 L1765,793.671809 L1704.42071,828.630574 L1704.42071,778.905436 L1765,743.941803 L1765,741.047438 L1703.16397,776.73162 L1614.4858,725.553215 L1703.16397,674.389415 L1765,710.061426 L1765,707.167061 L1704.42071,672.213164 L1704.42071,622.483159 L1765,657.444358 L1765,654.545125 L1705.67745,620.311776 L1765,586.080862 L1765,583.186498 L1704.42071,618.140394 L1704.42071,568.417691 L1765,533.46136 L1765,530.562127 L1703.16397,566.243875 L1614.4858,515.06547 L1703.16397,463.894367 L1765,499.576115 L1765,496.679316 L1704.42071,461.720551 L1704.42071,411.995413 L1765,446.954179 L1765,444.054945 L1705.67745,409.826466 L1765,375.590683 L1765,372.698753 L1704.42071,407.652649 L1704.42071,357.922643 L1765,322.966312 L1765,320.071948 L1703.16397,355.753695 L1614.4858,304.580159 L1703.16397,253.404188 L1765,289.085935 L1765,286.189136 L1704.42071,251.237674 L1704.42071,201.505234 L1765,236.463999 L1765,233.564766 L1705.67745,199.336286 L1765,165.105372 L1765,162.203705 L1704.42071,197.16247 L1704.42071,147.437332 L1765,112.478567 L1765,109.581768 L1703.16397,145.26595 L1614.4858,94.087545 L1703.16397,42.9091396 L1765,78.5933217 L1765,75.698957 L1704.42071,40.7426261 L1704.42071,0.949371104 L1701.90966,0.949371104 L1701.90966,40.7426261 L1613.22662,91.9161629 L1613.22662,42.1910256 L1684.70254,0.949371104 L1679.68288,0.949371104 L1611.97475,40.0196435 L1544.26905,0.949371104 L1539.2494,0.949371104 L1610.71801,42.1910256 L1610.71801,91.9161629 L1522.03984,40.7426261 L1522.03984,0.949371104 L1519.52879,0.949371104 L1519.52879,40.7426261 L1430.84819,91.9161629 L1430.84819,42.1910256 L1502.31924,0.949371104 L1497.29958,0.949371104 L1429.59389,40.0196435 L1361.88575,0.949371104 L1356.86366,0.949371104 L1428.33958,42.1910256 L1428.33958,91.9161629 L1339.65654,40.7426261 L1339.65654,0.949371104 L1337.14306,0.949371104 L1337.14306,40.7426261 L1248.46489,91.9161629 L1248.46489,42.1910256 L1319.9335,0.949371104 L1314.91628,0.949371104 L1247.20815,40.0196435 L1179.50489,0.949371104 L1174.48036,0.949371104 L1245.95141,42.1910256 L1245.95141,91.9161629 L1157.26837,40.7426261 L1157.26837,0.949371104 L1154.75732,0.949371104 L1154.75732,40.7426261 L1066.07915,91.9161629 L1066.07915,42.1910256 L1137.5502,0.949371104 L1132.53542,0.949371104 L1064.82728,40.0196435 L1035.58614,23.1476149 L1035.58614,22.1276496 L997.240928,0 L992.216401,0 Z M520.307769,93.1406081 L608.983502,41.9622028 L697.666542,93.1406081 L608.983502,144.316579 L520.307769,93.1406081 Z M337.922032,93.1406081 L426.600201,41.9622028 L515.283241,93.1406081 L426.600201,144.316579 L337.922032,93.1406081 Z M155.541167,93.1406081 L244.219336,41.9622028 L332.902375,93.1406081 L244.219336,144.316579 L155.541167,93.1406081 Z M1432.10493,94.087545 L1520.7831,42.9091396 L1609.46858,94.087545 L1520.7831,145.26595 L1432.10493,94.087545 Z M1249.71919,94.087545 L1338.3998,42.9091396 L1427.08284,94.087545 L1338.3998,145.26595 L1249.71919,94.087545 Z M1067.33833,94.087545 L1156.01406,42.9091396 L1244.6971,94.087545 L1156.01406,145.26595 L1067.33833,94.087545 Z M885.83426,93.5812137 L973.633197,42.9091396 L1062.31624,94.087545 L1035.58614,109.513608 L1035.58614,108.634831 L973.750103,144.316579 L885.83426,93.5812137 Z M791.247461,42.9091396 L879.170611,93.6493737 L791.371674,144.316579 L702.691069,93.1406081 L729.411426,77.7194134 L729.411426,78.5981903 L791.247461,42.9091396 Z M701.436764,145.041996 L701.436764,95.3144245 L729.411426,111.458602 L729.411426,112.476133 L789.993156,147.437332 L789.993156,196.142504 L701.436764,145.041996 Z M610.240243,146.490396 L698.923282,95.3144245 L698.923282,145.041996 L610.240243,196.213099 L610.240243,146.490396 Z M519.051028,145.041996 L519.051028,95.3144245 L607.729196,146.490396 L607.729196,196.213099 L519.051028,145.041996 Z M427.856942,146.490396 L516.539982,95.3144245 L516.539982,145.041996 L427.856942,196.213099 L427.856942,146.490396 Z M336.665291,145.041996 L336.665291,95.3144245 L425.34346,146.490396 L425.34346,196.213099 L336.665291,145.041996 Z M245.476076,146.490396 L334.159116,95.3144245 L334.159116,145.041996 L245.476076,196.213099 L245.476076,146.490396 Z M154.284426,145.041996 L154.284426,95.3144245 L242.962595,146.490396 L242.962595,196.213099 L154.284426,145.041996 Z M63.0903401,146.490396 L151.77338,95.3144245 L151.77338,145.041996 L63.0903401,196.213099 L63.0903401,146.490396 Z M1613.22662,145.988933 L1613.22662,96.2589271 L1701.90966,147.437332 L1701.90966,197.16247 L1613.22662,145.988933 Z M1522.03984,147.437332 L1610.71801,96.2589271 L1610.71801,145.988933 L1522.03984,197.16247 L1522.03984,147.437332 Z M1430.84819,145.988933 L1430.84819,96.2589271 L1519.52879,147.437332 L1519.52879,197.16247 L1430.84819,145.988933 Z M1339.65654,147.437332 L1428.33958,96.2589271 L1428.33958,145.988933 L1339.65654,197.16247 L1339.65654,147.437332 Z M1248.46489,145.988933 L1248.46489,96.2589271 L1337.14306,147.437332 L1337.14306,197.16247 L1248.46489,145.988933 Z M1157.26837,147.437332 L1245.95141,96.2589271 L1245.95141,145.988933 L1157.26837,197.16247 L1157.26837,147.437332 Z M1066.07915,145.988933 L1066.07915,96.2589271 L1154.75732,147.437332 L1154.75732,197.16247 L1066.07915,145.988933 Z M975.006844,147.369172 L1063.57298,96.2589271 L1063.57298,145.988933 L1035.58614,162.137979 L1035.58614,161.256768 L975.006844,196.213099 L975.006844,147.369172 Z M792.625979,147.369172 L881.187242,96.2589271 L881.187242,145.110156 L792.625979,196.213099 L792.625979,147.369172 Z M883.812758,145.041996 L883.812758,96.3270871 L972.376456,147.437332 L972.376456,196.144939 L883.812758,145.041996 Z M611.496984,198.386915 L700.180023,147.213378 L729.411426,164.082972 L729.411426,165.098069 L787.97896,198.895681 L700.180023,249.560452 L611.496984,198.386915 Z M429.113683,198.386915 L517.794287,147.213378 L606.479762,198.386915 L517.794287,249.560452 L429.113683,198.386915 Z M246.732817,198.386915 L335.415857,147.213378 L424.09159,198.386915 L335.415857,249.560452 L246.732817,198.386915 Z M64.3446454,198.386915 L153.027685,147.213378 L241.708289,198.386915 L153.027685,249.560452 L64.3446454,198.386915 Z M1523.29171,199.336286 L1611.97475,148.160315 L1700.65535,199.336286 L1611.97475,250.509823 L1523.29171,199.336286 Z M1340.91085,199.336286 L1429.59389,148.160315 L1518.27205,199.336286 L1429.59389,250.509823 L1340.91085,199.336286 Z M1158.52754,199.336286 L1247.20815,148.160315 L1335.89119,199.336286 L1247.20815,250.509823 L1158.52754,199.336286 Z M1035.58614,233.63536 L1035.58614,232.615395 L977.025911,198.827521 L1064.82728,148.160315 L1153.50789,199.336286 L1064.82728,250.509823 L1035.58614,233.63536 Z M794.640174,198.827521 L882.443982,148.160315 L970.359826,198.895681 L882.560889,249.560452 L794.640174,198.827521 Z M610.240243,250.288303 L610.240243,200.558297 L698.923282,251.734268 L698.923282,301.454537 L610.240243,250.288303 Z M519.051028,251.734268 L607.729196,200.558297 L607.729196,250.288303 L519.051028,301.454537 L519.051028,251.734268 Z M427.856942,250.288303 L427.856942,200.558297 L516.539982,251.734268 L516.539982,301.454537 L427.856942,250.288303 Z M336.665291,251.734268 L425.34346,200.558297 L425.34346,250.288303 L336.665291,301.454537 L336.665291,251.734268 Z M245.476076,250.288303 L245.476076,200.558297 L334.159116,251.734268 L334.159116,301.454537 L245.476076,250.288303 Z M154.284426,251.734268 L242.962595,200.558297 L242.962595,250.288303 L154.284426,301.454537 L154.284426,251.734268 Z M63.0903401,250.288303 L63.0903401,200.558297 L151.77338,251.734268 L151.77338,301.454537 L63.0903401,250.288303 Z M1613.22662,252.683639 L1701.90966,201.505234 L1701.90966,251.237674 L1613.22662,302.403908 L1613.22662,252.683639 Z M1522.03984,251.237674 L1522.03984,201.505234 L1610.71801,252.683639 L1610.71801,302.403908 L1522.03984,251.237674 Z M1430.84819,252.683639 L1519.52879,201.505234 L1519.52879,251.237674 L1430.84819,302.403908 L1430.84819,252.683639 Z M1339.65654,251.237674 L1339.65654,201.505234 L1428.33958,252.683639 L1428.33958,302.403908 L1339.65654,251.237674 Z M1248.46489,252.683639 L1337.14306,201.505234 L1337.14306,251.237674 L1248.46489,302.403908 L1248.46489,252.683639 Z M1157.26837,251.237674 L1157.26837,201.505234 L1245.95141,252.683639 L1245.95141,302.403908 L1157.26837,251.237674 Z M1066.07915,252.683639 L1154.75732,201.505234 L1154.75732,251.237674 L1066.07915,302.403908 L1066.07915,252.683639 Z M883.812758,252.617914 L972.376456,201.505234 L972.376456,250.358897 L883.812758,301.454537 L883.812758,252.617914 Z M789.993156,201.505234 L789.993156,250.358897 L701.436764,301.454537 L701.436764,251.734268 L729.411426,235.587657 L729.411426,236.471302 L789.993156,201.505234 Z M1035.58614,286.257296 L1035.58614,285.239765 L975.006844,250.288303 L975.006844,201.57096 L1063.57298,252.683639 L1063.57298,302.403908 L1035.58614,286.257296 Z M792.625979,250.288303 L792.625979,201.575828 L881.187242,252.683639 L881.187242,301.388811 L792.625979,250.288303 Z M520.307769,303.630788 L608.983502,252.454817 L697.666542,303.630788 L608.983502,354.806759 L520.307769,303.630788 Z M337.922032,303.630788 L426.600201,252.454817 L515.283241,303.630788 L426.600201,354.806759 L337.922032,303.630788 Z M155.541167,303.630788 L244.219336,252.454817 L332.902375,303.630788 L244.219336,354.806759 L155.541167,303.630788 Z M1432.10493,304.580159 L1520.7831,253.404188 L1609.46858,304.580159 L1520.7831,355.753695 L1432.10493,304.580159 Z M1249.71919,304.580159 L1338.3998,253.404188 L1427.08284,304.580159 L1338.3998,355.753695 L1249.71919,304.580159 Z M1067.33833,304.580159 L1156.01406,253.404188 L1244.6971,304.580159 L1156.01406,355.753695 L1067.33833,304.580159 Z M885.83426,304.071393 L973.633197,253.404188 L1062.31624,304.580159 L1035.58614,320.006222 L1035.58614,319.125011 L973.750103,354.806759 L885.83426,304.071393 Z M791.247461,253.404188 L879.170611,304.139553 L791.371674,354.806759 L702.691069,303.630788 L729.411426,288.209593 L729.411426,289.08837 L791.247461,253.404188 Z M701.436764,355.53461 L701.436764,305.80217 L729.411426,321.946347 L729.411426,322.966312 L789.993156,357.922643 L789.993156,406.635118 L701.436764,355.53461 Z M610.240243,356.973272 L698.923282,305.80217 L698.923282,355.53461 L610.240243,406.703278 L610.240243,356.973272 Z M519.051028,355.53461 L519.051028,305.80217 L607.729196,356.973272 L607.729196,406.703278 L519.051028,355.53461 Z M427.856942,356.973272 L516.539982,305.80217 L516.539982,355.53461 L427.856942,406.703278 L427.856942,356.973272 Z M336.665291,355.53461 L336.665291,305.80217 L425.34346,356.973272 L425.34346,406.703278 L336.665291,355.53461 Z M245.476076,356.973272 L334.159116,305.80217 L334.159116,355.53461 L245.476076,406.703278 L245.476076,356.973272 Z M154.284426,355.53461 L154.284426,305.80217 L242.962595,356.973272 L242.962595,406.703278 L154.284426,355.53461 Z M63.0903401,356.973272 L151.77338,305.80217 L151.77338,355.53461 L63.0903401,406.703278 L63.0903401,356.973272 Z M1613.22662,356.481547 L1613.22662,306.751541 L1701.90966,357.922643 L1701.90966,407.652649 L1613.22662,356.481547 Z M1522.03984,357.922643 L1610.71801,306.751541 L1610.71801,356.481547 L1522.03984,407.652649 L1522.03984,357.922643 Z M1430.84819,356.481547 L1430.84819,306.751541 L1519.52879,357.922643 L1519.52879,407.652649 L1430.84819,356.481547 Z M1339.65654,357.922643 L1428.33958,306.751541 L1428.33958,356.481547 L1339.65654,407.652649 L1339.65654,357.922643 Z M1248.46489,356.481547 L1248.46489,306.751541 L1337.14306,357.922643 L1337.14306,407.652649 L1248.46489,356.481547 Z M1157.26837,357.922643 L1245.95141,306.751541 L1245.95141,356.481547 L1157.26837,407.652649 L1157.26837,357.922643 Z M1066.07915,356.481547 L1066.07915,306.751541 L1154.75732,357.922643 L1154.75732,407.652649 L1066.07915,356.481547 Z M975.006844,357.854483 L1063.57298,306.751541 L1063.57298,356.481547 L1035.58614,372.630593 L1035.58614,371.749381 L975.006844,406.703278 L975.006844,357.854483 Z M792.625979,357.852049 L881.187242,306.751541 L881.187242,355.600336 L792.625979,406.703278 L792.625979,357.852049 Z M883.812758,355.53461 L883.812758,306.817267 L972.376456,357.922643 L972.376456,406.635118 L883.812758,355.53461 Z M429.113683,408.879529 L517.794287,357.696255 L606.479762,408.884397 L517.794287,460.050631 L429.113683,408.879529 Z M611.496984,408.879529 L700.180023,357.698689 L729.411426,374.573152 L729.411426,375.590683 L787.97896,409.393163 L700.180023,460.050631 L611.496984,408.879529 Z M246.732817,408.879529 L335.415857,357.698689 L424.09159,408.884397 L335.415857,460.050631 L246.732817,408.879529 Z M64.3446454,408.879529 L153.027685,357.698689 L241.708289,408.884397 L153.027685,460.050631 L64.3446454,408.879529 Z M1158.52754,409.826466 L1247.20815,358.645626 L1335.89119,409.833768 L1247.20815,461.000002 L1158.52754,409.826466 Z M1523.29171,409.833768 L1611.97475,358.64806 L1700.65535,409.826466 L1611.97475,461.000002 L1523.29171,409.833768 Z M1340.91085,409.826466 L1429.59389,358.64806 L1518.27205,409.833768 L1429.59389,461.000002 L1340.91085,409.826466 Z M1035.58614,444.12554 L1035.58614,443.108008 L977.025911,409.320134 L1064.82728,358.64806 L1153.50789,409.833768 L1064.82728,461.000002 L1035.58614,444.12554 Z M794.637739,409.322569 L882.443982,358.64806 L970.35739,409.390729 L882.560889,460.050631 L794.637739,409.322569 Z M610.240243,460.773614 L610.240243,411.050911 L610.240243,411.046042 L698.923282,462.226882 L698.923282,511.947151 L610.240243,460.773614 Z M519.051028,462.226882 L607.729196,411.046042 L607.729196,460.773614 L519.051028,511.947151 L519.051028,462.226882 Z M427.856942,460.773614 L427.856942,411.050911 L427.856942,411.046042 L516.539982,462.226882 L516.539982,511.947151 L427.856942,460.773614 Z M336.665291,462.226882 L425.34346,411.046042 L425.34346,460.773614 L336.665291,511.947151 L336.665291,462.226882 Z M245.476076,460.773614 L245.476076,411.050911 L245.476076,411.046042 L334.159116,462.226882 L334.159116,511.947151 L245.476076,460.773614 Z M154.284426,462.226882 L242.962595,411.046042 L242.962595,460.773614 L154.284426,511.947151 L154.284426,462.226882 Z M63.0903401,460.773614 L63.0903401,411.050911 L63.0903401,411.046042 L151.77338,462.226882 L151.77338,511.947151 L63.0903401,460.773614 Z M1613.22662,463.173819 L1701.90966,411.995413 L1701.90966,461.720551 L1613.22662,512.894087 L1613.22662,463.173819 Z M1522.03984,461.720551 L1522.03984,412.000282 L1522.03984,411.995413 L1610.71801,463.173819 L1610.71801,512.894087 L1522.03984,461.720551 Z M1430.84819,463.173819 L1519.52879,411.995413 L1519.52879,412.000282 L1519.52879,461.720551 L1430.84819,512.894087 L1430.84819,463.173819 Z M1339.65654,461.720551 L1339.65654,412.000282 L1339.65654,411.995413 L1428.33958,463.173819 L1428.33958,512.894087 L1339.65654,461.720551 Z M1248.46489,463.173819 L1337.14306,411.995413 L1337.14306,461.720551 L1248.46489,512.894087 L1248.46489,463.173819 Z M1157.26837,461.720551 L1157.26837,412.000282 L1157.26837,411.995413 L1245.95141,463.173819 L1245.95141,512.894087 L1157.26837,461.720551 Z M1066.07915,463.173819 L1154.75732,411.995413 L1154.75732,461.720551 L1066.07915,512.894087 L1066.07915,463.173819 Z M883.812758,463.108093 L972.376456,411.995413 L972.376456,460.841774 L883.812758,511.947151 L883.812758,463.108093 Z M789.993156,411.995413 L789.993156,460.844208 L701.436764,511.947151 L701.436764,462.226882 L729.411426,446.077836 L729.411426,446.956613 L789.993156,411.995413 Z M1035.58614,496.745042 L1035.58614,495.732379 L975.006844,460.773614 L975.006844,412.063573 L1063.57298,463.173819 L1063.57298,512.894087 L1035.58614,496.745042 Z M792.625979,460.773614 L792.625979,412.066008 L881.187242,463.173819 L881.187242,511.878991 L792.625979,460.773614 Z M520.307769,514.118533 L608.983502,462.944996 L697.666542,514.118533 L608.983502,565.296938 L520.307769,514.118533 Z M337.922032,514.118533 L426.600201,462.944996 L515.283241,514.118533 L426.600201,565.296938 L337.922032,514.118533 Z M155.541167,514.118533 L244.219336,462.944996 L332.902375,514.118533 L244.219336,565.296938 L155.541167,514.118533 Z M1432.10493,515.06547 L1520.7831,463.894367 L1609.46858,515.06547 L1520.7831,566.243875 L1432.10493,515.06547 Z M1249.71919,515.06547 L1338.3998,463.894367 L1427.08284,515.06547 L1338.3998,566.243875 L1249.71919,515.06547 Z M1067.33833,515.06547 L1156.01406,463.894367 L1244.6971,515.06547 L1156.01406,566.243875 L1067.33833,515.06547 Z M885.83426,514.559138 L973.633197,463.894367 L1062.31624,515.06547 L1035.58614,530.491533 L1035.58614,529.612756 L973.750103,565.296938 L885.83426,514.559138 Z M791.247461,463.894367 L879.170611,514.627298 L791.371674,565.296938 L702.691069,514.118533 L729.411426,498.697338 L729.411426,499.576115 L791.247461,463.894367 Z M701.436764,566.019921 L701.436764,516.289915 L729.411426,532.436526 L729.411426,533.456492 L789.993156,568.417691 L789.993156,617.122863 L701.436764,566.019921 Z M610.240243,567.46832 L698.923282,516.289915 L698.923282,566.019921 L610.240243,617.193458 L610.240243,567.46832 Z M519.051028,566.019921 L519.051028,516.289915 L607.729196,567.46832 L607.729196,617.193458 L519.051028,566.019921 Z M427.856942,567.46832 L516.539982,516.289915 L516.539982,566.019921 L427.856942,617.193458 L427.856942,567.46832 Z M336.665291,566.019921 L336.665291,516.289915 L425.34346,567.46832 L425.34346,617.193458 L336.665291,566.019921 Z M245.476076,567.46832 L334.159116,516.289915 L334.159116,566.019921 L245.476076,617.193458 L245.476076,567.46832 Z M154.284426,566.019921 L154.284426,516.289915 L242.962595,567.46832 L242.962595,617.193458 L154.284426,566.019921 Z M63.0903401,567.46832 L151.77338,516.289915 L151.77338,566.019921 L63.0903401,617.193458 L63.0903401,567.46832 Z M1613.22662,566.969292 L1613.22662,517.239286 L1701.90966,568.417691 L1701.90966,618.140394 L1613.22662,566.969292 Z M1522.03984,568.417691 L1610.71801,517.239286 L1610.71801,566.969292 L1522.03984,618.140394 L1522.03984,568.417691 Z M1430.84819,566.969292 L1430.84819,517.239286 L1519.52879,568.417691 L1519.52879,618.140394 L1430.84819,566.969292 Z M1339.65654,568.417691 L1428.33958,517.239286 L1428.33958,566.969292 L1339.65654,618.140394 L1339.65654,568.417691 Z M1248.46489,566.969292 L1248.46489,517.239286 L1337.14306,568.417691 L1337.14306,618.140394 L1248.46489,566.969292 Z M1157.26837,568.417691 L1245.95141,517.239286 L1245.95141,566.969292 L1157.26837,618.140394 L1157.26837,568.417691 Z M1066.07915,566.969292 L1066.07915,517.239286 L1154.75732,568.417691 L1154.75732,618.140394 L1066.07915,566.969292 Z M975.006844,568.349531 L1063.57298,517.239286 L1063.57298,566.969292 L1035.58614,583.118338 L1035.58614,582.237127 L975.006844,617.193458 L975.006844,568.349531 Z M792.625979,568.344663 L881.187242,517.239286 L881.187242,566.088081 L792.625979,617.193458 L792.625979,568.344663 Z M883.812758,566.019921 L883.812758,517.305012 L972.376456,568.417691 L972.376456,617.125298 L883.812758,566.019921 Z M611.496984,619.36484 L700.180023,568.191303 L729.411426,585.058463 L729.411426,586.07356 L787.97896,619.871171 L700.180023,670.540811 L611.496984,619.36484 Z M429.113683,619.36484 L517.794287,568.191303 L606.479762,619.36484 L517.794287,670.540811 L429.113683,619.36484 Z M246.732817,619.36484 L335.415857,568.191303 L424.09159,619.36484 L335.415857,670.540811 L246.732817,619.36484 Z M64.3446454,619.36484 L153.027685,568.191303 L241.708289,619.36484 L153.027685,670.540811 L64.3446454,619.36484 Z M1523.29171,620.311776 L1611.97475,569.13824 L1700.65535,620.311776 L1611.97475,671.487748 L1523.29171,620.311776 Z M1340.91085,620.311776 L1429.59389,569.13824 L1518.27205,620.311776 L1429.59389,671.487748 L1340.91085,620.311776 Z M1158.52754,620.311776 L1247.20815,569.13824 L1335.89119,620.311776 L1247.20815,671.487748 L1158.52754,620.311776 Z M1035.58614,654.613285 L1035.58614,653.595754 L977.025911,619.805445 L1064.82728,569.13824 L1153.50789,620.311776 L1064.82728,671.487748 L1035.58614,654.613285 Z M794.640174,619.805445 L882.443982,569.13824 L970.359826,619.871171 L882.560889,670.540811 L794.640174,619.805445 Z M610.240243,671.266228 L610.240243,621.536222 L698.923282,672.714627 L698.923282,722.430027 L610.240243,671.266228 Z M519.051028,672.714627 L607.729196,621.536222 L607.729196,671.266228 L519.051028,722.430027 L519.051028,672.714627 Z M427.856942,671.266228 L427.856942,621.536222 L516.539982,672.714627 L516.539982,722.430027 L427.856942,671.266228 Z M336.665291,672.714627 L425.34346,621.536222 L425.34346,671.266228 L336.665291,722.430027 L336.665291,672.714627 Z M245.476076,671.266228 L245.476076,621.536222 L334.159116,672.714627 L334.159116,722.430027 L245.476076,671.266228 Z M154.284426,672.714627 L242.962595,621.536222 L242.962595,671.266228 L154.284426,722.430027 L154.284426,672.714627 Z M63.0903401,671.266228 L63.0903401,621.536222 L151.77338,672.714627 L151.77338,722.430027 L63.0903401,671.266228 Z M1613.22662,673.661564 L1701.90966,622.483159 L1701.90966,672.213164 L1613.22662,723.379398 L1613.22662,673.661564 Z M1522.03984,672.213164 L1522.03984,622.483159 L1610.71801,673.661564 L1610.71801,723.379398 L1522.03984,672.213164 Z M1430.84819,673.661564 L1519.52879,622.483159 L1519.52879,672.213164 L1430.84819,723.379398 L1430.84819,673.661564 Z M1339.65654,672.213164 L1339.65654,622.483159 L1428.33958,673.661564 L1428.33958,723.379398 L1339.65654,672.213164 Z M1248.46489,673.661564 L1337.14306,622.483159 L1337.14306,672.213164 L1248.46489,723.379398 L1248.46489,673.661564 Z M1157.26837,672.213164 L1157.26837,622.483159 L1245.95141,673.661564 L1245.95141,723.379398 L1157.26837,672.213164 Z M1066.07915,673.661564 L1154.75732,622.483159 L1154.75732,672.213164 L1066.07915,723.379398 L1066.07915,673.661564 Z M883.812758,673.595838 L972.376456,622.483159 L972.376456,671.334388 L883.812758,722.430027 L883.812758,673.595838 Z M789.993156,622.483159 L789.993156,671.334388 L701.436764,722.430027 L701.436764,672.714627 L729.411426,656.565581 L729.411426,657.444358 L789.993156,622.483159 Z M1035.58614,707.232787 L1035.58614,706.21769 L975.006844,671.266228 L975.006844,622.551319 L1063.57298,673.661564 L1063.57298,723.379398 L1035.58614,707.232787 Z M792.625979,671.266228 L792.625979,622.553753 L881.187242,673.661564 L881.187242,722.361867 L792.625979,671.266228 Z M520.307769,724.603844 L608.983502,673.440044 L697.666542,724.603844 L608.983502,775.782249 L520.307769,724.603844 Z M337.922032,724.603844 L426.600201,673.440044 L515.283241,724.603844 L426.600201,775.782249 L337.922032,724.603844 Z M155.541167,724.603844 L244.219336,673.440044 L332.902375,724.603844 L244.219336,775.782249 L155.541167,724.603844 Z M1432.10493,725.553215 L1520.7831,674.389415 L1609.46858,725.553215 L1520.7831,776.73162 L1432.10493,725.553215 Z M1249.71919,725.553215 L1338.3998,674.389415 L1427.08284,725.553215 L1338.3998,776.73162 L1249.71919,725.553215 Z M1067.33833,725.553215 L1156.01406,674.389415 L1244.6971,725.553215 L1156.01406,776.73162 L1067.33833,725.553215 Z M885.83426,725.044449 L973.633197,674.389415 L1062.31624,725.553215 L1035.58614,740.979278 L1035.58614,740.098067 L973.750103,775.782249 L885.83426,725.044449 Z M791.247461,674.389415 L879.170611,725.112609 L791.371674,775.782249 L702.691069,724.603844 L729.411426,709.187517 L729.411426,710.068729 L791.247461,674.389415 Z M701.436764,776.507666 L701.436764,726.77766 L729.411426,742.924272 L729.411426,743.941803 L789.993156,778.905436 L789.993156,827.610608 L701.436764,776.507666 Z M610.240243,777.956065 L698.923282,726.77766 L698.923282,776.507666 L610.240243,827.681203 L610.240243,777.956065 Z M519.051028,776.507666 L519.051028,726.77766 L607.729196,777.956065 L607.729196,827.681203 L519.051028,776.507666 Z M427.856942,777.956065 L516.539982,726.77766 L516.539982,776.507666 L427.856942,827.681203 L427.856942,777.956065 Z M336.665291,776.507666 L336.665291,726.77766 L425.34346,777.956065 L425.34346,827.681203 L336.665291,776.507666 Z M245.476076,777.956065 L334.159116,726.77766 L334.159116,776.507666 L245.476076,827.681203 L245.476076,777.956065 Z M154.284426,776.507666 L154.284426,726.77766 L242.962595,777.956065 L242.962595,827.681203 L154.284426,776.507666 Z M63.0903401,777.956065 L151.77338,726.77766 L151.77338,776.507666 L63.0903401,827.681203 L63.0903401,777.956065 Z M1613.22662,777.457037 L1613.22662,727.724597 L1701.90966,778.905436 L1701.90966,828.630574 L1613.22662,777.457037 Z M1522.03984,778.905436 L1610.71801,727.724597 L1610.71801,777.457037 L1522.03984,828.630574 L1522.03984,778.905436 Z M1430.84819,777.457037 L1430.84819,727.724597 L1519.52879,778.905436 L1519.52879,828.630574 L1430.84819,777.457037 Z M1339.65654,778.905436 L1428.33958,727.724597 L1428.33958,777.457037 L1339.65654,828.630574 L1339.65654,778.905436 Z M1248.46489,777.457037 L1248.46489,727.724597 L1337.14306,778.905436 L1337.14306,828.630574 L1248.46489,777.457037 Z M1157.26837,778.905436 L1245.95141,727.724597 L1245.95141,777.457037 L1157.26837,828.630574 L1157.26837,778.905436 Z M1066.07915,777.457037 L1066.07915,727.724597 L1154.75732,778.905436 L1154.75732,828.630574 L1066.07915,777.457037 Z M975.006844,778.837277 L1063.57298,727.724597 L1063.57298,777.457037 L1035.58614,793.606083 L1035.58614,792.727306 L975.006844,827.681203 L975.006844,778.837277 Z M792.625979,778.834842 L881.187242,727.724597 L881.187242,776.575826 L792.625979,827.681203 L792.625979,778.834842 Z M883.812758,776.507666 L883.812758,727.792757 L972.376456,778.905436 L972.376456,827.613043 L883.812758,776.507666 Z M611.496984,829.857453 L700.180023,778.683917 L729.411426,795.553511 L729.411426,796.568608 L787.97896,830.366219 L700.180023,881.026122 L611.496984,829.857453 Z M429.113683,829.857453 L517.794287,778.683917 L606.479762,829.857453 L517.794287,881.026122 L429.113683,829.857453 Z M246.732817,829.857453 L335.415857,778.683917 L424.09159,829.857453 L335.415857,881.026122 L246.732817,829.857453 Z M64.3446454,829.857453 L153.027685,778.683917 L241.708289,829.857453 L153.027685,881.026122 L64.3446454,829.857453 Z M1523.29171,830.806824 L1611.97475,779.630853 L1700.65535,830.806824 L1611.97475,881.975493 L1523.29171,830.806824 Z M1340.91085,830.806824 L1429.59389,779.630853 L1518.27205,830.806824 L1429.59389,881.975493 L1340.91085,830.806824 Z M1158.52754,830.806824 L1247.20815,779.630853 L1335.89119,830.806824 L1247.20815,881.975493 L1158.52754,830.806824 Z M1035.58614,865.103464 L1035.58614,864.085933 L977.025911,830.298059 L1064.82728,779.630853 L1153.50789,830.806824 L1064.82728,881.975493 L1035.58614,865.103464 Z M794.640174,830.298059 L882.443982,779.630853 L970.359826,830.368653 L882.560889,881.026122 L794.640174,830.298059 Z M610.240243,881.751538 L610.240243,832.03127 L610.240243,832.028835 L698.923282,883.197504 L698.923282,932.925075 L610.240243,881.751538 Z M519.051028,883.197504 L607.729196,832.028835 L607.729196,881.751538 L519.051028,932.925075 L519.051028,883.197504 Z M427.856942,881.751538 L427.856942,832.03127 L427.856942,832.028835 L516.539982,883.197504 L516.539982,932.925075 L427.856942,881.751538 Z M336.665291,883.197504 L425.34346,832.028835 L425.34346,881.751538 L336.665291,932.925075 L336.665291,883.197504 Z M245.476076,881.751538 L245.476076,832.03127 L245.476076,832.028835 L334.159116,883.197504 L334.159116,932.925075 L245.476076,881.751538 Z M154.284426,883.197504 L242.962595,832.028835 L242.962595,881.751538 L154.284426,932.925075 L154.284426,883.197504 Z M63.0903401,881.751538 L63.0903401,832.03127 L63.0903401,832.028835 L151.77338,883.197504 L151.77338,932.925075 L63.0903401,881.751538 Z M1613.22662,884.146875 L1701.90966,832.975772 L1701.90966,882.70091 L1613.22662,933.872012 L1613.22662,884.146875 Z M1522.03984,882.70091 L1522.03984,832.978207 L1522.03984,832.975772 L1610.71801,884.146875 L1610.71801,933.872012 L1522.03984,882.70091 Z M1430.84819,884.146875 L1519.52879,832.975772 L1519.52879,832.978207 L1519.52879,882.70091 L1430.84819,933.872012 L1430.84819,884.146875 Z M1339.65654,882.70091 L1339.65654,832.978207 L1339.65654,832.975772 L1428.33958,884.146875 L1428.33958,933.872012 L1339.65654,882.70091 Z M1248.46489,884.146875 L1337.14306,832.975772 L1337.14306,882.70091 L1248.46489,933.872012 L1248.46489,884.146875 Z M1157.26837,882.70091 L1157.26837,832.978207 L1157.26837,832.975772 L1245.95141,884.146875 L1245.95141,933.872012 L1157.26837,882.70091 Z M1066.07915,884.146875 L1154.75732,832.975772 L1154.75732,882.70091 L1066.07915,933.872012 L1066.07915,884.146875 Z M883.812758,884.081149 L972.376456,832.975772 L972.376456,881.822133 L883.812758,932.925075 L883.812758,884.081149 Z M789.993156,832.975772 L789.993156,881.822133 L701.436764,932.925075 L701.436764,883.197504 L729.411426,867.053326 L729.411426,867.934537 L789.993156,832.975772 Z M1035.58614,917.722966 L1035.58614,916.707869 L975.006844,881.751538 L975.006844,833.043932 L1063.57298,884.146875 L1063.57298,933.872012 L1035.58614,917.722966 Z M792.625979,881.751538 L792.625979,833.046367 L881.187242,884.146875 L881.187242,932.856915 L792.625979,881.751538 Z M520.307769,935.096457 L608.983502,883.922921 L697.666542,935.096457 L608.983502,986.274863 L520.307769,935.096457 Z M337.922032,935.096457 L426.600201,883.922921 L515.283241,935.096457 L426.600201,986.274863 L337.922032,935.096457 Z M155.541167,935.096457 L244.219336,883.922921 L332.902375,935.096457 L244.219336,986.274863 L155.541167,935.096457 Z M1432.10493,936.045828 L1520.7831,884.872292 L1609.46858,936.045828 L1520.7831,987.2218 L1432.10493,936.045828 Z M1249.71919,936.045828 L1338.3998,884.872292 L1427.08284,936.045828 L1338.3998,987.2218 L1249.71919,936.045828 Z M1067.33833,936.045828 L1156.01406,884.872292 L1244.6971,936.045828 L1156.01406,987.2218 L1067.33833,936.045828 Z M885.83426,935.537063 L973.633197,884.872292 L1062.31624,936.045828 L1035.58614,951.471892 L1035.58614,950.593115 L973.750103,986.274863 L885.83426,935.537063 Z M791.247461,884.872292 L879.170611,935.607657 L791.371674,986.274863 L702.691069,935.096457 L729.411426,919.677697 L729.411426,920.556474 L791.247461,884.872292 Z"></path>
                    </g>
                </g>
            </g>
        </g>
    </g>
</svg>