<?xml version="1.0" encoding="UTF-8"?>
<svg width="1419px" height="833px" viewBox="0 0 1419 833" version="1.1" xmlns="http://www.w3.org/2000/svg" xmlns:xlink="http://www.w3.org/1999/xlink">
    <!-- Generator: Sketch 50.2 (55047) - http://www.bohemiancoding.com/sketch -->
    <title>Page 1</title>
    <desc>Created with Sketch.</desc>
    <defs></defs>
    <g id="Page-1" stroke="none" stroke-width="1" fill="none" fill-rule="evenodd" opacity="0.370703125">
        <g id="Desktop-HD" transform="translate(-10.000000, -44.000000)" fill="#0770C6">
            <g id="Page-1" transform="translate(10.000000, 44.000000)">
                <polygon id="Fill-1" points="0 809.270989 40.0024722 832 44 832 0 807"></polygon>
                <polygon id="Fill-2" points="30.9527687 0 0 17.6869954 0 20 35 0"></polygon>
                <polygon id="Fill-3" points="1375 833 1379.00318 833 1419 810.274813 1419 808"></polygon>
                <polygon id="Fill-4" points="1384 1 1419 21 1419 18.6828794 1388.0529 1"></polygon>
                <path d="M797.708256,0 L799.02997,0.763345685 L797.614268,0.763345685 L855.076519,33.9238652 L855.076519,73.9055634 L832.576051,60.9208575 L832.576051,60.1027076 L783.872358,31.9978853 L783.872358,0 L781.85552,0 L781.85552,0.763345685 L781.757616,0.763345685 L781.757616,32.0526896 L710.555413,73.1422177 L710.555413,33.8690609 L767.921718,0.763345685 L766.699866,0.763345685 L768.019622,0 L763.985947,0 L709.548952,31.4165682 L655.115874,0 L651.08024,0 L652.401955,0.763345685 L650.984294,0.763345685 L708.444587,33.9238652 L708.444587,73.0874134 L637.244342,31.9978853 L637.244342,0 L635.225547,0 L635.225547,0.763345685 L635.127642,0.763345685 L635.127642,32.0526896 L563.931314,73.1422177 L563.931314,33.1624768 L586.421991,20.1797282 L586.421991,20.884355 L621.291744,0.763345685 L620.067934,0.763345685 L621.38769,0 L617.354015,0 L562.920937,31.4165682 L508.4859,0 L504.450267,0 L561.91056,33.1624768 L561.91056,73.1422177 L490.61241,31.9978853 L490.61241,0 L488.593615,0 L488.593615,31.9978853 L417.299382,73.1422177 L417.299382,33.1624768 L474.759675,0 L470.724041,0 L416.289005,31.4165682 L361.855926,0 L357.818335,0 L415.280586,33.1624768 L415.280586,73.1422177 L343.982436,31.9978853 L343.982436,0 L341.961683,0 L341.961683,31.9978853 L270.66745,73.1422177 L270.66745,33.1624768 L328.127743,0 L324.094067,0 L269.662947,31.4165682 L215.225952,0 L211.190319,0 L268.65257,33.1624768 L268.65257,73.1422177 L197.354421,31.9978853 L197.354421,0 L195.333667,0 L195.333667,31.9978853 L124.039434,73.1422177 L124.039434,33.1624768 L181.497769,0 L177.464093,0 L123.029057,31.4165682 L68.5940203,0 L64.5583868,0 L122.020638,33.1624768 L122.020638,73.1422177 L50.7224887,31.9978853 L50.7224887,0 L48.7036929,0 L48.7036929,31.9978853 L0,60.1066221 L0,62.4338478 L49.7140699,33.7398793 L121.014177,74.8900836 L49.7140699,116.038331 L0,87.344362 L0,89.673545 L48.7036929,117.786196 L48.7036929,157.765937 L0,129.659158 L0,131.986384 L47.6972322,159.513803 L0,187.037308 L0,189.372363 L48.7036929,161.259712 L48.7036929,201.245325 L0,229.350147 L0,231.67933 L49.7140699,202.987319 L121.014177,244.135566 L49.7140699,285.283813 L0,256.587887 L0,258.920984 L48.7036929,287.025807 L48.7036929,327.01142 L0,298.90464 L0,301.231866 L47.6972322,328.765157 L0,356.288662 L0,358.613931 L48.7036929,330.503237 L48.7036929,370.486892 L0,398.599544 L0,400.924812 L49.7140699,372.232801 L121.014177,413.379091 L49.7140699,454.529295 L0,425.835326 L0,428.166467 L48.7036929,456.275203 L48.7036929,496.256902 L0,468.148165 L0,470.473433 L47.6972322,498.00281 L0,525.532187 L0,527.86137 L48.7036929,499.748719 L48.7036929,539.734332 L0,567.839154 L0,570.170294 L49.7140699,541.482198 L121.014177,582.620658 L49.7140699,623.770862 L0,595.076894 L0,597.408034 L48.7036929,625.518728 L48.7036929,665.500426 L0,637.389732 L0,639.72283 L47.6972322,667.25025 L0,694.773755 L0,697.102938 L48.7036929,668.996158 L48.7036929,708.975899 L0,737.084636 L0,739.413819 L49.7140699,710.721808 L121.014177,751.868097 L49.7140699,793.018302 L0,764.324333 L0,766.653516 L48.7036929,794.76421 L48.7036929,832.236654 L50.7224887,832.236654 L50.7224887,794.76421 L122.020638,753.615963 L122.020638,753.617921 L122.020638,793.599619 L55.0714173,832.236654 L59.1011765,832.236654 L123.029057,795.345527 L186.954979,832.236654 L190.984738,832.236654 L124.039434,793.599619 L124.039434,753.615963 L195.333667,794.76421 L195.333667,832.236654 L197.354421,832.236654 L197.354421,794.76421 L268.65257,753.615963 L268.65257,753.617921 L268.65257,793.599619 L201.699433,832.236654 L205.733108,832.236654 L269.662947,795.345527 L333.584953,832.236654 L337.618628,832.236654 L270.66745,793.599619 L270.66745,753.615963 L341.961683,794.76421 L341.961683,832.236654 L343.982436,832.236654 L343.982436,794.76421 L415.280586,753.615963 L415.280586,753.617921 L415.280586,793.599619 L348.329407,832.236654 L352.36504,832.236654 L416.289005,795.345527 L480.214927,832.236654 L484.246644,832.236654 L417.299382,793.599619 L417.299382,753.615963 L488.593615,794.76421 L488.593615,832.236654 L490.61241,832.236654 L490.61241,794.76421 L561.91056,753.615963 L561.91056,753.617921 L561.91056,793.599619 L494.961339,832.236654 L498.993056,832.236654 L562.920937,795.345527 L586.421991,808.909593 L586.421991,809.727743 L626.746996,833 L630.778713,833 L629.456999,832.236654 L630.876618,832.236654 L563.931314,793.599619 L563.931314,753.615963 L586.421991,766.598712 L586.421991,767.416862 L635.127642,795.527556 L635.127642,833 L637.146438,833 L637.146438,832.236654 L637.244342,832.236654 L637.244342,795.470794 L708.444587,754.379309 L708.444587,754.381266 L708.444587,793.652466 L641.593271,832.236654 L642.815122,832.236654 L641.493408,833 L645.527084,833 L709.454964,796.108873 L773.380886,833 L777.410645,833 L776.088931,832.236654 L777.506592,832.236654 L710.555413,793.599619 L710.555413,754.432156 L781.757616,795.527556 L781.757616,833 L783.77837,833 L783.77837,832.236654 L783.872358,832.236654 L783.872358,795.474709 L855.076519,754.379309 L855.076519,754.381266 L855.076519,794.361007 L832.576051,807.34767 L832.576051,806.639129 L788.219329,832.236654 L789.445096,832.236654 L788.12534,833 L792.157057,833 L856.084938,796.108873 L920.008902,833 L924.040619,833 L857.091398,794.361007 L857.091398,754.379309 L928.385632,795.527556 L928.385632,833 L930.404427,833 L930.404427,795.527556 L1001.70258,754.379309 L1001.70258,754.381266 L1001.70258,794.361007 L934.753356,833 L938.788989,833 L1002.71295,796.108873 L1066.63888,833 L1070.67059,833 L1003.72333,794.361007 L1003.72333,754.379309 L1075.01756,795.527556 L1075.01756,833 L1077.03832,833 L1077.03832,795.527556 L1148.33647,754.379309 L1148.33647,754.381266 L1148.33647,794.361007 L1081.38529,833 L1085.41701,833 L1149.34489,796.108873 L1213.26885,833 L1217.30057,833 L1150.3533,794.361007 L1150.3533,754.379309 L1221.6495,795.527556 L1221.6495,833 L1223.66829,833 L1223.66829,795.527556 L1294.96252,754.379309 L1294.96252,794.361007 L1228.01526,833 L1232.04894,833 L1295.9729,796.108873 L1359.90274,833 L1363.9325,833 L1296.97936,794.361007 L1296.97936,754.381266 L1296.97936,754.379309 L1368.27751,795.527556 L1368.27751,833 L1370.29631,833 L1370.29631,795.527556 L1419,767.418819 L1419,765.091593 L1369.28593,793.77969 L1297.9917,752.631443 L1369.28593,711.485153 L1419,740.17325 L1419,737.844067 L1370.29631,709.739245 L1370.29631,669.757547 L1419,697.862369 L1419,695.533186 L1371.30668,668.013595 L1419,640.486176 L1419,638.155035 L1370.29631,666.263772 L1370.29631,626.282074 L1419,598.169422 L1419,595.842197 L1369.28593,624.534208 L1297.9917,583.384004 L1369.28593,542.245543 L1419,570.927768 L1419,568.600542 L1370.29631,540.49572 L1370.29631,500.510107 L1419,528.620801 L1419,526.289661 L1371.30668,498.764199 L1419,471.240693 L1419,468.913468 L1370.29631,497.01829 L1370.29631,457.038549 L1419,428.93177 L1419,426.600629 L1369.28593,455.290683 L1297.9917,414.140479 L1369.28593,372.996146 L1419,401.6862 L1419,399.357017 L1370.29631,371.248281 L1370.29631,331.266582 L1419,359.375319 L1419,357.044179 L1371.30668,329.522631 L1419,301.995211 L1419,299.669943 L1370.29631,327.774765 L1370.29631,287.789152 L1419,259.682373 L1419,257.355147 L1369.28593,286.045201 L1297.9917,244.898911 L1369.28593,203.750664 L1419,232.440718 L1419,230.111535 L1370.29631,202.00867 L1370.29631,162.0211 L1419,190.129837 L1419,187.798697 L1371.30668,160.277149 L1419,132.753644 L1419,130.420546 L1370.29631,158.529283 L1370.29631,118.547585 L1419,90.438848 L1419,88.109665 L1369.28593,116.801676 L1297.9917,75.651472 L1369.28593,34.5012677 L1419,63.1932789 L1419,60.8660532 L1370.29631,32.7592737 L1370.29631,0.763345685 L1368.27751,0.763345685 L1368.27751,32.7592737 L1296.97936,73.9055634 L1296.97936,33.9238652 L1354.44357,0.763345685 L1350.40794,0.763345685 L1295.9729,32.1779566 L1241.53982,0.763345685 L1237.50419,0.763345685 L1294.96252,33.9238652 L1294.96252,73.9055634 L1223.66829,32.7592737 L1223.66829,0.763345685 L1221.6495,0.763345685 L1221.6495,32.7592737 L1150.3533,73.9055634 L1150.3533,33.9238652 L1207.8136,0.763345685 L1203.77796,0.763345685 L1149.34489,32.1779566 L1094.90985,0.763345685 L1090.87226,0.763345685 L1148.33647,33.9238652 L1148.33647,73.9055634 L1077.03832,32.7592737 L1077.03832,0.763345685 L1075.01756,0.763345685 L1075.01756,32.7592737 L1003.72333,73.9055634 L1003.72333,33.9238652 L1061.18167,0.763345685 L1057.14799,0.763345685 L1002.71295,32.1779566 L948.281833,0.763345685 L944.242284,0.763345685 L1001.70258,33.9238652 L1001.70258,73.9055634 L930.404427,32.7592737 L930.404427,0.763345685 L928.385632,0.763345685 L928.385632,32.7592737 L857.091398,73.9055634 L857.091398,33.9238652 L914.551691,0.763345685 L910.519974,0.763345685 L856.084938,32.1779566 L832.576051,18.6119336 L832.576051,17.7918263 L801.747806,0 L797.708256,0 Z M418.309758,74.8900836 L489.602033,33.7398793 L560.900183,74.8900836 L489.602033,116.038331 L418.309758,74.8900836 Z M271.677826,74.8900836 L342.97206,33.7398793 L414.270209,74.8900836 L342.97206,116.038331 L271.677826,74.8900836 Z M125.049811,74.8900836 L196.344044,33.7398793 L267.642193,74.8900836 L196.344044,116.038331 L125.049811,74.8900836 Z M1151.36368,75.651472 L1222.65791,34.5012677 L1293.95802,75.651472 L1222.65791,116.801676 L1151.36368,75.651472 Z M1004.73175,75.651472 L1076.02794,34.5012677 L1147.32609,75.651472 L1076.02794,116.801676 L1004.73175,75.651472 Z M858.103733,75.651472 L929.396008,34.5012677 L1000.69416,75.651472 L929.396008,116.801676 L858.103733,75.651472 Z M712.180632,75.2443543 L782.767993,34.5012677 L854.066142,75.651472 L832.576051,88.0548607 L832.576051,87.3482766 L782.861981,116.038331 L712.180632,75.2443543 Z M636.136061,34.5012677 L706.823284,75.2991586 L636.235924,116.038331 L564.939732,74.8900836 L586.421991,62.4906094 L586.421991,63.1971935 L636.136061,34.5012677 Z M563.931314,116.621605 L563.931314,76.6379495 L586.421991,89.6187407 L586.421991,90.4368907 L635.127642,118.547585 L635.127642,157.709176 L563.931314,116.621605 Z M490.61241,117.786196 L561.91056,76.6379495 L561.91056,116.621605 L490.61241,157.765937 L490.61241,117.786196 Z M417.299382,116.621605 L417.299382,76.6379495 L488.593615,117.786196 L488.593615,157.765937 L417.299382,116.621605 Z M343.982436,117.786196 L415.280586,76.6379495 L415.280586,116.621605 L343.982436,157.765937 L343.982436,117.786196 Z M270.66745,116.621605 L270.66745,76.6379495 L341.961683,117.786196 L341.961683,157.765937 L270.66745,116.621605 Z M197.354421,117.786196 L268.65257,76.6379495 L268.65257,116.621605 L197.354421,157.765937 L197.354421,117.786196 Z M124.039434,116.621605 L124.039434,76.6379495 L195.333667,117.786196 L195.333667,157.765937 L124.039434,116.621605 Z M50.7224887,117.786196 L122.020638,76.6379495 L122.020638,116.621605 L50.7224887,157.765937 L50.7224887,117.786196 Z M1296.97936,117.382993 L1296.97936,77.3973806 L1368.27751,118.547585 L1368.27751,158.529283 L1296.97936,117.382993 Z M1223.66829,118.547585 L1294.96252,77.3973806 L1294.96252,117.382993 L1223.66829,158.529283 L1223.66829,118.547585 Z M1150.3533,117.382993 L1150.3533,77.3973806 L1221.6495,118.547585 L1221.6495,158.529283 L1150.3533,117.382993 Z M1077.03832,118.547585 L1148.33647,77.3973806 L1148.33647,117.382993 L1077.03832,158.529283 L1077.03832,118.547585 Z M1003.72333,117.382993 L1003.72333,77.3973806 L1075.01756,118.547585 L1075.01756,158.529283 L1003.72333,117.382993 Z M930.404427,118.547585 L1001.70258,77.3973806 L1001.70258,117.382993 L930.404427,158.529283 L930.404427,118.547585 Z M857.091398,117.382993 L857.091398,77.3973806 L928.385632,118.547585 L928.385632,158.529283 L857.091398,117.382993 Z M783.872358,118.492781 L855.076519,77.3973806 L855.076519,117.382993 L832.576051,130.367699 L832.576051,129.659158 L783.872358,157.765937 L783.872358,118.492781 Z M637.244342,118.492781 L708.444587,77.3973806 L708.444587,116.676409 L637.244342,157.765937 L637.244342,118.492781 Z M710.555413,116.621605 L710.555413,77.4521849 L781.757616,118.547585 L781.757616,157.711133 L710.555413,116.621605 Z M491.622787,159.513803 L562.920937,118.367514 L586.421991,131.931579 L586.421991,132.747772 L633.508297,159.922878 L562.920937,200.660093 L491.622787,159.513803 Z M344.992813,159.513803 L416.289005,118.367514 L487.589112,159.513803 L416.289005,200.660093 L344.992813,159.513803 Z M198.364798,159.513803 L269.662947,118.367514 L340.955222,159.513803 L269.662947,200.660093 L198.364798,159.513803 Z M51.7309075,159.513803 L123.029057,118.367514 L194.325248,159.513803 L123.029057,200.660093 L51.7309075,159.513803 Z M1224.67475,160.277149 L1295.9729,119.128902 L1367.26909,160.277149 L1295.9729,201.423439 L1224.67475,160.277149 Z M1078.04674,160.277149 L1149.34489,119.128902 L1220.63912,160.277149 L1149.34489,201.423439 L1078.04674,160.277149 Z M931.416762,160.277149 L1002.71295,119.128902 L1074.0111,160.277149 L1002.71295,201.423439 L931.416762,160.277149 Z M832.576051,187.855458 L832.576051,187.035351 L785.495619,159.868074 L856.084938,119.128902 L927.381129,160.277149 L856.084938,201.423439 L832.576051,187.855458 Z M638.863687,159.868074 L709.454964,119.128902 L780.136313,159.922878 L709.548952,200.660093 L638.863687,159.868074 Z M490.61241,201.245325 L490.61241,161.259712 L561.91056,202.407959 L561.91056,242.385743 L490.61241,201.245325 Z M417.299382,202.407959 L488.593615,161.259712 L488.593615,201.245325 L417.299382,242.385743 L417.299382,202.407959 Z M343.982436,201.245325 L343.982436,161.259712 L415.280586,202.407959 L415.280586,242.385743 L343.982436,201.245325 Z M270.66745,202.407959 L341.961683,161.259712 L341.961683,201.245325 L270.66745,242.385743 L270.66745,202.407959 Z M197.354421,201.245325 L197.354421,161.259712 L268.65257,202.407959 L268.65257,242.385743 L197.354421,201.245325 Z M124.039434,202.407959 L195.333667,161.259712 L195.333667,201.245325 L124.039434,242.385743 L124.039434,202.407959 Z M50.7224887,201.245325 L50.7224887,161.259712 L122.020638,202.407959 L122.020638,242.385743 L50.7224887,201.245325 Z M1296.97936,203.171305 L1368.27751,162.0211 L1368.27751,202.00867 L1296.97936,243.149088 L1296.97936,203.171305 Z M1223.66829,202.00867 L1223.66829,162.0211 L1294.96252,203.171305 L1294.96252,243.149088 L1223.66829,202.00867 Z M1150.3533,203.171305 L1221.6495,162.0211 L1221.6495,202.00867 L1150.3533,243.149088 L1150.3533,203.171305 Z M1077.03832,202.00867 L1077.03832,162.0211 L1148.33647,203.171305 L1148.33647,243.149088 L1077.03832,202.00867 Z M1003.72333,203.171305 L1075.01756,162.0211 L1075.01756,202.00867 L1003.72333,243.149088 L1003.72333,203.171305 Z M930.404427,202.00867 L930.404427,162.0211 L1001.70258,203.171305 L1001.70258,243.149088 L930.404427,202.00867 Z M857.091398,203.171305 L928.385632,162.0211 L928.385632,202.00867 L857.091398,243.149088 L857.091398,203.171305 Z M710.555413,203.118458 L781.757616,162.0211 L781.757616,201.302086 L710.555413,242.385743 L710.555413,203.118458 Z M635.127642,162.0211 L635.127642,201.302086 L563.931314,242.385743 L563.931314,202.407959 L586.421991,189.42521 L586.421991,190.135709 L635.127642,162.0211 Z M832.576051,230.16634 L832.576051,229.34819 L783.872358,201.245325 L783.872358,162.073947 L855.076519,203.171305 L855.076519,243.149088 L832.576051,230.16634 Z M637.244342,201.245325 L637.244342,162.077862 L708.444587,203.171305 L708.444587,242.332896 L637.244342,201.245325 Z M418.309758,244.135566 L489.602033,202.987319 L560.900183,244.135566 L489.602033,285.283813 L418.309758,244.135566 Z M271.677826,244.135566 L342.97206,202.987319 L414.270209,244.135566 L342.97206,285.283813 L271.677826,244.135566 Z M125.049811,244.135566 L196.344044,202.987319 L267.642193,244.135566 L196.344044,285.283813 L125.049811,244.135566 Z M1151.36368,244.898911 L1222.65791,203.750664 L1293.95802,244.898911 L1222.65791,286.045201 L1151.36368,244.898911 Z M1004.73175,244.898911 L1076.02794,203.750664 L1147.32609,244.898911 L1076.02794,286.045201 L1004.73175,244.898911 Z M858.103733,244.898911 L929.396008,203.750664 L1000.69416,244.898911 L929.396008,286.045201 L858.103733,244.898911 Z M712.180632,244.489836 L782.767993,203.750664 L854.066142,244.898911 L832.576051,257.3023 L832.576051,256.593759 L782.861981,285.283813 L712.180632,244.489836 Z M636.136061,203.750664 L706.823284,244.544641 L636.235924,285.283813 L564.939732,244.135566 L586.421991,231.736092 L586.421991,232.442676 L636.136061,203.750664 Z M563.931314,285.869044 L563.931314,245.881474 L586.421991,258.862266 L586.421991,259.682373 L635.127642,287.789152 L635.127642,326.956615 L563.931314,285.869044 Z M490.61241,287.025807 L561.91056,245.881474 L561.91056,285.869044 L490.61241,327.01142 L490.61241,287.025807 Z M417.299382,285.869044 L417.299382,245.881474 L488.593615,287.025807 L488.593615,327.01142 L417.299382,285.869044 Z M343.982436,287.025807 L415.280586,245.881474 L415.280586,285.869044 L343.982436,327.01142 L343.982436,287.025807 Z M270.66745,285.869044 L270.66745,245.881474 L341.961683,287.025807 L341.961683,327.01142 L270.66745,285.869044 Z M197.354421,287.025807 L268.65257,245.881474 L268.65257,285.869044 L197.354421,327.01142 L197.354421,287.025807 Z M124.039434,285.869044 L124.039434,245.881474 L195.333667,287.025807 L195.333667,327.01142 L124.039434,285.869044 Z M50.7224887,287.025807 L122.020638,245.881474 L122.020638,285.869044 L50.7224887,327.01142 L50.7224887,287.025807 Z M1296.97936,286.630433 L1296.97936,246.64482 L1368.27751,287.789152 L1368.27751,327.774765 L1296.97936,286.630433 Z M1223.66829,287.789152 L1294.96252,246.64482 L1294.96252,286.630433 L1223.66829,327.774765 L1223.66829,287.789152 Z M1150.3533,286.630433 L1150.3533,246.64482 L1221.6495,287.789152 L1221.6495,327.774765 L1150.3533,286.630433 Z M1077.03832,287.789152 L1148.33647,246.64482 L1148.33647,286.630433 L1077.03832,327.774765 L1077.03832,287.789152 Z M1003.72333,286.630433 L1003.72333,246.64482 L1075.01756,287.789152 L1075.01756,327.774765 L1003.72333,286.630433 Z M930.404427,287.789152 L1001.70258,246.64482 L1001.70258,286.630433 L930.404427,327.774765 L930.404427,287.789152 Z M857.091398,286.630433 L857.091398,246.64482 L928.385632,287.789152 L928.385632,327.774765 L857.091398,286.630433 Z M783.872358,287.734348 L855.076519,246.64482 L855.076519,286.630433 L832.576051,299.615139 L832.576051,298.906597 L783.872358,327.01142 L783.872358,287.734348 Z M637.244342,287.732391 L708.444587,246.64482 L708.444587,285.921891 L637.244342,327.01142 L637.244342,287.732391 Z M710.555413,285.869044 L710.555413,246.697667 L781.757616,287.789152 L781.757616,326.956615 L710.555413,285.869044 Z M344.992813,328.761243 L416.289005,287.607124 L487.589112,328.765157 L416.289005,369.905575 L344.992813,328.761243 Z M491.622787,328.761243 L562.920937,287.609081 L586.421991,301.177061 L586.421991,301.995211 L633.508297,329.174232 L562.920937,369.905575 L491.622787,328.761243 Z M198.364798,328.761243 L269.662947,287.609081 L340.955222,328.765157 L269.662947,369.905575 L198.364798,328.761243 Z M51.7309075,328.761243 L123.029057,287.609081 L194.325248,328.765157 L123.029057,369.905575 L51.7309075,328.761243 Z M931.416762,329.522631 L1002.71295,288.370469 L1074.0111,329.528503 L1002.71295,370.668921 L931.416762,329.522631 Z M1224.67475,329.528503 L1295.9729,288.372427 L1367.26909,329.522631 L1295.9729,370.668921 L1224.67475,329.528503 Z M1078.04674,329.522631 L1149.34489,288.372427 L1220.63912,329.528503 L1149.34489,370.668921 L1078.04674,329.522631 Z M832.576051,357.100941 L832.576051,356.282791 L785.495619,329.115513 L856.084938,288.372427 L927.381129,329.528503 L856.084938,370.668921 L832.576051,357.100941 Z M638.861729,329.117471 L709.454964,288.372427 L780.134355,329.172275 L709.548952,369.905575 L638.861729,329.117471 Z M490.61241,370.486892 L490.61241,330.507151 L490.61241,330.503237 L561.91056,371.655398 L561.91056,411.633182 L490.61241,370.486892 Z M417.299382,371.655398 L488.593615,330.503237 L488.593615,370.486892 L417.299382,411.633182 L417.299382,371.655398 Z M343.982436,370.486892 L343.982436,330.507151 L343.982436,330.503237 L415.280586,371.655398 L415.280586,411.633182 L343.982436,370.486892 Z M270.66745,371.655398 L341.961683,330.503237 L341.961683,370.486892 L270.66745,411.633182 L270.66745,371.655398 Z M197.354421,370.486892 L197.354421,330.507151 L197.354421,330.503237 L268.65257,371.655398 L268.65257,411.633182 L197.354421,370.486892 Z M124.039434,371.655398 L195.333667,330.503237 L195.333667,370.486892 L124.039434,411.633182 L124.039434,371.655398 Z M50.7224887,370.486892 L50.7224887,330.507151 L50.7224887,330.503237 L122.020638,371.655398 L122.020638,411.633182 L50.7224887,370.486892 Z M1296.97936,372.416787 L1368.27751,331.266582 L1368.27751,371.248281 L1296.97936,412.39457 L1296.97936,372.416787 Z M1223.66829,371.248281 L1223.66829,331.270497 L1223.66829,331.266582 L1294.96252,372.416787 L1294.96252,412.39457 L1223.66829,371.248281 Z M1150.3533,372.416787 L1221.6495,331.266582 L1221.6495,331.270497 L1221.6495,371.248281 L1150.3533,412.39457 L1150.3533,372.416787 Z M1077.03832,371.248281 L1077.03832,331.270497 L1077.03832,331.266582 L1148.33647,372.416787 L1148.33647,412.39457 L1077.03832,371.248281 Z M1003.72333,372.416787 L1075.01756,331.266582 L1075.01756,371.248281 L1003.72333,412.39457 L1003.72333,372.416787 Z M930.404427,371.248281 L930.404427,331.270497 L930.404427,331.266582 L1001.70258,372.416787 L1001.70258,412.39457 L930.404427,371.248281 Z M857.091398,372.416787 L928.385632,331.266582 L928.385632,371.248281 L857.091398,412.39457 L857.091398,372.416787 Z M710.555413,372.36394 L781.757616,331.266582 L781.757616,370.541697 L710.555413,411.633182 L710.555413,372.36394 Z M635.127642,331.266582 L635.127642,370.543654 L563.931314,411.633182 L563.931314,371.655398 L586.421991,358.670692 L586.421991,359.377277 L635.127642,331.266582 Z M832.576051,399.409864 L832.576051,398.595629 L783.872358,370.486892 L783.872358,331.321387 L855.076519,372.416787 L855.076519,412.39457 L832.576051,399.409864 Z M637.244342,370.486892 L637.244342,331.323344 L708.444587,372.416787 L708.444587,411.578378 L637.244342,370.486892 Z M418.309758,413.379091 L489.602033,372.232801 L560.900183,413.379091 L489.602033,454.529295 L418.309758,413.379091 Z M271.677826,413.379091 L342.97206,372.232801 L414.270209,413.379091 L342.97206,454.529295 L271.677826,413.379091 Z M125.049811,413.379091 L196.344044,372.232801 L267.642193,413.379091 L196.344044,454.529295 L125.049811,413.379091 Z M1151.36368,414.140479 L1222.65791,372.996146 L1293.95802,414.140479 L1222.65791,455.290683 L1151.36368,414.140479 Z M1004.73175,414.140479 L1076.02794,372.996146 L1147.32609,414.140479 L1076.02794,455.290683 L1004.73175,414.140479 Z M858.103733,414.140479 L929.396008,372.996146 L1000.69416,414.140479 L929.396008,455.290683 L858.103733,414.140479 Z M712.180632,413.733361 L782.767993,372.996146 L854.066142,414.140479 L832.576051,426.543868 L832.576051,425.837284 L782.861981,454.529295 L712.180632,413.733361 Z M636.136061,372.996146 L706.823284,413.788166 L636.235924,454.529295 L564.939732,413.379091 L586.421991,400.979616 L586.421991,401.6862 L636.136061,372.996146 Z M563.931314,455.110612 L563.931314,415.124999 L586.421991,428.107748 L586.421991,428.927855 L635.127642,457.038549 L635.127642,496.20014 L563.931314,455.110612 Z M490.61241,456.275203 L561.91056,415.124999 L561.91056,455.110612 L490.61241,496.256902 L490.61241,456.275203 Z M417.299382,455.110612 L417.299382,415.124999 L488.593615,456.275203 L488.593615,496.256902 L417.299382,455.110612 Z M343.982436,456.275203 L415.280586,415.124999 L415.280586,455.110612 L343.982436,496.256902 L343.982436,456.275203 Z M270.66745,455.110612 L270.66745,415.124999 L341.961683,456.275203 L341.961683,496.256902 L270.66745,455.110612 Z M197.354421,456.275203 L268.65257,415.124999 L268.65257,455.110612 L197.354421,496.256902 L197.354421,456.275203 Z M124.039434,455.110612 L124.039434,415.124999 L195.333667,456.275203 L195.333667,496.256902 L124.039434,455.110612 Z M50.7224887,456.275203 L122.020638,415.124999 L122.020638,455.110612 L50.7224887,496.256902 L50.7224887,456.275203 Z M1296.97936,455.873958 L1296.97936,415.888345 L1368.27751,457.038549 L1368.27751,497.01829 L1296.97936,455.873958 Z M1223.66829,457.038549 L1294.96252,415.888345 L1294.96252,455.873958 L1223.66829,497.01829 L1223.66829,457.038549 Z M1150.3533,455.873958 L1150.3533,415.888345 L1221.6495,457.038549 L1221.6495,497.01829 L1150.3533,455.873958 Z M1077.03832,457.038549 L1148.33647,415.888345 L1148.33647,455.873958 L1077.03832,497.01829 L1077.03832,457.038549 Z M1003.72333,455.873958 L1003.72333,415.888345 L1075.01756,457.038549 L1075.01756,497.01829 L1003.72333,455.873958 Z M930.404427,457.038549 L1001.70258,415.888345 L1001.70258,455.873958 L930.404427,497.01829 L930.404427,457.038549 Z M857.091398,455.873958 L857.091398,415.888345 L928.385632,457.038549 L928.385632,497.01829 L857.091398,455.873958 Z M783.872358,456.983745 L855.076519,415.888345 L855.076519,455.873958 L832.576051,468.858663 L832.576051,468.150122 L783.872358,496.256902 L783.872358,456.983745 Z M637.244342,456.97983 L708.444587,415.888345 L708.444587,455.165416 L637.244342,496.256902 L637.244342,456.97983 Z M710.555413,455.110612 L710.555413,415.941192 L781.757616,457.038549 L781.757616,496.202097 L710.555413,455.110612 Z M491.622787,498.00281 L562.920937,456.856521 L586.421991,470.418629 L586.421991,471.234822 L633.508297,498.409928 L562.920937,539.151057 L491.622787,498.00281 Z M344.992813,498.00281 L416.289005,456.856521 L487.589112,498.00281 L416.289005,539.151057 L344.992813,498.00281 Z M198.364798,498.00281 L269.662947,456.856521 L340.955222,498.00281 L269.662947,539.151057 L198.364798,498.00281 Z M51.7309075,498.00281 L123.029057,456.856521 L194.325248,498.00281 L123.029057,539.151057 L51.7309075,498.00281 Z M1224.67475,498.764199 L1295.9729,457.617909 L1367.26909,498.764199 L1295.9729,539.912446 L1224.67475,498.764199 Z M1078.04674,498.764199 L1149.34489,457.617909 L1220.63912,498.764199 L1149.34489,539.912446 L1078.04674,498.764199 Z M931.416762,498.764199 L1002.71295,457.617909 L1074.0111,498.764199 L1002.71295,539.912446 L931.416762,498.764199 Z M832.576051,526.344465 L832.576051,525.526315 L785.495619,498.357081 L856.084938,457.617909 L927.381129,498.764199 L856.084938,539.912446 L832.576051,526.344465 Z M638.863687,498.357081 L709.454964,457.617909 L780.136313,498.409928 L709.548952,539.151057 L638.863687,498.357081 Z M490.61241,539.734332 L490.61241,499.748719 L561.91056,540.898923 L561.91056,580.872792 L490.61241,539.734332 Z M417.299382,540.898923 L488.593615,499.748719 L488.593615,539.734332 L417.299382,580.872792 L417.299382,540.898923 Z M343.982436,539.734332 L343.982436,499.748719 L415.280586,540.898923 L415.280586,580.872792 L343.982436,539.734332 Z M270.66745,540.898923 L341.961683,499.748719 L341.961683,539.734332 L270.66745,580.872792 L270.66745,540.898923 Z M197.354421,539.734332 L197.354421,499.748719 L268.65257,540.898923 L268.65257,580.872792 L197.354421,539.734332 Z M124.039434,540.898923 L195.333667,499.748719 L195.333667,539.734332 L124.039434,580.872792 L124.039434,540.898923 Z M50.7224887,539.734332 L50.7224887,499.748719 L122.020638,540.898923 L122.020638,580.872792 L50.7224887,539.734332 Z M1296.97936,541.660312 L1368.27751,500.510107 L1368.27751,540.49572 L1296.97936,581.636138 L1296.97936,541.660312 Z M1223.66829,540.49572 L1223.66829,500.510107 L1294.96252,541.660312 L1294.96252,581.636138 L1223.66829,540.49572 Z M1150.3533,541.660312 L1221.6495,500.510107 L1221.6495,540.49572 L1150.3533,581.636138 L1150.3533,541.660312 Z M1077.03832,540.49572 L1077.03832,500.510107 L1148.33647,541.660312 L1148.33647,581.636138 L1077.03832,540.49572 Z M1003.72333,541.660312 L1075.01756,500.510107 L1075.01756,540.49572 L1003.72333,581.636138 L1003.72333,541.660312 Z M930.404427,540.49572 L930.404427,500.510107 L1001.70258,541.660312 L1001.70258,581.636138 L930.404427,540.49572 Z M857.091398,541.660312 L928.385632,500.510107 L928.385632,540.49572 L857.091398,581.636138 L857.091398,541.660312 Z M710.555413,541.607465 L781.757616,500.510107 L781.757616,539.789136 L710.555413,580.872792 L710.555413,541.607465 Z M635.127642,500.510107 L635.127642,539.789136 L563.931314,580.872792 L563.931314,540.898923 L586.421991,527.914217 L586.421991,528.620801 L635.127642,500.510107 Z M832.576051,568.653389 L832.576051,567.837197 L783.872358,539.734332 L783.872358,500.564912 L855.076519,541.660312 L855.076519,581.636138 L832.576051,568.653389 Z M637.244342,539.734332 L637.244342,500.566869 L708.444587,541.660312 L708.444587,580.817988 L637.244342,539.734332 Z M418.309758,582.620658 L489.602033,541.482198 L560.900183,582.620658 L489.602033,623.770862 L418.309758,582.620658 Z M271.677826,582.620658 L342.97206,541.482198 L414.270209,582.620658 L342.97206,623.770862 L271.677826,582.620658 Z M125.049811,582.620658 L196.344044,541.482198 L267.642193,582.620658 L196.344044,623.770862 L125.049811,582.620658 Z M1151.36368,583.384004 L1222.65791,542.245543 L1293.95802,583.384004 L1222.65791,624.534208 L1151.36368,583.384004 Z M1004.73175,583.384004 L1076.02794,542.245543 L1147.32609,583.384004 L1076.02794,624.534208 L1004.73175,583.384004 Z M858.103733,583.384004 L929.396008,542.245543 L1000.69416,583.384004 L929.396008,624.534208 L858.103733,583.384004 Z M712.180632,582.974929 L782.767993,542.245543 L854.066142,583.384004 L832.576051,595.787392 L832.576051,595.078851 L782.861981,623.770862 L712.180632,582.974929 Z M636.136061,542.245543 L706.823284,583.029733 L636.235924,623.770862 L564.939732,582.620658 L586.421991,570.225099 L586.421991,570.93364 L636.136061,542.245543 Z M563.931314,624.354137 L563.931314,584.368524 L586.421991,597.351272 L586.421991,598.169422 L635.127642,626.282074 L635.127642,665.443665 L563.931314,624.354137 Z M490.61241,625.518728 L561.91056,584.368524 L561.91056,624.354137 L490.61241,665.500426 L490.61241,625.518728 Z M417.299382,624.354137 L417.299382,584.368524 L488.593615,625.518728 L488.593615,665.500426 L417.299382,624.354137 Z M343.982436,625.518728 L415.280586,584.368524 L415.280586,624.354137 L343.982436,665.500426 L343.982436,625.518728 Z M270.66745,624.354137 L270.66745,584.368524 L341.961683,625.518728 L341.961683,665.500426 L270.66745,624.354137 Z M197.354421,625.518728 L268.65257,584.368524 L268.65257,624.354137 L197.354421,665.500426 L197.354421,625.518728 Z M124.039434,624.354137 L124.039434,584.368524 L195.333667,625.518728 L195.333667,665.500426 L124.039434,624.354137 Z M50.7224887,625.518728 L122.020638,584.368524 L122.020638,624.354137 L50.7224887,665.500426 L50.7224887,625.518728 Z M1296.97936,625.117482 L1296.97936,585.129912 L1368.27751,626.282074 L1368.27751,666.263772 L1296.97936,625.117482 Z M1223.66829,626.282074 L1294.96252,585.129912 L1294.96252,625.117482 L1223.66829,666.263772 L1223.66829,626.282074 Z M1150.3533,625.117482 L1150.3533,585.129912 L1221.6495,626.282074 L1221.6495,666.263772 L1150.3533,625.117482 Z M1077.03832,626.282074 L1148.33647,585.129912 L1148.33647,625.117482 L1077.03832,666.263772 L1077.03832,626.282074 Z M1003.72333,625.117482 L1003.72333,585.129912 L1075.01756,626.282074 L1075.01756,666.263772 L1003.72333,625.117482 Z M930.404427,626.282074 L1001.70258,585.129912 L1001.70258,625.117482 L930.404427,666.263772 L930.404427,626.282074 Z M857.091398,625.117482 L857.091398,585.129912 L928.385632,626.282074 L928.385632,666.263772 L857.091398,625.117482 Z M783.872358,626.22727 L855.076519,585.129912 L855.076519,625.117482 L832.576051,638.102188 L832.576051,637.395604 L783.872358,665.500426 L783.872358,626.22727 Z M637.244342,626.225312 L708.444587,585.129912 L708.444587,624.408941 L637.244342,665.500426 L637.244342,626.225312 Z M710.555413,624.354137 L710.555413,585.184717 L781.757616,626.282074 L781.757616,665.445622 L710.555413,624.354137 Z M491.622787,667.25025 L562.920937,626.10396 L586.421991,639.668026 L586.421991,640.484218 L633.508297,667.659325 L562.920937,708.392625 L491.622787,667.25025 Z M344.992813,667.25025 L416.289005,626.10396 L487.589112,667.25025 L416.289005,708.392625 L344.992813,667.25025 Z M198.364798,667.25025 L269.662947,626.10396 L340.955222,667.25025 L269.662947,708.392625 L198.364798,667.25025 Z M51.7309075,667.25025 L123.029057,626.10396 L194.325248,667.25025 L123.029057,708.392625 L51.7309075,667.25025 Z M1224.67475,668.013595 L1295.9729,626.865348 L1367.26909,668.013595 L1295.9729,709.15597 L1224.67475,668.013595 Z M1078.04674,668.013595 L1149.34489,626.865348 L1220.63912,668.013595 L1149.34489,709.15597 L1078.04674,668.013595 Z M931.416762,668.013595 L1002.71295,626.865348 L1074.0111,668.013595 L1002.71295,709.15597 L931.416762,668.013595 Z M832.576051,695.589948 L832.576051,694.771798 L785.495619,667.60452 L856.084938,626.865348 L927.381129,668.013595 L856.084938,709.15597 L832.576051,695.589948 Z M638.863687,667.60452 L709.454964,626.865348 L780.136313,667.661282 L709.548952,708.392625 L638.863687,667.60452 Z M490.61241,708.975899 L490.61241,668.998116 L490.61241,668.996158 L561.91056,710.138533 L561.91056,750.122189 L490.61241,708.975899 Z M417.299382,710.138533 L488.593615,668.996158 L488.593615,708.975899 L417.299382,750.122189 L417.299382,710.138533 Z M343.982436,708.975899 L343.982436,668.998116 L343.982436,668.996158 L415.280586,710.138533 L415.280586,750.122189 L343.982436,708.975899 Z M270.66745,710.138533 L341.961683,668.996158 L341.961683,708.975899 L270.66745,750.122189 L270.66745,710.138533 Z M197.354421,708.975899 L197.354421,668.998116 L197.354421,668.996158 L268.65257,710.138533 L268.65257,750.122189 L197.354421,708.975899 Z M124.039434,710.138533 L195.333667,668.996158 L195.333667,708.975899 L124.039434,750.122189 L124.039434,710.138533 Z M50.7224887,708.975899 L50.7224887,668.998116 L50.7224887,668.996158 L122.020638,710.138533 L122.020638,750.122189 L50.7224887,708.975899 Z M1296.97936,710.901879 L1368.27751,669.757547 L1368.27751,709.739245 L1296.97936,750.883577 L1296.97936,710.901879 Z M1223.66829,709.739245 L1223.66829,669.759504 L1223.66829,669.757547 L1294.96252,710.901879 L1294.96252,750.883577 L1223.66829,709.739245 Z M1150.3533,710.901879 L1221.6495,669.757547 L1221.6495,669.759504 L1221.6495,709.739245 L1150.3533,750.883577 L1150.3533,710.901879 Z M1077.03832,709.739245 L1077.03832,669.759504 L1077.03832,669.757547 L1148.33647,710.901879 L1148.33647,750.883577 L1077.03832,709.739245 Z M1003.72333,710.901879 L1075.01756,669.757547 L1075.01756,709.739245 L1003.72333,750.883577 L1003.72333,710.901879 Z M930.404427,709.739245 L930.404427,669.759504 L930.404427,669.757547 L1001.70258,710.901879 L1001.70258,750.883577 L930.404427,709.739245 Z M857.091398,710.901879 L928.385632,669.757547 L928.385632,709.739245 L857.091398,750.883577 L857.091398,710.901879 Z M710.555413,710.849032 L781.757616,669.757547 L781.757616,709.032661 L710.555413,750.122189 L710.555413,710.849032 Z M635.127642,669.757547 L635.127642,709.032661 L563.931314,750.122189 L563.931314,710.138533 L586.421991,697.157742 L586.421991,697.866284 L635.127642,669.757547 Z M832.576051,737.898871 L832.576051,737.082679 L783.872358,708.975899 L783.872358,669.812351 L855.076519,710.901879 L855.076519,750.883577 L832.576051,737.898871 Z M637.244342,708.975899 L637.244342,669.814308 L708.444587,710.901879 L708.444587,750.067385 L637.244342,708.975899 Z M418.309758,751.868097 L489.602033,710.721808 L560.900183,751.868097 L489.602033,793.018302 L418.309758,751.868097 Z M271.677826,751.868097 L342.97206,710.721808 L414.270209,751.868097 L342.97206,793.018302 L271.677826,751.868097 Z M125.049811,751.868097 L196.344044,710.721808 L267.642193,751.868097 L196.344044,793.018302 L125.049811,751.868097 Z M1151.36368,752.631443 L1222.65791,711.485153 L1293.95802,752.631443 L1222.65791,793.77969 L1151.36368,752.631443 Z M1004.73175,752.631443 L1076.02794,711.485153 L1147.32609,752.631443 L1076.02794,793.77969 L1004.73175,752.631443 Z M858.103733,752.631443 L929.396008,711.485153 L1000.69416,752.631443 L929.396008,793.77969 L858.103733,752.631443 Z M712.180632,752.222368 L782.767993,711.485153 L854.066142,752.631443 L832.576051,765.034832 L832.576051,764.328248 L782.861981,793.018302 L712.180632,752.222368 Z M636.136061,711.485153 L706.823284,752.27913 L636.235924,793.018302 L564.939732,751.868097 L586.421991,739.470581 L586.421991,740.177165 L636.136061,711.485153 Z" id="Fill-5"></path>
            </g>
        </g>
    </g>
</svg>