<?xml version="1.0" encoding="UTF-8"?>
<svg width="64px" height="66px" viewBox="0 0 64 66" version="1.1" xmlns="http://www.w3.org/2000/svg" xmlns:xlink="http://www.w3.org/1999/xlink">
    <!-- Generator: Sketch 50.2 (55047) - http://www.bohemiancoding.com/sketch -->
    <title>Group</title>
    <desc>Created with Sketch.</desc>
    <defs>
        <linearGradient x1="-4.08881714%" y1="55.5800676%" x2="144.870118%" y2="55.5800676%" id="linearGradient-1">
            <stop stop-color="#1490E0" offset="0%"></stop>
            <stop stop-color="#20F0FF" offset="100%"></stop>
        </linearGradient>
    </defs>
    <g id="Mobile" stroke="none" stroke-width="1" fill="none" fill-rule="evenodd">
        <g id="iPhone-for-DEv" transform="translate(-30.000000, -6576.000000)" fill-rule="nonzero">
            <g id="Group" transform="translate(30.000000, 6576.000000)">
                <path d="M37.0028902,66 L59,44.0028902 L22.0823699,7 L2.81358382,9.81358382 L0,29.0823699 L37.0028902,66 Z M4.3482659,11.2630058 L21.4855491,8.79046243 L56.6127168,43.9176301 L37.0028902,63.5274566 L1.87572254,28.400289 L4.3482659,11.2630058 Z" id="Shape" fill="#FFFFFF"></path>
                <polygon id="Shape" fill="url(#linearGradient-1)" points="60.2039877 40 64 36.3179916 27.3895706 0 9 2.59414226 9.16871166 4.26778243 26.7990798 1.75732218 61.553681 36.3179916 59.0230061 38.8284519"></polygon>
                <path d="M14.0314465,26 C15.2893082,26 16.6310273,25.5041322 17.5534591,24.5123967 C19.4821803,22.6115702 19.4821803,19.4710744 17.5534591,17.4876033 C16.6310273,16.5785124 15.3731656,16 14.0314465,16 C12.6897275,16 11.4318658,16.4958678 10.509434,17.4876033 C9.5870021,18.3966942 9,19.6363636 9,20.9586777 C9,22.2809917 9.50314465,23.5206612 10.509434,24.4297521 C11.4318658,25.5041322 12.7735849,26 14.0314465,26 Z M11.6834382,18.7272727 C12.3542977,18.0661157 13.1928721,17.7355372 14.0314465,17.7355372 C14.870021,17.7355372 15.7924528,18.0661157 16.3794549,18.7272727 C17.721174,20.0495868 17.721174,22.1157025 16.3794549,23.4380165 C15.0377358,24.7603306 12.9412998,24.7603306 11.5995807,23.4380165 C10.9287212,22.7768595 10.5932914,21.9504132 10.5932914,21.1239669 C10.6771488,20.214876 11.0125786,19.3884298 11.6834382,18.7272727 Z" id="Shape" fill="url(#linearGradient-1)"></path>
            </g>
        </g>
    </g>
</svg>