<?xml version="1.0" encoding="UTF-8"?>
<svg width="52px" height="54px" viewBox="0 0 52 54" version="1.1" xmlns="http://www.w3.org/2000/svg" xmlns:xlink="http://www.w3.org/1999/xlink">
    <!-- Generator: Sketch 50.2 (55047) - http://www.bohemiancoding.com/sketch -->
    <title>Group</title>
    <desc>Created with Sketch.</desc>
    <defs>
        <linearGradient x1="-4.08881714%" y1="55.5800676%" x2="144.870118%" y2="55.5800676%" id="linearGradient-1">
            <stop stop-color="#1490E0" offset="0%"></stop>
            <stop stop-color="#20F0FF" offset="100%"></stop>
        </linearGradient>
    </defs>
    <g id="Mobile" stroke="none" stroke-width="1" fill="none" fill-rule="evenodd">
        <g id="iPhone-for-DEv" transform="translate(-30.000000, -6588.000000)" fill-rule="nonzero">
            <g id="Group" transform="translate(30.000000, 6588.000000)">
                <path d="M30.1040462,54 L48,36.1040462 L17.9653179,6 L2.28901734,8.28901734 L0,23.9653179 L30.1040462,54 Z M3.53757225,9.46820809 L17.4797688,7.4566474 L46.0578035,36.0346821 L30.1040462,51.9884393 L1.52601156,23.4104046 L3.53757225,9.46820809 Z" id="Shape" fill="#FFFFFF"></path>
                <polygon id="Shape" fill="url(#linearGradient-1)" points="48.8941718 33 52 29.9623431 22.0460123 0 7 2.14016736 7.13803681 3.5209205 21.5628834 1.44979079 49.9984663 29.9623431 47.9279141 32.0334728"></polygon>
                <path d="M11.0251572,21 C12.0314465,21 13.1048218,20.6033058 13.8427673,19.8099174 C15.3857442,18.2892562 15.3857442,15.7768595 13.8427673,14.1900826 C13.1048218,13.4628099 12.0985325,13 11.0251572,13 C9.95178197,13 8.94549266,13.3966942 8.20754717,14.1900826 C7.46960168,14.9173554 7,15.9090909 7,16.9669421 C7,18.0247934 7.40251572,19.0165289 8.20754717,19.7438017 C8.94549266,20.6033058 10.0188679,21 11.0251572,21 Z M9.14675052,15.1818182 C9.68343816,14.6528926 10.3542977,14.3884298 11.0251572,14.3884298 C11.6960168,14.3884298 12.4339623,14.6528926 12.9035639,15.1818182 C13.9769392,16.2396694 13.9769392,17.892562 12.9035639,18.9504132 C11.8301887,20.0082645 10.1530398,20.0082645 9.07966457,18.9504132 C8.54297694,18.4214876 8.27463312,17.7603306 8.27463312,17.0991736 C8.34171908,16.3719008 8.61006289,15.7107438 9.14675052,15.1818182 Z" id="Shape" fill="url(#linearGradient-1)"></path>
            </g>
        </g>
    </g>
</svg>