<?xml version="1.0" encoding="UTF-8"?>
<svg width="298px" height="100px" viewBox="0 0 298 100" version="1.1" xmlns="http://www.w3.org/2000/svg" xmlns:xlink="http://www.w3.org/1999/xlink">
    <!-- Generator: Sketch 50 (54983) - http://www.bohemiancoding.com/sketch -->
    <title>Group 46</title>
    <desc>Created with Sketch.</desc>
    <defs>
        <linearGradient x1="144.870118%" y1="55.5800676%" x2="-4.08881714%" y2="55.5800676%" id="linearGradient-1">
            <stop stop-color="#1490E0" offset="0%"></stop>
            <stop stop-color="#20F0FF" offset="100%"></stop>
        </linearGradient>
    </defs>
    <g id="Page-1" stroke="none" stroke-width="1" fill="none" fill-rule="evenodd">
        <g id="image" transform="translate(-379.000000, -551.000000)">
            <g id="Group-46" transform="translate(379.000000, 551.000000)">
                <path d="M36.8750944,1.84661874 C27.5430799,10.9362432 18.1911127,20.0059148 8.97216429,29.2086053 C3.80364125,34.3689994 0.851360789,40.6652271 0.473734927,47.3679014 C0.458216056,48.4726972 0.424222339,49.2242539 0.421266364,49.8767855 L0.421266364,50.0571 C0.422005357,50.2411095 0.425700327,50.417729 0.433829259,50.5950876 C0.799631219,58.8001364 4.49977346,65.5360654 9.96537204,71.3475131 C18.1356881,80.0351249 26.4781898,88.559419 34.7342292,97.1672195 C36.0961948,98.5875657 36.802673,99.3073457 37.5342769,99.3169526 L37.5645756,99.3169526 C38.2858336,99.3073457 39.0403464,98.6082575 40.4776894,97.2108201 C48.6871722,89.2304254 56.9897682,81.340927 65.0167195,73.1802178 C67.8847546,70.2641481 70.4431514,66.8921191 72.4945983,63.3530775 C79.2778229,51.6525878 76.8177124,39.7873024 68.6037957,30.6437314 C59.7395643,20.7759464 50.2021096,11.5119194 40.9284757,2.01289235 C39.9116201,0.970911014 39.3817615,0.457310283 38.84673,0.458049277 C38.3360852,0.458049277 37.8210065,0.925093395 36.8750944,1.84661874 M35.7015721,90.0477526 C31.2550461,85.5421071 26.8572936,80.9876879 22.4499343,76.4428757 C19.4836129,73.3841801 16.4537381,70.3823871 13.5982658,67.2224494 C9.13178696,62.2815364 6.4204185,56.553595 6.33691219,49.5730591 C6.80173933,42.6693784 9.49758892,36.5239055 14.5109233,31.5216561 C21.7478901,24.2987301 29.1186148,17.2080841 36.4560849,10.0841833 C38.7816985,7.82581804 38.8282551,7.84872685 41.0415417,10.0649694 C42.5897339,11.6153785 44.1246241,13.1813065 45.6181307,14.7849232 C47.5136499,16.8201123 47.5417317,16.8903167 45.5523602,18.8434775 C39.7327836,24.559595 33.8858642,30.2476307 28.018992,35.9134966 C24.9107838,38.9138116 22.3087864,42.2030733 21.0953585,46.455983 C19.5796821,51.7656538 21.1899497,56.3082491 24.5154221,60.3608914 C26.2867904,62.5202314 28.3241964,64.4623073 30.2699673,66.4753266 C35.0948582,71.4635351 39.8975793,76.4724355 44.7926746,81.3911786 C46.2137598,82.8196537 46.3844673,83.868286 44.7727217,85.2494655 C43.0205673,86.75184 41.4635072,88.4796077 39.7749063,90.0603155 C38.7425319,91.0254415 38.2097173,91.5139165 37.6909436,91.5139165 C37.1736479,91.5139165 36.6703931,91.0291365 35.7015721,90.0477526 M36.8115409,57.4256078 C33.5629239,54.148909 32.7736785,49.333625 35.0704714,45.3474922 C35.7932074,44.0948976 36.6681761,42.8748187 37.6916826,41.8609192 C42.8794195,36.7226949 48.1780054,31.6967976 53.3487454,26.5408375 C54.8104753,25.0842806 55.8199409,25.0901925 57.1848626,26.6265608 C59.2850831,28.9898631 61.6291716,31.1351623 63.747867,33.4829458 C71.5021296,42.0759664 72.5936235,53.4882485 66.0476159,63.0264422 C63.1899267,67.1914116 59.299863,70.6484249 55.8701925,74.4195105 C55.0809471,75.2863503 54.248101,75.3942434 53.3760882,74.489715 C51.2647828,72.2993372 49.1601283,70.1023084 47.0133511,67.9474023 C45.9174232,66.8470405 46.4509768,66.0430152 47.3244675,65.1879993 C49.5850497,62.9754517 51.9431791,60.8464104 54.0456167,58.4897589 C58.1943282,53.8407486 58.4684949,48.1904015 54.6449407,42.6538596 C50.0528328,47.1654171 45.7238068,51.4198047 41.3925638,55.6734533 C40.7843719,56.2705604 40.1540101,56.8440196 39.5583811,57.4529506 C39.088381,57.9355135 38.6553306,58.1860325 38.2119343,58.1860325 C37.7714939,58.1860325 37.3199687,57.9384695 36.8115409,57.4256078" id="Fill-1" fill="url(#linearGradient-1)"></path>
                <text id="GOODFAIR" font-family="GothamBold, Gotham Bold" font-size="36" font-weight="bold" fill="#525252">
                    <tspan x="92" y="60">GOODFAIR</tspan>
                </text>
            </g>
        </g>
    </g>
</svg>