<?xml version="1.0" encoding="UTF-8"?>
<svg width="167px" height="42px" viewBox="0 0 167 42" version="1.1" xmlns="http://www.w3.org/2000/svg" xmlns:xlink="http://www.w3.org/1999/xlink">
    <!-- Generator: Sketch 50.2 (55047) - http://www.bohemiancoding.com/sketch -->
    <title>Group 2</title>
    <desc>Created with Sketch.</desc>
    <defs>
        <linearGradient x1="144.870118%" y1="55.5800676%" x2="-4.08881714%" y2="55.5800676%" id="linearGradient-1">
            <stop stop-color="#1490E0" offset="0%"></stop>
            <stop stop-color="#20F0FF" offset="100%"></stop>
        </linearGradient>
    </defs>
    <g id="Mobile" stroke="none" stroke-width="1" fill="none" fill-rule="evenodd">
        <g id="iPhone-8-(1)" transform="translate(-22.000000, -23.000000)">
            <g id="Group-2" transform="translate(22.000000, 23.000000)">
                <g id="Group" fill="url(#linearGradient-1)">
                    <g id="Group-33">
                        <path d="M2.74062893,17.0237816 C6.91059113,21.2829295 11.0224156,25.5120733 15.1672085,29.7083555 C21.1160426,35.7313135 22.8786076,35.5666484 28.3389432,28.4806894 C26.1059591,26.3125388 23.861631,24.1336725 21.427292,21.7704955 C18.978773,23.8097 16.1824913,26.271819 13.2568177,21.8055002 C13.3940085,21.5233192 13.486887,21.1279085 13.7254643,20.8693021 C21.0887462,12.8992948 21.3386674,12.907153 29.0298601,20.6067665 C31.5375803,23.1171063 34.1101737,25.5610085 36.5820896,27.966334 C32.0983965,32.7251924 28.0411647,37.3604626 23.5493181,41.5188825 C22.6559827,42.3461373 19.4615995,42.0468111 18.4144119,41.0766798 C12.520525,35.6166551 6.86627886,29.8815932 1.32866265,24.0493753 C-0.899358471,21.7033435 -0.256298756,19.2790869 2.74062893,17.0237816" id="Fill-1"></path>
                        <path d="M9.70769846,18.6888006 C8.17586826,16.9132167 7.0652025,15.626136 5.7761194,14.1319764 C10.1604947,9.59110927 14.4080359,4.82829417 19.1172587,0.600765377 C20.1507999,-0.327281821 23.5304225,-0.138698568 24.6293596,0.881464295 C30.4801691,6.3141126 35.9869387,12.1366205 41.5328038,17.9043668 C43.8806624,20.3461572 43.3343925,22.6994586 40.4395533,25.2 C36.6554707,21.352539 32.8667676,17.5000007 29.0780646,13.6470998 C27.862552,12.4111542 26.6417082,11.1810112 25.4343701,9.93708701 C22.9240878,7.35168315 20.4145163,7.249413 17.904234,9.92693252 C15.27631,12.7292071 12.6547834,15.5376469 9.70769846,18.6888006" id="Fill-3"></path>
                    </g>
                </g>
                <path d="M62.8851565,26.6159769 C65.2270697,26.6159769 66.1872541,25.8197264 66.1872541,25.8197264 L66.1872541,22.3536948 L62.4636121,22.3536948 L62.4636121,19.7307521 L68.9507117,19.7307521 L68.9507117,27.1780361 C68.9507117,27.1780361 66.8664089,29.2389197 62.8851565,29.2389197 C58.0842344,29.2389197 54.2669159,25.6089542 54.2669159,20.7611939 C54.2669159,15.9134335 57.9671388,12.283468 62.7680608,12.283468 C66.7961516,12.283468 68.833616,14.7424769 68.833616,14.7424769 L66.9132472,16.6160075 C66.9132472,16.6160075 65.5549376,14.9064108 62.7680608,14.9064108 C59.4659632,14.9064108 57.12405,17.599611 57.12405,20.7611939 C57.12405,23.9227767 59.5830589,26.6159769 62.8851565,26.6159769 Z M78.7981711,12.283468 C83.5756741,12.283468 87.0885439,15.9134335 87.0885439,20.7611939 C87.0885439,25.6089542 83.5756741,29.2389197 78.7981711,29.2389197 C74.0206682,29.2389197 70.5077984,25.6089542 70.5077984,20.7611939 C70.5077984,15.9134335 74.0206682,12.283468 78.7981711,12.283468 Z M78.7981711,26.5691386 C82.1002688,26.5691386 84.2314098,23.9227767 84.2314098,20.7611939 C84.2314098,17.599611 82.1002688,14.9532491 78.7981711,14.9532491 C75.4960735,14.9532491 73.3649325,17.599611 73.3649325,20.7611939 C73.3649325,23.9227767 75.4960735,26.5691386 78.7981711,26.5691386 Z M96.514459,12.283468 C101.291962,12.283468 104.804832,15.9134335 104.804832,20.7611939 C104.804832,25.6089542 101.291962,29.2389197 96.514459,29.2389197 C91.736956,29.2389197 88.2240862,25.6089542 88.2240862,20.7611939 C88.2240862,15.9134335 91.736956,12.283468 96.514459,12.283468 Z M96.514459,26.5691386 C99.8165566,26.5691386 101.947698,23.9227767 101.947698,20.7611939 C101.947698,17.599611 99.8165566,14.9532491 96.514459,14.9532491 C93.2123613,14.9532491 91.0812203,17.599611 91.0812203,20.7611939 C91.0812203,23.9227767 93.2123613,26.5691386 96.514459,26.5691386 Z M112.169863,12.5644976 C116.947366,12.5644976 120.272883,16.0305292 120.272883,20.7611939 C120.272883,25.4918585 116.947366,28.9578901 112.169863,28.9578901 L106.877139,28.9578901 L106.877139,12.5644976 L112.169863,12.5644976 Z M112.216701,26.288109 C115.401703,26.288109 117.415749,23.7354236 117.415749,20.7611939 C117.415749,17.763545 115.401703,15.2342787 112.216701,15.2342787 L109.687435,15.2342787 L109.687435,26.288109 L112.216701,26.288109 Z M125.155486,15.2342787 L125.155486,19.2389503 L131.595748,19.2389503 L131.595748,21.9087313 L125.155486,21.9087313 L125.155486,28.9578901 L122.34519,28.9578901 L122.34519,12.5644976 L132.06413,12.5644976 L132.06413,15.2342787 L125.155486,15.2342787 Z M131.513495,28.9578901 L137.883499,12.5644976 L140.740633,12.5644976 L147.110637,28.9578901 L144.276922,28.9578901 L142.778098,25.0703142 L135.846035,25.0703142 L134.34721,28.9578901 L131.513495,28.9578901 Z M139.312066,16.1007866 L136.853057,22.4942096 L141.771075,22.4942096 L139.312066,16.1007866 Z M148.855077,28.9578901 L148.855077,12.5644976 L151.665373,12.5644976 L151.665373,28.9578901 L148.855077,28.9578901 Z M155.002313,28.9578901 L155.002313,12.5644976 L160.388714,12.5644976 C163.643973,12.5644976 165.821952,14.6722195 165.821952,17.6698684 C165.821952,20.1288773 164.510481,22.0024079 162.168568,22.5878862 L166.266916,28.9578901 L162.988237,28.9578901 L159.100661,22.7752392 L157.812609,22.7752392 L157.812609,28.9578901 L155.002313,28.9578901 Z M160.037427,20.1054582 C161.8407,20.1054582 162.964818,19.2857885 162.964818,17.6698684 C162.964818,16.0539483 161.8407,15.2342787 160.037427,15.2342787 L157.812609,15.2342787 L157.812609,20.1054582 L160.037427,20.1054582 Z" id="Goodfair" fill="#525252"></path>
            </g>
        </g>
    </g>
</svg>