<?xml version="1.0" encoding="UTF-8"?>
<svg width="299px" height="100px" viewBox="0 0 299 100" version="1.1" xmlns="http://www.w3.org/2000/svg" xmlns:xlink="http://www.w3.org/1999/xlink">
    <!-- Generator: Sketch 50 (54983) - http://www.bohemiancoding.com/sketch -->
    <title>Group 46</title>
    <desc>Created with Sketch.</desc>
    <defs>
        <linearGradient x1="144.870118%" y1="55.5800676%" x2="-4.08881714%" y2="55.5800676%" id="linearGradient-1">
            <stop stop-color="#1490E0" offset="0%"></stop>
            <stop stop-color="#20F0FF" offset="100%"></stop>
        </linearGradient>
    </defs>
    <g id="Page-1" stroke="none" stroke-width="1" fill="none" fill-rule="evenodd">
        <g id="image" transform="translate(-379.000000, -551.000000)">
            <g id="Group-46" transform="translate(379.000000, 551.000000)">
                <path d="M36.8750944,1.84661874 C27.5430799,10.9362432 18.1911127,20.0059148 8.97216429,29.2086053 C3.80364125,34.3689994 0.851360789,40.6652271 0.473734927,47.3679014 C0.458216056,48.4726972 0.424222339,49.2242539 0.421266364,49.8767855 L0.421266364,50.0571 C0.422005357,50.2411095 0.425700327,50.417729 0.433829259,50.5950876 C0.799631219,58.8001364 4.49977346,65.5360654 9.96537204,71.3475131 C18.1356881,80.0351249 26.4781898,88.559419 34.7342292,97.1672195 C36.0961948,98.5875657 36.802673,99.3073457 37.5342769,99.3169526 L37.5645756,99.3169526 C38.2858336,99.3073457 39.0403464,98.6082575 40.4776894,97.2108201 C48.6871722,89.2304254 56.9897682,81.340927 65.0167195,73.1802178 C67.8847546,70.2641481 70.4431514,66.8921191 72.4945983,63.3530775 C79.2778229,51.6525878 76.8177124,39.7873024 68.6037957,30.6437314 C59.7395643,20.7759464 50.2021096,11.5119194 40.9284757,2.01289235 C39.9116201,0.970911014 39.3817615,0.457310283 38.84673,0.458049277 C38.3360852,0.458049277 37.8210065,0.925093395 36.8750944,1.84661874 M35.7015721,90.0477526 C31.2550461,85.5421071 26.8572936,80.9876879 22.4499343,76.4428757 C19.4836129,73.3841801 16.4537381,70.3823871 13.5982658,67.2224494 C9.13178696,62.2815364 6.4204185,56.553595 6.33691219,49.5730591 C6.80173933,42.6693784 9.49758892,36.5239055 14.5109233,31.5216561 C21.7478901,24.2987301 29.1186148,17.2080841 36.4560849,10.0841833 C38.7816985,7.82581804 38.8282551,7.84872685 41.0415417,10.0649694 C42.5897339,11.6153785 44.1246241,13.1813065 45.6181307,14.7849232 C47.5136499,16.8201123 47.5417317,16.8903167 45.5523602,18.8434775 C39.7327836,24.559595 33.8858642,30.2476307 28.018992,35.9134966 C24.9107838,38.9138116 22.3087864,42.2030733 21.0953585,46.455983 C19.5796821,51.7656538 21.1899497,56.3082491 24.5154221,60.3608914 C26.2867904,62.5202314 28.3241964,64.4623073 30.2699673,66.4753266 C35.0948582,71.4635351 39.8975793,76.4724355 44.7926746,81.3911786 C46.2137598,82.8196537 46.3844673,83.868286 44.7727217,85.2494655 C43.0205673,86.75184 41.4635072,88.4796077 39.7749063,90.0603155 C38.7425319,91.0254415 38.2097173,91.5139165 37.6909436,91.5139165 C37.1736479,91.5139165 36.6703931,91.0291365 35.7015721,90.0477526 M36.8115409,57.4256078 C33.5629239,54.148909 32.7736785,49.333625 35.0704714,45.3474922 C35.7932074,44.0948976 36.6681761,42.8748187 37.6916826,41.8609192 C42.8794195,36.7226949 48.1780054,31.6967976 53.3487454,26.5408375 C54.8104753,25.0842806 55.8199409,25.0901925 57.1848626,26.6265608 C59.2850831,28.9898631 61.6291716,31.1351623 63.747867,33.4829458 C71.5021296,42.0759664 72.5936235,53.4882485 66.0476159,63.0264422 C63.1899267,67.1914116 59.299863,70.6484249 55.8701925,74.4195105 C55.0809471,75.2863503 54.248101,75.3942434 53.3760882,74.489715 C51.2647828,72.2993372 49.1601283,70.1023084 47.0133511,67.9474023 C45.9174232,66.8470405 46.4509768,66.0430152 47.3244675,65.1879993 C49.5850497,62.9754517 51.9431791,60.8464104 54.0456167,58.4897589 C58.1943282,53.8407486 58.4684949,48.1904015 54.6449407,42.6538596 C50.0528328,47.1654171 45.7238068,51.4198047 41.3925638,55.6734533 C40.7843719,56.2705604 40.1540101,56.8440196 39.5583811,57.4529506 C39.088381,57.9355135 38.6553306,58.1860325 38.2119343,58.1860325 C37.7714939,58.1860325 37.3199687,57.9384695 36.8115409,57.4256078" id="Fill-1" fill="url(#linearGradient-1)"></path>
                <path d="M107.156,60.432 C105.18799,60.432 103.394008,60.1080032 101.774,59.46 C100.153992,58.8119968 98.7620058,57.9120058 97.598,56.76 C96.4339942,55.6079942 95.5280032,54.2400079 94.88,52.656 C94.2319968,51.0719921 93.908,49.3440094 93.908,47.472 L93.908,47.4 C93.908,45.599991 94.2379967,43.9140079 94.898,42.342 C95.5580033,40.7699921 96.4759941,39.3900059 97.652,38.202 C98.8280059,37.0139941 100.219992,36.0780034 101.828,35.394 C103.436008,34.7099966 105.19999,34.368 107.12,34.368 C108.248006,34.368 109.273995,34.4459992 110.198,34.602 C111.122005,34.7580008 111.979996,34.9799986 112.772,35.268 C113.564004,35.5560014 114.307997,35.9159978 115.004,36.348 C115.700003,36.7800022 116.371997,37.2719972 117.02,37.824 L113.528,42.036 C113.047998,41.627998 112.568002,41.2680016 112.088,40.956 C111.607998,40.6439984 111.110003,40.3800011 110.594,40.164 C110.077997,39.9479989 109.520003,39.7800006 108.92,39.66 C108.319997,39.5399994 107.660004,39.48 106.94,39.48 C105.931995,39.48 104.990004,39.6899979 104.114,40.11 C103.237996,40.5300021 102.470003,41.0939965 101.81,41.802 C101.149997,42.5100035 100.634002,43.3379953 100.262,44.286 C99.8899981,45.2340047 99.704,46.2479946 99.704,47.328 L99.704,47.4 C99.704,48.5520058 99.8899981,49.6139951 100.262,50.586 C100.634002,51.5580049 101.161997,52.4039964 101.846,53.124 C102.530003,53.8440036 103.333995,54.401998 104.258,54.798 C105.182005,55.194002 106.207994,55.392 107.336,55.392 C109.40001,55.392 111.139993,54.888005 112.556,53.88 L112.556,50.28 L106.976,50.28 L106.976,45.492 L117.92,45.492 L117.92,56.436 C116.623994,57.5400055 115.082009,58.4819961 113.294,59.262 C111.505991,60.0420039 109.460012,60.432 107.156,60.432 Z M135.56,55.32 C136.664006,55.32 137.683995,55.116002 138.62,54.708 C139.556005,54.299998 140.353997,53.7360036 141.014,53.016 C141.674003,52.2959964 142.189998,51.4620047 142.562,50.514 C142.934002,49.5659953 143.12,48.5520054 143.12,47.472 L143.12,47.4 C143.12,46.3199946 142.934002,45.3000048 142.562,44.34 C142.189998,43.3799952 141.662003,42.5400036 140.978,41.82 C140.293997,41.0999964 139.484005,40.5300021 138.548,40.11 C137.611995,39.6899979 136.592006,39.48 135.488,39.48 C134.359994,39.48 133.334005,39.683998 132.41,40.092 C131.485995,40.500002 130.694003,41.0639964 130.034,41.784 C129.373997,42.5040036 128.858002,43.3379953 128.486,44.286 C128.113998,45.2340047 127.928,46.2479946 127.928,47.328 L127.928,47.4 C127.928,48.4800054 128.113998,49.4999952 128.486,50.46 C128.858002,51.4200048 129.385997,52.2599964 130.07,52.98 C130.754003,53.7000036 131.557995,54.2699979 132.482,54.69 C133.406005,55.1100021 134.431994,55.32 135.56,55.32 Z M135.488,60.432 C133.54399,60.432 131.756008,60.0900034 130.124,59.406 C128.491992,58.7219966 127.082006,57.7980058 125.894,56.634 C124.705994,55.4699942 123.782003,54.1020079 123.122,52.53 C122.461997,50.9579921 122.132,49.272009 122.132,47.472 L122.132,47.4 C122.132,45.599991 122.467997,43.9140079 123.14,42.342 C123.812003,40.7699921 124.741994,39.3900059 125.93,38.202 C127.118006,37.0139941 128.533992,36.0780034 130.178,35.394 C131.822008,34.7099966 133.61599,34.368 135.56,34.368 C137.50401,34.368 139.291992,34.7099966 140.924,35.394 C142.556008,36.0780034 143.965994,37.0019942 145.154,38.166 C146.342006,39.3300058 147.265997,40.6979921 147.926,42.27 C148.586003,43.8420079 148.916,45.527991 148.916,47.328 L148.916,47.4 C148.916,49.200009 148.580003,50.8859921 147.908,52.458 C147.235997,54.0300079 146.306006,55.4099941 145.118,56.598 C143.929994,57.7860059 142.514008,58.7219966 140.87,59.406 C139.225992,60.0900034 137.43201,60.432 135.488,60.432 Z M166.16,55.32 C167.264006,55.32 168.283995,55.116002 169.22,54.708 C170.156005,54.299998 170.953997,53.7360036 171.614,53.016 C172.274003,52.2959964 172.789998,51.4620047 173.162,50.514 C173.534002,49.5659953 173.72,48.5520054 173.72,47.472 L173.72,47.4 C173.72,46.3199946 173.534002,45.3000048 173.162,44.34 C172.789998,43.3799952 172.262003,42.5400036 171.578,41.82 C170.893997,41.0999964 170.084005,40.5300021 169.148,40.11 C168.211995,39.6899979 167.192006,39.48 166.088,39.48 C164.959994,39.48 163.934005,39.683998 163.01,40.092 C162.085995,40.500002 161.294003,41.0639964 160.634,41.784 C159.973997,42.5040036 159.458002,43.3379953 159.086,44.286 C158.713998,45.2340047 158.528,46.2479946 158.528,47.328 L158.528,47.4 C158.528,48.4800054 158.713998,49.4999952 159.086,50.46 C159.458002,51.4200048 159.985997,52.2599964 160.67,52.98 C161.354003,53.7000036 162.157995,54.2699979 163.082,54.69 C164.006005,55.1100021 165.031994,55.32 166.16,55.32 Z M166.088,60.432 C164.14399,60.432 162.356008,60.0900034 160.724,59.406 C159.091992,58.7219966 157.682006,57.7980058 156.494,56.634 C155.305994,55.4699942 154.382003,54.1020079 153.722,52.53 C153.061997,50.9579921 152.732,49.272009 152.732,47.472 L152.732,47.4 C152.732,45.599991 153.067997,43.9140079 153.74,42.342 C154.412003,40.7699921 155.341994,39.3900059 156.53,38.202 C157.718006,37.0139941 159.133992,36.0780034 160.778,35.394 C162.422008,34.7099966 164.21599,34.368 166.16,34.368 C168.10401,34.368 169.891992,34.7099966 171.524,35.394 C173.156008,36.0780034 174.565994,37.0019942 175.754,38.166 C176.942006,39.3300058 177.865997,40.6979921 178.526,42.27 C179.186003,43.8420079 179.516,45.527991 179.516,47.328 L179.516,47.4 C179.516,49.200009 179.180003,50.8859921 178.508,52.458 C177.835997,54.0300079 176.906006,55.4099941 175.718,56.598 C174.529994,57.7860059 173.114008,58.7219966 171.47,59.406 C169.825992,60.0900034 168.03201,60.432 166.088,60.432 Z M194.276,54.996 C195.404006,54.996 196.435995,54.8160018 197.372,54.456 C198.308005,54.0959982 199.105997,53.5800034 199.766,52.908 C200.426003,52.2359966 200.941998,51.4440046 201.314,50.532 C201.686002,49.6199954 201.872,48.6000056 201.872,47.472 L201.872,47.4 C201.872,46.2959945 201.686002,45.2760047 201.314,44.34 C200.941998,43.4039953 200.426003,42.6000034 199.766,41.928 C199.105997,41.2559966 198.308005,40.7340019 197.372,40.362 C196.435995,39.9899981 195.404006,39.804 194.276,39.804 L189.992,39.804 L189.992,54.996 L194.276,54.996 Z M184.448,34.8 L194.276,34.8 C196.24401,34.8 198.049992,35.1179968 199.694,35.754 C201.338008,36.3900032 202.753994,37.2719944 203.942,38.4 C205.130006,39.5280056 206.047997,40.8539924 206.696,42.378 C207.344003,43.9020076 207.668,45.5519911 207.668,47.328 L207.668,47.4 C207.668,49.1760089 207.344003,50.8319923 206.696,52.368 C206.047997,53.9040077 205.130006,55.2359944 203.942,56.364 C202.753994,57.4920056 201.338008,58.3799968 199.694,59.028 C198.049992,59.6760032 196.24401,60 194.276,60 L184.448,60 L184.448,34.8 Z M212.6,34.8 L231.788,34.8 L231.788,39.84 L218.144,39.84 L218.144,45.204 L230.168,45.204 L230.168,50.244 L218.144,50.244 L218.144,60 L212.6,60 L212.6,34.8 Z M250.688,49.452 L247.34,41.28 L243.992,49.452 L250.688,49.452 Z M244.856,34.62 L249.968,34.62 L260.768,60 L254.972,60 L252.668,54.348 L242.012,54.348 L239.708,60 L234.056,60 L244.856,34.62 Z M264.908,34.8 L270.452,34.8 L270.452,60 L264.908,60 L264.908,34.8 Z M287.912,47.04 C289.280007,47.04 290.329996,46.7160032 291.062,46.068 C291.794004,45.4199968 292.16,44.5560054 292.16,43.476 L292.16,43.404 C292.16,42.203994 291.776004,41.304003 291.008,40.704 C290.239996,40.103997 289.172007,39.804 287.804,39.804 L282.296,39.804 L282.296,47.04 L287.912,47.04 Z M276.752,34.8 L288.272,34.8 C291.464016,34.8 293.911991,35.6519915 295.616,37.356 C297.056007,38.7960072 297.776,40.715988 297.776,43.116 L297.776,43.188 C297.776,45.2280102 297.278005,46.8899936 296.282,48.174 C295.285995,49.4580064 293.984008,50.399997 292.376,51 L298.532,60 L292.052,60 L286.652,51.936 L282.296,51.936 L282.296,60 L276.752,60 L276.752,34.8 Z" id="GOODFAIR" fill="#FFFFFF"></path>
            </g>
        </g>
    </g>
</svg>