<?xml version="1.0" encoding="UTF-8"?>
<svg width="384px" height="260px" viewBox="0 0 384 260" version="1.1" xmlns="http://www.w3.org/2000/svg" xmlns:xlink="http://www.w3.org/1999/xlink">
    <!-- Generator: Sketch 50.2 (55047) - http://www.bohemiancoding.com/sketch -->
    <title>item7</title>
    <desc>Created with Sketch.</desc>
    <defs>
        <path d="M119.457181,238.710889 C53.4828015,238.710889 0,185.273637 0,119.355445 C0,53.4372528 53.4828015,0 119.457181,0 C185.43156,0 238.914361,53.4372528 238.914361,119.355445 C238.914361,185.273637 185.43156,238.710889 119.457181,238.710889 Z M119.78446,188.352702 C157.742322,188.352702 188.513249,157.607981 188.513249,119.682446 C188.513249,81.7569108 157.742322,51.0121901 119.78446,51.0121901 C81.8265985,51.0121901 51.0556717,81.7569108 51.0556717,119.682446 C51.0556717,157.607981 81.8265985,188.352702 119.78446,188.352702 Z" id="path-1"></path>
        <linearGradient x1="50%" y1="84.3038729%" x2="50%" y2="21.520787%" id="linearGradient-3">
            <stop stop-color="#FF8080" offset="0%"></stop>
            <stop stop-color="#FF6060" offset="38.6803294%"></stop>
            <stop stop-color="#C14E4E" offset="100%"></stop>
        </linearGradient>
        <linearGradient x1="50%" y1="-2.48949813e-15%" x2="50%" y2="100%" id="linearGradient-4">
            <stop stop-color="#FF8080" offset="0%"></stop>
            <stop stop-color="#FF4949" offset="100%"></stop>
        </linearGradient>
        <path d="M165.216,116 L157.824,116 L157.824,114.512 L162.336,110.032 C162.677335,109.679998 162.970665,109.312002 163.216,108.928 C163.461335,108.543998 163.584,108.112002 163.584,107.632 C163.584,107.333332 163.530667,107.064001 163.424,106.824 C163.317333,106.583999 163.173334,106.378668 162.992,106.208 C162.810666,106.037332 162.597335,105.906667 162.352,105.816 C162.106665,105.725333 161.845335,105.68 161.568,105.68 C160.991997,105.68 160.517335,105.863998 160.144,106.232 C159.770665,106.600002 159.536,107.071997 159.44,107.648 L157.92,107.392 C157.984,106.965331 158.119999,106.568002 158.328,106.2 C158.536001,105.831998 158.799998,105.512001 159.12,105.24 C159.440002,104.967999 159.810665,104.757334 160.232,104.608 C160.653335,104.458666 161.103998,104.384 161.584,104.384 C162.053336,104.384 162.503998,104.453333 162.936,104.592 C163.368002,104.730667 163.749332,104.933332 164.08,105.2 C164.410668,105.466668 164.674666,105.802665 164.872,106.208 C165.069334,106.613335 165.168,107.077331 165.168,107.6 C165.168,107.962668 165.12,108.298665 165.024,108.608 C164.927999,108.917335 164.797334,109.210665 164.632,109.488 C164.466666,109.765335 164.272001,110.029332 164.048,110.28 C163.823999,110.530668 163.589335,110.778665 163.344,111.024 L159.664,114.608 L165.216,114.608 L165.216,116 Z M171.3504,104.384 C172.022403,104.384 172.601064,104.538665 173.0864,104.848 C173.571736,105.157335 173.971732,105.581331 174.2864,106.12 C174.601068,106.658669 174.833066,107.290663 174.9824,108.016 C175.131734,108.741337 175.2064,109.514663 175.2064,110.336 C175.2064,111.168004 175.131734,111.943996 174.9824,112.664 C174.833066,113.384004 174.601068,114.013331 174.2864,114.552 C173.971732,115.090669 173.571736,115.514665 173.0864,115.824 C172.601064,116.133335 172.022403,116.288 171.3504,116.288 C170.678397,116.288 170.097069,116.133335 169.6064,115.824 C169.115731,115.514665 168.713068,115.090669 168.3984,114.552 C168.083732,114.013331 167.851734,113.384004 167.7024,112.664 C167.553066,111.943996 167.4784,111.168004 167.4784,110.336 C167.4784,109.514663 167.553066,108.741337 167.7024,108.016 C167.851734,107.290663 168.083732,106.658669 168.3984,106.12 C168.713068,105.581331 169.115731,105.157335 169.6064,104.848 C170.097069,104.538665 170.678397,104.384 171.3504,104.384 Z M171.3504,105.68 C170.881064,105.68 170.497068,105.831998 170.1984,106.136 C169.899732,106.440002 169.667734,106.823998 169.5024,107.288 C169.337066,107.752002 169.2224,108.255997 169.1584,108.8 C169.0944,109.344003 169.0624,109.855998 169.0624,110.336 C169.0624,110.816002 169.0944,111.327997 169.1584,111.872 C169.2224,112.416003 169.337066,112.917331 169.5024,113.376 C169.667734,113.834669 169.899732,114.215998 170.1984,114.52 C170.497068,114.824002 170.881064,114.976 171.3504,114.976 C171.809069,114.976 172.185065,114.824002 172.4784,114.52 C172.771735,114.215998 173.003732,113.834669 173.1744,113.376 C173.345067,112.917331 173.4624,112.416003 173.5264,111.872 C173.5904,111.327997 173.6224,110.816002 173.6224,110.336 C173.6224,109.855998 173.5904,109.344003 173.5264,108.8 C173.4624,108.255997 173.345067,107.752002 173.1744,107.288 C173.003732,106.823998 172.771735,106.440002 172.4784,106.136 C172.185065,105.831998 171.809069,105.68 171.3504,105.68 Z M182.3648,116 L180.8128,116 L180.8128,106.56 L178.6688,108.352 L177.7568,107.28 L180.9728,104.672 L182.3648,104.672 L182.3648,116 Z M194.2592,106.08 L189.7152,116 L187.9392,116 L192.6592,106.048 L187.0432,106.048 L187.0432,104.672 L194.2592,104.672 L194.2592,106.08 Z M206.944,106.768 C206.719999,106.458665 206.416002,106.205334 206.032,106.008 C205.647998,105.810666 205.216002,105.712 204.736,105.712 C204.479999,105.712 204.221335,105.746666 203.96,105.816 C203.698665,105.885334 203.461334,105.997333 203.248,106.152 C203.034666,106.306667 202.861334,106.498666 202.728,106.728 C202.594666,106.957334 202.528,107.231998 202.528,107.552 C202.528,107.861335 202.589333,108.119999 202.712,108.328 C202.834667,108.536001 202.999999,108.711999 203.208,108.856 C203.416001,109.000001 203.661332,109.122666 203.944,109.224 C204.226668,109.325334 204.527998,109.429333 204.848,109.536 C205.232002,109.653334 205.621331,109.786666 206.016,109.936 C206.410669,110.085334 206.767998,110.282665 207.088,110.528 C207.408002,110.773335 207.669332,111.079998 207.872,111.448 C208.074668,111.816002 208.176,112.282664 208.176,112.848 C208.176,113.43467 208.066668,113.943998 207.848,114.376 C207.629332,114.808002 207.338668,115.165332 206.976,115.448 C206.613332,115.730668 206.194669,115.941333 205.72,116.08 C205.245331,116.218667 204.757336,116.288 204.256,116.288 C203.54133,116.288 202.85067,116.149335 202.184,115.872 C201.51733,115.594665 200.965336,115.184003 200.528,114.64 L201.76,113.6 C202.026668,113.994669 202.383998,114.314665 202.832,114.56 C203.280002,114.805335 203.765331,114.928 204.288,114.928 C204.554668,114.928 204.821332,114.890667 205.088,114.816 C205.354668,114.741333 205.597332,114.624001 205.816,114.464 C206.034668,114.303999 206.213333,114.104001 206.352,113.864 C206.490667,113.623999 206.56,113.333335 206.56,112.992 C206.56,112.650665 206.488001,112.365334 206.344,112.136 C206.199999,111.906666 206.005335,111.712001 205.76,111.552 C205.514665,111.391999 205.229335,111.256001 204.904,111.144 C204.578665,111.031999 204.234668,110.917334 203.872,110.8 C203.509332,110.693333 203.152002,110.562667 202.8,110.408 C202.447998,110.253333 202.133335,110.056001 201.856,109.816 C201.578665,109.575999 201.354668,109.280002 201.184,108.928 C201.013332,108.575998 200.928,108.138669 200.928,107.616 C200.928,107.050664 201.042666,106.565335 201.272,106.16 C201.501334,105.754665 201.799998,105.418668 202.168,105.152 C202.536002,104.885332 202.951998,104.690667 203.416,104.568 C203.880002,104.445333 204.346664,104.384 204.816,104.384 C205.477337,104.384 206.095997,104.501332 206.672,104.736 C207.248003,104.970668 207.711998,105.285331 208.064,105.68 L206.944,106.768 Z M215.2544,111.088 C215.2544,110.522664 215.083735,110.104001 214.7424,109.832 C214.401065,109.559999 213.947736,109.424 213.3824,109.424 C212.955731,109.424 212.553069,109.506666 212.1744,109.672 C211.795731,109.837334 211.478401,110.047999 211.2224,110.304 L210.4224,109.344 C210.795735,108.991998 211.251731,108.714668 211.7904,108.512 C212.329069,108.309332 212.90773,108.208 213.5264,108.208 C214.070403,108.208 214.542398,108.285333 214.9424,108.44 C215.342402,108.594667 215.670399,108.805332 215.9264,109.072 C216.182401,109.338668 216.374399,109.653332 216.5024,110.016 C216.630401,110.378668 216.6944,110.767998 216.6944,111.184 L216.6944,114.496 C216.6944,114.752001 216.7024,115.021332 216.7184,115.304 C216.7344,115.586668 216.763733,115.818666 216.8064,116 L215.4464,116 C215.361066,115.637332 215.3184,115.274668 215.3184,114.912 L215.2704,114.912 C214.993065,115.317335 214.643735,115.631999 214.2224,115.856 C213.801065,116.080001 213.302403,116.192 212.7264,116.192 C212.427732,116.192 212.115735,116.152 211.7904,116.072 C211.465065,115.992 211.169068,115.861334 210.9024,115.68 C210.635732,115.498666 210.414401,115.258668 210.2384,114.96 C210.062399,114.661332 209.9744,114.293336 209.9744,113.856 C209.9744,113.279997 210.129065,112.824002 210.4384,112.488 C210.747735,112.151998 211.153064,111.896001 211.6544,111.72 C212.155736,111.543999 212.721064,111.429334 213.3504,111.376 C213.979736,111.322666 214.614397,111.296 215.2544,111.296 L215.2544,111.088 Z M214.8864,112.384 C214.513065,112.384 214.126402,112.4 213.7264,112.432 C213.326398,112.464 212.963735,112.528 212.6384,112.624 C212.313065,112.72 212.043734,112.863999 211.8304,113.056 C211.617066,113.248001 211.5104,113.503998 211.5104,113.824 C211.5104,114.048001 211.555733,114.234666 211.6464,114.384 C211.737067,114.533334 211.857066,114.656 212.0064,114.752 C212.155734,114.848 212.321066,114.914666 212.5024,114.952 C212.683734,114.989334 212.870399,115.008 213.0624,115.008 C213.766404,115.008 214.307731,114.797335 214.6864,114.376 C215.065069,113.954665 215.2544,113.424003 215.2544,112.784 L215.2544,112.384 L214.8864,112.384 Z M220.9408,116 L219.4368,116 L219.4368,103.904 L220.9408,103.904 L220.9408,116 Z M229.3152,111.536 C229.304533,111.237332 229.253867,110.957335 229.1632,110.696 C229.072533,110.434665 228.939201,110.208001 228.7632,110.016 C228.587199,109.823999 228.368535,109.672001 228.1072,109.56 C227.845865,109.447999 227.539202,109.392 227.1872,109.392 C226.867198,109.392 226.565868,109.447999 226.2832,109.56 C226.000532,109.672001 225.755201,109.823999 225.5472,110.016 C225.339199,110.208001 225.168534,110.434665 225.0352,110.696 C224.901866,110.957335 224.824533,111.237332 224.8032,111.536 L229.3152,111.536 Z M230.8352,112.144 L230.8352,112.4 C230.8352,112.485334 230.829867,112.570666 230.8192,112.656 L224.8032,112.656 C224.813867,112.976002 224.885866,113.277332 225.0192,113.56 C225.152534,113.842668 225.331199,114.087999 225.5552,114.296 C225.779201,114.504001 226.037865,114.666666 226.3312,114.784 C226.624535,114.901334 226.936532,114.96 227.2672,114.96 C227.779203,114.96 228.221865,114.848001 228.5952,114.624 C228.968535,114.399999 229.261866,114.128002 229.4752,113.808 L230.5312,114.656 C230.125865,115.189336 229.648536,115.581332 229.0992,115.832 C228.549864,116.082668 227.939203,116.208 227.2672,116.208 C226.691197,116.208 226.157869,116.112001 225.6672,115.92 C225.176531,115.727999 224.755202,115.458668 224.4032,115.112 C224.051198,114.765332 223.773868,114.346669 223.5712,113.856 C223.368532,113.365331 223.2672,112.821336 223.2672,112.224 C223.2672,111.63733 223.365866,111.096002 223.5632,110.6 C223.760534,110.103998 224.035198,109.680002 224.3872,109.328 C224.739202,108.975998 225.155198,108.701334 225.6352,108.504 C226.115202,108.306666 226.632531,108.208 227.1872,108.208 C227.741869,108.208 228.245864,108.298666 228.6992,108.48 C229.152536,108.661334 229.536532,108.922665 229.8512,109.264 C230.165868,109.605335 230.408532,110.018664 230.5792,110.504 C230.749868,110.989336 230.8352,111.535997 230.8352,112.144 Z M237.2256,110.336 C237.054933,110.058665 236.814935,109.832001 236.5056,109.656 C236.196265,109.479999 235.849602,109.392 235.4656,109.392 C235.294933,109.392 235.124268,109.410666 234.9536,109.448 C234.782933,109.485334 234.630934,109.544 234.4976,109.624 C234.364266,109.704 234.2576,109.805333 234.1776,109.928 C234.0976,110.050667 234.0576,110.202666 234.0576,110.384 C234.0576,110.704002 234.201599,110.941333 234.4896,111.096 C234.777601,111.250667 235.209597,111.391999 235.7856,111.52 C236.148269,111.605334 236.484265,111.706666 236.7936,111.824 C237.102935,111.941334 237.372266,112.087999 237.6016,112.264 C237.830935,112.440001 238.009599,112.650665 238.1376,112.896 C238.265601,113.141335 238.3296,113.429332 238.3296,113.76 C238.3296,114.208002 238.244268,114.586665 238.0736,114.896 C237.902933,115.205335 237.676268,115.458666 237.3936,115.656 C237.110932,115.853334 236.788269,115.994666 236.4256,116.08 C236.062932,116.165334 235.689602,116.208 235.3056,116.208 C234.729597,116.208 234.166936,116.096001 233.6176,115.872 C233.068264,115.647999 232.612269,115.306669 232.2496,114.848 L233.3216,113.936 C233.524268,114.234668 233.804265,114.485332 234.1616,114.688 C234.518935,114.890668 234.910931,114.992 235.3376,114.992 C235.529601,114.992 235.713599,114.973334 235.8896,114.936 C236.065601,114.898666 236.225599,114.837334 236.3696,114.752 C236.513601,114.666666 236.628266,114.554667 236.7136,114.416 C236.798934,114.277333 236.8416,114.101334 236.8416,113.888 C236.8416,113.535998 236.673602,113.274668 236.3376,113.104 C236.001598,112.933332 235.50827,112.773334 234.8576,112.624 C234.601599,112.56 234.342935,112.482667 234.0816,112.392 C233.820265,112.301333 233.582934,112.176001 233.3696,112.016 C233.156266,111.855999 232.982934,111.656001 232.8496,111.416 C232.716266,111.175999 232.6496,110.880002 232.6496,110.528 C232.6496,110.122665 232.732266,109.773335 232.8976,109.48 C233.062934,109.186665 233.278932,108.946668 233.5456,108.76 C233.812268,108.573332 234.116265,108.434667 234.4576,108.344 C234.798935,108.253333 235.150932,108.208 235.5136,108.208 C236.057603,108.208 236.582931,108.314666 237.0896,108.528 C237.596269,108.741334 237.988265,109.050665 238.2656,109.456 L237.2256,110.336 Z M166.7344,129.376 L166.7664,129.376 L170.1104,120.672 L172.5744,120.672 L172.5744,132 L170.9904,132 L170.9904,122.528 L170.9584,122.528 L167.1984,132 L166.1904,132 L162.4464,122.528 L162.4144,122.528 L162.4144,132 L160.8784,132 L160.8784,120.672 L163.3424,120.672 L166.7344,129.376 Z M183.1248,128.192 C183.1248,128.77867 183.020801,129.317331 182.8128,129.808 C182.604799,130.298669 182.316802,130.722665 181.9488,131.08 C181.580798,131.437335 181.146136,131.714666 180.6448,131.912 C180.143464,132.109334 179.604803,132.208 179.0288,132.208 C178.452797,132.208 177.914136,132.109334 177.4128,131.912 C176.911464,131.714666 176.479468,131.437335 176.1168,131.08 C175.754132,130.722665 175.468801,130.298669 175.2608,129.808 C175.052799,129.317331 174.9488,128.77867 174.9488,128.192 C174.9488,127.60533 175.052799,127.069336 175.2608,126.584 C175.468801,126.098664 175.754132,125.680002 176.1168,125.328 C176.479468,124.975998 176.911464,124.701334 177.4128,124.504 C177.914136,124.306666 178.452797,124.208 179.0288,124.208 C179.604803,124.208 180.143464,124.306666 180.6448,124.504 C181.146136,124.701334 181.580798,124.975998 181.9488,125.328 C182.316802,125.680002 182.604799,126.098664 182.8128,126.584 C183.020801,127.069336 183.1248,127.60533 183.1248,128.192 Z M181.5568,128.192 C181.5568,127.829332 181.500801,127.482668 181.3888,127.152 C181.276799,126.821332 181.114134,126.530668 180.9008,126.28 C180.687466,126.029332 180.423468,125.829334 180.1088,125.68 C179.794132,125.530666 179.434135,125.456 179.0288,125.456 C178.623465,125.456 178.263468,125.530666 177.9488,125.68 C177.634132,125.829334 177.370134,126.029332 177.1568,126.28 C176.943466,126.530668 176.780801,126.821332 176.6688,127.152 C176.556799,127.482668 176.5008,127.829332 176.5008,128.192 C176.5008,128.554668 176.556799,128.901332 176.6688,129.232 C176.780801,129.562668 176.943466,129.855999 177.1568,130.112 C177.370134,130.368001 177.634132,130.570666 177.9488,130.72 C178.263468,130.869334 178.623465,130.944 179.0288,130.944 C179.434135,130.944 179.794132,130.869334 180.1088,130.72 C180.423468,130.570666 180.687466,130.368001 180.9008,130.112 C181.114134,129.855999 181.276799,129.562668 181.3888,129.232 C181.500801,128.901332 181.5568,128.554668 181.5568,128.192 Z M186.7632,124.416 C186.784533,124.608001 186.800533,124.823999 186.8112,125.064 C186.821867,125.304001 186.8272,125.503999 186.8272,125.664 L186.8752,125.664 C186.9712,125.461332 187.101866,125.272001 187.2672,125.096 C187.432534,124.919999 187.621866,124.765334 187.8352,124.632 C188.048534,124.498666 188.283199,124.394667 188.5392,124.32 C188.795201,124.245333 189.061865,124.208 189.3392,124.208 C189.829869,124.208 190.251198,124.290666 190.6032,124.456 C190.955202,124.621334 191.248532,124.842665 191.4832,125.12 C191.717868,125.397335 191.891199,125.722665 192.0032,126.096 C192.115201,126.469335 192.1712,126.869331 192.1712,127.296 L192.1712,132 L190.6672,132 L190.6672,127.792 C190.6672,127.482665 190.6432,127.189335 190.5952,126.912 C190.5472,126.634665 190.459201,126.389334 190.3312,126.176 C190.203199,125.962666 190.027201,125.792001 189.8032,125.664 C189.579199,125.535999 189.291202,125.472 188.9392,125.472 C188.341864,125.472 187.853869,125.698664 187.4752,126.152 C187.096531,126.605336 186.9072,127.210663 186.9072,127.968 L186.9072,132 L185.4032,132 L185.4032,126.048 C185.4032,125.845332 185.397867,125.584002 185.3872,125.264 C185.376533,124.943998 185.360533,124.661335 185.3392,124.416 L186.7632,124.416 Z M202.5936,128.192 C202.5936,128.77867 202.489601,129.317331 202.2816,129.808 C202.073599,130.298669 201.785602,130.722665 201.4176,131.08 C201.049598,131.437335 200.614936,131.714666 200.1136,131.912 C199.612264,132.109334 199.073603,132.208 198.4976,132.208 C197.921597,132.208 197.382936,132.109334 196.8816,131.912 C196.380264,131.714666 195.948268,131.437335 195.5856,131.08 C195.222932,130.722665 194.937601,130.298669 194.7296,129.808 C194.521599,129.317331 194.4176,128.77867 194.4176,128.192 C194.4176,127.60533 194.521599,127.069336 194.7296,126.584 C194.937601,126.098664 195.222932,125.680002 195.5856,125.328 C195.948268,124.975998 196.380264,124.701334 196.8816,124.504 C197.382936,124.306666 197.921597,124.208 198.4976,124.208 C199.073603,124.208 199.612264,124.306666 200.1136,124.504 C200.614936,124.701334 201.049598,124.975998 201.4176,125.328 C201.785602,125.680002 202.073599,126.098664 202.2816,126.584 C202.489601,127.069336 202.5936,127.60533 202.5936,128.192 Z M201.0256,128.192 C201.0256,127.829332 200.969601,127.482668 200.8576,127.152 C200.745599,126.821332 200.582934,126.530668 200.3696,126.28 C200.156266,126.029332 199.892268,125.829334 199.5776,125.68 C199.262932,125.530666 198.902935,125.456 198.4976,125.456 C198.092265,125.456 197.732268,125.530666 197.4176,125.68 C197.102932,125.829334 196.838934,126.029332 196.6256,126.28 C196.412266,126.530668 196.249601,126.821332 196.1376,127.152 C196.025599,127.482668 195.9696,127.829332 195.9696,128.192 C195.9696,128.554668 196.025599,128.901332 196.1376,129.232 C196.249601,129.562668 196.412266,129.855999 196.6256,130.112 C196.838934,130.368001 197.102932,130.570666 197.4176,130.72 C197.732268,130.869334 198.092265,130.944 198.4976,130.944 C198.902935,130.944 199.262932,130.869334 199.5776,130.72 C199.892268,130.570666 200.156266,130.368001 200.3696,130.112 C200.582934,129.855999 200.745599,129.562668 200.8576,129.232 C200.969601,128.901332 201.0256,128.554668 201.0256,128.192 Z M206.376,135.84 L204.872,135.84 L204.872,124.416 L206.344,124.416 L206.344,125.6 L206.392,125.6 C206.637335,125.194665 206.997331,124.861335 207.472,124.6 C207.946669,124.338665 208.498664,124.208 209.128,124.208 C209.693336,124.208 210.207998,124.309332 210.672,124.512 C211.136002,124.714668 211.535998,124.997332 211.872,125.36 C212.208002,125.722668 212.466666,126.146664 212.648,126.632 C212.829334,127.117336 212.92,127.637331 212.92,128.192 C212.92,128.746669 212.829334,129.269331 212.648,129.76 C212.466666,130.250669 212.210668,130.677332 211.88,131.04 C211.549332,131.402668 211.149336,131.687999 210.68,131.896 C210.210664,132.104001 209.68267,132.208 209.096,132.208 C208.551997,132.208 208.040002,132.090668 207.56,131.856 C207.079998,131.621332 206.701335,131.290669 206.424,130.864 L206.376,130.864 L206.376,135.84 Z M211.368,128.192 C211.368,127.839998 211.314667,127.498668 211.208,127.168 C211.101333,126.837332 210.941334,126.544001 210.728,126.288 C210.514666,126.031999 210.250668,125.829334 209.936,125.68 C209.621332,125.530666 209.256002,125.456 208.84,125.456 C208.455998,125.456 208.106668,125.530666 207.792,125.68 C207.477332,125.829334 207.208001,126.031999 206.984,126.288 C206.759999,126.544001 206.586667,126.837332 206.464,127.168 C206.341333,127.498668 206.28,127.845332 206.28,128.208 C206.28,128.570668 206.341333,128.917332 206.464,129.248 C206.586667,129.578668 206.759999,129.869332 206.984,130.12 C207.208001,130.370668 207.477332,130.570666 207.792,130.72 C208.106668,130.869334 208.455998,130.944 208.84,130.944 C209.256002,130.944 209.621332,130.866667 209.936,130.712 C210.250668,130.557333 210.514666,130.352001 210.728,130.096 C210.941334,129.839999 211.101333,129.546668 211.208,129.216 C211.314667,128.885332 211.368,128.544002 211.368,128.192 Z M222.8944,128.192 C222.8944,128.77867 222.790401,129.317331 222.5824,129.808 C222.374399,130.298669 222.086402,130.722665 221.7184,131.08 C221.350398,131.437335 220.915736,131.714666 220.4144,131.912 C219.913064,132.109334 219.374403,132.208 218.7984,132.208 C218.222397,132.208 217.683736,132.109334 217.1824,131.912 C216.681064,131.714666 216.249068,131.437335 215.8864,131.08 C215.523732,130.722665 215.238401,130.298669 215.0304,129.808 C214.822399,129.317331 214.7184,128.77867 214.7184,128.192 C214.7184,127.60533 214.822399,127.069336 215.0304,126.584 C215.238401,126.098664 215.523732,125.680002 215.8864,125.328 C216.249068,124.975998 216.681064,124.701334 217.1824,124.504 C217.683736,124.306666 218.222397,124.208 218.7984,124.208 C219.374403,124.208 219.913064,124.306666 220.4144,124.504 C220.915736,124.701334 221.350398,124.975998 221.7184,125.328 C222.086402,125.680002 222.374399,126.098664 222.5824,126.584 C222.790401,127.069336 222.8944,127.60533 222.8944,128.192 Z M221.3264,128.192 C221.3264,127.829332 221.270401,127.482668 221.1584,127.152 C221.046399,126.821332 220.883734,126.530668 220.6704,126.28 C220.457066,126.029332 220.193068,125.829334 219.8784,125.68 C219.563732,125.530666 219.203735,125.456 218.7984,125.456 C218.393065,125.456 218.033068,125.530666 217.7184,125.68 C217.403732,125.829334 217.139734,126.029332 216.9264,126.28 C216.713066,126.530668 216.550401,126.821332 216.4384,127.152 C216.326399,127.482668 216.2704,127.829332 216.2704,128.192 C216.2704,128.554668 216.326399,128.901332 216.4384,129.232 C216.550401,129.562668 216.713066,129.855999 216.9264,130.112 C217.139734,130.368001 217.403732,130.570666 217.7184,130.72 C218.033068,130.869334 218.393065,130.944 218.7984,130.944 C219.203735,130.944 219.563732,130.869334 219.8784,130.72 C220.193068,130.570666 220.457066,130.368001 220.6704,130.112 C220.883734,129.855999 221.046399,129.562668 221.1584,129.232 C221.270401,128.901332 221.3264,128.554668 221.3264,128.192 Z M226.7088,132 L225.2048,132 L225.2048,119.904 L226.7088,119.904 L226.7088,132 Z M232.4112,130.368 L232.4432,130.368 L234.5392,124.416 L236.1392,124.416 L232.4592,133.792 C232.331199,134.112002 232.192534,134.397332 232.0432,134.648 C231.893866,134.898668 231.717868,135.111999 231.5152,135.288 C231.312532,135.464001 231.075201,135.6 230.8032,135.696 C230.531199,135.792 230.208535,135.84 229.8352,135.84 C229.675199,135.84 229.512534,135.832 229.3472,135.816 C229.181866,135.8 229.013868,135.770667 228.8432,135.728 L228.9872,134.4 C229.243201,134.485334 229.493865,134.528 229.7392,134.528 C230.133869,134.528 230.427199,134.418668 230.6192,134.2 C230.811201,133.981332 230.987199,133.669335 231.1472,133.264 L231.6272,132 L228.3792,124.416 L230.0592,124.416 L232.4112,130.368 Z" id="path-5"></path>
    </defs>
    <g id="Page-1" stroke="none" stroke-width="1" fill="none" fill-rule="evenodd">
        <g id="image" transform="translate(-170.000000, -2132.000000)">
            <g id="Group-28" transform="translate(160.000000, 1299.000000)">
                <g id="Group-3" transform="translate(6.000000, 0.000000)">
                    <g id="SECTION:-The-Status-Quo" transform="translate(0.000000, 367.000000)">
                        <g id="item7" transform="translate(5.000000, 459.000000)">
                            <g id="Group-2" transform="translate(75.000000, 0.000000)">
                                <mask id="mask-2" fill="white">
                                    <use xlink:href="#path-1"></use>
                                </mask>
                                <g id="Mask"></g>
                                <g mask="url(#mask-2)">
                                    <g transform="translate(34.348710, 7.626546)">
                                        <ellipse id="Oval" fill="#FF7878" opacity="0.605015851" cx="85.4957364" cy="111.701198" rx="85.4244078" ry="85.4149612"></ellipse>
                                        <path d="M84.8424407,210.989049 L84.8424407,91.4512736 L182.729899,91.4512736 C184.084731,97.9889558 184.796672,104.761945 184.796672,111.701198 C184.796672,166.537526 140.338129,210.991153 85.4957364,210.991153 C85.2778065,210.991153 85.0600405,210.990451 84.8424407,210.989049 Z" id="Combined-Shape" fill="#1E5F6F"></path>
                                        <path d="M54.8702663,81.0893236 C54.9058401,81.0892902 54.9414178,81.0892735 54.9769993,81.0892735 C116.313885,81.0892735 166.037256,130.807145 166.037256,192.137248 C166.037256,192.398834 166.036351,192.660209 166.034545,192.921369 L121.60329,192.558589 C121.60329,192.558589 119.319574,193.807723 118.220363,194.499585 C71.0063223,224.216885 54.9769993,251.923904 54.9769993,251.923904 L54.8702663,81.08932 Z" id="Combined-Shape" fill="url(#linearGradient-3)" transform="translate(110.453761, 166.506588) rotate(-270.000000) translate(-110.453761, -166.506588) "></path>
                                        <path d="M88.659266,0.0643495696 C148.228878,2.07592615 195.902697,50.9951577 195.902697,111.047975 C195.902697,147.727778 178.117153,180.254004 150.698684,200.474935 L139.684754,190.66365 L89.3066461,149.098974 L88.6592436,0.0643488135 Z" id="Combined-Shape" fill="url(#linearGradient-4)"></path>
                                    </g>
                                </g>
                            </g>
                            <polygon id="Line" fill="#61B3FF" fill-rule="nonzero" points="-0.0678571429 125 -0.0678571429 124 121.205221 124 121.205221 125"></polygon>
                            <path d="M14.292,78.628 C14.292,79.6000049 14.1240017,80.4939959 13.788,81.31 C13.4519983,82.1260041 12.987003,82.830997 12.393,83.425 C11.798997,84.019003 11.097004,84.4839983 10.287,84.82 C9.47699595,85.1560017 8.59800474,85.324 7.65,85.324 C6.70199526,85.324 5.82300405,85.1560017 5.013,84.82 C4.20299595,84.4839983 3.50100297,84.019003 2.907,83.425 C2.31299703,82.830997 1.84800168,82.1260041 1.512,81.31 C1.17599832,80.4939959 1.008,79.6000049 1.008,78.628 C1.008,77.6559951 1.17599832,76.7620041 1.512,75.946 C1.84800168,75.1299959 2.31299703,74.425003 2.907,73.831 C3.50100297,73.236997 4.20299595,72.7720017 5.013,72.436 C5.82300405,72.0999983 6.70199526,71.932 7.65,71.932 C8.59800474,71.932 9.47699595,72.0999983 10.287,72.436 C11.097004,72.7720017 11.798997,73.236997 12.393,73.831 C12.987003,74.425003 13.4519983,75.1299959 13.788,75.946 C14.1240017,76.7620041 14.292,77.6559951 14.292,78.628 Z M12.924,78.628 C12.924,77.8839963 12.8040012,77.1760034 12.564,76.504 C12.3239988,75.8319966 11.9760023,75.2410025 11.52,74.731 C11.0639977,74.2209974 10.5090033,73.8160015 9.855,73.516 C9.20099673,73.2159985 8.46600408,73.066 7.65,73.066 C6.83399592,73.066 6.09900327,73.2159985 5.445,73.516 C4.79099673,73.8160015 4.23600228,74.2209974 3.78,74.731 C3.32399772,75.2410025 2.9760012,75.8319966 2.736,76.504 C2.4959988,77.1760034 2.376,77.8839963 2.376,78.628 C2.376,79.3720037 2.4959988,80.0799966 2.736,80.752 C2.9760012,81.4240034 3.32399772,82.0119975 3.78,82.516 C4.23600228,83.0200025 4.79099673,83.4219985 5.445,83.722 C6.09900327,84.0220015 6.83399592,84.172 7.65,84.172 C8.46600408,84.172 9.20099673,84.0220015 9.855,83.722 C10.5090033,83.4219985 11.0639977,83.0200025 11.52,82.516 C11.9760023,82.0119975 12.3239988,81.4240034 12.564,80.752 C12.8040012,80.0799966 12.924,79.3720037 12.924,78.628 Z M20.968,77.602 L18.592,77.602 L18.592,82.516 C18.592,82.8280016 18.6219997,83.085999 18.682,83.29 C18.7420003,83.494001 18.8289994,83.6529994 18.943,83.767 C19.0570006,83.8810006 19.1919992,83.9589998 19.348,84.001 C19.5040008,84.0430002 19.6719991,84.064 19.852,84.064 C20.0200008,84.064 20.1969991,84.0400002 20.383,83.992 C20.5690009,83.9439998 20.7459992,83.8780004 20.914,83.794 L20.968,84.856 C20.7519989,84.9400004 20.5270012,85.0029998 20.293,85.045 C20.0589988,85.0870002 19.8040014,85.108 19.528,85.108 C19.2999989,85.108 19.0600013,85.0780003 18.808,85.018 C18.5559987,84.9579997 18.3220011,84.8440008 18.106,84.676 C17.8899989,84.5079992 17.7130007,84.2800014 17.575,83.992 C17.4369993,83.7039986 17.368,83.3260023 17.368,82.858 L17.368,77.602 L15.622,77.602 L15.622,76.576 L17.368,76.576 L17.368,74.2 L18.592,74.2 L18.592,76.576 L20.968,76.576 L20.968,77.602 Z M24.422,77.962 C24.6500011,77.4699975 25.0279974,77.0800014 25.556,76.792 C26.0840026,76.5039986 26.647997,76.36 27.248,76.36 C28.3160053,76.36 29.1169973,76.6779968 29.651,77.314 C30.1850027,77.9500032 30.452,78.7899948 30.452,79.834 L30.452,85 L29.228,85 L29.228,80.338 C29.228,79.8939978 29.1920004,79.4920018 29.12,79.132 C29.0479996,78.7719982 28.9250009,78.4630013 28.751,78.205 C28.5769991,77.9469987 28.3430015,77.7460007 28.049,77.602 C27.7549985,77.4579993 27.3860022,77.386 26.942,77.386 C26.6179984,77.386 26.3030015,77.4519993 25.997,77.584 C25.6909985,77.7160007 25.4180012,77.9169986 25.178,78.187 C24.9379988,78.4570013 24.7460007,78.7989979 24.602,79.213 C24.4579993,79.6270021 24.386,80.1159972 24.386,80.68 L24.386,85 L23.162,85 L23.162,71.392 L24.386,71.392 L24.386,77.962 L24.422,77.962 Z M40.296,80.14 C40.2599998,79.347996 40.0050024,78.6910026 39.531,78.169 C39.0569976,77.6469974 38.3820044,77.386 37.506,77.386 C37.097998,77.386 36.7200017,77.4609992 36.372,77.611 C36.0239983,77.7610007 35.7180013,77.9649987 35.454,78.223 C35.1899987,78.4810013 34.9800008,78.7749984 34.824,79.105 C34.6679992,79.4350017 34.5780001,79.7799982 34.554,80.14 L40.296,80.14 Z M41.538,80.536 L41.538,80.806 C41.538,80.9020005 41.5320001,81.0039995 41.52,81.112 L34.536,81.112 C34.5480001,81.5320021 34.6319992,81.9279981 34.788,82.3 C34.9440008,82.6720019 35.1599986,82.9959986 35.436,83.272 C35.7120014,83.5480014 36.0359981,83.7669992 36.408,83.929 C36.7800019,84.0910008 37.1819978,84.172 37.614,84.172 C38.2500032,84.172 38.7989977,84.0250015 39.261,83.731 C39.7230023,83.4369985 40.0739988,83.0980019 40.314,82.714 L41.232,83.434 C40.7279975,84.0700032 40.173003,84.5259986 39.567,84.802 C38.960997,85.0780014 38.3100035,85.216 37.614,85.216 C36.9899969,85.216 36.4110027,85.1050011 35.877,84.883 C35.3429973,84.6609989 34.8840019,84.352002 34.5,83.956 C34.1159981,83.559998 33.8130011,83.0920027 33.591,82.552 C33.3689989,82.0119973 33.258,81.4240032 33.258,80.788 C33.258,80.1519968 33.3659989,79.5640027 33.582,79.024 C33.7980011,78.4839973 34.0979981,78.016002 34.482,77.62 C34.8660019,77.223998 35.3159974,76.9150011 35.832,76.693 C36.3480026,76.4709989 36.905997,76.36 37.506,76.36 C38.1660033,76.36 38.7479975,76.4709989 39.252,76.693 C39.7560025,76.9150011 40.1759983,77.2149981 40.512,77.593 C40.8480017,77.9710019 41.1029991,78.4119975 41.277,78.916 C41.4510009,79.4200025 41.538,79.9599971 41.538,80.536 Z M44.416,78.43 C44.416,78.2019989 44.4100001,77.9080018 44.398,77.548 C44.3859999,77.1879982 44.3680001,76.8640014 44.344,76.576 L45.514,76.576 C45.5380001,76.8040011 45.5559999,77.0559986 45.568,77.332 C45.5800001,77.6080014 45.586,77.8359991 45.586,78.016 L45.622,78.016 C45.8620012,77.5239975 46.2219976,77.1250015 46.702,76.819 C47.1820024,76.5129985 47.721997,76.36 48.322,76.36 C48.4780008,76.36 48.6189994,76.3659999 48.745,76.378 C48.8710006,76.3900001 48.9999993,76.4139998 49.132,76.45 L48.97,77.602 C48.8979996,77.5779999 48.7780008,77.5540001 48.61,77.53 C48.4419992,77.5059999 48.2740008,77.494 48.106,77.494 C47.7819984,77.494 47.4700015,77.5539994 47.17,77.674 C46.8699985,77.7940006 46.6090011,77.9829987 46.387,78.241 C46.1649989,78.4990013 45.9850007,78.828998 45.847,79.231 C45.7089993,79.633002 45.64,80.1159972 45.64,80.68 L45.64,85 L44.416,85 L44.416,78.43 Z M7.992,107.804 L8.01,107.804 L12.276,97.256 L14.256,97.256 L14.256,110 L12.96,110 L12.96,98.93 L12.924,98.93 L8.316,110 L7.632,110 L3.024,98.93 L2.988,98.93 L2.988,110 L1.692,110 L1.692,97.256 L3.672,97.256 L7.992,107.804 Z M24.244,105.14 C24.2079998,104.347996 23.9530024,103.691003 23.479,103.169 C23.0049976,102.646997 22.3300044,102.386 21.454,102.386 C21.045998,102.386 20.6680017,102.460999 20.32,102.611 C19.9719983,102.761001 19.6660013,102.964999 19.402,103.223 C19.1379987,103.481001 18.9280008,103.774998 18.772,104.105 C18.6159992,104.435002 18.5260001,104.779998 18.502,105.14 L24.244,105.14 Z M25.486,105.536 L25.486,105.806 C25.486,105.902 25.4800001,106.003999 25.468,106.112 L18.484,106.112 C18.4960001,106.532002 18.5799992,106.927998 18.736,107.3 C18.8920008,107.672002 19.1079986,107.995999 19.384,108.272 C19.6600014,108.548001 19.9839981,108.766999 20.356,108.929 C20.7280019,109.091001 21.1299978,109.172 21.562,109.172 C22.1980032,109.172 22.7469977,109.025001 23.209,108.731 C23.6710023,108.436999 24.0219988,108.098002 24.262,107.714 L25.18,108.434 C24.6759975,109.070003 24.121003,109.525999 23.515,109.802 C22.908997,110.078001 22.2580035,110.216 21.562,110.216 C20.9379969,110.216 20.3590027,110.105001 19.825,109.883 C19.2909973,109.660999 18.8320019,109.352002 18.448,108.956 C18.0639981,108.559998 17.7610011,108.092003 17.539,107.552 C17.3169989,107.011997 17.206,106.424003 17.206,105.788 C17.206,105.151997 17.3139989,104.564003 17.53,104.024 C17.7460011,103.483997 18.0459981,103.016002 18.43,102.62 C18.8140019,102.223998 19.2639974,101.915001 19.78,101.693 C20.2960026,101.470999 20.853997,101.36 21.454,101.36 C22.1140033,101.36 22.6959975,101.470999 23.2,101.693 C23.7040025,101.915001 24.1239983,102.214998 24.46,102.593 C24.7960017,102.971002 25.0509991,103.411997 25.225,103.916 C25.3990009,104.420003 25.486,104.959997 25.486,105.536 Z M28.364,103.43 C28.364,103.201999 28.3580001,102.908002 28.346,102.548 C28.3339999,102.187998 28.3160001,101.864001 28.292,101.576 L29.462,101.576 C29.4860001,101.804001 29.5039999,102.055999 29.516,102.332 C29.5280001,102.608001 29.534,102.835999 29.534,103.016 L29.57,103.016 C29.8100012,102.523998 30.1699976,102.125002 30.65,101.819 C31.1300024,101.512998 31.669997,101.36 32.27,101.36 C32.4260008,101.36 32.5669994,101.366 32.693,101.378 C32.8190006,101.39 32.9479993,101.414 33.08,101.45 L32.918,102.602 C32.8459996,102.578 32.7260008,102.554 32.558,102.53 C32.3899992,102.506 32.2220008,102.494 32.054,102.494 C31.7299984,102.494 31.4180015,102.553999 31.118,102.674 C30.8179985,102.794001 30.5570011,102.982999 30.335,103.241 C30.1129989,103.499001 29.9330007,103.828998 29.795,104.231 C29.6569993,104.633002 29.588,105.115997 29.588,105.68 L29.588,110 L28.364,110 L28.364,103.43 Z M40.836,103.502 C40.631999,103.177998 40.3350019,102.911001 39.945,102.701 C39.554998,102.490999 39.1320023,102.386 38.676,102.386 C38.1839975,102.386 37.740002,102.472999 37.344,102.647 C36.947998,102.821001 36.6090014,103.060998 36.327,103.367 C36.0449986,103.673002 35.8290007,104.032998 35.679,104.447 C35.5289992,104.861002 35.454,105.307998 35.454,105.788 C35.454,106.268002 35.5289992,106.711998 35.679,107.12 C35.8290007,107.528002 36.0419986,107.884998 36.318,108.191 C36.5940014,108.497002 36.929998,108.736999 37.326,108.911 C37.722002,109.085001 38.1659975,109.172 38.658,109.172 C39.1980027,109.172 39.6539981,109.070001 40.026,108.866 C40.3980019,108.661999 40.7039988,108.398002 40.944,108.074 L41.862,108.758 C41.5019982,109.202002 41.0610026,109.555999 40.539,109.82 C40.0169974,110.084001 39.3900037,110.216 38.658,110.216 C37.9739966,110.216 37.3560028,110.105001 36.804,109.883 C36.2519972,109.660999 35.7810019,109.352002 35.391,108.956 C35.000998,108.559998 34.6980011,108.092003 34.482,107.552 C34.2659989,107.011997 34.158,106.424003 34.158,105.788 C34.158,105.151997 34.2659989,104.564003 34.482,104.024 C34.6980011,103.483997 35.000998,103.016002 35.391,102.62 C35.7810019,102.223998 36.2519972,101.915001 36.804,101.693 C37.3560028,101.470999 37.9739966,101.36 38.658,101.36 C39.2220028,101.36 39.7949971,101.482999 40.377,101.729 C40.9590029,101.975001 41.4299982,102.337998 41.79,102.818 L40.836,103.502 Z M45.316,102.962 C45.5440011,102.469998 45.9219974,102.080001 46.45,101.792 C46.9780026,101.503999 47.541997,101.36 48.142,101.36 C49.2100053,101.36 50.0109973,101.677997 50.545,102.314 C51.0790027,102.950003 51.346,103.789995 51.346,104.834 L51.346,110 L50.122,110 L50.122,105.338 C50.122,104.893998 50.0860004,104.492002 50.014,104.132 C49.9419996,103.771998 49.8190009,103.463001 49.645,103.205 C49.4709991,102.946999 49.2370015,102.746001 48.943,102.602 C48.6489985,102.457999 48.2800022,102.386 47.836,102.386 C47.5119984,102.386 47.1970015,102.451999 46.891,102.584 C46.5849985,102.716001 46.3120012,102.916999 46.072,103.187 C45.8319988,103.457001 45.6400007,103.798998 45.496,104.213 C45.3519993,104.627002 45.28,105.115997 45.28,105.68 L45.28,110 L44.056,110 L44.056,96.392 L45.28,96.392 L45.28,102.962 L45.316,102.962 Z M60.074,104.564 C60.074,103.831996 59.8820019,103.286002 59.498,102.926 C59.1139981,102.565998 58.5560037,102.386 57.824,102.386 C57.3199975,102.386 56.8520022,102.475999 56.42,102.656 C55.9879978,102.836001 55.6220015,103.075998 55.322,103.376 L54.638,102.566 C54.9860017,102.217998 55.4449971,101.930001 56.015,101.702 C56.5850029,101.473999 57.2299964,101.36 57.95,101.36 C58.4060023,101.36 58.831998,101.422999 59.228,101.549 C59.624002,101.675001 59.9719985,101.863999 60.272,102.116 C60.5720015,102.368001 60.8059992,102.685998 60.974,103.07 C61.1420008,103.454002 61.226,103.903997 61.226,104.42 L61.226,108.11 C61.226,108.434002 61.2379999,108.769998 61.262,109.118 C61.2860001,109.466002 61.3219998,109.759999 61.37,110 L60.272,110 C60.2359998,109.795999 60.2060001,109.574001 60.182,109.334 C60.1579999,109.093999 60.146,108.860001 60.146,108.632 L60.11,108.632 C59.7259981,109.196003 59.2910024,109.600999 58.805,109.847 C58.3189976,110.093001 57.7340034,110.216 57.05,110.216 C56.7259984,110.216 56.3930017,110.171 56.051,110.081 C55.7089983,109.991 55.3970014,109.844001 55.115,109.64 C54.8329986,109.435999 54.5990009,109.172002 54.413,108.848 C54.2269991,108.523998 54.134,108.128002 54.134,107.66 C54.134,107.011997 54.2989984,106.499002 54.629,106.121 C54.9590017,105.742998 55.3999972,105.461001 55.952,105.275 C56.5040028,105.088999 57.1369964,104.969 57.851,104.915 C58.5650036,104.861 59.3059962,104.834 60.074,104.834 L60.074,104.564 Z M59.714,105.788 C59.2099975,105.788 58.7030026,105.809 58.193,105.851 C57.6829974,105.893 57.2210021,105.976999 56.807,106.103 C56.3929979,106.229001 56.0540013,106.411999 55.79,106.652 C55.5259987,106.892001 55.394,107.209998 55.394,107.606 C55.394,107.906002 55.4509994,108.157999 55.565,108.362 C55.6790006,108.566001 55.831999,108.730999 56.024,108.857 C56.216001,108.983001 56.4289988,109.073 56.663,109.127 C56.8970012,109.181 57.1339988,109.208 57.374,109.208 C57.8060022,109.208 58.1899983,109.133001 58.526,108.983 C58.8620017,108.832999 59.1439989,108.629001 59.372,108.371 C59.6000011,108.112999 59.7739994,107.816002 59.894,107.48 C60.0140006,107.143998 60.074,106.790002 60.074,106.418 L60.074,105.788 L59.714,105.788 Z M65.724,101.576 C65.7480001,101.804001 65.7659999,102.055999 65.778,102.332 C65.7900001,102.608001 65.796,102.835999 65.796,103.016 L65.832,103.016 C66.0720012,102.523998 66.4619973,102.125002 67.002,101.819 C67.5420027,101.512998 68.111997,101.36 68.712,101.36 C69.7800053,101.36 70.5809973,101.677997 71.115,102.314 C71.6490027,102.950003 71.916,103.789995 71.916,104.834 L71.916,110 L70.692,110 L70.692,105.338 C70.692,104.893998 70.6560004,104.492002 70.584,104.132 C70.5119996,103.771998 70.3890009,103.463001 70.215,103.205 C70.0409991,102.946999 69.8070015,102.746001 69.513,102.602 C69.2189985,102.457999 68.8500022,102.386 68.406,102.386 C68.0819984,102.386 67.7670015,102.451999 67.461,102.584 C67.1549985,102.716001 66.8820012,102.916999 66.642,103.187 C66.4019988,103.457001 66.2100007,103.798998 66.066,104.213 C65.9219993,104.627002 65.85,105.115997 65.85,105.68 L65.85,110 L64.626,110 L64.626,103.43 C64.626,103.201999 64.6200001,102.908002 64.608,102.548 C64.5959999,102.187998 64.5780001,101.864001 64.554,101.576 L65.724,101.576 Z M79.132,102.602 L76.756,102.602 L76.756,107.516 C76.756,107.828002 76.7859997,108.085999 76.846,108.29 C76.9060003,108.494001 76.9929994,108.652999 77.107,108.767 C77.2210006,108.881001 77.3559992,108.959 77.512,109.001 C77.6680008,109.043 77.8359991,109.064 78.016,109.064 C78.1840008,109.064 78.3609991,109.04 78.547,108.992 C78.7330009,108.944 78.9099992,108.878 79.078,108.794 L79.132,109.856 C78.9159989,109.94 78.6910012,110.003 78.457,110.045 C78.2229988,110.087 77.9680014,110.108 77.692,110.108 C77.4639989,110.108 77.2240013,110.078 76.972,110.018 C76.7199987,109.958 76.4860011,109.844001 76.27,109.676 C76.0539989,109.507999 75.8770007,109.280001 75.739,108.992 C75.6009993,108.703999 75.532,108.326002 75.532,107.858 L75.532,102.602 L73.786,102.602 L73.786,101.576 L75.532,101.576 L75.532,99.2 L76.756,99.2 L76.756,101.576 L79.132,101.576 L79.132,102.602 Z M85.772,103.574 C85.5919991,103.225998 85.3190018,102.941001 84.953,102.719 C84.5869982,102.496999 84.1700023,102.386 83.702,102.386 C83.4859989,102.386 83.2700011,102.41 83.054,102.458 C82.8379989,102.506 82.6460008,102.583999 82.478,102.692 C82.3099992,102.800001 82.1750005,102.937999 82.073,103.106 C81.9709995,103.274001 81.92,103.471999 81.92,103.7 C81.92,104.096002 82.0819984,104.398999 82.406,104.609 C82.7300016,104.819001 83.2399965,104.995999 83.936,105.14 C84.932005,105.344001 85.6669976,105.640998 86.141,106.031 C86.6150024,106.421002 86.852,106.945997 86.852,107.606 C86.852,108.086002 86.7590009,108.490998 86.573,108.821 C86.3869991,109.151002 86.1440015,109.420999 85.844,109.631 C85.5439985,109.841001 85.2050019,109.991 84.827,110.081 C84.4489981,110.171 84.0680019,110.216 83.684,110.216 C83.0479968,110.216 82.430003,110.084001 81.83,109.82 C81.229997,109.555999 80.7380019,109.142003 80.354,108.578 L81.326,107.858 C81.5420011,108.230002 81.8599979,108.541999 82.28,108.794 C82.7000021,109.046001 83.1619975,109.172 83.666,109.172 C83.9300013,109.172 84.1819988,109.148 84.422,109.1 C84.6620012,109.052 84.8719991,108.968001 85.052,108.848 C85.2320009,108.727999 85.3759995,108.575001 85.484,108.389 C85.5920005,108.202999 85.646,107.972001 85.646,107.696 C85.646,107.251998 85.4330021,106.919001 85.007,106.697 C84.5809979,106.474999 83.966004,106.268001 83.162,106.076 C82.9099987,106.016 82.6430014,105.941 82.361,105.851 C82.0789986,105.761 81.8180012,105.629001 81.578,105.455 C81.3379988,105.280999 81.1400008,105.062001 80.984,104.798 C80.8279992,104.533999 80.75,104.204002 80.75,103.808 C80.75,103.375998 80.8339992,103.007002 81.002,102.701 C81.1700008,102.394998 81.3949986,102.143001 81.677,101.945 C81.9590014,101.746999 82.2799982,101.6 82.64,101.504 C83.0000018,101.408 83.3719981,101.36 83.756,101.36 C84.3440029,101.36 84.9139972,101.491999 85.466,101.756 C86.0180028,102.020001 86.4319986,102.391998 86.708,102.872 L85.772,103.574 Z" id="Other-Merchants" fill="#FFFFFF"></path>
                            <polygon id="Path-2" fill="#61B3FF" fill-rule="nonzero" points="295.383193 100.5 295.383193 99.5 380.616936 99.5 380.616936 100.5"></polygon>
                            <path d="M315.602,89 L314.18,89 L319.688,76.256 L320.948,76.256 L326.42,89 L324.98,89 L323.576,85.652 L316.988,85.652 L315.602,89 Z M317.474,84.464 L323.09,84.464 L320.282,77.696 L317.474,84.464 Z M329.676,82.016 C329.916001,81.5239975 330.284998,81.1250015 330.783,80.819 C331.281002,80.5129985 331.835997,80.36 332.448,80.36 C332.676001,80.36 332.912999,80.3839998 333.159,80.432 C333.405001,80.4800002 333.644999,80.5729993 333.879,80.711 C334.113001,80.8490007 334.328999,81.0319989 334.527,81.26 C334.725001,81.4880011 334.895999,81.7819982 335.04,82.142 C335.328001,81.5659971 335.720998,81.1250015 336.219,80.819 C336.717002,80.5129985 337.307997,80.36 337.992,80.36 C339.060005,80.36 339.860997,80.6779968 340.395,81.314 C340.929003,81.9500032 341.196,82.7899948 341.196,83.834 L341.196,89 L339.972,89 L339.972,84.338 C339.972,83.4499956 339.807002,82.7360027 339.477,82.196 C339.146998,81.6559973 338.586004,81.386 337.794,81.386 C337.349998,81.386 336.975002,81.4759991 336.669,81.656 C336.362998,81.8360009 336.117001,82.0729985 335.931,82.367 C335.744999,82.6610015 335.61,82.9939981 335.526,83.366 C335.442,83.7380019 335.4,84.121998 335.4,84.518 L335.4,89 L334.176,89 L334.176,84.086 C334.176,83.677998 334.146,83.3060017 334.086,82.97 C334.026,82.6339983 333.921001,82.3490012 333.771,82.115 C333.620999,81.8809988 333.414001,81.7010006 333.15,81.575 C332.885999,81.4489994 332.550002,81.386 332.142,81.386 C331.853999,81.386 331.563001,81.4519993 331.269,81.584 C330.974999,81.7160007 330.711001,81.9169986 330.477,82.187 C330.242999,82.4570013 330.054001,82.7989979 329.91,83.213 C329.765999,83.6270021 329.694,84.1159972 329.694,84.68 L329.694,89 L328.47,89 L328.47,82.43 C328.47,82.2019989 328.464,81.9080018 328.452,81.548 C328.44,81.1879982 328.422,80.8640014 328.398,80.576 L329.568,80.576 C329.592,80.8040011 329.61,81.0559986 329.622,81.332 C329.634,81.6080014 329.64,81.8359991 329.64,82.016 L329.676,82.016 Z M349.924,83.564 C349.924,82.8319963 349.732002,82.2860018 349.348,81.926 C348.963998,81.5659982 348.406004,81.386 347.674,81.386 C347.169997,81.386 346.702002,81.4759991 346.27,81.656 C345.837998,81.8360009 345.472002,82.0759985 345.172,82.376 L344.488,81.566 C344.836002,81.2179983 345.294997,80.9300011 345.865,80.702 C346.435003,80.4739989 347.079996,80.36 347.8,80.36 C348.256002,80.36 348.681998,80.4229994 349.078,80.549 C349.474002,80.6750006 349.821999,80.8639987 350.122,81.116 C350.422002,81.3680013 350.655999,81.6859981 350.824,82.07 C350.992001,82.4540019 351.076,82.9039974 351.076,83.42 L351.076,87.11 C351.076,87.4340016 351.088,87.7699983 351.112,88.118 C351.136,88.4660017 351.172,88.7599988 351.22,89 L350.122,89 C350.086,88.795999 350.056,88.5740012 350.032,88.334 C350.008,88.0939988 349.996,87.8600011 349.996,87.632 L349.96,87.632 C349.575998,88.1960028 349.141002,88.6009988 348.655,88.847 C348.168998,89.0930012 347.584003,89.216 346.9,89.216 C346.575998,89.216 346.243002,89.1710005 345.901,89.081 C345.558998,88.9909995 345.247001,88.844001 344.965,88.64 C344.682999,88.435999 344.449001,88.1720016 344.263,87.848 C344.076999,87.5239984 343.984,87.1280023 343.984,86.66 C343.984,86.0119968 344.148998,85.4990019 344.479,85.121 C344.809002,84.7429981 345.249997,84.4610009 345.802,84.275 C346.354003,84.0889991 346.986996,83.9690003 347.701,83.915 C348.415004,83.8609997 349.155996,83.834 349.924,83.834 L349.924,83.564 Z M349.564,84.788 C349.059997,84.788 348.553003,84.8089998 348.043,84.851 C347.532997,84.8930002 347.071002,84.9769994 346.657,85.103 C346.242998,85.2290006 345.904001,85.4119988 345.64,85.652 C345.375999,85.8920012 345.244,86.209998 345.244,86.606 C345.244,86.9060015 345.300999,87.157999 345.415,87.362 C345.529001,87.566001 345.681999,87.7309994 345.874,87.857 C346.066001,87.9830006 346.278999,88.0729997 346.513,88.127 C346.747001,88.1810003 346.983999,88.208 347.224,88.208 C347.656002,88.208 348.039998,88.1330008 348.376,87.983 C348.712002,87.8329993 348.993999,87.6290013 349.222,87.371 C349.450001,87.1129987 349.623999,86.8160017 349.744,86.48 C349.864001,86.1439983 349.924,85.7900019 349.924,85.418 L349.924,84.788 L349.564,84.788 Z M360.074,81.44 L355.034,87.938 L360.254,87.938 L360.254,89 L353.414,89 L353.414,88.136 L358.436,81.602 L353.666,81.602 L353.666,80.576 L360.074,80.576 L360.074,81.44 Z M371.052,84.788 C371.052,85.4240032 370.941001,86.0119973 370.719,86.552 C370.496999,87.0920027 370.188002,87.559998 369.792,87.956 C369.395998,88.352002 368.922003,88.6609989 368.37,88.883 C367.817997,89.1050011 367.212003,89.216 366.552,89.216 C365.903997,89.216 365.304003,89.1050011 364.752,88.883 C364.199997,88.6609989 363.726002,88.352002 363.33,87.956 C362.933998,87.559998 362.625001,87.0920027 362.403,86.552 C362.180999,86.0119973 362.07,85.4240032 362.07,84.788 C362.07,84.1519968 362.180999,83.5640027 362.403,83.024 C362.625001,82.4839973 362.933998,82.016002 363.33,81.62 C363.726002,81.223998 364.199997,80.9150011 364.752,80.693 C365.304003,80.4709989 365.903997,80.36 366.552,80.36 C367.212003,80.36 367.817997,80.4709989 368.37,80.693 C368.922003,80.9150011 369.395998,81.223998 369.792,81.62 C370.188002,82.016002 370.496999,82.4839973 370.719,83.024 C370.941001,83.5640027 371.052,84.1519968 371.052,84.788 Z M369.756,84.788 C369.756,84.3199977 369.681001,83.8790021 369.531,83.465 C369.380999,83.0509979 369.168001,82.6910015 368.892,82.385 C368.615999,82.0789985 368.280002,81.8360009 367.884,81.656 C367.487998,81.4759991 367.044002,81.386 366.552,81.386 C366.059998,81.386 365.619002,81.4759991 365.229,81.656 C364.838998,81.8360009 364.506001,82.0789985 364.23,82.385 C363.953999,82.6910015 363.741001,83.0509979 363.591,83.465 C363.440999,83.8790021 363.366,84.3199977 363.366,84.788 C363.366,85.2560023 363.440999,85.6969979 363.591,86.111 C363.741001,86.5250021 363.953999,86.8849985 364.23,87.191 C364.506001,87.4970015 364.838998,87.7369991 365.229,87.911 C365.619002,88.0850009 366.059998,88.172 366.552,88.172 C367.044002,88.172 367.487998,88.0850009 367.884,87.911 C368.280002,87.7369991 368.615999,87.4970015 368.892,87.191 C369.168001,86.8849985 369.380999,86.5250021 369.531,86.111 C369.681001,85.6969979 369.756,85.2560023 369.756,84.788 Z M375.028,80.576 C375.052,80.8040011 375.07,81.0559986 375.082,81.332 C375.094,81.6080014 375.1,81.8359991 375.1,82.016 L375.136,82.016 C375.376001,81.5239975 375.765997,81.1250015 376.306,80.819 C376.846003,80.5129985 377.415997,80.36 378.016,80.36 C379.084005,80.36 379.884997,80.6779968 380.419,81.314 C380.953003,81.9500032 381.22,82.7899948 381.22,83.834 L381.22,89 L379.996,89 L379.996,84.338 C379.996,83.8939978 379.96,83.4920018 379.888,83.132 C379.816,82.7719982 379.693001,82.4630013 379.519,82.205 C379.344999,81.9469987 379.111001,81.7460007 378.817,81.602 C378.522999,81.4579993 378.154002,81.386 377.71,81.386 C377.385998,81.386 377.071002,81.4519993 376.765,81.584 C376.458998,81.7160007 376.186001,81.9169986 375.946,82.187 C375.705999,82.4570013 375.514001,82.7989979 375.37,83.213 C375.225999,83.6270021 375.154,84.1159972 375.154,84.68 L375.154,89 L373.93,89 L373.93,82.43 C373.93,82.2019989 373.924,81.9080018 373.912,81.548 C373.9,81.1879982 373.882,80.8640014 373.858,80.576 L375.028,80.576 Z" id="Amazon" fill="#FFFFFF"></path>
                            <path d="M350.55,114.408 L345.24,114.408 L345.15,118.35 C345.426001,118.254 345.716998,118.182 346.023,118.134 C346.329002,118.086 346.625999,118.062 346.914,118.062 C347.514003,118.062 348.065997,118.157999 348.57,118.35 C349.074003,118.542001 349.511998,118.814998 349.884,119.169 C350.256002,119.523002 350.543999,119.945998 350.748,120.438 C350.952001,120.930002 351.054,121.469997 351.054,122.058 C351.054,122.670003 350.952001,123.236997 350.748,123.759 C350.543999,124.281003 350.256002,124.730998 349.884,125.109 C349.511998,125.487002 349.065003,125.783999 348.543,126 C348.020997,126.216001 347.448003,126.324 346.824,126.324 C345.899995,126.324 345.120003,126.114002 344.484,125.694 C343.847997,125.273998 343.356002,124.710004 343.008,124.002 L344.178,123.48 C344.406001,124.008003 344.750998,124.427998 345.213,124.74 C345.675002,125.052002 346.187997,125.208 346.752,125.208 C347.184002,125.208 347.582998,125.133001 347.949,124.983 C348.315002,124.832999 348.629999,124.623001 348.894,124.353 C349.158001,124.082999 349.364999,123.762002 349.515,123.39 C349.665001,123.017998 349.74,122.616002 349.74,122.184 C349.74,121.715998 349.659001,121.293002 349.497,120.915 C349.334999,120.536998 349.113001,120.216001 348.831,119.952 C348.548999,119.687999 348.216002,119.484001 347.832,119.34 C347.447998,119.195999 347.028002,119.124 346.572,119.124 C346.115998,119.124 345.663002,119.186999 345.213,119.313 C344.762998,119.439001 344.334002,119.609999 343.926,119.826 L344.052,113.256 L350.55,113.256 L350.55,114.408 Z M357.8832,112.932 C358.675204,112.932 359.338197,113.126998 359.8722,113.517 C360.406203,113.907002 360.835198,114.416997 361.1592,115.047 C361.483202,115.677003 361.714199,116.393996 361.8522,117.198 C361.990201,118.002004 362.0592,118.817996 362.0592,119.646 C362.0592,120.474004 361.990201,121.286996 361.8522,122.085 C361.714199,122.883004 361.483202,123.596997 361.1592,124.227 C360.835198,124.857003 360.406203,125.363998 359.8722,125.748 C359.338197,126.132002 358.675204,126.324 357.8832,126.324 C357.079196,126.324 356.410203,126.132002 355.8762,125.748 C355.342197,125.363998 354.913202,124.857003 354.5892,124.227 C354.265198,123.596997 354.037201,122.883004 353.9052,122.085 C353.773199,121.286996 353.7072,120.474004 353.7072,119.646 C353.7072,118.817996 353.773199,118.002004 353.9052,117.198 C354.037201,116.393996 354.265198,115.677003 354.5892,115.047 C354.913202,114.416997 355.342197,113.907002 355.8762,113.517 C356.410203,113.126998 357.079196,112.932 357.8832,112.932 Z M357.8832,114.03 C357.319197,114.03 356.851202,114.203998 356.4792,114.552 C356.107198,114.900002 355.813201,115.343997 355.5972,115.884 C355.381199,116.424003 355.2312,117.026997 355.1472,117.693 C355.0632,118.359003 355.0212,119.009997 355.0212,119.646 C355.0212,120.282003 355.0632,120.929997 355.1472,121.59 C355.2312,122.250003 355.381199,122.846997 355.5972,123.381 C355.813201,123.915003 356.107198,124.352998 356.4792,124.695 C356.851202,125.037002 357.319197,125.208 357.8832,125.208 C358.435203,125.208 358.897198,125.037002 359.2692,124.695 C359.641202,124.352998 359.935199,123.915003 360.1512,123.381 C360.367201,122.846997 360.5202,122.250003 360.6102,121.59 C360.7002,120.929997 360.7452,120.282003 360.7452,119.646 C360.7452,119.009997 360.7002,118.359003 360.6102,117.693 C360.5202,117.026997 360.367201,116.424003 360.1512,115.884 C359.935199,115.343997 359.641202,114.900002 359.2692,114.552 C358.897198,114.203998 358.435203,114.03 357.8832,114.03 Z M370.3464,116.19 C370.3464,116.634002 370.265401,117.047998 370.1034,117.432 C369.941399,117.816002 369.716401,118.148999 369.4284,118.431 C369.140399,118.713001 368.804402,118.934999 368.4204,119.097 C368.036398,119.259001 367.622402,119.34 367.1784,119.34 C366.734398,119.34 366.320402,119.259001 365.9364,119.097 C365.552398,118.934999 365.216401,118.713001 364.9284,118.431 C364.640399,118.148999 364.415401,117.816002 364.2534,117.432 C364.091399,117.047998 364.0104,116.634002 364.0104,116.19 C364.0104,115.745998 364.091399,115.332002 364.2534,114.948 C364.415401,114.563998 364.640399,114.231001 364.9284,113.949 C365.216401,113.666999 365.552398,113.445001 365.9364,113.283 C366.320402,113.120999 366.734398,113.04 367.1784,113.04 C367.622402,113.04 368.036398,113.120999 368.4204,113.283 C368.804402,113.445001 369.140399,113.666999 369.4284,113.949 C369.716401,114.231001 369.941399,114.563998 370.1034,114.948 C370.265401,115.332002 370.3464,115.745998 370.3464,116.19 Z M369.2664,116.19 C369.2664,115.889998 369.209401,115.614001 369.0954,115.362 C368.981399,115.109999 368.831401,114.891001 368.6454,114.705 C368.459399,114.518999 368.240401,114.375001 367.9884,114.273 C367.736399,114.170999 367.466401,114.12 367.1784,114.12 C366.890399,114.12 366.620401,114.170999 366.3684,114.273 C366.116399,114.375001 365.897401,114.518999 365.7114,114.705 C365.525399,114.891001 365.375401,115.109999 365.2614,115.362 C365.147399,115.614001 365.0904,115.889998 365.0904,116.19 C365.0904,116.490002 365.147399,116.765999 365.2614,117.018 C365.375401,117.270001 365.525399,117.488999 365.7114,117.675 C365.897401,117.861001 366.116399,118.004999 366.3684,118.107 C366.620401,118.209001 366.890399,118.26 367.1784,118.26 C367.466401,118.26 367.736399,118.209001 367.9884,118.107 C368.240401,118.004999 368.459399,117.861001 368.6454,117.675 C368.831401,117.488999 368.981399,117.270001 369.0954,117.018 C369.209401,116.765999 369.2664,116.490002 369.2664,116.19 Z M377.6364,123.066 C377.6364,123.510002 377.555401,123.923998 377.3934,124.308 C377.231399,124.692002 377.006401,125.024999 376.7184,125.307 C376.430399,125.589001 376.094402,125.810999 375.7104,125.973 C375.326398,126.135001 374.912402,126.216 374.4684,126.216 C374.024398,126.216 373.610402,126.135001 373.2264,125.973 C372.842398,125.810999 372.506401,125.589001 372.2184,125.307 C371.930399,125.024999 371.705401,124.692002 371.5434,124.308 C371.381399,123.923998 371.3004,123.510002 371.3004,123.066 C371.3004,122.621998 371.381399,122.208002 371.5434,121.824 C371.705401,121.439998 371.930399,121.107001 372.2184,120.825 C372.506401,120.542999 372.842398,120.321001 373.2264,120.159 C373.610402,119.996999 374.024398,119.916 374.4684,119.916 C374.912402,119.916 375.326398,119.996999 375.7104,120.159 C376.094402,120.321001 376.430399,120.542999 376.7184,120.825 C377.006401,121.107001 377.231399,121.439998 377.3934,121.824 C377.555401,122.208002 377.6364,122.621998 377.6364,123.066 Z M376.5564,123.066 C376.5564,122.765998 376.499401,122.490001 376.3854,122.238 C376.271399,121.985999 376.121401,121.767001 375.9354,121.581 C375.749399,121.394999 375.530401,121.251001 375.2784,121.149 C375.026399,121.046999 374.756401,120.996 374.4684,120.996 C374.180399,120.996 373.910401,121.046999 373.6584,121.149 C373.406399,121.251001 373.187401,121.394999 373.0014,121.581 C372.815399,121.767001 372.665401,121.985999 372.5514,122.238 C372.437399,122.490001 372.3804,122.765998 372.3804,123.066 C372.3804,123.366001 372.437399,123.641999 372.5514,123.894 C372.665401,124.146001 372.815399,124.364999 373.0014,124.551 C373.187401,124.737001 373.406399,124.880999 373.6584,124.983 C373.910401,125.085001 374.180399,125.136 374.4684,125.136 C374.756401,125.136 375.026399,125.085001 375.2784,124.983 C375.530401,124.880999 375.749399,124.737001 375.9354,124.551 C376.121401,124.364999 376.271399,124.146001 376.3854,123.894 C376.499401,123.641999 376.5564,123.366001 376.5564,123.066 Z M367.2324,126.558 L366.2964,126.072 L374.4144,112.698 L375.3324,113.184 L367.2324,126.558 Z" id="50%" fill="#FFFFFF"></path>
                            <path d="M9.848,144.788 L11.72,144.788 L11.72,145.922 L9.848,145.922 L9.848,149 L8.588,149 L8.588,145.922 L2.756,145.922 L2.756,144.662 L8.156,136.256 L9.848,136.256 L9.848,144.788 Z M8.588,137.714 L8.552,137.714 L4.106,144.788 L8.588,144.788 L8.588,137.714 Z M21.6272,137.444 L16.4972,149 L15.0392,149 L20.3132,137.408 L14.0672,137.408 L14.0672,136.256 L21.6272,136.256 L21.6272,137.444 Z M30.3464,139.19 C30.3464,139.634002 30.2654008,140.047998 30.1034,140.432 C29.9413992,140.816002 29.7164014,141.148999 29.4284,141.431 C29.1403986,141.713001 28.8044019,141.934999 28.4204,142.097 C28.0363981,142.259001 27.6224022,142.34 27.1784,142.34 C26.7343978,142.34 26.3204019,142.259001 25.9364,142.097 C25.5523981,141.934999 25.2164014,141.713001 24.9284,141.431 C24.6403986,141.148999 24.4154008,140.816002 24.2534,140.432 C24.0913992,140.047998 24.0104,139.634002 24.0104,139.19 C24.0104,138.745998 24.0913992,138.332002 24.2534,137.948 C24.4154008,137.563998 24.6403986,137.231001 24.9284,136.949 C25.2164014,136.666999 25.5523981,136.445001 25.9364,136.283 C26.3204019,136.120999 26.7343978,136.04 27.1784,136.04 C27.6224022,136.04 28.0363981,136.120999 28.4204,136.283 C28.8044019,136.445001 29.1403986,136.666999 29.4284,136.949 C29.7164014,137.231001 29.9413992,137.563998 30.1034,137.948 C30.2654008,138.332002 30.3464,138.745998 30.3464,139.19 Z M29.2664,139.19 C29.2664,138.889998 29.2094006,138.614001 29.0954,138.362 C28.9813994,138.109999 28.8314009,137.891001 28.6454,137.705 C28.4593991,137.518999 28.2404013,137.375001 27.9884,137.273 C27.7363987,137.170999 27.4664014,137.12 27.1784,137.12 C26.8903986,137.12 26.6204013,137.170999 26.3684,137.273 C26.1163987,137.375001 25.8974009,137.518999 25.7114,137.705 C25.5253991,137.891001 25.3754006,138.109999 25.2614,138.362 C25.1473994,138.614001 25.0904,138.889998 25.0904,139.19 C25.0904,139.490002 25.1473994,139.765999 25.2614,140.018 C25.3754006,140.270001 25.5253991,140.488999 25.7114,140.675 C25.8974009,140.861001 26.1163987,141.004999 26.3684,141.107 C26.6204013,141.209001 26.8903986,141.26 27.1784,141.26 C27.4664014,141.26 27.7363987,141.209001 27.9884,141.107 C28.2404013,141.004999 28.4593991,140.861001 28.6454,140.675 C28.8314009,140.488999 28.9813994,140.270001 29.0954,140.018 C29.2094006,139.765999 29.2664,139.490002 29.2664,139.19 Z M37.6364,146.066 C37.6364,146.510002 37.5554008,146.923998 37.3934,147.308 C37.2313992,147.692002 37.0064014,148.024999 36.7184,148.307 C36.4303986,148.589001 36.0944019,148.810999 35.7104,148.973 C35.3263981,149.135001 34.9124022,149.216 34.4684,149.216 C34.0243978,149.216 33.6104019,149.135001 33.2264,148.973 C32.8423981,148.810999 32.5064014,148.589001 32.2184,148.307 C31.9303986,148.024999 31.7054008,147.692002 31.5434,147.308 C31.3813992,146.923998 31.3004,146.510002 31.3004,146.066 C31.3004,145.621998 31.3813992,145.208002 31.5434,144.824 C31.7054008,144.439998 31.9303986,144.107001 32.2184,143.825 C32.5064014,143.542999 32.8423981,143.321001 33.2264,143.159 C33.6104019,142.996999 34.0243978,142.916 34.4684,142.916 C34.9124022,142.916 35.3263981,142.996999 35.7104,143.159 C36.0944019,143.321001 36.4303986,143.542999 36.7184,143.825 C37.0064014,144.107001 37.2313992,144.439998 37.3934,144.824 C37.5554008,145.208002 37.6364,145.621998 37.6364,146.066 Z M36.5564,146.066 C36.5564,145.765998 36.4994006,145.490001 36.3854,145.238 C36.2713994,144.985999 36.1214009,144.767001 35.9354,144.581 C35.7493991,144.394999 35.5304013,144.251001 35.2784,144.149 C35.0263987,144.046999 34.7564014,143.996 34.4684,143.996 C34.1803986,143.996 33.9104013,144.046999 33.6584,144.149 C33.4063987,144.251001 33.1874009,144.394999 33.0014,144.581 C32.8153991,144.767001 32.6654006,144.985999 32.5514,145.238 C32.4373994,145.490001 32.3804,145.765998 32.3804,146.066 C32.3804,146.366002 32.4373994,146.641999 32.5514,146.894 C32.6654006,147.146001 32.8153991,147.364999 33.0014,147.551 C33.1874009,147.737001 33.4063987,147.880999 33.6584,147.983 C33.9104013,148.085001 34.1803986,148.136 34.4684,148.136 C34.7564014,148.136 35.0263987,148.085001 35.2784,147.983 C35.5304013,147.880999 35.7493991,147.737001 35.9354,147.551 C36.1214009,147.364999 36.2713994,147.146001 36.3854,146.894 C36.4994006,146.641999 36.5564,146.366002 36.5564,146.066 Z M27.2324,149.558 L26.2964,149.072 L34.4144,135.698 L35.3324,136.184 L27.2324,149.558 Z" id="47%" fill="#FFFFFF"></path>
                            <path d="M356.852,258.764 L357.41,258.764 C357.818002,258.764 358.201998,258.722 358.562,258.638 C358.922002,258.554 359.236999,258.419001 359.507,258.233 C359.777001,258.046999 359.989999,257.804002 360.146,257.504 C360.302001,257.203999 360.38,256.844002 360.38,256.424 C360.38,256.063998 360.314001,255.737001 360.182,255.443 C360.049999,255.148999 359.867001,254.897001 359.633,254.687 C359.398999,254.476999 359.129002,254.315001 358.823,254.201 C358.516998,254.086999 358.196002,254.03 357.86,254.03 C357.319997,254.03 356.843002,254.155999 356.429,254.408 C356.014998,254.660001 355.682001,255.031998 355.43,255.524 L354.332,254.948 C354.728002,254.263997 355.231997,253.757002 355.844,253.427 C356.456003,253.096998 357.151996,252.932 357.932,252.932 C358.436003,252.932 358.912998,253.006999 359.363,253.157 C359.813002,253.307001 360.208998,253.525999 360.551,253.814 C360.893002,254.102001 361.162999,254.458998 361.361,254.885 C361.559001,255.311002 361.658,255.799997 361.658,256.352 C361.658,257.108004 361.448002,257.740997 361.028,258.251 C360.607998,258.761003 360.080003,259.099999 359.444,259.268 L359.444,259.304 C360.176004,259.460001 360.787998,259.810997 361.28,260.357 C361.772002,260.903003 362.018,261.607996 362.018,262.472 C362.018,263.084003 361.907001,263.626998 361.685,264.101 C361.462999,264.575002 361.166002,264.976998 360.794,265.307 C360.421998,265.637002 359.987002,265.888999 359.489,266.063 C358.990998,266.237001 358.466003,266.324 357.914,266.324 C356.977995,266.324 356.162003,266.099002 355.466,265.649 C354.769997,265.198998 354.242002,264.554004 353.882,263.714 L355.106,263.264 C355.322001,263.876003 355.681997,264.352998 356.186,264.695 C356.690003,265.037002 357.265997,265.208 357.914,265.208 C358.274002,265.208 358.624998,265.145001 358.967,265.019 C359.309002,264.892999 359.608999,264.713001 359.867,264.479 C360.125001,264.244999 360.331999,263.960002 360.488,263.624 C360.644001,263.287998 360.722,262.904002 360.722,262.472 C360.722,261.991998 360.629001,261.587002 360.443,261.257 C360.256999,260.926998 360.008002,260.660001 359.696,260.456 C359.383998,260.251999 359.030002,260.105 358.634,260.015 C358.237998,259.925 357.830002,259.88 357.41,259.88 L356.852,259.88 L356.852,258.764 Z M370.6832,256.19 C370.6832,256.634002 370.602201,257.047998 370.4402,257.432 C370.278199,257.816002 370.053201,258.148999 369.7652,258.431 C369.477199,258.713001 369.141202,258.934999 368.7572,259.097 C368.373198,259.259001 367.959202,259.34 367.5152,259.34 C367.071198,259.34 366.657202,259.259001 366.2732,259.097 C365.889198,258.934999 365.553201,258.713001 365.2652,258.431 C364.977199,258.148999 364.752201,257.816002 364.5902,257.432 C364.428199,257.047998 364.3472,256.634002 364.3472,256.19 C364.3472,255.745998 364.428199,255.332002 364.5902,254.948 C364.752201,254.563998 364.977199,254.231001 365.2652,253.949 C365.553201,253.666999 365.889198,253.445001 366.2732,253.283 C366.657202,253.120999 367.071198,253.04 367.5152,253.04 C367.959202,253.04 368.373198,253.120999 368.7572,253.283 C369.141202,253.445001 369.477199,253.666999 369.7652,253.949 C370.053201,254.231001 370.278199,254.563998 370.4402,254.948 C370.602201,255.332002 370.6832,255.745998 370.6832,256.19 Z M369.6032,256.19 C369.6032,255.889998 369.546201,255.614001 369.4322,255.362 C369.318199,255.109999 369.168201,254.891001 368.9822,254.705 C368.796199,254.518999 368.577201,254.375001 368.3252,254.273 C368.073199,254.170999 367.803201,254.12 367.5152,254.12 C367.227199,254.12 366.957201,254.170999 366.7052,254.273 C366.453199,254.375001 366.234201,254.518999 366.0482,254.705 C365.862199,254.891001 365.712201,255.109999 365.5982,255.362 C365.484199,255.614001 365.4272,255.889998 365.4272,256.19 C365.4272,256.490002 365.484199,256.765999 365.5982,257.018 C365.712201,257.270001 365.862199,257.488999 366.0482,257.675 C366.234201,257.861001 366.453199,258.004999 366.7052,258.107 C366.957201,258.209001 367.227199,258.26 367.5152,258.26 C367.803201,258.26 368.073199,258.209001 368.3252,258.107 C368.577201,258.004999 368.796199,257.861001 368.9822,257.675 C369.168201,257.488999 369.318199,257.270001 369.4322,257.018 C369.546201,256.765999 369.6032,256.490002 369.6032,256.19 Z M377.9732,263.066 C377.9732,263.510002 377.892201,263.923998 377.7302,264.308 C377.568199,264.692002 377.343201,265.024999 377.0552,265.307 C376.767199,265.589001 376.431202,265.810999 376.0472,265.973 C375.663198,266.135001 375.249202,266.216 374.8052,266.216 C374.361198,266.216 373.947202,266.135001 373.5632,265.973 C373.179198,265.810999 372.843201,265.589001 372.5552,265.307 C372.267199,265.024999 372.042201,264.692002 371.8802,264.308 C371.718199,263.923998 371.6372,263.510002 371.6372,263.066 C371.6372,262.621998 371.718199,262.208002 371.8802,261.824 C372.042201,261.439998 372.267199,261.107001 372.5552,260.825 C372.843201,260.542999 373.179198,260.321001 373.5632,260.159 C373.947202,259.996999 374.361198,259.916 374.8052,259.916 C375.249202,259.916 375.663198,259.996999 376.0472,260.159 C376.431202,260.321001 376.767199,260.542999 377.0552,260.825 C377.343201,261.107001 377.568199,261.439998 377.7302,261.824 C377.892201,262.208002 377.9732,262.621998 377.9732,263.066 Z M376.8932,263.066 C376.8932,262.765999 376.836201,262.490001 376.7222,262.238 C376.608199,261.985999 376.458201,261.767001 376.2722,261.581 C376.086199,261.394999 375.867201,261.251001 375.6152,261.149 C375.363199,261.046999 375.093201,260.996 374.8052,260.996 C374.517199,260.996 374.247201,261.046999 373.9952,261.149 C373.743199,261.251001 373.524201,261.394999 373.3382,261.581 C373.152199,261.767001 373.002201,261.985999 372.8882,262.238 C372.774199,262.490001 372.7172,262.765999 372.7172,263.066 C372.7172,263.366001 372.774199,263.641999 372.8882,263.894 C373.002201,264.146001 373.152199,264.364999 373.3382,264.551 C373.524201,264.737001 373.743199,264.880999 373.9952,264.983 C374.247201,265.085001 374.517199,265.136 374.8052,265.136 C375.093201,265.136 375.363199,265.085001 375.6152,264.983 C375.867201,264.880999 376.086199,264.737001 376.2722,264.551 C376.458201,264.364999 376.608199,264.146001 376.7222,263.894 C376.836201,263.641999 376.8932,263.366001 376.8932,263.066 Z M367.5692,266.558 L366.6332,266.072 L374.7512,252.698 L375.6692,253.184 L367.5692,266.558 Z" id="3%" fill="#FFFFFF"></path>
                            <polygon id="Path-2" fill="#61B3FF" fill-rule="nonzero" transform="translate(304.323388, 222.926941) scale(1, -1) translate(-304.323388, -222.926941) " points="229.353225 239.353882 228.646775 238.646118 260.852695 206.5 380 206.5 380 207.5 261.266364 207.5"></polygon>
                            <path d="M350.046,222.14 C350.01,221.347996 349.755002,220.691003 349.281,220.169 C348.806998,219.646997 348.132004,219.386 347.256,219.386 C346.847998,219.386 346.470002,219.460999 346.122,219.611 C345.773998,219.761001 345.468001,219.964999 345.204,220.223 C344.939999,220.481001 344.730001,220.774998 344.574,221.105 C344.417999,221.435002 344.328,221.779998 344.304,222.14 L350.046,222.14 Z M351.288,222.536 L351.288,222.806 C351.288,222.902 351.282,223.003999 351.27,223.112 L344.286,223.112 C344.298,223.532002 344.381999,223.927998 344.538,224.3 C344.694001,224.672002 344.909999,224.995999 345.186,225.272 C345.462001,225.548001 345.785998,225.766999 346.158,225.929 C346.530002,226.091001 346.931998,226.172 347.364,226.172 C348.000003,226.172 348.548998,226.025001 349.011,225.731 C349.473002,225.436999 349.823999,225.098002 350.064,224.714 L350.982,225.434 C350.477997,226.070003 349.923003,226.525999 349.317,226.802 C348.710997,227.078001 348.060003,227.216 347.364,227.216 C346.739997,227.216 346.161003,227.105001 345.627,226.883 C345.092997,226.660999 344.634002,226.352002 344.25,225.956 C343.865998,225.559998 343.563001,225.092003 343.341,224.552 C343.118999,224.011997 343.008,223.424003 343.008,222.788 C343.008,222.151997 343.115999,221.564003 343.332,221.024 C343.548001,220.483997 343.847998,220.016002 344.232,219.62 C344.616002,219.223998 345.065997,218.915001 345.582,218.693 C346.098003,218.470999 346.655997,218.36 347.256,218.36 C347.916003,218.36 348.497997,218.470999 349.002,218.693 C349.506003,218.915001 349.925998,219.214998 350.262,219.593 C350.598002,219.971002 350.852999,220.411997 351.027,220.916 C351.201001,221.420003 351.288,221.959997 351.288,222.536 Z M354.238,214.256 L358.036,214.256 C358.516002,214.256 359.001998,214.306999 359.494,214.409 C359.986002,214.511001 360.426998,214.684999 360.817,214.931 C361.207002,215.177001 361.524999,215.509998 361.771,215.93 C362.017001,216.350002 362.14,216.877997 362.14,217.514 C362.14,218.186003 361.936002,218.770998 361.528,219.269 C361.119998,219.767002 360.574003,220.093999 359.89,220.25 L359.89,220.286 C360.718004,220.382 361.404997,220.702997 361.951,221.249 C362.497003,221.795003 362.77,222.535995 362.77,223.472 C362.77,224.000003 362.659001,224.482998 362.437,224.921 C362.214999,225.359002 361.900002,225.730998 361.492,226.037 C361.083998,226.343002 360.586003,226.579999 359.998,226.748 C359.409997,226.916001 358.750004,227 358.018,227 L354.238,227 L354.238,214.256 Z M355.534,219.836 L358.144,219.836 C358.456002,219.836 358.770998,219.8 359.089,219.728 C359.407002,219.656 359.697999,219.533001 359.962,219.359 C360.226001,219.184999 360.438999,218.954001 360.601,218.666 C360.763001,218.377999 360.844,218.024002 360.844,217.604 C360.844,217.195998 360.763001,216.851001 360.601,216.569 C360.438999,216.286999 360.220001,216.056001 359.944,215.876 C359.667999,215.695999 359.344002,215.567 358.972,215.489 C358.599998,215.411 358.204002,215.372 357.784,215.372 L355.534,215.372 L355.534,219.836 Z M355.534,225.884 L357.946,225.884 C358.414002,225.884 358.860998,225.839 359.287,225.749 C359.713002,225.659 360.084998,225.515001 360.403,225.317 C360.721002,225.118999 360.975999,224.861002 361.168,224.543 C361.360001,224.224998 361.456,223.844002 361.456,223.4 C361.456,222.559996 361.171003,221.933002 360.601,221.519 C360.030997,221.104998 359.224005,220.898 358.18,220.898 L355.534,220.898 L355.534,225.884 Z M371.174,221.564 C371.174,220.831996 370.982002,220.286002 370.598,219.926 C370.213998,219.565998 369.656004,219.386 368.924,219.386 C368.419997,219.386 367.952002,219.475999 367.52,219.656 C367.087998,219.836001 366.722002,220.075998 366.422,220.376 L365.738,219.566 C366.086002,219.217998 366.544997,218.930001 367.115,218.702 C367.685003,218.473999 368.329996,218.36 369.05,218.36 C369.506002,218.36 369.931998,218.422999 370.328,218.549 C370.724002,218.675001 371.071999,218.863999 371.372,219.116 C371.672002,219.368001 371.905999,219.685998 372.074,220.07 C372.242001,220.454002 372.326,220.903997 372.326,221.42 L372.326,225.11 C372.326,225.434002 372.338,225.769998 372.362,226.118 C372.386,226.466002 372.422,226.759999 372.47,227 L371.372,227 C371.336,226.795999 371.306,226.574001 371.282,226.334 C371.258,226.093999 371.246,225.860001 371.246,225.632 L371.21,225.632 C370.825998,226.196003 370.391002,226.600999 369.905,226.847 C369.418998,227.093001 368.834003,227.216 368.15,227.216 C367.825998,227.216 367.493002,227.171 367.151,227.081 C366.808998,226.991 366.497001,226.844001 366.215,226.64 C365.932999,226.435999 365.699001,226.172002 365.513,225.848 C365.326999,225.523998 365.234,225.128002 365.234,224.66 C365.234,224.011997 365.398998,223.499002 365.729,223.121 C366.059002,222.742998 366.499997,222.461001 367.052,222.275 C367.604003,222.088999 368.236996,221.969 368.951,221.915 C369.665004,221.861 370.405996,221.834 371.174,221.834 L371.174,221.564 Z M370.814,222.788 C370.309997,222.788 369.803003,222.809 369.293,222.851 C368.782997,222.893 368.321002,222.976999 367.907,223.103 C367.492998,223.229001 367.154001,223.411999 366.89,223.652 C366.625999,223.892001 366.494,224.209998 366.494,224.606 C366.494,224.906002 366.550999,225.157999 366.665,225.362 C366.779001,225.566001 366.931999,225.730999 367.124,225.857 C367.316001,225.983001 367.528999,226.073 367.763,226.127 C367.997001,226.181 368.233999,226.208 368.474,226.208 C368.906002,226.208 369.289998,226.133001 369.626,225.983 C369.962002,225.832999 370.243999,225.629001 370.472,225.371 C370.700001,225.112999 370.873999,224.816002 370.994,224.48 C371.114001,224.143998 371.174,223.790002 371.174,223.418 L371.174,222.788 L370.814,222.788 Z M378.624,225.686 L378.66,225.686 L381.27,218.576 L382.602,218.576 L378.408,229.178 C378.155999,229.826003 377.835002,230.344998 377.445,230.735 C377.054998,231.125002 376.494004,231.32 375.762,231.32 C375.389998,231.32 375.024002,231.284 374.664,231.212 L374.79,230.096 C375.078001,230.192 375.377998,230.24 375.69,230.24 C376.110002,230.24 376.439999,230.111001 376.68,229.853 C376.920001,229.594999 377.129999,229.226002 377.31,228.746 L377.994,226.982 L374.394,218.576 L375.762,218.576 L378.624,225.686 Z" id="eBay" fill="#FFFFFF"></path>
                            <g id="2017-Sales-Monopoly" fill="#FFFFFF">
                                <use xlink:href="#path-5"></use>
                                <use xlink:href="#path-5"></use>
                            </g>
                        </g>
                    </g>
                </g>
            </g>
        </g>
    </g>
</svg>