<?xml version="1.0" encoding="UTF-8"?>
<svg width="431px" height="276px" viewBox="0 0 431 276" version="1.1" xmlns="http://www.w3.org/2000/svg" xmlns:xlink="http://www.w3.org/1999/xlink">
    <!-- Generator: Sketch 50.2 (55047) - http://www.bohemiancoding.com/sketch -->
    <title>Group 40</title>
    <desc>Created with Sketch.</desc>
    <defs>
        <linearGradient x1="-1.11022302e-14%" y1="50%" x2="100%" y2="50%" id="linearGradient-1">
            <stop stop-color="#FF8080" offset="0%"></stop>
            <stop stop-color="#FF4949" offset="100%"></stop>
        </linearGradient>
    </defs>
    <g id="Page-1" stroke="none" stroke-width="1" fill="none" fill-rule="evenodd">
        <g id="image" transform="translate(-160.000000, -1814.000000)">
            <g id="Group-28" transform="translate(160.000000, 1299.000000)">
                <g id="Group-40" transform="translate(0.000000, 515.000000)">
                    <g id="Bar-Chart-2" transform="translate(0.000000, 5.000000)">
                        <g id="chart-#s-and-lines">
                            <path d="M3.49830579,33.0129091 C2.79330579,33.0129091 2.31330579,33.3729091 2.02830579,33.7779091 L0.843305787,33.7779091 L0.843305787,28.3929091 L6.09330579,28.3929091 L6.09330579,29.6829091 L2.08830579,29.6829091 L2.08830579,32.3979091 C2.41830579,32.0229091 2.94330579,31.7229091 3.73830579,31.7229091 C5.65830579,31.7229091 6.52830579,33.1929091 6.52830579,35.5179091 C6.52830579,37.5579091 5.47830579,38.8629091 3.49830579,38.8629091 C1.89330579,38.8629091 0.708305787,37.7379091 0.603305787,36.3129091 L1.86330579,36.3129091 C2.05830579,37.1829091 2.65830579,37.6929091 3.49830579,37.6929091 C4.56330579,37.6929091 5.23830579,37.0779091 5.23830579,35.5179091 C5.23830579,33.8979091 4.72830579,33.0129091 3.49830579,33.0129091 Z M13.6683058,31.2579091 L13.6683058,35.8779091 C13.6683058,37.7829091 12.2583058,38.8629091 10.6983058,38.8629091 C9.13830577,38.8629091 7.72830577,37.7829091 7.72830577,35.8629091 L7.72830577,31.2729091 C7.72830577,29.3529091 9.13830577,28.2729091 10.6983058,28.2729091 C12.2583058,28.2729091 13.6683058,29.3529091 13.6683058,31.2579091 Z M12.3783058,31.2579091 C12.3783058,30.1479091 11.6283058,29.4429091 10.6983058,29.4429091 C9.75330577,29.4429091 9.00330577,30.1479091 9.00330577,31.2579091 L9.00330577,35.8779091 C9.00330577,36.9879091 9.75330577,37.6929091 10.6983058,37.6929091 C11.6283058,37.6929091 12.3783058,36.9879091 12.3783058,35.8779091 L12.3783058,31.2579091 Z M3.72330579,62.3929091 L4.99830579,62.3929091 L1.57830579,69.8929091 L4.56330579,69.8929091 L4.56330579,66.8479091 L5.85330579,66.8479091 L5.85330579,69.8929091 L6.79830579,69.8929091 L6.79830579,71.0629091 L5.85330579,71.0629091 L5.85330579,72.7429091 L4.56330579,72.7429091 L4.56330579,71.0629091 L0.0783057868,71.0629091 L0.0783057868,70.1179091 L3.72330579,62.3929091 Z M13.6683058,65.2579091 L13.6683058,69.8779091 C13.6683058,71.7829091 12.2583058,72.8629091 10.6983058,72.8629091 C9.13830577,72.8629091 7.72830577,71.7829091 7.72830577,69.8629091 L7.72830577,65.2729091 C7.72830577,63.3529091 9.13830577,62.2729091 10.6983058,62.2729091 C12.2583058,62.2729091 13.6683058,63.3529091 13.6683058,65.2579091 Z M12.3783058,65.2579091 C12.3783058,64.1479091 11.6283058,63.4429091 10.6983058,63.4429091 C9.75330577,63.4429091 9.00330577,64.1479091 9.00330577,65.2579091 L9.00330577,69.8779091 C9.00330577,70.9879091 9.75330577,71.6929091 10.6983058,71.6929091 C11.6283058,71.6929091 12.3783058,70.9879091 12.3783058,69.8779091 L12.3783058,65.2579091 Z M2.56830579,101.987909 L2.56830579,100.817909 L3.21330579,100.817909 C4.57830579,100.817909 5.16330579,100.112909 5.16330579,98.9879091 C5.16330579,98.1779091 4.50330579,97.4279091 3.48330579,97.4279091 C2.50830579,97.4279091 1.81830579,98.0729091 1.78830579,98.9129091 L0.528305787,98.9129091 C0.528305787,97.2779091 1.93830579,96.2729091 3.48330579,96.2729091 C5.20830579,96.2729091 6.45330579,97.4279091 6.45330579,99.0179091 C6.45330579,100.082909 5.85330579,100.922909 4.90830579,101.372909 C5.91330579,101.777909 6.60330579,102.602909 6.60330579,103.922909 C6.60330579,105.512909 5.41830579,106.862909 3.58830579,106.862909 C1.60830579,106.862909 0.498305787,105.707909 0.393305787,104.147909 L1.65330579,104.147909 C1.78830579,104.987909 2.35830579,105.692909 3.58830579,105.692909 C4.56330579,105.692909 5.31330579,104.942909 5.31330579,103.952909 C5.31330579,102.722909 4.59330579,101.987909 3.21330579,101.987909 L2.56830579,101.987909 Z M13.6683058,99.2579091 L13.6683058,103.877909 C13.6683058,105.782909 12.2583058,106.862909 10.6983058,106.862909 C9.13830577,106.862909 7.72830577,105.782909 7.72830577,103.862909 L7.72830577,99.2729091 C7.72830577,97.3529091 9.13830577,96.2729091 10.6983058,96.2729091 C12.2583058,96.2729091 13.6683058,97.3529091 13.6683058,99.2579091 Z M12.3783058,99.2579091 C12.3783058,98.1479091 11.6283058,97.4429091 10.6983058,97.4429091 C9.75330577,97.4429091 9.00330577,98.1479091 9.00330577,99.2579091 L9.00330577,103.877909 C9.00330577,104.987909 9.75330577,105.692909 10.6983058,105.692909 C11.6283058,105.692909 12.3783058,104.987909 12.3783058,103.877909 L12.3783058,99.2579091 Z M6.42330579,139.572909 L6.42330579,140.742909 L0.348305787,140.742909 L0.348305787,139.662909 L3.99330579,135.357909 C4.69830579,134.532909 5.16330579,133.827909 5.16330579,133.047909 C5.16330579,131.967909 4.33830579,131.427909 3.48330579,131.427909 C2.55330579,131.427909 1.81830579,131.982909 1.78830579,133.047909 L0.513305787,133.047909 C0.513305787,131.337909 1.86330579,130.272909 3.48330579,130.272909 C5.13330579,130.272909 6.45330579,131.337909 6.45330579,133.107909 C6.45330579,134.337909 5.55330579,135.327909 4.89330579,136.122909 L2.04330579,139.572909 L6.42330579,139.572909 Z M13.6683058,133.257909 L13.6683058,137.877909 C13.6683058,139.782909 12.2583058,140.862909 10.6983058,140.862909 C9.13830577,140.862909 7.72830577,139.782909 7.72830577,137.862909 L7.72830577,133.272909 C7.72830577,131.352909 9.13830577,130.272909 10.6983058,130.272909 C12.2583058,130.272909 13.6683058,131.352909 13.6683058,133.257909 Z M12.3783058,133.257909 C12.3783058,132.147909 11.6283058,131.442909 10.6983058,131.442909 C9.75330577,131.442909 9.00330577,132.147909 9.00330577,133.257909 L9.00330577,137.877909 C9.00330577,138.987909 9.75330577,139.692909 10.6983058,139.692909 C11.6283058,139.692909 12.3783058,138.987909 12.3783058,137.877909 L12.3783058,133.257909 Z M4.41330579,164.392909 L4.41330579,174.742909 L3.12330579,174.742909 L3.12330579,165.877909 L1.63830579,166.942909 L1.63830579,165.532909 L3.12330579,164.392909 L4.41330579,164.392909 Z M13.6683058,167.257909 L13.6683058,171.877909 C13.6683058,173.782909 12.2583058,174.862909 10.6983058,174.862909 C9.13830577,174.862909 7.72830577,173.782909 7.72830577,171.862909 L7.72830577,167.272909 C7.72830577,165.352909 9.13830577,164.272909 10.6983058,164.272909 C12.2583058,164.272909 13.6683058,165.352909 13.6683058,167.257909 Z M12.3783058,167.257909 C12.3783058,166.147909 11.6283058,165.442909 10.6983058,165.442909 C9.75330577,165.442909 9.00330577,166.147909 9.00330577,167.257909 L9.00330577,171.877909 C9.00330577,172.987909 9.75330577,173.692909 10.6983058,173.692909 C11.6283058,173.692909 12.3783058,172.987909 12.3783058,171.877909 L12.3783058,167.257909 Z M13.6683058,201.257909 L13.6683058,205.877909 C13.6683058,207.782909 12.2583058,208.862909 10.6983058,208.862909 C9.13830577,208.862909 7.72830577,207.782909 7.72830577,205.862909 L7.72830577,201.272909 C7.72830577,199.352909 9.13830577,198.272909 10.6983058,198.272909 C12.2583058,198.272909 13.6683058,199.352909 13.6683058,201.257909 Z M12.3783058,201.257909 C12.3783058,200.147909 11.6283058,199.442909 10.6983058,199.442909 C9.75330577,199.442909 9.00330577,200.147909 9.00330577,201.257909 L9.00330577,205.877909 C9.00330577,206.987909 9.75330577,207.692909 10.6983058,207.692909 C11.6283058,207.692909 12.3783058,206.987909 12.3783058,205.877909 L12.3783058,201.257909 Z" id="50-40-30-20-10-0" fill="#FFFFFF"></path>
                            <path d="M28.8577863,97.7610293 L430.226559,97.7610293" id="Line-Copy-4" stroke="#DEDEDE" opacity="0.0768229167"></path>
                            <path d="M28.9047968,1.76051372 L430.273569,1.76051372" id="Line-Copy-2" stroke="#DEDEDE" opacity="0.0768229167"></path>
                            <path d="M28.8577863,192.213149 L430.226559,192.213149" id="Line-Copy-5" stroke="#DEDEDE" opacity="0.0768229167"></path>
                            <path d="M28.8577863,144.212892 L430.226559,144.212892" id="Line-Copy-6" stroke="#DEDEDE" opacity="0.0768229167"></path>
                            <path d="M28.8577863,49.7607715 L430.226559,49.7607715" id="Line-Copy-3" stroke="#DEDEDE" opacity="0.0768229167"></path>
                            <path d="M28.8577863,240.213407 L430.226559,240.213407" id="Line-Copy-7" stroke="#DEDEDE" opacity="0.229902627"></path>
                        </g>
                        <path d="M62.1713371,267.403971 L61.1793371,267.403971 L64.9553371,256.363971 L65.8193371,256.363971 L69.5953371,267.403971 L68.6193371,267.403971 L67.7073371,264.715971 L63.0673371,264.715971 L62.1713371,267.403971 Z M65.3873371,257.851971 L63.3553371,263.851971 L67.4193371,263.851971 L65.3873371,257.851971 Z M71.2802601,264.971971 L71.2802601,256.363971 L72.1602601,256.363971 L72.1602601,264.747971 C72.1602601,265.867971 72.2882601,266.603971 73.6802601,266.603971 L73.6802601,267.435971 C71.8402601,267.435971 71.2802601,266.635971 71.2802601,264.971971 Z M76.1651832,267.403971 L76.1651832,259.403971 L77.0451832,259.403971 L77.0451832,267.403971 L76.1651832,267.403971 Z M76.0691832,257.435971 L76.0691832,256.363971 L77.1411832,256.363971 L77.1411832,257.435971 L76.0691832,257.435971 Z M80.2021063,256.363971 L86.6981063,256.363971 L86.6981063,257.227971 L81.1301063,257.227971 L81.1301063,261.259971 L86.2181063,261.259971 L86.2181063,262.123971 L81.1301063,262.123971 L81.1301063,266.539971 L86.6981063,266.539971 L86.6981063,267.403971 L80.2021063,267.403971 L80.2021063,256.363971 Z M94.7190294,267.403971 L93.6630294,267.403971 L91.3430294,264.075971 L89.0070294,267.403971 L87.9670294,267.403971 L90.8310294,263.307971 L88.2070294,259.403971 L89.2470294,259.403971 L91.3430294,262.555971 L93.4230294,259.403971 L94.4790294,259.403971 L91.8550294,263.307971 L94.7190294,267.403971 Z M102.851952,262.811971 L102.851952,263.963971 C102.851952,266.155971 101.811952,267.499971 99.7319524,267.499971 C98.5159524,267.499971 97.7639524,267.163971 97.3159524,266.459971 L97.3159524,270.443971 L96.4359524,270.443971 L96.4359524,259.403971 L97.3159524,259.403971 L97.3159524,260.411971 C97.7639524,259.691971 98.5159524,259.307971 99.7319524,259.307971 C101.715952,259.307971 102.851952,260.539971 102.851952,262.811971 Z M99.6679524,266.683971 C101.203952,266.683971 101.971952,265.643971 101.971952,263.963971 L101.971952,262.811971 C101.971952,261.067971 101.187952,260.123971 99.6679524,260.123971 C97.9719524,260.123971 97.3159524,261.147971 97.3159524,262.715971 L97.3159524,264.107971 C97.3319524,265.611971 97.9079524,266.683971 99.6679524,266.683971 Z M107.864876,260.139971 C106.616876,260.139971 105.928876,261.131971 105.928876,262.587971 L105.928876,267.403971 L105.048876,267.403971 L105.048876,259.403971 L105.928876,259.403971 L105.928876,260.491971 C106.264876,259.755971 106.936876,259.307971 107.944876,259.307971 C108.984876,259.307971 109.672876,259.707971 110.200876,260.411971 L109.464876,260.955971 C109.048876,260.411971 108.568876,260.139971 107.864876,260.139971 Z M117.309799,263.627971 L112.013799,263.627971 L112.013799,263.963971 C112.013799,265.547971 112.749799,266.683971 114.445799,266.683971 C115.421799,266.683971 116.077799,266.395971 116.525799,265.707971 L117.229799,266.203971 C116.669799,267.083971 115.789799,267.499971 114.493799,267.499971 C112.365799,267.499971 111.133799,266.187971 111.133799,263.963971 L111.133799,262.811971 C111.133799,260.539971 112.221799,259.307971 114.221799,259.307971 C116.221799,259.307971 117.309799,260.539971 117.309799,262.811971 L117.309799,263.627971 Z M112.013799,262.811971 L112.013799,262.827971 L116.429799,262.827971 L116.429799,262.811971 C116.429799,261.067971 115.677799,260.123971 114.221799,260.123971 C112.765799,260.123971 112.013799,261.083971 112.013799,262.811971 Z M124.882722,260.635971 L124.210722,261.115971 C123.714722,260.411971 123.202722,260.139971 122.034722,260.139971 C120.962722,260.139971 120.146722,260.539971 120.146722,261.451971 C120.146722,262.571971 121.154722,262.795971 122.274722,262.939971 C123.826722,263.147971 125.122722,263.595971 125.122722,265.291971 C125.122722,266.539971 124.322722,267.499971 122.194722,267.499971 C120.610722,267.499971 119.778722,267.003971 119.186722,266.171971 L119.874722,265.691971 C120.354722,266.363971 120.962722,266.667971 122.210722,266.667971 C123.458722,266.667971 124.242722,266.267971 124.242722,265.307971 C124.242722,264.283971 123.442722,263.931971 121.858722,263.723971 C120.498722,263.547971 119.266722,263.083971 119.266722,261.467971 C119.266722,260.171971 120.242722,259.307971 122.050722,259.307971 C123.314722,259.307971 124.274722,259.643971 124.882722,260.635971 Z M132.535645,260.635971 L131.863645,261.115971 C131.367645,260.411971 130.855645,260.139971 129.687645,260.139971 C128.615645,260.139971 127.799645,260.539971 127.799645,261.451971 C127.799645,262.571971 128.807645,262.795971 129.927645,262.939971 C131.479645,263.147971 132.775645,263.595971 132.775645,265.291971 C132.775645,266.539971 131.975645,267.499971 129.847645,267.499971 C128.263645,267.499971 127.431645,267.003971 126.839645,266.171971 L127.527645,265.691971 C128.007645,266.363971 128.615645,266.667971 129.863645,266.667971 C131.111645,266.667971 131.895645,266.267971 131.895645,265.307971 C131.895645,264.283971 131.095645,263.931971 129.511645,263.723971 C128.151645,263.547971 126.919645,263.083971 126.919645,261.467971 C126.919645,260.171971 127.895645,259.307971 129.703645,259.307971 C130.967645,259.307971 131.927645,259.643971 132.535645,260.635971 Z M184.365799,263.627971 L179.069799,263.627971 L179.069799,263.963971 C179.069799,265.547971 179.805799,266.683971 181.501799,266.683971 C182.477799,266.683971 183.133799,266.395971 183.581799,265.707971 L184.285799,266.203971 C183.725799,267.083971 182.845799,267.499971 181.549799,267.499971 C179.421799,267.499971 178.189799,266.187971 178.189799,263.963971 L178.189799,262.811971 C178.189799,260.539971 179.277799,259.307971 181.277799,259.307971 C183.277799,259.307971 184.365799,260.539971 184.365799,262.811971 L184.365799,263.627971 Z M179.069799,262.811971 L179.069799,262.827971 L183.485799,262.827971 L183.485799,262.811971 C183.485799,261.067971 182.733799,260.123971 181.277799,260.123971 C179.821799,260.123971 179.069799,261.083971 179.069799,262.811971 Z M187.010722,256.363971 L190.274722,256.363971 C192.802722,256.363971 194.034722,257.339971 194.034722,259.163971 C194.034722,260.395971 193.202722,261.387971 192.130722,261.643971 C193.522722,261.947971 194.386722,262.875971 194.386722,264.331971 C194.386722,265.835971 193.410722,267.403971 190.658722,267.403971 L187.010722,267.403971 L187.010722,256.363971 Z M187.938722,262.107971 L187.938722,266.539971 L190.658722,266.539971 C192.562722,266.539971 193.458722,265.627971 193.458722,264.331971 C193.458722,262.843971 192.450722,262.107971 190.354722,262.107971 L187.938722,262.107971 Z M187.938722,257.227971 L187.938722,261.243971 L190.562722,261.243971 C192.354722,261.243971 193.106722,260.299971 193.106722,259.163971 C193.106722,258.043971 192.530722,257.227971 190.274722,257.227971 L187.938722,257.227971 Z M196.183645,265.115971 C196.183645,263.579971 197.255645,262.859971 198.903645,262.859971 L201.239645,262.859971 L201.239645,261.867971 C201.239645,260.507971 200.695645,260.139971 199.223645,260.139971 C198.263645,260.139971 197.639645,260.203971 197.127645,261.051971 L196.455645,260.587971 C197.015645,259.643971 197.815645,259.307971 199.239645,259.307971 C201.191645,259.307971 202.119645,259.915971 202.119645,261.867971 L202.119645,267.403971 L201.239645,267.403971 L201.239645,266.411971 C200.791645,267.259971 199.991645,267.499971 198.967645,267.499971 C197.191645,267.499971 196.183645,266.651971 196.183645,265.115971 Z M201.239645,264.427971 L201.239645,263.643971 L198.903645,263.643971 C197.527645,263.643971 197.063645,264.283971 197.063645,265.131971 C197.063645,266.251971 197.847645,266.667971 198.967645,266.667971 C200.263645,266.667971 201.239645,266.219971 201.239645,264.427971 Z M204.684568,270.443971 L204.684568,269.579971 C205.932568,269.579971 206.332568,269.163971 206.876568,267.627971 L206.908568,267.531971 L203.628568,259.403971 L204.588568,259.403971 L207.356568,266.251971 L209.724568,259.403971 L210.652568,259.403971 L207.756568,267.723971 C207.100568,269.643971 206.588568,270.443971 204.684568,270.443971 Z M263.660568,256.363971 L264.620568,256.363971 L266.844568,265.675971 L269.564568,256.363971 L270.508568,256.363971 L273.292568,265.531971 L275.484568,256.363971 L276.444568,256.363971 L273.740568,267.403971 L272.748568,267.403971 L270.044568,258.027971 L267.340568,267.403971 L266.364568,267.403971 L263.660568,256.363971 Z M277.409491,265.115971 C277.409491,263.579971 278.481491,262.859971 280.129491,262.859971 L282.465491,262.859971 L282.465491,261.867971 C282.465491,260.507971 281.921491,260.139971 280.449491,260.139971 C279.489491,260.139971 278.865491,260.203971 278.353491,261.051971 L277.681491,260.587971 C278.241491,259.643971 279.041491,259.307971 280.465491,259.307971 C282.417491,259.307971 283.345491,259.915971 283.345491,261.867971 L283.345491,267.403971 L282.465491,267.403971 L282.465491,266.411971 C282.017491,267.259971 281.217491,267.499971 280.193491,267.499971 C278.417491,267.499971 277.409491,266.651971 277.409491,265.115971 Z M282.465491,264.427971 L282.465491,263.643971 L280.129491,263.643971 C278.753491,263.643971 278.289491,264.283971 278.289491,265.131971 C278.289491,266.251971 279.073491,266.667971 280.193491,266.667971 C281.489491,266.667971 282.465491,266.219971 282.465491,264.427971 Z M285.942414,264.971971 L285.942414,256.363971 L286.822414,256.363971 L286.822414,264.747971 C286.822414,265.867971 286.950414,266.603971 288.342414,266.603971 L288.342414,267.435971 C286.502414,267.435971 285.942414,266.635971 285.942414,264.971971 Z M290.587337,267.403971 L290.587337,259.403971 L291.467337,259.403971 L291.467337,260.491971 C291.803337,259.755971 292.523337,259.307971 293.579337,259.307971 C294.715337,259.307971 295.547337,259.851971 295.963337,260.875971 C296.411337,259.867971 297.291337,259.307971 298.395337,259.307971 C300.075337,259.307971 301.099337,260.491971 301.099337,262.667971 L301.099337,267.403971 L300.219337,267.403971 L300.219337,262.683971 C300.219337,260.939971 299.451337,260.139971 298.299337,260.139971 C297.019337,260.139971 296.283337,261.083971 296.283337,262.491971 L296.283337,267.403971 L295.403337,267.403971 L295.403337,262.683971 C295.403337,260.939971 294.635337,260.139971 293.483337,260.139971 C292.171337,260.139971 291.467337,261.131971 291.467337,262.603971 L291.467337,267.403971 L290.587337,267.403971 Z M303.29626,265.115971 C303.29626,263.579971 304.36826,262.859971 306.01626,262.859971 L308.35226,262.859971 L308.35226,261.867971 C308.35226,260.507971 307.80826,260.139971 306.33626,260.139971 C305.37626,260.139971 304.75226,260.203971 304.24026,261.051971 L303.56826,260.587971 C304.12826,259.643971 304.92826,259.307971 306.35226,259.307971 C308.30426,259.307971 309.23226,259.915971 309.23226,261.867971 L309.23226,267.403971 L308.35226,267.403971 L308.35226,266.411971 C307.90426,267.259971 307.10426,267.499971 306.08026,267.499971 C304.30426,267.499971 303.29626,266.651971 303.29626,265.115971 Z M308.35226,264.427971 L308.35226,263.643971 L306.01626,263.643971 C304.64026,263.643971 304.17626,264.283971 304.17626,265.131971 C304.17626,266.251971 304.96026,266.667971 306.08026,266.667971 C307.37626,266.667971 308.35226,266.219971 308.35226,264.427971 Z M314.645183,260.139971 C313.397183,260.139971 312.709183,261.131971 312.709183,262.587971 L312.709183,267.403971 L311.829183,267.403971 L311.829183,259.403971 L312.709183,259.403971 L312.709183,260.491971 C313.045183,259.755971 313.717183,259.307971 314.725183,259.307971 C315.765183,259.307971 316.453183,259.707971 316.981183,260.411971 L316.245183,260.955971 C315.829183,260.411971 315.349183,260.139971 314.645183,260.139971 Z M317.674106,260.219971 L317.674106,259.403971 L318.698106,259.403971 L318.698106,257.643971 L319.578106,257.643971 L319.578106,259.403971 L321.546106,259.403971 L321.546106,260.219971 L319.578106,260.219971 L319.578106,264.699971 C319.578106,265.979971 319.722106,266.555971 321.018106,266.555971 L321.546106,266.555971 L321.546106,267.403971 L320.986106,267.403971 C319.210106,267.403971 318.698106,266.603971 318.698106,264.939971 L318.698106,260.219971 L317.674106,260.219971 Z M358.582414,267.403971 L357.590414,267.403971 L361.366414,256.363971 L362.230414,256.363971 L366.006414,267.403971 L365.030414,267.403971 L364.118414,264.715971 L359.478414,264.715971 L358.582414,267.403971 Z M361.798414,257.851971 L359.766414,263.851971 L363.830414,263.851971 L361.798414,257.851971 Z M367.691337,267.403971 L367.691337,259.403971 L368.571337,259.403971 L368.571337,260.491971 C368.907337,259.755971 369.627337,259.307971 370.683337,259.307971 C371.819337,259.307971 372.651337,259.851971 373.067337,260.875971 C373.515337,259.867971 374.395337,259.307971 375.499337,259.307971 C377.179337,259.307971 378.203337,260.491971 378.203337,262.667971 L378.203337,267.403971 L377.323337,267.403971 L377.323337,262.683971 C377.323337,260.939971 376.555337,260.139971 375.403337,260.139971 C374.123337,260.139971 373.387337,261.083971 373.387337,262.491971 L373.387337,267.403971 L372.507337,267.403971 L372.507337,262.683971 C372.507337,260.939971 371.739337,260.139971 370.587337,260.139971 C369.275337,260.139971 368.571337,261.131971 368.571337,262.603971 L368.571337,267.403971 L367.691337,267.403971 Z M380.40026,265.115971 C380.40026,263.579971 381.47226,262.859971 383.12026,262.859971 L385.45626,262.859971 L385.45626,261.867971 C385.45626,260.507971 384.91226,260.139971 383.44026,260.139971 C382.48026,260.139971 381.85626,260.203971 381.34426,261.051971 L380.67226,260.587971 C381.23226,259.643971 382.03226,259.307971 383.45626,259.307971 C385.40826,259.307971 386.33626,259.915971 386.33626,261.867971 L386.33626,267.403971 L385.45626,267.403971 L385.45626,266.411971 C385.00826,267.259971 384.20826,267.499971 383.18426,267.499971 C381.40826,267.499971 380.40026,266.651971 380.40026,265.115971 Z M385.45626,264.427971 L385.45626,263.643971 L383.12026,263.643971 C381.74426,263.643971 381.28026,264.283971 381.28026,265.131971 C381.28026,266.251971 382.06426,266.667971 383.18426,266.667971 C384.48026,266.667971 385.45626,266.219971 385.45626,264.427971 Z M388.533183,266.715971 L393.125183,260.219971 L388.533183,260.219971 L388.533183,259.403971 L394.277183,259.403971 L394.277183,260.091971 L389.717183,266.587971 L394.277183,266.587971 L394.277183,267.403971 L388.533183,267.403971 L388.533183,266.715971 Z M402.378106,263.979971 C402.378106,266.155971 401.274106,267.499971 399.130106,267.499971 C397.066106,267.499971 395.882106,266.219971 395.882106,263.979971 L395.882106,262.811971 C395.882106,260.539971 397.082106,259.307971 399.130106,259.307971 C401.178106,259.307971 402.378106,260.539971 402.378106,262.811971 L402.378106,263.979971 Z M401.498106,263.979971 L401.498106,262.811971 C401.498106,261.067971 400.650106,260.123971 399.130106,260.123971 C397.594106,260.123971 396.762106,261.067971 396.762106,262.811971 L396.762106,263.979971 C396.762106,265.659971 397.514106,266.683971 399.130106,266.683971 C400.682106,266.683971 401.498106,265.659971 401.498106,263.979971 Z M404.575029,267.403971 L404.575029,259.403971 L405.455029,259.403971 L405.455029,260.491971 C405.871029,259.723971 406.607029,259.307971 407.807029,259.307971 C409.583029,259.307971 410.751029,260.411971 410.751029,262.667971 L410.751029,267.403971 L409.871029,267.403971 L409.871029,262.683971 C409.871029,260.859971 408.959029,260.139971 407.711029,260.139971 C406.207029,260.139971 405.455029,261.131971 405.455029,262.603971 L405.455029,267.403971 L404.575029,267.403971 Z" id="AliExpress-eBay-Walm" fill="#FFFFFF"></path>
                        <g id="bars" transform="translate(80.285787, 20.351082)" fill="url(#linearGradient-1)">
                            <rect id="Rectangle-6" transform="translate(16.578367, 202.561176) rotate(-270.000000) translate(-16.578367, -202.561176) " x="0.243556085" y="186.706176" width="32.6696217" height="31.7099991"></rect>
                            <rect id="Rectangle-6" transform="translate(111.818768, 182.820977) rotate(-270.000000) translate(-111.818768, -182.820977) " x="76.2187485" y="166.465977" width="71.2000398" height="32.7099991"></rect>
                            <rect id="Rectangle-6" transform="translate(208.069213, 169.675410) rotate(-270.000000) translate(-208.069213, -169.675410) " x="158.042721" y="153.320411" width="100.052984" height="32.7099991"></rect>
                            <rect id="Rectangle-6" transform="translate(303.041146, 110.201036) rotate(-270.000000) translate(-303.041146, -110.201036) " x="193.541898" y="94.621036" width="218.998497" height="31.1599998"></rect>
                        </g>
                    </g>
                    <g id="Group-18" transform="translate(66.000000, 0.000000)" fill="#FFFFFF">
                        <path d="M284.695,12.102 C282.145,12.102 280.53,10.657 280.53,7.206 L280.53,0.27 L281.516,0.27 L281.516,7.206 C281.516,9.926 282.638,11.184 284.695,11.184 C286.752,11.184 287.874,9.926 287.874,7.206 L287.874,0.27 L288.86,0.27 L288.86,7.206 C288.86,10.657 287.245,12.102 284.695,12.102 Z M297.9295,7.121 L297.9295,8.345 C297.9295,10.674 296.8245,12.102 294.6145,12.102 C293.3225,12.102 292.5235,11.745 292.0475,10.997 L292.0475,15.23 L291.1125,15.23 L291.1125,3.5 L292.0475,3.5 L292.0475,4.571 C292.5235,3.806 293.3225,3.398 294.6145,3.398 C296.7225,3.398 297.9295,4.707 297.9295,7.121 Z M294.5465,11.235 C296.1785,11.235 296.9945,10.13 296.9945,8.345 L296.9945,7.121 C296.9945,5.268 296.1615,4.265 294.5465,4.265 C292.7445,4.265 292.0475,5.353 292.0475,7.019 L292.0475,8.498 C292.0645,10.096 292.6765,11.235 294.5465,11.235 Z M302.4515,4.367 L302.4515,3.5 L303.5395,3.5 L303.5395,1.63 L304.4745,1.63 L304.4745,3.5 L306.5655,3.5 L306.5655,4.367 L304.4745,4.367 L304.4745,9.127 C304.4745,10.487 304.6275,11.099 306.0045,11.099 L306.5655,11.099 L306.5655,12 L305.9705,12 C304.0835,12 303.5395,11.15 303.5395,9.382 L303.5395,4.367 L302.4515,4.367 Z M314.36,8.362 C314.36,10.674 313.187,12.102 310.909,12.102 C308.716,12.102 307.458,10.742 307.458,8.362 L307.458,7.121 C307.458,4.707 308.733,3.398 310.909,3.398 C313.085,3.398 314.36,4.707 314.36,7.121 L314.36,8.362 Z M313.425,8.362 L313.425,7.121 C313.425,5.268 312.524,4.265 310.909,4.265 C309.277,4.265 308.393,5.268 308.393,7.121 L308.393,8.362 C308.393,10.147 309.192,11.235 310.909,11.235 C312.558,11.235 313.425,10.147 313.425,8.362 Z M323.115,0.27 L324.118,0.27 L320.072,8.974 L324.169,8.974 L324.169,5.319 L325.155,5.319 L325.155,8.974 L326.328,8.974 L326.328,9.892 L325.155,9.892 L325.155,12 L324.169,12 L324.169,9.892 L318.916,9.892 L318.916,9.161 L323.115,0.27 Z M330.4335,5.03 C329.4305,5.03 328.7845,5.659 328.3935,6.373 L327.5095,6.373 L327.5095,0.27 L333.2895,0.27 L333.2895,1.256 L328.4615,1.256 L328.4615,5.064 C328.8865,4.486 329.6005,4.044 330.5865,4.044 C332.8305,4.044 333.7825,5.693 333.7825,8.328 C333.7825,10.64 332.6095,12.102 330.4335,12.102 C328.6655,12.102 327.3565,10.827 327.2375,9.212 L328.2065,9.212 C328.3765,10.419 329.2945,11.184 330.4335,11.184 C331.8785,11.184 332.7965,10.402 332.7965,8.328 C332.7965,6.186 332.0995,5.03 330.4335,5.03 Z M342.937,0.27 L343.94,0.27 L337.395,12 L336.375,12 L342.937,0.27 Z M336.919,5.421 C338.041,5.421 338.5,4.622 338.5,3.602 L338.5,2.718 C338.5,1.545 337.922,0.933 336.919,0.933 C335.933,0.933 335.355,1.545 335.355,2.718 L335.355,3.602 C335.355,4.622 335.763,5.421 336.919,5.421 Z M336.919,6.186 C335.406,6.186 334.556,5.251 334.556,3.602 L334.556,2.701 C334.556,1.052 335.44,0.151 336.919,0.151 C338.415,0.151 339.282,1.052 339.282,2.701 L339.282,3.602 C339.282,5.2 338.517,6.186 336.919,6.186 Z M343.583,11.337 C344.705,11.337 345.164,10.538 345.164,9.518 L345.164,8.634 C345.164,7.461 344.586,6.849 343.583,6.849 C342.597,6.849 342.019,7.461 342.019,8.634 L342.019,9.518 C342.019,10.538 342.427,11.337 343.583,11.337 Z M343.583,12.102 C342.07,12.102 341.22,11.167 341.22,9.518 L341.22,8.617 C341.22,6.968 342.104,6.067 343.583,6.067 C345.079,6.067 345.946,6.968 345.946,8.617 L345.946,9.518 C345.946,11.116 345.181,12.102 343.583,12.102 Z" id="Up-to-45%"></path>
                        <path d="M193.695,128.102 C191.145,128.102 189.53,126.657 189.53,123.206 L189.53,116.27 L190.516,116.27 L190.516,123.206 C190.516,125.926 191.638,127.184 193.695,127.184 C195.752,127.184 196.874,125.926 196.874,123.206 L196.874,116.27 L197.86,116.27 L197.86,123.206 C197.86,126.657 196.245,128.102 193.695,128.102 Z M206.9295,123.121 L206.9295,124.345 C206.9295,126.674 205.8245,128.102 203.6145,128.102 C202.3225,128.102 201.5235,127.745 201.0475,126.997 L201.0475,131.23 L200.1125,131.23 L200.1125,119.5 L201.0475,119.5 L201.0475,120.571 C201.5235,119.806 202.3225,119.398 203.6145,119.398 C205.7225,119.398 206.9295,120.707 206.9295,123.121 Z M203.5465,127.235 C205.1785,127.235 205.9945,126.13 205.9945,124.345 L205.9945,123.121 C205.9945,121.268 205.1615,120.265 203.5465,120.265 C201.7445,120.265 201.0475,121.353 201.0475,123.019 L201.0475,124.498 C201.0645,126.096 201.6765,127.235 203.5465,127.235 Z M211.4515,120.367 L211.4515,119.5 L212.5395,119.5 L212.5395,117.63 L213.4745,117.63 L213.4745,119.5 L215.5655,119.5 L215.5655,120.367 L213.4745,120.367 L213.4745,125.127 C213.4745,126.487 213.6275,127.099 215.0045,127.099 L215.5655,127.099 L215.5655,128 L214.9705,128 C213.0835,128 212.5395,127.15 212.5395,125.382 L212.5395,120.367 L211.4515,120.367 Z M223.36,124.362 C223.36,126.674 222.187,128.102 219.909,128.102 C217.716,128.102 216.458,126.742 216.458,124.362 L216.458,123.121 C216.458,120.707 217.733,119.398 219.909,119.398 C222.085,119.398 223.36,120.707 223.36,123.121 L223.36,124.362 Z M222.425,124.362 L222.425,123.121 C222.425,121.268 221.524,120.265 219.909,120.265 C218.277,120.265 217.393,121.268 217.393,123.121 L217.393,124.362 C217.393,126.147 218.192,127.235 219.909,127.235 C221.558,127.235 222.425,126.147 222.425,124.362 Z M234.937,127.082 L234.937,128 L228.222,128 L228.222,127.184 L232.438,122.22 C233.458,121.013 233.985,120.197 233.985,119.313 C233.985,117.834 232.846,117.086 231.69,117.086 C230.432,117.086 229.429,117.851 229.378,119.313 L228.409,119.313 C228.409,117.375 229.888,116.168 231.69,116.168 C233.509,116.168 234.971,117.375 234.971,119.381 C234.971,120.724 233.883,121.897 232.982,122.985 L229.548,127.082 L234.937,127.082 Z M242.7485,119.551 L242.7485,124.719 C242.7485,126.878 241.2355,128.102 239.4675,128.102 C237.6995,128.102 236.1865,126.878 236.1865,124.702 L236.1865,119.568 C236.1865,117.392 237.6995,116.168 239.4675,116.168 C241.2355,116.168 242.7485,117.392 242.7485,119.551 Z M241.7625,119.551 C241.7625,118.021 240.7595,117.086 239.4675,117.086 C238.1585,117.086 237.1555,118.021 237.1555,119.551 L237.1555,124.719 C237.1555,126.249 238.1585,127.184 239.4675,127.184 C240.7595,127.184 241.7625,126.249 241.7625,124.719 L241.7625,119.551 Z M251.937,116.27 L252.94,116.27 L246.395,128 L245.375,128 L251.937,116.27 Z M245.919,121.421 C247.041,121.421 247.5,120.622 247.5,119.602 L247.5,118.718 C247.5,117.545 246.922,116.933 245.919,116.933 C244.933,116.933 244.355,117.545 244.355,118.718 L244.355,119.602 C244.355,120.622 244.763,121.421 245.919,121.421 Z M245.919,122.186 C244.406,122.186 243.556,121.251 243.556,119.602 L243.556,118.701 C243.556,117.052 244.44,116.151 245.919,116.151 C247.415,116.151 248.282,117.052 248.282,118.701 L248.282,119.602 C248.282,121.2 247.517,122.186 245.919,122.186 Z M252.583,127.337 C253.705,127.337 254.164,126.538 254.164,125.518 L254.164,124.634 C254.164,123.461 253.586,122.849 252.583,122.849 C251.597,122.849 251.019,123.461 251.019,124.634 L251.019,125.518 C251.019,126.538 251.427,127.337 252.583,127.337 Z M252.583,128.102 C251.07,128.102 250.22,127.167 250.22,125.518 L250.22,124.617 C250.22,122.968 251.104,122.067 252.583,122.067 C254.079,122.067 254.946,122.968 254.946,124.617 L254.946,125.518 C254.946,127.116 254.181,128.102 252.583,128.102 Z" id="Up-to-20%"></path>
                        <path d="M95.695,152.102 C93.145,152.102 91.53,150.657 91.53,147.206 L91.53,140.27 L92.516,140.27 L92.516,147.206 C92.516,149.926 93.638,151.184 95.695,151.184 C97.752,151.184 98.874,149.926 98.874,147.206 L98.874,140.27 L99.86,140.27 L99.86,147.206 C99.86,150.657 98.245,152.102 95.695,152.102 Z M108.9295,147.121 L108.9295,148.345 C108.9295,150.674 107.8245,152.102 105.6145,152.102 C104.3225,152.102 103.5235,151.745 103.0475,150.997 L103.0475,155.23 L102.1125,155.23 L102.1125,143.5 L103.0475,143.5 L103.0475,144.571 C103.5235,143.806 104.3225,143.398 105.6145,143.398 C107.7225,143.398 108.9295,144.707 108.9295,147.121 Z M105.5465,151.235 C107.1785,151.235 107.9945,150.13 107.9945,148.345 L107.9945,147.121 C107.9945,145.268 107.1615,144.265 105.5465,144.265 C103.7445,144.265 103.0475,145.353 103.0475,147.019 L103.0475,148.498 C103.0645,150.096 103.6765,151.235 105.5465,151.235 Z M113.4515,144.367 L113.4515,143.5 L114.5395,143.5 L114.5395,141.63 L115.4745,141.63 L115.4745,143.5 L117.5655,143.5 L117.5655,144.367 L115.4745,144.367 L115.4745,149.127 C115.4745,150.487 115.6275,151.099 117.0045,151.099 L117.5655,151.099 L117.5655,152 L116.9705,152 C115.0835,152 114.5395,151.15 114.5395,149.382 L114.5395,144.367 L113.4515,144.367 Z M125.36,148.362 C125.36,150.674 124.187,152.102 121.909,152.102 C119.716,152.102 118.458,150.742 118.458,148.362 L118.458,147.121 C118.458,144.707 119.733,143.398 121.909,143.398 C124.085,143.398 125.36,144.707 125.36,147.121 L125.36,148.362 Z M124.425,148.362 L124.425,147.121 C124.425,145.268 123.524,144.265 121.909,144.265 C120.277,144.265 119.393,145.268 119.393,147.121 L119.393,148.362 C119.393,150.147 120.192,151.235 121.909,151.235 C123.558,151.235 124.425,150.147 124.425,148.362 Z M134.387,140.27 L134.387,152 L133.401,152 L133.401,141.46 L131.718,142.667 L131.718,141.562 L133.401,140.27 L134.387,140.27 Z M141.4335,145.03 C140.4305,145.03 139.7845,145.659 139.3935,146.373 L138.5095,146.373 L138.5095,140.27 L144.2895,140.27 L144.2895,141.256 L139.4615,141.256 L139.4615,145.064 C139.8865,144.486 140.6005,144.044 141.5865,144.044 C143.8305,144.044 144.7825,145.693 144.7825,148.328 C144.7825,150.64 143.6095,152.102 141.4335,152.102 C139.6655,152.102 138.3565,150.827 138.2375,149.212 L139.2065,149.212 C139.3765,150.419 140.2945,151.184 141.4335,151.184 C142.8785,151.184 143.7965,150.402 143.7965,148.328 C143.7965,146.186 143.0995,145.03 141.4335,145.03 Z M153.937,140.27 L154.94,140.27 L148.395,152 L147.375,152 L153.937,140.27 Z M147.919,145.421 C149.041,145.421 149.5,144.622 149.5,143.602 L149.5,142.718 C149.5,141.545 148.922,140.933 147.919,140.933 C146.933,140.933 146.355,141.545 146.355,142.718 L146.355,143.602 C146.355,144.622 146.763,145.421 147.919,145.421 Z M147.919,146.186 C146.406,146.186 145.556,145.251 145.556,143.602 L145.556,142.701 C145.556,141.052 146.44,140.151 147.919,140.151 C149.415,140.151 150.282,141.052 150.282,142.701 L150.282,143.602 C150.282,145.2 149.517,146.186 147.919,146.186 Z M154.583,151.337 C155.705,151.337 156.164,150.538 156.164,149.518 L156.164,148.634 C156.164,147.461 155.586,146.849 154.583,146.849 C153.597,146.849 153.019,147.461 153.019,148.634 L153.019,149.518 C153.019,150.538 153.427,151.337 154.583,151.337 Z M154.583,152.102 C153.07,152.102 152.22,151.167 152.22,149.518 L152.22,148.617 C152.22,146.968 153.104,146.067 154.583,146.067 C156.079,146.067 156.946,146.968 156.946,148.617 L156.946,149.518 C156.946,151.116 156.181,152.102 154.583,152.102 Z" id="Up-to-15%"></path>
                        <path d="M4.695,193.102 C2.145,193.102 0.53,191.657 0.53,188.206 L0.53,181.27 L1.516,181.27 L1.516,188.206 C1.516,190.926 2.638,192.184 4.695,192.184 C6.752,192.184 7.874,190.926 7.874,188.206 L7.874,181.27 L8.86,181.27 L8.86,188.206 C8.86,191.657 7.245,193.102 4.695,193.102 Z M17.9295,188.121 L17.9295,189.345 C17.9295,191.674 16.8245,193.102 14.6145,193.102 C13.3225,193.102 12.5235,192.745 12.0475,191.997 L12.0475,196.23 L11.1125,196.23 L11.1125,184.5 L12.0475,184.5 L12.0475,185.571 C12.5235,184.806 13.3225,184.398 14.6145,184.398 C16.7225,184.398 17.9295,185.707 17.9295,188.121 Z M14.5465,192.235 C16.1785,192.235 16.9945,191.13 16.9945,189.345 L16.9945,188.121 C16.9945,186.268 16.1615,185.265 14.5465,185.265 C12.7445,185.265 12.0475,186.353 12.0475,188.019 L12.0475,189.498 C12.0645,191.096 12.6765,192.235 14.5465,192.235 Z M22.4515,185.367 L22.4515,184.5 L23.5395,184.5 L23.5395,182.63 L24.4745,182.63 L24.4745,184.5 L26.5655,184.5 L26.5655,185.367 L24.4745,185.367 L24.4745,190.127 C24.4745,191.487 24.6275,192.099 26.0045,192.099 L26.5655,192.099 L26.5655,193 L25.9705,193 C24.0835,193 23.5395,192.15 23.5395,190.382 L23.5395,185.367 L22.4515,185.367 Z M34.36,189.362 C34.36,191.674 33.187,193.102 30.909,193.102 C28.716,193.102 27.458,191.742 27.458,189.362 L27.458,188.121 C27.458,185.707 28.733,184.398 30.909,184.398 C33.085,184.398 34.36,185.707 34.36,188.121 L34.36,189.362 Z M33.425,189.362 L33.425,188.121 C33.425,186.268 32.524,185.265 30.909,185.265 C29.277,185.265 28.393,186.268 28.393,188.121 L28.393,189.362 C28.393,191.147 29.192,192.235 30.909,192.235 C32.558,192.235 33.425,191.147 33.425,189.362 Z M40.225,189.804 C40.225,191.13 41.262,192.184 42.605,192.184 C43.931,192.184 44.985,191.13 44.985,189.804 C44.985,188.41 43.846,187.407 42.605,187.407 C41.347,187.407 40.225,188.41 40.225,189.804 Z M40.395,184.296 C40.395,185.52 41.364,186.506 42.605,186.506 C43.829,186.506 44.815,185.52 44.815,184.296 C44.815,183.072 43.829,182.086 42.605,182.086 C41.364,182.086 40.395,183.072 40.395,184.296 Z M39.239,189.804 C39.239,188.478 40.072,187.373 41.109,186.931 C40.123,186.472 39.409,185.452 39.409,184.296 C39.409,182.477 40.888,181.168 42.605,181.168 C44.322,181.168 45.801,182.477 45.801,184.296 C45.801,185.452 45.07,186.472 44.084,186.931 C45.138,187.373 45.971,188.478 45.971,189.804 C45.971,191.725 44.407,193.102 42.605,193.102 C40.803,193.102 39.239,191.725 39.239,189.804 Z M55.0745,181.27 L56.0775,181.27 L49.5325,193 L48.5125,193 L55.0745,181.27 Z M49.0565,186.421 C50.1785,186.421 50.6375,185.622 50.6375,184.602 L50.6375,183.718 C50.6375,182.545 50.0595,181.933 49.0565,181.933 C48.0705,181.933 47.4925,182.545 47.4925,183.718 L47.4925,184.602 C47.4925,185.622 47.9005,186.421 49.0565,186.421 Z M49.0565,187.186 C47.5435,187.186 46.6935,186.251 46.6935,184.602 L46.6935,183.701 C46.6935,182.052 47.5775,181.151 49.0565,181.151 C50.5525,181.151 51.4195,182.052 51.4195,183.701 L51.4195,184.602 C51.4195,186.2 50.6545,187.186 49.0565,187.186 Z M55.7205,192.337 C56.8425,192.337 57.3015,191.538 57.3015,190.518 L57.3015,189.634 C57.3015,188.461 56.7235,187.849 55.7205,187.849 C54.7345,187.849 54.1565,188.461 54.1565,189.634 L54.1565,190.518 C54.1565,191.538 54.5645,192.337 55.7205,192.337 Z M55.7205,193.102 C54.2075,193.102 53.3575,192.167 53.3575,190.518 L53.3575,189.617 C53.3575,187.968 54.2415,187.067 55.7205,187.067 C57.2165,187.067 58.0835,187.968 58.0835,189.617 L58.0835,190.518 C58.0835,192.116 57.3185,193.102 55.7205,193.102 Z" id="Up-to-8%"></path>
                    </g>
                    <path d="M129.388,49.034 L128.182,49.898 C127.516,49.034 126.796,48.404 125.23,48.404 C123.79,48.404 122.818,49.052 122.818,50.348 C122.818,51.824 123.934,52.328 125.752,52.652 C128.146,53.066 129.604,53.93 129.604,56.234 C129.604,57.854 128.524,59.708 125.428,59.708 C123.412,59.708 121.936,59.024 121,57.674 L122.278,56.792 C123.088,57.746 123.808,58.304 125.428,58.304 C127.462,58.304 128.056,57.368 128.056,56.306 C128.056,55.136 127.462,54.344 125.122,53.984 C122.782,53.624 121.27,52.508 121.27,50.348 C121.27,48.566 122.44,47 125.284,47 C127.264,47 128.506,47.666 129.388,49.034 Z M137.2972,57.404 L138.4132,58.196 C137.7832,59.294 136.8292,59.708 135.2632,59.708 C132.8512,59.708 131.4112,58.142 131.4112,55.64 L131.4112,54.452 C131.4112,51.896 132.6172,50.42 134.9752,50.42 C137.3512,50.42 138.5392,51.878 138.5392,54.452 L138.5392,55.388 L132.8512,55.388 L132.8512,55.64 C132.8512,57.188 133.5892,58.412 135.1552,58.412 C136.3252,58.412 136.9192,58.07 137.2972,57.404 Z M134.9752,51.716 C133.5892,51.716 132.9412,52.634 132.8512,54.128 L137.0812,54.128 C137.0092,52.616 136.3432,51.716 134.9752,51.716 Z M140.8684,56.792 L140.8684,47.144 L142.3084,47.144 L142.3084,56.432 C142.3084,57.404 142.3624,58.232 143.8384,58.232 L143.8384,59.564 C141.5704,59.564 140.8684,58.664 140.8684,56.792 Z M146.0236,56.792 L146.0236,47.144 L147.4636,47.144 L147.4636,56.432 C147.4636,57.404 147.5176,58.232 148.9936,58.232 L148.9936,59.564 C146.7256,59.564 146.0236,58.664 146.0236,56.792 Z M151.4488,59.564 L151.4488,50.564 L152.8888,50.564 L152.8888,59.564 L151.4488,59.564 Z M151.3588,48.764 L151.3588,47.144 L152.9788,47.144 L152.9788,48.764 L151.3588,48.764 Z M155.722,59.564 L155.722,50.564 L157.162,50.564 L157.162,51.446 C157.612,50.762 158.242,50.42 159.574,50.42 C161.5,50.42 162.85,51.428 162.85,53.948 L162.85,59.564 L161.41,59.564 L161.41,53.966 C161.41,52.148 160.42,51.752 159.358,51.752 C158.008,51.752 157.162,52.706 157.162,53.948 L157.162,59.564 L155.722,59.564 Z M171.0112,51.464 L171.0112,50.564 L172.4512,50.564 L172.4512,59.384 C172.4512,61.886 171.0112,63.092 168.5992,63.092 C167.0332,63.092 166.0792,62.678 165.4492,61.58 L166.5652,60.788 C166.9432,61.454 167.5372,61.796 168.7072,61.796 C170.2732,61.796 171.0112,60.932 171.0112,59.384 L171.0112,58.772 C170.5252,59.402 169.7512,59.708 168.5632,59.708 C166.1152,59.708 164.9632,57.98 164.9632,55.64 L164.9632,54.452 C164.9632,51.878 166.3312,50.42 168.5632,50.42 C169.7512,50.42 170.5252,50.798 171.0112,51.464 Z M168.7072,58.412 C170.3632,58.412 171.0112,57.188 171.0112,55.64 L171.0112,54.452 C171.0112,52.76 170.1832,51.716 168.7072,51.716 C167.2312,51.716 166.4032,52.742 166.4032,54.452 L166.4032,55.64 C166.4032,57.17 167.1772,58.412 168.7072,58.412 Z M180.0976,47.144 L187.5856,47.144 L187.5856,48.548 L181.6456,48.548 L181.6456,52.724 L187.0456,52.724 L187.0456,54.128 L181.6456,54.128 L181.6456,59.564 L180.0976,59.564 L180.0976,47.144 Z M194.4148,57.404 L195.5308,58.196 C194.9008,59.294 193.9468,59.708 192.3808,59.708 C189.9688,59.708 188.5288,58.142 188.5288,55.64 L188.5288,54.452 C188.5288,51.896 189.7348,50.42 192.0928,50.42 C194.4688,50.42 195.6568,51.878 195.6568,54.452 L195.6568,55.388 L189.9688,55.388 L189.9688,55.64 C189.9688,57.188 190.7068,58.412 192.2728,58.412 C193.4428,58.412 194.0368,58.07 194.4148,57.404 Z M192.0928,51.716 C190.7068,51.716 190.0588,52.634 189.9688,54.128 L194.1988,54.128 C194.1268,52.616 193.4608,51.716 192.0928,51.716 Z M203.422,57.404 L204.538,58.196 C203.908,59.294 202.954,59.708 201.388,59.708 C198.976,59.708 197.536,58.142 197.536,55.64 L197.536,54.452 C197.536,51.896 198.742,50.42 201.1,50.42 C203.476,50.42 204.664,51.878 204.664,54.452 L204.664,55.388 L198.976,55.388 L198.976,55.64 C198.976,57.188 199.714,58.412 201.28,58.412 C202.45,58.412 203.044,58.07 203.422,57.404 Z M201.1,51.716 C199.714,51.716 199.066,52.634 198.976,54.128 L203.206,54.128 C203.134,52.616 202.468,51.716 201.1,51.716 Z M213.1312,51.914 L212.0512,52.67 C211.5652,52.04 211.0612,51.752 209.8192,51.752 C208.7572,51.752 208.0732,52.166 208.0732,52.958 C208.0732,53.984 208.9732,54.29 210.1612,54.38 C211.8532,54.506 213.4012,54.992 213.4012,57.062 C213.4012,58.628 212.3392,59.708 210.0172,59.708 C208.1812,59.708 207.2272,59.15 206.5432,58.214 L207.6052,57.458 C208.0912,58.106 208.7392,58.376 210.0352,58.376 C211.2412,58.376 211.9612,57.908 211.9612,57.098 C211.9612,56.126 211.3852,55.784 209.6392,55.658 C208.1272,55.55 206.6332,54.938 206.6332,52.976 C206.6332,51.482 207.7132,50.42 209.8552,50.42 C211.3132,50.42 212.4292,50.798 213.1312,51.914 Z M229.0216,51.014 L227.5096,51.014 C227.0776,49.07 226.0876,48.404 224.5576,48.404 C222.6496,48.404 221.6056,49.592 221.6056,52.67 L221.6056,54.038 C221.6056,57.116 222.6496,58.304 224.5576,58.304 C226.1776,58.304 227.0956,57.512 227.5096,55.694 L229.0036,55.694 C228.6076,58.484 226.9156,59.708 224.5576,59.708 C221.8036,59.708 220.0576,58.052 220.0576,54.038 L220.0576,52.67 C220.0576,48.656 221.8036,47 224.5576,47 C227.0056,47 228.6256,48.296 229.0216,51.014 Z M237.9928,54.452 L237.9928,55.64 C237.9928,57.98 236.8408,59.708 234.2488,59.708 C231.8548,59.708 230.5048,58.124 230.5048,55.64 L230.5048,54.452 C230.5048,51.896 231.8908,50.42 234.2488,50.42 C236.6248,50.42 237.9928,51.878 237.9928,54.452 Z M234.2488,58.412 C235.7788,58.412 236.5528,57.17 236.5528,55.64 L236.5528,54.452 C236.5528,52.742 235.7248,51.716 234.2488,51.716 C232.7728,51.716 231.9448,52.76 231.9448,54.452 L231.9448,55.64 C231.9448,57.188 232.5928,58.412 234.2488,58.412 Z M240.106,59.564 L240.106,50.564 L241.546,50.564 L241.546,51.446 C241.942,50.834 242.626,50.42 243.778,50.42 C244.984,50.42 245.902,50.906 246.406,51.842 C247.018,50.888 248.008,50.42 249.106,50.42 C251.032,50.42 252.202,51.608 252.202,53.948 L252.202,59.564 L250.762,59.564 L250.762,53.966 C250.762,52.328 249.952,51.752 248.89,51.752 C247.738,51.752 246.874,52.67 246.874,53.948 L246.874,59.564 L245.434,59.564 L245.434,53.966 C245.434,52.328 244.624,51.752 243.562,51.752 C242.392,51.752 241.546,52.706 241.546,53.948 L241.546,59.564 L240.106,59.564 Z M256.2052,51.464 C256.6912,50.798 257.4652,50.42 258.6532,50.42 C260.8852,50.42 262.2532,51.878 262.2532,54.452 L262.2532,55.64 C262.2532,57.98 261.1012,59.708 258.6532,59.708 C257.4652,59.708 256.6912,59.33 256.2052,58.664 L256.2052,62.984 L254.7652,62.984 L254.7652,50.564 L256.2052,50.564 L256.2052,51.464 Z M258.5092,58.412 C260.0392,58.412 260.8132,57.17 260.8132,55.64 L260.8132,54.452 C260.8132,52.742 259.9852,51.716 258.5092,51.716 C257.0692,51.716 256.2052,52.706 256.2052,54.326 L256.2052,55.64 C256.2052,57.188 256.8532,58.412 258.5092,58.412 Z M263.9164,56.936 C263.9164,54.992 265.3024,54.362 267.2824,54.362 L269.4244,54.362 L269.4244,53.318 C269.4244,52.04 268.8304,51.752 267.4264,51.752 C266.3464,51.752 265.7704,51.842 265.2664,52.67 L264.1864,51.914 C264.8164,50.87 265.7344,50.42 267.4444,50.42 C269.7304,50.42 270.8644,51.158 270.8644,53.318 L270.8644,59.564 L269.4244,59.564 L269.4244,58.682 C268.9204,59.51 268.3084,59.708 267.1384,59.708 C265.0504,59.708 263.9164,58.682 263.9164,56.936 Z M269.4244,56.108 L269.4244,55.586 L267.2824,55.586 C265.8604,55.586 265.3564,56.072 265.3564,56.972 C265.3564,57.98 266.0764,58.376 267.1384,58.376 C268.4704,58.376 269.4244,58.124 269.4244,56.108 Z M279.5296,51.644 L278.3056,52.508 C277.9276,51.986 277.4596,51.752 276.7936,51.752 C275.6956,51.752 274.8676,52.58 274.8676,53.93 L274.8676,59.564 L273.4276,59.564 L273.4276,50.564 L274.8676,50.564 L274.8676,51.446 C275.2456,50.816 275.8576,50.42 276.9556,50.42 C278.1796,50.42 278.9536,50.834 279.5296,51.644 Z M281.0128,59.564 L281.0128,50.564 L282.4528,50.564 L282.4528,59.564 L281.0128,59.564 Z M280.9228,48.764 L280.9228,47.144 L282.5428,47.144 L282.5428,48.764 L280.9228,48.764 Z M291.424,51.914 L290.344,52.67 C289.858,52.04 289.354,51.752 288.112,51.752 C287.05,51.752 286.366,52.166 286.366,52.958 C286.366,53.984 287.266,54.29 288.454,54.38 C290.146,54.506 291.694,54.992 291.694,57.062 C291.694,58.628 290.632,59.708 288.31,59.708 C286.474,59.708 285.52,59.15 284.836,58.214 L285.898,57.458 C286.384,58.106 287.032,58.376 288.328,58.376 C289.534,58.376 290.254,57.908 290.254,57.098 C290.254,56.126 289.678,55.784 287.932,55.658 C286.42,55.55 284.926,54.938 284.926,52.976 C284.926,51.482 286.006,50.42 288.148,50.42 C289.606,50.42 290.722,50.798 291.424,51.914 Z M300.9352,54.452 L300.9352,55.64 C300.9352,57.98 299.7832,59.708 297.1912,59.708 C294.7972,59.708 293.4472,58.124 293.4472,55.64 L293.4472,54.452 C293.4472,51.896 294.8332,50.42 297.1912,50.42 C299.5672,50.42 300.9352,51.878 300.9352,54.452 Z M297.1912,58.412 C298.7212,58.412 299.4952,57.17 299.4952,55.64 L299.4952,54.452 C299.4952,52.742 298.6672,51.716 297.1912,51.716 C295.7152,51.716 294.8872,52.76 294.8872,54.452 L294.8872,55.64 C294.8872,57.188 295.5352,58.412 297.1912,58.412 Z M303.0484,59.564 L303.0484,50.564 L304.4884,50.564 L304.4884,51.446 C304.9384,50.762 305.5684,50.42 306.9004,50.42 C308.8264,50.42 310.1764,51.428 310.1764,53.948 L310.1764,59.564 L308.7364,59.564 L308.7364,53.966 C308.7364,52.148 307.7464,51.752 306.6844,51.752 C305.3344,51.752 304.4884,52.706 304.4884,53.948 L304.4884,59.564 L303.0484,59.564 Z" id="Selling-Fees-Compari" fill="#FFFFFF"></path>
                </g>
            </g>
        </g>
    </g>
</svg>