<?xml version="1.0" encoding="UTF-8"?>
<svg width="466px" height="312px" viewBox="0 0 466 312" version="1.1" xmlns="http://www.w3.org/2000/svg" xmlns:xlink="http://www.w3.org/1999/xlink">
    <!-- Generator: Sketch 48.2 (47327) - http://www.bohemiancoding.com/sketch -->
    <title>item7</title>
    <desc>Created with Sketch.</desc>
    <defs>
        <path d="M142.448939,285.654035 C63.7765624,285.654035 0,221.708201 0,142.827017 C0,63.9458339 63.7765624,0 142.448939,0 C221.121316,0 284.897878,63.9458339 284.897878,142.827017 C284.897878,221.708201 221.121316,285.654035 142.448939,285.654035 Z M142.83921,225.392773 C188.102769,225.392773 224.796134,188.602019 224.796134,143.218324 C224.796134,97.8346297 188.102769,61.043876 142.83921,61.043876 C97.575651,61.043876 60.8822863,97.8346297 60.8822863,143.218324 C60.8822863,188.602019 97.575651,225.392773 142.83921,225.392773 Z" id="path-1"></path>
        <linearGradient x1="-38.2127232%" y1="45.5107495%" x2="82.2566106%" y2="74.4850852%" id="linearGradient-3">
            <stop stop-color="#00ACF0" offset="0%"></stop>
            <stop stop-color="#2CB6F7" offset="100%"></stop>
        </linearGradient>
        <linearGradient x1="35.6606276%" y1="55.580068%" x2="113.40917%" y2="55.580068%" id="linearGradient-4">
            <stop stop-color="#1490E0" offset="0%"></stop>
            <stop stop-color="#20F0FF" offset="100%"></stop>
        </linearGradient>
        <linearGradient x1="74.534899%" y1="16.7057966%" x2="74.534899%" y2="94.4543394%" id="linearGradient-5">
            <stop stop-color="#1490E0" offset="0%"></stop>
            <stop stop-color="#20F0FF" offset="100%"></stop>
        </linearGradient>
        <linearGradient x1="4.4408921e-14%" y1="50%" x2="138.507746%" y2="50%" id="linearGradient-6">
            <stop stop-color="#17EAD9" offset="0%"></stop>
            <stop stop-color="#6078EA" offset="100%"></stop>
        </linearGradient>
    </defs>
    <g id="alternate-3" stroke="none" stroke-width="1" fill="none" fill-rule="evenodd" transform="translate(-721.000000, -2218.000000)">
        <g id="SECITON:-PROBLEM" transform="translate(581.000000, 1932.000000)">
            <g id="item7" transform="translate(140.000000, 277.000000)">
                <g id="Group-2" transform="translate(109.000000, 0.000000)">
                    <mask id="mask-2" fill="white">
                        <use xlink:href="#path-1"></use>
                    </mask>
                    <g id="Mask"></g>
                    <g mask="url(#mask-2)">
                        <g transform="translate(40.959759, 9.126327)">
                            <ellipse id="Oval" fill="url(#linearGradient-3)" opacity="0.441179801" cx="101.950983" cy="133.667543" rx="101.865926" ry="102.212046"></ellipse>
                            <path d="M101.171948,252.480619 L101.171948,109.435415 L217.89967,109.435415 C219.515265,117.25875 220.364232,125.363666 220.364232,133.667543 C220.364232,199.287583 167.348814,252.483137 101.950983,252.483137 C101.691108,252.483137 101.431429,252.482297 101.171948,252.480619 Z" id="Combined-Shape" fill="#1E5F6F"></path>
                            <path d="M65.4310707,97.0357597 C65.4734913,97.0357196 65.5159166,97.0356996 65.5583465,97.0356996 C138.700658,97.0356996 197.994217,156.530726 197.994217,229.921561 C197.994217,230.234588 197.993139,230.547363 197.990985,230.859881 L145.008107,230.425759 C145.008107,230.425759 142.284847,231.920539 140.974073,232.748457 C84.6728111,268.309745 65.5583465,301.465424 65.5583465,301.465424 L65.4310707,97.0357554 Z" id="Combined-Shape" fill="url(#linearGradient-4)" transform="translate(131.712644, 199.250562) rotate(-270.000000) translate(-131.712644, -199.250562) "></path>
                            <path d="M105.723392,0.0770040874 C176.758286,2.48416268 233.607819,61.0234942 233.607819,132.885861 C233.607819,176.778848 212.399115,215.701445 179.703452,239.898876 L166.569686,228.158175 L106.495373,178.419693 L105.723366,0.0770031827 Z" id="Combined-Shape" fill="url(#linearGradient-5)"></path>
                        </g>
                    </g>
                </g>
                <polygon id="Line" fill="url(#linearGradient-6)" fill-rule="nonzero" points="0.987589618 148 0.987589618 147 163.149188 147 163.149188 148"></polygon>
                <path d="M9.81,170.528 C9.81,174.452 8.064,176.108 5.4,176.108 C2.736,176.108 0.99,174.452 0.99,170.528 L0.99,169.052 C0.99,165.146 2.736,163.472 5.4,163.472 C8.064,163.472 9.81,165.146 9.81,169.052 L9.81,170.528 Z M2.034,169.052 L2.034,170.528 C2.034,173.894 3.366,175.136 5.4,175.136 C7.434,175.136 8.766,173.894 8.766,170.528 L8.766,169.052 C8.766,165.704 7.434,164.444 5.4,164.444 C3.366,164.444 2.034,165.704 2.034,169.052 Z M11.518,167.918 L11.518,167 L12.67,167 L12.67,165.02 L13.66,165.02 L13.66,167 L15.874,167 L15.874,167.918 L13.66,167.918 L13.66,172.958 C13.66,174.398 13.822,175.046 15.28,175.046 L15.874,175.046 L15.874,176 L15.244,176 C13.246,176 12.67,175.1 12.67,173.228 L12.67,167.918 L11.518,167.918 Z M18.104,176 L18.104,163.58 L19.094,163.58 L19.094,168.224 C19.58,167.36 20.408,166.892 21.74,166.892 C23.738,166.892 25.052,168.134 25.052,170.672 L25.052,176 L24.062,176 L24.062,170.69 C24.062,168.638 23.036,167.828 21.632,167.828 C19.94,167.828 19.094,168.944 19.094,170.6 L19.094,176 L18.104,176 Z M34.32,171.752 L28.362,171.752 L28.362,172.13 C28.362,173.912 29.19,175.19 31.098,175.19 C32.196,175.19 32.934,174.866 33.438,174.092 L34.23,174.65 C33.6,175.64 32.61,176.108 31.152,176.108 C28.758,176.108 27.372,174.632 27.372,172.13 L27.372,170.834 C27.372,168.278 28.596,166.892 30.846,166.892 C33.096,166.892 34.32,168.278 34.32,170.834 L34.32,171.752 Z M28.362,170.834 L28.362,170.852 L33.33,170.852 L33.33,170.834 C33.33,168.872 32.484,167.81 30.846,167.81 C29.208,167.81 28.362,168.89 28.362,170.834 Z M39.952,167.828 C38.548,167.828 37.774,168.944 37.774,170.582 L37.774,176 L36.784,176 L36.784,167 L37.774,167 L37.774,168.224 C38.152,167.396 38.908,166.892 40.042,166.892 C41.212,166.892 41.986,167.342 42.58,168.134 L41.752,168.746 C41.284,168.134 40.744,167.828 39.952,167.828 Z M50.118,163.58 L54.258,171.842 L58.38,163.58 L59.406,163.58 L59.406,176 L58.362,176 L58.362,165.866 L54.708,173.228 L53.772,173.228 L50.154,165.884 L50.154,176 L49.11,176 L49.11,163.58 L50.118,163.58 Z M69.034,171.752 L63.076,171.752 L63.076,172.13 C63.076,173.912 63.904,175.19 65.812,175.19 C66.91,175.19 67.648,174.866 68.152,174.092 L68.944,174.65 C68.314,175.64 67.324,176.108 65.866,176.108 C63.472,176.108 62.086,174.632 62.086,172.13 L62.086,170.834 C62.086,168.278 63.31,166.892 65.56,166.892 C67.81,166.892 69.034,168.278 69.034,170.834 L69.034,171.752 Z M63.076,170.834 L63.076,170.852 L68.044,170.852 L68.044,170.834 C68.044,168.872 67.198,167.81 65.56,167.81 C63.922,167.81 63.076,168.89 63.076,170.834 Z M74.666,167.828 C73.262,167.828 72.488,168.944 72.488,170.582 L72.488,176 L71.498,176 L71.498,167 L72.488,167 L72.488,168.224 C72.866,167.396 73.622,166.892 74.756,166.892 C75.926,166.892 76.7,167.342 77.294,168.134 L76.466,168.746 C75.998,168.134 75.458,167.828 74.666,167.828 Z M84.258,174.092 L85.05,174.65 C84.456,175.604 83.394,176.108 81.99,176.108 C79.578,176.108 78.192,174.668 78.192,172.13 L78.192,170.834 C78.192,168.278 79.614,166.892 81.99,166.892 C83.304,166.892 84.366,167.36 85.032,168.278 L84.24,168.818 C83.736,168.134 82.89,167.81 81.99,167.81 C80.208,167.81 79.182,168.89 79.182,170.834 L79.182,172.13 C79.182,173.912 80.01,175.19 81.99,175.19 C82.908,175.19 83.754,174.884 84.258,174.092 Z M86.866,176 L86.866,163.58 L87.856,163.58 L87.856,168.224 C88.342,167.36 89.17,166.892 90.502,166.892 C92.5,166.892 93.814,168.134 93.814,170.672 L93.814,176 L92.824,176 L92.824,170.69 C92.824,168.638 91.798,167.828 90.394,167.828 C88.702,167.828 87.856,168.944 87.856,170.6 L87.856,176 L86.866,176 Z M96.134,173.426 C96.134,171.698 97.34,170.888 99.194,170.888 L101.822,170.888 L101.822,169.772 C101.822,168.242 101.21,167.828 99.554,167.828 C98.474,167.828 97.772,167.9 97.196,168.854 L96.44,168.332 C97.07,167.27 97.97,166.892 99.572,166.892 C101.768,166.892 102.812,167.576 102.812,169.772 L102.812,176 L101.822,176 L101.822,174.884 C101.318,175.838 100.418,176.108 99.266,176.108 C97.268,176.108 96.134,175.154 96.134,173.426 Z M101.822,172.652 L101.822,171.77 L99.194,171.77 C97.646,171.77 97.124,172.49 97.124,173.444 C97.124,174.704 98.006,175.172 99.266,175.172 C100.724,175.172 101.822,174.668 101.822,172.652 Z M105.582,176 L105.582,167 L106.572,167 L106.572,168.224 C107.04,167.36 107.868,166.892 109.218,166.892 C111.216,166.892 112.53,168.134 112.53,170.672 L112.53,176 L111.54,176 L111.54,170.69 C111.54,168.638 110.514,167.828 109.11,167.828 C107.418,167.828 106.572,168.944 106.572,170.6 L106.572,176 L105.582,176 Z M114.508,167.918 L114.508,167 L115.66,167 L115.66,165.02 L116.65,165.02 L116.65,167 L118.864,167 L118.864,167.918 L116.65,167.918 L116.65,172.958 C116.65,174.398 116.812,175.046 118.27,175.046 L118.864,175.046 L118.864,176 L118.234,176 C116.236,176 115.66,175.1 115.66,173.228 L115.66,167.918 L114.508,167.918 Z M126.998,168.386 L126.242,168.926 C125.684,168.134 125.108,167.828 123.794,167.828 C122.588,167.828 121.67,168.278 121.67,169.304 C121.67,170.564 122.804,170.816 124.064,170.978 C125.81,171.212 127.268,171.716 127.268,173.624 C127.268,175.028 126.368,176.108 123.974,176.108 C122.192,176.108 121.256,175.55 120.59,174.614 L121.364,174.074 C121.904,174.83 122.588,175.172 123.992,175.172 C125.396,175.172 126.278,174.722 126.278,173.642 C126.278,172.49 125.378,172.094 123.596,171.86 C122.066,171.662 120.68,171.14 120.68,169.322 C120.68,167.864 121.778,166.892 123.812,166.892 C125.234,166.892 126.314,167.27 126.998,168.386 Z" id="Other-Merchants" fill="#6E8697"></path>
                <polygon id="Path-2" fill="url(#linearGradient-6)" fill-rule="nonzero" points="362.454485 118.5 362.454485 117.5 463.545668 117.5 463.545668 118.5"></polygon>
                <path d="M403.332,146 L402.216,146 L406.464,133.58 L407.436,133.58 L411.684,146 L410.586,146 L409.56,142.976 L404.34,142.976 L403.332,146 Z M406.95,135.254 L404.664,142.004 L409.236,142.004 L406.95,135.254 Z M413.428,146 L413.428,137 L414.418,137 L414.418,138.224 C414.796,137.396 415.606,136.892 416.794,136.892 C418.072,136.892 419.008,137.504 419.476,138.656 C419.98,137.522 420.97,136.892 422.212,136.892 C424.102,136.892 425.254,138.224 425.254,140.672 L425.254,146 L424.264,146 L424.264,140.69 C424.264,138.728 423.4,137.828 422.104,137.828 C420.664,137.828 419.836,138.89 419.836,140.474 L419.836,146 L418.846,146 L418.846,140.69 C418.846,138.728 417.982,137.828 416.686,137.828 C415.21,137.828 414.418,138.944 414.418,140.6 L414.418,146 L413.428,146 Z M427.574,143.426 C427.574,141.698 428.78,140.888 430.634,140.888 L433.262,140.888 L433.262,139.772 C433.262,138.242 432.65,137.828 430.994,137.828 C429.914,137.828 429.212,137.9 428.636,138.854 L427.88,138.332 C428.51,137.27 429.41,136.892 431.012,136.892 C433.208,136.892 434.252,137.576 434.252,139.772 L434.252,146 L433.262,146 L433.262,144.884 C432.758,145.838 431.858,146.108 430.706,146.108 C428.708,146.108 427.574,145.154 427.574,143.426 Z M433.262,142.652 L433.262,141.77 L430.634,141.77 C429.086,141.77 428.564,142.49 428.564,143.444 C428.564,144.704 429.446,145.172 430.706,145.172 C432.164,145.172 433.262,144.668 433.262,142.652 Z M436.572,145.226 L441.738,137.918 L436.572,137.918 L436.572,137 L443.034,137 L443.034,137.774 L437.904,145.082 L443.034,145.082 L443.034,146 L436.572,146 L436.572,145.226 Z M451.996,142.148 C451.996,144.596 450.754,146.108 448.342,146.108 C446.02,146.108 444.688,144.668 444.688,142.148 L444.688,140.834 C444.688,138.278 446.038,136.892 448.342,136.892 C450.646,136.892 451.996,138.278 451.996,140.834 L451.996,142.148 Z M451.006,142.148 L451.006,140.834 C451.006,138.872 450.052,137.81 448.342,137.81 C446.614,137.81 445.678,138.872 445.678,140.834 L445.678,142.148 C445.678,144.038 446.524,145.19 448.342,145.19 C450.088,145.19 451.006,144.038 451.006,142.148 Z M454.316,146 L454.316,137 L455.306,137 L455.306,138.224 C455.774,137.36 456.602,136.892 457.952,136.892 C459.95,136.892 461.264,138.134 461.264,140.672 L461.264,146 L460.274,146 L460.274,140.69 C460.274,138.638 459.248,137.828 457.844,137.828 C456.152,137.828 455.306,138.944 455.306,140.6 L455.306,146 L454.316,146 Z" id="Amazon" fill="#6E8697"></path>
                <path d="M425.075,92.75 C423.6,92.75 422.65,93.675 422.075,94.725 L420.775,94.725 L420.775,85.75 L429.275,85.75 L429.275,87.2 L422.175,87.2 L422.175,92.8 C422.8,91.95 423.85,91.3 425.3,91.3 C428.6,91.3 430,93.725 430,97.6 C430,101 428.275,103.15 425.075,103.15 C422.475,103.15 420.55,101.275 420.375,98.9 L421.8,98.9 C422.05,100.675 423.4,101.8 425.075,101.8 C427.2,101.8 428.55,100.65 428.55,97.6 C428.55,94.45 427.525,92.75 425.075,92.75 Z M442.51,90.575 L442.51,98.175 C442.51,101.35 440.285,103.15 437.685,103.15 C435.085,103.15 432.86,101.35 432.86,98.15 L432.86,90.6 C432.86,87.4 435.085,85.6 437.685,85.6 C440.285,85.6 442.51,87.4 442.51,90.575 Z M441.06,90.575 C441.06,88.325 439.585,86.95 437.685,86.95 C435.76,86.95 434.285,88.325 434.285,90.575 L434.285,98.175 C434.285,100.425 435.76,101.8 437.685,101.8 C439.585,101.8 441.06,100.425 441.06,98.175 L441.06,90.575 Z M457.02,85.75 L458.495,85.75 L448.87,103 L447.37,103 L457.02,85.75 Z M448.17,93.325 C449.82,93.325 450.495,92.15 450.495,90.65 L450.495,89.35 C450.495,87.625 449.645,86.725 448.17,86.725 C446.72,86.725 445.87,87.625 445.87,89.35 L445.87,90.65 C445.87,92.15 446.47,93.325 448.17,93.325 Z M448.17,94.45 C445.945,94.45 444.695,93.075 444.695,90.65 L444.695,89.325 C444.695,86.9 445.995,85.575 448.17,85.575 C450.37,85.575 451.645,86.9 451.645,89.325 L451.645,90.65 C451.645,93 450.52,94.45 448.17,94.45 Z M457.97,102.025 C459.62,102.025 460.295,100.85 460.295,99.35 L460.295,98.05 C460.295,96.325 459.445,95.425 457.97,95.425 C456.52,95.425 455.67,96.325 455.67,98.05 L455.67,99.35 C455.67,100.85 456.27,102.025 457.97,102.025 Z M457.97,103.15 C455.745,103.15 454.495,101.775 454.495,99.35 L454.495,98.025 C454.495,95.6 455.795,94.275 457.97,94.275 C460.17,94.275 461.445,95.6 461.445,98.025 L461.445,99.35 C461.445,101.7 460.32,103.15 457.97,103.15 Z" id="50%" fill="#02AAE6"></path>
                <path d="M8.425,113.37 L10.018,113.37 L3.592,127.194 L10.099,127.194 L10.099,121.389 L11.665,121.389 L11.665,127.194 L13.528,127.194 L13.528,128.652 L11.665,128.652 L11.665,132 L10.099,132 L10.099,128.652 L1.756,128.652 L1.756,127.491 L8.425,113.37 Z M16.3760348,118.338 L14.9180348,118.338 L14.9180348,113.37 L25.1240348,113.37 L25.1240348,114.828 L18.9680348,132 L17.2940348,132 L23.4770348,114.828 L16.3760348,114.828 L16.3760348,118.338 Z M39.4740696,113.37 L41.0670696,113.37 L30.6720696,132 L29.0520696,132 L39.4740696,113.37 Z M29.9160696,121.551 C31.6980696,121.551 32.4270696,120.282 32.4270696,118.662 L32.4270696,117.258 C32.4270696,115.395 31.5090696,114.423 29.9160696,114.423 C28.3500696,114.423 27.4320696,115.395 27.4320696,117.258 L27.4320696,118.662 C27.4320696,120.282 28.0800696,121.551 29.9160696,121.551 Z M29.9160696,122.766 C27.5130696,122.766 26.1630696,121.281 26.1630696,118.662 L26.1630696,117.231 C26.1630696,114.612 27.5670696,113.181 29.9160696,113.181 C32.2920696,113.181 33.6690696,114.612 33.6690696,117.231 L33.6690696,118.662 C33.6690696,121.2 32.4540696,122.766 29.9160696,122.766 Z M40.5000696,130.947 C42.2820696,130.947 43.0110696,129.678 43.0110696,128.058 L43.0110696,126.654 C43.0110696,124.791 42.0930696,123.819 40.5000696,123.819 C38.9340696,123.819 38.0160696,124.791 38.0160696,126.654 L38.0160696,128.058 C38.0160696,129.678 38.6640696,130.947 40.5000696,130.947 Z M40.5000696,132.162 C38.0970696,132.162 36.7470696,130.677 36.7470696,128.058 L36.7470696,126.627 C36.7470696,124.008 38.1510696,122.577 40.5000696,122.577 C42.8760696,122.577 44.2530696,124.008 44.2530696,126.627 L44.2530696,128.058 C44.2530696,130.596 43.0380696,132.162 40.5000696,132.162 Z" id="47%" fill="#02AAE6"></path>
                <path d="M436.7,269.775 L436.7,268.425 L437.65,268.425 C440.325,268.425 441.475,267.175 441.475,265.1 C441.475,263.4 440.15,261.95 438.1,261.95 C436.15,261.95 434.775,263.25 434.725,265 L433.3,265 C433.3,262.275 435.575,260.6 438.1,260.6 C440.9,260.6 442.925,262.525 442.925,265.125 C442.925,267.225 441.7,268.5 440.15,269.075 C441.9,269.675 443.175,271.125 443.175,273.325 C443.175,276.025 441.25,278.15 438.275,278.15 C435.05,278.15 433.25,276.225 433.075,273.625 L434.5,273.625 C434.725,275.475 435.875,276.8 438.275,276.8 C440.225,276.8 441.725,275.4 441.725,273.375 C441.725,271.15 440.325,269.775 437.65,269.775 L436.7,269.775 Z M457.46,260.75 L458.935,260.75 L449.31,278 L447.81,278 L457.46,260.75 Z M448.61,268.325 C450.26,268.325 450.935,267.15 450.935,265.65 L450.935,264.35 C450.935,262.625 450.085,261.725 448.61,261.725 C447.16,261.725 446.31,262.625 446.31,264.35 L446.31,265.65 C446.31,267.15 446.91,268.325 448.61,268.325 Z M448.61,269.45 C446.385,269.45 445.135,268.075 445.135,265.65 L445.135,264.325 C445.135,261.9 446.435,260.575 448.61,260.575 C450.81,260.575 452.085,261.9 452.085,264.325 L452.085,265.65 C452.085,268 450.96,269.45 448.61,269.45 Z M458.41,277.025 C460.06,277.025 460.735,275.85 460.735,274.35 L460.735,273.05 C460.735,271.325 459.885,270.425 458.41,270.425 C456.96,270.425 456.11,271.325 456.11,273.05 L456.11,274.35 C456.11,275.85 456.71,277.025 458.41,277.025 Z M458.41,278.15 C456.185,278.15 454.935,276.775 454.935,274.35 L454.935,273.025 C454.935,270.6 456.235,269.275 458.41,269.275 C460.61,269.275 461.885,270.6 461.885,273.025 L461.885,274.35 C461.885,276.7 460.76,278.15 458.41,278.15 Z" id="3%" fill="#02AAE6"></path>
                <polygon id="Path-2" fill="url(#linearGradient-6)" fill-rule="nonzero" transform="translate(375.823727, 270.927278) scale(1, -1) translate(-375.823727, -270.927278) " points="286.352547 290.354557 285.647453 289.645443 324.010383 251.5 466 251.5 466 252.5 324.422932 252.5"></polygon>
                <path d="M432.758,312.752 L426.8,312.752 L426.8,313.13 C426.8,314.912 427.628,316.19 429.536,316.19 C430.634,316.19 431.372,315.866 431.876,315.092 L432.668,315.65 C432.038,316.64 431.048,317.108 429.59,317.108 C427.196,317.108 425.81,315.632 425.81,313.13 L425.81,311.834 C425.81,309.278 427.034,307.892 429.284,307.892 C431.534,307.892 432.758,309.278 432.758,311.834 L432.758,312.752 Z M426.8,311.834 L426.8,311.852 L431.768,311.852 L431.768,311.834 C431.768,309.872 430.922,308.81 429.284,308.81 C427.646,308.81 426.8,309.89 426.8,311.834 Z M435.582,304.58 L439.254,304.58 C442.098,304.58 443.484,305.678 443.484,307.73 C443.484,309.116 442.548,310.232 441.342,310.52 C442.908,310.862 443.88,311.906 443.88,313.544 C443.88,315.236 442.782,317 439.686,317 L435.582,317 L435.582,304.58 Z M436.626,311.042 L436.626,316.028 L439.686,316.028 C441.828,316.028 442.836,315.002 442.836,313.544 C442.836,311.87 441.702,311.042 439.344,311.042 L436.626,311.042 Z M436.626,305.552 L436.626,310.07 L439.578,310.07 C441.594,310.07 442.44,309.008 442.44,307.73 C442.44,306.47 441.792,305.552 439.254,305.552 L436.626,305.552 Z M445.75,314.426 C445.75,312.698 446.956,311.888 448.81,311.888 L451.438,311.888 L451.438,310.772 C451.438,309.242 450.826,308.828 449.17,308.828 C448.09,308.828 447.388,308.9 446.812,309.854 L446.056,309.332 C446.686,308.27 447.586,307.892 449.188,307.892 C451.384,307.892 452.428,308.576 452.428,310.772 L452.428,317 L451.438,317 L451.438,315.884 C450.934,316.838 450.034,317.108 448.882,317.108 C446.884,317.108 445.75,316.154 445.75,314.426 Z M451.438,313.652 L451.438,312.77 L448.81,312.77 C447.262,312.77 446.74,313.49 446.74,314.444 C446.74,315.704 447.622,316.172 448.882,316.172 C450.34,316.172 451.438,315.668 451.438,313.652 Z M455.162,320.42 L455.162,319.448 C456.566,319.448 457.016,318.98 457.628,317.252 L457.664,317.144 L453.974,308 L455.054,308 L458.168,315.704 L460.832,308 L461.876,308 L458.618,317.36 C457.88,319.52 457.304,320.42 455.162,320.42 Z" id="eBay" fill="#6E8697"></path>
                <path d="M214.831,140.362 L214.831,142 L206.326,142 L206.326,140.488 L211.429,134.461 C212.416,133.306 213.067,132.319 213.067,131.227 C213.067,129.715 211.912,128.959 210.715,128.959 C209.413,128.959 208.384,129.736 208.342,131.227 L206.557,131.227 C206.557,128.833 208.447,127.342 210.715,127.342 C213.025,127.342 214.873,128.833 214.873,131.311 C214.873,133.033 213.613,134.419 212.689,135.532 L208.699,140.362 L214.831,140.362 Z M225.6964,131.521 L225.6964,137.989 C225.6964,140.656 223.7224,142.168 221.5384,142.168 C219.3544,142.168 217.3804,140.656 217.3804,137.968 L217.3804,131.542 C217.3804,128.854 219.3544,127.342 221.5384,127.342 C223.7224,127.342 225.6964,128.854 225.6964,131.521 Z M223.8904,131.521 C223.8904,129.967 222.8404,128.98 221.5384,128.98 C220.2154,128.98 219.1654,129.967 219.1654,131.521 L219.1654,137.989 C219.1654,139.543 220.2154,140.53 221.5384,140.53 C222.8404,140.53 223.8904,139.543 223.8904,137.989 L223.8904,131.521 Z M233.5378,127.51 L233.5378,142 L231.7318,142 L231.7318,129.589 L229.6528,131.08 L229.6528,129.106 L231.7318,127.51 L233.5378,127.51 Z M244.8442,127.51 L242.0512,133.894 C242.4292,133.663 243.0172,133.6 243.4162,133.6 C245.7262,133.6 247.2172,135.427 247.2172,137.842 C247.2172,140.404 245.5162,142.168 243.0382,142.168 C240.6022,142.168 238.8592,140.446 238.8592,137.926 C238.8592,136.918 239.3842,135.637 239.8462,134.566 L242.8282,127.51 L244.8442,127.51 Z M240.6652,137.842 C240.6652,139.48 241.6102,140.53 243.0382,140.53 C244.4452,140.53 245.4112,139.48 245.4112,137.842 C245.4112,136.225 244.4452,135.154 243.0382,135.154 C241.6102,135.154 240.6652,136.225 240.6652,137.842 Z M264.811,129.715 L263.404,130.723 C262.627,129.715 261.787,128.98 259.96,128.98 C258.28,128.98 257.146,129.736 257.146,131.248 C257.146,132.97 258.448,133.558 260.569,133.936 C263.362,134.419 265.063,135.427 265.063,138.115 C265.063,140.005 263.803,142.168 260.191,142.168 C257.839,142.168 256.117,141.37 255.025,139.795 L256.516,138.766 C257.461,139.879 258.301,140.53 260.191,140.53 C262.564,140.53 263.257,139.438 263.257,138.199 C263.257,136.834 262.564,135.91 259.834,135.49 C257.104,135.07 255.34,133.768 255.34,131.248 C255.34,129.169 256.705,127.342 260.023,127.342 C262.333,127.342 263.782,128.119 264.811,129.715 Z M267.1714,138.934 C267.1714,136.666 268.7884,135.931 271.0984,135.931 L273.5974,135.931 L273.5974,134.713 C273.5974,133.222 272.9044,132.886 271.2664,132.886 C270.0064,132.886 269.3344,132.991 268.7464,133.957 L267.4864,133.075 C268.2214,131.857 269.2924,131.332 271.2874,131.332 C273.9544,131.332 275.2774,132.193 275.2774,134.713 L275.2774,142 L273.5974,142 L273.5974,140.971 C273.0094,141.937 272.2954,142.168 270.9304,142.168 C268.4944,142.168 267.1714,140.971 267.1714,138.934 Z M273.5974,137.968 L273.5974,137.359 L271.0984,137.359 C269.4394,137.359 268.8514,137.926 268.8514,138.976 C268.8514,140.152 269.6914,140.614 270.9304,140.614 C272.4844,140.614 273.5974,140.32 273.5974,137.968 Z M278.2678,138.766 L278.2678,127.51 L279.9478,127.51 L279.9478,138.346 C279.9478,139.48 280.0108,140.446 281.7328,140.446 L281.7328,142 C279.0868,142 278.2678,140.95 278.2678,138.766 Z M290.6242,139.48 L291.9262,140.404 C291.1912,141.685 290.0782,142.168 288.2512,142.168 C285.4372,142.168 283.7572,140.341 283.7572,137.422 L283.7572,136.036 C283.7572,133.054 285.1642,131.332 287.9152,131.332 C290.6872,131.332 292.0732,133.033 292.0732,136.036 L292.0732,137.128 L285.4372,137.128 L285.4372,137.422 C285.4372,139.228 286.2982,140.656 288.1252,140.656 C289.4902,140.656 290.1832,140.257 290.6242,139.48 Z M287.9152,132.844 C286.2982,132.844 285.5422,133.915 285.4372,135.658 L290.3722,135.658 C290.2882,133.894 289.5112,132.844 287.9152,132.844 Z M301.9516,133.075 L300.6916,133.957 C300.1246,133.222 299.5366,132.886 298.0876,132.886 C296.8486,132.886 296.0506,133.369 296.0506,134.293 C296.0506,135.49 297.1006,135.847 298.4866,135.952 C300.4606,136.099 302.2666,136.666 302.2666,139.081 C302.2666,140.908 301.0276,142.168 298.3186,142.168 C296.1766,142.168 295.0636,141.517 294.2656,140.425 L295.5046,139.543 C296.0716,140.299 296.8276,140.614 298.3396,140.614 C299.7466,140.614 300.5866,140.068 300.5866,139.123 C300.5866,137.989 299.9146,137.59 297.8776,137.443 C296.1136,137.317 294.3706,136.603 294.3706,134.314 C294.3706,132.571 295.6306,131.332 298.1296,131.332 C299.8306,131.332 301.1326,131.773 301.9516,133.075 Z M228.0463,159.713 L233.3173,159.713 L233.3173,160.553 C233.3173,165.236 231.1963,167.168 227.9833,167.168 C224.7703,167.168 222.7333,165.236 222.7333,160.553 L222.7333,158.957 C222.7333,154.274 224.7703,152.342 227.9833,152.342 C230.7973,152.342 232.7293,153.833 233.1913,157.025 L231.4273,157.025 C230.9653,154.862 229.8313,153.98 227.9833,153.98 C225.7573,153.98 224.5393,155.366 224.5393,158.957 L224.5393,160.553 C224.5393,164.144 225.7573,165.53 227.9833,165.53 C230.0203,165.53 231.3013,164.354 231.4903,161.351 L228.0463,161.351 L228.0463,159.713 Z M243.1117,157.76 L241.6837,158.768 C241.2427,158.159 240.6967,157.886 239.9197,157.886 C238.6387,157.886 237.6727,158.852 237.6727,160.427 L237.6727,167 L235.9927,167 L235.9927,156.5 L237.6727,156.5 L237.6727,157.529 C238.1137,156.794 238.8277,156.332 240.1087,156.332 C241.5367,156.332 242.4397,156.815 243.1117,157.76 Z M252.7381,161.036 L252.7381,162.422 C252.7381,165.152 251.3941,167.168 248.3701,167.168 C245.5771,167.168 244.0021,165.32 244.0021,162.422 L244.0021,161.036 C244.0021,158.054 245.6191,156.332 248.3701,156.332 C251.1421,156.332 252.7381,158.033 252.7381,161.036 Z M248.3701,165.656 C250.1551,165.656 251.0581,164.207 251.0581,162.422 L251.0581,161.036 C251.0581,159.041 250.0921,157.844 248.3701,157.844 C246.6481,157.844 245.6821,159.062 245.6821,161.036 L245.6821,162.422 C245.6821,164.228 246.4381,165.656 248.3701,165.656 Z M261.3565,159.146 L258.5635,167 L257.0935,167 L254.0485,156.5 L255.8335,156.5 L257.9335,163.871 L260.5795,156.5 L261.9865,156.5 L264.7795,163.934 L266.8795,156.5 L268.6645,156.5 L265.6195,167 L264.1495,167 L261.3565,159.146 Z M269.5759,158.012 L269.5759,156.5 L270.9199,156.5 L270.9199,154.19 L272.5999,154.19 L272.5999,156.5 L275.0149,156.5 L275.0149,158.012 L272.5999,158.012 L272.5999,163.346 C272.5999,164.795 272.7679,165.404 274.1749,165.404 L275.0149,165.404 L275.0149,167 L274.1119,167 C271.6339,167 270.9199,165.95 270.9199,163.766 L270.9199,158.012 L269.5759,158.012 Z M277.3753,167 L277.3753,152.51 L279.0553,152.51 L279.0553,157.529 C279.5803,156.731 280.3153,156.332 281.8693,156.332 C284.1163,156.332 285.6913,157.508 285.6913,160.448 L285.6913,167 L284.0113,167 L284.0113,160.469 C284.0113,158.348 282.8563,157.886 281.6173,157.886 C280.0423,157.886 279.0553,158.999 279.0553,160.448 L279.0553,167 L277.3753,167 Z" id="2016-Sales-Growth" fill="#02AAE6"></path>
            </g>
        </g>
    </g>
</svg>