<?xml version="1.0" encoding="UTF-8"?>
<svg width="317px" height="221px" viewBox="0 0 317 221" version="1.1" xmlns="http://www.w3.org/2000/svg" xmlns:xlink="http://www.w3.org/1999/xlink">
    <!-- Generator: Sketch 50.2 (55047) - http://www.bohemiancoding.com/sketch -->
    <title>Group 12</title>
    <desc>Created with Sketch.</desc>
    <defs>
        <path d="M101,201 C45.2192403,201 0,156.004617 0,100.5 C0,44.9953826 45.2192403,0 101,0 C156.78076,0 202,44.9953826 202,100.5 C202,156.004617 156.78076,201 101,201 Z M101.276712,158.59726 C133.369752,158.59726 159.386301,132.709506 159.386301,100.775342 C159.386301,68.8411791 133.369752,42.9534247 101.276712,42.9534247 C69.1836725,42.9534247 43.1671233,68.8411791 43.1671233,100.775342 C43.1671233,132.709506 69.1836725,158.59726 101.276712,158.59726 Z" id="path-1"></path>
        <linearGradient x1="50%" y1="84.3038729%" x2="50%" y2="21.520787%" id="linearGradient-3">
            <stop stop-color="#FF8080" offset="0%"></stop>
            <stop stop-color="#FF6060" offset="38.6803294%"></stop>
            <stop stop-color="#C14E4E" offset="100%"></stop>
        </linearGradient>
        <linearGradient x1="50%" y1="-2.48949813e-15%" x2="50%" y2="100%" id="linearGradient-4">
            <stop stop-color="#FF8080" offset="0%"></stop>
            <stop stop-color="#FF4949" offset="100%"></stop>
        </linearGradient>
        <linearGradient x1="4.4408921e-14%" y1="50%" x2="138.507746%" y2="50%" id="linearGradient-5">
            <stop stop-color="#17EAD9" offset="0%"></stop>
            <stop stop-color="#6078EA" offset="100%"></stop>
        </linearGradient>
    </defs>
    <g id="Mobile" stroke="none" stroke-width="1" fill="none" fill-rule="evenodd">
        <g id="iPhone-for-DEv" transform="translate(-34.000000, -2540.000000)">
            <g id="Group-46" transform="translate(-176.000000, 1695.000000)">
                <g id="Group-19" transform="translate(199.000000, 59.000000)">
                    <g id="Group-12" transform="translate(12.000000, 781.000000)">
                        <g id="item7">
                            <g id="Group-2" transform="translate(51.000000, 0.000000)">
                                <mask id="mask-2" fill="white">
                                    <use xlink:href="#path-1"></use>
                                </mask>
                                <g id="Mask"></g>
                                <g mask="url(#mask-2)">
                                    <g transform="translate(28.857143, 5.770335)">
                                        <ellipse id="Oval" fill="#FF7878" opacity="0.605015851" cx="72.284573" cy="93.7111725" rx="72.2242664" ry="71.6584627"></ellipse>
                                        <path d="M71.7322274,177.008228 L71.7322274,76.7225973 L154.493701,76.7225973 C155.639178,82.2073538 156.241107,87.8895198 156.241107,93.7111725 C156.241107,139.71584 118.652486,177.009992 72.284573,177.009992 C72.1003185,177.009992 71.9162027,177.009404 71.7322274,177.008228 Z" id="Combined-Shape" fill="#1E5F6F"></path>
                                        <path d="M46.3914803,68.0294903 C46.4215571,68.0294622 46.4516371,68.0294482 46.4817205,68.0294482 C98.3405711,68.0294482 140.380476,109.740013 140.380476,161.192602 C140.380476,161.412058 140.379711,161.631337 140.378184,161.850436 L102.812634,161.546083 C102.812634,161.546083 100.881808,162.594039 99.9524516,163.174473 C60.0341245,188.105655 46.4817205,211.350323 46.4817205,211.350323 L46.3914803,68.0294873 Z" id="Combined-Shape" fill="url(#linearGradient-3)" transform="translate(93.385978, 139.689886) rotate(-270.000000) translate(-93.385978, -139.689886) "></path>
                                        <path d="M74.9592606,0.0539857557 C125.323924,1.74158806 165.630983,42.7821374 165.630983,93.1631539 C165.630983,123.935495 150.593736,151.223213 127.412085,168.187463 L118.100074,159.956334 L75.5066048,125.085853 L74.9592417,0.0539851214 Z" id="Combined-Shape" fill="url(#linearGradient-4)"></path>
                                    </g>
                                </g>
                            </g>
                            <polygon id="Line" fill="url(#linearGradient-5)" fill-rule="nonzero" points="-0.19165432 103.5 -0.19165432 102.5 90.0533816 102.5 90.0533816 103.5"></polygon>
                            <path d="M12,119.675 C12,120.495004 11.8575014,121.247497 11.5725,121.9325 C11.2874986,122.617503 10.8950025,123.207498 10.395,123.7025 C9.8949975,124.197502 9.30000345,124.582499 8.61,124.8575 C7.91999655,125.132501 7.17000405,125.27 6.36,125.27 C5.54999595,125.27 4.80250342,125.132501 4.1175,124.8575 C3.43249658,124.582499 2.8400025,124.197502 2.34,123.7025 C1.8399975,123.207498 1.4500014,122.617503 1.17,121.9325 C0.8899986,121.247497 0.75,120.495004 0.75,119.675 C0.75,118.844996 0.8899986,118.087503 1.17,117.4025 C1.4500014,116.717497 1.8399975,116.132502 2.34,115.6475 C2.8400025,115.162498 3.43249658,114.785001 4.1175,114.515 C4.80250342,114.244999 5.54999595,114.11 6.36,114.11 C7.17000405,114.11 7.91999655,114.244999 8.61,114.515 C9.30000345,114.785001 9.8949975,115.162498 10.395,115.6475 C10.8950025,116.132502 11.2874986,116.717497 11.5725,117.4025 C11.8575014,118.087503 12,118.844996 12,119.675 Z M10.395,119.675 C10.395,119.094997 10.3000009,118.547503 10.11,118.0325 C9.91999905,117.517497 9.65000175,117.065002 9.3,116.675 C8.94999825,116.284998 8.52750248,115.977501 8.0325,115.7525 C7.53749753,115.527499 6.9800031,115.415 6.36,115.415 C5.74999695,115.415 5.19750248,115.527499 4.7025,115.7525 C4.20749753,115.977501 3.78750173,116.284998 3.4425,116.675 C3.09749827,117.065002 2.83000095,117.517497 2.64,118.0325 C2.44999905,118.547503 2.355,119.094997 2.355,119.675 C2.355,120.265003 2.44999905,120.819997 2.64,121.34 C2.83000095,121.860003 3.09999825,122.312498 3.45,122.6975 C3.80000175,123.082502 4.21999755,123.384999 4.71,123.605 C5.20000245,123.825001 5.74999695,123.935 6.36,123.935 C6.97000305,123.935 7.5249975,123.825001 8.025,123.605 C8.5250025,123.384999 8.94999825,123.082502 9.3,122.6975 C9.65000175,122.312498 9.91999905,121.860003 10.11,121.34 C10.3000009,120.819997 10.395,120.265003 10.395,119.675 Z M17.6383333,119.045 L15.7483333,119.045 L15.7483333,122.75 C15.7483333,123.180002 15.8283325,123.487499 15.9883333,123.6725 C16.1483341,123.857501 16.4033315,123.95 16.7533333,123.95 C16.883334,123.95 17.0233325,123.935 17.1733333,123.905 C17.323334,123.875 17.4583327,123.83 17.5783333,123.77 L17.6233333,124.925 C17.4533325,124.985 17.2658343,125.0325 17.0608333,125.0675 C16.8558323,125.1025 16.6433344,125.12 16.4233333,125.12 C15.7533299,125.12 15.2408351,124.935002 14.8858333,124.565 C14.5308315,124.194998 14.3533333,123.640004 14.3533333,122.9 L14.3533333,119.045 L12.9883333,119.045 L12.9883333,117.89 L14.3533333,117.89 L14.3533333,115.85 L15.7483333,115.85 L15.7483333,117.89 L17.6383333,117.89 L17.6383333,119.045 Z M20.7716666,118.97 C20.9416674,118.619998 21.2316645,118.320001 21.6416666,118.07 C22.0516686,117.819999 22.511664,117.695 23.0216666,117.695 C23.4816689,117.695 23.8766649,117.772499 24.2066666,117.9275 C24.5366682,118.082501 24.8116655,118.289999 25.0316666,118.55 C25.2516677,118.810001 25.4141661,119.114998 25.5191666,119.465 C25.6241671,119.815002 25.6766666,120.189998 25.6766666,120.59 L25.6766666,125 L24.2666666,125 L24.2666666,121.07 C24.2666666,120.779999 24.2441668,120.505001 24.1991666,120.245 C24.1541664,119.984999 24.0716672,119.755001 23.9516666,119.555 C23.831666,119.354999 23.6691676,119.195001 23.4641666,119.075 C23.2591656,118.954999 22.9916682,118.895 22.6616666,118.895 C22.1016638,118.895 21.6416684,119.107498 21.2816666,119.5325 C20.9216648,119.957502 20.7416666,120.524996 20.7416666,121.235 L20.7416666,125 L19.3316666,125 L19.3316666,113.66 L20.7416666,113.66 L20.7416666,118.97 L20.7716666,118.97 Z M33.4749999,120.815 C33.4649998,120.534999 33.4175003,120.272501 33.3324999,120.0275 C33.2474995,119.782499 33.1225007,119.570001 32.9574999,119.39 C32.7924991,119.209999 32.5875011,119.067501 32.3424999,118.9625 C32.0974987,118.857499 31.8100015,118.805 31.4799999,118.805 C31.1799984,118.805 30.8975012,118.857499 30.6324999,118.9625 C30.3674986,119.067501 30.1375009,119.209999 29.9424999,119.39 C29.7474989,119.570001 29.5875005,119.782499 29.4624999,120.0275 C29.3374993,120.272501 29.265,120.534999 29.2449999,120.815 L33.4749999,120.815 Z M34.8999999,121.385 L34.8999999,121.625 C34.8999999,121.705 34.8949999,121.785 34.8849999,121.865 L29.2449999,121.865 C29.2549999,122.165002 29.3224993,122.447499 29.4474999,122.7125 C29.5725005,122.977501 29.7399988,123.207499 29.9499999,123.4025 C30.1600009,123.597501 30.4024985,123.749999 30.6774999,123.86 C30.9525013,123.970001 31.2449983,124.025 31.5549999,124.025 C32.0350023,124.025 32.4499981,123.920001 32.7999999,123.71 C33.1500016,123.499999 33.4249989,123.245002 33.6249999,122.945 L34.6149999,123.74 C34.234998,124.240003 33.7875025,124.607499 33.2724999,124.8425 C32.7574973,125.077501 32.185003,125.195 31.5549999,125.195 C31.0149972,125.195 30.5150022,125.105001 30.0549999,124.925 C29.5949976,124.744999 29.2000015,124.492502 28.8699999,124.1675 C28.5399982,123.842498 28.2800009,123.450002 28.0899999,122.99 C27.8999989,122.529998 27.8049999,122.020003 27.8049999,121.46 C27.8049999,120.909997 27.897499,120.402502 28.0824999,119.9375 C28.2675008,119.472498 28.5249982,119.075002 28.8549999,118.745 C29.1850015,118.414998 29.5749977,118.157501 30.0249999,117.9725 C30.4750021,117.787499 30.9599973,117.695 31.4799999,117.695 C32.0000025,117.695 32.4724978,117.779999 32.8974999,117.95 C33.322502,118.120001 33.6824984,118.364998 33.9774999,118.685 C34.2725014,119.005002 34.4999991,119.392498 34.6599999,119.8475 C34.8200007,120.302502 34.8999999,120.814997 34.8999999,121.385 Z M37.0733332,119.42 C37.0733332,119.229999 37.0683332,118.985001 37.0583332,118.685 C37.0483331,118.384998 37.0333333,118.120001 37.0133332,117.89 L38.3483332,117.89 C38.3683333,118.070001 38.3833331,118.277499 38.3933332,118.5125 C38.4033332,118.747501 38.4083332,118.939999 38.4083332,119.09 L38.4533332,119.09 C38.6533342,118.669998 38.9458313,118.332501 39.3308332,118.0775 C39.7158351,117.822499 40.1483308,117.695 40.6283332,117.695 C40.8483343,117.695 41.0333324,117.715 41.1833332,117.755 L41.1233332,119.06 C40.9233322,119.01 40.7083343,118.985 40.4783332,118.985 C40.1383315,118.985 39.8433345,119.047499 39.5933332,119.1725 C39.3433319,119.297501 39.135834,119.464999 38.9708332,119.675 C38.8058324,119.885001 38.6833336,120.127499 38.6033332,120.4025 C38.5233328,120.677501 38.4833332,120.964999 38.4833332,121.265 L38.4833332,125 L37.0733332,125 L37.0733332,119.42 Z M6.78,140.54 L6.81,140.54 L9.945,132.38 L12.255,132.38 L12.255,143 L10.77,143 L10.77,134.12 L10.74,134.12 L7.215,143 L6.27,143 L2.76,134.12 L2.73,134.12 L2.73,143 L1.29,143 L1.29,132.38 L3.6,132.38 L6.78,140.54 Z M20.1733333,138.815 C20.1633333,138.534999 20.1158337,138.272501 20.0308333,138.0275 C19.9458329,137.782499 19.8208341,137.570001 19.6558333,137.39 C19.4908325,137.209999 19.2858345,137.067501 19.0408333,136.9625 C18.7958321,136.857499 18.5083349,136.805 18.1783333,136.805 C17.8783318,136.805 17.5958346,136.857499 17.3308333,136.9625 C17.065832,137.067501 16.8358343,137.209999 16.6408333,137.39 C16.4458323,137.570001 16.2858339,137.782499 16.1608333,138.0275 C16.0358327,138.272501 15.9633334,138.534999 15.9433333,138.815 L20.1733333,138.815 Z M21.5983333,139.385 L21.5983333,139.625 C21.5983333,139.705 21.5933334,139.785 21.5833333,139.865 L15.9433333,139.865 C15.9533334,140.165001 16.0208327,140.447499 16.1458333,140.7125 C16.2708339,140.977501 16.4383323,141.207499 16.6483333,141.4025 C16.8583343,141.597501 17.1008319,141.749999 17.3758333,141.86 C17.6508347,141.970001 17.9433317,142.025 18.2533333,142.025 C18.7333357,142.025 19.1483316,141.920001 19.4983333,141.71 C19.8483351,141.499999 20.1233323,141.245002 20.3233333,140.945 L21.3133333,141.74 C20.9333314,142.240003 20.4858359,142.607499 19.9708333,142.8425 C19.4558307,143.077501 18.8833365,143.195 18.2533333,143.195 C17.7133306,143.195 17.2133356,143.105001 16.7533333,142.925 C16.293331,142.744999 15.898335,142.492502 15.5683333,142.1675 C15.2383317,141.842498 14.9783343,141.450002 14.7883333,140.99 C14.5983324,140.529998 14.5033333,140.020003 14.5033333,139.46 C14.5033333,138.909997 14.5958324,138.402502 14.7808333,137.9375 C14.9658342,137.472498 15.2233317,137.075002 15.5533333,136.745 C15.883335,136.414998 16.2733311,136.157501 16.7233333,135.9725 C17.1733356,135.787499 17.6583307,135.695 18.1783333,135.695 C18.6983359,135.695 19.1708312,135.779999 19.5958333,135.95 C20.0208354,136.120001 20.3808318,136.364998 20.6758333,136.685 C20.9708348,137.005002 21.1983325,137.392498 21.3583333,137.8475 C21.5183341,138.302502 21.5983333,138.814997 21.5983333,139.385 Z M23.7716666,137.42 C23.7716666,137.229999 23.7666666,136.985002 23.7566666,136.685 C23.7466666,136.384998 23.7316667,136.120001 23.7116666,135.89 L25.0466666,135.89 C25.0666667,136.070001 25.0816666,136.277499 25.0916666,136.5125 C25.1016666,136.747501 25.1066666,136.939999 25.1066666,137.09 L25.1516666,137.09 C25.3516676,136.669998 25.6441647,136.332501 26.0291666,136.0775 C26.4141685,135.822499 26.8466642,135.695 27.3266666,135.695 C27.5466677,135.695 27.7316658,135.715 27.8816666,135.755 L27.8216666,137.06 C27.6216656,137.01 27.4066677,136.985 27.1766666,136.985 C26.8366649,136.985 26.5416678,137.047499 26.2916666,137.1725 C26.0416653,137.297501 25.8341674,137.464999 25.6691666,137.675 C25.5041658,137.885001 25.381667,138.127499 25.3016666,138.4025 C25.2216662,138.677501 25.1816666,138.964999 25.1816666,139.265 L25.1816666,143 L23.7716666,143 L23.7716666,137.42 Z M34.1199999,137.69 C33.9699991,137.459999 33.7450014,137.267501 33.4449999,137.1125 C33.1449984,136.957499 32.8250016,136.88 32.4849999,136.88 C32.114998,136.88 31.7875013,136.949999 31.5024999,137.09 C31.2174985,137.230001 30.9750009,137.417499 30.7749999,137.6525 C30.5749989,137.887501 30.4225004,138.159998 30.3174999,138.47 C30.2124994,138.780002 30.1599999,139.104998 30.1599999,139.445 C30.1599999,139.785002 30.2124994,140.109998 30.3174999,140.42 C30.4225004,140.730002 30.5749989,141.002499 30.7749999,141.2375 C30.9750009,141.472501 31.2199984,141.659999 31.5099999,141.8 C31.8000013,141.940001 32.129998,142.01 32.4999999,142.01 C32.8600017,142.01 33.1874984,141.940001 33.4824999,141.8 C33.7775014,141.659999 34.019999,141.470001 34.2099999,141.23 L35.1549999,142.085 C34.8549984,142.435002 34.4800021,142.707499 34.0299999,142.9025 C33.5799976,143.097501 33.0700028,143.195 32.4999999,143.195 C31.9499971,143.195 31.4425022,143.105001 30.9774999,142.925 C30.5124976,142.744999 30.1100016,142.492502 29.7699999,142.1675 C29.4299982,141.842498 29.1625009,141.450002 28.9674999,140.99 C28.7724989,140.529998 28.6749999,140.015003 28.6749999,139.445 C28.6749999,138.884997 28.7699989,138.375002 28.9599999,137.915 C29.1500008,137.454998 29.4149982,137.060002 29.7549999,136.73 C30.0950016,136.399998 30.4974976,136.145001 30.9624999,135.965 C31.4275022,135.784999 31.9299972,135.695 32.4699999,135.695 C32.9700024,135.695 33.4674974,135.794999 33.9624999,135.995 C34.4575024,136.195001 34.8499985,136.484998 35.1399999,136.865 L34.1199999,137.69 Z M38.2283332,136.97 C38.3983341,136.619998 38.6883311,136.320001 39.0983332,136.07 C39.5083353,135.819999 39.9683306,135.695 40.4783332,135.695 C40.9383355,135.695 41.3333315,135.772499 41.6633332,135.9275 C41.9933349,136.082501 42.2683321,136.289999 42.4883332,136.55 C42.7083343,136.810001 42.8708327,137.114998 42.9758332,137.465 C43.0808337,137.815002 43.1333332,138.189998 43.1333332,138.59 L43.1333332,143 L41.7233332,143 L41.7233332,139.07 C41.7233332,138.779999 41.7008334,138.505001 41.6558332,138.245 C41.610833,137.984999 41.5283338,137.755001 41.4083332,137.555 C41.2883326,137.354999 41.1258342,137.195001 40.9208332,137.075 C40.7158322,136.954999 40.4483349,136.895 40.1183332,136.895 C39.5583304,136.895 39.098335,137.107498 38.7383332,137.5325 C38.3783314,137.957502 38.1983332,138.524996 38.1983332,139.235 L38.1983332,143 L36.7883332,143 L36.7883332,131.66 L38.1983332,131.66 L38.1983332,136.97 L38.2283332,136.97 Z M50.1516665,138.395 C50.1516665,137.864997 49.9916681,137.472501 49.6716665,137.2175 C49.3516649,136.962499 48.9266691,136.835 48.3966665,136.835 C47.9966645,136.835 47.6191683,136.912499 47.2641665,137.0675 C46.9091647,137.222501 46.6116677,137.419999 46.3716665,137.66 L45.6216665,136.76 C45.9716682,136.429998 46.399164,136.170001 46.9041665,135.98 C47.409169,135.789999 47.9516636,135.695 48.5316665,135.695 C49.0416691,135.695 49.4841646,135.767499 49.8591665,135.9125 C50.2341684,136.057501 50.5416653,136.254999 50.7816665,136.505 C51.0216677,136.755001 51.2016659,137.049998 51.3216665,137.39 C51.4416671,137.730002 51.5016665,138.094998 51.5016665,138.485 L51.5016665,141.59 C51.5016665,141.830001 51.5091664,142.082499 51.5241665,142.3475 C51.5391666,142.612501 51.5666663,142.829999 51.6066665,143 L50.3316665,143 C50.2516661,142.659998 50.2116665,142.320002 50.2116665,141.98 L50.1666665,141.98 C49.9066652,142.360002 49.5791685,142.654999 49.1841665,142.865 C48.7891645,143.075001 48.3216692,143.18 47.7816665,143.18 C47.5016651,143.18 47.209168,143.1425 46.9041665,143.0675 C46.599165,142.9925 46.3216678,142.870001 46.0716665,142.7 C45.8216652,142.529999 45.6141673,142.305001 45.4491665,142.025 C45.2841657,141.744999 45.2016665,141.400002 45.2016665,140.99 C45.2016665,140.449997 45.346665,140.022502 45.6366665,139.7075 C45.9266679,139.392498 46.3066642,139.152501 46.7766665,138.9875 C47.2466688,138.822499 47.7766635,138.715 48.3666665,138.665 C48.9566694,138.615 49.5516635,138.59 50.1516665,138.59 L50.1516665,138.395 Z M49.8066665,139.61 C49.4566648,139.61 49.0941684,139.625 48.7191665,139.655 C48.3441646,139.685 48.004168,139.745 47.6991665,139.835 C47.394165,139.925 47.1416675,140.059999 46.9416665,140.24 C46.7416655,140.420001 46.6416665,140.659999 46.6416665,140.96 C46.6416665,141.170001 46.6841661,141.344999 46.7691665,141.485 C46.8541669,141.625001 46.9666658,141.74 47.1066665,141.83 C47.2466672,141.92 47.4016656,141.9825 47.5716665,142.0175 C47.7416673,142.0525 47.9166656,142.07 48.0966665,142.07 C48.7566698,142.07 49.2641647,141.872502 49.6191665,141.4775 C49.9741683,141.082498 50.1516665,140.585003 50.1516665,139.985 L50.1516665,139.61 L49.8066665,139.61 Z M55.3399998,135.89 C55.3599999,136.070001 55.3749997,136.272499 55.3849998,136.4975 C55.3949998,136.722501 55.3999998,136.909999 55.3999998,137.06 L55.4449998,137.06 C55.5350002,136.869999 55.657499,136.692501 55.8124998,136.5275 C55.9675006,136.362499 56.1449988,136.217501 56.3449998,136.0925 C56.5450008,135.967499 56.7649986,135.87 57.0049998,135.8 C57.245001,135.73 57.4949985,135.695 57.7549998,135.695 C58.2150021,135.695 58.6099981,135.772499 58.9399998,135.9275 C59.2700014,136.082501 59.5449987,136.289999 59.7649998,136.55 C59.9850009,136.810001 60.1474993,137.114998 60.2524998,137.465 C60.3575003,137.815002 60.4099998,138.189998 60.4099998,138.59 L60.4099998,143 L58.9999998,143 L58.9999998,139.055 C58.9999998,138.764999 58.9775,138.490001 58.9324998,138.23 C58.8874996,137.969999 58.8050004,137.740001 58.6849998,137.54 C58.5649992,137.339999 58.4000008,137.180001 58.1899998,137.06 C57.9799987,136.939999 57.7100014,136.88 57.3799998,136.88 C56.819997,136.88 56.3625016,137.092498 56.0074998,137.5175 C55.652498,137.942502 55.4749998,138.509996 55.4749998,139.22 L55.4749998,143 L54.0649998,143 L54.0649998,137.42 C54.0649998,137.229999 54.0599998,136.985002 54.0499998,136.685 C54.0399997,136.384998 54.0249999,136.120001 54.0049998,135.89 L55.3399998,135.89 Z M66.4833331,137.045 L64.5933331,137.045 L64.5933331,140.75 C64.5933331,141.180002 64.6733323,141.487499 64.8333331,141.6725 C64.9933339,141.857501 65.2483313,141.95 65.5983331,141.95 C65.7283337,141.95 65.8683323,141.935 66.0183331,141.905 C66.1683338,141.875 66.3033325,141.83 66.4233331,141.77 L66.4683331,142.925 C66.2983322,142.985 66.1108341,143.0325 65.9058331,143.0675 C65.7008321,143.1025 65.4883342,143.12 65.2683331,143.12 C64.5983297,143.12 64.0858349,142.935002 63.7308331,142.565 C63.3758313,142.194998 63.1983331,141.640004 63.1983331,140.9 L63.1983331,137.045 L61.8333331,137.045 L61.8333331,135.89 L63.1983331,135.89 L63.1983331,133.85 L64.5933331,133.85 L64.5933331,135.89 L66.4833331,135.89 L66.4833331,137.045 Z M71.9866664,137.69 C71.8266656,137.429999 71.6016678,137.217501 71.3116664,137.0525 C71.0216649,136.887499 70.6966682,136.805 70.3366664,136.805 C70.1766656,136.805 70.0166672,136.8225 69.8566664,136.8575 C69.6966656,136.8925 69.554167,136.9475 69.4291664,137.0225 C69.3041658,137.0975 69.2041668,137.192499 69.1291664,137.3075 C69.054166,137.422501 69.0166664,137.564999 69.0166664,137.735 C69.0166664,138.035001 69.151665,138.257499 69.4216664,138.4025 C69.6916677,138.547501 70.0966637,138.679999 70.6366664,138.8 C70.9766681,138.88 71.2916649,138.974999 71.5816664,139.085 C71.8716678,139.195001 72.1241653,139.332499 72.3391664,139.4975 C72.5541675,139.662501 72.7216658,139.859999 72.8416664,140.09 C72.961667,140.320001 73.0216664,140.589998 73.0216664,140.9 C73.0216664,141.320002 72.9416672,141.674999 72.7816664,141.965 C72.6216656,142.255001 72.4091677,142.492499 72.1441664,142.6775 C71.8791651,142.862501 71.5766681,142.995 71.2366664,143.075 C70.8966647,143.155 70.5466682,143.195 70.1866664,143.195 C69.6466637,143.195 69.119169,143.090001 68.6041664,142.88 C68.0891638,142.669999 67.6616681,142.350002 67.3216664,141.92 L68.3266664,141.065 C68.5166674,141.345001 68.7791647,141.579999 69.1141664,141.77 C69.4491681,141.960001 69.8166644,142.055 70.2166664,142.055 C70.3966673,142.055 70.5691656,142.0375 70.7341664,142.0025 C70.8991672,141.9675 71.0491657,141.91 71.1841664,141.83 C71.3191671,141.75 71.426666,141.645001 71.5066664,141.515 C71.5866668,141.384999 71.6266664,141.220001 71.6266664,141.02 C71.6266664,140.689998 71.469168,140.445001 71.1541664,140.285 C70.8391648,140.124999 70.3766694,139.975001 69.7666664,139.835 C69.5266652,139.775 69.2841676,139.7025 69.0391664,139.6175 C68.7941652,139.5325 68.5716674,139.415001 68.3716664,139.265 C68.1716654,139.114999 68.009167,138.927501 67.8841664,138.7025 C67.7591658,138.477499 67.6966664,138.200002 67.6966664,137.87 C67.6966664,137.489998 67.7741656,137.162501 67.9291664,136.8875 C68.0841672,136.612499 68.2866652,136.387501 68.5366664,136.2125 C68.7866677,136.037499 69.0716648,135.9075 69.3916664,135.8225 C69.711668,135.7375 70.0416647,135.695 70.3816664,135.695 C70.8916689,135.695 71.384164,135.794999 71.8591664,135.995 C72.3341688,136.195001 72.7016651,136.484998 72.9616664,136.865 L71.9866664,137.69 Z" id="Other-Merchants" fill="#FFFFFF"></path>
                            <polygon id="Path-2" fill="url(#linearGradient-5)" fill-rule="nonzero" points="234 90.5 234 89.5 314 89.5 314 90.5"></polygon>
                            <path d="M258.725,111 L257.075,111 L261.68,100.38 L263.03,100.38 L267.59,111 L265.91,111 L264.83,108.39 L259.79,108.39 L258.725,111 Z M260.315,107.085 L264.29,107.085 L262.31,102.105 L260.315,107.085 Z M270.468333,105.06 C270.648334,104.679998 270.935831,104.357501 271.330833,104.0925 C271.725835,103.827499 272.193331,103.695 272.733333,103.695 C273.213336,103.695 273.645831,103.804999 274.030833,104.025 C274.415835,104.245001 274.718332,104.609997 274.938333,105.12 C275.178335,104.659998 275.513331,104.307501 275.943333,104.0625 C276.373335,103.817499 276.843331,103.695 277.353333,103.695 C277.813336,103.695 278.208332,103.772499 278.538333,103.9275 C278.868335,104.082501 279.143332,104.289999 279.363333,104.55 C279.583334,104.810001 279.745833,105.114998 279.850833,105.465 C279.955834,105.815002 280.008333,106.189998 280.008333,106.59 L280.008333,111 L278.598333,111 L278.598333,107.055 C278.598333,106.764999 278.573334,106.490001 278.523333,106.23 C278.473333,105.969999 278.388334,105.740001 278.268333,105.54 C278.148333,105.339999 277.988334,105.180001 277.788333,105.06 C277.588332,104.939999 277.333335,104.88 277.023333,104.88 C276.703332,104.88 276.428334,104.947499 276.198333,105.0825 C275.968332,105.217501 275.780834,105.392499 275.635833,105.6075 C275.490833,105.822501 275.385834,106.064999 275.320833,106.335 C275.255833,106.605001 275.223333,106.879999 275.223333,107.16 L275.223333,111 L273.813333,111 L273.813333,106.77 C273.813333,106.489999 273.788334,106.235001 273.738333,106.005 C273.688333,105.774999 273.603334,105.577501 273.483333,105.4125 C273.363333,105.247499 273.208334,105.1175 273.018333,105.0225 C272.828332,104.9275 272.593335,104.88 272.313333,104.88 C271.793331,104.88 271.360835,105.092498 271.015833,105.5175 C270.670832,105.942502 270.498333,106.509996 270.498333,107.22 L270.498333,111 L269.088333,111 L269.088333,105.42 C269.088333,105.229999 269.083333,104.985001 269.073333,104.685 C269.063333,104.384998 269.048333,104.120001 269.028333,103.89 L270.363333,103.89 C270.383333,104.070001 270.398333,104.272499 270.408333,104.4975 C270.418333,104.722501 270.423333,104.909999 270.423333,105.06 L270.468333,105.06 Z M287.026667,106.395 C287.026667,105.864997 286.866668,105.472501 286.546667,105.2175 C286.226665,104.962499 285.801669,104.835 285.271667,104.835 C284.871665,104.835 284.494168,104.912499 284.139167,105.0675 C283.784165,105.222501 283.486668,105.419999 283.246667,105.66 L282.496667,104.76 C282.846668,104.429998 283.274164,104.170001 283.779167,103.98 C284.284169,103.789999 284.826664,103.695 285.406667,103.695 C285.916669,103.695 286.359165,103.767499 286.734167,103.9125 C287.109168,104.057501 287.416665,104.254999 287.656667,104.505 C287.896668,104.755001 288.076666,105.049998 288.196667,105.39 C288.316667,105.730002 288.376667,106.094998 288.376667,106.485 L288.376667,109.59 C288.376667,109.830001 288.384167,110.082499 288.399167,110.3475 C288.414167,110.612501 288.441666,110.829999 288.481667,111 L287.206667,111 C287.126666,110.659998 287.086667,110.320002 287.086667,109.98 L287.041667,109.98 C286.781665,110.360002 286.454169,110.654999 286.059167,110.865 C285.664165,111.075001 285.196669,111.18 284.656667,111.18 C284.376665,111.18 284.084168,111.1425 283.779167,111.0675 C283.474165,110.9925 283.196668,110.870001 282.946667,110.7 C282.696665,110.529999 282.489167,110.305001 282.324167,110.025 C282.159166,109.744999 282.076667,109.400002 282.076667,108.99 C282.076667,108.449997 282.221665,108.022502 282.511667,107.7075 C282.801668,107.392498 283.181664,107.152501 283.651667,106.9875 C284.121669,106.822499 284.651664,106.715 285.241667,106.665 C285.83167,106.615 286.426664,106.59 287.026667,106.59 L287.026667,106.395 Z M286.681667,107.61 C286.331665,107.61 285.969168,107.625 285.594167,107.655 C285.219165,107.685 284.879168,107.745 284.574167,107.835 C284.269165,107.925 284.016668,108.059999 283.816667,108.24 C283.616666,108.420001 283.516667,108.659999 283.516667,108.96 C283.516667,109.170001 283.559166,109.344999 283.644167,109.485 C283.729167,109.625001 283.841666,109.74 283.981667,109.83 C284.121667,109.92 284.276666,109.9825 284.446667,110.0175 C284.616667,110.0525 284.791666,110.07 284.971667,110.07 C285.63167,110.07 286.139165,109.872502 286.494167,109.4775 C286.849168,109.082498 287.026667,108.585003 287.026667,107.985 L287.026667,107.61 L286.681667,107.61 Z M296.01,105.045 L291.96,109.815 L296.175,109.815 L296.175,111 L290.22,111 L290.22,109.845 L294.24,105.045 L290.415,105.045 L290.415,103.89 L296.01,103.89 L296.01,105.045 Z M305.278333,107.43 C305.278333,107.980003 305.180834,108.484998 304.985833,108.945 C304.790832,109.405002 304.520835,109.802498 304.175833,110.1375 C303.830831,110.472502 303.423336,110.732499 302.953333,110.9175 C302.483331,111.102501 301.978336,111.195 301.438333,111.195 C300.89833,111.195 300.393336,111.102501 299.923333,110.9175 C299.453331,110.732499 299.048335,110.472502 298.708333,110.1375 C298.368332,109.802498 298.100834,109.405002 297.905833,108.945 C297.710832,108.484998 297.613333,107.980003 297.613333,107.43 C297.613333,106.879997 297.710832,106.377502 297.905833,105.9225 C298.100834,105.467498 298.368332,105.075002 298.708333,104.745 C299.048335,104.414998 299.453331,104.157501 299.923333,103.9725 C300.393336,103.787499 300.89833,103.695 301.438333,103.695 C301.978336,103.695 302.483331,103.787499 302.953333,103.9725 C303.423336,104.157501 303.830831,104.414998 304.175833,104.745 C304.520835,105.075002 304.790832,105.467498 304.985833,105.9225 C305.180834,106.377502 305.278333,106.879997 305.278333,107.43 Z M303.808333,107.43 C303.808333,107.089998 303.755834,106.765002 303.650833,106.455 C303.545833,106.144998 303.393334,105.872501 303.193333,105.6375 C302.993332,105.402499 302.745835,105.215001 302.450833,105.075 C302.155832,104.934999 301.818335,104.865 301.438333,104.865 C301.058331,104.865 300.720835,104.934999 300.425833,105.075 C300.130832,105.215001 299.883334,105.402499 299.683333,105.6375 C299.483332,105.872501 299.330834,106.144998 299.225833,106.455 C299.120833,106.765002 299.068333,107.089998 299.068333,107.43 C299.068333,107.770002 299.120833,108.094998 299.225833,108.405 C299.330834,108.715002 299.483332,108.989999 299.683333,109.23 C299.883334,109.470001 300.130832,109.659999 300.425833,109.8 C300.720835,109.940001 301.058331,110.01 301.438333,110.01 C301.818335,110.01 302.155832,109.940001 302.450833,109.8 C302.745835,109.659999 302.993332,109.470001 303.193333,109.23 C303.393334,108.989999 303.545833,108.715002 303.650833,108.405 C303.755834,108.094998 303.808333,107.770002 303.808333,107.43 Z M308.711666,103.89 C308.731667,104.070001 308.746666,104.272499 308.756666,104.4975 C308.766667,104.722501 308.771666,104.909999 308.771666,105.06 L308.816666,105.06 C308.906667,104.869999 309.029166,104.692501 309.184167,104.5275 C309.339167,104.362499 309.516665,104.217501 309.716666,104.0925 C309.916668,103.967499 310.136665,103.87 310.376666,103.8 C310.616668,103.73 310.866665,103.695 311.126666,103.695 C311.586669,103.695 311.981665,103.772499 312.311667,103.9275 C312.641668,104.082501 312.916665,104.289999 313.136666,104.55 C313.356668,104.810001 313.519166,105.114998 313.624167,105.465 C313.729167,105.815002 313.781667,106.189998 313.781667,106.59 L313.781667,111 L312.371667,111 L312.371667,107.055 C312.371667,106.764999 312.349167,106.490001 312.304167,106.23 C312.259166,105.969999 312.176667,105.740001 312.056667,105.54 C311.936666,105.339999 311.771668,105.180001 311.561667,105.06 C311.351665,104.939999 311.081668,104.88 310.751666,104.88 C310.191664,104.88 309.734168,105.092498 309.379166,105.5175 C309.024165,105.942502 308.846666,106.509996 308.846666,107.22 L308.846666,111 L307.436667,111 L307.436667,105.42 C307.436667,105.229999 307.431667,104.985001 307.421667,104.685 C307.411666,104.384998 307.396667,104.120001 307.376666,103.89 L308.711666,103.89 Z" id="Amazon" fill="#FFFFFF"></path>
                            <path d="M288.284,71.554 L290.26,71.554 L290.26,72.751 L288.284,72.751 L288.284,76 L286.954,76 L286.954,72.751 L280.798,72.751 L280.798,71.421 L286.498,62.548 L288.284,62.548 L288.284,71.554 Z M286.954,64.087 L286.916,64.087 L282.223,71.554 L286.954,71.554 L286.954,64.087 Z M294.411173,68.362 L295.000173,68.362 C295.430842,68.362 295.836171,68.3176671 296.216173,68.229 C296.596175,68.1403329 296.928671,67.9978343 297.213673,67.8015 C297.498674,67.6051657 297.723505,67.3486683 297.888173,67.032 C298.05284,66.7153318 298.135173,66.3353355 298.135173,65.892 C298.135173,65.5119981 298.065507,65.1668349 297.926173,64.8565 C297.786839,64.5461651 297.593674,64.2801678 297.346673,64.0585 C297.099672,63.8368322 296.814674,63.6658339 296.491673,63.5455 C296.168671,63.4251661 295.829841,63.365 295.475173,63.365 C294.90517,63.365 294.401675,63.4979987 293.964673,63.764 C293.527671,64.0300013 293.176174,64.4226641 292.910173,64.942 L291.751173,64.334 C292.169175,63.6119964 292.70117,63.0768351 293.347173,62.7285 C293.993176,62.3801649 294.727835,62.206 295.551173,62.206 C296.083175,62.206 296.58667,62.2851659 297.061673,62.4435 C297.536675,62.6018341 297.954671,62.8329985 298.315673,63.137 C298.676675,63.4410015 298.961672,63.8178311 299.170673,64.2675 C299.379674,64.7171689 299.484173,65.2333304 299.484173,65.816 C299.484173,66.614004 299.262508,67.282164 298.819173,67.8205 C298.375837,68.358836 297.818509,68.7166658 297.147173,68.894 L297.147173,68.932 C297.919843,69.0966675 298.565837,69.4671638 299.085173,70.0435 C299.604509,70.6198362 299.864173,71.3639954 299.864173,72.276 C299.864173,72.9220032 299.747007,73.4951642 299.512673,73.9955 C299.278338,74.4958358 298.964841,74.9201649 298.572173,75.2685 C298.179504,75.6168351 297.720342,75.8828324 297.194673,76.0665 C296.669004,76.2501676 296.114842,76.342 295.532173,76.342 C294.544168,76.342 293.682843,76.1045024 292.948173,75.6295 C292.213502,75.1544976 291.656175,74.4736711 291.276173,73.587 L292.568173,73.112 C292.796174,73.7580032 293.17617,74.2614982 293.708173,74.6225 C294.240175,74.9835018 294.848169,75.164 295.532173,75.164 C295.912175,75.164 296.282671,75.0975007 296.643673,74.9645 C297.004675,74.8314993 297.321338,74.6415012 297.593673,74.3945 C297.866007,74.1474988 298.084505,73.8466684 298.249173,73.492 C298.41384,73.1373316 298.496173,72.7320023 298.496173,72.276 C298.496173,71.7693308 298.398007,71.3418351 298.201673,70.9935 C298.005338,70.6451649 297.742508,70.3633344 297.413173,70.148 C297.083838,69.9326656 296.710175,69.7775005 296.292173,69.6825 C295.874171,69.5874995 295.443508,69.54 295.000173,69.54 L294.411173,69.54 L294.411173,68.362 Z M308.100346,65.645 C308.100346,66.113669 308.014846,66.5506646 307.843846,66.956 C307.672845,67.3613354 307.435347,67.7128318 307.131346,68.0105 C306.827344,68.3081682 306.472681,68.5424991 306.067346,68.7135 C305.66201,68.8845009 305.225015,68.97 304.756346,68.97 C304.287677,68.97 303.850681,68.8845009 303.445346,68.7135 C303.04001,68.5424991 302.685347,68.3081682 302.381346,68.0105 C302.077344,67.7128318 301.839846,67.3613354 301.668846,66.956 C301.497845,66.5506646 301.412346,66.113669 301.412346,65.645 C301.412346,65.176331 301.497845,64.7393354 301.668846,64.334 C301.839846,63.9286646 302.077344,63.5771682 302.381346,63.2795 C302.685347,62.9818318 303.04001,62.7475009 303.445346,62.5765 C303.850681,62.4054991 304.287677,62.32 304.756346,62.32 C305.225015,62.32 305.66201,62.4054991 306.067346,62.5765 C306.472681,62.7475009 306.827344,62.9818318 307.131346,63.2795 C307.435347,63.5771682 307.672845,63.9286646 307.843846,64.334 C308.014846,64.7393354 308.100346,65.176331 308.100346,65.645 Z M306.960346,65.645 C306.960346,65.3283318 306.90018,65.0370013 306.779846,64.771 C306.659512,64.5049987 306.50118,64.2738343 306.304846,64.0775 C306.108511,63.8811657 305.877347,63.7291672 305.611346,63.6215 C305.345344,63.5138328 305.060347,63.46 304.756346,63.46 C304.452344,63.46 304.167347,63.5138328 303.901346,63.6215 C303.635344,63.7291672 303.40418,63.8811657 303.207846,64.0775 C303.011511,64.2738343 302.85318,64.5049987 302.732846,64.771 C302.612512,65.0370013 302.552346,65.3283318 302.552346,65.645 C302.552346,65.9616683 302.612512,66.2529987 302.732846,66.519 C302.85318,66.7850013 303.011511,67.0161657 303.207846,67.2125 C303.40418,67.4088343 303.635344,67.5608328 303.901346,67.6685 C304.167347,67.7761672 304.452344,67.83 304.756346,67.83 C305.060347,67.83 305.345344,67.7761672 305.611346,67.6685 C305.877347,67.5608328 306.108511,67.4088343 306.304846,67.2125 C306.50118,67.0161657 306.659512,66.7850013 306.779846,66.519 C306.90018,66.2529987 306.960346,65.9616683 306.960346,65.645 Z M315.795346,72.903 C315.795346,73.371669 315.709846,73.8086646 315.538846,74.214 C315.367845,74.6193354 315.130347,74.9708318 314.826346,75.2685 C314.522344,75.5661682 314.167681,75.8004991 313.762346,75.9715 C313.35701,76.1425009 312.920015,76.228 312.451346,76.228 C311.982677,76.228 311.545681,76.1425009 311.140346,75.9715 C310.73501,75.8004991 310.380347,75.5661682 310.076346,75.2685 C309.772344,74.9708318 309.534846,74.6193354 309.363846,74.214 C309.192845,73.8086646 309.107346,73.371669 309.107346,72.903 C309.107346,72.434331 309.192845,71.9973354 309.363846,71.592 C309.534846,71.1866646 309.772344,70.8351682 310.076346,70.5375 C310.380347,70.2398318 310.73501,70.0055009 311.140346,69.8345 C311.545681,69.6634991 311.982677,69.578 312.451346,69.578 C312.920015,69.578 313.35701,69.6634991 313.762346,69.8345 C314.167681,70.0055009 314.522344,70.2398318 314.826346,70.5375 C315.130347,70.8351682 315.367845,71.1866646 315.538846,71.592 C315.709846,71.9973354 315.795346,72.434331 315.795346,72.903 Z M314.655346,72.903 C314.655346,72.5863317 314.59518,72.2950013 314.474846,72.029 C314.354512,71.7629987 314.19618,71.5318343 313.999846,71.3355 C313.803511,71.1391657 313.572347,70.9871672 313.306346,70.8795 C313.040344,70.7718328 312.755347,70.718 312.451346,70.718 C312.147344,70.718 311.862347,70.7718328 311.596346,70.8795 C311.330344,70.9871672 311.09918,71.1391657 310.902846,71.3355 C310.706511,71.5318343 310.54818,71.7629987 310.427846,72.029 C310.307512,72.2950013 310.247346,72.5863317 310.247346,72.903 C310.247346,73.2196682 310.307512,73.5109987 310.427846,73.777 C310.54818,74.0430013 310.706511,74.2741657 310.902846,74.4705 C311.09918,74.6668343 311.330344,74.8188328 311.596346,74.9265 C311.862347,75.0341672 312.147344,75.088 312.451346,75.088 C312.755347,75.088 313.040344,75.0341672 313.306346,74.9265 C313.572347,74.8188328 313.803511,74.6668343 313.999846,74.4705 C314.19618,74.2741657 314.354512,74.0430013 314.474846,73.777 C314.59518,73.5109987 314.655346,73.2196682 314.655346,72.903 Z M304.813346,76.589 L303.825346,76.076 L312.394346,61.959 L313.363346,62.472 L304.813346,76.589 Z" id="43%" fill="#FFFFFF"></path>
                            <path d="M10.025,77.764 L4.42,77.764 L4.325,81.925 C4.61633479,81.8236662 4.92349839,81.7476669 5.2465,81.697 C5.56950162,81.6463331 5.88299848,81.621 6.187,81.621 C6.8203365,81.621 7.40299734,81.7223323 7.935,81.925 C8.46700266,82.1276677 8.92933137,82.4158315 9.322,82.7895 C9.71466863,83.1631685 10.0186656,83.6096641 10.234,84.129 C10.4493344,84.6483359 10.557,85.2183302 10.557,85.839 C10.557,86.4850032 10.4493344,87.0834972 10.234,87.6345 C10.0186656,88.1855028 9.71466863,88.660498 9.322,89.0595 C8.92933137,89.458502 8.45750276,89.7719989 7.9065,90 C7.35549725,90.2280011 6.75066996,90.342 6.092,90.342 C5.11666179,90.342 4.29333669,90.1203355 3.622,89.677 C2.95066331,89.2336644 2.43133517,88.6383371 2.064,87.891 L3.299,87.34 C3.53966787,87.8973361 3.9038309,88.340665 4.3915,88.67 C4.8791691,88.999335 5.42066369,89.164 6.016,89.164 C6.47200228,89.164 6.89316473,89.0848341 7.2795,88.9265 C7.66583527,88.7681659 7.99833194,88.5465014 8.277,88.2615 C8.55566806,87.9764986 8.77416587,87.6376686 8.9325,87.245 C9.09083413,86.8523314 9.17,86.4280023 9.17,85.972 C9.17,85.4779975 9.08450085,85.031502 8.9135,84.6325 C8.74249915,84.233498 8.50816815,83.8946681 8.2105,83.616 C7.91283185,83.3373319 7.56133536,83.1220008 7.156,82.97 C6.75066464,82.8179992 6.30733574,82.742 5.826,82.742 C5.34466426,82.742 4.86650237,82.8084993 4.3915,82.9415 C3.91649762,83.0745007 3.46366882,83.2549989 3.033,83.483 L3.166,76.548 L10.025,76.548 L10.025,77.764 Z M16.8551728,76.206 C17.691177,76.206 18.3910033,76.4118313 18.9546728,76.8235 C19.5183423,77.2351687 19.9711711,77.7734967 20.3131728,78.4385 C20.6551745,79.1035033 20.8990054,79.8603291 21.0446728,80.709 C21.1903402,81.5576709 21.2631728,82.4189956 21.2631728,83.293 C21.2631728,84.1670044 21.1903402,85.0251625 21.0446728,85.8675 C20.8990054,86.7098375 20.6551745,87.4634967 20.3131728,88.1285 C19.9711711,88.7935033 19.5183423,89.3286646 18.9546728,89.734 C18.3910033,90.1393354 17.691177,90.342 16.8551728,90.342 C16.0065019,90.342 15.3003423,90.1393354 14.7366728,89.734 C14.1730033,89.3286646 13.7201745,88.7935033 13.3781728,88.1285 C13.0361711,87.4634967 12.7955068,86.7098375 12.6561728,85.8675 C12.5168388,85.0251625 12.4471728,84.1670044 12.4471728,83.293 C12.4471728,82.4189956 12.5168388,81.5576709 12.6561728,80.709 C12.7955068,79.8603291 13.0361711,79.1035033 13.3781728,78.4385 C13.7201745,77.7734967 14.1730033,77.2351687 14.7366728,76.8235 C15.3003423,76.4118313 16.0065019,76.206 16.8551728,76.206 Z M16.8551728,77.365 C16.2598365,77.365 15.7658414,77.5486648 15.3731728,77.916 C14.9805042,78.2833352 14.6701739,78.7519971 14.4421728,79.322 C14.2141717,79.8920028 14.0558399,80.5284965 13.9671728,81.2315 C13.8785057,81.9345035 13.8341728,82.6216633 13.8341728,83.293 C13.8341728,83.9643367 13.8785057,84.6483298 13.9671728,85.345 C14.0558399,86.0416702 14.2141717,86.6718305 14.4421728,87.2355 C14.6701739,87.7991695 14.9805042,88.2614982 15.3731728,88.6225 C15.7658414,88.9835018 16.2598365,89.164 16.8551728,89.164 C17.4378424,89.164 17.9255042,88.9835018 18.3181728,88.6225 C18.7108414,88.2614982 19.0211717,87.7991695 19.2491728,87.2355 C19.4771739,86.6718305 19.6386723,86.0416702 19.7336728,85.345 C19.8286733,84.6483298 19.8761728,83.9643367 19.8761728,83.293 C19.8761728,82.6216633 19.8286733,81.9345035 19.7336728,81.2315 C19.6386723,80.5284965 19.4771739,79.8920028 19.2491728,79.322 C19.0211717,78.7519971 18.7108414,78.2833352 18.3181728,77.916 C17.9255042,77.5486648 17.4378424,77.365 16.8551728,77.365 Z M29.1003456,79.645 C29.1003456,80.113669 29.0148465,80.5506646 28.8438456,80.956 C28.6728447,81.3613354 28.4353471,81.7128318 28.1313456,82.0105 C27.8273441,82.3081682 27.472681,82.5424991 27.0673456,82.7135 C26.6620102,82.8845009 26.2250146,82.97 25.7563456,82.97 C25.2876766,82.97 24.850681,82.8845009 24.4453456,82.7135 C24.0400102,82.5424991 23.6853471,82.3081682 23.3813456,82.0105 C23.0773441,81.7128318 22.8398465,81.3613354 22.6688456,80.956 C22.4978447,80.5506646 22.4123456,80.113669 22.4123456,79.645 C22.4123456,79.176331 22.4978447,78.7393354 22.6688456,78.334 C22.8398465,77.9286646 23.0773441,77.5771682 23.3813456,77.2795 C23.6853471,76.9818318 24.0400102,76.7475009 24.4453456,76.5765 C24.850681,76.4054991 25.2876766,76.32 25.7563456,76.32 C26.2250146,76.32 26.6620102,76.4054991 27.0673456,76.5765 C27.472681,76.7475009 27.8273441,76.9818318 28.1313456,77.2795 C28.4353471,77.5771682 28.6728447,77.9286646 28.8438456,78.334 C29.0148465,78.7393354 29.1003456,79.176331 29.1003456,79.645 Z M27.9603456,79.645 C27.9603456,79.3283318 27.9001795,79.0370013 27.7798456,78.771 C27.6595117,78.5049987 27.5011799,78.2738343 27.3048456,78.0775 C27.1085113,77.8811657 26.8773469,77.7291672 26.6113456,77.6215 C26.3453443,77.5138328 26.0603471,77.46 25.7563456,77.46 C25.4523441,77.46 25.1673469,77.5138328 24.9013456,77.6215 C24.6353443,77.7291672 24.4041799,77.8811657 24.2078456,78.0775 C24.0115113,78.2738343 23.8531795,78.5049987 23.7328456,78.771 C23.6125117,79.0370013 23.5523456,79.3283318 23.5523456,79.645 C23.5523456,79.9616683 23.6125117,80.2529987 23.7328456,80.519 C23.8531795,80.7850013 24.0115113,81.0161657 24.2078456,81.2125 C24.4041799,81.4088343 24.6353443,81.5608328 24.9013456,81.6685 C25.1673469,81.7761672 25.4523441,81.83 25.7563456,81.83 C26.0603471,81.83 26.3453443,81.7761672 26.6113456,81.6685 C26.8773469,81.5608328 27.1085113,81.4088343 27.3048456,81.2125 C27.5011799,81.0161657 27.6595117,80.7850013 27.7798456,80.519 C27.9001795,80.2529987 27.9603456,79.9616683 27.9603456,79.645 Z M36.7953456,86.903 C36.7953456,87.371669 36.7098465,87.8086646 36.5388456,88.214 C36.3678447,88.6193354 36.1303471,88.9708318 35.8263456,89.2685 C35.5223441,89.5661682 35.167681,89.8004991 34.7623456,89.9715 C34.3570102,90.1425009 33.9200146,90.228 33.4513456,90.228 C32.9826766,90.228 32.545681,90.1425009 32.1403456,89.9715 C31.7350102,89.8004991 31.3803471,89.5661682 31.0763456,89.2685 C30.7723441,88.9708318 30.5348465,88.6193354 30.3638456,88.214 C30.1928447,87.8086646 30.1073456,87.371669 30.1073456,86.903 C30.1073456,86.434331 30.1928447,85.9973354 30.3638456,85.592 C30.5348465,85.1866646 30.7723441,84.8351682 31.0763456,84.5375 C31.3803471,84.2398318 31.7350102,84.0055009 32.1403456,83.8345 C32.545681,83.6634991 32.9826766,83.578 33.4513456,83.578 C33.9200146,83.578 34.3570102,83.6634991 34.7623456,83.8345 C35.167681,84.0055009 35.5223441,84.2398318 35.8263456,84.5375 C36.1303471,84.8351682 36.3678447,85.1866646 36.5388456,85.592 C36.7098465,85.9973354 36.7953456,86.434331 36.7953456,86.903 Z M35.6553456,86.903 C35.6553456,86.5863317 35.5951795,86.2950013 35.4748456,86.029 C35.3545117,85.7629987 35.1961799,85.5318343 34.9998456,85.3355 C34.8035113,85.1391657 34.5723469,84.9871672 34.3063456,84.8795 C34.0403443,84.7718328 33.7553471,84.718 33.4513456,84.718 C33.1473441,84.718 32.8623469,84.7718328 32.5963456,84.8795 C32.3303443,84.9871672 32.0991799,85.1391657 31.9028456,85.3355 C31.7065113,85.5318343 31.5481795,85.7629987 31.4278456,86.029 C31.3075117,86.2950013 31.2473456,86.5863317 31.2473456,86.903 C31.2473456,87.2196682 31.3075117,87.5109987 31.4278456,87.777 C31.5481795,88.0430013 31.7065113,88.2741657 31.9028456,88.4705 C32.0991799,88.6668343 32.3303443,88.8188328 32.5963456,88.9265 C32.8623469,89.0341672 33.1473441,89.088 33.4513456,89.088 C33.7553471,89.088 34.0403443,89.0341672 34.3063456,88.9265 C34.5723469,88.8188328 34.8035113,88.6668343 34.9998456,88.4705 C35.1961799,88.2741657 35.3545117,88.0430013 35.4748456,87.777 C35.5951795,87.5109987 35.6553456,87.2196682 35.6553456,86.903 Z M25.8133456,90.589 L24.8253456,90.076 L33.3943456,75.959 L34.3633456,76.472 L25.8133456,90.589 Z" id="50%" fill="#FFFFFF"></path>
                            <path d="M299.462,173.802 L294.047,186 L292.508,186 L298.075,173.764 L291.482,173.764 L291.482,172.548 L299.462,172.548 L299.462,173.802 Z M307.755173,175.645 C307.755173,176.113669 307.669674,176.550665 307.498673,176.956 C307.327672,177.361335 307.090174,177.712832 306.786173,178.0105 C306.482171,178.308168 306.127508,178.542499 305.722173,178.7135 C305.316837,178.884501 304.879842,178.97 304.411173,178.97 C303.942504,178.97 303.505508,178.884501 303.100173,178.7135 C302.694837,178.542499 302.340174,178.308168 302.036173,178.0105 C301.732171,177.712832 301.494674,177.361335 301.323673,176.956 C301.152672,176.550665 301.067173,176.113669 301.067173,175.645 C301.067173,175.176331 301.152672,174.739335 301.323673,174.334 C301.494674,173.928665 301.732171,173.577168 302.036173,173.2795 C302.340174,172.981832 302.694837,172.747501 303.100173,172.5765 C303.505508,172.405499 303.942504,172.32 304.411173,172.32 C304.879842,172.32 305.316837,172.405499 305.722173,172.5765 C306.127508,172.747501 306.482171,172.981832 306.786173,173.2795 C307.090174,173.577168 307.327672,173.928665 307.498673,174.334 C307.669674,174.739335 307.755173,175.176331 307.755173,175.645 Z M306.615173,175.645 C306.615173,175.328332 306.555007,175.037001 306.434673,174.771 C306.314339,174.504999 306.156007,174.273834 305.959673,174.0775 C305.763338,173.881166 305.532174,173.729167 305.266173,173.6215 C305.000171,173.513833 304.715174,173.46 304.411173,173.46 C304.107171,173.46 303.822174,173.513833 303.556173,173.6215 C303.290171,173.729167 303.059007,173.881166 302.862673,174.0775 C302.666338,174.273834 302.508007,174.504999 302.387673,174.771 C302.267339,175.037001 302.207173,175.328332 302.207173,175.645 C302.207173,175.961668 302.267339,176.252999 302.387673,176.519 C302.508007,176.785001 302.666338,177.016166 302.862673,177.2125 C303.059007,177.408834 303.290171,177.560833 303.556173,177.6685 C303.822174,177.776167 304.107171,177.83 304.411173,177.83 C304.715174,177.83 305.000171,177.776167 305.266173,177.6685 C305.532174,177.560833 305.763338,177.408834 305.959673,177.2125 C306.156007,177.016166 306.314339,176.785001 306.434673,176.519 C306.555007,176.252999 306.615173,175.961668 306.615173,175.645 Z M315.450173,182.903 C315.450173,183.371669 315.364674,183.808665 315.193673,184.214 C315.022672,184.619335 314.785174,184.970832 314.481173,185.2685 C314.177171,185.566168 313.822508,185.800499 313.417173,185.9715 C313.011837,186.142501 312.574842,186.228 312.106173,186.228 C311.637504,186.228 311.200508,186.142501 310.795173,185.9715 C310.389837,185.800499 310.035174,185.566168 309.731173,185.2685 C309.427171,184.970832 309.189674,184.619335 309.018673,184.214 C308.847672,183.808665 308.762173,183.371669 308.762173,182.903 C308.762173,182.434331 308.847672,181.997335 309.018673,181.592 C309.189674,181.186665 309.427171,180.835168 309.731173,180.5375 C310.035174,180.239832 310.389837,180.005501 310.795173,179.8345 C311.200508,179.663499 311.637504,179.578 312.106173,179.578 C312.574842,179.578 313.011837,179.663499 313.417173,179.8345 C313.822508,180.005501 314.177171,180.239832 314.481173,180.5375 C314.785174,180.835168 315.022672,181.186665 315.193673,181.592 C315.364674,181.997335 315.450173,182.434331 315.450173,182.903 Z M314.310173,182.903 C314.310173,182.586332 314.250007,182.295001 314.129673,182.029 C314.009339,181.762999 313.851007,181.531834 313.654673,181.3355 C313.458338,181.139166 313.227174,180.987167 312.961173,180.8795 C312.695171,180.771833 312.410174,180.718 312.106173,180.718 C311.802171,180.718 311.517174,180.771833 311.251173,180.8795 C310.985171,180.987167 310.754007,181.139166 310.557673,181.3355 C310.361338,181.531834 310.203007,181.762999 310.082673,182.029 C309.962339,182.295001 309.902173,182.586332 309.902173,182.903 C309.902173,183.219668 309.962339,183.510999 310.082673,183.777 C310.203007,184.043001 310.361338,184.274166 310.557673,184.4705 C310.754007,184.666834 310.985171,184.818833 311.251173,184.9265 C311.517174,185.034167 311.802171,185.088 312.106173,185.088 C312.410174,185.088 312.695171,185.034167 312.961173,184.9265 C313.227174,184.818833 313.458338,184.666834 313.654673,184.4705 C313.851007,184.274166 314.009339,184.043001 314.129673,183.777 C314.250007,183.510999 314.310173,183.219668 314.310173,182.903 Z M304.468173,186.589 L303.480173,186.076 L312.049173,171.959 L313.018173,172.472 L304.468173,186.589 Z" id="7%" fill="#FFFFFF"></path>
                            <polygon id="Path-2" fill="url(#linearGradient-5)" fill-rule="nonzero" transform="translate(251.824496, 186.928040) scale(1, -1) translate(-251.824496, -186.928040) " points="189.351009 199.35608 188.648991 198.64392 213.141704 174.5 315 174.5 315 175.5 213.551723 175.5"></polygon>
                            <path d="M287.42,217.815 C287.41,217.534999 287.3625,217.272501 287.2775,217.0275 C287.1925,216.782499 287.067501,216.570001 286.9025,216.39 C286.737499,216.209999 286.532501,216.067501 286.2875,215.9625 C286.042499,215.857499 285.755002,215.805 285.425,215.805 C285.124999,215.805 284.842501,215.857499 284.5775,215.9625 C284.312499,216.067501 284.082501,216.209999 283.8875,216.39 C283.692499,216.570001 283.532501,216.782499 283.4075,217.0275 C283.282499,217.272501 283.21,217.534999 283.19,217.815 L287.42,217.815 Z M288.845,218.385 L288.845,218.625 C288.845,218.705 288.84,218.785 288.83,218.865 L283.19,218.865 C283.2,219.165001 283.267499,219.447499 283.3925,219.7125 C283.517501,219.977501 283.684999,220.207499 283.895,220.4025 C284.105001,220.597501 284.347499,220.749999 284.6225,220.86 C284.897501,220.970001 285.189998,221.025 285.5,221.025 C285.980002,221.025 286.394998,220.920001 286.745,220.71 C287.095002,220.499999 287.369999,220.245002 287.57,219.945 L288.56,220.74 C288.179998,221.240003 287.732503,221.607499 287.2175,221.8425 C286.702497,222.077501 286.130003,222.195 285.5,222.195 C284.959997,222.195 284.460002,222.105001 284,221.925 C283.539998,221.744999 283.145002,221.492502 282.815,221.1675 C282.484998,220.842498 282.225001,220.450002 282.035,219.99 C281.844999,219.529998 281.75,219.020003 281.75,218.46 C281.75,217.909997 281.842499,217.402502 282.0275,216.9375 C282.212501,216.472498 282.469998,216.075002 282.8,215.745 C283.130002,215.414998 283.519998,215.157501 283.97,214.9725 C284.420002,214.787499 284.904997,214.695 285.425,214.695 C285.945003,214.695 286.417498,214.779999 286.8425,214.95 C287.267502,215.120001 287.627499,215.364998 287.9225,215.685 C288.217501,216.005002 288.444999,216.392498 288.605,216.8475 C288.765001,217.302502 288.845,217.814997 288.845,218.385 Z M291.093333,211.38 L294.753333,211.38 C295.153335,211.38 295.553331,211.425 295.953333,211.515 C296.353335,211.605 296.710832,211.754999 297.025833,211.965 C297.340835,212.175001 297.595832,212.449998 297.790833,212.79 C297.985834,213.130002 298.083333,213.554997 298.083333,214.065 C298.083333,214.655003 297.913335,215.149998 297.573333,215.55 C297.233332,215.950002 296.783336,216.224999 296.223333,216.375 L296.223333,216.405 C296.563335,216.445 296.878332,216.532499 297.168333,216.6675 C297.458335,216.802501 297.708332,216.979999 297.918333,217.2 C298.128334,217.420001 298.290833,217.679999 298.405833,217.98 C298.520834,218.280001 298.578333,218.614998 298.578333,218.985 C298.578333,219.495003 298.473334,219.939998 298.263333,220.32 C298.053332,220.700002 297.768335,221.012499 297.408333,221.2575 C297.048332,221.502501 296.625836,221.687499 296.140833,221.8125 C295.655831,221.937501 295.138336,222 294.588333,222 L291.093333,222 L291.093333,211.38 Z M292.578333,215.865 L294.513333,215.865 C294.793335,215.865 295.060832,215.8325 295.315833,215.7675 C295.570835,215.7025 295.793332,215.602501 295.983333,215.4675 C296.173334,215.332499 296.323333,215.162501 296.433333,214.9575 C296.543334,214.752499 296.598333,214.505001 296.598333,214.215 C296.598333,213.644997 296.388335,213.237501 295.968333,212.9925 C295.548331,212.747499 294.983337,212.625 294.273333,212.625 L292.578333,212.625 L292.578333,215.865 Z M292.578333,220.74 L294.438333,220.74 C294.748335,220.74 295.060832,220.7125 295.375833,220.6575 C295.690835,220.6025 295.975832,220.505001 296.230833,220.365 C296.485835,220.224999 296.690833,220.037501 296.845833,219.8025 C297.000834,219.567499 297.078333,219.270002 297.078333,218.91 C297.078333,218.279997 296.863335,217.825001 296.433333,217.545 C296.003331,217.264999 295.383337,217.125 294.573333,217.125 L292.578333,217.125 L292.578333,220.74 Z M305.281667,217.395 C305.281667,216.864997 305.121668,216.472501 304.801667,216.2175 C304.481665,215.962499 304.056669,215.835 303.526667,215.835 C303.126665,215.835 302.749168,215.912499 302.394167,216.0675 C302.039165,216.222501 301.741668,216.419999 301.501667,216.66 L300.751667,215.76 C301.101668,215.429998 301.529164,215.170001 302.034167,214.98 C302.539169,214.789999 303.081664,214.695 303.661667,214.695 C304.171669,214.695 304.614165,214.767499 304.989167,214.9125 C305.364168,215.057501 305.671665,215.254999 305.911667,215.505 C306.151668,215.755001 306.331666,216.049998 306.451667,216.39 C306.571667,216.730002 306.631667,217.094998 306.631667,217.485 L306.631667,220.59 C306.631667,220.830001 306.639167,221.082499 306.654167,221.3475 C306.669167,221.612501 306.696666,221.829999 306.736667,222 L305.461667,222 C305.381666,221.659998 305.341667,221.320002 305.341667,220.98 L305.296667,220.98 C305.036665,221.360002 304.709169,221.654999 304.314167,221.865 C303.919165,222.075001 303.451669,222.18 302.911667,222.18 C302.631665,222.18 302.339168,222.1425 302.034167,222.0675 C301.729165,221.9925 301.451668,221.870001 301.201667,221.7 C300.951665,221.529999 300.744167,221.305001 300.579167,221.025 C300.414166,220.744999 300.331667,220.400002 300.331667,219.99 C300.331667,219.449997 300.476665,219.022502 300.766667,218.7075 C301.056668,218.392498 301.436664,218.152501 301.906667,217.9875 C302.376669,217.822499 302.906664,217.715 303.496667,217.665 C304.08667,217.615 304.681664,217.59 305.281667,217.59 L305.281667,217.395 Z M304.936667,218.61 C304.586665,218.61 304.224168,218.625 303.849167,218.655 C303.474165,218.685 303.134168,218.745 302.829167,218.835 C302.524165,218.925 302.271668,219.059999 302.071667,219.24 C301.871666,219.420001 301.771667,219.659999 301.771667,219.96 C301.771667,220.170001 301.814166,220.344999 301.899167,220.485 C301.984167,220.625001 302.096666,220.74 302.236667,220.83 C302.376667,220.92 302.531666,220.9825 302.701667,221.0175 C302.871667,221.0525 303.046666,221.07 303.226667,221.07 C303.88667,221.07 304.394165,220.872502 304.749167,220.4775 C305.104168,220.082498 305.281667,219.585003 305.281667,218.985 L305.281667,218.61 L304.936667,218.61 Z M311.895,220.47 L311.925,220.47 L313.89,214.89 L315.39,214.89 L311.94,223.68 C311.819999,223.980002 311.690001,224.247499 311.55,224.4825 C311.409999,224.717501 311.245001,224.917499 311.055,225.0825 C310.864999,225.247501 310.642501,225.375 310.3875,225.465 C310.132499,225.555 309.830002,225.6 309.48,225.6 C309.329999,225.6 309.177501,225.5925 309.0225,225.5775 C308.867499,225.5625 308.710001,225.535 308.55,225.495 L308.685,224.25 C308.925001,224.33 309.159999,224.37 309.39,224.37 C309.760002,224.37 310.034999,224.267501 310.215,224.0625 C310.395001,223.857499 310.559999,223.565002 310.71,223.185 L311.16,222 L308.115,214.89 L309.69,214.89 L311.895,220.47 Z" id="eBay" fill="#FFFFFF"></path>
                        </g>
                        <path d="M124.314,99 L117.846,99 L117.846,97.698 L121.794,93.778 C122.092668,93.4699985 122.349332,93.1480017 122.564,92.812 C122.778668,92.4759983 122.886,92.0980021 122.886,91.678 C122.886,91.4166654 122.839334,91.1810011 122.746,90.971 C122.652666,90.760999 122.526667,90.5813341 122.368,90.432 C122.209333,90.2826659 122.022668,90.1683337 121.808,90.089 C121.593332,90.0096663 121.364668,89.97 121.122,89.97 C120.617997,89.97 120.202668,90.1309984 119.876,90.453 C119.549332,90.7750016 119.344,91.1879975 119.26,91.692 L117.93,91.468 C117.986,91.0946648 118.104999,90.7470016 118.287,90.425 C118.469001,90.1029984 118.699999,89.8230012 118.98,89.585 C119.260001,89.3469988 119.584331,89.1626673 119.953,89.032 C120.321668,88.9013327 120.715998,88.836 121.136,88.836 C121.546669,88.836 121.940998,88.8966661 122.319,89.018 C122.697002,89.1393339 123.030665,89.3166655 123.32,89.55 C123.609335,89.7833345 123.840332,90.0773316 124.013,90.432 C124.185668,90.7866684 124.272,91.1926644 124.272,91.65 C124.272,91.9673349 124.23,92.261332 124.146,92.532 C124.062,92.802668 123.947667,93.0593321 123.803,93.302 C123.658333,93.5446679 123.488001,93.7756656 123.292,93.995 C123.095999,94.2143344 122.890668,94.4313323 122.676,94.646 L119.456,97.782 L124.314,97.782 L124.314,99 Z M129.6816,88.836 C130.269603,88.836 130.775931,88.971332 131.2006,89.242 C131.625269,89.512668 131.975265,89.8836643 132.2506,90.355 C132.525935,90.8263357 132.728933,91.3793302 132.8596,92.014 C132.990267,92.6486698 133.0556,93.3253297 133.0556,94.044 C133.0556,94.7720036 132.990267,95.4509968 132.8596,96.081 C132.728933,96.7110031 132.525935,97.2616643 132.2506,97.733 C131.975265,98.2043357 131.625269,98.575332 131.2006,98.846 C130.775931,99.116668 130.269603,99.252 129.6816,99.252 C129.093597,99.252 128.584935,99.116668 128.1556,98.846 C127.726265,98.575332 127.373935,98.2043357 127.0986,97.733 C126.823265,97.2616643 126.620267,96.7110031 126.4896,96.081 C126.358933,95.4509968 126.2936,94.7720036 126.2936,94.044 C126.2936,93.3253297 126.358933,92.6486698 126.4896,92.014 C126.620267,91.3793302 126.823265,90.8263357 127.0986,90.355 C127.373935,89.8836643 127.726265,89.512668 128.1556,89.242 C128.584935,88.971332 129.093597,88.836 129.6816,88.836 Z M129.6816,89.97 C129.270931,89.97 128.934935,90.1029987 128.6736,90.369 C128.412265,90.6350013 128.209267,90.970998 128.0646,91.377 C127.919933,91.783002 127.8196,92.2239976 127.7636,92.7 C127.7076,93.1760024 127.6796,93.6239979 127.6796,94.044 C127.6796,94.4640021 127.7076,94.9119976 127.7636,95.388 C127.8196,95.8640024 127.919933,96.3026647 128.0646,96.704 C128.209267,97.1053353 128.412265,97.4389987 128.6736,97.705 C128.934935,97.9710013 129.270931,98.104 129.6816,98.104 C130.082935,98.104 130.411932,97.9710013 130.6686,97.705 C130.925268,97.4389987 131.128266,97.1053353 131.2776,96.704 C131.426934,96.3026647 131.5296,95.8640024 131.5856,95.388 C131.6416,94.9119976 131.6696,94.4640021 131.6696,94.044 C131.6696,93.6239979 131.6416,93.1760024 131.5856,92.7 C131.5296,92.2239976 131.426934,91.783002 131.2776,91.377 C131.128266,90.970998 130.925268,90.6350013 130.6686,90.369 C130.411932,90.1029987 130.082935,89.97 129.6816,89.97 Z M139.3192,99 L137.9612,99 L137.9612,90.74 L136.0852,92.308 L135.2872,91.37 L138.1012,89.088 L139.3192,89.088 L139.3192,99 Z M149.7268,90.32 L145.7508,99 L144.1968,99 L148.3268,90.292 L143.4128,90.292 L143.4128,89.088 L149.7268,89.088 L149.7268,90.32 Z M160.826,90.922 C160.629999,90.651332 160.364002,90.4296675 160.028,90.257 C159.691998,90.0843325 159.314002,89.998 158.894,89.998 C158.669999,89.998 158.443668,90.028333 158.215,90.089 C157.986332,90.149667 157.778668,90.247666 157.592,90.383 C157.405332,90.518334 157.253667,90.6863323 157.137,90.887 C157.020333,91.0876677 156.962,91.3279986 156.962,91.608 C156.962,91.878668 157.015666,92.1049991 157.123,92.287 C157.230334,92.4690009 157.374999,92.6229994 157.557,92.749 C157.739001,92.8750006 157.953665,92.9823329 158.201,93.071 C158.448335,93.1596671 158.711999,93.2506662 158.992,93.344 C159.328002,93.4466672 159.668665,93.5633327 160.014,93.694 C160.359335,93.8246673 160.671999,93.9973323 160.952,94.212 C161.232001,94.4266677 161.460666,94.6949984 161.638,95.017 C161.815334,95.3390016 161.904,95.7473309 161.904,96.242 C161.904,96.7553359 161.808334,97.2009981 161.617,97.579 C161.425666,97.9570019 161.171335,98.2696654 160.854,98.517 C160.536665,98.7643346 160.170335,98.9486661 159.755,99.07 C159.339665,99.1913339 158.912669,99.252 158.474,99.252 C157.848664,99.252 157.244336,99.1306679 156.661,98.888 C156.077664,98.6453321 155.594669,98.2860024 155.212,97.81 L156.29,96.9 C156.523335,97.2453351 156.835998,97.5253323 157.228,97.74 C157.620002,97.9546677 158.044664,98.062 158.502,98.062 C158.735334,98.062 158.968665,98.0293337 159.202,97.964 C159.435335,97.8986663 159.647666,97.7960007 159.839,97.656 C160.030334,97.5159993 160.186666,97.3410011 160.308,97.131 C160.429334,96.9209989 160.49,96.6666682 160.49,96.368 C160.49,96.0693318 160.427001,95.8196677 160.301,95.619 C160.174999,95.4183323 160.004668,95.2480007 159.79,95.108 C159.575332,94.9679993 159.325668,94.8490005 159.041,94.751 C158.756332,94.6529995 158.455335,94.5526672 158.138,94.45 C157.820665,94.3566662 157.508002,94.242334 157.2,94.107 C156.891998,93.971666 156.616668,93.7990011 156.374,93.589 C156.131332,93.3789989 155.935334,93.1200015 155.786,92.812 C155.636666,92.5039985 155.562,92.1213356 155.562,91.664 C155.562,91.1693309 155.662332,90.7446684 155.863,90.39 C156.063668,90.0353316 156.324998,89.7413345 156.647,89.508 C156.969002,89.2746655 157.332998,89.1043339 157.739,88.997 C158.145002,88.8896661 158.553331,88.836 158.964,88.836 C159.54267,88.836 160.083997,88.9386656 160.588,89.144 C161.092003,89.3493344 161.497998,89.6246649 161.806,89.97 L160.826,90.922 Z M168.0976,94.702 C168.0976,94.2073309 167.948268,93.8410012 167.6496,93.603 C167.350932,93.3649988 166.954269,93.246 166.4596,93.246 C166.086265,93.246 165.733935,93.3183326 165.4026,93.463 C165.071265,93.6076674 164.793601,93.7919989 164.5696,94.016 L163.8696,93.176 C164.196268,92.8679985 164.595264,92.6253342 165.0666,92.448 C165.537936,92.2706658 166.044264,92.182 166.5856,92.182 C167.061602,92.182 167.474598,92.249666 167.8246,92.385 C168.174602,92.520334 168.461599,92.7046655 168.6856,92.938 C168.909601,93.1713345 169.077599,93.4466651 169.1896,93.764 C169.301601,94.0813349 169.3576,94.4219982 169.3576,94.786 L169.3576,97.684 C169.3576,97.9080011 169.3646,98.1436654 169.3786,98.391 C169.3926,98.6383346 169.418266,98.8413325 169.4556,99 L168.2656,99 C168.190933,98.6826651 168.1536,98.3653349 168.1536,98.048 L168.1116,98.048 C167.868932,98.4026684 167.563269,98.677999 167.1946,98.874 C166.825931,99.070001 166.389603,99.168 165.8856,99.168 C165.624265,99.168 165.351268,99.1330004 165.0666,99.063 C164.781932,98.9929997 164.522935,98.8786675 164.2896,98.72 C164.056266,98.5613325 163.862601,98.3513346 163.7086,98.09 C163.554599,97.8286654 163.4776,97.5066686 163.4776,97.124 C163.4776,96.6199975 163.612932,96.2210015 163.8836,95.927 C164.154268,95.6329985 164.508931,95.4090008 164.9476,95.255 C165.386269,95.1009992 165.880931,95.0006669 166.4316,94.954 C166.982269,94.9073331 167.537597,94.884 168.0976,94.884 L168.0976,94.702 Z M167.7756,95.836 C167.448932,95.836 167.110602,95.8499999 166.7606,95.878 C166.410598,95.9060001 166.093268,95.9619996 165.8086,96.046 C165.523932,96.1300004 165.288268,96.2559992 165.1016,96.424 C164.914932,96.5920008 164.8216,96.8159986 164.8216,97.096 C164.8216,97.292001 164.861266,97.4553327 164.9406,97.586 C165.019934,97.7166673 165.124933,97.8239996 165.2556,97.908 C165.386267,97.9920004 165.530933,98.0503332 165.6896,98.083 C165.848267,98.1156668 166.011599,98.132 166.1796,98.132 C166.795603,98.132 167.269265,97.9476685 167.6006,97.579 C167.931935,97.2103315 168.0976,96.7460028 168.0976,96.186 L168.0976,95.836 L167.7756,95.836 Z M173.0732,99 L171.7572,99 L171.7572,88.416 L173.0732,88.416 L173.0732,99 Z M180.4008,95.094 C180.391467,94.8326654 180.347134,94.5876678 180.2678,94.359 C180.188466,94.1303322 180.071801,93.9320008 179.9178,93.764 C179.763799,93.5959992 179.572468,93.4630005 179.3438,93.365 C179.115132,93.2669995 178.846802,93.218 178.5388,93.218 C178.258799,93.218 177.995135,93.2669995 177.7478,93.365 C177.500465,93.4630005 177.285801,93.5959992 177.1038,93.764 C176.921799,93.9320008 176.772467,94.1303322 176.6558,94.359 C176.539133,94.5876678 176.471467,94.8326654 176.4528,95.094 L180.4008,95.094 Z M181.7308,95.626 L181.7308,95.85 C181.7308,95.924667 181.726133,95.999333 181.7168,96.074 L176.4528,96.074 C176.462133,96.3540014 176.525133,96.6176654 176.6418,96.865 C176.758467,97.1123346 176.914799,97.3269991 177.1108,97.509 C177.306801,97.6910009 177.533132,97.8333328 177.7898,97.936 C178.046468,98.0386672 178.319465,98.09 178.6088,98.09 C179.056802,98.09 179.444132,97.992001 179.7708,97.796 C180.097468,97.599999 180.354132,97.3620014 180.5408,97.082 L181.4648,97.824 C181.110132,98.290669 180.692469,98.6336656 180.2118,98.853 C179.731131,99.0723344 179.196803,99.182 178.6088,99.182 C178.104797,99.182 177.638135,99.0980008 177.2088,98.93 C176.779465,98.7619992 176.410802,98.5263348 176.1028,98.223 C175.794798,97.9196652 175.552134,97.5533355 175.3748,97.124 C175.197466,96.6946645 175.1088,96.2186693 175.1088,95.696 C175.1088,95.1826641 175.195132,94.7090022 175.3678,94.275 C175.540468,93.8409978 175.780798,93.4700015 176.0888,93.162 C176.396802,92.8539985 176.760798,92.6136675 177.1808,92.441 C177.600802,92.2683325 178.053464,92.182 178.5388,92.182 C179.024136,92.182 179.465131,92.2613325 179.8618,92.42 C180.258469,92.5786675 180.594465,92.8073318 180.8698,93.106 C181.145135,93.4046682 181.357466,93.7663312 181.5068,94.191 C181.656134,94.6156688 181.7308,95.0939973 181.7308,95.626 Z M187.3224,94.044 C187.173066,93.8013321 186.963068,93.6030008 186.6924,93.449 C186.421732,93.2949992 186.118402,93.218 185.7824,93.218 C185.633066,93.218 185.483734,93.2343332 185.3344,93.267 C185.185066,93.2996668 185.052067,93.3509997 184.9354,93.421 C184.818733,93.4910004 184.7254,93.5796661 184.6554,93.687 C184.5854,93.7943339 184.5504,93.9273325 184.5504,94.086 C184.5504,94.3660014 184.676399,94.573666 184.9284,94.709 C185.180401,94.844334 185.558397,94.9679994 186.0624,95.08 C186.379735,95.154667 186.673732,95.2433328 186.9444,95.346 C187.215068,95.4486672 187.450732,95.5769992 187.6514,95.731 C187.852068,95.8850008 188.008399,96.0693323 188.1204,96.284 C188.232401,96.4986677 188.2884,96.7506652 188.2884,97.04 C188.2884,97.432002 188.213734,97.763332 188.0644,98.034 C187.915066,98.304668 187.716735,98.5263325 187.4694,98.699 C187.222065,98.8716675 186.939735,98.995333 186.6224,99.07 C186.305065,99.144667 185.978402,99.182 185.6424,99.182 C185.138397,99.182 184.646069,99.084001 184.1654,98.888 C183.684731,98.691999 183.285735,98.3933353 182.9684,97.992 L183.9064,97.194 C184.083734,97.4553346 184.328732,97.6746658 184.6414,97.852 C184.954068,98.0293342 185.297065,98.118 185.6704,98.118 C185.838401,98.118 185.999399,98.1016668 186.1534,98.069 C186.307401,98.0363332 186.447399,97.982667 186.5734,97.908 C186.699401,97.833333 186.799733,97.7353339 186.8744,97.614 C186.949067,97.4926661 186.9864,97.3386676 186.9864,97.152 C186.9864,96.8439985 186.839401,96.6153341 186.5454,96.466 C186.251399,96.3166659 185.819736,96.1766673 185.2504,96.046 C185.026399,95.9899997 184.800068,95.9223337 184.5714,95.843 C184.342732,95.7636663 184.135068,95.6540007 183.9484,95.514 C183.761732,95.3739993 183.610067,95.199001 183.4934,94.989 C183.376733,94.778999 183.3184,94.5200015 183.3184,94.212 C183.3184,93.8573316 183.390733,93.5516679 183.5354,93.295 C183.680067,93.0383321 183.869066,92.8283342 184.1024,92.665 C184.335735,92.5016658 184.601732,92.3803337 184.9004,92.301 C185.199068,92.2216663 185.507065,92.182 185.8244,92.182 C186.300402,92.182 186.760064,92.2753324 187.2034,92.462 C187.646736,92.6486676 187.989732,92.9193316 188.2324,93.274 L187.3224,94.044 Z M125.6426,112.704 L125.6706,112.704 L128.5966,105.088 L130.7526,105.088 L130.7526,115 L129.3666,115 L129.3666,106.712 L129.3386,106.712 L126.0486,115 L125.1666,115 L121.8906,106.712 L121.8626,106.712 L121.8626,115 L120.5186,115 L120.5186,105.088 L122.6746,105.088 L125.6426,112.704 Z M139.9842,111.668 C139.9842,112.181336 139.893201,112.652665 139.7112,113.082 C139.529199,113.511335 139.277202,113.882332 138.9552,114.195 C138.633198,114.507668 138.252869,114.750332 137.8142,114.923 C137.375531,115.095668 136.904203,115.182 136.4002,115.182 C135.896197,115.182 135.424869,115.095668 134.9862,114.923 C134.547531,114.750332 134.169535,114.507668 133.8522,114.195 C133.534865,113.882332 133.285201,113.511335 133.1032,113.082 C132.921199,112.652665 132.8302,112.181336 132.8302,111.668 C132.8302,111.154664 132.921199,110.685669 133.1032,110.261 C133.285201,109.836331 133.534865,109.470002 133.8522,109.162 C134.169535,108.853998 134.547531,108.613668 134.9862,108.441 C135.424869,108.268332 135.896197,108.182 136.4002,108.182 C136.904203,108.182 137.375531,108.268332 137.8142,108.441 C138.252869,108.613668 138.633198,108.853998 138.9552,109.162 C139.277202,109.470002 139.529199,109.836331 139.7112,110.261 C139.893201,110.685669 139.9842,111.154664 139.9842,111.668 Z M138.6122,111.668 C138.6122,111.350665 138.5632,111.047335 138.4652,110.758 C138.3672,110.468665 138.224868,110.214334 138.0382,109.995 C137.851532,109.775666 137.620535,109.600667 137.3452,109.47 C137.069865,109.339333 136.754868,109.274 136.4002,109.274 C136.045532,109.274 135.730535,109.339333 135.4552,109.47 C135.179865,109.600667 134.948868,109.775666 134.7622,109.995 C134.575532,110.214334 134.4332,110.468665 134.3352,110.758 C134.2372,111.047335 134.1882,111.350665 134.1882,111.668 C134.1882,111.985335 134.2372,112.288665 134.3352,112.578 C134.4332,112.867335 134.575532,113.123999 134.7622,113.348 C134.948868,113.572001 135.179865,113.749333 135.4552,113.88 C135.730535,114.010667 136.045532,114.076 136.4002,114.076 C136.754868,114.076 137.069865,114.010667 137.3452,113.88 C137.620535,113.749333 137.851532,113.572001 138.0382,113.348 C138.224868,113.123999 138.3672,112.867335 138.4652,112.578 C138.5632,112.288665 138.6122,111.985335 138.6122,111.668 Z M143.1678,108.364 C143.186467,108.532001 143.200467,108.720999 143.2098,108.931 C143.219133,109.141001 143.2238,109.315999 143.2238,109.456 L143.2658,109.456 C143.3498,109.278666 143.464133,109.113001 143.6088,108.959 C143.753467,108.804999 143.919132,108.669667 144.1058,108.553 C144.292468,108.436333 144.497799,108.345334 144.7218,108.28 C144.945801,108.214666 145.179132,108.182 145.4218,108.182 C145.851135,108.182 146.219798,108.254333 146.5278,108.399 C146.835802,108.543667 147.092466,108.737332 147.2978,108.98 C147.503134,109.222668 147.6548,109.507332 147.7528,109.834 C147.8508,110.160668 147.8998,110.510665 147.8998,110.884 L147.8998,115 L146.5838,115 L146.5838,111.318 C146.5838,111.047332 146.5628,110.790668 146.5208,110.548 C146.4788,110.305332 146.401801,110.090668 146.2898,109.904 C146.177799,109.717332 146.023801,109.568001 145.8278,109.456 C145.631799,109.343999 145.379802,109.288 145.0718,109.288 C144.549131,109.288 144.122135,109.486331 143.7908,109.883 C143.459465,110.279669 143.2938,110.80933 143.2938,111.472 L143.2938,115 L141.9778,115 L141.9778,109.792 C141.9778,109.614666 141.973133,109.386001 141.9638,109.106 C141.954467,108.825999 141.940467,108.578668 141.9218,108.364 L143.1678,108.364 Z M157.0194,111.668 C157.0194,112.181336 156.928401,112.652665 156.7464,113.082 C156.564399,113.511335 156.312402,113.882332 155.9904,114.195 C155.668398,114.507668 155.288069,114.750332 154.8494,114.923 C154.410731,115.095668 153.939403,115.182 153.4354,115.182 C152.931397,115.182 152.460069,115.095668 152.0214,114.923 C151.582731,114.750332 151.204735,114.507668 150.8874,114.195 C150.570065,113.882332 150.320401,113.511335 150.1384,113.082 C149.956399,112.652665 149.8654,112.181336 149.8654,111.668 C149.8654,111.154664 149.956399,110.685669 150.1384,110.261 C150.320401,109.836331 150.570065,109.470002 150.8874,109.162 C151.204735,108.853998 151.582731,108.613668 152.0214,108.441 C152.460069,108.268332 152.931397,108.182 153.4354,108.182 C153.939403,108.182 154.410731,108.268332 154.8494,108.441 C155.288069,108.613668 155.668398,108.853998 155.9904,109.162 C156.312402,109.470002 156.564399,109.836331 156.7464,110.261 C156.928401,110.685669 157.0194,111.154664 157.0194,111.668 Z M155.6474,111.668 C155.6474,111.350665 155.5984,111.047335 155.5004,110.758 C155.4024,110.468665 155.260068,110.214334 155.0734,109.995 C154.886732,109.775666 154.655735,109.600667 154.3804,109.47 C154.105065,109.339333 153.790068,109.274 153.4354,109.274 C153.080732,109.274 152.765735,109.339333 152.4904,109.47 C152.215065,109.600667 151.984068,109.775666 151.7974,109.995 C151.610732,110.214334 151.4684,110.468665 151.3704,110.758 C151.2724,111.047335 151.2234,111.350665 151.2234,111.668 C151.2234,111.985335 151.2724,112.288665 151.3704,112.578 C151.4684,112.867335 151.610732,113.123999 151.7974,113.348 C151.984068,113.572001 152.215065,113.749333 152.4904,113.88 C152.765735,114.010667 153.080732,114.076 153.4354,114.076 C153.790068,114.076 154.105065,114.010667 154.3804,113.88 C154.655735,113.749333 154.886732,113.572001 155.0734,113.348 C155.260068,113.123999 155.4024,112.867335 155.5004,112.578 C155.5984,112.288665 155.6474,111.985335 155.6474,111.668 Z M160.329,118.36 L159.013,118.36 L159.013,108.364 L160.301,108.364 L160.301,109.4 L160.343,109.4 C160.557668,109.045332 160.872665,108.753668 161.288,108.525 C161.703335,108.296332 162.186331,108.182 162.737,108.182 C163.231669,108.182 163.681998,108.270666 164.088,108.448 C164.494002,108.625334 164.843999,108.872665 165.138,109.19 C165.432001,109.507335 165.658333,109.878331 165.817,110.303 C165.975667,110.727669 166.055,111.182664 166.055,111.668 C166.055,112.153336 165.975667,112.610665 165.817,113.04 C165.658333,113.469335 165.434335,113.842665 165.145,114.16 C164.855665,114.477335 164.505669,114.726999 164.095,114.909 C163.684331,115.091001 163.222336,115.182 162.709,115.182 C162.232998,115.182 161.785002,115.079334 161.365,114.874 C160.944998,114.668666 160.613668,114.379335 160.371,114.006 L160.329,114.006 L160.329,118.36 Z M164.697,111.668 C164.697,111.359998 164.650334,111.061335 164.557,110.772 C164.463666,110.482665 164.323668,110.226001 164.137,110.002 C163.950332,109.777999 163.719335,109.600667 163.444,109.47 C163.168665,109.339333 162.849002,109.274 162.485,109.274 C162.148998,109.274 161.843335,109.339333 161.568,109.47 C161.292665,109.600667 161.057001,109.777999 160.861,110.002 C160.664999,110.226001 160.513334,110.482665 160.406,110.772 C160.298666,111.061335 160.245,111.364665 160.245,111.682 C160.245,111.999335 160.298666,112.302665 160.406,112.592 C160.513334,112.881335 160.664999,113.135666 160.861,113.355 C161.057001,113.574334 161.292665,113.749333 161.568,113.88 C161.843335,114.010667 162.148998,114.076 162.485,114.076 C162.849002,114.076 163.168665,114.008334 163.444,113.873 C163.719335,113.737666 163.950332,113.558001 164.137,113.334 C164.323668,113.109999 164.463666,112.853335 164.557,112.564 C164.650334,112.274665 164.697,111.976002 164.697,111.668 Z M174.7826,111.668 C174.7826,112.181336 174.691601,112.652665 174.5096,113.082 C174.327599,113.511335 174.075602,113.882332 173.7536,114.195 C173.431598,114.507668 173.051269,114.750332 172.6126,114.923 C172.173931,115.095668 171.702603,115.182 171.1986,115.182 C170.694597,115.182 170.223269,115.095668 169.7846,114.923 C169.345931,114.750332 168.967935,114.507668 168.6506,114.195 C168.333265,113.882332 168.083601,113.511335 167.9016,113.082 C167.719599,112.652665 167.6286,112.181336 167.6286,111.668 C167.6286,111.154664 167.719599,110.685669 167.9016,110.261 C168.083601,109.836331 168.333265,109.470002 168.6506,109.162 C168.967935,108.853998 169.345931,108.613668 169.7846,108.441 C170.223269,108.268332 170.694597,108.182 171.1986,108.182 C171.702603,108.182 172.173931,108.268332 172.6126,108.441 C173.051269,108.613668 173.431598,108.853998 173.7536,109.162 C174.075602,109.470002 174.327599,109.836331 174.5096,110.261 C174.691601,110.685669 174.7826,111.154664 174.7826,111.668 Z M173.4106,111.668 C173.4106,111.350665 173.3616,111.047335 173.2636,110.758 C173.1656,110.468665 173.023268,110.214334 172.8366,109.995 C172.649932,109.775666 172.418935,109.600667 172.1436,109.47 C171.868265,109.339333 171.553268,109.274 171.1986,109.274 C170.843932,109.274 170.528935,109.339333 170.2536,109.47 C169.978265,109.600667 169.747268,109.775666 169.5606,109.995 C169.373932,110.214334 169.2316,110.468665 169.1336,110.758 C169.0356,111.047335 168.9866,111.350665 168.9866,111.668 C168.9866,111.985335 169.0356,112.288665 169.1336,112.578 C169.2316,112.867335 169.373932,113.123999 169.5606,113.348 C169.747268,113.572001 169.978265,113.749333 170.2536,113.88 C170.528935,114.010667 170.843932,114.076 171.1986,114.076 C171.553268,114.076 171.868265,114.010667 172.1436,113.88 C172.418935,113.749333 172.649932,113.572001 172.8366,113.348 C173.023268,113.123999 173.1656,112.867335 173.2636,112.578 C173.3616,112.288665 173.4106,111.985335 173.4106,111.668 Z M178.1202,115 L176.8042,115 L176.8042,104.416 L178.1202,104.416 L178.1202,115 Z M183.1098,113.572 L183.1378,113.572 L184.9718,108.364 L186.3718,108.364 L183.1518,116.568 C183.039799,116.848001 182.918467,117.097666 182.7878,117.317 C182.657133,117.536334 182.503134,117.722999 182.3258,117.877 C182.148466,118.031001 181.940801,118.15 181.7028,118.234 C181.464799,118.318 181.182468,118.36 180.8558,118.36 C180.715799,118.36 180.573467,118.353 180.4288,118.339 C180.284133,118.325 180.137134,118.299334 179.9878,118.262 L180.1138,117.1 C180.337801,117.174667 180.557132,117.212 180.7718,117.212 C181.117135,117.212 181.373799,117.116334 181.5418,116.925 C181.709801,116.733666 181.863799,116.460668 182.0038,116.106 L182.4238,115 L179.5818,108.364 L181.0518,108.364 L183.1098,113.572 Z" id="2017-Sales-Monopoly" fill="#FFFFFF"></path>
                    </g>
                </g>
            </g>
        </g>
    </g>
</svg>