<?xml version="1.0" encoding="UTF-8"?>
<svg width="431px" height="276px" viewBox="0 0 431 276" version="1.1" xmlns="http://www.w3.org/2000/svg" xmlns:xlink="http://www.w3.org/1999/xlink">
    <!-- Generator: Sketch 50.2 (55047) - http://www.bohemiancoding.com/sketch -->
    <title>Group 49</title>
    <desc>Created with Sketch.</desc>
    <defs>
        <path d="M117.3683,59.191 C117.130299,58.8623317 116.807302,58.5931677 116.3993,58.3835 C115.991298,58.1738323 115.532302,58.069 115.0223,58.069 C114.750299,58.069 114.475468,58.105833 114.1978,58.1795 C113.920132,58.253167 113.667968,58.3721658 113.4413,58.5365 C113.214632,58.7008342 113.030467,58.9048321 112.8888,59.1485 C112.747133,59.3921679 112.6763,59.6839983 112.6763,60.024 C112.6763,60.3526683 112.741466,60.6274989 112.8718,60.8485 C113.002134,61.0695011 113.177799,61.2564992 113.3988,61.4095 C113.619801,61.5625008 113.880465,61.6928328 114.1808,61.8005 C114.481135,61.9081672 114.801298,62.0186661 115.1413,62.132 C115.549302,62.2566673 115.962964,62.3983325 116.3823,62.557 C116.801635,62.7156675 117.181298,62.925332 117.5213,63.186 C117.861302,63.446668 118.138966,63.772498 118.3543,64.1635 C118.569634,64.554502 118.6773,65.0503303 118.6773,65.651 C118.6773,66.2743364 118.561134,66.8154977 118.3288,67.2745 C118.096465,67.7335023 117.787635,68.1131652 117.4023,68.4135 C117.016965,68.7138348 116.572136,68.9376659 116.0678,69.085 C115.563464,69.2323341 115.044969,69.306 114.5123,69.306 C113.752963,69.306 113.019137,69.1586681 112.3108,68.864 C111.602463,68.5693319 111.015969,68.1330029 110.5513,67.555 L111.8603,66.45 C112.143635,66.8693354 112.523298,67.209332 112.9993,67.47 C113.475302,67.730668 113.990964,67.861 114.5463,67.861 C114.829635,67.861 115.112965,67.8213337 115.3963,67.742 C115.679635,67.6626663 115.937465,67.5380009 116.1698,67.368 C116.402134,67.1979992 116.591966,66.9855013 116.7393,66.7305 C116.886634,66.4754987 116.9603,66.1666685 116.9603,65.804 C116.9603,65.4413315 116.883801,65.1381679 116.7308,64.8945 C116.577799,64.6508321 116.370968,64.4440008 116.1103,64.274 C115.849632,64.1039991 115.546468,63.9595006 115.2008,63.8405 C114.855132,63.7214994 114.489635,63.5996673 114.1043,63.475 C113.718965,63.3616661 113.339302,63.2228342 112.9653,63.0585 C112.591298,62.8941658 112.256968,62.6845013 111.9623,62.4295 C111.667632,62.1744987 111.429634,61.8600019 111.2483,61.486 C111.066966,61.1119981 110.9763,60.6473361 110.9763,60.092 C110.9763,59.4913303 111.098132,58.9756688 111.3418,58.545 C111.585468,58.1143312 111.902798,57.7573347 112.2938,57.474 C112.684802,57.1906652 113.126797,56.983834 113.6198,56.8535 C114.112802,56.723166 114.608631,56.658 115.1073,56.658 C115.80997,56.658 116.467297,56.7826654 117.0793,57.032 C117.691303,57.2813346 118.184298,57.6156646 118.5583,58.035 L117.3683,59.191 Z M127.0821,64.257 C127.070767,63.9396651 127.016934,63.6421681 126.9206,63.3645 C126.824266,63.0868319 126.682601,62.846001 126.4956,62.642 C126.308599,62.437999 126.076268,62.2765006 125.7986,62.1575 C125.520932,62.0384994 125.195102,61.979 124.8211,61.979 C124.481098,61.979 124.160935,62.0384994 123.8606,62.1575 C123.560265,62.2765006 123.299601,62.437999 123.0786,62.642 C122.857599,62.846001 122.676267,63.0868319 122.5346,63.3645 C122.392933,63.6421681 122.310767,63.9396651 122.2881,64.257 L127.0821,64.257 Z M128.6971,64.903 L128.6971,65.175 C128.6971,65.2656671 128.691433,65.3563329 128.6801,65.447 L122.2881,65.447 C122.299433,65.7870017 122.375933,66.1071652 122.5176,66.4075 C122.659267,66.7078348 122.849099,66.9684989 123.0871,67.1895 C123.325101,67.4105011 123.599932,67.5833327 123.9116,67.708 C124.223268,67.8326673 124.554765,67.895 124.9061,67.895 C125.450103,67.895 125.920431,67.7760012 126.3171,67.538 C126.713769,67.2999988 127.025432,67.0110017 127.2521,66.671 L128.3741,67.572 C127.943431,68.1386695 127.43627,68.5551653 126.8526,68.8215 C126.26893,69.0878347 125.620103,69.221 124.9061,69.221 C124.294097,69.221 123.727436,69.119001 123.2061,68.915 C122.684764,68.710999 122.237102,68.4248352 121.8631,68.0565 C121.489098,67.6881648 121.194434,67.2433359 120.9791,66.722 C120.763766,66.2006641 120.6561,65.6226698 120.6561,64.988 C120.6561,64.3646636 120.760932,63.7895026 120.9706,63.2625 C121.180268,62.7354974 121.472098,62.2850019 121.8461,61.911 C122.220102,61.5369981 122.662097,61.2451677 123.1721,61.0355 C123.682102,60.8258323 124.231764,60.721 124.8211,60.721 C125.410436,60.721 125.945931,60.8173324 126.4276,61.01 C126.909269,61.2026676 127.317265,61.4803315 127.6516,61.843 C127.985935,62.2056685 128.243766,62.6448308 128.4251,63.1605 C128.606434,63.6761692 128.6971,64.2569968 128.6971,64.903 Z M132.7669,69 L131.1689,69 L131.1689,56.148 L132.7669,56.148 L132.7669,69 Z M137.3977,69 L135.7997,69 L135.7997,56.148 L137.3977,56.148 L137.3977,69 Z M142.0115,69 L140.4135,69 L140.4135,60.942 L142.0115,60.942 L142.0115,69 Z M142.2835,58.035 C142.2835,58.3296681 142.178668,58.5733324 141.969,58.766 C141.759332,58.9586676 141.507168,59.055 141.2125,59.055 C140.917832,59.055 140.668501,58.9558343 140.4645,58.7575 C140.260499,58.5591657 140.1585,58.3183347 140.1585,58.035 C140.1585,57.7403319 140.260499,57.4938343 140.4645,57.2955 C140.668501,57.0971657 140.917832,56.998 141.2125,56.998 C141.507168,56.998 141.759332,57.0971657 141.969,57.2955 C142.178668,57.4938343 142.2835,57.7403319 142.2835,58.035 Z M146.4553,60.942 C146.477967,61.146001 146.494967,61.3754987 146.5063,61.6305 C146.517633,61.8855013 146.5233,62.0979991 146.5233,62.268 L146.5743,62.268 C146.6763,62.0526656 146.815132,61.8515009 146.9908,61.6645 C147.166467,61.4774991 147.367632,61.3131674 147.5943,61.1715 C147.820968,61.0298326 148.070299,60.9193337 148.3423,60.84 C148.614301,60.7606663 148.897632,60.721 149.1923,60.721 C149.713636,60.721 150.161298,60.8088325 150.5353,60.9845 C150.909302,61.1601675 151.220965,61.3953319 151.4703,61.69 C151.719635,61.9846681 151.903799,62.3303314 152.0228,62.727 C152.141801,63.1236686 152.2013,63.5486644 152.2013,64.002 L152.2013,69 L150.6033,69 L150.6033,64.529 C150.6033,64.2003317 150.5778,63.8886681 150.5268,63.594 C150.4758,63.2993319 150.382301,63.0386678 150.2463,62.812 C150.110299,62.5853322 149.923301,62.4040007 149.6853,62.268 C149.447299,62.1319993 149.141302,62.064 148.7673,62.064 C148.13263,62.064 147.614135,62.3048309 147.2118,62.7865 C146.809465,63.2681691 146.6083,63.9113293 146.6083,64.716 L146.6083,69 L145.0103,69 L145.0103,62.676 C145.0103,62.4606656 145.004633,62.1830017 144.9933,61.843 C144.981967,61.5029983 144.964967,61.202668 144.9423,60.942 L146.4553,60.942 Z M155.7441,70.377 C156.095435,70.7736687 156.534597,71.0909988 157.0616,71.329 C157.588603,71.5670012 158.129764,71.686 158.6851,71.686 C159.217769,71.686 159.665431,71.6095008 160.0281,71.4565 C160.390768,71.3034992 160.682599,71.0938347 160.9036,70.8275 C161.124601,70.5611653 161.283266,70.2466685 161.3796,69.884 C161.475934,69.5213315 161.5241,69.1303354 161.5241,68.711 L161.5241,67.674 L161.4901,67.674 C161.195432,68.1273356 160.793103,68.4729988 160.2831,68.711 C159.773097,68.9490012 159.229103,69.068 158.6511,69.068 C158.039097,69.068 157.480936,68.9603344 156.9766,68.745 C156.472264,68.5296656 156.044435,68.2350019 155.6931,67.861 C155.341765,67.4869981 155.069768,67.0478359 154.8771,66.5435 C154.684432,66.0391641 154.5881,65.4980029 154.5881,64.92 C154.5881,64.3419971 154.684432,63.7980025 154.8771,63.288 C155.069768,62.7779975 155.341765,62.3331686 155.6931,61.9535 C156.044435,61.5738314 156.469431,61.2735011 156.9681,61.0525 C157.466769,60.8314989 158.022097,60.721 158.6341,60.721 C159.212103,60.721 159.764597,60.8456654 160.2916,61.095 C160.818603,61.3443346 161.235098,61.7239974 161.5411,62.234 L161.5751,62.234 L161.5751,60.942 L163.1221,60.942 L163.1221,68.592 C163.1221,69.1813363 163.048434,69.745164 162.9011,70.2835 C162.753766,70.821836 162.504435,71.2978313 162.1531,71.7115 C161.801765,72.1251687 161.342769,72.4566654 160.7761,72.706 C160.20943,72.9553346 159.506771,73.08 158.6681,73.08 C157.96543,73.08 157.259937,72.9525013 156.5516,72.6975 C155.843263,72.4424987 155.234103,72.082669 154.7241,71.618 L155.7441,70.377 Z M156.2371,64.886 C156.2371,65.2600019 156.296599,65.6169983 156.4156,65.957 C156.534601,66.2970017 156.710265,66.597332 156.9426,66.858 C157.174934,67.118668 157.455432,67.3283325 157.7841,67.487 C158.112768,67.6456675 158.486765,67.725 158.9061,67.725 C159.314102,67.725 159.688098,67.6513341 160.0281,67.504 C160.368102,67.3566659 160.657099,67.1555013 160.8951,66.9005 C161.133101,66.6454987 161.317266,66.3451684 161.4476,65.9995 C161.577934,65.6538316 161.6431,65.2826687 161.6431,64.886 C161.6431,64.5006647 161.577934,64.1380017 161.4476,63.798 C161.317266,63.4579983 161.130268,63.157668 160.8866,62.897 C160.642932,62.636332 160.353935,62.4295008 160.0196,62.2765 C159.685265,62.1234992 159.314102,62.047 158.9061,62.047 C158.486765,62.047 158.112768,62.1234992 157.7841,62.2765 C157.455432,62.4295008 157.174934,62.6334987 156.9426,62.8885 C156.710265,63.1435013 156.534601,63.4438316 156.4156,63.7895 C156.296599,64.1351684 156.2371,64.5006647 156.2371,64.886 Z M172.2987,69 L170.6157,69 L170.6157,56.964 L178.1297,56.964 L178.1297,58.443 L172.2987,58.443 L172.2987,62.183 L177.7557,62.183 L177.7557,63.628 L172.2987,63.628 L172.2987,69 Z M185.4805,64.257 C185.469167,63.9396651 185.415334,63.6421681 185.319,63.3645 C185.222666,63.0868319 185.081001,62.846001 184.894,62.642 C184.706999,62.437999 184.474668,62.2765006 184.197,62.1575 C183.919332,62.0384994 183.593502,61.979 183.2195,61.979 C182.879498,61.979 182.559335,62.0384994 182.259,62.1575 C181.958665,62.2765006 181.698001,62.437999 181.477,62.642 C181.255999,62.846001 181.074667,63.0868319 180.933,63.3645 C180.791333,63.6421681 180.709167,63.9396651 180.6865,64.257 L185.4805,64.257 Z M187.0955,64.903 L187.0955,65.175 C187.0955,65.2656671 187.089833,65.3563329 187.0785,65.447 L180.6865,65.447 C180.697833,65.7870017 180.774333,66.1071652 180.916,66.4075 C181.057667,66.7078348 181.247499,66.9684989 181.4855,67.1895 C181.723501,67.4105011 181.998332,67.5833327 182.31,67.708 C182.621668,67.8326673 182.953165,67.895 183.3045,67.895 C183.848503,67.895 184.318831,67.7760012 184.7155,67.538 C185.112169,67.2999988 185.423832,67.0110017 185.6505,66.671 L186.7725,67.572 C186.341831,68.1386695 185.83467,68.5551653 185.251,68.8215 C184.66733,69.0878347 184.018504,69.221 183.3045,69.221 C182.692497,69.221 182.125836,69.119001 181.6045,68.915 C181.083164,68.710999 180.635502,68.4248352 180.2615,68.0565 C179.887498,67.6881648 179.592834,67.2433359 179.3775,66.722 C179.162166,66.2006641 179.0545,65.6226698 179.0545,64.988 C179.0545,64.3646636 179.159332,63.7895026 179.369,63.2625 C179.578668,62.7354974 179.870498,62.2850019 180.2445,61.911 C180.618502,61.5369981 181.060497,61.2451677 181.5705,61.0355 C182.080503,60.8258323 182.630164,60.721 183.2195,60.721 C183.808836,60.721 184.344331,60.8173324 184.826,61.01 C185.307669,61.2026676 185.715665,61.4803315 186.05,61.843 C186.384335,62.2056685 186.642166,62.6448308 186.8235,63.1605 C187.004834,63.6761692 187.0955,64.2569968 187.0955,64.903 Z M195.4323,64.257 C195.420967,63.9396651 195.367134,63.6421681 195.2708,63.3645 C195.174466,63.0868319 195.032801,62.846001 194.8458,62.642 C194.658799,62.437999 194.426468,62.2765006 194.1488,62.1575 C193.871132,62.0384994 193.545302,61.979 193.1713,61.979 C192.831298,61.979 192.511135,62.0384994 192.2108,62.1575 C191.910465,62.2765006 191.649801,62.437999 191.4288,62.642 C191.207799,62.846001 191.026467,63.0868319 190.8848,63.3645 C190.743133,63.6421681 190.660967,63.9396651 190.6383,64.257 L195.4323,64.257 Z M197.0473,64.903 L197.0473,65.175 C197.0473,65.2656671 197.041633,65.3563329 197.0303,65.447 L190.6383,65.447 C190.649633,65.7870017 190.726133,66.1071652 190.8678,66.4075 C191.009467,66.7078348 191.199299,66.9684989 191.4373,67.1895 C191.675301,67.4105011 191.950132,67.5833327 192.2618,67.708 C192.573468,67.8326673 192.904965,67.895 193.2563,67.895 C193.800303,67.895 194.270631,67.7760012 194.6673,67.538 C195.063969,67.2999988 195.375632,67.0110017 195.6023,66.671 L196.7243,67.572 C196.293631,68.1386695 195.78647,68.5551653 195.2028,68.8215 C194.61913,69.0878347 193.970304,69.221 193.2563,69.221 C192.644297,69.221 192.077636,69.119001 191.5563,68.915 C191.034964,68.710999 190.587302,68.4248352 190.2133,68.0565 C189.839298,67.6881648 189.544634,67.2433359 189.3293,66.722 C189.113966,66.2006641 189.0063,65.6226698 189.0063,64.988 C189.0063,64.3646636 189.111132,63.7895026 189.3208,63.2625 C189.530468,62.7354974 189.822298,62.2850019 190.1963,61.911 C190.570302,61.5369981 191.012297,61.2451677 191.5223,61.0355 C192.032303,60.8258323 192.581964,60.721 193.1713,60.721 C193.760636,60.721 194.296131,60.8173324 194.7778,61.01 C195.259469,61.2026676 195.667465,61.4803315 196.0018,61.843 C196.336135,62.2056685 196.593966,62.6448308 196.7753,63.1605 C196.956634,63.6761692 197.0473,64.2569968 197.0473,64.903 Z M203.8371,62.982 C203.655766,62.6873319 203.400768,62.4465009 203.0721,62.2595 C202.743432,62.0724991 202.375102,61.979 201.9671,61.979 C201.785766,61.979 201.604434,61.9988331 201.4231,62.0385 C201.241766,62.0781669 201.080267,62.1404996 200.9386,62.2255 C200.796933,62.3105004 200.6836,62.418166 200.5986,62.5485 C200.5136,62.678834 200.4711,62.8403324 200.4711,63.033 C200.4711,63.3730017 200.624098,63.6251658 200.9301,63.7895 C201.236102,63.9538342 201.695097,64.1039993 202.3071,64.24 C202.692435,64.3306671 203.049432,64.4383327 203.3781,64.563 C203.706768,64.6876673 203.992932,64.8434991 204.2366,65.0305 C204.480268,65.2175009 204.670099,65.441332 204.8061,65.702 C204.942101,65.962668 205.0101,66.2686649 205.0101,66.62 C205.0101,67.0960024 204.919434,67.4983317 204.7381,67.827 C204.556766,68.1556683 204.315935,68.4248323 204.0156,68.6345 C203.715265,68.8441677 203.372435,68.9943329 202.9871,69.085 C202.601765,69.1756671 202.205102,69.221 201.7971,69.221 C201.185097,69.221 200.58727,69.1020012 200.0036,68.864 C199.41993,68.6259988 198.935435,68.2633358 198.5501,67.776 L199.6891,66.807 C199.904434,67.1243349 200.201931,67.3906656 200.5816,67.606 C200.961269,67.8213344 201.377764,67.929 201.8311,67.929 C202.035101,67.929 202.230599,67.9091669 202.4176,67.8695 C202.604601,67.8298331 202.774599,67.7646671 202.9276,67.674 C203.080601,67.5833329 203.202433,67.4643341 203.2931,67.317 C203.383767,67.1696659 203.4291,66.9826678 203.4291,66.756 C203.4291,66.3819981 203.250602,66.1043342 202.8936,65.923 C202.536598,65.7416658 202.012437,65.5716675 201.3211,65.413 C201.049099,65.3449997 200.774268,65.2628338 200.4966,65.1665 C200.218932,65.0701662 199.966768,64.9370009 199.7401,64.767 C199.513432,64.5969992 199.329267,64.3845013 199.1876,64.1295 C199.045933,63.8744987 198.9751,63.5600019 198.9751,63.186 C198.9751,62.7553312 199.062932,62.3841682 199.2386,62.0725 C199.414268,61.7608318 199.643765,61.5058343 199.9271,61.3075 C200.210435,61.1091657 200.533432,60.9618338 200.8961,60.8655 C201.258768,60.7691662 201.632765,60.721 202.0181,60.721 C202.596103,60.721 203.154264,60.8343322 203.6926,61.061 C204.230936,61.2876678 204.647432,61.6163312 204.9421,62.047 L203.8371,62.982 Z M222.1087,67.13 C221.632698,67.7760032 221.015037,68.3001647 220.2557,68.7025 C219.496363,69.1048353 218.584039,69.306 217.5187,69.306 C216.600695,69.306 215.753537,69.1501682 214.9772,68.8385 C214.200863,68.5268318 213.532203,68.0905028 212.9712,67.5295 C212.410197,66.9684972 211.971035,66.2998372 211.6537,65.5235 C211.336365,64.7471628 211.1777,63.894338 211.1777,62.965 C211.1777,62.0243286 211.339198,61.1658372 211.6622,60.3895 C211.985202,59.6131628 212.432864,58.9501694 213.0052,58.4005 C213.577536,57.8508306 214.254696,57.4230015 215.0367,57.117 C215.818704,56.8109985 216.668695,56.658 217.5867,56.658 C217.994702,56.658 218.408365,56.6976663 218.8277,56.777 C219.247035,56.8563337 219.649365,56.9753325 220.0347,57.134 C220.420035,57.2926675 220.771365,57.4881655 221.0887,57.7205 C221.406035,57.9528345 221.678032,58.2219985 221.9047,58.528 L220.5787,59.548 C220.284032,59.139998 219.867536,58.8028347 219.3292,58.5365 C218.790864,58.2701653 218.210036,58.137 217.5867,58.137 C216.88403,58.137 216.252203,58.2644987 215.6912,58.5195 C215.130197,58.7745013 214.651369,59.1229978 214.2547,59.565 C213.858031,60.0070022 213.552034,60.5198304 213.3367,61.1035 C213.121366,61.6871696 213.0137,62.3076634 213.0137,62.965 C213.0137,63.6450034 213.118532,64.2796637 213.3282,64.869 C213.537868,65.4583363 213.838198,65.9711645 214.2292,66.4075 C214.620202,66.8438355 215.096197,67.1866654 215.6572,67.436 C216.218203,67.6853346 216.844363,67.81 217.5357,67.81 C218.215703,67.81 218.833364,67.6740014 219.3887,67.402 C219.944036,67.1299986 220.403032,66.7333359 220.7657,66.212 L222.1087,67.13 Z M231.9075,64.954 C231.9075,65.5773365 231.797001,66.1496641 231.576,66.671 C231.354999,67.1923359 231.049002,67.6428314 230.658,68.0225 C230.266998,68.4021686 229.805169,68.6968323 229.2725,68.9065 C228.739831,69.1161677 228.167503,69.221 227.5555,69.221 C226.943497,69.221 226.371169,69.1161677 225.8385,68.9065 C225.305831,68.6968323 224.846835,68.4021686 224.4615,68.0225 C224.076165,67.6428314 223.773001,67.1923359 223.552,66.671 C223.330999,66.1496641 223.2205,65.5773365 223.2205,64.954 C223.2205,64.3306635 223.330999,63.7611692 223.552,63.2455 C223.773001,62.7298308 224.076165,62.2850019 224.4615,61.911 C224.846835,61.5369981 225.305831,61.2451677 225.8385,61.0355 C226.371169,60.8258323 226.943497,60.721 227.5555,60.721 C228.167503,60.721 228.739831,60.8258323 229.2725,61.0355 C229.805169,61.2451677 230.266998,61.5369981 230.658,61.911 C231.049002,62.2850019 231.354999,62.7298308 231.576,63.2455 C231.797001,63.7611692 231.9075,64.3306635 231.9075,64.954 Z M230.2415,64.954 C230.2415,64.5686647 230.182001,64.2003351 230.063,63.849 C229.943999,63.4976649 229.771168,63.1888347 229.5445,62.9225 C229.317832,62.6561653 229.037335,62.4436675 228.703,62.285 C228.368665,62.1263325 227.986169,62.047 227.5555,62.047 C227.124831,62.047 226.742335,62.1263325 226.408,62.285 C226.073665,62.4436675 225.793168,62.6561653 225.5665,62.9225 C225.339832,63.1888347 225.167001,63.4976649 225.048,63.849 C224.928999,64.2003351 224.8695,64.5686647 224.8695,64.954 C224.8695,65.3393353 224.928999,65.7076649 225.048,66.059 C225.167001,66.4103351 225.339832,66.7219986 225.5665,66.994 C225.793168,67.2660014 226.073665,67.4813325 226.408,67.64 C226.742335,67.7986675 227.124831,67.878 227.5555,67.878 C227.986169,67.878 228.368665,67.7986675 228.703,67.64 C229.037335,67.4813325 229.317832,67.2660014 229.5445,66.994 C229.771168,66.7219986 229.943999,66.4103351 230.063,66.059 C230.182001,65.7076649 230.2415,65.3393353 230.2415,64.954 Z M235.8923,62.268 C236.096301,61.8373312 236.422131,61.4718348 236.8698,61.1715 C237.317469,60.8711652 237.847297,60.721 238.4593,60.721 C239.003303,60.721 239.493465,60.8456654 239.9298,61.095 C240.366136,61.3443346 240.708965,61.7579971 240.9583,62.336 C241.230301,61.8146641 241.609964,61.4151681 242.0973,61.1375 C242.584636,60.8598319 243.117297,60.721 243.6953,60.721 C244.216636,60.721 244.664298,60.8088325 245.0383,60.9845 C245.412302,61.1601675 245.723965,61.3953319 245.9733,61.69 C246.222635,61.9846681 246.406799,62.3303314 246.5258,62.727 C246.644801,63.1236686 246.7043,63.5486644 246.7043,64.002 L246.7043,69 L245.1063,69 L245.1063,64.529 C245.1063,64.2003317 245.077967,63.8886681 245.0213,63.594 C244.964633,63.2993319 244.868301,63.0386678 244.7323,62.812 C244.596299,62.5853322 244.414968,62.4040007 244.1883,62.268 C243.961632,62.1319993 243.672635,62.064 243.3213,62.064 C242.958632,62.064 242.646968,62.1404992 242.3863,62.2935 C242.125632,62.4465008 241.913134,62.6448321 241.7488,62.8885 C241.584466,63.1321679 241.465467,63.4069985 241.3918,63.713 C241.318133,64.0190015 241.2813,64.3306651 241.2813,64.648 L241.2813,69 L239.6833,69 L239.6833,64.206 C239.6833,63.8886651 239.654967,63.599668 239.5983,63.339 C239.541633,63.078332 239.445301,62.8545009 239.3093,62.6675 C239.173299,62.4804991 238.997634,62.3331672 238.7823,62.2255 C238.566966,62.1178328 238.300635,62.064 237.9833,62.064 C237.393964,62.064 236.903802,62.3048309 236.5128,62.7865 C236.121798,63.2681691 235.9263,63.9113293 235.9263,64.716 L235.9263,69 L234.3283,69 L234.3283,62.676 C234.3283,62.4606656 234.322633,62.1830017 234.3113,61.843 C234.299967,61.5029983 234.282967,61.202668 234.2603,60.942 L235.7733,60.942 C235.795967,61.146001 235.812967,61.3754987 235.8243,61.6305 C235.835633,61.8855013 235.8413,62.0979991 235.8413,62.268 L235.8923,62.268 Z M251.2161,73.08 L249.6181,73.08 L249.6181,60.942 L251.1821,60.942 L251.1821,62.2 L251.2331,62.2 C251.493768,61.7693312 251.876264,61.4151681 252.3806,61.1375 C252.884936,60.8598319 253.47143,60.721 254.1401,60.721 C254.74077,60.721 255.287598,60.8286656 255.7806,61.044 C256.273602,61.2593344 256.698598,61.5596647 257.0556,61.945 C257.412602,62.3303353 257.687432,62.7808308 257.8801,63.2965 C258.072768,63.8121692 258.1691,64.3646637 258.1691,64.954 C258.1691,65.5433363 258.072768,66.0986641 257.8801,66.62 C257.687432,67.1413359 257.415435,67.5946647 257.0641,67.98 C256.712765,68.3653353 256.287769,68.6684989 255.7891,68.8895 C255.290431,69.1105011 254.729436,69.221 254.1061,69.221 C253.528097,69.221 252.984103,69.0963346 252.4741,68.847 C251.964097,68.5976654 251.561768,68.2463356 251.2671,67.793 L251.2161,67.793 L251.2161,73.08 Z M256.5201,64.954 C256.5201,64.5799981 256.463434,64.2173351 256.3501,63.866 C256.236766,63.5146649 256.066768,63.2030014 255.8401,62.931 C255.613432,62.6589986 255.332935,62.4436675 254.9986,62.285 C254.664265,62.1263325 254.276102,62.047 253.8341,62.047 C253.426098,62.047 253.054935,62.1263325 252.7206,62.285 C252.386265,62.4436675 252.100101,62.6589986 251.8621,62.931 C251.624099,63.2030014 251.439934,63.5146649 251.3096,63.866 C251.179266,64.2173351 251.1141,64.5856647 251.1141,64.971 C251.1141,65.3563353 251.179266,65.7246649 251.3096,66.076 C251.439934,66.4273351 251.624099,66.7361653 251.8621,67.0025 C252.100101,67.2688347 252.386265,67.4813325 252.7206,67.64 C253.054935,67.7986675 253.426098,67.878 253.8341,67.878 C254.276102,67.878 254.664265,67.7958342 254.9986,67.6315 C255.332935,67.4671658 255.613432,67.2490014 255.8401,66.977 C256.066768,66.7049986 256.236766,66.3933351 256.3501,66.042 C256.463434,65.6906649 256.5201,65.3280019 256.5201,64.954 Z M265.6219,63.781 C265.6219,63.1803303 265.440569,62.7355014 265.0779,62.4465 C264.715232,62.1574986 264.23357,62.013 263.6329,62.013 C263.179564,62.013 262.751735,62.1008325 262.3494,62.2765 C261.947065,62.4521675 261.609901,62.6759986 261.3379,62.948 L260.4879,61.928 C260.884569,61.5539981 261.369064,61.2593344 261.9414,61.044 C262.513736,60.8286656 263.128563,60.721 263.7859,60.721 C264.363903,60.721 264.865398,60.8031658 265.2904,60.9675 C265.715402,61.1318342 266.063899,61.3556653 266.3359,61.639 C266.607901,61.9223347 266.811899,62.2566647 266.9479,62.642 C267.083901,63.0273353 267.1519,63.4409978 267.1519,63.883 L267.1519,67.402 C267.1519,67.6740014 267.1604,67.9601652 267.1774,68.2605 C267.1944,68.5608348 267.225566,68.8073324 267.2709,69 L265.8259,69 C265.735233,68.6146647 265.6899,68.2293353 265.6899,67.844 L265.6389,67.844 C265.344232,68.2746688 264.973069,68.6089988 264.5254,68.847 C264.077731,69.0850012 263.547903,69.204 262.9359,69.204 C262.618565,69.204 262.287068,69.1615004 261.9414,69.0765 C261.595732,68.9914996 261.281235,68.8526676 260.9979,68.66 C260.714565,68.4673324 260.479401,68.2123349 260.2924,67.895 C260.105399,67.5776651 260.0119,67.186669 260.0119,66.722 C260.0119,66.1099969 260.176232,65.6255018 260.5049,65.2685 C260.833568,64.9114982 261.264231,64.6395009 261.7969,64.4525 C262.329569,64.2654991 262.93023,64.1436669 263.5989,64.087 C264.26757,64.030333 264.941897,64.002 265.6219,64.002 L265.6219,63.781 Z M265.2309,65.158 C264.834231,65.158 264.423402,65.1749998 263.9984,65.209 C263.573398,65.2430002 263.188068,65.3109995 262.8424,65.413 C262.496732,65.5150005 262.210568,65.667999 261.9839,65.872 C261.757232,66.076001 261.6439,66.3479983 261.6439,66.688 C261.6439,66.9260012 261.692066,67.1243325 261.7884,67.283 C261.884734,67.4416675 262.012233,67.5719995 262.1709,67.674 C262.329567,67.7760005 262.505232,67.8468331 262.6979,67.8865 C262.890568,67.9261669 263.088899,67.946 263.2929,67.946 C264.040904,67.946 264.616065,67.7221689 265.0184,67.2745 C265.420735,66.8268311 265.6219,66.2630034 265.6219,65.583 L265.6219,65.158 L265.2309,65.158 Z M270.0317,62.676 C270.0317,62.4606656 270.026033,62.1830017 270.0147,61.843 C270.003367,61.5029983 269.986367,61.202668 269.9637,60.942 L271.4767,60.942 C271.499367,61.146001 271.516367,61.3811653 271.5277,61.6475 C271.539033,61.9138347 271.5447,62.1319991 271.5447,62.302 L271.5957,62.302 C271.822368,61.8259976 272.153865,61.4435014 272.5902,61.1545 C273.026536,60.8654986 273.516697,60.721 274.0607,60.721 C274.310035,60.721 274.519699,60.7436664 274.6897,60.789 L274.6217,62.268 C274.395032,62.2113331 274.151368,62.183 273.8907,62.183 C273.505365,62.183 273.171035,62.2538326 272.8877,62.3955 C272.604365,62.5371674 272.369201,62.7269988 272.1822,62.965 C271.995199,63.2030012 271.856367,63.4778318 271.7657,63.7895 C271.675033,64.1011682 271.6297,64.4269983 271.6297,64.767 L271.6297,69 L270.0317,69 L270.0317,62.676 Z M278.0115,69 L276.4135,69 L276.4135,60.942 L278.0115,60.942 L278.0115,69 Z M278.2835,58.035 C278.2835,58.3296681 278.178668,58.5733324 277.969,58.766 C277.759332,58.9586676 277.507168,59.055 277.2125,59.055 C276.917832,59.055 276.668501,58.9558343 276.4645,58.7575 C276.260499,58.5591657 276.1585,58.3183347 276.1585,58.035 C276.1585,57.7403319 276.260499,57.4938343 276.4645,57.2955 C276.668501,57.0971657 276.917832,56.998 277.2125,56.998 C277.507168,56.998 277.759332,57.0971657 277.969,57.2955 C278.178668,57.4938343 278.2835,57.7403319 278.2835,58.035 Z M285.3623,62.982 C285.180966,62.6873319 284.925968,62.4465009 284.5973,62.2595 C284.268632,62.0724991 283.900302,61.979 283.4923,61.979 C283.310966,61.979 283.129634,61.9988331 282.9483,62.0385 C282.766966,62.0781669 282.605467,62.1404996 282.4638,62.2255 C282.322133,62.3105004 282.2088,62.418166 282.1238,62.5485 C282.0388,62.678834 281.9963,62.8403324 281.9963,63.033 C281.9963,63.3730017 282.149299,63.6251658 282.4553,63.7895 C282.761302,63.9538342 283.220297,64.1039993 283.8323,64.24 C284.217635,64.3306671 284.574632,64.4383327 284.9033,64.563 C285.231968,64.6876673 285.518132,64.8434991 285.7618,65.0305 C286.005468,65.2175009 286.195299,65.441332 286.3313,65.702 C286.467301,65.962668 286.5353,66.2686649 286.5353,66.62 C286.5353,67.0960024 286.444634,67.4983317 286.2633,67.827 C286.081966,68.1556683 285.841135,68.4248323 285.5408,68.6345 C285.240465,68.8441677 284.897635,68.9943329 284.5123,69.085 C284.126965,69.1756671 283.730302,69.221 283.3223,69.221 C282.710297,69.221 282.11247,69.1020012 281.5288,68.864 C280.94513,68.6259988 280.460635,68.2633358 280.0753,67.776 L281.2143,66.807 C281.429634,67.1243349 281.727131,67.3906656 282.1068,67.606 C282.486469,67.8213344 282.902964,67.929 283.3563,67.929 C283.560301,67.929 283.755799,67.9091669 283.9428,67.8695 C284.129801,67.8298331 284.299799,67.7646671 284.4528,67.674 C284.605801,67.5833329 284.727633,67.4643341 284.8183,67.317 C284.908967,67.1696659 284.9543,66.9826678 284.9543,66.756 C284.9543,66.3819981 284.775802,66.1043342 284.4188,65.923 C284.061798,65.7416658 283.537637,65.5716675 282.8463,65.413 C282.574299,65.3449997 282.299468,65.2628338 282.0218,65.1665 C281.744132,65.0701662 281.491968,64.9370009 281.2653,64.767 C281.038632,64.5969992 280.854467,64.3845013 280.7128,64.1295 C280.571133,63.8744987 280.5003,63.5600019 280.5003,63.186 C280.5003,62.7553312 280.588133,62.3841682 280.7638,62.0725 C280.939468,61.7608318 281.168965,61.5058343 281.4523,61.3075 C281.735635,61.1091657 282.058632,60.9618338 282.4213,60.8655 C282.783969,60.7691662 283.157965,60.721 283.5433,60.721 C284.121303,60.721 284.679464,60.8343322 285.2178,61.061 C285.756136,61.2876678 286.172632,61.6163312 286.4673,62.047 L285.3623,62.982 Z M296.9291,64.954 C296.9291,65.5773365 296.818601,66.1496641 296.5976,66.671 C296.376599,67.1923359 296.070602,67.6428314 295.6796,68.0225 C295.288598,68.4021686 294.826769,68.6968323 294.2941,68.9065 C293.761431,69.1161677 293.189103,69.221 292.5771,69.221 C291.965097,69.221 291.392769,69.1161677 290.8601,68.9065 C290.327431,68.6968323 289.868435,68.4021686 289.4831,68.0225 C289.097765,67.6428314 288.794601,67.1923359 288.5736,66.671 C288.352599,66.1496641 288.2421,65.5773365 288.2421,64.954 C288.2421,64.3306635 288.352599,63.7611692 288.5736,63.2455 C288.794601,62.7298308 289.097765,62.2850019 289.4831,61.911 C289.868435,61.5369981 290.327431,61.2451677 290.8601,61.0355 C291.392769,60.8258323 291.965097,60.721 292.5771,60.721 C293.189103,60.721 293.761431,60.8258323 294.2941,61.0355 C294.826769,61.2451677 295.288598,61.5369981 295.6796,61.911 C296.070602,62.2850019 296.376599,62.7298308 296.5976,63.2455 C296.818601,63.7611692 296.9291,64.3306635 296.9291,64.954 Z M295.2631,64.954 C295.2631,64.5686647 295.203601,64.2003351 295.0846,63.849 C294.965599,63.4976649 294.792768,63.1888347 294.5661,62.9225 C294.339432,62.6561653 294.058935,62.4436675 293.7246,62.285 C293.390265,62.1263325 293.007769,62.047 292.5771,62.047 C292.146431,62.047 291.763935,62.1263325 291.4296,62.285 C291.095265,62.4436675 290.814768,62.6561653 290.5881,62.9225 C290.361432,63.1888347 290.188601,63.4976649 290.0696,63.849 C289.950599,64.2003351 289.8911,64.5686647 289.8911,64.954 C289.8911,65.3393353 289.950599,65.7076649 290.0696,66.059 C290.188601,66.4103351 290.361432,66.7219986 290.5881,66.994 C290.814768,67.2660014 291.095265,67.4813325 291.4296,67.64 C291.763935,67.7986675 292.146431,67.878 292.5771,67.878 C293.007769,67.878 293.390265,67.7986675 293.7246,67.64 C294.058935,67.4813325 294.339432,67.2660014 294.5661,66.994 C294.792768,66.7219986 294.965599,66.4103351 295.0846,66.059 C295.203601,65.7076649 295.2631,65.3393353 295.2631,64.954 Z M300.7949,60.942 C300.817567,61.146001 300.834567,61.3754987 300.8459,61.6305 C300.857233,61.8855013 300.8629,62.0979991 300.8629,62.268 L300.9139,62.268 C301.015901,62.0526656 301.154733,61.8515009 301.3304,61.6645 C301.506068,61.4774991 301.707232,61.3131674 301.9339,61.1715 C302.160568,61.0298326 302.409899,60.9193337 302.6819,60.84 C302.953901,60.7606663 303.237232,60.721 303.5319,60.721 C304.053236,60.721 304.500898,60.8088325 304.8749,60.9845 C305.248902,61.1601675 305.560565,61.3953319 305.8099,61.69 C306.059235,61.9846681 306.243399,62.3303314 306.3624,62.727 C306.481401,63.1236686 306.5409,63.5486644 306.5409,64.002 L306.5409,69 L304.9429,69 L304.9429,64.529 C304.9429,64.2003317 304.9174,63.8886681 304.8664,63.594 C304.8154,63.2993319 304.721901,63.0386678 304.5859,62.812 C304.449899,62.5853322 304.262901,62.4040007 304.0249,62.268 C303.786899,62.1319993 303.480902,62.064 303.1069,62.064 C302.47223,62.064 301.953735,62.3048309 301.5514,62.7865 C301.149065,63.2681691 300.9479,63.9113293 300.9479,64.716 L300.9479,69 L299.3499,69 L299.3499,62.676 C299.3499,62.4606656 299.344233,62.1830017 299.3329,61.843 C299.321567,61.5029983 299.304567,61.202668 299.2819,60.942 L300.7949,60.942 Z" id="path-1"></path>
        <linearGradient x1="-1.11022302e-14%" y1="50%" x2="100%" y2="50%" id="linearGradient-2">
            <stop stop-color="#FF8080" offset="0%"></stop>
            <stop stop-color="#FF4949" offset="100%"></stop>
        </linearGradient>
    </defs>
    <g id="Page-1" stroke="none" stroke-width="1" fill="none" fill-rule="evenodd">
        <g id="image" transform="translate(-160.000000, -1814.000000)">
            <g id="Group-28" transform="translate(160.000000, 1299.000000)">
                <g id="Group-3">
                    <g id="SECTION:-The-Status-Quo" transform="translate(0.000000, 367.000000)">
                        <g id="item7" transform="translate(0.000000, 148.000000)">
                            <g id="Group-49">
                                <g id="Selling-Fees-Compari" fill="#FFFFFF">
                                    <use xlink:href="#path-1"></use>
                                    <use xlink:href="#path-1"></use>
                                </g>
                                <g id="Group-40">
                                    <g id="Bar-Chart-2" transform="translate(0.000000, 5.000000)">
                                        <g id="chart-#s-and-lines">
                                            <path d="M3.49830579,33.0129091 C2.79330579,33.0129091 2.31330579,33.3729091 2.02830579,33.7779091 L0.843305787,33.7779091 L0.843305787,28.3929091 L6.09330579,28.3929091 L6.09330579,29.6829091 L2.08830579,29.6829091 L2.08830579,32.3979091 C2.41830579,32.0229091 2.94330579,31.7229091 3.73830579,31.7229091 C5.65830579,31.7229091 6.52830579,33.1929091 6.52830579,35.5179091 C6.52830579,37.5579091 5.47830579,38.8629091 3.49830579,38.8629091 C1.89330579,38.8629091 0.708305787,37.7379091 0.603305787,36.3129091 L1.86330579,36.3129091 C2.05830579,37.1829091 2.65830579,37.6929091 3.49830579,37.6929091 C4.56330579,37.6929091 5.23830579,37.0779091 5.23830579,35.5179091 C5.23830579,33.8979091 4.72830579,33.0129091 3.49830579,33.0129091 Z M13.6683058,31.2579091 L13.6683058,35.8779091 C13.6683058,37.7829091 12.2583058,38.8629091 10.6983058,38.8629091 C9.13830577,38.8629091 7.72830577,37.7829091 7.72830577,35.8629091 L7.72830577,31.2729091 C7.72830577,29.3529091 9.13830577,28.2729091 10.6983058,28.2729091 C12.2583058,28.2729091 13.6683058,29.3529091 13.6683058,31.2579091 Z M12.3783058,31.2579091 C12.3783058,30.1479091 11.6283058,29.4429091 10.6983058,29.4429091 C9.75330577,29.4429091 9.00330577,30.1479091 9.00330577,31.2579091 L9.00330577,35.8779091 C9.00330577,36.9879091 9.75330577,37.6929091 10.6983058,37.6929091 C11.6283058,37.6929091 12.3783058,36.9879091 12.3783058,35.8779091 L12.3783058,31.2579091 Z M3.72330579,62.3929091 L4.99830579,62.3929091 L1.57830579,69.8929091 L4.56330579,69.8929091 L4.56330579,66.8479091 L5.85330579,66.8479091 L5.85330579,69.8929091 L6.79830579,69.8929091 L6.79830579,71.0629091 L5.85330579,71.0629091 L5.85330579,72.7429091 L4.56330579,72.7429091 L4.56330579,71.0629091 L0.0783057868,71.0629091 L0.0783057868,70.1179091 L3.72330579,62.3929091 Z M13.6683058,65.2579091 L13.6683058,69.8779091 C13.6683058,71.7829091 12.2583058,72.8629091 10.6983058,72.8629091 C9.13830577,72.8629091 7.72830577,71.7829091 7.72830577,69.8629091 L7.72830577,65.2729091 C7.72830577,63.3529091 9.13830577,62.2729091 10.6983058,62.2729091 C12.2583058,62.2729091 13.6683058,63.3529091 13.6683058,65.2579091 Z M12.3783058,65.2579091 C12.3783058,64.1479091 11.6283058,63.4429091 10.6983058,63.4429091 C9.75330577,63.4429091 9.00330577,64.1479091 9.00330577,65.2579091 L9.00330577,69.8779091 C9.00330577,70.9879091 9.75330577,71.6929091 10.6983058,71.6929091 C11.6283058,71.6929091 12.3783058,70.9879091 12.3783058,69.8779091 L12.3783058,65.2579091 Z M2.56830579,101.987909 L2.56830579,100.817909 L3.21330579,100.817909 C4.57830579,100.817909 5.16330579,100.112909 5.16330579,98.9879091 C5.16330579,98.1779091 4.50330579,97.4279091 3.48330579,97.4279091 C2.50830579,97.4279091 1.81830579,98.0729091 1.78830579,98.9129091 L0.528305787,98.9129091 C0.528305787,97.2779091 1.93830579,96.2729091 3.48330579,96.2729091 C5.20830579,96.2729091 6.45330579,97.4279091 6.45330579,99.0179091 C6.45330579,100.082909 5.85330579,100.922909 4.90830579,101.372909 C5.91330579,101.777909 6.60330579,102.602909 6.60330579,103.922909 C6.60330579,105.512909 5.41830579,106.862909 3.58830579,106.862909 C1.60830579,106.862909 0.498305787,105.707909 0.393305787,104.147909 L1.65330579,104.147909 C1.78830579,104.987909 2.35830579,105.692909 3.58830579,105.692909 C4.56330579,105.692909 5.31330579,104.942909 5.31330579,103.952909 C5.31330579,102.722909 4.59330579,101.987909 3.21330579,101.987909 L2.56830579,101.987909 Z M13.6683058,99.2579091 L13.6683058,103.877909 C13.6683058,105.782909 12.2583058,106.862909 10.6983058,106.862909 C9.13830577,106.862909 7.72830577,105.782909 7.72830577,103.862909 L7.72830577,99.2729091 C7.72830577,97.3529091 9.13830577,96.2729091 10.6983058,96.2729091 C12.2583058,96.2729091 13.6683058,97.3529091 13.6683058,99.2579091 Z M12.3783058,99.2579091 C12.3783058,98.1479091 11.6283058,97.4429091 10.6983058,97.4429091 C9.75330577,97.4429091 9.00330577,98.1479091 9.00330577,99.2579091 L9.00330577,103.877909 C9.00330577,104.987909 9.75330577,105.692909 10.6983058,105.692909 C11.6283058,105.692909 12.3783058,104.987909 12.3783058,103.877909 L12.3783058,99.2579091 Z M6.42330579,139.572909 L6.42330579,140.742909 L0.348305787,140.742909 L0.348305787,139.662909 L3.99330579,135.357909 C4.69830579,134.532909 5.16330579,133.827909 5.16330579,133.047909 C5.16330579,131.967909 4.33830579,131.427909 3.48330579,131.427909 C2.55330579,131.427909 1.81830579,131.982909 1.78830579,133.047909 L0.513305787,133.047909 C0.513305787,131.337909 1.86330579,130.272909 3.48330579,130.272909 C5.13330579,130.272909 6.45330579,131.337909 6.45330579,133.107909 C6.45330579,134.337909 5.55330579,135.327909 4.89330579,136.122909 L2.04330579,139.572909 L6.42330579,139.572909 Z M13.6683058,133.257909 L13.6683058,137.877909 C13.6683058,139.782909 12.2583058,140.862909 10.6983058,140.862909 C9.13830577,140.862909 7.72830577,139.782909 7.72830577,137.862909 L7.72830577,133.272909 C7.72830577,131.352909 9.13830577,130.272909 10.6983058,130.272909 C12.2583058,130.272909 13.6683058,131.352909 13.6683058,133.257909 Z M12.3783058,133.257909 C12.3783058,132.147909 11.6283058,131.442909 10.6983058,131.442909 C9.75330577,131.442909 9.00330577,132.147909 9.00330577,133.257909 L9.00330577,137.877909 C9.00330577,138.987909 9.75330577,139.692909 10.6983058,139.692909 C11.6283058,139.692909 12.3783058,138.987909 12.3783058,137.877909 L12.3783058,133.257909 Z M4.41330579,164.392909 L4.41330579,174.742909 L3.12330579,174.742909 L3.12330579,165.877909 L1.63830579,166.942909 L1.63830579,165.532909 L3.12330579,164.392909 L4.41330579,164.392909 Z M13.6683058,167.257909 L13.6683058,171.877909 C13.6683058,173.782909 12.2583058,174.862909 10.6983058,174.862909 C9.13830577,174.862909 7.72830577,173.782909 7.72830577,171.862909 L7.72830577,167.272909 C7.72830577,165.352909 9.13830577,164.272909 10.6983058,164.272909 C12.2583058,164.272909 13.6683058,165.352909 13.6683058,167.257909 Z M12.3783058,167.257909 C12.3783058,166.147909 11.6283058,165.442909 10.6983058,165.442909 C9.75330577,165.442909 9.00330577,166.147909 9.00330577,167.257909 L9.00330577,171.877909 C9.00330577,172.987909 9.75330577,173.692909 10.6983058,173.692909 C11.6283058,173.692909 12.3783058,172.987909 12.3783058,171.877909 L12.3783058,167.257909 Z M13.6683058,201.257909 L13.6683058,205.877909 C13.6683058,207.782909 12.2583058,208.862909 10.6983058,208.862909 C9.13830577,208.862909 7.72830577,207.782909 7.72830577,205.862909 L7.72830577,201.272909 C7.72830577,199.352909 9.13830577,198.272909 10.6983058,198.272909 C12.2583058,198.272909 13.6683058,199.352909 13.6683058,201.257909 Z M12.3783058,201.257909 C12.3783058,200.147909 11.6283058,199.442909 10.6983058,199.442909 C9.75330577,199.442909 9.00330577,200.147909 9.00330577,201.257909 L9.00330577,205.877909 C9.00330577,206.987909 9.75330577,207.692909 10.6983058,207.692909 C11.6283058,207.692909 12.3783058,206.987909 12.3783058,205.877909 L12.3783058,201.257909 Z" id="50-40-30-20-10-0" fill="#FFFFFF"></path>
                                            <path d="M28.8577863,97.7610293 L430.226559,97.7610293" id="Line-Copy-4" stroke="#DEDEDE" opacity="0.0768229167"></path>
                                            <path d="M28.9047968,1.76051372 L430.273569,1.76051372" id="Line-Copy-2" stroke="#DEDEDE" opacity="0.0768229167"></path>
                                            <path d="M28.8577863,192.213149 L430.226559,192.213149" id="Line-Copy-5" stroke="#DEDEDE" opacity="0.0768229167"></path>
                                            <path d="M28.8577863,144.212892 L430.226559,144.212892" id="Line-Copy-6" stroke="#DEDEDE" opacity="0.0768229167"></path>
                                            <path d="M28.8577863,49.7607715 L430.226559,49.7607715" id="Line-Copy-3" stroke="#DEDEDE" opacity="0.0768229167"></path>
                                            <path d="M28.8577863,240.213407 L430.226559,240.213407" id="Line-Copy-7" stroke="#DEDEDE" opacity="0.229902627"></path>
                                        </g>
                                        <path d="M62.1713371,267.403971 L61.1793371,267.403971 L64.9553371,256.363971 L65.8193371,256.363971 L69.5953371,267.403971 L68.6193371,267.403971 L67.7073371,264.715971 L63.0673371,264.715971 L62.1713371,267.403971 Z M65.3873371,257.851971 L63.3553371,263.851971 L67.4193371,263.851971 L65.3873371,257.851971 Z M71.2802601,264.971971 L71.2802601,256.363971 L72.1602601,256.363971 L72.1602601,264.747971 C72.1602601,265.867971 72.2882601,266.603971 73.6802601,266.603971 L73.6802601,267.435971 C71.8402601,267.435971 71.2802601,266.635971 71.2802601,264.971971 Z M76.1651832,267.403971 L76.1651832,259.403971 L77.0451832,259.403971 L77.0451832,267.403971 L76.1651832,267.403971 Z M76.0691832,257.435971 L76.0691832,256.363971 L77.1411832,256.363971 L77.1411832,257.435971 L76.0691832,257.435971 Z M80.2021063,256.363971 L86.6981063,256.363971 L86.6981063,257.227971 L81.1301063,257.227971 L81.1301063,261.259971 L86.2181063,261.259971 L86.2181063,262.123971 L81.1301063,262.123971 L81.1301063,266.539971 L86.6981063,266.539971 L86.6981063,267.403971 L80.2021063,267.403971 L80.2021063,256.363971 Z M94.7190294,267.403971 L93.6630294,267.403971 L91.3430294,264.075971 L89.0070294,267.403971 L87.9670294,267.403971 L90.8310294,263.307971 L88.2070294,259.403971 L89.2470294,259.403971 L91.3430294,262.555971 L93.4230294,259.403971 L94.4790294,259.403971 L91.8550294,263.307971 L94.7190294,267.403971 Z M102.851952,262.811971 L102.851952,263.963971 C102.851952,266.155971 101.811952,267.499971 99.7319524,267.499971 C98.5159524,267.499971 97.7639524,267.163971 97.3159524,266.459971 L97.3159524,270.443971 L96.4359524,270.443971 L96.4359524,259.403971 L97.3159524,259.403971 L97.3159524,260.411971 C97.7639524,259.691971 98.5159524,259.307971 99.7319524,259.307971 C101.715952,259.307971 102.851952,260.539971 102.851952,262.811971 Z M99.6679524,266.683971 C101.203952,266.683971 101.971952,265.643971 101.971952,263.963971 L101.971952,262.811971 C101.971952,261.067971 101.187952,260.123971 99.6679524,260.123971 C97.9719524,260.123971 97.3159524,261.147971 97.3159524,262.715971 L97.3159524,264.107971 C97.3319524,265.611971 97.9079524,266.683971 99.6679524,266.683971 Z M107.864876,260.139971 C106.616876,260.139971 105.928876,261.131971 105.928876,262.587971 L105.928876,267.403971 L105.048876,267.403971 L105.048876,259.403971 L105.928876,259.403971 L105.928876,260.491971 C106.264876,259.755971 106.936876,259.307971 107.944876,259.307971 C108.984876,259.307971 109.672876,259.707971 110.200876,260.411971 L109.464876,260.955971 C109.048876,260.411971 108.568876,260.139971 107.864876,260.139971 Z M117.309799,263.627971 L112.013799,263.627971 L112.013799,263.963971 C112.013799,265.547971 112.749799,266.683971 114.445799,266.683971 C115.421799,266.683971 116.077799,266.395971 116.525799,265.707971 L117.229799,266.203971 C116.669799,267.083971 115.789799,267.499971 114.493799,267.499971 C112.365799,267.499971 111.133799,266.187971 111.133799,263.963971 L111.133799,262.811971 C111.133799,260.539971 112.221799,259.307971 114.221799,259.307971 C116.221799,259.307971 117.309799,260.539971 117.309799,262.811971 L117.309799,263.627971 Z M112.013799,262.811971 L112.013799,262.827971 L116.429799,262.827971 L116.429799,262.811971 C116.429799,261.067971 115.677799,260.123971 114.221799,260.123971 C112.765799,260.123971 112.013799,261.083971 112.013799,262.811971 Z M124.882722,260.635971 L124.210722,261.115971 C123.714722,260.411971 123.202722,260.139971 122.034722,260.139971 C120.962722,260.139971 120.146722,260.539971 120.146722,261.451971 C120.146722,262.571971 121.154722,262.795971 122.274722,262.939971 C123.826722,263.147971 125.122722,263.595971 125.122722,265.291971 C125.122722,266.539971 124.322722,267.499971 122.194722,267.499971 C120.610722,267.499971 119.778722,267.003971 119.186722,266.171971 L119.874722,265.691971 C120.354722,266.363971 120.962722,266.667971 122.210722,266.667971 C123.458722,266.667971 124.242722,266.267971 124.242722,265.307971 C124.242722,264.283971 123.442722,263.931971 121.858722,263.723971 C120.498722,263.547971 119.266722,263.083971 119.266722,261.467971 C119.266722,260.171971 120.242722,259.307971 122.050722,259.307971 C123.314722,259.307971 124.274722,259.643971 124.882722,260.635971 Z M132.535645,260.635971 L131.863645,261.115971 C131.367645,260.411971 130.855645,260.139971 129.687645,260.139971 C128.615645,260.139971 127.799645,260.539971 127.799645,261.451971 C127.799645,262.571971 128.807645,262.795971 129.927645,262.939971 C131.479645,263.147971 132.775645,263.595971 132.775645,265.291971 C132.775645,266.539971 131.975645,267.499971 129.847645,267.499971 C128.263645,267.499971 127.431645,267.003971 126.839645,266.171971 L127.527645,265.691971 C128.007645,266.363971 128.615645,266.667971 129.863645,266.667971 C131.111645,266.667971 131.895645,266.267971 131.895645,265.307971 C131.895645,264.283971 131.095645,263.931971 129.511645,263.723971 C128.151645,263.547971 126.919645,263.083971 126.919645,261.467971 C126.919645,260.171971 127.895645,259.307971 129.703645,259.307971 C130.967645,259.307971 131.927645,259.643971 132.535645,260.635971 Z M184.365799,263.627971 L179.069799,263.627971 L179.069799,263.963971 C179.069799,265.547971 179.805799,266.683971 181.501799,266.683971 C182.477799,266.683971 183.133799,266.395971 183.581799,265.707971 L184.285799,266.203971 C183.725799,267.083971 182.845799,267.499971 181.549799,267.499971 C179.421799,267.499971 178.189799,266.187971 178.189799,263.963971 L178.189799,262.811971 C178.189799,260.539971 179.277799,259.307971 181.277799,259.307971 C183.277799,259.307971 184.365799,260.539971 184.365799,262.811971 L184.365799,263.627971 Z M179.069799,262.811971 L179.069799,262.827971 L183.485799,262.827971 L183.485799,262.811971 C183.485799,261.067971 182.733799,260.123971 181.277799,260.123971 C179.821799,260.123971 179.069799,261.083971 179.069799,262.811971 Z M187.010722,256.363971 L190.274722,256.363971 C192.802722,256.363971 194.034722,257.339971 194.034722,259.163971 C194.034722,260.395971 193.202722,261.387971 192.130722,261.643971 C193.522722,261.947971 194.386722,262.875971 194.386722,264.331971 C194.386722,265.835971 193.410722,267.403971 190.658722,267.403971 L187.010722,267.403971 L187.010722,256.363971 Z M187.938722,262.107971 L187.938722,266.539971 L190.658722,266.539971 C192.562722,266.539971 193.458722,265.627971 193.458722,264.331971 C193.458722,262.843971 192.450722,262.107971 190.354722,262.107971 L187.938722,262.107971 Z M187.938722,257.227971 L187.938722,261.243971 L190.562722,261.243971 C192.354722,261.243971 193.106722,260.299971 193.106722,259.163971 C193.106722,258.043971 192.530722,257.227971 190.274722,257.227971 L187.938722,257.227971 Z M196.183645,265.115971 C196.183645,263.579971 197.255645,262.859971 198.903645,262.859971 L201.239645,262.859971 L201.239645,261.867971 C201.239645,260.507971 200.695645,260.139971 199.223645,260.139971 C198.263645,260.139971 197.639645,260.203971 197.127645,261.051971 L196.455645,260.587971 C197.015645,259.643971 197.815645,259.307971 199.239645,259.307971 C201.191645,259.307971 202.119645,259.915971 202.119645,261.867971 L202.119645,267.403971 L201.239645,267.403971 L201.239645,266.411971 C200.791645,267.259971 199.991645,267.499971 198.967645,267.499971 C197.191645,267.499971 196.183645,266.651971 196.183645,265.115971 Z M201.239645,264.427971 L201.239645,263.643971 L198.903645,263.643971 C197.527645,263.643971 197.063645,264.283971 197.063645,265.131971 C197.063645,266.251971 197.847645,266.667971 198.967645,266.667971 C200.263645,266.667971 201.239645,266.219971 201.239645,264.427971 Z M204.684568,270.443971 L204.684568,269.579971 C205.932568,269.579971 206.332568,269.163971 206.876568,267.627971 L206.908568,267.531971 L203.628568,259.403971 L204.588568,259.403971 L207.356568,266.251971 L209.724568,259.403971 L210.652568,259.403971 L207.756568,267.723971 C207.100568,269.643971 206.588568,270.443971 204.684568,270.443971 Z M263.660568,256.363971 L264.620568,256.363971 L266.844568,265.675971 L269.564568,256.363971 L270.508568,256.363971 L273.292568,265.531971 L275.484568,256.363971 L276.444568,256.363971 L273.740568,267.403971 L272.748568,267.403971 L270.044568,258.027971 L267.340568,267.403971 L266.364568,267.403971 L263.660568,256.363971 Z M277.409491,265.115971 C277.409491,263.579971 278.481491,262.859971 280.129491,262.859971 L282.465491,262.859971 L282.465491,261.867971 C282.465491,260.507971 281.921491,260.139971 280.449491,260.139971 C279.489491,260.139971 278.865491,260.203971 278.353491,261.051971 L277.681491,260.587971 C278.241491,259.643971 279.041491,259.307971 280.465491,259.307971 C282.417491,259.307971 283.345491,259.915971 283.345491,261.867971 L283.345491,267.403971 L282.465491,267.403971 L282.465491,266.411971 C282.017491,267.259971 281.217491,267.499971 280.193491,267.499971 C278.417491,267.499971 277.409491,266.651971 277.409491,265.115971 Z M282.465491,264.427971 L282.465491,263.643971 L280.129491,263.643971 C278.753491,263.643971 278.289491,264.283971 278.289491,265.131971 C278.289491,266.251971 279.073491,266.667971 280.193491,266.667971 C281.489491,266.667971 282.465491,266.219971 282.465491,264.427971 Z M285.942414,264.971971 L285.942414,256.363971 L286.822414,256.363971 L286.822414,264.747971 C286.822414,265.867971 286.950414,266.603971 288.342414,266.603971 L288.342414,267.435971 C286.502414,267.435971 285.942414,266.635971 285.942414,264.971971 Z M290.587337,267.403971 L290.587337,259.403971 L291.467337,259.403971 L291.467337,260.491971 C291.803337,259.755971 292.523337,259.307971 293.579337,259.307971 C294.715337,259.307971 295.547337,259.851971 295.963337,260.875971 C296.411337,259.867971 297.291337,259.307971 298.395337,259.307971 C300.075337,259.307971 301.099337,260.491971 301.099337,262.667971 L301.099337,267.403971 L300.219337,267.403971 L300.219337,262.683971 C300.219337,260.939971 299.451337,260.139971 298.299337,260.139971 C297.019337,260.139971 296.283337,261.083971 296.283337,262.491971 L296.283337,267.403971 L295.403337,267.403971 L295.403337,262.683971 C295.403337,260.939971 294.635337,260.139971 293.483337,260.139971 C292.171337,260.139971 291.467337,261.131971 291.467337,262.603971 L291.467337,267.403971 L290.587337,267.403971 Z M303.29626,265.115971 C303.29626,263.579971 304.36826,262.859971 306.01626,262.859971 L308.35226,262.859971 L308.35226,261.867971 C308.35226,260.507971 307.80826,260.139971 306.33626,260.139971 C305.37626,260.139971 304.75226,260.203971 304.24026,261.051971 L303.56826,260.587971 C304.12826,259.643971 304.92826,259.307971 306.35226,259.307971 C308.30426,259.307971 309.23226,259.915971 309.23226,261.867971 L309.23226,267.403971 L308.35226,267.403971 L308.35226,266.411971 C307.90426,267.259971 307.10426,267.499971 306.08026,267.499971 C304.30426,267.499971 303.29626,266.651971 303.29626,265.115971 Z M308.35226,264.427971 L308.35226,263.643971 L306.01626,263.643971 C304.64026,263.643971 304.17626,264.283971 304.17626,265.131971 C304.17626,266.251971 304.96026,266.667971 306.08026,266.667971 C307.37626,266.667971 308.35226,266.219971 308.35226,264.427971 Z M314.645183,260.139971 C313.397183,260.139971 312.709183,261.131971 312.709183,262.587971 L312.709183,267.403971 L311.829183,267.403971 L311.829183,259.403971 L312.709183,259.403971 L312.709183,260.491971 C313.045183,259.755971 313.717183,259.307971 314.725183,259.307971 C315.765183,259.307971 316.453183,259.707971 316.981183,260.411971 L316.245183,260.955971 C315.829183,260.411971 315.349183,260.139971 314.645183,260.139971 Z M317.674106,260.219971 L317.674106,259.403971 L318.698106,259.403971 L318.698106,257.643971 L319.578106,257.643971 L319.578106,259.403971 L321.546106,259.403971 L321.546106,260.219971 L319.578106,260.219971 L319.578106,264.699971 C319.578106,265.979971 319.722106,266.555971 321.018106,266.555971 L321.546106,266.555971 L321.546106,267.403971 L320.986106,267.403971 C319.210106,267.403971 318.698106,266.603971 318.698106,264.939971 L318.698106,260.219971 L317.674106,260.219971 Z M358.582414,267.403971 L357.590414,267.403971 L361.366414,256.363971 L362.230414,256.363971 L366.006414,267.403971 L365.030414,267.403971 L364.118414,264.715971 L359.478414,264.715971 L358.582414,267.403971 Z M361.798414,257.851971 L359.766414,263.851971 L363.830414,263.851971 L361.798414,257.851971 Z M367.691337,267.403971 L367.691337,259.403971 L368.571337,259.403971 L368.571337,260.491971 C368.907337,259.755971 369.627337,259.307971 370.683337,259.307971 C371.819337,259.307971 372.651337,259.851971 373.067337,260.875971 C373.515337,259.867971 374.395337,259.307971 375.499337,259.307971 C377.179337,259.307971 378.203337,260.491971 378.203337,262.667971 L378.203337,267.403971 L377.323337,267.403971 L377.323337,262.683971 C377.323337,260.939971 376.555337,260.139971 375.403337,260.139971 C374.123337,260.139971 373.387337,261.083971 373.387337,262.491971 L373.387337,267.403971 L372.507337,267.403971 L372.507337,262.683971 C372.507337,260.939971 371.739337,260.139971 370.587337,260.139971 C369.275337,260.139971 368.571337,261.131971 368.571337,262.603971 L368.571337,267.403971 L367.691337,267.403971 Z M380.40026,265.115971 C380.40026,263.579971 381.47226,262.859971 383.12026,262.859971 L385.45626,262.859971 L385.45626,261.867971 C385.45626,260.507971 384.91226,260.139971 383.44026,260.139971 C382.48026,260.139971 381.85626,260.203971 381.34426,261.051971 L380.67226,260.587971 C381.23226,259.643971 382.03226,259.307971 383.45626,259.307971 C385.40826,259.307971 386.33626,259.915971 386.33626,261.867971 L386.33626,267.403971 L385.45626,267.403971 L385.45626,266.411971 C385.00826,267.259971 384.20826,267.499971 383.18426,267.499971 C381.40826,267.499971 380.40026,266.651971 380.40026,265.115971 Z M385.45626,264.427971 L385.45626,263.643971 L383.12026,263.643971 C381.74426,263.643971 381.28026,264.283971 381.28026,265.131971 C381.28026,266.251971 382.06426,266.667971 383.18426,266.667971 C384.48026,266.667971 385.45626,266.219971 385.45626,264.427971 Z M388.533183,266.715971 L393.125183,260.219971 L388.533183,260.219971 L388.533183,259.403971 L394.277183,259.403971 L394.277183,260.091971 L389.717183,266.587971 L394.277183,266.587971 L394.277183,267.403971 L388.533183,267.403971 L388.533183,266.715971 Z M402.378106,263.979971 C402.378106,266.155971 401.274106,267.499971 399.130106,267.499971 C397.066106,267.499971 395.882106,266.219971 395.882106,263.979971 L395.882106,262.811971 C395.882106,260.539971 397.082106,259.307971 399.130106,259.307971 C401.178106,259.307971 402.378106,260.539971 402.378106,262.811971 L402.378106,263.979971 Z M401.498106,263.979971 L401.498106,262.811971 C401.498106,261.067971 400.650106,260.123971 399.130106,260.123971 C397.594106,260.123971 396.762106,261.067971 396.762106,262.811971 L396.762106,263.979971 C396.762106,265.659971 397.514106,266.683971 399.130106,266.683971 C400.682106,266.683971 401.498106,265.659971 401.498106,263.979971 Z M404.575029,267.403971 L404.575029,259.403971 L405.455029,259.403971 L405.455029,260.491971 C405.871029,259.723971 406.607029,259.307971 407.807029,259.307971 C409.583029,259.307971 410.751029,260.411971 410.751029,262.667971 L410.751029,267.403971 L409.871029,267.403971 L409.871029,262.683971 C409.871029,260.859971 408.959029,260.139971 407.711029,260.139971 C406.207029,260.139971 405.455029,261.131971 405.455029,262.603971 L405.455029,267.403971 L404.575029,267.403971 Z" id="AliExpress-eBay-Walm" fill="#FFFFFF"></path>
                                        <g id="bars" transform="translate(80.285787, 20.351082)" fill="url(#linearGradient-2)">
                                            <rect id="Rectangle-6" transform="translate(16.578367, 202.561176) rotate(-270.000000) translate(-16.578367, -202.561176) " x="0.243556085" y="186.706176" width="32.6696217" height="31.7099991"></rect>
                                            <rect id="Rectangle-6" transform="translate(111.818768, 182.820977) rotate(-270.000000) translate(-111.818768, -182.820977) " x="76.2187485" y="166.465977" width="71.2000398" height="32.7099991"></rect>
                                            <rect id="Rectangle-6" transform="translate(208.069213, 169.675410) rotate(-270.000000) translate(-208.069213, -169.675410) " x="158.042721" y="153.320411" width="100.052984" height="32.7099991"></rect>
                                            <rect id="Rectangle-6" transform="translate(303.041146, 110.201036) rotate(-270.000000) translate(-303.041146, -110.201036) " x="193.541898" y="94.621036" width="218.998497" height="31.1599998"></rect>
                                        </g>
                                    </g>
                                    <g id="Group-18" transform="translate(66.000000, 0.000000)" fill="#FFFFFF">
                                        <path d="M284.695,12.102 C282.145,12.102 280.53,10.657 280.53,7.206 L280.53,0.27 L281.516,0.27 L281.516,7.206 C281.516,9.926 282.638,11.184 284.695,11.184 C286.752,11.184 287.874,9.926 287.874,7.206 L287.874,0.27 L288.86,0.27 L288.86,7.206 C288.86,10.657 287.245,12.102 284.695,12.102 Z M297.9295,7.121 L297.9295,8.345 C297.9295,10.674 296.8245,12.102 294.6145,12.102 C293.3225,12.102 292.5235,11.745 292.0475,10.997 L292.0475,15.23 L291.1125,15.23 L291.1125,3.5 L292.0475,3.5 L292.0475,4.571 C292.5235,3.806 293.3225,3.398 294.6145,3.398 C296.7225,3.398 297.9295,4.707 297.9295,7.121 Z M294.5465,11.235 C296.1785,11.235 296.9945,10.13 296.9945,8.345 L296.9945,7.121 C296.9945,5.268 296.1615,4.265 294.5465,4.265 C292.7445,4.265 292.0475,5.353 292.0475,7.019 L292.0475,8.498 C292.0645,10.096 292.6765,11.235 294.5465,11.235 Z M302.4515,4.367 L302.4515,3.5 L303.5395,3.5 L303.5395,1.63 L304.4745,1.63 L304.4745,3.5 L306.5655,3.5 L306.5655,4.367 L304.4745,4.367 L304.4745,9.127 C304.4745,10.487 304.6275,11.099 306.0045,11.099 L306.5655,11.099 L306.5655,12 L305.9705,12 C304.0835,12 303.5395,11.15 303.5395,9.382 L303.5395,4.367 L302.4515,4.367 Z M314.36,8.362 C314.36,10.674 313.187,12.102 310.909,12.102 C308.716,12.102 307.458,10.742 307.458,8.362 L307.458,7.121 C307.458,4.707 308.733,3.398 310.909,3.398 C313.085,3.398 314.36,4.707 314.36,7.121 L314.36,8.362 Z M313.425,8.362 L313.425,7.121 C313.425,5.268 312.524,4.265 310.909,4.265 C309.277,4.265 308.393,5.268 308.393,7.121 L308.393,8.362 C308.393,10.147 309.192,11.235 310.909,11.235 C312.558,11.235 313.425,10.147 313.425,8.362 Z M323.115,0.27 L324.118,0.27 L320.072,8.974 L324.169,8.974 L324.169,5.319 L325.155,5.319 L325.155,8.974 L326.328,8.974 L326.328,9.892 L325.155,9.892 L325.155,12 L324.169,12 L324.169,9.892 L318.916,9.892 L318.916,9.161 L323.115,0.27 Z M330.4335,5.03 C329.4305,5.03 328.7845,5.659 328.3935,6.373 L327.5095,6.373 L327.5095,0.27 L333.2895,0.27 L333.2895,1.256 L328.4615,1.256 L328.4615,5.064 C328.8865,4.486 329.6005,4.044 330.5865,4.044 C332.8305,4.044 333.7825,5.693 333.7825,8.328 C333.7825,10.64 332.6095,12.102 330.4335,12.102 C328.6655,12.102 327.3565,10.827 327.2375,9.212 L328.2065,9.212 C328.3765,10.419 329.2945,11.184 330.4335,11.184 C331.8785,11.184 332.7965,10.402 332.7965,8.328 C332.7965,6.186 332.0995,5.03 330.4335,5.03 Z M342.937,0.27 L343.94,0.27 L337.395,12 L336.375,12 L342.937,0.27 Z M336.919,5.421 C338.041,5.421 338.5,4.622 338.5,3.602 L338.5,2.718 C338.5,1.545 337.922,0.933 336.919,0.933 C335.933,0.933 335.355,1.545 335.355,2.718 L335.355,3.602 C335.355,4.622 335.763,5.421 336.919,5.421 Z M336.919,6.186 C335.406,6.186 334.556,5.251 334.556,3.602 L334.556,2.701 C334.556,1.052 335.44,0.151 336.919,0.151 C338.415,0.151 339.282,1.052 339.282,2.701 L339.282,3.602 C339.282,5.2 338.517,6.186 336.919,6.186 Z M343.583,11.337 C344.705,11.337 345.164,10.538 345.164,9.518 L345.164,8.634 C345.164,7.461 344.586,6.849 343.583,6.849 C342.597,6.849 342.019,7.461 342.019,8.634 L342.019,9.518 C342.019,10.538 342.427,11.337 343.583,11.337 Z M343.583,12.102 C342.07,12.102 341.22,11.167 341.22,9.518 L341.22,8.617 C341.22,6.968 342.104,6.067 343.583,6.067 C345.079,6.067 345.946,6.968 345.946,8.617 L345.946,9.518 C345.946,11.116 345.181,12.102 343.583,12.102 Z" id="Up-to-45%"></path>
                                        <path d="M193.695,128.102 C191.145,128.102 189.53,126.657 189.53,123.206 L189.53,116.27 L190.516,116.27 L190.516,123.206 C190.516,125.926 191.638,127.184 193.695,127.184 C195.752,127.184 196.874,125.926 196.874,123.206 L196.874,116.27 L197.86,116.27 L197.86,123.206 C197.86,126.657 196.245,128.102 193.695,128.102 Z M206.9295,123.121 L206.9295,124.345 C206.9295,126.674 205.8245,128.102 203.6145,128.102 C202.3225,128.102 201.5235,127.745 201.0475,126.997 L201.0475,131.23 L200.1125,131.23 L200.1125,119.5 L201.0475,119.5 L201.0475,120.571 C201.5235,119.806 202.3225,119.398 203.6145,119.398 C205.7225,119.398 206.9295,120.707 206.9295,123.121 Z M203.5465,127.235 C205.1785,127.235 205.9945,126.13 205.9945,124.345 L205.9945,123.121 C205.9945,121.268 205.1615,120.265 203.5465,120.265 C201.7445,120.265 201.0475,121.353 201.0475,123.019 L201.0475,124.498 C201.0645,126.096 201.6765,127.235 203.5465,127.235 Z M211.4515,120.367 L211.4515,119.5 L212.5395,119.5 L212.5395,117.63 L213.4745,117.63 L213.4745,119.5 L215.5655,119.5 L215.5655,120.367 L213.4745,120.367 L213.4745,125.127 C213.4745,126.487 213.6275,127.099 215.0045,127.099 L215.5655,127.099 L215.5655,128 L214.9705,128 C213.0835,128 212.5395,127.15 212.5395,125.382 L212.5395,120.367 L211.4515,120.367 Z M223.36,124.362 C223.36,126.674 222.187,128.102 219.909,128.102 C217.716,128.102 216.458,126.742 216.458,124.362 L216.458,123.121 C216.458,120.707 217.733,119.398 219.909,119.398 C222.085,119.398 223.36,120.707 223.36,123.121 L223.36,124.362 Z M222.425,124.362 L222.425,123.121 C222.425,121.268 221.524,120.265 219.909,120.265 C218.277,120.265 217.393,121.268 217.393,123.121 L217.393,124.362 C217.393,126.147 218.192,127.235 219.909,127.235 C221.558,127.235 222.425,126.147 222.425,124.362 Z M234.937,127.082 L234.937,128 L228.222,128 L228.222,127.184 L232.438,122.22 C233.458,121.013 233.985,120.197 233.985,119.313 C233.985,117.834 232.846,117.086 231.69,117.086 C230.432,117.086 229.429,117.851 229.378,119.313 L228.409,119.313 C228.409,117.375 229.888,116.168 231.69,116.168 C233.509,116.168 234.971,117.375 234.971,119.381 C234.971,120.724 233.883,121.897 232.982,122.985 L229.548,127.082 L234.937,127.082 Z M242.7485,119.551 L242.7485,124.719 C242.7485,126.878 241.2355,128.102 239.4675,128.102 C237.6995,128.102 236.1865,126.878 236.1865,124.702 L236.1865,119.568 C236.1865,117.392 237.6995,116.168 239.4675,116.168 C241.2355,116.168 242.7485,117.392 242.7485,119.551 Z M241.7625,119.551 C241.7625,118.021 240.7595,117.086 239.4675,117.086 C238.1585,117.086 237.1555,118.021 237.1555,119.551 L237.1555,124.719 C237.1555,126.249 238.1585,127.184 239.4675,127.184 C240.7595,127.184 241.7625,126.249 241.7625,124.719 L241.7625,119.551 Z M251.937,116.27 L252.94,116.27 L246.395,128 L245.375,128 L251.937,116.27 Z M245.919,121.421 C247.041,121.421 247.5,120.622 247.5,119.602 L247.5,118.718 C247.5,117.545 246.922,116.933 245.919,116.933 C244.933,116.933 244.355,117.545 244.355,118.718 L244.355,119.602 C244.355,120.622 244.763,121.421 245.919,121.421 Z M245.919,122.186 C244.406,122.186 243.556,121.251 243.556,119.602 L243.556,118.701 C243.556,117.052 244.44,116.151 245.919,116.151 C247.415,116.151 248.282,117.052 248.282,118.701 L248.282,119.602 C248.282,121.2 247.517,122.186 245.919,122.186 Z M252.583,127.337 C253.705,127.337 254.164,126.538 254.164,125.518 L254.164,124.634 C254.164,123.461 253.586,122.849 252.583,122.849 C251.597,122.849 251.019,123.461 251.019,124.634 L251.019,125.518 C251.019,126.538 251.427,127.337 252.583,127.337 Z M252.583,128.102 C251.07,128.102 250.22,127.167 250.22,125.518 L250.22,124.617 C250.22,122.968 251.104,122.067 252.583,122.067 C254.079,122.067 254.946,122.968 254.946,124.617 L254.946,125.518 C254.946,127.116 254.181,128.102 252.583,128.102 Z" id="Up-to-20%"></path>
                                        <path d="M95.695,152.102 C93.145,152.102 91.53,150.657 91.53,147.206 L91.53,140.27 L92.516,140.27 L92.516,147.206 C92.516,149.926 93.638,151.184 95.695,151.184 C97.752,151.184 98.874,149.926 98.874,147.206 L98.874,140.27 L99.86,140.27 L99.86,147.206 C99.86,150.657 98.245,152.102 95.695,152.102 Z M108.9295,147.121 L108.9295,148.345 C108.9295,150.674 107.8245,152.102 105.6145,152.102 C104.3225,152.102 103.5235,151.745 103.0475,150.997 L103.0475,155.23 L102.1125,155.23 L102.1125,143.5 L103.0475,143.5 L103.0475,144.571 C103.5235,143.806 104.3225,143.398 105.6145,143.398 C107.7225,143.398 108.9295,144.707 108.9295,147.121 Z M105.5465,151.235 C107.1785,151.235 107.9945,150.13 107.9945,148.345 L107.9945,147.121 C107.9945,145.268 107.1615,144.265 105.5465,144.265 C103.7445,144.265 103.0475,145.353 103.0475,147.019 L103.0475,148.498 C103.0645,150.096 103.6765,151.235 105.5465,151.235 Z M113.4515,144.367 L113.4515,143.5 L114.5395,143.5 L114.5395,141.63 L115.4745,141.63 L115.4745,143.5 L117.5655,143.5 L117.5655,144.367 L115.4745,144.367 L115.4745,149.127 C115.4745,150.487 115.6275,151.099 117.0045,151.099 L117.5655,151.099 L117.5655,152 L116.9705,152 C115.0835,152 114.5395,151.15 114.5395,149.382 L114.5395,144.367 L113.4515,144.367 Z M125.36,148.362 C125.36,150.674 124.187,152.102 121.909,152.102 C119.716,152.102 118.458,150.742 118.458,148.362 L118.458,147.121 C118.458,144.707 119.733,143.398 121.909,143.398 C124.085,143.398 125.36,144.707 125.36,147.121 L125.36,148.362 Z M124.425,148.362 L124.425,147.121 C124.425,145.268 123.524,144.265 121.909,144.265 C120.277,144.265 119.393,145.268 119.393,147.121 L119.393,148.362 C119.393,150.147 120.192,151.235 121.909,151.235 C123.558,151.235 124.425,150.147 124.425,148.362 Z M134.387,140.27 L134.387,152 L133.401,152 L133.401,141.46 L131.718,142.667 L131.718,141.562 L133.401,140.27 L134.387,140.27 Z M141.4335,145.03 C140.4305,145.03 139.7845,145.659 139.3935,146.373 L138.5095,146.373 L138.5095,140.27 L144.2895,140.27 L144.2895,141.256 L139.4615,141.256 L139.4615,145.064 C139.8865,144.486 140.6005,144.044 141.5865,144.044 C143.8305,144.044 144.7825,145.693 144.7825,148.328 C144.7825,150.64 143.6095,152.102 141.4335,152.102 C139.6655,152.102 138.3565,150.827 138.2375,149.212 L139.2065,149.212 C139.3765,150.419 140.2945,151.184 141.4335,151.184 C142.8785,151.184 143.7965,150.402 143.7965,148.328 C143.7965,146.186 143.0995,145.03 141.4335,145.03 Z M153.937,140.27 L154.94,140.27 L148.395,152 L147.375,152 L153.937,140.27 Z M147.919,145.421 C149.041,145.421 149.5,144.622 149.5,143.602 L149.5,142.718 C149.5,141.545 148.922,140.933 147.919,140.933 C146.933,140.933 146.355,141.545 146.355,142.718 L146.355,143.602 C146.355,144.622 146.763,145.421 147.919,145.421 Z M147.919,146.186 C146.406,146.186 145.556,145.251 145.556,143.602 L145.556,142.701 C145.556,141.052 146.44,140.151 147.919,140.151 C149.415,140.151 150.282,141.052 150.282,142.701 L150.282,143.602 C150.282,145.2 149.517,146.186 147.919,146.186 Z M154.583,151.337 C155.705,151.337 156.164,150.538 156.164,149.518 L156.164,148.634 C156.164,147.461 155.586,146.849 154.583,146.849 C153.597,146.849 153.019,147.461 153.019,148.634 L153.019,149.518 C153.019,150.538 153.427,151.337 154.583,151.337 Z M154.583,152.102 C153.07,152.102 152.22,151.167 152.22,149.518 L152.22,148.617 C152.22,146.968 153.104,146.067 154.583,146.067 C156.079,146.067 156.946,146.968 156.946,148.617 L156.946,149.518 C156.946,151.116 156.181,152.102 154.583,152.102 Z" id="Up-to-15%"></path>
                                        <path d="M4.695,193.102 C2.145,193.102 0.53,191.657 0.53,188.206 L0.53,181.27 L1.516,181.27 L1.516,188.206 C1.516,190.926 2.638,192.184 4.695,192.184 C6.752,192.184 7.874,190.926 7.874,188.206 L7.874,181.27 L8.86,181.27 L8.86,188.206 C8.86,191.657 7.245,193.102 4.695,193.102 Z M17.9295,188.121 L17.9295,189.345 C17.9295,191.674 16.8245,193.102 14.6145,193.102 C13.3225,193.102 12.5235,192.745 12.0475,191.997 L12.0475,196.23 L11.1125,196.23 L11.1125,184.5 L12.0475,184.5 L12.0475,185.571 C12.5235,184.806 13.3225,184.398 14.6145,184.398 C16.7225,184.398 17.9295,185.707 17.9295,188.121 Z M14.5465,192.235 C16.1785,192.235 16.9945,191.13 16.9945,189.345 L16.9945,188.121 C16.9945,186.268 16.1615,185.265 14.5465,185.265 C12.7445,185.265 12.0475,186.353 12.0475,188.019 L12.0475,189.498 C12.0645,191.096 12.6765,192.235 14.5465,192.235 Z M22.4515,185.367 L22.4515,184.5 L23.5395,184.5 L23.5395,182.63 L24.4745,182.63 L24.4745,184.5 L26.5655,184.5 L26.5655,185.367 L24.4745,185.367 L24.4745,190.127 C24.4745,191.487 24.6275,192.099 26.0045,192.099 L26.5655,192.099 L26.5655,193 L25.9705,193 C24.0835,193 23.5395,192.15 23.5395,190.382 L23.5395,185.367 L22.4515,185.367 Z M34.36,189.362 C34.36,191.674 33.187,193.102 30.909,193.102 C28.716,193.102 27.458,191.742 27.458,189.362 L27.458,188.121 C27.458,185.707 28.733,184.398 30.909,184.398 C33.085,184.398 34.36,185.707 34.36,188.121 L34.36,189.362 Z M33.425,189.362 L33.425,188.121 C33.425,186.268 32.524,185.265 30.909,185.265 C29.277,185.265 28.393,186.268 28.393,188.121 L28.393,189.362 C28.393,191.147 29.192,192.235 30.909,192.235 C32.558,192.235 33.425,191.147 33.425,189.362 Z M40.225,189.804 C40.225,191.13 41.262,192.184 42.605,192.184 C43.931,192.184 44.985,191.13 44.985,189.804 C44.985,188.41 43.846,187.407 42.605,187.407 C41.347,187.407 40.225,188.41 40.225,189.804 Z M40.395,184.296 C40.395,185.52 41.364,186.506 42.605,186.506 C43.829,186.506 44.815,185.52 44.815,184.296 C44.815,183.072 43.829,182.086 42.605,182.086 C41.364,182.086 40.395,183.072 40.395,184.296 Z M39.239,189.804 C39.239,188.478 40.072,187.373 41.109,186.931 C40.123,186.472 39.409,185.452 39.409,184.296 C39.409,182.477 40.888,181.168 42.605,181.168 C44.322,181.168 45.801,182.477 45.801,184.296 C45.801,185.452 45.07,186.472 44.084,186.931 C45.138,187.373 45.971,188.478 45.971,189.804 C45.971,191.725 44.407,193.102 42.605,193.102 C40.803,193.102 39.239,191.725 39.239,189.804 Z M55.0745,181.27 L56.0775,181.27 L49.5325,193 L48.5125,193 L55.0745,181.27 Z M49.0565,186.421 C50.1785,186.421 50.6375,185.622 50.6375,184.602 L50.6375,183.718 C50.6375,182.545 50.0595,181.933 49.0565,181.933 C48.0705,181.933 47.4925,182.545 47.4925,183.718 L47.4925,184.602 C47.4925,185.622 47.9005,186.421 49.0565,186.421 Z M49.0565,187.186 C47.5435,187.186 46.6935,186.251 46.6935,184.602 L46.6935,183.701 C46.6935,182.052 47.5775,181.151 49.0565,181.151 C50.5525,181.151 51.4195,182.052 51.4195,183.701 L51.4195,184.602 C51.4195,186.2 50.6545,187.186 49.0565,187.186 Z M55.7205,192.337 C56.8425,192.337 57.3015,191.538 57.3015,190.518 L57.3015,189.634 C57.3015,188.461 56.7235,187.849 55.7205,187.849 C54.7345,187.849 54.1565,188.461 54.1565,189.634 L54.1565,190.518 C54.1565,191.538 54.5645,192.337 55.7205,192.337 Z M55.7205,193.102 C54.2075,193.102 53.3575,192.167 53.3575,190.518 L53.3575,189.617 C53.3575,187.968 54.2415,187.067 55.7205,187.067 C57.2165,187.067 58.0835,187.968 58.0835,189.617 L58.0835,190.518 C58.0835,192.116 57.3185,193.102 55.7205,193.102 Z" id="Up-to-8%"></path>
                                    </g>
                                </g>
                            </g>
                        </g>
                    </g>
                </g>
            </g>
        </g>
    </g>
</svg>