<?xml version="1.0" encoding="UTF-8"?>
<svg width="334px" height="229px" viewBox="0 0 334 229" version="1.1" xmlns="http://www.w3.org/2000/svg" xmlns:xlink="http://www.w3.org/1999/xlink">
    <!-- Generator: Sketch 50.2 (55047) - http://www.bohemiancoding.com/sketch -->
    <title>Group 40</title>
    <desc>Created with Sketch.</desc>
    <defs>
        <linearGradient x1="-1.11022302e-14%" y1="50%" x2="100%" y2="50%" id="linearGradient-1">
            <stop stop-color="#FF8080" offset="0%"></stop>
            <stop stop-color="#FF4949" offset="100%"></stop>
        </linearGradient>
    </defs>
    <g id="Tablet" stroke="none" stroke-width="1" fill="none" fill-rule="evenodd">
        <g id="Goodfair-Tablet" transform="translate(-19.000000, -1800.000000)">
            <g id="Group-28" transform="translate(19.000000, 1526.000000)">
                <g id="Group-40" transform="translate(0.000000, 274.000000)">
                    <g id="Bar-Chart-2" transform="translate(0.000000, 4.000000)">
                        <g id="chart-#s-and-lines" stroke="#DEDEDE">
                            <path d="M0.903085177,81.1669062 L333.359354,81.1669062" id="Line-Copy-4" opacity="0.0768229167"></path>
                            <path d="M0.942024223,1.46168114 L333.398293,1.46168114" id="Line-Copy-2" opacity="0.0768229167"></path>
                            <path d="M0.903085177,159.586563 L333.359354,159.586563" id="Line-Copy-5" opacity="0.0768229167"></path>
                            <path d="M0.903085177,119.733951 L333.359354,119.733951" id="Line-Copy-6" opacity="0.0768229167"></path>
                            <path d="M0.903085177,41.3142937 L333.359354,41.3142937" id="Line-Copy-3" opacity="0.0768229167"></path>
                            <path d="M0.903085177,199.439176 L333.359354,199.439176" id="Line-Copy-7" opacity="0.229902627"></path>
                        </g>
                        <path d="M28.496908,222.014367 L27.6752281,222.014367 L30.8029126,212.848316 L31.5185692,212.848316 L34.6462537,222.014367 L33.8378268,222.014367 L33.0824114,219.782633 L29.2390704,219.782633 L28.496908,222.014367 Z M31.1607409,214.08374 L29.4776226,219.06529 L32.8438592,219.06529 L31.1607409,214.08374 Z M36.041886,219.995179 L36.041886,212.848316 L36.7707955,212.848316 L36.7707955,219.809201 C36.7707955,220.739091 36.8768187,221.350161 38.029821,221.350161 L38.029821,222.040936 C36.5057375,222.040936 36.041886,221.376729 36.041886,219.995179 Z M40.0880984,222.014367 L40.0880984,215.372301 L40.8170079,215.372301 L40.8170079,222.014367 L40.0880984,222.014367 Z M40.008581,213.738353 L40.008581,212.848316 L40.8965253,212.848316 L40.8965253,213.738353 L40.008581,213.738353 Z M43.4319071,212.848316 L48.8125846,212.848316 L48.8125846,213.565659 L44.2005753,213.565659 L44.2005753,216.91326 L48.4149975,216.91326 L48.4149975,217.630604 L44.2005753,217.630604 L44.2005753,221.297024 L48.8125846,221.297024 L48.8125846,222.014367 L43.4319071,222.014367 L43.4319071,212.848316 Z M55.4563654,222.014367 L54.581674,222.014367 L52.6600034,219.251268 L50.72508,222.014367 L49.8636415,222.014367 L52.2359106,218.613629 L50.062435,215.372301 L50.9238735,215.372301 L52.6600034,217.989275 L54.3828805,215.372301 L55.2575719,215.372301 L53.0840962,218.613629 L55.4563654,222.014367 Z M62.1929165,218.201821 L62.1929165,219.158279 C62.1929165,220.978205 61.331478,222.094072 59.608601,222.094072 C58.6013806,222.094072 57.9784942,221.815105 57.607413,221.230604 L57.607413,224.538353 L56.8785035,224.538353 L56.8785035,215.372301 L57.607413,215.372301 L57.607413,216.209201 C57.9784942,215.611415 58.6013806,215.292596 59.608601,215.292596 C61.2519606,215.292596 62.1929165,216.315474 62.1929165,218.201821 Z M59.5555894,221.416581 C60.8278678,221.416581 61.464007,220.553113 61.464007,219.158279 L61.464007,218.201821 C61.464007,216.753851 60.8146149,215.970087 59.5555894,215.970087 C58.1507819,215.970087 57.607413,216.820272 57.607413,218.122117 L57.607413,219.277836 C57.6206659,220.526545 58.0977703,221.416581 59.5555894,221.416581 Z M66.3451521,215.983371 C65.3114259,215.983371 64.7415512,216.806987 64.7415512,218.015843 L64.7415512,222.014367 L64.0126417,222.014367 L64.0126417,215.372301 L64.7415512,215.372301 L64.7415512,216.275622 C65.0198621,215.664552 65.5764839,215.292596 66.4114166,215.292596 C67.2728551,215.292596 67.8427298,215.6247 68.2800755,216.209201 L67.6704421,216.660862 C67.3258667,216.209201 66.9282797,215.983371 66.3451521,215.983371 Z M74.168441,218.879312 L69.7817311,218.879312 L69.7817311,219.158279 C69.7817311,220.473408 70.3913645,221.416581 71.7961719,221.416581 C72.6045988,221.416581 73.1479677,221.177467 73.5190489,220.606249 L74.1021765,221.018057 C73.638325,221.748685 72.9094155,222.094072 71.8359306,222.094072 C70.0732949,222.094072 69.0528216,221.004773 69.0528216,219.158279 L69.0528216,218.201821 C69.0528216,216.315474 69.9540188,215.292596 71.6106313,215.292596 C73.2672438,215.292596 74.168441,216.315474 74.168441,218.201821 L74.168441,218.879312 Z M69.7817311,218.201821 L69.7817311,218.215105 L73.4395315,218.215105 L73.4395315,218.201821 C73.4395315,216.753851 72.8166452,215.970087 71.6106313,215.970087 C70.4046174,215.970087 69.7817311,216.767135 69.7817311,218.201821 Z M80.4411407,216.395179 L79.8845189,216.793703 C79.473679,216.209201 79.0495861,215.983371 78.0821244,215.983371 C77.1941801,215.983371 76.5182822,216.315474 76.5182822,217.07267 C76.5182822,218.002559 77.3532149,218.188537 78.2809179,218.308094 C79.5664493,218.480788 80.6399342,218.852744 80.6399342,220.260862 C80.6399342,221.297024 79.9772892,222.094072 78.2146534,222.094072 C76.9026163,222.094072 76.2134655,221.682264 75.7231082,220.991489 L76.2929829,220.592965 C76.6905699,221.150899 77.1941801,221.403297 78.2279063,221.403297 C79.2616326,221.403297 79.9110247,221.071194 79.9110247,220.274146 C79.9110247,219.423962 79.2483797,219.131711 77.9363425,218.959017 C76.809846,218.812891 75.7893727,218.427652 75.7893727,217.085954 C75.7893727,216.009939 76.5977996,215.292596 78.0953773,215.292596 C79.1423564,215.292596 79.9375305,215.571563 80.4411407,216.395179 Z M86.7801048,216.395179 L86.223483,216.793703 C85.8126431,216.209201 85.3885503,215.983371 84.4210886,215.983371 C83.5331442,215.983371 82.8572463,216.315474 82.8572463,217.07267 C82.8572463,218.002559 83.692179,218.188537 84.6198821,218.308094 C85.9054134,218.480788 86.9788983,218.852744 86.9788983,220.260862 C86.9788983,221.297024 86.3162533,222.094072 84.5536176,222.094072 C83.2415804,222.094072 82.5524296,221.682264 82.0620723,220.991489 L82.631947,220.592965 C83.029534,221.150899 83.5331442,221.403297 84.5668705,221.403297 C85.6005967,221.403297 86.2499888,221.071194 86.2499888,220.274146 C86.2499888,219.423962 85.5873438,219.131711 84.2753067,218.959017 C83.1488101,218.812891 82.1283368,218.427652 82.1283368,217.085954 C82.1283368,216.009939 82.9367637,215.292596 84.4343415,215.292596 C85.4813206,215.292596 86.2764946,215.571563 86.7801048,216.395179 Z M129.711346,218.879312 L125.324636,218.879312 L125.324636,219.158279 C125.324636,220.473408 125.934269,221.416581 127.339077,221.416581 C128.147504,221.416581 128.690873,221.177467 129.061954,220.606249 L129.645081,221.018057 C129.18123,221.748685 128.45232,222.094072 127.378835,222.094072 C125.6162,222.094072 124.595726,221.004773 124.595726,219.158279 L124.595726,218.201821 C124.595726,216.315474 125.496924,215.292596 127.153536,215.292596 C128.810149,215.292596 129.711346,216.315474 129.711346,218.201821 L129.711346,218.879312 Z M125.324636,218.201821 L125.324636,218.215105 L128.982436,218.215105 L128.982436,218.201821 C128.982436,216.753851 128.35955,215.970087 127.153536,215.970087 C125.947522,215.970087 125.324636,216.767135 125.324636,218.201821 Z M131.902152,212.848316 L134.605744,212.848316 C136.699702,212.848316 137.720175,213.658648 137.720175,215.173039 C137.720175,216.195917 137.031025,217.019533 136.14308,217.23208 C137.296083,217.484478 138.011739,218.254958 138.011739,219.463814 C138.011739,220.712522 137.203312,222.014367 134.923813,222.014367 L131.902152,222.014367 L131.902152,212.848316 Z M132.67082,217.617319 L132.67082,221.297024 L134.923813,221.297024 C136.500909,221.297024 137.243071,220.539829 137.243071,219.463814 C137.243071,218.22839 136.408138,217.617319 134.672008,217.617319 L132.67082,217.617319 Z M132.67082,213.565659 L132.67082,216.899976 L134.844296,216.899976 C136.328621,216.899976 136.951507,216.116212 136.951507,215.173039 C136.951507,214.24315 136.474403,213.565659 134.605744,213.565659 L132.67082,213.565659 Z M139.500142,220.114736 C139.500142,218.83946 140.388086,218.241674 141.753135,218.241674 L143.688058,218.241674 L143.688058,217.418057 C143.688058,216.288906 143.23746,215.983371 142.018193,215.983371 C141.223019,215.983371 140.706156,216.036508 140.282063,216.740567 L139.725441,216.355327 C140.189293,215.571563 140.851938,215.292596 142.031446,215.292596 C143.6483,215.292596 144.416968,215.797393 144.416968,217.418057 L144.416968,222.014367 L143.688058,222.014367 L143.688058,221.190751 C143.316977,221.89481 142.654332,222.094072 141.806147,222.094072 C140.335075,222.094072 139.500142,221.390013 139.500142,220.114736 Z M143.688058,219.543519 L143.688058,218.892596 L141.753135,218.892596 C140.613386,218.892596 140.229051,219.423962 140.229051,220.128021 C140.229051,221.05791 140.878444,221.403297 141.806147,221.403297 C142.879631,221.403297 143.688058,221.031342 143.688058,219.543519 Z M146.54151,224.538353 L146.54151,223.82101 C147.575236,223.82101 147.906558,223.475622 148.357157,222.200345 L148.383663,222.120641 L145.666818,215.372301 L146.461992,215.372301 L148.754744,221.05791 L150.716173,215.372301 L151.484842,215.372301 L149.086067,222.28005 C148.542698,223.874146 148.118605,224.538353 146.54151,224.538353 Z M195.3917,212.848316 L196.186874,212.848316 L198.029027,220.579681 L200.28202,212.848316 L201.063941,212.848316 L203.369946,220.460124 L205.185593,212.848316 L205.980767,212.848316 L203.741027,222.014367 L202.919347,222.014367 L200.679607,214.229866 L198.439867,222.014367 L197.63144,222.014367 L195.3917,212.848316 Z M206.780019,220.114736 C206.780019,218.83946 207.667963,218.241674 209.033012,218.241674 L210.967936,218.241674 L210.967936,217.418057 C210.967936,216.288906 210.517337,215.983371 209.29807,215.983371 C208.502896,215.983371 207.986033,216.036508 207.56194,216.740567 L207.005318,216.355327 C207.46917,215.571563 208.131815,215.292596 209.311323,215.292596 C210.928177,215.292596 211.696845,215.797393 211.696845,217.418057 L211.696845,222.014367 L210.967936,222.014367 L210.967936,221.190751 C210.596854,221.89481 209.934209,222.094072 209.086024,222.094072 C207.614952,222.094072 206.780019,221.390013 206.780019,220.114736 Z M210.967936,219.543519 L210.967936,218.892596 L209.033012,218.892596 C207.893263,218.892596 207.508929,219.423962 207.508929,220.128021 C207.508929,221.05791 208.158321,221.403297 209.086024,221.403297 C210.159509,221.403297 210.967936,221.031342 210.967936,219.543519 Z M213.847893,219.995179 L213.847893,212.848316 L214.576802,212.848316 L214.576802,219.809201 C214.576802,220.739091 214.682825,221.350161 215.835828,221.350161 L215.835828,222.040936 C214.311744,222.040936 213.847893,221.376729 213.847893,219.995179 Z M217.695312,222.014367 L217.695312,215.372301 L218.424221,215.372301 L218.424221,216.275622 C218.702532,215.664552 219.298912,215.292596 220.173604,215.292596 C221.11456,215.292596 221.803711,215.744257 222.148286,216.594441 C222.519367,215.757541 223.248277,215.292596 224.162727,215.292596 C225.554281,215.292596 226.402467,216.275622 226.402467,218.082264 L226.402467,222.014367 L225.673558,222.014367 L225.673558,218.095548 C225.673558,216.647578 225.037418,215.983371 224.083209,215.983371 C223.022977,215.983371 222.413344,216.767135 222.413344,217.936139 L222.413344,222.014367 L221.684435,222.014367 L221.684435,218.095548 C221.684435,216.647578 221.048295,215.983371 220.094087,215.983371 C219.007349,215.983371 218.424221,216.806987 218.424221,218.029128 L218.424221,222.014367 L217.695312,222.014367 Z M228.222192,220.114736 C228.222192,218.83946 229.110136,218.241674 230.475185,218.241674 L232.410109,218.241674 L232.410109,217.418057 C232.410109,216.288906 231.95951,215.983371 230.740243,215.983371 C229.945069,215.983371 229.428206,216.036508 229.004113,216.740567 L228.447491,216.355327 C228.911343,215.571563 229.573988,215.292596 230.753496,215.292596 C232.37035,215.292596 233.139018,215.797393 233.139018,217.418057 L233.139018,222.014367 L232.410109,222.014367 L232.410109,221.190751 C232.039027,221.89481 231.376382,222.094072 230.528197,222.094072 C229.057125,222.094072 228.222192,221.390013 228.222192,220.114736 Z M232.410109,219.543519 L232.410109,218.892596 L230.475185,218.892596 C229.335436,218.892596 228.951102,219.423962 228.951102,220.128021 C228.951102,221.05791 229.600494,221.403297 230.528197,221.403297 C231.601682,221.403297 232.410109,221.031342 232.410109,219.543519 Z M237.622576,215.983371 C236.58885,215.983371 236.018975,216.806987 236.018975,218.015843 L236.018975,222.014367 L235.290066,222.014367 L235.290066,215.372301 L236.018975,215.372301 L236.018975,216.275622 C236.297286,215.664552 236.853908,215.292596 237.688841,215.292596 C238.550279,215.292596 239.120154,215.6247 239.5575,216.209201 L238.947866,216.660862 C238.603291,216.209201 238.205704,215.983371 237.622576,215.983371 Z M240.131452,216.049792 L240.131452,215.372301 L240.979638,215.372301 L240.979638,213.911046 L241.708547,213.911046 L241.708547,215.372301 L243.338654,215.372301 L243.338654,216.049792 L241.708547,216.049792 L241.708547,219.769349 C241.708547,220.83208 241.827823,221.310308 242.901308,221.310308 L243.338654,221.310308 L243.338654,222.014367 L242.874803,222.014367 C241.403731,222.014367 240.979638,221.350161 240.979638,219.968611 L240.979638,216.049792 L240.131452,216.049792 Z M274.01606,222.014367 L273.19438,222.014367 L276.322064,212.848316 L277.037721,212.848316 L280.165405,222.014367 L279.356978,222.014367 L278.601563,219.782633 L274.758222,219.782633 L274.01606,222.014367 Z M276.679893,214.08374 L274.996774,219.06529 L278.363011,219.06529 L276.679893,214.08374 Z M281.561038,222.014367 L281.561038,215.372301 L282.289947,215.372301 L282.289947,216.275622 C282.568258,215.664552 283.164639,215.292596 284.03933,215.292596 C284.980286,215.292596 285.669437,215.744257 286.014012,216.594441 C286.385093,215.757541 287.114003,215.292596 288.028453,215.292596 C289.420008,215.292596 290.268193,216.275622 290.268193,218.082264 L290.268193,222.014367 L289.539284,222.014367 L289.539284,218.095548 C289.539284,216.647578 288.903144,215.983371 287.948936,215.983371 C286.888704,215.983371 286.27907,216.767135 286.27907,217.936139 L286.27907,222.014367 L285.550161,222.014367 L285.550161,218.095548 C285.550161,216.647578 284.914022,215.983371 283.959813,215.983371 C282.873075,215.983371 282.289947,216.806987 282.289947,218.029128 L282.289947,222.014367 L281.561038,222.014367 Z M292.087918,220.114736 C292.087918,218.83946 292.975863,218.241674 294.340911,218.241674 L296.275835,218.241674 L296.275835,217.418057 C296.275835,216.288906 295.825236,215.983371 294.605969,215.983371 C293.810795,215.983371 293.293932,216.036508 292.869839,216.740567 L292.313218,216.355327 C292.777069,215.571563 293.439714,215.292596 294.619222,215.292596 C296.236076,215.292596 297.004744,215.797393 297.004744,217.418057 L297.004744,222.014367 L296.275835,222.014367 L296.275835,221.190751 C295.904754,221.89481 295.242109,222.094072 294.393923,222.094072 C292.922851,222.094072 292.087918,221.390013 292.087918,220.114736 Z M296.275835,219.543519 L296.275835,218.892596 L294.340911,218.892596 C293.201162,218.892596 292.816828,219.423962 292.816828,220.128021 C292.816828,221.05791 293.46622,221.403297 294.393923,221.403297 C295.467408,221.403297 296.275835,221.031342 296.275835,219.543519 Z M298.824469,221.44315 L302.628052,216.049792 L298.824469,216.049792 L298.824469,215.372301 L303.582261,215.372301 L303.582261,215.943519 L299.805184,221.336877 L303.582261,221.336877 L303.582261,222.014367 L298.824469,222.014367 L298.824469,221.44315 Z M310.292306,219.171563 C310.292306,220.978205 309.377856,222.094072 307.601967,222.094072 C305.892343,222.094072 304.911628,221.031342 304.911628,219.171563 L304.911628,218.201821 C304.911628,216.315474 305.905596,215.292596 307.601967,215.292596 C309.298338,215.292596 310.292306,216.315474 310.292306,218.201821 L310.292306,219.171563 Z M309.563396,219.171563 L309.563396,218.201821 C309.563396,216.753851 308.860993,215.970087 307.601967,215.970087 C306.329689,215.970087 305.640538,216.753851 305.640538,218.201821 L305.640538,219.171563 C305.640538,220.566397 306.263424,221.416581 307.601967,221.416581 C308.887499,221.416581 309.563396,220.566397 309.563396,219.171563 Z M312.112031,222.014367 L312.112031,215.372301 L312.840941,215.372301 L312.840941,216.275622 C313.185516,215.637984 313.795149,215.292596 314.789117,215.292596 C316.260189,215.292596 317.227651,216.209201 317.227651,218.082264 L317.227651,222.014367 L316.498741,222.014367 L316.498741,218.095548 C316.498741,216.581157 315.743326,215.983371 314.7096,215.983371 C313.463827,215.983371 312.840941,216.806987 312.840941,218.029128 L312.840941,222.014367 L312.112031,222.014367 Z" id="AliExpress-eBay-Walm" fill="#FFFFFF"></path>
                        <g id="bars" transform="translate(43.501220, 16.896655)" fill="url(#linearGradient-1)">
                            <rect id="Rectangle-6" transform="translate(13.731965, 168.178098) rotate(-270.000000) translate(-13.731965, -168.178098) " x="0.201739031" y="155.014353" width="27.0604523" height="26.32749"></rect>
                            <rect id="Rectangle-6" transform="translate(92.620186, 151.788634) rotate(-270.000000) translate(-92.620186, -151.788634) " x="63.1324669" y="138.20976" width="58.975439" height="27.1577483"></rect>
                            <rect id="Rectangle-6" transform="translate(172.345033, 140.874418) rotate(-270.000000) translate(-172.345033, -140.874418) " x="130.907776" y="127.295544" width="82.8745133" height="27.1577483"></rect>
                            <rect id="Rectangle-6" transform="translate(251.010880, 91.495325) rotate(-270.000000) translate(-251.010880, -91.495325) " x="160.311966" y="78.5599007" width="181.397827" height="25.8708486"></rect>
                        </g>
                    </g>
                    <g id="Group-18" transform="translate(32.000000, 0.000000)" fill="#FFFFFF">
                        <path d="M236.148743,10.0133299 C234.033569,10.0133299 232.69396,8.81772081 232.69396,5.96232487 L232.69396,0.223401015 L233.511827,0.223401015 L233.511827,5.96232487 C233.511827,8.21288325 234.442503,9.2537665 236.148743,9.2537665 C237.854983,9.2537665 238.785659,8.21288325 238.785659,5.96232487 L238.785659,0.223401015 L239.603526,0.223401015 L239.603526,5.96232487 C239.603526,8.81772081 238.263916,10.0133299 236.148743,10.0133299 Z M247.126493,5.89199492 L247.126493,6.90474619 C247.126493,8.8317868 246.209918,10.0133299 244.376767,10.0133299 C243.305079,10.0133299 242.642325,9.71794416 242.247493,9.09904061 L242.247493,12.6014721 L241.471929,12.6014721 L241.471929,2.89593909 L242.247493,2.89593909 L242.247493,3.78209645 C242.642325,3.1491269 243.305079,2.81154315 244.376767,2.81154315 C246.125311,2.81154315 247.126493,3.89462437 247.126493,5.89199492 Z M244.320363,9.29596447 C245.674074,9.29596447 246.350929,8.38167513 246.350929,6.90474619 L246.350929,5.89199492 C246.350929,4.35880203 245.659973,3.52890863 244.320363,3.52890863 C242.82564,3.52890863 242.247493,4.42913198 242.247493,5.80759898 L242.247493,7.0313401 C242.261594,8.35354315 242.769236,9.29596447 244.320363,9.29596447 Z M250.8774,3.61330457 L250.8774,2.89593909 L251.779874,2.89593909 L251.779874,1.3486802 L252.555438,1.3486802 L252.555438,2.89593909 L254.28988,2.89593909 L254.28988,3.61330457 L252.555438,3.61330457 L252.555438,7.55178173 C252.555438,8.67706091 252.682348,9.18343655 253.824542,9.18343655 L254.28988,9.18343655 L254.28988,9.92893401 L253.79634,9.92893401 C252.231111,9.92893401 251.779874,9.22563452 251.779874,7.76277157 L251.779874,3.61330457 L250.8774,3.61330457 Z M260.75526,6.91881218 C260.75526,8.8317868 259.78228,10.0133299 257.892725,10.0133299 C256.073676,10.0133299 255.030191,8.88805076 255.030191,6.91881218 L255.030191,5.89199492 C255.030191,3.89462437 256.087777,2.81154315 257.892725,2.81154315 C259.697673,2.81154315 260.75526,3.89462437 260.75526,5.89199492 L260.75526,6.91881218 Z M259.979697,6.91881218 L259.979697,5.89199492 C259.979697,4.35880203 259.232335,3.52890863 257.892725,3.52890863 C256.539014,3.52890863 255.805754,4.35880203 255.805754,5.89199492 L255.805754,6.91881218 C255.805754,8.39574112 256.468509,9.29596447 257.892725,9.29596447 C259.260538,9.29596447 259.979697,8.39574112 259.979697,6.91881218 Z M268.017355,0.223401015 L268.849324,0.223401015 L265.493249,7.42518782 L268.891627,7.42518782 L268.891627,4.401 L269.709494,4.401 L269.709494,7.42518782 L270.682474,7.42518782 L270.682474,8.18475127 L269.709494,8.18475127 L269.709494,9.92893401 L268.891627,9.92893401 L268.891627,8.18475127 L264.53437,8.18475127 L264.53437,7.57991371 L268.017355,0.223401015 Z M274.087903,4.16187817 C273.255935,4.16187817 272.720091,4.6823198 272.395764,5.27309137 L271.662504,5.27309137 L271.662504,0.223401015 L276.456897,0.223401015 L276.456897,1.03922843 L272.452169,1.03922843 L272.452169,4.19001015 C272.804698,3.7117665 273.396947,3.34605076 274.214814,3.34605076 C276.076166,3.34605076 276.865831,4.71045178 276.865831,6.8906802 C276.865831,8.80365482 275.892851,10.0133299 274.087903,10.0133299 C272.621383,10.0133299 271.535594,8.95838071 271.436886,7.62211168 L272.240652,7.62211168 C272.381663,8.62079695 273.143126,9.2537665 274.087903,9.2537665 C275.286501,9.2537665 276.047964,8.60673096 276.047964,6.8906802 C276.047964,5.11836548 275.469816,4.16187817 274.087903,4.16187817 Z M284.459303,0.223401015 L285.291272,0.223401015 L279.862327,9.92893401 L279.016257,9.92893401 L284.459303,0.223401015 Z M279.467494,4.48539594 C280.398171,4.48539594 280.778902,3.82429442 280.778902,2.98033503 L280.778902,2.24890355 C280.778902,1.27835025 280.299462,0.771974619 279.467494,0.771974619 C278.649627,0.771974619 278.170188,1.27835025 278.170188,2.24890355 L278.170188,2.98033503 C278.170188,3.82429442 278.508616,4.48539594 279.467494,4.48539594 Z M279.467494,5.11836548 C278.212491,5.11836548 277.507434,4.34473604 277.507434,2.98033503 L277.507434,2.23483756 C277.507434,0.870436548 278.240694,0.124939086 279.467494,0.124939086 C280.708396,0.124939086 281.427555,0.870436548 281.427555,2.23483756 L281.427555,2.98033503 C281.427555,4.30253807 280.793003,5.11836548 279.467494,5.11836548 Z M284.995147,9.38036041 C285.925824,9.38036041 286.306555,8.71925888 286.306555,7.87529949 L286.306555,7.14386802 C286.306555,6.17331472 285.827116,5.66693909 284.995147,5.66693909 C284.17728,5.66693909 283.697841,6.17331472 283.697841,7.14386802 L283.697841,7.87529949 C283.697841,8.71925888 284.036269,9.38036041 284.995147,9.38036041 Z M284.995147,10.0133299 C283.740145,10.0133299 283.035087,9.23970051 283.035087,7.87529949 L283.035087,7.12980203 C283.035087,5.76540102 283.768347,5.01990355 284.995147,5.01990355 C286.236049,5.01990355 286.955208,5.76540102 286.955208,7.12980203 L286.955208,7.87529949 C286.955208,9.19750254 286.320656,10.0133299 284.995147,10.0133299 Z" id="Up-to-45%"></path>
                        <path d="M160.666084,105.993025 C158.55091,105.993025 157.211301,104.797416 157.211301,101.94202 L157.211301,96.2030964 L158.029168,96.2030964 L158.029168,101.94202 C158.029168,104.192579 158.959844,105.233462 160.666084,105.233462 C162.372324,105.233462 163.303,104.192579 163.303,101.94202 L163.303,96.2030964 L164.120867,96.2030964 L164.120867,101.94202 C164.120867,104.797416 162.781257,105.993025 160.666084,105.993025 Z M171.643834,101.87169 L171.643834,102.884442 C171.643834,104.811482 170.727259,105.993025 168.894108,105.993025 C167.822421,105.993025 167.159666,105.69764 166.764834,105.078736 L166.764834,108.581168 L165.98927,108.581168 L165.98927,98.8756345 L166.764834,98.8756345 L166.764834,99.7617919 C167.159666,99.1288223 167.822421,98.7912386 168.894108,98.7912386 C170.642652,98.7912386 171.643834,99.8743198 171.643834,101.87169 Z M168.837704,105.27566 C170.191415,105.27566 170.86827,104.361371 170.86827,102.884442 L170.86827,101.87169 C170.86827,100.338497 170.177314,99.5086041 168.837704,99.5086041 C167.342981,99.5086041 166.764834,100.408827 166.764834,101.787294 L166.764834,103.011036 C166.778935,104.333239 167.286577,105.27566 168.837704,105.27566 Z M175.394741,99.593 L175.394741,98.8756345 L176.297215,98.8756345 L176.297215,97.3283756 L177.072779,97.3283756 L177.072779,98.8756345 L178.807221,98.8756345 L178.807221,99.593 L177.072779,99.593 L177.072779,103.531477 C177.072779,104.656756 177.199689,105.163132 178.341883,105.163132 L178.807221,105.163132 L178.807221,105.908629 L178.313681,105.908629 C176.748452,105.908629 176.297215,105.20533 176.297215,103.742467 L176.297215,99.593 L175.394741,99.593 Z M185.272601,102.898508 C185.272601,104.811482 184.299621,105.993025 182.410066,105.993025 C180.591017,105.993025 179.547532,104.867746 179.547532,102.898508 L179.547532,101.87169 C179.547532,99.8743198 180.605118,98.7912386 182.410066,98.7912386 C184.215014,98.7912386 185.272601,99.8743198 185.272601,101.87169 L185.272601,102.898508 Z M184.497038,102.898508 L184.497038,101.87169 C184.497038,100.338497 183.749676,99.5086041 182.410066,99.5086041 C181.056355,99.5086041 180.323095,100.338497 180.323095,101.87169 L180.323095,102.898508 C180.323095,104.375437 180.98585,105.27566 182.410066,105.27566 C183.777879,105.27566 184.497038,104.375437 184.497038,102.898508 Z M194.875488,105.149066 L194.875488,105.908629 L189.305532,105.908629 L189.305532,105.233462 L192.802618,101.126193 C193.648688,100.127508 194.085824,99.4523401 194.085824,98.7209086 C194.085824,97.4971675 193.141046,96.878264 192.182168,96.878264 C191.138682,96.878264 190.306714,97.5112335 190.26441,98.7209086 L189.460645,98.7209086 C189.460645,97.1173858 190.687445,96.1187005 192.182168,96.1187005 C193.690991,96.1187005 194.903691,97.1173858 194.903691,98.7771726 C194.903691,99.8883858 194.001217,100.858939 193.253855,101.759162 L190.405422,105.149066 L194.875488,105.149066 Z M201.35497,98.9178325 L201.35497,103.193893 C201.35497,104.980274 200.099967,105.993025 198.633447,105.993025 C197.166926,105.993025 195.911923,104.980274 195.911923,103.179827 L195.911923,98.9318985 C195.911923,97.1314518 197.166926,96.1187005 198.633447,96.1187005 C200.099967,96.1187005 201.35497,97.1314518 201.35497,98.9178325 Z M200.537103,98.9178325 C200.537103,97.6518934 199.705134,96.878264 198.633447,96.878264 C197.547658,96.878264 196.715689,97.6518934 196.715689,98.9178325 L196.715689,103.193893 C196.715689,104.459832 197.547658,105.233462 198.633447,105.233462 C199.705134,105.233462 200.537103,104.459832 200.537103,103.193893 L200.537103,98.9178325 Z M208.976645,96.2030964 L209.808613,96.2030964 L204.379668,105.908629 L203.533598,105.908629 L208.976645,96.2030964 Z M203.984835,100.465091 C204.915512,100.465091 205.296243,99.8039898 205.296243,98.9600305 L205.296243,98.228599 C205.296243,97.2580457 204.816803,96.7516701 203.984835,96.7516701 C203.166968,96.7516701 202.687529,97.2580457 202.687529,98.228599 L202.687529,98.9600305 C202.687529,99.8039898 203.025957,100.465091 203.984835,100.465091 Z M203.984835,101.098061 C202.729832,101.098061 202.024775,100.324431 202.024775,98.9600305 L202.024775,98.214533 C202.024775,96.850132 202.758035,96.1046345 203.984835,96.1046345 C205.225737,96.1046345 205.944896,96.850132 205.944896,98.214533 L205.944896,98.9600305 C205.944896,100.282234 205.310344,101.098061 203.984835,101.098061 Z M209.512488,105.360056 C210.443165,105.360056 210.823896,104.698954 210.823896,103.854995 L210.823896,103.123563 C210.823896,102.15301 210.344457,101.646635 209.512488,101.646635 C208.694621,101.646635 208.215182,102.15301 208.215182,103.123563 L208.215182,103.854995 C208.215182,104.698954 208.55361,105.360056 209.512488,105.360056 Z M209.512488,105.993025 C208.257486,105.993025 207.552428,105.219396 207.552428,103.854995 L207.552428,103.109497 C207.552428,101.745096 208.285688,100.999599 209.512488,100.999599 C210.75339,100.999599 211.472549,101.745096 211.472549,103.109497 L211.472549,103.854995 C211.472549,105.177198 210.837997,105.993025 209.512488,105.993025 Z" id="Up-to-20%"></path>
                        <path d="M79.3770665,125.850893 C77.2618931,125.850893 75.9222832,124.655284 75.9222832,121.799888 L75.9222832,116.060964 L76.7401503,116.060964 L76.7401503,121.799888 C76.7401503,124.050447 77.6708266,125.09133 79.3770665,125.09133 C81.0833064,125.09133 82.0139827,124.050447 82.0139827,121.799888 L82.0139827,116.060964 L82.8318497,116.060964 L82.8318497,121.799888 C82.8318497,124.655284 81.4922399,125.850893 79.3770665,125.850893 Z M90.3548165,121.729558 L90.3548165,122.74231 C90.3548165,124.66935 89.4382413,125.850893 87.605091,125.850893 C86.5334032,125.850893 85.8706488,125.555508 85.4758165,124.936604 L85.4758165,128.439036 L84.7002529,128.439036 L84.7002529,118.733503 L85.4758165,118.733503 L85.4758165,119.61966 C85.8706488,118.98669 86.5334032,118.649107 87.605091,118.649107 C89.3536344,118.649107 90.3548165,119.732188 90.3548165,121.729558 Z M87.5486864,125.133528 C88.9023974,125.133528 89.5792529,124.219239 89.5792529,122.74231 L89.5792529,121.729558 C89.5792529,120.196365 88.8882962,119.366472 87.5486864,119.366472 C86.0539639,119.366472 85.4758165,120.266695 85.4758165,121.645162 L85.4758165,122.868904 C85.4899176,124.191107 85.9975592,125.133528 87.5486864,125.133528 Z M94.105724,119.450868 L94.105724,118.733503 L95.008198,118.733503 L95.008198,117.186244 L95.7837616,117.186244 L95.7837616,118.733503 L97.5182038,118.733503 L97.5182038,119.450868 L95.7837616,119.450868 L95.7837616,123.389345 C95.7837616,124.514624 95.910672,125.021 97.0528656,125.021 L97.5182038,125.021 L97.5182038,125.766497 L97.0246633,125.766497 C95.459435,125.766497 95.008198,125.063198 95.008198,123.600335 L95.008198,119.450868 L94.105724,119.450868 Z M103.983584,122.756376 C103.983584,124.66935 103.010604,125.850893 101.121049,125.850893 C99.302,125.850893 98.2585144,124.725614 98.2585144,122.756376 L98.2585144,121.729558 C98.2585144,119.732188 99.3161012,118.649107 101.121049,118.649107 C102.925997,118.649107 103.983584,119.732188 103.983584,121.729558 L103.983584,122.756376 Z M103.20802,122.756376 L103.20802,121.729558 C103.20802,120.196365 102.460659,119.366472 101.121049,119.366472 C99.7673381,119.366472 99.034078,120.196365 99.034078,121.729558 L99.034078,122.756376 C99.034078,124.233305 99.6968324,125.133528 101.121049,125.133528 C102.488861,125.133528 103.20802,124.233305 103.20802,122.756376 Z M111.471298,116.060964 L111.471298,125.766497 L110.653431,125.766497 L110.653431,117.045584 L109.257416,118.044269 L109.257416,117.12998 L110.653431,116.060964 L111.471298,116.060964 Z M117.316227,119.999442 C116.484259,119.999442 115.948415,120.519883 115.624088,121.110655 L114.890828,121.110655 L114.890828,116.060964 L119.685221,116.060964 L119.685221,116.876792 L115.680493,116.876792 L115.680493,120.027574 C116.033022,119.54933 116.62527,119.183614 117.443137,119.183614 C119.30449,119.183614 120.094155,120.548015 120.094155,122.728244 C120.094155,124.641218 119.121175,125.850893 117.316227,125.850893 C115.849707,125.850893 114.763918,124.795944 114.66521,123.459675 L115.468975,123.459675 C115.609987,124.45836 116.371449,125.09133 117.316227,125.09133 C118.514825,125.09133 119.276288,124.444294 119.276288,122.728244 C119.276288,120.955929 118.69814,119.999442 117.316227,119.999442 Z M127.687627,116.060964 L128.519595,116.060964 L123.09065,125.766497 L122.244581,125.766497 L127.687627,116.060964 Z M122.695818,120.322959 C123.626494,120.322959 124.007225,119.661858 124.007225,118.817898 L124.007225,118.086467 C124.007225,117.115914 123.527786,116.609538 122.695818,116.609538 C121.877951,116.609538 121.398512,117.115914 121.398512,118.086467 L121.398512,118.817898 C121.398512,119.661858 121.736939,120.322959 122.695818,120.322959 Z M122.695818,120.955929 C121.440815,120.955929 120.735757,120.182299 120.735757,118.817898 L120.735757,118.072401 C120.735757,116.708 121.469017,115.962503 122.695818,115.962503 C123.93672,115.962503 124.655879,116.708 124.655879,118.072401 L124.655879,118.817898 C124.655879,120.140102 124.021327,120.955929 122.695818,120.955929 Z M128.223471,125.217924 C129.154147,125.217924 129.534879,124.556822 129.534879,123.712863 L129.534879,122.981431 C129.534879,122.010878 129.055439,121.504503 128.223471,121.504503 C127.405604,121.504503 126.926165,122.010878 126.926165,122.981431 L126.926165,123.712863 C126.926165,124.556822 127.264592,125.217924 128.223471,125.217924 Z M128.223471,125.850893 C126.968468,125.850893 126.26341,125.077264 126.26341,123.712863 L126.26341,122.967365 C126.26341,121.602964 126.996671,120.857467 128.223471,120.857467 C129.464373,120.857467 130.183532,121.602964 130.183532,122.967365 L130.183532,123.712863 C130.183532,125.035066 129.54898,125.850893 128.223471,125.850893 Z" id="Up-to-15%"></path>
                        <path d="M3.89440751,159.774751 C1.7792341,159.774751 0.439624277,158.579142 0.439624277,155.723746 L0.439624277,149.984822 L1.25749133,149.984822 L1.25749133,155.723746 C1.25749133,157.974305 2.18816763,159.015188 3.89440751,159.015188 C5.6006474,159.015188 6.5313237,157.974305 6.5313237,155.723746 L6.5313237,149.984822 L7.34919075,149.984822 L7.34919075,155.723746 C7.34919075,158.579142 6.00958092,159.774751 3.89440751,159.774751 Z M14.8721575,155.653416 L14.8721575,156.666168 C14.8721575,158.593208 13.9555824,159.774751 12.1224321,159.774751 C11.0507442,159.774751 10.3879899,159.479365 9.99315751,158.860462 L9.99315751,162.362893 L9.21759393,162.362893 L9.21759393,152.65736 L9.99315751,152.65736 L9.99315751,153.543518 C10.3879899,152.910548 11.0507442,152.572964 12.1224321,152.572964 C13.8709754,152.572964 14.8721575,153.656046 14.8721575,155.653416 Z M12.0660275,159.057386 C13.4197384,159.057386 14.0965939,158.143096 14.0965939,156.666168 L14.0965939,155.653416 C14.0965939,154.120223 13.4056373,153.29033 12.0660275,153.29033 C10.5713049,153.29033 9.99315751,154.190553 9.99315751,155.56902 L9.99315751,156.792761 C10.0072587,158.114964 10.5149003,159.057386 12.0660275,159.057386 Z M18.623065,153.374726 L18.623065,152.65736 L19.525539,152.65736 L19.525539,151.110102 L20.3011026,151.110102 L20.3011026,152.65736 L22.0355448,152.65736 L22.0355448,153.374726 L20.3011026,153.374726 L20.3011026,157.313203 C20.3011026,158.438482 20.428013,158.944858 21.5702066,158.944858 L22.0355448,158.944858 L22.0355448,159.690355 L21.5420043,159.690355 C19.976776,159.690355 19.525539,158.987056 19.525539,157.524193 L19.525539,153.374726 L18.623065,153.374726 Z M28.5009249,156.680234 C28.5009249,158.593208 27.5279451,159.774751 25.6383902,159.774751 C23.819341,159.774751 22.7758555,158.649472 22.7758555,156.680234 L22.7758555,155.653416 C22.7758555,153.656046 23.8334422,152.572964 25.6383902,152.572964 C27.4433381,152.572964 28.5009249,153.656046 28.5009249,155.653416 L28.5009249,156.680234 Z M27.7253613,156.680234 L27.7253613,155.653416 C27.7253613,154.120223 26.978,153.29033 25.6383902,153.29033 C24.2846792,153.29033 23.5514191,154.120223 23.5514191,155.653416 L23.5514191,156.680234 C23.5514191,158.157162 24.2141734,159.057386 25.6383902,159.057386 C27.0062023,159.057386 27.7253613,158.157162 27.7253613,156.680234 Z M33.3658237,157.045949 C33.3658237,158.143096 34.2259942,159.015188 35.3399855,159.015188 C36.4398757,159.015188 37.3141474,158.143096 37.3141474,157.045949 C37.3141474,155.892538 36.3693699,155.062645 35.3399855,155.062645 C34.2965,155.062645 33.3658237,155.892538 33.3658237,157.045949 Z M33.5068353,152.488569 C33.5068353,153.50132 34.3106012,154.317147 35.3399855,154.317147 C36.3552688,154.317147 37.1731358,153.50132 37.1731358,152.488569 C37.1731358,151.475817 36.3552688,150.65999 35.3399855,150.65999 C34.3106012,150.65999 33.5068353,151.475817 33.5068353,152.488569 Z M32.5479566,157.045949 C32.5479566,155.948802 33.2389133,155.034513 34.0990838,154.668797 C33.2812168,154.289015 32.6889682,153.445056 32.6889682,152.488569 C32.6889682,150.983508 33.9157688,149.900426 35.3399855,149.900426 C36.7642023,149.900426 37.9910029,150.983508 37.9910029,152.488569 C37.9910029,153.445056 37.3846532,154.289015 36.5667861,154.668797 C37.4410578,155.034513 38.1320144,155.948802 38.1320144,157.045949 C38.1320144,158.635406 36.8347081,159.774751 35.3399855,159.774751 C33.845263,159.774751 32.5479566,158.635406 32.5479566,157.045949 Z M45.6831835,149.984822 L46.5151517,149.984822 L41.0862066,159.690355 L40.2401373,159.690355 L45.6831835,149.984822 Z M40.6913743,154.246817 C41.6220506,154.246817 42.0027818,153.585716 42.0027818,152.741756 L42.0027818,152.010325 C42.0027818,151.039772 41.5233425,150.533396 40.6913743,150.533396 C39.8735072,150.533396 39.3940679,151.039772 39.3940679,152.010325 L39.3940679,152.741756 C39.3940679,153.585716 39.7324957,154.246817 40.6913743,154.246817 Z M40.6913743,154.879787 C39.4363714,154.879787 38.7313136,154.106157 38.7313136,152.741756 L38.7313136,151.996259 C38.7313136,150.631858 39.4645737,149.88636 40.6913743,149.88636 C41.932276,149.88636 42.651435,150.631858 42.651435,151.996259 L42.651435,152.741756 C42.651435,154.063959 42.0168829,154.879787 40.6913743,154.879787 Z M46.2190274,159.141782 C47.1497038,159.141782 47.530435,158.48068 47.530435,157.636721 L47.530435,156.905289 C47.530435,155.934736 47.0509957,155.42836 46.2190274,155.42836 C45.4011604,155.42836 44.9217211,155.934736 44.9217211,156.905289 L44.9217211,157.636721 C44.9217211,158.48068 45.2601488,159.141782 46.2190274,159.141782 Z M46.2190274,159.774751 C44.9640246,159.774751 44.2589668,159.001122 44.2589668,157.636721 L44.2589668,156.891223 C44.2589668,155.526822 44.9922269,154.781325 46.2190274,154.781325 C47.4599292,154.781325 48.1790881,155.526822 48.1790881,156.891223 L48.1790881,157.636721 C48.1790881,158.958924 47.5445361,159.774751 46.2190274,159.774751 Z" id="Up-to-8%"></path>
                    </g>
                    <path d="M83.9613123,37.6431767 L82.9604369,38.3411633 C82.4077147,37.6431767 81.8101772,37.1342282 80.510533,37.1342282 C79.315458,37.1342282 78.5087823,37.6577181 78.5087823,38.704698 C78.5087823,39.8970917 79.4349655,40.3042506 80.9437477,40.5659955 C82.93056,40.9004474 84.1405736,41.598434 84.1405736,43.4597315 C84.1405736,44.7684564 83.2442673,46.2662192 80.6748558,46.2662192 C79.0017507,46.2662192 77.7767988,45.7136465 77,44.6230425 L78.0606291,43.9105145 C78.7328589,44.6812081 79.3303964,45.1319911 80.6748558,45.1319911 C82.3628994,45.1319911 82.8558679,44.3758389 82.8558679,43.5178971 C82.8558679,42.5727069 82.3628994,41.9328859 80.4209024,41.6420582 C78.4789054,41.3512304 77.2240766,40.4496644 77.2240766,38.704698 C77.2240766,37.2651007 78.1950751,36 80.5553483,36 C82.1985766,36 83.2293288,36.5380313 83.9613123,37.6431767 Z M90.5252621,44.4049217 L91.4514453,45.0447427 C90.9286,45.9317673 90.1368627,46.2662192 88.8372186,46.2662192 C86.8354678,46.2662192 85.6403928,45.0011186 85.6403928,42.9798658 L85.6403928,42.0201342 C85.6403928,39.9552573 86.6412681,38.7628635 88.5982036,38.7628635 C90.5700775,38.7628635 91.5560144,39.9407159 91.5560144,42.0201342 L91.5560144,42.7762864 L86.8354678,42.7762864 L86.8354678,42.9798658 C86.8354678,44.2304251 87.4479438,45.2192394 88.747588,45.2192394 C89.7185865,45.2192394 90.2115549,44.942953 90.5252621,44.4049217 Z M88.5982036,39.8098434 C87.4479438,39.8098434 86.91016,40.5514541 86.8354678,41.7583893 L90.3460009,41.7583893 C90.2862471,40.5369128 89.7335249,39.8098434 88.5982036,39.8098434 Z M93.4890483,43.9105145 L93.4890483,36.1163311 L94.6841234,36.1163311 L94.6841234,43.6196868 C94.6841234,44.4049217 94.7289387,45.0738255 95.9538907,45.0738255 L95.9538907,46.1498881 C94.0716474,46.1498881 93.4890483,45.4228188 93.4890483,43.9105145 Z M97.7674171,43.9105145 L97.7674171,36.1163311 L98.9624922,36.1163311 L98.9624922,43.6196868 C98.9624922,44.4049217 99.0073075,45.0738255 100.232259,45.0738255 L100.232259,46.1498881 C98.3500162,46.1498881 97.7674171,45.4228188 97.7674171,43.9105145 Z M102.269862,46.1498881 L102.269862,38.8791946 L103.464937,38.8791946 L103.464937,46.1498881 L102.269862,46.1498881 Z M102.19517,37.4250559 L102.19517,36.1163311 L103.53963,36.1163311 L103.53963,37.4250559 L102.19517,37.4250559 Z M105.816248,46.1498881 L105.816248,38.8791946 L107.011323,38.8791946 L107.011323,39.5917226 C107.384784,39.0391499 107.907629,38.7628635 109.013074,38.7628635 C110.611486,38.7628635 111.731869,39.5771812 111.731869,41.6129754 L111.731869,46.1498881 L110.536794,46.1498881 L110.536794,41.6275168 C110.536794,40.1588367 109.71518,39.8389262 108.833812,39.8389262 C107.713429,39.8389262 107.011323,40.6096197 107.011323,41.6129754 L107.011323,46.1498881 L105.816248,46.1498881 Z M118.504957,39.606264 L118.504957,38.8791946 L119.700032,38.8791946 L119.700032,46.0044743 C119.700032,48.0257271 118.504957,49 116.503207,49 C115.203562,49 114.411825,48.6655481 113.88898,47.7785235 L114.815163,47.1387025 C115.12887,47.6767338 115.621839,47.9530201 116.592837,47.9530201 C117.892481,47.9530201 118.504957,47.2550336 118.504957,46.0044743 L118.504957,45.5100671 C118.101619,46.0190157 117.459267,46.2662192 116.47333,46.2662192 C114.441702,46.2662192 113.485642,44.8702461 113.485642,42.9798658 L113.485642,42.0201342 C113.485642,39.9407159 114.620963,38.7628635 116.47333,38.7628635 C117.459267,38.7628635 118.101619,39.0682327 118.504957,39.606264 Z M116.592837,45.2192394 C117.967173,45.2192394 118.504957,44.2304251 118.504957,42.9798658 L118.504957,42.0201342 C118.504957,40.6532438 117.817789,39.8098434 116.592837,39.8098434 C115.367885,39.8098434 114.680717,40.6387025 114.680717,42.0201342 L114.680717,42.9798658 C114.680717,44.2158837 115.32307,45.2192394 116.592837,45.2192394 Z M126.045881,36.1163311 L132.260271,36.1163311 L132.260271,37.2505593 L127.330587,37.2505593 L127.330587,40.6241611 L131.812118,40.6241611 L131.812118,41.7583893 L127.330587,41.7583893 L127.330587,46.1498881 L126.045881,46.1498881 L126.045881,36.1163311 Z M137.927915,44.4049217 L138.854098,45.0447427 C138.331253,45.9317673 137.539515,46.2662192 136.239871,46.2662192 C134.238121,46.2662192 133.043046,45.0011186 133.043046,42.9798658 L133.043046,42.0201342 C133.043046,39.9552573 134.043921,38.7628635 136.000856,38.7628635 C137.97273,38.7628635 138.958667,39.9407159 138.958667,42.0201342 L138.958667,42.7762864 L134.238121,42.7762864 L134.238121,42.9798658 C134.238121,44.2304251 134.850597,45.2192394 136.150241,45.2192394 C137.121239,45.2192394 137.614208,44.942953 137.927915,44.4049217 Z M136.000856,39.8098434 C134.850597,39.8098434 134.312813,40.5514541 134.238121,41.7583893 L137.748654,41.7583893 C137.6889,40.5369128 137.136178,39.8098434 136.000856,39.8098434 Z M145.403109,44.4049217 L146.329293,45.0447427 C145.806447,45.9317673 145.01471,46.2662192 143.715066,46.2662192 C141.713315,46.2662192 140.51824,45.0011186 140.51824,42.9798658 L140.51824,42.0201342 C140.51824,39.9552573 141.519115,38.7628635 143.476051,38.7628635 C145.447925,38.7628635 146.433862,39.9407159 146.433862,42.0201342 L146.433862,42.7762864 L141.713315,42.7762864 L141.713315,42.9798658 C141.713315,44.2304251 142.325791,45.2192394 143.625435,45.2192394 C144.596434,45.2192394 145.089402,44.942953 145.403109,44.4049217 Z M143.476051,39.8098434 C142.325791,39.8098434 141.788007,40.5514541 141.713315,41.7583893 L145.223848,41.7583893 C145.164094,40.5369128 144.611372,39.8098434 143.476051,39.8098434 Z M153.460903,39.9697987 L152.564597,40.5805369 C152.161259,40.0715884 151.742983,39.8389262 150.71223,39.8389262 C149.830863,39.8389262 149.263202,40.1733781 149.263202,40.8131991 C149.263202,41.6420582 150.010124,41.8892617 150.996061,41.9619687 C152.400274,42.0637584 153.68498,42.4563758 153.68498,44.1286353 C153.68498,45.393736 152.803612,46.2662192 150.876553,46.2662192 C149.352833,46.2662192 148.561095,45.8154362 147.993435,45.0592841 L148.874803,44.4485459 C149.27814,44.9720358 149.815924,45.1901566 150.891492,45.1901566 C151.892367,45.1901566 152.489905,44.8120805 152.489905,44.1577181 C152.489905,43.3724832 152.011875,43.0961969 150.562846,42.9944072 C149.308017,42.9071588 148.068127,42.4127517 148.068127,40.8277405 C148.068127,39.6208054 148.964433,38.7628635 150.742107,38.7628635 C151.952121,38.7628635 152.878304,39.0682327 153.460903,39.9697987 Z M166.648557,39.2427293 L165.393728,39.2427293 C165.035205,37.6722595 164.213591,37.1342282 162.943824,37.1342282 C161.360349,37.1342282 160.49392,38.0939597 160.49392,40.5805369 L160.49392,41.6856823 C160.49392,44.1722595 161.360349,45.1319911 162.943824,45.1319911 C164.288283,45.1319911 165.050144,44.49217 165.393728,43.0234899 L166.633618,43.0234899 C166.304973,45.2774049 164.900759,46.2662192 162.943824,46.2662192 C160.658243,46.2662192 159.209214,44.9284116 159.209214,41.6856823 L159.209214,40.5805369 C159.209214,37.3378076 160.658243,36 162.943824,36 C164.975451,36 166.319911,37.0469799 166.648557,39.2427293 Z M174.093874,42.0201342 L174.093874,42.9798658 C174.093874,44.8702461 173.137814,46.2662192 170.986679,46.2662192 C168.999867,46.2662192 167.879484,44.9865772 167.879484,42.9798658 L167.879484,42.0201342 C167.879484,39.9552573 169.029744,38.7628635 170.986679,38.7628635 C172.958553,38.7628635 174.093874,39.9407159 174.093874,42.0201342 Z M170.986679,45.2192394 C172.256446,45.2192394 172.898799,44.2158837 172.898799,42.9798658 L172.898799,42.0201342 C172.898799,40.6387025 172.211631,39.8098434 170.986679,39.8098434 C169.761727,39.8098434 169.074559,40.6532438 169.074559,42.0201342 L169.074559,42.9798658 C169.074559,44.2304251 169.612343,45.2192394 170.986679,45.2192394 Z M175.847647,46.1498881 L175.847647,38.8791946 L177.042722,38.8791946 L177.042722,39.5917226 C177.371368,39.0973154 177.939028,38.7628635 178.895088,38.7628635 C179.895964,38.7628635 180.657824,39.155481 181.0761,39.9116331 C181.584007,39.1409396 182.405621,38.7628635 183.316866,38.7628635 C184.915279,38.7628635 185.886278,39.7225951 185.886278,41.6129754 L185.886278,46.1498881 L184.691202,46.1498881 L184.691202,41.6275168 C184.691202,40.3042506 184.018973,39.8389262 183.137605,39.8389262 C182.181545,39.8389262 181.4645,40.5805369 181.4645,41.6129754 L181.4645,46.1498881 L180.269425,46.1498881 L180.269425,41.6275168 C180.269425,40.3042506 179.597195,39.8389262 178.715827,39.8389262 C177.744829,39.8389262 177.042722,40.6096197 177.042722,41.6129754 L177.042722,46.1498881 L175.847647,46.1498881 Z M189.208586,39.606264 C189.611924,39.0682327 190.254277,38.7628635 191.240214,38.7628635 C193.09258,38.7628635 194.227902,39.9407159 194.227902,42.0201342 L194.227902,42.9798658 C194.227902,44.8702461 193.271842,46.2662192 191.240214,46.2662192 C190.254277,46.2662192 189.611924,45.9608501 189.208586,45.4228188 L189.208586,48.9127517 L188.013511,48.9127517 L188.013511,38.8791946 L189.208586,38.8791946 L189.208586,39.606264 Z M191.120706,45.2192394 C192.390474,45.2192394 193.032827,44.2158837 193.032827,42.9798658 L193.032827,42.0201342 C193.032827,40.6387025 192.345658,39.8098434 191.120706,39.8098434 C189.925631,39.8098434 189.208586,40.6096197 189.208586,41.9183445 L189.208586,42.9798658 C189.208586,44.2304251 189.74637,45.2192394 191.120706,45.2192394 Z M195.608213,44.0268456 C195.608213,42.4563758 196.758473,41.9474273 198.401701,41.9474273 L200.179375,41.9474273 L200.179375,41.1040268 C200.179375,40.0715884 199.686407,39.8389262 198.521209,39.8389262 C197.624902,39.8389262 197.146872,39.9116331 196.728596,40.5805369 L195.83229,39.9697987 C196.355135,39.1263982 197.116996,38.7628635 198.536147,38.7628635 C200.433329,38.7628635 201.374451,39.3590604 201.374451,41.1040268 L201.374451,46.1498881 L200.179375,46.1498881 L200.179375,45.4373602 C199.761099,46.106264 199.253192,46.2662192 198.282194,46.2662192 C196.549335,46.2662192 195.608213,45.4373602 195.608213,44.0268456 Z M200.179375,43.3579418 L200.179375,42.9362416 L198.401701,42.9362416 C197.221565,42.9362416 196.803288,43.3288591 196.803288,44.0559284 C196.803288,44.8702461 197.400826,45.1901566 198.282194,45.1901566 C199.387638,45.1901566 200.179375,44.9865772 200.179375,43.3579418 Z M208.565815,39.7516779 L207.550001,40.4496644 C207.236294,40.0279642 206.847894,39.8389262 206.295172,39.8389262 C205.383927,39.8389262 204.696759,40.50783 204.696759,41.598434 L204.696759,46.1498881 L203.501684,46.1498881 L203.501684,38.8791946 L204.696759,38.8791946 L204.696759,39.5917226 C205.010466,39.082774 205.518373,38.7628635 206.429618,38.7628635 C207.445432,38.7628635 208.087785,39.0973154 208.565815,39.7516779 Z M209.796742,46.1498881 L209.796742,38.8791946 L210.991817,38.8791946 L210.991817,46.1498881 L209.796742,46.1498881 Z M209.72205,37.4250559 L209.72205,36.1163311 L211.066509,36.1163311 L211.066509,37.4250559 L209.72205,37.4250559 Z M218.437135,39.9697987 L217.540829,40.5805369 C217.137491,40.0715884 216.719214,39.8389262 215.688462,39.8389262 C214.807094,39.8389262 214.239434,40.1733781 214.239434,40.8131991 C214.239434,41.6420582 214.986356,41.8892617 215.972293,41.9619687 C217.376506,42.0637584 218.661211,42.4563758 218.661211,44.1286353 C218.661211,45.393736 217.779844,46.2662192 215.852785,46.2662192 C214.329064,46.2662192 213.537327,45.8154362 212.969666,45.0592841 L213.851034,44.4485459 C214.254372,44.9720358 214.792156,45.1901566 215.867723,45.1901566 C216.868599,45.1901566 217.466136,44.8120805 217.466136,44.1577181 C217.466136,43.3724832 216.988106,43.0961969 215.539078,42.9944072 C214.284249,42.9071588 213.044359,42.4127517 213.044359,40.8277405 C213.044359,39.6208054 213.940665,38.7628635 215.718339,38.7628635 C216.928353,38.7628635 217.854536,39.0682327 218.437135,39.9697987 Z M226.330606,42.0201342 L226.330606,42.9798658 C226.330606,44.8702461 225.374546,46.2662192 223.223411,46.2662192 C221.236598,46.2662192 220.116215,44.9865772 220.116215,42.9798658 L220.116215,42.0201342 C220.116215,39.9552573 221.266475,38.7628635 223.223411,38.7628635 C225.195284,38.7628635 226.330606,39.9407159 226.330606,42.0201342 Z M223.223411,45.2192394 C224.493178,45.2192394 225.135531,44.2158837 225.135531,42.9798658 L225.135531,42.0201342 C225.135531,40.6387025 224.448362,39.8098434 223.223411,39.8098434 C221.998459,39.8098434 221.31129,40.6532438 221.31129,42.0201342 L221.31129,42.9798658 C221.31129,44.2304251 221.849074,45.2192394 223.223411,45.2192394 Z M228.084378,46.1498881 L228.084378,38.8791946 L229.279453,38.8791946 L229.279453,39.5917226 C229.652914,39.0391499 230.17576,38.7628635 231.281204,38.7628635 C232.879617,38.7628635 234,39.5771812 234,41.6129754 L234,46.1498881 L232.804925,46.1498881 L232.804925,41.6275168 C232.804925,40.1588367 231.983311,39.8389262 231.101943,39.8389262 C229.98156,39.8389262 229.279453,40.6096197 229.279453,41.6129754 L229.279453,46.1498881 L228.084378,46.1498881 Z" id="Selling-Fees-Compari" fill="#FFFFFF"></path>
                </g>
            </g>
        </g>
    </g>
</svg>