<?xml version="1.0" encoding="UTF-8"?>
<svg width="309px" height="221px" viewBox="0 0 309 221" version="1.1" xmlns="http://www.w3.org/2000/svg" xmlns:xlink="http://www.w3.org/1999/xlink">
    <!-- Generator: Sketch 48.2 (47327) - http://www.bohemiancoding.com/sketch -->
    <title>item7</title>
    <desc>Created with Sketch.</desc>
    <defs>
        <path d="M101,201 C45.2192403,201 0,156.004617 0,100.5 C0,44.9953826 45.2192403,0 101,0 C156.78076,0 202,44.9953826 202,100.5 C202,156.004617 156.78076,201 101,201 Z M101.276712,158.59726 C133.369752,158.59726 159.386301,132.709506 159.386301,100.775342 C159.386301,68.8411791 133.369752,42.9534247 101.276712,42.9534247 C69.1836725,42.9534247 43.1671233,68.8411791 43.1671233,100.775342 C43.1671233,132.709506 69.1836725,158.59726 101.276712,158.59726 Z" id="path-1"></path>
        <linearGradient x1="-38.2127232%" y1="45.5107495%" x2="82.2566106%" y2="74.4850852%" id="linearGradient-3">
            <stop stop-color="#00ACF0" offset="0%"></stop>
            <stop stop-color="#2CB6F7" offset="100%"></stop>
        </linearGradient>
        <linearGradient x1="35.6606276%" y1="55.580068%" x2="113.40917%" y2="55.580068%" id="linearGradient-4">
            <stop stop-color="#1490E0" offset="0%"></stop>
            <stop stop-color="#20F0FF" offset="100%"></stop>
        </linearGradient>
        <linearGradient x1="74.534899%" y1="16.7057966%" x2="74.534899%" y2="94.4543394%" id="linearGradient-5">
            <stop stop-color="#1490E0" offset="0%"></stop>
            <stop stop-color="#20F0FF" offset="100%"></stop>
        </linearGradient>
        <linearGradient x1="4.4408921e-14%" y1="50%" x2="138.507746%" y2="50%" id="linearGradient-6">
            <stop stop-color="#17EAD9" offset="0%"></stop>
            <stop stop-color="#6078EA" offset="100%"></stop>
        </linearGradient>
    </defs>
    <g id="Mobile" stroke="none" stroke-width="1" fill="none" fill-rule="evenodd" transform="translate(-34.000000, -3059.000000)">
        <g id="Group-41" transform="translate(0.000000, 2545.000000)">
            <g id="item7" transform="translate(35.000000, 509.000000)">
                <g id="Group-2" transform="translate(51.000000, 0.000000)">
                    <mask id="mask-2" fill="white">
                        <use xlink:href="#path-1"></use>
                    </mask>
                    <g id="Mask"></g>
                    <g mask="url(#mask-2)">
                        <g transform="translate(28.857143, 5.770335)">
                            <ellipse id="Oval" fill="url(#linearGradient-3)" opacity="0.441179801" cx="72.284573" cy="93.7111725" rx="72.2242664" ry="71.6584627"></ellipse>
                            <path d="M71.7322274,177.008228 L71.7322274,76.7225973 L154.493701,76.7225973 C155.639178,82.2073538 156.241107,87.8895198 156.241107,93.7111725 C156.241107,139.71584 118.652486,177.009992 72.284573,177.009992 C72.1003185,177.009992 71.9162027,177.009404 71.7322274,177.008228 Z" id="Combined-Shape" fill="#1E5F6F"></path>
                            <path d="M46.3914803,68.0294903 C46.4215571,68.0294622 46.4516371,68.0294482 46.4817205,68.0294482 C98.3405711,68.0294482 140.380476,109.740013 140.380476,161.192602 C140.380476,161.412058 140.379711,161.631337 140.378184,161.850436 L102.812634,161.546083 C102.812634,161.546083 100.881808,162.594039 99.9524516,163.174473 C60.0341245,188.105655 46.4817205,211.350323 46.4817205,211.350323 L46.3914803,68.0294873 Z" id="Combined-Shape" fill="url(#linearGradient-4)" transform="translate(93.385978, 139.689886) rotate(-270.000000) translate(-93.385978, -139.689886) "></path>
                            <path d="M74.9592606,0.0539857557 C125.323924,1.74158806 165.630983,42.7821374 165.630983,93.1631539 C165.630983,123.935495 150.593736,151.223213 127.412085,168.187463 L118.100074,159.956334 L75.5066048,125.085853 L74.9592417,0.0539851214 Z" id="Combined-Shape" fill="url(#linearGradient-5)"></path>
                        </g>
                    </g>
                </g>
                <polygon id="Line" fill="url(#linearGradient-6)" fill-rule="nonzero" points="-0.19165432 103.5 -0.19165432 102.5 90.0533816 102.5 90.0533816 103.5"></polygon>
                <path d="M9.265,119.832 C9.265,123.538 7.616,125.102 5.1,125.102 C2.584,125.102 0.935,123.538 0.935,119.832 L0.935,118.438 C0.935,114.749 2.584,113.168 5.1,113.168 C7.616,113.168 9.265,114.749 9.265,118.438 L9.265,119.832 Z M1.921,118.438 L1.921,119.832 C1.921,123.011 3.179,124.184 5.1,124.184 C7.021,124.184 8.279,123.011 8.279,119.832 L8.279,118.438 C8.279,115.276 7.021,114.086 5.1,114.086 C3.179,114.086 1.921,115.276 1.921,118.438 Z M10.8781111,117.367 L10.8781111,116.5 L11.9661111,116.5 L11.9661111,114.63 L12.9011111,114.63 L12.9011111,116.5 L14.9921111,116.5 L14.9921111,117.367 L12.9011111,117.367 L12.9011111,122.127 C12.9011111,123.487 13.0541111,124.099 14.4311111,124.099 L14.9921111,124.099 L14.9921111,125 L14.3971111,125 C12.5101111,125 11.9661111,124.15 11.9661111,122.382 L11.9661111,117.367 L10.8781111,117.367 Z M17.0982222,125 L17.0982222,113.27 L18.0332222,113.27 L18.0332222,117.656 C18.4922222,116.84 19.2742222,116.398 20.5322222,116.398 C22.4192222,116.398 23.6602222,117.571 23.6602222,119.968 L23.6602222,125 L22.7252222,125 L22.7252222,119.985 C22.7252222,118.047 21.7562222,117.282 20.4302222,117.282 C18.8322222,117.282 18.0332222,118.336 18.0332222,119.9 L18.0332222,125 L17.0982222,125 Z M32.4133333,120.988 L26.7863333,120.988 L26.7863333,121.345 C26.7863333,123.028 27.5683333,124.235 29.3703333,124.235 C30.4073333,124.235 31.1043333,123.929 31.5803333,123.198 L32.3283333,123.725 C31.7333333,124.66 30.7983333,125.102 29.4213333,125.102 C27.1603333,125.102 25.8513333,123.708 25.8513333,121.345 L25.8513333,120.121 C25.8513333,117.707 27.0073333,116.398 29.1323333,116.398 C31.2573333,116.398 32.4133333,117.707 32.4133333,120.121 L32.4133333,120.988 Z M26.7863333,120.121 L26.7863333,120.138 L31.4783333,120.138 L31.4783333,120.121 C31.4783333,118.268 30.6793333,117.265 29.1323333,117.265 C27.5853333,117.265 26.7863333,118.285 26.7863333,120.121 Z M37.7324444,117.282 C36.4064444,117.282 35.6754444,118.336 35.6754444,119.883 L35.6754444,125 L34.7404444,125 L34.7404444,116.5 L35.6754444,116.5 L35.6754444,117.656 C36.0324444,116.874 36.7464444,116.398 37.8174444,116.398 C38.9224444,116.398 39.6534444,116.823 40.2144444,117.571 L39.4324444,118.149 C38.9904444,117.571 38.4804444,117.282 37.7324444,117.282 Z M2.482,131.27 L6.392,139.073 L10.285,131.27 L11.254,131.27 L11.254,143 L10.268,143 L10.268,133.429 L6.817,140.382 L5.933,140.382 L2.516,133.446 L2.516,143 L1.53,143 L1.53,131.27 L2.482,131.27 Z M20.3471111,138.988 L14.7201111,138.988 L14.7201111,139.345 C14.7201111,141.028 15.5021111,142.235 17.3041111,142.235 C18.3411111,142.235 19.0381111,141.929 19.5141111,141.198 L20.2621111,141.725 C19.6671111,142.66 18.7321111,143.102 17.3551111,143.102 C15.0941111,143.102 13.7851111,141.708 13.7851111,139.345 L13.7851111,138.121 C13.7851111,135.707 14.9411111,134.398 17.0661111,134.398 C19.1911111,134.398 20.3471111,135.707 20.3471111,138.121 L20.3471111,138.988 Z M14.7201111,138.121 L14.7201111,138.138 L19.4121111,138.138 L19.4121111,138.121 C19.4121111,136.268 18.6131111,135.265 17.0661111,135.265 C15.5191111,135.265 14.7201111,136.285 14.7201111,138.121 Z M25.6662222,135.282 C24.3402222,135.282 23.6092222,136.336 23.6092222,137.883 L23.6092222,143 L22.6742222,143 L22.6742222,134.5 L23.6092222,134.5 L23.6092222,135.656 C23.9662222,134.874 24.6802222,134.398 25.7512222,134.398 C26.8562222,134.398 27.5872222,134.823 28.1482222,135.571 L27.3662222,136.149 C26.9242222,135.571 26.4142222,135.282 25.6662222,135.282 Z M34.7253333,141.198 L35.4733333,141.725 C34.9123333,142.626 33.9093333,143.102 32.5833333,143.102 C30.3053333,143.102 28.9963333,141.742 28.9963333,139.345 L28.9963333,138.121 C28.9963333,135.707 30.3393333,134.398 32.5833333,134.398 C33.8243333,134.398 34.8273333,134.84 35.4563333,135.707 L34.7083333,136.217 C34.2323333,135.571 33.4333333,135.265 32.5833333,135.265 C30.9003333,135.265 29.9313333,136.285 29.9313333,138.121 L29.9313333,139.345 C29.9313333,141.028 30.7133333,142.235 32.5833333,142.235 C33.4503333,142.235 34.2493333,141.946 34.7253333,141.198 Z M37.1884444,143 L37.1884444,131.27 L38.1234444,131.27 L38.1234444,135.656 C38.5824444,134.84 39.3644444,134.398 40.6224444,134.398 C42.5094444,134.398 43.7504444,135.571 43.7504444,137.968 L43.7504444,143 L42.8154444,143 L42.8154444,137.985 C42.8154444,136.047 41.8464444,135.282 40.5204444,135.282 C38.9224444,135.282 38.1234444,136.336 38.1234444,137.9 L38.1234444,143 L37.1884444,143 Z M45.9415555,140.569 C45.9415555,138.937 47.0805555,138.172 48.8315555,138.172 L51.3135555,138.172 L51.3135555,137.118 C51.3135555,135.673 50.7355555,135.282 49.1715555,135.282 C48.1515555,135.282 47.4885555,135.35 46.9445555,136.251 L46.2305555,135.758 C46.8255555,134.755 47.6755555,134.398 49.1885555,134.398 C51.2625555,134.398 52.2485555,135.044 52.2485555,137.118 L52.2485555,143 L51.3135555,143 L51.3135555,141.946 C50.8375555,142.847 49.9875555,143.102 48.8995555,143.102 C47.0125555,143.102 45.9415555,142.201 45.9415555,140.569 Z M51.3135555,139.838 L51.3135555,139.005 L48.8315555,139.005 C47.3695555,139.005 46.8765555,139.685 46.8765555,140.586 C46.8765555,141.776 47.7095555,142.218 48.8995555,142.218 C50.2765555,142.218 51.3135555,141.742 51.3135555,139.838 Z M54.8646666,143 L54.8646666,134.5 L55.7996666,134.5 L55.7996666,135.656 C56.2416666,134.84 57.0236666,134.398 58.2986666,134.398 C60.1856666,134.398 61.4266666,135.571 61.4266666,137.968 L61.4266666,143 L60.4916666,143 L60.4916666,137.985 C60.4916666,136.047 59.5226666,135.282 58.1966666,135.282 C56.5986666,135.282 55.7996666,136.336 55.7996666,137.9 L55.7996666,143 L54.8646666,143 Z M63.2947777,135.367 L63.2947777,134.5 L64.3827777,134.5 L64.3827777,132.63 L65.3177777,132.63 L65.3177777,134.5 L67.4087777,134.5 L67.4087777,135.367 L65.3177777,135.367 L65.3177777,140.127 C65.3177777,141.487 65.4707777,142.099 66.8477777,142.099 L67.4087777,142.099 L67.4087777,143 L66.8137777,143 C64.9267777,143 64.3827777,142.15 64.3827777,140.382 L64.3827777,135.367 L63.2947777,135.367 Z M75.0908888,135.809 L74.3768888,136.319 C73.8498888,135.571 73.3058888,135.282 72.0648888,135.282 C70.9258888,135.282 70.0588888,135.707 70.0588888,136.676 C70.0588888,137.866 71.1298888,138.104 72.3198888,138.257 C73.9688888,138.478 75.3458888,138.954 75.3458888,140.756 C75.3458888,142.082 74.4958888,143.102 72.2348888,143.102 C70.5518888,143.102 69.6678888,142.575 69.0388888,141.691 L69.7698888,141.181 C70.2798888,141.895 70.9258888,142.218 72.2518888,142.218 C73.5778888,142.218 74.4108888,141.793 74.4108888,140.773 C74.4108888,139.685 73.5608888,139.311 71.8778888,139.09 C70.4328888,138.903 69.1238888,138.41 69.1238888,136.693 C69.1238888,135.316 70.1608888,134.398 72.0818888,134.398 C73.4248888,134.398 74.4448888,134.755 75.0908888,135.809 Z" id="Other-Merchants" fill="#3F6884" opacity="0.818274457"></path>
                <polygon id="Path-2" fill="url(#linearGradient-6)" fill-rule="nonzero" points="234 90.5 234 89.5 307 89.5 307 90.5"></polygon>
                <path d="M252.258,111 L251.204,111 L255.216,99.27 L256.134,99.27 L260.146,111 L259.109,111 L258.14,108.144 L253.21,108.144 L252.258,111 Z M255.675,100.851 L253.516,107.226 L257.834,107.226 L255.675,100.851 Z M261.793111,111 L261.793111,102.5 L262.728111,102.5 L262.728111,103.656 C263.085111,102.874 263.850111,102.398 264.972111,102.398 C266.179111,102.398 267.063111,102.976 267.505111,104.064 C267.981111,102.993 268.916111,102.398 270.089111,102.398 C271.874111,102.398 272.962111,103.656 272.962111,105.968 L272.962111,111 L272.027111,111 L272.027111,105.985 C272.027111,104.132 271.211111,103.282 269.987111,103.282 C268.627111,103.282 267.845111,104.285 267.845111,105.781 L267.845111,111 L266.910111,111 L266.910111,105.985 C266.910111,104.132 266.094111,103.282 264.870111,103.282 C263.476111,103.282 262.728111,104.336 262.728111,105.9 L262.728111,111 L261.793111,111 Z M275.153222,108.569 C275.153222,106.937 276.292222,106.172 278.043222,106.172 L280.525222,106.172 L280.525222,105.118 C280.525222,103.673 279.947222,103.282 278.383222,103.282 C277.363222,103.282 276.700222,103.35 276.156222,104.251 L275.442222,103.758 C276.037222,102.755 276.887222,102.398 278.400222,102.398 C280.474222,102.398 281.460222,103.044 281.460222,105.118 L281.460222,111 L280.525222,111 L280.525222,109.946 C280.049222,110.847 279.199222,111.102 278.111222,111.102 C276.224222,111.102 275.153222,110.201 275.153222,108.569 Z M280.525222,107.838 L280.525222,107.005 L278.043222,107.005 C276.581222,107.005 276.088222,107.685 276.088222,108.586 C276.088222,109.776 276.921222,110.218 278.111222,110.218 C279.488222,110.218 280.525222,109.742 280.525222,107.838 Z M283.651333,110.269 L288.530333,103.367 L283.651333,103.367 L283.651333,102.5 L289.754333,102.5 L289.754333,103.231 L284.909333,110.133 L289.754333,110.133 L289.754333,111 L283.651333,111 L283.651333,110.269 Z M298.218444,107.362 C298.218444,109.674 297.045444,111.102 294.767444,111.102 C292.574444,111.102 291.316444,109.742 291.316444,107.362 L291.316444,106.121 C291.316444,103.707 292.591444,102.398 294.767444,102.398 C296.943444,102.398 298.218444,103.707 298.218444,106.121 L298.218444,107.362 Z M297.283444,107.362 L297.283444,106.121 C297.283444,104.268 296.382444,103.265 294.767444,103.265 C293.135444,103.265 292.251444,104.268 292.251444,106.121 L292.251444,107.362 C292.251444,109.147 293.050444,110.235 294.767444,110.235 C296.416444,110.235 297.283444,109.147 297.283444,107.362 Z M300.409555,111 L300.409555,102.5 L301.344555,102.5 L301.344555,103.656 C301.786555,102.84 302.568555,102.398 303.843555,102.398 C305.730555,102.398 306.971555,103.571 306.971555,105.968 L306.971555,111 L306.036555,111 L306.036555,105.985 C306.036555,104.047 305.067555,103.282 303.741555,103.282 C302.143555,103.282 301.344555,104.336 301.344555,105.9 L301.344555,111 L300.409555,111 Z" id="Amazon" fill="#4A6C84" opacity="0.769134964"></path>
                <path d="M277.775,63.51 L279.014,63.51 L274.016,74.262 L279.077,74.262 L279.077,69.747 L280.295,69.747 L280.295,74.262 L281.744,74.262 L281.744,75.396 L280.295,75.396 L280.295,78 L279.077,78 L279.077,75.396 L272.588,75.396 L272.588,74.493 L277.775,63.51 Z M286.4984,71.091 L286.4984,69.957 L287.2964,69.957 C289.5434,69.957 290.5094,68.907 290.5094,67.164 C290.5094,65.736 289.3964,64.518 287.6744,64.518 C286.0364,64.518 284.8814,65.61 284.8394,67.08 L283.6424,67.08 C283.6424,64.791 285.5534,63.384 287.6744,63.384 C290.0264,63.384 291.7274,65.001 291.7274,67.185 C291.7274,68.949 290.6984,70.02 289.3964,70.503 C290.8664,71.007 291.9374,72.225 291.9374,74.073 C291.9374,76.341 290.3204,78.126 287.8214,78.126 C285.1124,78.126 283.6004,76.509 283.4534,74.325 L284.6504,74.325 C284.8394,75.879 285.8054,76.992 287.8214,76.992 C289.4594,76.992 290.7194,75.816 290.7194,74.115 C290.7194,72.246 289.5434,71.091 287.2964,71.091 L286.4984,71.091 Z M303.9368,63.51 L305.1758,63.51 L297.0908,78 L295.8308,78 L303.9368,63.51 Z M296.5028,69.873 C297.8888,69.873 298.4558,68.886 298.4558,67.626 L298.4558,66.534 C298.4558,65.085 297.7418,64.329 296.5028,64.329 C295.2848,64.329 294.5708,65.085 294.5708,66.534 L294.5708,67.626 C294.5708,68.886 295.0748,69.873 296.5028,69.873 Z M296.5028,70.818 C294.6338,70.818 293.5838,69.663 293.5838,67.626 L293.5838,66.513 C293.5838,64.476 294.6758,63.363 296.5028,63.363 C298.3508,63.363 299.4218,64.476 299.4218,66.513 L299.4218,67.626 C299.4218,69.6 298.4768,70.818 296.5028,70.818 Z M304.7348,77.181 C306.1208,77.181 306.6878,76.194 306.6878,74.934 L306.6878,73.842 C306.6878,72.393 305.9738,71.637 304.7348,71.637 C303.5168,71.637 302.8028,72.393 302.8028,73.842 L302.8028,74.934 C302.8028,76.194 303.3068,77.181 304.7348,77.181 Z M304.7348,78.126 C302.8658,78.126 301.8158,76.971 301.8158,74.934 L301.8158,73.821 C301.8158,71.784 302.9078,70.671 304.7348,70.671 C306.5828,70.671 307.6538,71.784 307.6538,73.821 L307.6538,74.934 C307.6538,76.908 306.7088,78.126 304.7348,78.126 Z" id="43%" fill="#02AAE6"></path>
                <path d="M6.103,81.39 C4.864,81.39 4.066,82.167 3.583,83.049 L2.491,83.049 L2.491,75.51 L9.631,75.51 L9.631,76.728 L3.667,76.728 L3.667,81.432 C4.192,80.718 5.074,80.172 6.292,80.172 C9.064,80.172 10.24,82.209 10.24,85.464 C10.24,88.32 8.791,90.126 6.103,90.126 C3.919,90.126 2.302,88.551 2.155,86.556 L3.352,86.556 C3.562,88.047 4.696,88.992 6.103,88.992 C7.888,88.992 9.022,88.026 9.022,85.464 C9.022,82.818 8.161,81.39 6.103,81.39 Z M19.7421384,79.563 L19.7421384,85.947 C19.7421384,88.614 17.8731384,90.126 15.6891384,90.126 C13.5051384,90.126 11.6361384,88.614 11.6361384,85.926 L11.6361384,79.584 C11.6361384,76.896 13.5051384,75.384 15.6891384,75.384 C17.8731384,75.384 19.7421384,76.896 19.7421384,79.563 Z M18.5241384,79.563 C18.5241384,77.673 17.2851384,76.518 15.6891384,76.518 C14.0721384,76.518 12.8331384,77.673 12.8331384,79.563 L12.8331384,85.947 C12.8331384,87.837 14.0721384,88.992 15.6891384,88.992 C17.2851384,88.992 18.5241384,87.837 18.5241384,85.947 L18.5241384,79.563 Z M30.9242767,75.51 L32.1632767,75.51 L24.0782767,90 L22.8182767,90 L30.9242767,75.51 Z M23.4902767,81.873 C24.8762767,81.873 25.4432767,80.886 25.4432767,79.626 L25.4432767,78.534 C25.4432767,77.085 24.7292767,76.329 23.4902767,76.329 C22.2722767,76.329 21.5582767,77.085 21.5582767,78.534 L21.5582767,79.626 C21.5582767,80.886 22.0622767,81.873 23.4902767,81.873 Z M23.4902767,82.818 C21.6212767,82.818 20.5712767,81.663 20.5712767,79.626 L20.5712767,78.513 C20.5712767,76.476 21.6632767,75.363 23.4902767,75.363 C25.3382767,75.363 26.4092767,76.476 26.4092767,78.513 L26.4092767,79.626 C26.4092767,81.6 25.4642767,82.818 23.4902767,82.818 Z M31.7222767,89.181 C33.1082767,89.181 33.6752767,88.194 33.6752767,86.934 L33.6752767,85.842 C33.6752767,84.393 32.9612767,83.637 31.7222767,83.637 C30.5042767,83.637 29.7902767,84.393 29.7902767,85.842 L29.7902767,86.934 C29.7902767,88.194 30.2942767,89.181 31.7222767,89.181 Z M31.7222767,90.126 C29.8532767,90.126 28.8032767,88.971 28.8032767,86.934 L28.8032767,85.821 C28.8032767,83.784 29.8952767,82.671 31.7222767,82.671 C33.5702767,82.671 34.6412767,83.784 34.6412767,85.821 L34.6412767,86.934 C34.6412767,88.908 33.6962767,90.126 31.7222767,90.126 Z" id="50%" fill="#02AAE6"></path>
                <path d="M280.415,177.374 L279.281,177.374 L279.281,173.51 L287.219,173.51 L287.219,174.644 L282.431,188 L281.129,188 L285.938,174.644 L280.415,174.644 L280.415,177.374 Z M299.3864,173.51 L300.6254,173.51 L292.5404,188 L291.2804,188 L299.3864,173.51 Z M291.9524,179.873 C293.3384,179.873 293.9054,178.886 293.9054,177.626 L293.9054,176.534 C293.9054,175.085 293.1914,174.329 291.9524,174.329 C290.7344,174.329 290.0204,175.085 290.0204,176.534 L290.0204,177.626 C290.0204,178.886 290.5244,179.873 291.9524,179.873 Z M291.9524,180.818 C290.0834,180.818 289.0334,179.663 289.0334,177.626 L289.0334,176.513 C289.0334,174.476 290.1254,173.363 291.9524,173.363 C293.8004,173.363 294.8714,174.476 294.8714,176.513 L294.8714,177.626 C294.8714,179.6 293.9264,180.818 291.9524,180.818 Z M300.1844,187.181 C301.5704,187.181 302.1374,186.194 302.1374,184.934 L302.1374,183.842 C302.1374,182.393 301.4234,181.637 300.1844,181.637 C298.9664,181.637 298.2524,182.393 298.2524,183.842 L298.2524,184.934 C298.2524,186.194 298.7564,187.181 300.1844,187.181 Z M300.1844,188.126 C298.3154,188.126 297.2654,186.971 297.2654,184.934 L297.2654,183.821 C297.2654,181.784 298.3574,180.671 300.1844,180.671 C302.0324,180.671 303.1034,181.784 303.1034,183.821 L303.1034,184.934 C303.1034,186.908 302.1584,188.126 300.1844,188.126 Z" id="7%" fill="#02AAE6"></path>
                <polyline id="Path-2" stroke="url(#linearGradient-6)" opacity="0.667176178" transform="translate(246.000000, 187.000000) scale(1, -1) translate(-246.000000, -187.000000) " points="189 199 213.346713 175 303 175"></polyline>
                <path d="M275.327,217.988 L269.7,217.988 L269.7,218.345 C269.7,220.028 270.482,221.235 272.284,221.235 C273.321,221.235 274.018,220.929 274.494,220.198 L275.242,220.725 C274.647,221.66 273.712,222.102 272.335,222.102 C270.074,222.102 268.765,220.708 268.765,218.345 L268.765,217.121 C268.765,214.707 269.921,213.398 272.046,213.398 C274.171,213.398 275.327,214.707 275.327,217.121 L275.327,217.988 Z M269.7,217.121 L269.7,217.138 L274.392,217.138 L274.392,217.121 C274.392,215.268 273.593,214.265 272.046,214.265 C270.499,214.265 269.7,215.285 269.7,217.121 Z M277.994111,210.27 L281.462111,210.27 C284.148111,210.27 285.457111,211.307 285.457111,213.245 C285.457111,214.554 284.573111,215.608 283.434111,215.88 C284.913111,216.203 285.831111,217.189 285.831111,218.736 C285.831111,220.334 284.794111,222 281.870111,222 L277.994111,222 L277.994111,210.27 Z M278.980111,216.373 L278.980111,221.082 L281.870111,221.082 C283.893111,221.082 284.845111,220.113 284.845111,218.736 C284.845111,217.155 283.774111,216.373 281.547111,216.373 L278.980111,216.373 Z M278.980111,211.188 L278.980111,215.455 L281.768111,215.455 C283.672111,215.455 284.471111,214.452 284.471111,213.245 C284.471111,212.055 283.859111,211.188 281.462111,211.188 L278.980111,211.188 Z M287.597222,219.569 C287.597222,217.937 288.736222,217.172 290.487222,217.172 L292.969222,217.172 L292.969222,216.118 C292.969222,214.673 292.391222,214.282 290.827222,214.282 C289.807222,214.282 289.144222,214.35 288.600222,215.251 L287.886222,214.758 C288.481222,213.755 289.331222,213.398 290.844222,213.398 C292.918222,213.398 293.904222,214.044 293.904222,216.118 L293.904222,222 L292.969222,222 L292.969222,220.946 C292.493222,221.847 291.643222,222.102 290.555222,222.102 C288.668222,222.102 287.597222,221.201 287.597222,219.569 Z M292.969222,218.838 L292.969222,218.005 L290.487222,218.005 C289.025222,218.005 288.532222,218.685 288.532222,219.586 C288.532222,220.776 289.365222,221.218 290.555222,221.218 C291.932222,221.218 292.969222,220.742 292.969222,218.838 Z M296.486333,225.23 L296.486333,224.312 C297.812333,224.312 298.237333,223.87 298.815333,222.238 L298.849333,222.136 L295.364333,213.5 L296.384333,213.5 L299.325333,220.776 L301.841333,213.5 L302.827333,213.5 L299.750333,222.34 C299.053333,224.38 298.509333,225.23 296.486333,225.23 Z" id="eBay" fill="#4A6C84" opacity="0.769134964"></path>
                <path d="M124.665,94.83 L124.665,96 L118.59,96 L118.59,94.92 L122.235,90.615 C122.94,89.79 123.405,89.085 123.405,88.305 C123.405,87.225 122.58,86.685 121.725,86.685 C120.795,86.685 120.06,87.24 120.03,88.305 L118.755,88.305 C118.755,86.595 120.105,85.53 121.725,85.53 C123.375,85.53 124.695,86.595 124.695,88.365 C124.695,89.595 123.795,90.585 123.135,91.38 L120.285,94.83 L124.665,94.83 Z M132.426,88.515 L132.426,93.135 C132.426,95.04 131.016,96.12 129.456,96.12 C127.896,96.12 126.486,95.04 126.486,93.12 L126.486,88.53 C126.486,86.61 127.896,85.53 129.456,85.53 C131.016,85.53 132.426,86.61 132.426,88.515 Z M131.136,88.515 C131.136,87.405 130.386,86.7 129.456,86.7 C128.511,86.7 127.761,87.405 127.761,88.515 L127.761,93.135 C127.761,94.245 128.511,94.95 129.456,94.95 C130.386,94.95 131.136,94.245 131.136,93.135 L131.136,88.515 Z M138.027,85.65 L138.027,96 L136.737,96 L136.737,87.135 L135.252,88.2 L135.252,86.79 L136.737,85.65 L138.027,85.65 Z M143.088,88.635 L141.918,88.635 L141.918,85.65 L147.738,85.65 L147.738,86.82 L144.453,96 L143.088,96 L146.388,86.82 L143.088,86.82 L143.088,88.635 Z M160.365,87.225 L159.36,87.945 C158.805,87.225 158.205,86.7 156.9,86.7 C155.7,86.7 154.89,87.24 154.89,88.32 C154.89,89.55 155.82,89.97 157.335,90.24 C159.33,90.585 160.545,91.305 160.545,93.225 C160.545,94.575 159.645,96.12 157.065,96.12 C155.385,96.12 154.155,95.55 153.375,94.425 L154.44,93.69 C155.115,94.485 155.715,94.95 157.065,94.95 C158.76,94.95 159.255,94.17 159.255,93.285 C159.255,92.31 158.76,91.65 156.81,91.35 C154.86,91.05 153.6,90.12 153.6,88.32 C153.6,86.835 154.575,85.53 156.945,85.53 C158.595,85.53 159.63,86.085 160.365,87.225 Z M162.051,93.81 C162.051,92.19 163.206,91.665 164.856,91.665 L166.641,91.665 L166.641,90.795 C166.641,89.73 166.146,89.49 164.976,89.49 C164.076,89.49 163.596,89.565 163.176,90.255 L162.276,89.625 C162.801,88.755 163.566,88.38 164.991,88.38 C166.896,88.38 167.841,88.995 167.841,90.795 L167.841,96 L166.641,96 L166.641,95.265 C166.221,95.955 165.711,96.12 164.736,96.12 C162.996,96.12 162.051,95.265 162.051,93.81 Z M166.641,93.12 L166.641,92.685 L164.856,92.685 C163.671,92.685 163.251,93.09 163.251,93.84 C163.251,94.68 163.851,95.01 164.736,95.01 C165.846,95.01 166.641,94.8 166.641,93.12 Z M169.977,93.69 L169.977,85.65 L171.177,85.65 L171.177,93.39 C171.177,94.2 171.222,94.89 172.452,94.89 L172.452,96 C170.562,96 169.977,95.25 169.977,93.69 Z M178.803,94.2 L179.733,94.86 C179.208,95.775 178.413,96.12 177.108,96.12 C175.098,96.12 173.898,94.815 173.898,92.73 L173.898,91.74 C173.898,89.61 174.903,88.38 176.868,88.38 C178.848,88.38 179.838,89.595 179.838,91.74 L179.838,92.52 L175.098,92.52 L175.098,92.73 C175.098,94.02 175.713,95.04 177.018,95.04 C177.993,95.04 178.488,94.755 178.803,94.2 Z M176.868,89.46 C175.713,89.46 175.173,90.225 175.098,91.47 L178.623,91.47 C178.563,90.21 178.008,89.46 176.868,89.46 Z M186.894,89.625 L185.994,90.255 C185.589,89.73 185.169,89.49 184.134,89.49 C183.249,89.49 182.679,89.835 182.679,90.495 C182.679,91.35 183.429,91.605 184.419,91.68 C185.829,91.785 187.119,92.19 187.119,93.915 C187.119,95.22 186.234,96.12 184.299,96.12 C182.769,96.12 181.974,95.655 181.404,94.875 L182.289,94.245 C182.694,94.785 183.234,95.01 184.314,95.01 C185.319,95.01 185.919,94.62 185.919,93.945 C185.919,93.135 185.439,92.85 183.984,92.745 C182.724,92.655 181.479,92.145 181.479,90.51 C181.479,89.265 182.379,88.38 184.164,88.38 C185.379,88.38 186.309,88.695 186.894,89.625 Z M116.6955,104.65 L122.9355,104.65 L122.9355,105.82 L117.9855,105.82 L117.9855,109.06 L122.4855,109.06 L122.4855,110.23 L117.9855,110.23 L117.9855,113.83 L122.9355,113.83 L122.9355,115 L116.6955,115 L116.6955,104.65 Z M129.2265,113.2 L130.1565,113.86 C129.6915,114.73 128.7765,115.12 127.5615,115.12 C125.5065,115.12 124.3215,113.8 124.3215,111.73 L124.3215,110.74 C124.3215,108.61 125.5365,107.38 127.5615,107.38 C128.6865,107.38 129.6165,107.785 130.1565,108.55 L129.2115,109.21 C128.8815,108.73 128.2515,108.46 127.5615,108.46 C126.2715,108.46 125.5215,109.33 125.5215,110.74 L125.5215,111.73 C125.5215,113.02 126.1215,114.04 127.5615,114.04 C128.2665,114.04 128.9115,113.8 129.2265,113.2 Z M137.4075,110.74 L137.4075,111.73 C137.4075,113.68 136.4475,115.12 134.2875,115.12 C132.2925,115.12 131.1675,113.8 131.1675,111.73 L131.1675,110.74 C131.1675,108.61 132.3225,107.38 134.2875,107.38 C136.2675,107.38 137.4075,108.595 137.4075,110.74 Z M134.2875,114.04 C135.5625,114.04 136.2075,113.005 136.2075,111.73 L136.2075,110.74 C136.2075,109.315 135.5175,108.46 134.2875,108.46 C133.0575,108.46 132.3675,109.33 132.3675,110.74 L132.3675,111.73 C132.3675,113.02 132.9075,114.04 134.2875,114.04 Z M139.1685,115 L139.1685,107.5 L140.3685,107.5 L140.3685,108.235 C140.6985,107.725 141.2685,107.38 142.2285,107.38 C143.2335,107.38 143.9985,107.785 144.4185,108.565 C144.9285,107.77 145.7535,107.38 146.6685,107.38 C148.2735,107.38 149.2485,108.37 149.2485,110.32 L149.2485,115 L148.0485,115 L148.0485,110.335 C148.0485,108.97 147.3735,108.49 146.4885,108.49 C145.5285,108.49 144.8085,109.255 144.8085,110.32 L144.8085,115 L143.6085,115 L143.6085,110.335 C143.6085,108.97 142.9335,108.49 142.0485,108.49 C141.0735,108.49 140.3685,109.285 140.3685,110.32 L140.3685,115 L139.1685,115 Z M151.3845,115 L151.3845,107.5 L152.5845,107.5 L152.5845,108.235 C152.9145,107.725 153.4845,107.38 154.4445,107.38 C155.4495,107.38 156.2145,107.785 156.6345,108.565 C157.1445,107.77 157.9695,107.38 158.8845,107.38 C160.4895,107.38 161.4645,108.37 161.4645,110.32 L161.4645,115 L160.2645,115 L160.2645,110.335 C160.2645,108.97 159.5895,108.49 158.7045,108.49 C157.7445,108.49 157.0245,109.255 157.0245,110.32 L157.0245,115 L155.8245,115 L155.8245,110.335 C155.8245,108.97 155.1495,108.49 154.2645,108.49 C153.2895,108.49 152.5845,109.285 152.5845,110.32 L152.5845,115 L151.3845,115 Z M168.1305,113.2 L169.0605,113.86 C168.5355,114.775 167.7405,115.12 166.4355,115.12 C164.4255,115.12 163.2255,113.815 163.2255,111.73 L163.2255,110.74 C163.2255,108.61 164.2305,107.38 166.1955,107.38 C168.1755,107.38 169.1655,108.595 169.1655,110.74 L169.1655,111.52 L164.4255,111.52 L164.4255,111.73 C164.4255,113.02 165.0405,114.04 166.3455,114.04 C167.3205,114.04 167.8155,113.755 168.1305,113.2 Z M166.1955,108.46 C165.0405,108.46 164.5005,109.225 164.4255,110.47 L167.9505,110.47 C167.8905,109.21 167.3355,108.46 166.1955,108.46 Z M176.1915,108.4 L175.1715,109.12 C174.8565,108.685 174.4665,108.49 173.9115,108.49 C172.9965,108.49 172.3065,109.18 172.3065,110.305 L172.3065,115 L171.1065,115 L171.1065,107.5 L172.3065,107.5 L172.3065,108.235 C172.6215,107.71 173.1315,107.38 174.0465,107.38 C175.0665,107.38 175.7115,107.725 176.1915,108.4 Z M181.7325,113.2 L182.6625,113.86 C182.1975,114.73 181.2825,115.12 180.0675,115.12 C178.0125,115.12 176.8275,113.8 176.8275,111.73 L176.8275,110.74 C176.8275,108.61 178.0425,107.38 180.0675,107.38 C181.1925,107.38 182.1225,107.785 182.6625,108.55 L181.7175,109.21 C181.3875,108.73 180.7575,108.46 180.0675,108.46 C178.7775,108.46 178.0275,109.33 178.0275,110.74 L178.0275,111.73 C178.0275,113.02 178.6275,114.04 180.0675,114.04 C180.7725,114.04 181.4175,113.8 181.7325,113.2 Z M188.5785,113.2 L189.5085,113.86 C188.9835,114.775 188.1885,115.12 186.8835,115.12 C184.8735,115.12 183.6735,113.815 183.6735,111.73 L183.6735,110.74 C183.6735,108.61 184.6785,107.38 186.6435,107.38 C188.6235,107.38 189.6135,108.595 189.6135,110.74 L189.6135,111.52 L184.8735,111.52 L184.8735,111.73 C184.8735,113.02 185.4885,114.04 186.7935,114.04 C187.7685,114.04 188.2635,113.755 188.5785,113.2 Z M186.6435,108.46 C185.4885,108.46 184.9485,109.225 184.8735,110.47 L188.3985,110.47 C188.3385,109.21 187.7835,108.46 186.6435,108.46 Z" id="2017-Sales-Ecommerce" fill="#02AAE6"></path>
            </g>
        </g>
    </g>
</svg>