<?xml version="1.0" encoding="UTF-8"?>
<svg width="310px" height="207px" viewBox="0 0 310 207" version="1.1" xmlns="http://www.w3.org/2000/svg" xmlns:xlink="http://www.w3.org/1999/xlink">
    <!-- Generator: Sketch 48.2 (47327) - http://www.bohemiancoding.com/sketch -->
    <title>Group 40</title>
    <desc>Created with Sketch.</desc>
    <defs>
        <linearGradient x1="35.6606276%" y1="55.580068%" x2="113.40917%" y2="55.580068%" id="linearGradient-1">
            <stop stop-color="#1490E0" offset="0%"></stop>
            <stop stop-color="#20F0FF" offset="100%"></stop>
        </linearGradient>
    </defs>
    <g id="Mobile" stroke="none" stroke-width="1" fill="none" fill-rule="evenodd" transform="translate(-33.000000, -3459.000000)">
        <g id="Group-41" transform="translate(0.000000, 2545.000000)">
            <g id="Group-40" transform="translate(32.000000, 903.000000)">
                <g id="Bar-Chart-2">
                    <g id="chart-#s-and-lines">
                        <path d="M4.44858441,16.27 C3.74358441,16.27 3.26358441,16.63 2.97858441,17.035 L1.79358441,17.035 L1.79358441,11.65 L7.04358441,11.65 L7.04358441,12.94 L3.03858441,12.94 L3.03858441,15.655 C3.36858441,15.28 3.89358441,14.98 4.68858441,14.98 C6.60858441,14.98 7.47858441,16.45 7.47858441,18.775 C7.47858441,20.815 6.42858441,22.12 4.44858441,22.12 C2.84358441,22.12 1.65858441,20.995 1.55358441,19.57 L2.81358441,19.57 C3.00858441,20.44 3.60858441,20.95 4.44858441,20.95 C5.51358441,20.95 6.18858441,20.335 6.18858441,18.775 C6.18858441,17.155 5.67858441,16.27 4.44858441,16.27 Z M14.6185844,14.515 L14.6185844,19.135 C14.6185844,21.04 13.2085844,22.12 11.6485844,22.12 C10.0885844,22.12 8.6785844,21.04 8.6785844,19.12 L8.6785844,14.53 C8.6785844,12.61 10.0885844,11.53 11.6485844,11.53 C13.2085844,11.53 14.6185844,12.61 14.6185844,14.515 Z M13.3285844,14.515 C13.3285844,13.405 12.5785844,12.7 11.6485844,12.7 C10.7035844,12.7 9.9535844,13.405 9.9535844,14.515 L9.9535844,19.135 C9.9535844,20.245 10.7035844,20.95 11.6485844,20.95 C12.5785844,20.95 13.3285844,20.245 13.3285844,19.135 L13.3285844,14.515 Z M4.67358441,45.65 L5.94858441,45.65 L2.52858441,53.15 L5.51358441,53.15 L5.51358441,50.105 L6.80358441,50.105 L6.80358441,53.15 L7.74858441,53.15 L7.74858441,54.32 L6.80358441,54.32 L6.80358441,56 L5.51358441,56 L5.51358441,54.32 L1.02858441,54.32 L1.02858441,53.375 L4.67358441,45.65 Z M14.6185844,48.515 L14.6185844,53.135 C14.6185844,55.04 13.2085844,56.12 11.6485844,56.12 C10.0885844,56.12 8.6785844,55.04 8.6785844,53.12 L8.6785844,48.53 C8.6785844,46.61 10.0885844,45.53 11.6485844,45.53 C13.2085844,45.53 14.6185844,46.61 14.6185844,48.515 Z M13.3285844,48.515 C13.3285844,47.405 12.5785844,46.7 11.6485844,46.7 C10.7035844,46.7 9.9535844,47.405 9.9535844,48.515 L9.9535844,53.135 C9.9535844,54.245 10.7035844,54.95 11.6485844,54.95 C12.5785844,54.95 13.3285844,54.245 13.3285844,53.135 L13.3285844,48.515 Z M3.51858441,85.245 L3.51858441,84.075 L4.16358441,84.075 C5.52858441,84.075 6.11358441,83.37 6.11358441,82.245 C6.11358441,81.435 5.45358441,80.685 4.43358441,80.685 C3.45858441,80.685 2.76858441,81.33 2.73858441,82.17 L1.47858441,82.17 C1.47858441,80.535 2.88858441,79.53 4.43358441,79.53 C6.15858441,79.53 7.40358441,80.685 7.40358441,82.275 C7.40358441,83.34 6.80358441,84.18 5.85858441,84.63 C6.86358441,85.035 7.55358441,85.86 7.55358441,87.18 C7.55358441,88.77 6.36858441,90.12 4.53858441,90.12 C2.55858441,90.12 1.44858441,88.965 1.34358441,87.405 L2.60358441,87.405 C2.73858441,88.245 3.30858441,88.95 4.53858441,88.95 C5.51358441,88.95 6.26358441,88.2 6.26358441,87.21 C6.26358441,85.98 5.54358441,85.245 4.16358441,85.245 L3.51858441,85.245 Z M14.6185844,82.515 L14.6185844,87.135 C14.6185844,89.04 13.2085844,90.12 11.6485844,90.12 C10.0885844,90.12 8.6785844,89.04 8.6785844,87.12 L8.6785844,82.53 C8.6785844,80.61 10.0885844,79.53 11.6485844,79.53 C13.2085844,79.53 14.6185844,80.61 14.6185844,82.515 Z M13.3285844,82.515 C13.3285844,81.405 12.5785844,80.7 11.6485844,80.7 C10.7035844,80.7 9.9535844,81.405 9.9535844,82.515 L9.9535844,87.135 C9.9535844,88.245 10.7035844,88.95 11.6485844,88.95 C12.5785844,88.95 13.3285844,88.245 13.3285844,87.135 L13.3285844,82.515 Z M7.37358441,122.83 L7.37358441,124 L1.29858441,124 L1.29858441,122.92 L4.94358441,118.615 C5.64858441,117.79 6.11358441,117.085 6.11358441,116.305 C6.11358441,115.225 5.28858441,114.685 4.43358441,114.685 C3.50358441,114.685 2.76858441,115.24 2.73858441,116.305 L1.46358441,116.305 C1.46358441,114.595 2.81358441,113.53 4.43358441,113.53 C6.08358441,113.53 7.40358441,114.595 7.40358441,116.365 C7.40358441,117.595 6.50358441,118.585 5.84358441,119.38 L2.99358441,122.83 L7.37358441,122.83 Z M14.6185844,116.515 L14.6185844,121.135 C14.6185844,123.04 13.2085844,124.12 11.6485844,124.12 C10.0885844,124.12 8.6785844,123.04 8.6785844,121.12 L8.6785844,116.53 C8.6785844,114.61 10.0885844,113.53 11.6485844,113.53 C13.2085844,113.53 14.6185844,114.61 14.6185844,116.515 Z M13.3285844,116.515 C13.3285844,115.405 12.5785844,114.7 11.6485844,114.7 C10.7035844,114.7 9.9535844,115.405 9.9535844,116.515 L9.9535844,121.135 C9.9535844,122.245 10.7035844,122.95 11.6485844,122.95 C12.5785844,122.95 13.3285844,122.245 13.3285844,121.135 L13.3285844,116.515 Z M5.36358441,147.65 L5.36358441,158 L4.07358441,158 L4.07358441,149.135 L2.58858441,150.2 L2.58858441,148.79 L4.07358441,147.65 L5.36358441,147.65 Z M14.6185844,150.515 L14.6185844,155.135 C14.6185844,157.04 13.2085844,158.12 11.6485844,158.12 C10.0885844,158.12 8.6785844,157.04 8.6785844,155.12 L8.6785844,150.53 C8.6785844,148.61 10.0885844,147.53 11.6485844,147.53 C13.2085844,147.53 14.6185844,148.61 14.6185844,150.515 Z M13.3285844,150.515 C13.3285844,149.405 12.5785844,148.7 11.6485844,148.7 C10.7035844,148.7 9.9535844,149.405 9.9535844,150.515 L9.9535844,155.135 C9.9535844,156.245 10.7035844,156.95 11.6485844,156.95 C12.5785844,156.95 13.3285844,156.245 13.3285844,155.135 L13.3285844,150.515 Z M14.6185844,184.515 L14.6185844,189.135 C14.6185844,191.04 13.2085844,192.12 11.6485844,192.12 C10.0885844,192.12 8.6785844,191.04 8.6785844,189.12 L8.6785844,184.53 C8.6785844,182.61 10.0885844,181.53 11.6485844,181.53 C13.2085844,181.53 14.6185844,182.61 14.6185844,184.515 Z M13.3285844,184.515 C13.3285844,183.405 12.5785844,182.7 11.6485844,182.7 C10.7035844,182.7 9.9535844,183.405 9.9535844,184.515 L9.9535844,189.135 C9.9535844,190.245 10.7035844,190.95 11.6485844,190.95 C12.5785844,190.95 13.3285844,190.245 13.3285844,189.135 L13.3285844,184.515 Z" id="50-40-30-20-10-0" fill="#7792A6"></path>
                        <path d="M25.5856736,86.9193548 L311.975088,86.9193548" id="Line-Copy-4" stroke="#DEDEDE" stroke-linecap="square" stroke-dasharray="1,3"></path>
                        <path d="M25.6192171,17.9193548 L312.008631,17.9193548" id="Line-Copy-2" stroke="#DEDEDE" stroke-linecap="square" stroke-dasharray="1,3"></path>
                        <path d="M25.5856736,154.806452 L311.975088,154.806452" id="Line-Copy-5" stroke="#DEDEDE" stroke-linecap="square" stroke-dasharray="1,3"></path>
                        <path d="M25.5856736,120.306452 L311.975088,120.306452" id="Line-Copy-6" stroke="#DEDEDE" stroke-linecap="square" stroke-dasharray="1,3"></path>
                        <path d="M25.5856736,52.4193548 L311.975088,52.4193548" id="Line-Copy-3" stroke="#DEDEDE" stroke-linecap="square" stroke-dasharray="1,3"></path>
                        <path d="M25.5856736,189.306452 L311.975088,189.306452" id="Line-Copy-7" stroke="#DEDEDE" stroke-linecap="square" stroke-dasharray="1,3"></path>
                    </g>
                    <path d="M39.184,214 L38.192,214 L41.968,202.96 L42.832,202.96 L46.608,214 L45.632,214 L44.72,211.312 L40.08,211.312 L39.184,214 Z M42.4,204.448 L40.368,210.448 L44.432,210.448 L42.4,204.448 Z M48.2929231,211.568 L48.2929231,202.96 L49.1729231,202.96 L49.1729231,211.344 C49.1729231,212.464 49.3009231,213.2 50.6929231,213.2 L50.6929231,214.032 C48.8529231,214.032 48.2929231,213.232 48.2929231,211.568 Z M53.1778461,214 L53.1778461,206 L54.0578461,206 L54.0578461,214 L53.1778461,214 Z M53.0818461,204.032 L53.0818461,202.96 L54.1538461,202.96 L54.1538461,204.032 L53.0818461,204.032 Z M57.2147692,202.96 L63.7107692,202.96 L63.7107692,203.824 L58.1427692,203.824 L58.1427692,207.856 L63.2307692,207.856 L63.2307692,208.72 L58.1427692,208.72 L58.1427692,213.136 L63.7107692,213.136 L63.7107692,214 L57.2147692,214 L57.2147692,202.96 Z M71.7316923,214 L70.6756923,214 L68.3556923,210.672 L66.0196923,214 L64.9796923,214 L67.8436923,209.904 L65.2196923,206 L66.2596923,206 L68.3556923,209.152 L70.4356923,206 L71.4916923,206 L68.8676923,209.904 L71.7316923,214 Z M79.8646154,209.408 L79.8646154,210.56 C79.8646154,212.752 78.8246154,214.096 76.7446154,214.096 C75.5286154,214.096 74.7766154,213.76 74.3286154,213.056 L74.3286154,217.04 L73.4486154,217.04 L73.4486154,206 L74.3286154,206 L74.3286154,207.008 C74.7766154,206.288 75.5286154,205.904 76.7446154,205.904 C78.7286154,205.904 79.8646154,207.136 79.8646154,209.408 Z M76.6806154,213.28 C78.2166154,213.28 78.9846154,212.24 78.9846154,210.56 L78.9846154,209.408 C78.9846154,207.664 78.2006154,206.72 76.6806154,206.72 C74.9846154,206.72 74.3286154,207.744 74.3286154,209.312 L74.3286154,210.704 C74.3446154,212.208 74.9206154,213.28 76.6806154,213.28 Z M84.8775384,206.736 C83.6295384,206.736 82.9415384,207.728 82.9415384,209.184 L82.9415384,214 L82.0615384,214 L82.0615384,206 L82.9415384,206 L82.9415384,207.088 C83.2775384,206.352 83.9495384,205.904 84.9575384,205.904 C85.9975384,205.904 86.6855384,206.304 87.2135384,207.008 L86.4775384,207.552 C86.0615384,207.008 85.5815384,206.736 84.8775384,206.736 Z M94.3224615,210.224 L89.0264615,210.224 L89.0264615,210.56 C89.0264615,212.144 89.7624615,213.28 91.4584615,213.28 C92.4344615,213.28 93.0904615,212.992 93.5384615,212.304 L94.2424615,212.8 C93.6824615,213.68 92.8024615,214.096 91.5064615,214.096 C89.3784615,214.096 88.1464615,212.784 88.1464615,210.56 L88.1464615,209.408 C88.1464615,207.136 89.2344615,205.904 91.2344615,205.904 C93.2344615,205.904 94.3224615,207.136 94.3224615,209.408 L94.3224615,210.224 Z M89.0264615,209.408 L89.0264615,209.424 L93.4424615,209.424 L93.4424615,209.408 C93.4424615,207.664 92.6904615,206.72 91.2344615,206.72 C89.7784615,206.72 89.0264615,207.68 89.0264615,209.408 Z M101.895385,207.232 L101.223385,207.712 C100.727385,207.008 100.215385,206.736 99.0473846,206.736 C97.9753846,206.736 97.1593846,207.136 97.1593846,208.048 C97.1593846,209.168 98.1673846,209.392 99.2873846,209.536 C100.839385,209.744 102.135385,210.192 102.135385,211.888 C102.135385,213.136 101.335385,214.096 99.2073846,214.096 C97.6233846,214.096 96.7913846,213.6 96.1993846,212.768 L96.8873846,212.288 C97.3673846,212.96 97.9753846,213.264 99.2233846,213.264 C100.471385,213.264 101.255385,212.864 101.255385,211.904 C101.255385,210.88 100.455385,210.528 98.8713846,210.32 C97.5113846,210.144 96.2793846,209.68 96.2793846,208.064 C96.2793846,206.768 97.2553846,205.904 99.0633846,205.904 C100.327385,205.904 101.287385,206.24 101.895385,207.232 Z M109.548308,207.232 L108.876308,207.712 C108.380308,207.008 107.868308,206.736 106.700308,206.736 C105.628308,206.736 104.812308,207.136 104.812308,208.048 C104.812308,209.168 105.820308,209.392 106.940308,209.536 C108.492308,209.744 109.788308,210.192 109.788308,211.888 C109.788308,213.136 108.988308,214.096 106.860308,214.096 C105.276308,214.096 104.444308,213.6 103.852308,212.768 L104.540308,212.288 C105.020308,212.96 105.628308,213.264 106.876308,213.264 C108.124308,213.264 108.908308,212.864 108.908308,211.904 C108.908308,210.88 108.108308,210.528 106.524308,210.32 C105.164308,210.144 103.932308,209.68 103.932308,208.064 C103.932308,206.768 104.908308,205.904 106.716308,205.904 C107.980308,205.904 108.940308,206.24 109.548308,207.232 Z M130.88,210.224 L125.584,210.224 L125.584,210.56 C125.584,212.144 126.32,213.28 128.016,213.28 C128.992,213.28 129.648,212.992 130.096,212.304 L130.8,212.8 C130.24,213.68 129.36,214.096 128.064,214.096 C125.936,214.096 124.704,212.784 124.704,210.56 L124.704,209.408 C124.704,207.136 125.792,205.904 127.792,205.904 C129.792,205.904 130.88,207.136 130.88,209.408 L130.88,210.224 Z M125.584,209.408 L125.584,209.424 L130,209.424 L130,209.408 C130,207.664 129.248,206.72 127.792,206.72 C126.336,206.72 125.584,207.68 125.584,209.408 Z M133.524923,202.96 L136.788923,202.96 C139.316923,202.96 140.548923,203.936 140.548923,205.76 C140.548923,206.992 139.716923,207.984 138.644923,208.24 C140.036923,208.544 140.900923,209.472 140.900923,210.928 C140.900923,212.432 139.924923,214 137.172923,214 L133.524923,214 L133.524923,202.96 Z M134.452923,208.704 L134.452923,213.136 L137.172923,213.136 C139.076923,213.136 139.972923,212.224 139.972923,210.928 C139.972923,209.44 138.964923,208.704 136.868923,208.704 L134.452923,208.704 Z M134.452923,203.824 L134.452923,207.84 L137.076923,207.84 C138.868923,207.84 139.620923,206.896 139.620923,205.76 C139.620923,204.64 139.044923,203.824 136.788923,203.824 L134.452923,203.824 Z M142.697846,211.712 C142.697846,210.176 143.769846,209.456 145.417846,209.456 L147.753846,209.456 L147.753846,208.464 C147.753846,207.104 147.209846,206.736 145.737846,206.736 C144.777846,206.736 144.153846,206.8 143.641846,207.648 L142.969846,207.184 C143.529846,206.24 144.329846,205.904 145.753846,205.904 C147.705846,205.904 148.633846,206.512 148.633846,208.464 L148.633846,214 L147.753846,214 L147.753846,213.008 C147.305846,213.856 146.505846,214.096 145.481846,214.096 C143.705846,214.096 142.697846,213.248 142.697846,211.712 Z M147.753846,211.024 L147.753846,210.24 L145.417846,210.24 C144.041846,210.24 143.577846,210.88 143.577846,211.728 C143.577846,212.848 144.361846,213.264 145.481846,213.264 C146.777846,213.264 147.753846,212.816 147.753846,211.024 Z M151.198769,217.04 L151.198769,216.176 C152.446769,216.176 152.846769,215.76 153.390769,214.224 L153.422769,214.128 L150.142769,206 L151.102769,206 L153.870769,212.848 L156.238769,206 L157.166769,206 L154.270769,214.32 C153.614769,216.24 153.102769,217.04 151.198769,217.04 Z M184.033231,202.96 L184.993231,202.96 L187.217231,212.272 L189.937231,202.96 L190.881231,202.96 L193.665231,212.128 L195.857231,202.96 L196.817231,202.96 L194.113231,214 L193.121231,214 L190.417231,204.624 L187.713231,214 L186.737231,214 L184.033231,202.96 Z M197.782154,211.712 C197.782154,210.176 198.854154,209.456 200.502154,209.456 L202.838154,209.456 L202.838154,208.464 C202.838154,207.104 202.294154,206.736 200.822154,206.736 C199.862154,206.736 199.238154,206.8 198.726154,207.648 L198.054154,207.184 C198.614154,206.24 199.414154,205.904 200.838154,205.904 C202.790154,205.904 203.718154,206.512 203.718154,208.464 L203.718154,214 L202.838154,214 L202.838154,213.008 C202.390154,213.856 201.590154,214.096 200.566154,214.096 C198.790154,214.096 197.782154,213.248 197.782154,211.712 Z M202.838154,211.024 L202.838154,210.24 L200.502154,210.24 C199.126154,210.24 198.662154,210.88 198.662154,211.728 C198.662154,212.848 199.446154,213.264 200.566154,213.264 C201.862154,213.264 202.838154,212.816 202.838154,211.024 Z M206.315077,211.568 L206.315077,202.96 L207.195077,202.96 L207.195077,211.344 C207.195077,212.464 207.323077,213.2 208.715077,213.2 L208.715077,214.032 C206.875077,214.032 206.315077,213.232 206.315077,211.568 Z M210.96,214 L210.96,206 L211.84,206 L211.84,207.088 C212.176,206.352 212.896,205.904 213.952,205.904 C215.088,205.904 215.92,206.448 216.336,207.472 C216.784,206.464 217.664,205.904 218.768,205.904 C220.448,205.904 221.472,207.088 221.472,209.264 L221.472,214 L220.592,214 L220.592,209.28 C220.592,207.536 219.824,206.736 218.672,206.736 C217.392,206.736 216.656,207.68 216.656,209.088 L216.656,214 L215.776,214 L215.776,209.28 C215.776,207.536 215.008,206.736 213.856,206.736 C212.544,206.736 211.84,207.728 211.84,209.2 L211.84,214 L210.96,214 Z M223.668923,211.712 C223.668923,210.176 224.740923,209.456 226.388923,209.456 L228.724923,209.456 L228.724923,208.464 C228.724923,207.104 228.180923,206.736 226.708923,206.736 C225.748923,206.736 225.124923,206.8 224.612923,207.648 L223.940923,207.184 C224.500923,206.24 225.300923,205.904 226.724923,205.904 C228.676923,205.904 229.604923,206.512 229.604923,208.464 L229.604923,214 L228.724923,214 L228.724923,213.008 C228.276923,213.856 227.476923,214.096 226.452923,214.096 C224.676923,214.096 223.668923,213.248 223.668923,211.712 Z M228.724923,211.024 L228.724923,210.24 L226.388923,210.24 C225.012923,210.24 224.548923,210.88 224.548923,211.728 C224.548923,212.848 225.332923,213.264 226.452923,213.264 C227.748923,213.264 228.724923,212.816 228.724923,211.024 Z M235.017846,206.736 C233.769846,206.736 233.081846,207.728 233.081846,209.184 L233.081846,214 L232.201846,214 L232.201846,206 L233.081846,206 L233.081846,207.088 C233.417846,206.352 234.089846,205.904 235.097846,205.904 C236.137846,205.904 236.825846,206.304 237.353846,207.008 L236.617846,207.552 C236.201846,207.008 235.721846,206.736 235.017846,206.736 Z M238.046769,206.816 L238.046769,206 L239.070769,206 L239.070769,204.24 L239.950769,204.24 L239.950769,206 L241.918769,206 L241.918769,206.816 L239.950769,206.816 L239.950769,211.296 C239.950769,212.576 240.094769,213.152 241.390769,213.152 L241.918769,213.152 L241.918769,214 L241.358769,214 C239.582769,214 239.070769,213.2 239.070769,211.536 L239.070769,206.816 L238.046769,206.816 Z M257.170461,214 L256.178461,214 L259.954461,202.96 L260.818461,202.96 L264.594461,214 L263.618461,214 L262.706461,211.312 L258.066461,211.312 L257.170461,214 Z M260.386461,204.448 L258.354461,210.448 L262.418461,210.448 L260.386461,204.448 Z M266.279385,214 L266.279385,206 L267.159385,206 L267.159385,207.088 C267.495385,206.352 268.215385,205.904 269.271385,205.904 C270.407385,205.904 271.239385,206.448 271.655385,207.472 C272.103385,206.464 272.983385,205.904 274.087385,205.904 C275.767385,205.904 276.791385,207.088 276.791385,209.264 L276.791385,214 L275.911385,214 L275.911385,209.28 C275.911385,207.536 275.143385,206.736 273.991385,206.736 C272.711385,206.736 271.975385,207.68 271.975385,209.088 L271.975385,214 L271.095385,214 L271.095385,209.28 C271.095385,207.536 270.327385,206.736 269.175385,206.736 C267.863385,206.736 267.159385,207.728 267.159385,209.2 L267.159385,214 L266.279385,214 Z M278.988308,211.712 C278.988308,210.176 280.060308,209.456 281.708308,209.456 L284.044308,209.456 L284.044308,208.464 C284.044308,207.104 283.500308,206.736 282.028308,206.736 C281.068308,206.736 280.444308,206.8 279.932308,207.648 L279.260308,207.184 C279.820308,206.24 280.620308,205.904 282.044308,205.904 C283.996308,205.904 284.924308,206.512 284.924308,208.464 L284.924308,214 L284.044308,214 L284.044308,213.008 C283.596308,213.856 282.796308,214.096 281.772308,214.096 C279.996308,214.096 278.988308,213.248 278.988308,211.712 Z M284.044308,211.024 L284.044308,210.24 L281.708308,210.24 C280.332308,210.24 279.868308,210.88 279.868308,211.728 C279.868308,212.848 280.652308,213.264 281.772308,213.264 C283.068308,213.264 284.044308,212.816 284.044308,211.024 Z M287.121231,213.312 L291.713231,206.816 L287.121231,206.816 L287.121231,206 L292.865231,206 L292.865231,206.688 L288.305231,213.184 L292.865231,213.184 L292.865231,214 L287.121231,214 L287.121231,213.312 Z M300.966154,210.576 C300.966154,212.752 299.862154,214.096 297.718154,214.096 C295.654154,214.096 294.470154,212.816 294.470154,210.576 L294.470154,209.408 C294.470154,207.136 295.670154,205.904 297.718154,205.904 C299.766154,205.904 300.966154,207.136 300.966154,209.408 L300.966154,210.576 Z M300.086154,210.576 L300.086154,209.408 C300.086154,207.664 299.238154,206.72 297.718154,206.72 C296.182154,206.72 295.350154,207.664 295.350154,209.408 L295.350154,210.576 C295.350154,212.256 296.102154,213.28 297.718154,213.28 C299.270154,213.28 300.086154,212.256 300.086154,210.576 Z M303.163077,214 L303.163077,206 L304.043077,206 L304.043077,207.088 C304.459077,206.32 305.195077,205.904 306.395077,205.904 C308.171077,205.904 309.339077,207.008 309.339077,209.264 L309.339077,214 L308.459077,214 L308.459077,209.28 C308.459077,207.456 307.547077,206.736 306.299077,206.736 C304.795077,206.736 304.043077,207.728 304.043077,209.2 L304.043077,214 L303.163077,214 Z" id="AliExpress-eBay-Walm" fill="#708CA1"></path>
                    <g id="bars" transform="translate(58.000000, 32.000000)" fill="url(#linearGradient-1)">
                        <rect id="Rectangle-6" transform="translate(16.110385, 145.230568) rotate(-270.000000) translate(-16.110385, -145.230568) " x="4.4549763" y="129.163121" width="23.3108166" height="32.1348943"></rect>
                        <rect id="Rectangle-6" transform="translate(84.067447, 131.401749) rotate(-270.000000) translate(-84.067447, -131.401749) " x="58.6656981" y="115.334302" width="50.8034981" height="32.1348943"></rect>
                        <rect id="Rectangle-6" transform="translate(153.067447, 120.734114) rotate(-270.000000) translate(-153.067447, -120.734114) " x="117.37195" y="104.666667" width="71.3909936" height="32.1348943"></rect>
                        <rect id="Rectangle-6" transform="translate(220.510710, 78.487991) rotate(-270.000000) translate(-220.510710, -78.487991) " x="142.379505" y="62.9772814" width="156.262409" height="31.0214191"></rect>
                    </g>
                </g>
                <path d="M252.485,12.65 L253.775,12.65 L253.775,18.785 C253.775,21.845 252.32,23.12 250.025,23.12 C247.73,23.12 246.275,21.845 246.275,18.8 L246.275,12.65 L247.565,12.65 L247.565,18.8 C247.565,21.065 248.435,21.95 250.025,21.95 C251.615,21.95 252.485,21.065 252.485,18.8 L252.485,12.65 Z M256.8125,16.25 C257.2175,15.695 257.8625,15.38 258.8525,15.38 C260.7125,15.38 261.8525,16.595 261.8525,18.74 L261.8525,19.73 C261.8525,21.68 260.8925,23.12 258.8525,23.12 C257.8625,23.12 257.2175,22.805 256.8125,22.25 L256.8125,25.85 L255.6125,25.85 L255.6125,15.5 L256.8125,15.5 L256.8125,16.25 Z M258.7325,22.04 C260.0075,22.04 260.6525,21.005 260.6525,19.73 L260.6525,18.74 C260.6525,17.315 259.9625,16.46 258.7325,16.46 C257.5325,16.46 256.8125,17.285 256.8125,18.635 L256.8125,19.73 C256.8125,21.02 257.3525,22.04 258.7325,22.04 Z M265.6925,16.58 L265.6925,15.5 L266.6525,15.5 L266.6525,13.85 L267.8525,13.85 L267.8525,15.5 L269.5775,15.5 L269.5775,16.58 L267.8525,16.58 L267.8525,20.39 C267.8525,21.425 267.9725,21.86 268.9775,21.86 L269.5775,21.86 L269.5775,23 L268.9325,23 C267.1625,23 266.6525,22.25 266.6525,20.69 L266.6525,16.58 L265.6925,16.58 Z M276.53,18.74 L276.53,19.73 C276.53,21.68 275.57,23.12 273.41,23.12 C271.415,23.12 270.29,21.8 270.29,19.73 L270.29,18.74 C270.29,16.61 271.445,15.38 273.41,15.38 C275.39,15.38 276.53,16.595 276.53,18.74 Z M273.41,22.04 C274.685,22.04 275.33,21.005 275.33,19.73 L275.33,18.74 C275.33,17.315 274.64,16.46 273.41,16.46 C272.18,16.46 271.49,17.33 271.49,18.74 L271.49,19.73 C271.49,21.02 272.03,22.04 273.41,22.04 Z M284,12.65 L285.275,12.65 L281.855,20.15 L284.84,20.15 L284.84,17.105 L286.13,17.105 L286.13,20.15 L287.075,20.15 L287.075,21.32 L286.13,21.32 L286.13,23 L284.84,23 L284.84,21.32 L280.355,21.32 L280.355,20.375 L284,12.65 Z M290.8625,17.27 C290.1575,17.27 289.6775,17.63 289.3925,18.035 L288.2075,18.035 L288.2075,12.65 L293.4575,12.65 L293.4575,13.94 L289.4525,13.94 L289.4525,16.655 C289.7825,16.28 290.3075,15.98 291.1025,15.98 C293.0225,15.98 293.8925,17.45 293.8925,19.775 C293.8925,21.815 292.8425,23.12 290.8625,23.12 C289.2575,23.12 288.0725,21.995 287.9675,20.57 L289.2275,20.57 C289.4225,21.44 290.0225,21.95 290.8625,21.95 C291.9275,21.95 292.6025,21.335 292.6025,19.775 C292.6025,18.155 292.0925,17.27 290.8625,17.27 Z M301.895,12.65 L303.14,12.65 L297.365,23 L296.105,23 L301.895,12.65 Z M304.805,20.12 L304.805,20.765 C304.805,22.115 304.16,23.12 302.63,23.12 C301.265,23.12 300.485,22.22 300.485,20.765 L300.485,20.12 C300.485,18.665 301.295,17.795 302.63,17.795 C304.01,17.795 304.805,18.65 304.805,20.12 Z M302.63,22.22 C303.485,22.22 303.86,21.575 303.86,20.75 L303.86,20.15 C303.86,19.22 303.44,18.71 302.63,18.71 C301.865,18.71 301.445,19.235 301.445,20.15 L301.445,20.75 C301.445,21.59 301.745,22.22 302.63,22.22 Z M298.925,14.855 L298.925,15.5 C298.925,16.85 298.28,17.855 296.75,17.855 C295.385,17.855 294.605,16.955 294.605,15.5 L294.605,14.855 C294.605,13.4 295.415,12.53 296.75,12.53 C298.13,12.53 298.925,13.385 298.925,14.855 Z M296.75,16.955 C297.605,16.955 297.98,16.31 297.98,15.485 L297.98,14.885 C297.98,13.955 297.56,13.445 296.75,13.445 C295.985,13.445 295.565,13.97 295.565,14.885 L295.565,15.485 C295.565,16.325 295.865,16.955 296.75,16.955 Z" id="Up-to-45%" fill="#708CA1"></path>
                <path d="M186.485,96.65 L187.775,96.65 L187.775,102.785 C187.775,105.845 186.32,107.12 184.025,107.12 C181.73,107.12 180.275,105.845 180.275,102.8 L180.275,96.65 L181.565,96.65 L181.565,102.8 C181.565,105.065 182.435,105.95 184.025,105.95 C185.615,105.95 186.485,105.065 186.485,102.8 L186.485,96.65 Z M190.8125,100.25 C191.2175,99.695 191.8625,99.38 192.8525,99.38 C194.7125,99.38 195.8525,100.595 195.8525,102.74 L195.8525,103.73 C195.8525,105.68 194.8925,107.12 192.8525,107.12 C191.8625,107.12 191.2175,106.805 190.8125,106.25 L190.8125,109.85 L189.6125,109.85 L189.6125,99.5 L190.8125,99.5 L190.8125,100.25 Z M192.7325,106.04 C194.0075,106.04 194.6525,105.005 194.6525,103.73 L194.6525,102.74 C194.6525,101.315 193.9625,100.46 192.7325,100.46 C191.5325,100.46 190.8125,101.285 190.8125,102.635 L190.8125,103.73 C190.8125,105.02 191.3525,106.04 192.7325,106.04 Z M199.6925,100.58 L199.6925,99.5 L200.6525,99.5 L200.6525,97.85 L201.8525,97.85 L201.8525,99.5 L203.5775,99.5 L203.5775,100.58 L201.8525,100.58 L201.8525,104.39 C201.8525,105.425 201.9725,105.86 202.9775,105.86 L203.5775,105.86 L203.5775,107 L202.9325,107 C201.1625,107 200.6525,106.25 200.6525,104.69 L200.6525,100.58 L199.6925,100.58 Z M210.53,102.74 L210.53,103.73 C210.53,105.68 209.57,107.12 207.41,107.12 C205.415,107.12 204.29,105.8 204.29,103.73 L204.29,102.74 C204.29,100.61 205.445,99.38 207.41,99.38 C209.39,99.38 210.53,100.595 210.53,102.74 Z M207.41,106.04 C208.685,106.04 209.33,105.005 209.33,103.73 L209.33,102.74 C209.33,101.315 208.64,100.46 207.41,100.46 C206.18,100.46 205.49,101.33 205.49,102.74 L205.49,103.73 C205.49,105.02 206.03,106.04 207.41,106.04 Z M220.7,105.83 L220.7,107 L214.625,107 L214.625,105.92 L218.27,101.615 C218.975,100.79 219.44,100.085 219.44,99.305 C219.44,98.225 218.615,97.685 217.76,97.685 C216.83,97.685 216.095,98.24 216.065,99.305 L214.79,99.305 C214.79,97.595 216.14,96.53 217.76,96.53 C219.41,96.53 220.73,97.595 220.73,99.365 C220.73,100.595 219.83,101.585 219.17,102.38 L216.32,105.83 L220.7,105.83 Z M227.8625,99.515 L227.8625,104.135 C227.8625,106.04 226.4525,107.12 224.8925,107.12 C223.3325,107.12 221.9225,106.04 221.9225,104.12 L221.9225,99.53 C221.9225,97.61 223.3325,96.53 224.8925,96.53 C226.4525,96.53 227.8625,97.61 227.8625,99.515 Z M226.5725,99.515 C226.5725,98.405 225.8225,97.7 224.8925,97.7 C223.9475,97.7 223.1975,98.405 223.1975,99.515 L223.1975,104.135 C223.1975,105.245 223.9475,105.95 224.8925,105.95 C225.8225,105.95 226.5725,105.245 226.5725,104.135 L226.5725,99.515 Z M235.895,96.65 L237.14,96.65 L231.365,107 L230.105,107 L235.895,96.65 Z M238.805,104.12 L238.805,104.765 C238.805,106.115 238.16,107.12 236.63,107.12 C235.265,107.12 234.485,106.22 234.485,104.765 L234.485,104.12 C234.485,102.665 235.295,101.795 236.63,101.795 C238.01,101.795 238.805,102.65 238.805,104.12 Z M236.63,106.22 C237.485,106.22 237.86,105.575 237.86,104.75 L237.86,104.15 C237.86,103.22 237.44,102.71 236.63,102.71 C235.865,102.71 235.445,103.235 235.445,104.15 L235.445,104.75 C235.445,105.59 235.745,106.22 236.63,106.22 Z M232.925,98.855 L232.925,99.5 C232.925,100.85 232.28,101.855 230.75,101.855 C229.385,101.855 228.605,100.955 228.605,99.5 L228.605,98.855 C228.605,97.4 229.415,96.53 230.75,96.53 C232.13,96.53 232.925,97.385 232.925,98.855 Z M230.75,100.955 C231.605,100.955 231.98,100.31 231.98,99.485 L231.98,98.885 C231.98,97.955 231.56,97.445 230.75,97.445 C229.985,97.445 229.565,97.97 229.565,98.885 L229.565,99.485 C229.565,100.325 229.865,100.955 230.75,100.955 Z" id="Up-to-20%" fill="#708CA1"></path>
                <path d="M117.485,113.65 L118.775,113.65 L118.775,119.785 C118.775,122.845 117.32,124.12 115.025,124.12 C112.73,124.12 111.275,122.845 111.275,119.8 L111.275,113.65 L112.565,113.65 L112.565,119.8 C112.565,122.065 113.435,122.95 115.025,122.95 C116.615,122.95 117.485,122.065 117.485,119.8 L117.485,113.65 Z M121.8125,117.25 C122.2175,116.695 122.8625,116.38 123.8525,116.38 C125.7125,116.38 126.8525,117.595 126.8525,119.74 L126.8525,120.73 C126.8525,122.68 125.8925,124.12 123.8525,124.12 C122.8625,124.12 122.2175,123.805 121.8125,123.25 L121.8125,126.85 L120.6125,126.85 L120.6125,116.5 L121.8125,116.5 L121.8125,117.25 Z M123.7325,123.04 C125.0075,123.04 125.6525,122.005 125.6525,120.73 L125.6525,119.74 C125.6525,118.315 124.9625,117.46 123.7325,117.46 C122.5325,117.46 121.8125,118.285 121.8125,119.635 L121.8125,120.73 C121.8125,122.02 122.3525,123.04 123.7325,123.04 Z M130.6925,117.58 L130.6925,116.5 L131.6525,116.5 L131.6525,114.85 L132.8525,114.85 L132.8525,116.5 L134.5775,116.5 L134.5775,117.58 L132.8525,117.58 L132.8525,121.39 C132.8525,122.425 132.9725,122.86 133.9775,122.86 L134.5775,122.86 L134.5775,124 L133.9325,124 C132.1625,124 131.6525,123.25 131.6525,121.69 L131.6525,117.58 L130.6925,117.58 Z M141.53,119.74 L141.53,120.73 C141.53,122.68 140.57,124.12 138.41,124.12 C136.415,124.12 135.29,122.8 135.29,120.73 L135.29,119.74 C135.29,117.61 136.445,116.38 138.41,116.38 C140.39,116.38 141.53,117.595 141.53,119.74 Z M138.41,123.04 C139.685,123.04 140.33,122.005 140.33,120.73 L140.33,119.74 C140.33,118.315 139.64,117.46 138.41,117.46 C137.18,117.46 136.49,118.33 136.49,119.74 L136.49,120.73 C136.49,122.02 137.03,123.04 138.41,123.04 Z M149.69,113.65 L149.69,124 L148.4,124 L148.4,115.135 L146.915,116.2 L146.915,114.79 L148.4,113.65 L149.69,113.65 Z M155.8625,118.27 C155.1575,118.27 154.6775,118.63 154.3925,119.035 L153.2075,119.035 L153.2075,113.65 L158.4575,113.65 L158.4575,114.94 L154.4525,114.94 L154.4525,117.655 C154.7825,117.28 155.3075,116.98 156.1025,116.98 C158.0225,116.98 158.8925,118.45 158.8925,120.775 C158.8925,122.815 157.8425,124.12 155.8625,124.12 C154.2575,124.12 153.0725,122.995 152.9675,121.57 L154.2275,121.57 C154.4225,122.44 155.0225,122.95 155.8625,122.95 C156.9275,122.95 157.6025,122.335 157.6025,120.775 C157.6025,119.155 157.0925,118.27 155.8625,118.27 Z M166.895,113.65 L168.14,113.65 L162.365,124 L161.105,124 L166.895,113.65 Z M169.805,121.12 L169.805,121.765 C169.805,123.115 169.16,124.12 167.63,124.12 C166.265,124.12 165.485,123.22 165.485,121.765 L165.485,121.12 C165.485,119.665 166.295,118.795 167.63,118.795 C169.01,118.795 169.805,119.65 169.805,121.12 Z M167.63,123.22 C168.485,123.22 168.86,122.575 168.86,121.75 L168.86,121.15 C168.86,120.22 168.44,119.71 167.63,119.71 C166.865,119.71 166.445,120.235 166.445,121.15 L166.445,121.75 C166.445,122.59 166.745,123.22 167.63,123.22 Z M163.925,115.855 L163.925,116.5 C163.925,117.85 163.28,118.855 161.75,118.855 C160.385,118.855 159.605,117.955 159.605,116.5 L159.605,115.855 C159.605,114.4 160.415,113.53 161.75,113.53 C163.13,113.53 163.925,114.385 163.925,115.855 Z M161.75,117.955 C162.605,117.955 162.98,117.31 162.98,116.485 L162.98,115.885 C162.98,114.955 162.56,114.445 161.75,114.445 C160.985,114.445 160.565,114.97 160.565,115.885 L160.565,116.485 C160.565,117.325 160.865,117.955 161.75,117.955 Z" id="Up-to-15%" fill="#708CA1"></path>
                <path d="M53.485,142.65 L54.775,142.65 L54.775,148.785 C54.775,151.845 53.32,153.12 51.025,153.12 C48.73,153.12 47.275,151.845 47.275,148.8 L47.275,142.65 L48.565,142.65 L48.565,148.8 C48.565,151.065 49.435,151.95 51.025,151.95 C52.615,151.95 53.485,151.065 53.485,148.8 L53.485,142.65 Z M57.8125,146.25 C58.2175,145.695 58.8625,145.38 59.8525,145.38 C61.7125,145.38 62.8525,146.595 62.8525,148.74 L62.8525,149.73 C62.8525,151.68 61.8925,153.12 59.8525,153.12 C58.8625,153.12 58.2175,152.805 57.8125,152.25 L57.8125,155.85 L56.6125,155.85 L56.6125,145.5 L57.8125,145.5 L57.8125,146.25 Z M59.7325,152.04 C61.0075,152.04 61.6525,151.005 61.6525,149.73 L61.6525,148.74 C61.6525,147.315 60.9625,146.46 59.7325,146.46 C58.5325,146.46 57.8125,147.285 57.8125,148.635 L57.8125,149.73 C57.8125,151.02 58.3525,152.04 59.7325,152.04 Z M66.6925,146.58 L66.6925,145.5 L67.6525,145.5 L67.6525,143.85 L68.8525,143.85 L68.8525,145.5 L70.5775,145.5 L70.5775,146.58 L68.8525,146.58 L68.8525,150.39 C68.8525,151.425 68.9725,151.86 69.9775,151.86 L70.5775,151.86 L70.5775,153 L69.9325,153 C68.1625,153 67.6525,152.25 67.6525,150.69 L67.6525,146.58 L66.6925,146.58 Z M77.53,148.74 L77.53,149.73 C77.53,151.68 76.57,153.12 74.41,153.12 C72.415,153.12 71.29,151.8 71.29,149.73 L71.29,148.74 C71.29,146.61 72.445,145.38 74.41,145.38 C76.39,145.38 77.53,146.595 77.53,148.74 Z M74.41,152.04 C75.685,152.04 76.33,151.005 76.33,149.73 L76.33,148.74 C76.33,147.315 75.64,146.46 74.41,146.46 C73.18,146.46 72.49,147.33 72.49,148.74 L72.49,149.73 C72.49,151.02 73.03,152.04 74.41,152.04 Z M81.685,150.09 C81.685,148.92 82.45,147.975 83.26,147.63 C82.435,147.225 81.835,146.355 81.835,145.38 C81.835,143.655 83.245,142.53 84.805,142.53 C86.365,142.53 87.775,143.655 87.775,145.38 C87.775,146.355 87.16,147.225 86.335,147.63 C87.175,147.975 87.925,148.92 87.925,150.09 C87.925,151.92 86.425,153.12 84.805,153.12 C83.185,153.12 81.685,151.92 81.685,150.09 Z M82.975,150.09 C82.975,151.11 83.755,151.95 84.805,151.95 C85.825,151.95 86.635,151.11 86.635,150.09 C86.635,148.95 85.675,148.245 84.805,148.245 C83.905,148.245 82.975,148.95 82.975,150.09 Z M83.11,145.38 C83.11,146.325 83.86,147.09 84.805,147.09 C85.735,147.09 86.485,146.325 86.485,145.38 C86.485,144.45 85.735,143.7 84.805,143.7 C83.86,143.7 83.11,144.45 83.11,145.38 Z M95.8075,142.65 L97.0525,142.65 L91.2775,153 L90.0175,153 L95.8075,142.65 Z M98.7175,150.12 L98.7175,150.765 C98.7175,152.115 98.0725,153.12 96.5425,153.12 C95.1775,153.12 94.3975,152.22 94.3975,150.765 L94.3975,150.12 C94.3975,148.665 95.2075,147.795 96.5425,147.795 C97.9225,147.795 98.7175,148.65 98.7175,150.12 Z M96.5425,152.22 C97.3975,152.22 97.7725,151.575 97.7725,150.75 L97.7725,150.15 C97.7725,149.22 97.3525,148.71 96.5425,148.71 C95.7775,148.71 95.3575,149.235 95.3575,150.15 L95.3575,150.75 C95.3575,151.59 95.6575,152.22 96.5425,152.22 Z M92.8375,144.855 L92.8375,145.5 C92.8375,146.85 92.1925,147.855 90.6625,147.855 C89.2975,147.855 88.5175,146.955 88.5175,145.5 L88.5175,144.855 C88.5175,143.4 89.3275,142.53 90.6625,142.53 C92.0425,142.53 92.8375,143.385 92.8375,144.855 Z M90.6625,146.955 C91.5175,146.955 91.8925,146.31 91.8925,145.485 L91.8925,144.885 C91.8925,143.955 91.4725,143.445 90.6625,143.445 C89.8975,143.445 89.4775,143.97 89.4775,144.885 L89.4775,145.485 C89.4775,146.325 89.7775,146.955 90.6625,146.955 Z" id="Up-to-8%" fill="#708CA1"></path>
            </g>
        </g>
    </g>
</svg>