<?xml version="1.0" encoding="UTF-8"?>
<svg width="430px" height="276px" viewBox="0 0 430 276" version="1.1" xmlns="http://www.w3.org/2000/svg" xmlns:xlink="http://www.w3.org/1999/xlink">
    <!-- Generator: Sketch 48.2 (47327) - http://www.bohemiancoding.com/sketch -->
    <title>Group 40</title>
    <desc>Created with Sketch.</desc>
    <defs>
        <linearGradient x1="35.6606276%" y1="55.580068%" x2="113.40917%" y2="55.580068%" id="linearGradient-1">
            <stop stop-color="#1490E0" offset="0%"></stop>
            <stop stop-color="#20F0FF" offset="100%"></stop>
        </linearGradient>
    </defs>
    <g id="alternate-3" stroke="none" stroke-width="1" fill="none" fill-rule="evenodd" transform="translate(-763.000000, -2555.000000)">
        <g id="Group-40" transform="translate(756.000000, 2551.000000)">
            <g id="Bar-Chart-2" transform="translate(0.000000, 9.000000)">
                <g id="chart-#s-and-lines">
                    <path d="M10.4983058,33.0129091 C9.79330579,33.0129091 9.31330579,33.3729091 9.02830579,33.7779091 L7.84330579,33.7779091 L7.84330579,28.3929091 L13.0933058,28.3929091 L13.0933058,29.6829091 L9.08830579,29.6829091 L9.08830579,32.3979091 C9.41830579,32.0229091 9.94330579,31.7229091 10.7383058,31.7229091 C12.6583058,31.7229091 13.5283058,33.1929091 13.5283058,35.5179091 C13.5283058,37.5579091 12.4783058,38.8629091 10.4983058,38.8629091 C8.89330579,38.8629091 7.70830579,37.7379091 7.60330579,36.3129091 L8.86330579,36.3129091 C9.05830579,37.1829091 9.65830579,37.6929091 10.4983058,37.6929091 C11.5633058,37.6929091 12.2383058,37.0779091 12.2383058,35.5179091 C12.2383058,33.8979091 11.7283058,33.0129091 10.4983058,33.0129091 Z M20.6683058,31.2579091 L20.6683058,35.8779091 C20.6683058,37.7829091 19.2583058,38.8629091 17.6983058,38.8629091 C16.1383058,38.8629091 14.7283058,37.7829091 14.7283058,35.8629091 L14.7283058,31.2729091 C14.7283058,29.3529091 16.1383058,28.2729091 17.6983058,28.2729091 C19.2583058,28.2729091 20.6683058,29.3529091 20.6683058,31.2579091 Z M19.3783058,31.2579091 C19.3783058,30.1479091 18.6283058,29.4429091 17.6983058,29.4429091 C16.7533058,29.4429091 16.0033058,30.1479091 16.0033058,31.2579091 L16.0033058,35.8779091 C16.0033058,36.9879091 16.7533058,37.6929091 17.6983058,37.6929091 C18.6283058,37.6929091 19.3783058,36.9879091 19.3783058,35.8779091 L19.3783058,31.2579091 Z M10.7233058,62.3929091 L11.9983058,62.3929091 L8.57830579,69.8929091 L11.5633058,69.8929091 L11.5633058,66.8479091 L12.8533058,66.8479091 L12.8533058,69.8929091 L13.7983058,69.8929091 L13.7983058,71.0629091 L12.8533058,71.0629091 L12.8533058,72.7429091 L11.5633058,72.7429091 L11.5633058,71.0629091 L7.07830579,71.0629091 L7.07830579,70.1179091 L10.7233058,62.3929091 Z M20.6683058,65.2579091 L20.6683058,69.8779091 C20.6683058,71.7829091 19.2583058,72.8629091 17.6983058,72.8629091 C16.1383058,72.8629091 14.7283058,71.7829091 14.7283058,69.8629091 L14.7283058,65.2729091 C14.7283058,63.3529091 16.1383058,62.2729091 17.6983058,62.2729091 C19.2583058,62.2729091 20.6683058,63.3529091 20.6683058,65.2579091 Z M19.3783058,65.2579091 C19.3783058,64.1479091 18.6283058,63.4429091 17.6983058,63.4429091 C16.7533058,63.4429091 16.0033058,64.1479091 16.0033058,65.2579091 L16.0033058,69.8779091 C16.0033058,70.9879091 16.7533058,71.6929091 17.6983058,71.6929091 C18.6283058,71.6929091 19.3783058,70.9879091 19.3783058,69.8779091 L19.3783058,65.2579091 Z M9.56830579,101.987909 L9.56830579,100.817909 L10.2133058,100.817909 C11.5783058,100.817909 12.1633058,100.112909 12.1633058,98.9879091 C12.1633058,98.1779091 11.5033058,97.4279091 10.4833058,97.4279091 C9.50830579,97.4279091 8.81830579,98.0729091 8.78830579,98.9129091 L7.52830579,98.9129091 C7.52830579,97.2779091 8.93830579,96.2729091 10.4833058,96.2729091 C12.2083058,96.2729091 13.4533058,97.4279091 13.4533058,99.0179091 C13.4533058,100.082909 12.8533058,100.922909 11.9083058,101.372909 C12.9133058,101.777909 13.6033058,102.602909 13.6033058,103.922909 C13.6033058,105.512909 12.4183058,106.862909 10.5883058,106.862909 C8.60830579,106.862909 7.49830579,105.707909 7.39330579,104.147909 L8.65330579,104.147909 C8.78830579,104.987909 9.35830579,105.692909 10.5883058,105.692909 C11.5633058,105.692909 12.3133058,104.942909 12.3133058,103.952909 C12.3133058,102.722909 11.5933058,101.987909 10.2133058,101.987909 L9.56830579,101.987909 Z M20.6683058,99.2579091 L20.6683058,103.877909 C20.6683058,105.782909 19.2583058,106.862909 17.6983058,106.862909 C16.1383058,106.862909 14.7283058,105.782909 14.7283058,103.862909 L14.7283058,99.2729091 C14.7283058,97.3529091 16.1383058,96.2729091 17.6983058,96.2729091 C19.2583058,96.2729091 20.6683058,97.3529091 20.6683058,99.2579091 Z M19.3783058,99.2579091 C19.3783058,98.1479091 18.6283058,97.4429091 17.6983058,97.4429091 C16.7533058,97.4429091 16.0033058,98.1479091 16.0033058,99.2579091 L16.0033058,103.877909 C16.0033058,104.987909 16.7533058,105.692909 17.6983058,105.692909 C18.6283058,105.692909 19.3783058,104.987909 19.3783058,103.877909 L19.3783058,99.2579091 Z M13.4233058,139.572909 L13.4233058,140.742909 L7.34830579,140.742909 L7.34830579,139.662909 L10.9933058,135.357909 C11.6983058,134.532909 12.1633058,133.827909 12.1633058,133.047909 C12.1633058,131.967909 11.3383058,131.427909 10.4833058,131.427909 C9.55330579,131.427909 8.81830579,131.982909 8.78830579,133.047909 L7.51330579,133.047909 C7.51330579,131.337909 8.86330579,130.272909 10.4833058,130.272909 C12.1333058,130.272909 13.4533058,131.337909 13.4533058,133.107909 C13.4533058,134.337909 12.5533058,135.327909 11.8933058,136.122909 L9.04330579,139.572909 L13.4233058,139.572909 Z M20.6683058,133.257909 L20.6683058,137.877909 C20.6683058,139.782909 19.2583058,140.862909 17.6983058,140.862909 C16.1383058,140.862909 14.7283058,139.782909 14.7283058,137.862909 L14.7283058,133.272909 C14.7283058,131.352909 16.1383058,130.272909 17.6983058,130.272909 C19.2583058,130.272909 20.6683058,131.352909 20.6683058,133.257909 Z M19.3783058,133.257909 C19.3783058,132.147909 18.6283058,131.442909 17.6983058,131.442909 C16.7533058,131.442909 16.0033058,132.147909 16.0033058,133.257909 L16.0033058,137.877909 C16.0033058,138.987909 16.7533058,139.692909 17.6983058,139.692909 C18.6283058,139.692909 19.3783058,138.987909 19.3783058,137.877909 L19.3783058,133.257909 Z M11.4133058,164.392909 L11.4133058,174.742909 L10.1233058,174.742909 L10.1233058,165.877909 L8.63830579,166.942909 L8.63830579,165.532909 L10.1233058,164.392909 L11.4133058,164.392909 Z M20.6683058,167.257909 L20.6683058,171.877909 C20.6683058,173.782909 19.2583058,174.862909 17.6983058,174.862909 C16.1383058,174.862909 14.7283058,173.782909 14.7283058,171.862909 L14.7283058,167.272909 C14.7283058,165.352909 16.1383058,164.272909 17.6983058,164.272909 C19.2583058,164.272909 20.6683058,165.352909 20.6683058,167.257909 Z M19.3783058,167.257909 C19.3783058,166.147909 18.6283058,165.442909 17.6983058,165.442909 C16.7533058,165.442909 16.0033058,166.147909 16.0033058,167.257909 L16.0033058,171.877909 C16.0033058,172.987909 16.7533058,173.692909 17.6983058,173.692909 C18.6283058,173.692909 19.3783058,172.987909 19.3783058,171.877909 L19.3783058,167.257909 Z M20.6683058,201.257909 L20.6683058,205.877909 C20.6683058,207.782909 19.2583058,208.862909 17.6983058,208.862909 C16.1383058,208.862909 14.7283058,207.782909 14.7283058,205.862909 L14.7283058,201.272909 C14.7283058,199.352909 16.1383058,198.272909 17.6983058,198.272909 C19.2583058,198.272909 20.6683058,199.352909 20.6683058,201.257909 Z M19.3783058,201.257909 C19.3783058,200.147909 18.6283058,199.442909 17.6983058,199.442909 C16.7533058,199.442909 16.0033058,200.147909 16.0033058,201.257909 L16.0033058,205.877909 C16.0033058,206.987909 16.7533058,207.692909 17.6983058,207.692909 C18.6283058,207.692909 19.3783058,206.987909 19.3783058,205.877909 L19.3783058,201.257909 Z" id="50-40-30-20-10-0" fill="#7792A6"></path>
                    <path d="M35.8577863,97.7610293 L437.226559,97.7610293" id="Line-Copy-4" stroke="#DEDEDE" stroke-linecap="square" stroke-dasharray="1,3"></path>
                    <path d="M35.9047968,1.76051372 L437.273569,1.76051372" id="Line-Copy-2" stroke="#DEDEDE" stroke-linecap="square" stroke-dasharray="1,3"></path>
                    <path d="M35.8577863,192.213149 L437.226559,192.213149" id="Line-Copy-5" stroke="#DEDEDE" stroke-linecap="square" stroke-dasharray="1,3"></path>
                    <path d="M35.8577863,144.212892 L437.226559,144.212892" id="Line-Copy-6" stroke="#DEDEDE" stroke-linecap="square" stroke-dasharray="1,3"></path>
                    <path d="M35.8577863,49.7607715 L437.226559,49.7607715" id="Line-Copy-3" stroke="#DEDEDE" stroke-linecap="square" stroke-dasharray="1,3"></path>
                    <path d="M35.8577863,240.213407 L437.226559,240.213407" id="Line-Copy-7" stroke="#DEDEDE" stroke-linecap="square" stroke-dasharray="1,3"></path>
                </g>
                <path d="M69.1713371,267.403971 L68.1793371,267.403971 L71.9553371,256.363971 L72.8193371,256.363971 L76.5953371,267.403971 L75.6193371,267.403971 L74.7073371,264.715971 L70.0673371,264.715971 L69.1713371,267.403971 Z M72.3873371,257.851971 L70.3553371,263.851971 L74.4193371,263.851971 L72.3873371,257.851971 Z M78.2802601,264.971971 L78.2802601,256.363971 L79.1602601,256.363971 L79.1602601,264.747971 C79.1602601,265.867971 79.2882601,266.603971 80.6802601,266.603971 L80.6802601,267.435971 C78.8402601,267.435971 78.2802601,266.635971 78.2802601,264.971971 Z M83.1651832,267.403971 L83.1651832,259.403971 L84.0451832,259.403971 L84.0451832,267.403971 L83.1651832,267.403971 Z M83.0691832,257.435971 L83.0691832,256.363971 L84.1411832,256.363971 L84.1411832,257.435971 L83.0691832,257.435971 Z M87.2021063,256.363971 L93.6981063,256.363971 L93.6981063,257.227971 L88.1301063,257.227971 L88.1301063,261.259971 L93.2181063,261.259971 L93.2181063,262.123971 L88.1301063,262.123971 L88.1301063,266.539971 L93.6981063,266.539971 L93.6981063,267.403971 L87.2021063,267.403971 L87.2021063,256.363971 Z M101.719029,267.403971 L100.663029,267.403971 L98.3430294,264.075971 L96.0070294,267.403971 L94.9670294,267.403971 L97.8310294,263.307971 L95.2070294,259.403971 L96.2470294,259.403971 L98.3430294,262.555971 L100.423029,259.403971 L101.479029,259.403971 L98.8550294,263.307971 L101.719029,267.403971 Z M109.851952,262.811971 L109.851952,263.963971 C109.851952,266.155971 108.811952,267.499971 106.731952,267.499971 C105.515952,267.499971 104.763952,267.163971 104.315952,266.459971 L104.315952,270.443971 L103.435952,270.443971 L103.435952,259.403971 L104.315952,259.403971 L104.315952,260.411971 C104.763952,259.691971 105.515952,259.307971 106.731952,259.307971 C108.715952,259.307971 109.851952,260.539971 109.851952,262.811971 Z M106.667952,266.683971 C108.203952,266.683971 108.971952,265.643971 108.971952,263.963971 L108.971952,262.811971 C108.971952,261.067971 108.187952,260.123971 106.667952,260.123971 C104.971952,260.123971 104.315952,261.147971 104.315952,262.715971 L104.315952,264.107971 C104.331952,265.611971 104.907952,266.683971 106.667952,266.683971 Z M114.864876,260.139971 C113.616876,260.139971 112.928876,261.131971 112.928876,262.587971 L112.928876,267.403971 L112.048876,267.403971 L112.048876,259.403971 L112.928876,259.403971 L112.928876,260.491971 C113.264876,259.755971 113.936876,259.307971 114.944876,259.307971 C115.984876,259.307971 116.672876,259.707971 117.200876,260.411971 L116.464876,260.955971 C116.048876,260.411971 115.568876,260.139971 114.864876,260.139971 Z M124.309799,263.627971 L119.013799,263.627971 L119.013799,263.963971 C119.013799,265.547971 119.749799,266.683971 121.445799,266.683971 C122.421799,266.683971 123.077799,266.395971 123.525799,265.707971 L124.229799,266.203971 C123.669799,267.083971 122.789799,267.499971 121.493799,267.499971 C119.365799,267.499971 118.133799,266.187971 118.133799,263.963971 L118.133799,262.811971 C118.133799,260.539971 119.221799,259.307971 121.221799,259.307971 C123.221799,259.307971 124.309799,260.539971 124.309799,262.811971 L124.309799,263.627971 Z M119.013799,262.811971 L119.013799,262.827971 L123.429799,262.827971 L123.429799,262.811971 C123.429799,261.067971 122.677799,260.123971 121.221799,260.123971 C119.765799,260.123971 119.013799,261.083971 119.013799,262.811971 Z M131.882722,260.635971 L131.210722,261.115971 C130.714722,260.411971 130.202722,260.139971 129.034722,260.139971 C127.962722,260.139971 127.146722,260.539971 127.146722,261.451971 C127.146722,262.571971 128.154722,262.795971 129.274722,262.939971 C130.826722,263.147971 132.122722,263.595971 132.122722,265.291971 C132.122722,266.539971 131.322722,267.499971 129.194722,267.499971 C127.610722,267.499971 126.778722,267.003971 126.186722,266.171971 L126.874722,265.691971 C127.354722,266.363971 127.962722,266.667971 129.210722,266.667971 C130.458722,266.667971 131.242722,266.267971 131.242722,265.307971 C131.242722,264.283971 130.442722,263.931971 128.858722,263.723971 C127.498722,263.547971 126.266722,263.083971 126.266722,261.467971 C126.266722,260.171971 127.242722,259.307971 129.050722,259.307971 C130.314722,259.307971 131.274722,259.643971 131.882722,260.635971 Z M139.535645,260.635971 L138.863645,261.115971 C138.367645,260.411971 137.855645,260.139971 136.687645,260.139971 C135.615645,260.139971 134.799645,260.539971 134.799645,261.451971 C134.799645,262.571971 135.807645,262.795971 136.927645,262.939971 C138.479645,263.147971 139.775645,263.595971 139.775645,265.291971 C139.775645,266.539971 138.975645,267.499971 136.847645,267.499971 C135.263645,267.499971 134.431645,267.003971 133.839645,266.171971 L134.527645,265.691971 C135.007645,266.363971 135.615645,266.667971 136.863645,266.667971 C138.111645,266.667971 138.895645,266.267971 138.895645,265.307971 C138.895645,264.283971 138.095645,263.931971 136.511645,263.723971 C135.151645,263.547971 133.919645,263.083971 133.919645,261.467971 C133.919645,260.171971 134.895645,259.307971 136.703645,259.307971 C137.967645,259.307971 138.927645,259.643971 139.535645,260.635971 Z M191.365799,263.627971 L186.069799,263.627971 L186.069799,263.963971 C186.069799,265.547971 186.805799,266.683971 188.501799,266.683971 C189.477799,266.683971 190.133799,266.395971 190.581799,265.707971 L191.285799,266.203971 C190.725799,267.083971 189.845799,267.499971 188.549799,267.499971 C186.421799,267.499971 185.189799,266.187971 185.189799,263.963971 L185.189799,262.811971 C185.189799,260.539971 186.277799,259.307971 188.277799,259.307971 C190.277799,259.307971 191.365799,260.539971 191.365799,262.811971 L191.365799,263.627971 Z M186.069799,262.811971 L186.069799,262.827971 L190.485799,262.827971 L190.485799,262.811971 C190.485799,261.067971 189.733799,260.123971 188.277799,260.123971 C186.821799,260.123971 186.069799,261.083971 186.069799,262.811971 Z M194.010722,256.363971 L197.274722,256.363971 C199.802722,256.363971 201.034722,257.339971 201.034722,259.163971 C201.034722,260.395971 200.202722,261.387971 199.130722,261.643971 C200.522722,261.947971 201.386722,262.875971 201.386722,264.331971 C201.386722,265.835971 200.410722,267.403971 197.658722,267.403971 L194.010722,267.403971 L194.010722,256.363971 Z M194.938722,262.107971 L194.938722,266.539971 L197.658722,266.539971 C199.562722,266.539971 200.458722,265.627971 200.458722,264.331971 C200.458722,262.843971 199.450722,262.107971 197.354722,262.107971 L194.938722,262.107971 Z M194.938722,257.227971 L194.938722,261.243971 L197.562722,261.243971 C199.354722,261.243971 200.106722,260.299971 200.106722,259.163971 C200.106722,258.043971 199.530722,257.227971 197.274722,257.227971 L194.938722,257.227971 Z M203.183645,265.115971 C203.183645,263.579971 204.255645,262.859971 205.903645,262.859971 L208.239645,262.859971 L208.239645,261.867971 C208.239645,260.507971 207.695645,260.139971 206.223645,260.139971 C205.263645,260.139971 204.639645,260.203971 204.127645,261.051971 L203.455645,260.587971 C204.015645,259.643971 204.815645,259.307971 206.239645,259.307971 C208.191645,259.307971 209.119645,259.915971 209.119645,261.867971 L209.119645,267.403971 L208.239645,267.403971 L208.239645,266.411971 C207.791645,267.259971 206.991645,267.499971 205.967645,267.499971 C204.191645,267.499971 203.183645,266.651971 203.183645,265.115971 Z M208.239645,264.427971 L208.239645,263.643971 L205.903645,263.643971 C204.527645,263.643971 204.063645,264.283971 204.063645,265.131971 C204.063645,266.251971 204.847645,266.667971 205.967645,266.667971 C207.263645,266.667971 208.239645,266.219971 208.239645,264.427971 Z M211.684568,270.443971 L211.684568,269.579971 C212.932568,269.579971 213.332568,269.163971 213.876568,267.627971 L213.908568,267.531971 L210.628568,259.403971 L211.588568,259.403971 L214.356568,266.251971 L216.724568,259.403971 L217.652568,259.403971 L214.756568,267.723971 C214.100568,269.643971 213.588568,270.443971 211.684568,270.443971 Z M270.660568,256.363971 L271.620568,256.363971 L273.844568,265.675971 L276.564568,256.363971 L277.508568,256.363971 L280.292568,265.531971 L282.484568,256.363971 L283.444568,256.363971 L280.740568,267.403971 L279.748568,267.403971 L277.044568,258.027971 L274.340568,267.403971 L273.364568,267.403971 L270.660568,256.363971 Z M284.409491,265.115971 C284.409491,263.579971 285.481491,262.859971 287.129491,262.859971 L289.465491,262.859971 L289.465491,261.867971 C289.465491,260.507971 288.921491,260.139971 287.449491,260.139971 C286.489491,260.139971 285.865491,260.203971 285.353491,261.051971 L284.681491,260.587971 C285.241491,259.643971 286.041491,259.307971 287.465491,259.307971 C289.417491,259.307971 290.345491,259.915971 290.345491,261.867971 L290.345491,267.403971 L289.465491,267.403971 L289.465491,266.411971 C289.017491,267.259971 288.217491,267.499971 287.193491,267.499971 C285.417491,267.499971 284.409491,266.651971 284.409491,265.115971 Z M289.465491,264.427971 L289.465491,263.643971 L287.129491,263.643971 C285.753491,263.643971 285.289491,264.283971 285.289491,265.131971 C285.289491,266.251971 286.073491,266.667971 287.193491,266.667971 C288.489491,266.667971 289.465491,266.219971 289.465491,264.427971 Z M292.942414,264.971971 L292.942414,256.363971 L293.822414,256.363971 L293.822414,264.747971 C293.822414,265.867971 293.950414,266.603971 295.342414,266.603971 L295.342414,267.435971 C293.502414,267.435971 292.942414,266.635971 292.942414,264.971971 Z M297.587337,267.403971 L297.587337,259.403971 L298.467337,259.403971 L298.467337,260.491971 C298.803337,259.755971 299.523337,259.307971 300.579337,259.307971 C301.715337,259.307971 302.547337,259.851971 302.963337,260.875971 C303.411337,259.867971 304.291337,259.307971 305.395337,259.307971 C307.075337,259.307971 308.099337,260.491971 308.099337,262.667971 L308.099337,267.403971 L307.219337,267.403971 L307.219337,262.683971 C307.219337,260.939971 306.451337,260.139971 305.299337,260.139971 C304.019337,260.139971 303.283337,261.083971 303.283337,262.491971 L303.283337,267.403971 L302.403337,267.403971 L302.403337,262.683971 C302.403337,260.939971 301.635337,260.139971 300.483337,260.139971 C299.171337,260.139971 298.467337,261.131971 298.467337,262.603971 L298.467337,267.403971 L297.587337,267.403971 Z M310.29626,265.115971 C310.29626,263.579971 311.36826,262.859971 313.01626,262.859971 L315.35226,262.859971 L315.35226,261.867971 C315.35226,260.507971 314.80826,260.139971 313.33626,260.139971 C312.37626,260.139971 311.75226,260.203971 311.24026,261.051971 L310.56826,260.587971 C311.12826,259.643971 311.92826,259.307971 313.35226,259.307971 C315.30426,259.307971 316.23226,259.915971 316.23226,261.867971 L316.23226,267.403971 L315.35226,267.403971 L315.35226,266.411971 C314.90426,267.259971 314.10426,267.499971 313.08026,267.499971 C311.30426,267.499971 310.29626,266.651971 310.29626,265.115971 Z M315.35226,264.427971 L315.35226,263.643971 L313.01626,263.643971 C311.64026,263.643971 311.17626,264.283971 311.17626,265.131971 C311.17626,266.251971 311.96026,266.667971 313.08026,266.667971 C314.37626,266.667971 315.35226,266.219971 315.35226,264.427971 Z M321.645183,260.139971 C320.397183,260.139971 319.709183,261.131971 319.709183,262.587971 L319.709183,267.403971 L318.829183,267.403971 L318.829183,259.403971 L319.709183,259.403971 L319.709183,260.491971 C320.045183,259.755971 320.717183,259.307971 321.725183,259.307971 C322.765183,259.307971 323.453183,259.707971 323.981183,260.411971 L323.245183,260.955971 C322.829183,260.411971 322.349183,260.139971 321.645183,260.139971 Z M324.674106,260.219971 L324.674106,259.403971 L325.698106,259.403971 L325.698106,257.643971 L326.578106,257.643971 L326.578106,259.403971 L328.546106,259.403971 L328.546106,260.219971 L326.578106,260.219971 L326.578106,264.699971 C326.578106,265.979971 326.722106,266.555971 328.018106,266.555971 L328.546106,266.555971 L328.546106,267.403971 L327.986106,267.403971 C326.210106,267.403971 325.698106,266.603971 325.698106,264.939971 L325.698106,260.219971 L324.674106,260.219971 Z M365.582414,267.403971 L364.590414,267.403971 L368.366414,256.363971 L369.230414,256.363971 L373.006414,267.403971 L372.030414,267.403971 L371.118414,264.715971 L366.478414,264.715971 L365.582414,267.403971 Z M368.798414,257.851971 L366.766414,263.851971 L370.830414,263.851971 L368.798414,257.851971 Z M374.691337,267.403971 L374.691337,259.403971 L375.571337,259.403971 L375.571337,260.491971 C375.907337,259.755971 376.627337,259.307971 377.683337,259.307971 C378.819337,259.307971 379.651337,259.851971 380.067337,260.875971 C380.515337,259.867971 381.395337,259.307971 382.499337,259.307971 C384.179337,259.307971 385.203337,260.491971 385.203337,262.667971 L385.203337,267.403971 L384.323337,267.403971 L384.323337,262.683971 C384.323337,260.939971 383.555337,260.139971 382.403337,260.139971 C381.123337,260.139971 380.387337,261.083971 380.387337,262.491971 L380.387337,267.403971 L379.507337,267.403971 L379.507337,262.683971 C379.507337,260.939971 378.739337,260.139971 377.587337,260.139971 C376.275337,260.139971 375.571337,261.131971 375.571337,262.603971 L375.571337,267.403971 L374.691337,267.403971 Z M387.40026,265.115971 C387.40026,263.579971 388.47226,262.859971 390.12026,262.859971 L392.45626,262.859971 L392.45626,261.867971 C392.45626,260.507971 391.91226,260.139971 390.44026,260.139971 C389.48026,260.139971 388.85626,260.203971 388.34426,261.051971 L387.67226,260.587971 C388.23226,259.643971 389.03226,259.307971 390.45626,259.307971 C392.40826,259.307971 393.33626,259.915971 393.33626,261.867971 L393.33626,267.403971 L392.45626,267.403971 L392.45626,266.411971 C392.00826,267.259971 391.20826,267.499971 390.18426,267.499971 C388.40826,267.499971 387.40026,266.651971 387.40026,265.115971 Z M392.45626,264.427971 L392.45626,263.643971 L390.12026,263.643971 C388.74426,263.643971 388.28026,264.283971 388.28026,265.131971 C388.28026,266.251971 389.06426,266.667971 390.18426,266.667971 C391.48026,266.667971 392.45626,266.219971 392.45626,264.427971 Z M395.533183,266.715971 L400.125183,260.219971 L395.533183,260.219971 L395.533183,259.403971 L401.277183,259.403971 L401.277183,260.091971 L396.717183,266.587971 L401.277183,266.587971 L401.277183,267.403971 L395.533183,267.403971 L395.533183,266.715971 Z M409.378106,263.979971 C409.378106,266.155971 408.274106,267.499971 406.130106,267.499971 C404.066106,267.499971 402.882106,266.219971 402.882106,263.979971 L402.882106,262.811971 C402.882106,260.539971 404.082106,259.307971 406.130106,259.307971 C408.178106,259.307971 409.378106,260.539971 409.378106,262.811971 L409.378106,263.979971 Z M408.498106,263.979971 L408.498106,262.811971 C408.498106,261.067971 407.650106,260.123971 406.130106,260.123971 C404.594106,260.123971 403.762106,261.067971 403.762106,262.811971 L403.762106,263.979971 C403.762106,265.659971 404.514106,266.683971 406.130106,266.683971 C407.682106,266.683971 408.498106,265.659971 408.498106,263.979971 Z M411.575029,267.403971 L411.575029,259.403971 L412.455029,259.403971 L412.455029,260.491971 C412.871029,259.723971 413.607029,259.307971 414.807029,259.307971 C416.583029,259.307971 417.751029,260.411971 417.751029,262.667971 L417.751029,267.403971 L416.871029,267.403971 L416.871029,262.683971 C416.871029,260.859971 415.959029,260.139971 414.711029,260.139971 C413.207029,260.139971 412.455029,261.131971 412.455029,262.603971 L412.455029,267.403971 L411.575029,267.403971 Z" id="AliExpress-eBay-Walm" fill="#3F6581"></path>
                <g id="bars" transform="translate(81.285787, 20.351082)" fill="url(#linearGradient-1)">
                    <rect id="Rectangle-6" transform="translate(22.578367, 203.061005) rotate(-270.000000) translate(-22.578367, -203.061005) " x="6.24355608" y="180.706176" width="32.6696217" height="44.7096582"></rect>
                    <rect id="Rectangle-6" transform="translate(117.818768, 183.820807) rotate(-270.000000) translate(-117.818768, -183.820807) " x="82.2187485" y="161.465977" width="71.2000398" height="44.7096582"></rect>
                    <rect id="Rectangle-6" transform="translate(214.520825, 168.978800) rotate(-270.000000) translate(-214.520825, -168.978800) " x="164.494333" y="146.62397" width="100.052984" height="44.7096582"></rect>
                    <rect id="Rectangle-6" transform="translate(309.041146, 110.201269) rotate(-270.000000) translate(-309.041146, -110.201269) " x="199.541898" y="88.621036" width="218.998497" height="43.1604671"></rect>
                </g>
            </g>
            <path d="M357.695,16.102 C355.145,16.102 353.53,14.657 353.53,11.206 L353.53,4.27 L354.516,4.27 L354.516,11.206 C354.516,13.926 355.638,15.184 357.695,15.184 C359.752,15.184 360.874,13.926 360.874,11.206 L360.874,4.27 L361.86,4.27 L361.86,11.206 C361.86,14.657 360.245,16.102 357.695,16.102 Z M370.9295,11.121 L370.9295,12.345 C370.9295,14.674 369.8245,16.102 367.6145,16.102 C366.3225,16.102 365.5235,15.745 365.0475,14.997 L365.0475,19.23 L364.1125,19.23 L364.1125,7.5 L365.0475,7.5 L365.0475,8.571 C365.5235,7.806 366.3225,7.398 367.6145,7.398 C369.7225,7.398 370.9295,8.707 370.9295,11.121 Z M367.5465,15.235 C369.1785,15.235 369.9945,14.13 369.9945,12.345 L369.9945,11.121 C369.9945,9.268 369.1615,8.265 367.5465,8.265 C365.7445,8.265 365.0475,9.353 365.0475,11.019 L365.0475,12.498 C365.0645,14.096 365.6765,15.235 367.5465,15.235 Z M375.4515,8.367 L375.4515,7.5 L376.5395,7.5 L376.5395,5.63 L377.4745,5.63 L377.4745,7.5 L379.5655,7.5 L379.5655,8.367 L377.4745,8.367 L377.4745,13.127 C377.4745,14.487 377.6275,15.099 379.0045,15.099 L379.5655,15.099 L379.5655,16 L378.9705,16 C377.0835,16 376.5395,15.15 376.5395,13.382 L376.5395,8.367 L375.4515,8.367 Z M387.36,12.362 C387.36,14.674 386.187,16.102 383.909,16.102 C381.716,16.102 380.458,14.742 380.458,12.362 L380.458,11.121 C380.458,8.707 381.733,7.398 383.909,7.398 C386.085,7.398 387.36,8.707 387.36,11.121 L387.36,12.362 Z M386.425,12.362 L386.425,11.121 C386.425,9.268 385.524,8.265 383.909,8.265 C382.277,8.265 381.393,9.268 381.393,11.121 L381.393,12.362 C381.393,14.147 382.192,15.235 383.909,15.235 C385.558,15.235 386.425,14.147 386.425,12.362 Z M396.115,4.27 L397.118,4.27 L393.072,12.974 L397.169,12.974 L397.169,9.319 L398.155,9.319 L398.155,12.974 L399.328,12.974 L399.328,13.892 L398.155,13.892 L398.155,16 L397.169,16 L397.169,13.892 L391.916,13.892 L391.916,13.161 L396.115,4.27 Z M403.4335,9.03 C402.4305,9.03 401.7845,9.659 401.3935,10.373 L400.5095,10.373 L400.5095,4.27 L406.2895,4.27 L406.2895,5.256 L401.4615,5.256 L401.4615,9.064 C401.8865,8.486 402.6005,8.044 403.5865,8.044 C405.8305,8.044 406.7825,9.693 406.7825,12.328 C406.7825,14.64 405.6095,16.102 403.4335,16.102 C401.6655,16.102 400.3565,14.827 400.2375,13.212 L401.2065,13.212 C401.3765,14.419 402.2945,15.184 403.4335,15.184 C404.8785,15.184 405.7965,14.402 405.7965,12.328 C405.7965,10.186 405.0995,9.03 403.4335,9.03 Z M415.937,4.27 L416.94,4.27 L410.395,16 L409.375,16 L415.937,4.27 Z M409.919,9.421 C411.041,9.421 411.5,8.622 411.5,7.602 L411.5,6.718 C411.5,5.545 410.922,4.933 409.919,4.933 C408.933,4.933 408.355,5.545 408.355,6.718 L408.355,7.602 C408.355,8.622 408.763,9.421 409.919,9.421 Z M409.919,10.186 C408.406,10.186 407.556,9.251 407.556,7.602 L407.556,6.701 C407.556,5.052 408.44,4.151 409.919,4.151 C411.415,4.151 412.282,5.052 412.282,6.701 L412.282,7.602 C412.282,9.2 411.517,10.186 409.919,10.186 Z M416.583,15.337 C417.705,15.337 418.164,14.538 418.164,13.518 L418.164,12.634 C418.164,11.461 417.586,10.849 416.583,10.849 C415.597,10.849 415.019,11.461 415.019,12.634 L415.019,13.518 C415.019,14.538 415.427,15.337 416.583,15.337 Z M416.583,16.102 C415.07,16.102 414.22,15.167 414.22,13.518 L414.22,12.617 C414.22,10.968 415.104,10.067 416.583,10.067 C418.079,10.067 418.946,10.968 418.946,12.617 L418.946,13.518 C418.946,15.116 418.181,16.102 416.583,16.102 Z" id="Up-to-45%" fill="#708CA1"></path>
            <path d="M266.695,132.102 C264.145,132.102 262.53,130.657 262.53,127.206 L262.53,120.27 L263.516,120.27 L263.516,127.206 C263.516,129.926 264.638,131.184 266.695,131.184 C268.752,131.184 269.874,129.926 269.874,127.206 L269.874,120.27 L270.86,120.27 L270.86,127.206 C270.86,130.657 269.245,132.102 266.695,132.102 Z M279.9295,127.121 L279.9295,128.345 C279.9295,130.674 278.8245,132.102 276.6145,132.102 C275.3225,132.102 274.5235,131.745 274.0475,130.997 L274.0475,135.23 L273.1125,135.23 L273.1125,123.5 L274.0475,123.5 L274.0475,124.571 C274.5235,123.806 275.3225,123.398 276.6145,123.398 C278.7225,123.398 279.9295,124.707 279.9295,127.121 Z M276.5465,131.235 C278.1785,131.235 278.9945,130.13 278.9945,128.345 L278.9945,127.121 C278.9945,125.268 278.1615,124.265 276.5465,124.265 C274.7445,124.265 274.0475,125.353 274.0475,127.019 L274.0475,128.498 C274.0645,130.096 274.6765,131.235 276.5465,131.235 Z M284.4515,124.367 L284.4515,123.5 L285.5395,123.5 L285.5395,121.63 L286.4745,121.63 L286.4745,123.5 L288.5655,123.5 L288.5655,124.367 L286.4745,124.367 L286.4745,129.127 C286.4745,130.487 286.6275,131.099 288.0045,131.099 L288.5655,131.099 L288.5655,132 L287.9705,132 C286.0835,132 285.5395,131.15 285.5395,129.382 L285.5395,124.367 L284.4515,124.367 Z M296.36,128.362 C296.36,130.674 295.187,132.102 292.909,132.102 C290.716,132.102 289.458,130.742 289.458,128.362 L289.458,127.121 C289.458,124.707 290.733,123.398 292.909,123.398 C295.085,123.398 296.36,124.707 296.36,127.121 L296.36,128.362 Z M295.425,128.362 L295.425,127.121 C295.425,125.268 294.524,124.265 292.909,124.265 C291.277,124.265 290.393,125.268 290.393,127.121 L290.393,128.362 C290.393,130.147 291.192,131.235 292.909,131.235 C294.558,131.235 295.425,130.147 295.425,128.362 Z M307.937,131.082 L307.937,132 L301.222,132 L301.222,131.184 L305.438,126.22 C306.458,125.013 306.985,124.197 306.985,123.313 C306.985,121.834 305.846,121.086 304.69,121.086 C303.432,121.086 302.429,121.851 302.378,123.313 L301.409,123.313 C301.409,121.375 302.888,120.168 304.69,120.168 C306.509,120.168 307.971,121.375 307.971,123.381 C307.971,124.724 306.883,125.897 305.982,126.985 L302.548,131.082 L307.937,131.082 Z M315.7485,123.551 L315.7485,128.719 C315.7485,130.878 314.2355,132.102 312.4675,132.102 C310.6995,132.102 309.1865,130.878 309.1865,128.702 L309.1865,123.568 C309.1865,121.392 310.6995,120.168 312.4675,120.168 C314.2355,120.168 315.7485,121.392 315.7485,123.551 Z M314.7625,123.551 C314.7625,122.021 313.7595,121.086 312.4675,121.086 C311.1585,121.086 310.1555,122.021 310.1555,123.551 L310.1555,128.719 C310.1555,130.249 311.1585,131.184 312.4675,131.184 C313.7595,131.184 314.7625,130.249 314.7625,128.719 L314.7625,123.551 Z M324.937,120.27 L325.94,120.27 L319.395,132 L318.375,132 L324.937,120.27 Z M318.919,125.421 C320.041,125.421 320.5,124.622 320.5,123.602 L320.5,122.718 C320.5,121.545 319.922,120.933 318.919,120.933 C317.933,120.933 317.355,121.545 317.355,122.718 L317.355,123.602 C317.355,124.622 317.763,125.421 318.919,125.421 Z M318.919,126.186 C317.406,126.186 316.556,125.251 316.556,123.602 L316.556,122.701 C316.556,121.052 317.44,120.151 318.919,120.151 C320.415,120.151 321.282,121.052 321.282,122.701 L321.282,123.602 C321.282,125.2 320.517,126.186 318.919,126.186 Z M325.583,131.337 C326.705,131.337 327.164,130.538 327.164,129.518 L327.164,128.634 C327.164,127.461 326.586,126.849 325.583,126.849 C324.597,126.849 324.019,127.461 324.019,128.634 L324.019,129.518 C324.019,130.538 324.427,131.337 325.583,131.337 Z M325.583,132.102 C324.07,132.102 323.22,131.167 323.22,129.518 L323.22,128.617 C323.22,126.968 324.104,126.067 325.583,126.067 C327.079,126.067 327.946,126.968 327.946,128.617 L327.946,129.518 C327.946,131.116 327.181,132.102 325.583,132.102 Z" id="Up-to-20%" fill="#708CA1"></path>
            <path d="M168.695,156.102 C166.145,156.102 164.53,154.657 164.53,151.206 L164.53,144.27 L165.516,144.27 L165.516,151.206 C165.516,153.926 166.638,155.184 168.695,155.184 C170.752,155.184 171.874,153.926 171.874,151.206 L171.874,144.27 L172.86,144.27 L172.86,151.206 C172.86,154.657 171.245,156.102 168.695,156.102 Z M181.9295,151.121 L181.9295,152.345 C181.9295,154.674 180.8245,156.102 178.6145,156.102 C177.3225,156.102 176.5235,155.745 176.0475,154.997 L176.0475,159.23 L175.1125,159.23 L175.1125,147.5 L176.0475,147.5 L176.0475,148.571 C176.5235,147.806 177.3225,147.398 178.6145,147.398 C180.7225,147.398 181.9295,148.707 181.9295,151.121 Z M178.5465,155.235 C180.1785,155.235 180.9945,154.13 180.9945,152.345 L180.9945,151.121 C180.9945,149.268 180.1615,148.265 178.5465,148.265 C176.7445,148.265 176.0475,149.353 176.0475,151.019 L176.0475,152.498 C176.0645,154.096 176.6765,155.235 178.5465,155.235 Z M186.4515,148.367 L186.4515,147.5 L187.5395,147.5 L187.5395,145.63 L188.4745,145.63 L188.4745,147.5 L190.5655,147.5 L190.5655,148.367 L188.4745,148.367 L188.4745,153.127 C188.4745,154.487 188.6275,155.099 190.0045,155.099 L190.5655,155.099 L190.5655,156 L189.9705,156 C188.0835,156 187.5395,155.15 187.5395,153.382 L187.5395,148.367 L186.4515,148.367 Z M198.36,152.362 C198.36,154.674 197.187,156.102 194.909,156.102 C192.716,156.102 191.458,154.742 191.458,152.362 L191.458,151.121 C191.458,148.707 192.733,147.398 194.909,147.398 C197.085,147.398 198.36,148.707 198.36,151.121 L198.36,152.362 Z M197.425,152.362 L197.425,151.121 C197.425,149.268 196.524,148.265 194.909,148.265 C193.277,148.265 192.393,149.268 192.393,151.121 L192.393,152.362 C192.393,154.147 193.192,155.235 194.909,155.235 C196.558,155.235 197.425,154.147 197.425,152.362 Z M207.387,144.27 L207.387,156 L206.401,156 L206.401,145.46 L204.718,146.667 L204.718,145.562 L206.401,144.27 L207.387,144.27 Z M214.4335,149.03 C213.4305,149.03 212.7845,149.659 212.3935,150.373 L211.5095,150.373 L211.5095,144.27 L217.2895,144.27 L217.2895,145.256 L212.4615,145.256 L212.4615,149.064 C212.8865,148.486 213.6005,148.044 214.5865,148.044 C216.8305,148.044 217.7825,149.693 217.7825,152.328 C217.7825,154.64 216.6095,156.102 214.4335,156.102 C212.6655,156.102 211.3565,154.827 211.2375,153.212 L212.2065,153.212 C212.3765,154.419 213.2945,155.184 214.4335,155.184 C215.8785,155.184 216.7965,154.402 216.7965,152.328 C216.7965,150.186 216.0995,149.03 214.4335,149.03 Z M226.937,144.27 L227.94,144.27 L221.395,156 L220.375,156 L226.937,144.27 Z M220.919,149.421 C222.041,149.421 222.5,148.622 222.5,147.602 L222.5,146.718 C222.5,145.545 221.922,144.933 220.919,144.933 C219.933,144.933 219.355,145.545 219.355,146.718 L219.355,147.602 C219.355,148.622 219.763,149.421 220.919,149.421 Z M220.919,150.186 C219.406,150.186 218.556,149.251 218.556,147.602 L218.556,146.701 C218.556,145.052 219.44,144.151 220.919,144.151 C222.415,144.151 223.282,145.052 223.282,146.701 L223.282,147.602 C223.282,149.2 222.517,150.186 220.919,150.186 Z M227.583,155.337 C228.705,155.337 229.164,154.538 229.164,153.518 L229.164,152.634 C229.164,151.461 228.586,150.849 227.583,150.849 C226.597,150.849 226.019,151.461 226.019,152.634 L226.019,153.518 C226.019,154.538 226.427,155.337 227.583,155.337 Z M227.583,156.102 C226.07,156.102 225.22,155.167 225.22,153.518 L225.22,152.617 C225.22,150.968 226.104,150.067 227.583,150.067 C229.079,150.067 229.946,150.968 229.946,152.617 L229.946,153.518 C229.946,155.116 229.181,156.102 227.583,156.102 Z" id="Up-to-15%" fill="#708CA1"></path>
            <path d="M77.695,197.102 C75.145,197.102 73.53,195.657 73.53,192.206 L73.53,185.27 L74.516,185.27 L74.516,192.206 C74.516,194.926 75.638,196.184 77.695,196.184 C79.752,196.184 80.874,194.926 80.874,192.206 L80.874,185.27 L81.86,185.27 L81.86,192.206 C81.86,195.657 80.245,197.102 77.695,197.102 Z M90.9295,192.121 L90.9295,193.345 C90.9295,195.674 89.8245,197.102 87.6145,197.102 C86.3225,197.102 85.5235,196.745 85.0475,195.997 L85.0475,200.23 L84.1125,200.23 L84.1125,188.5 L85.0475,188.5 L85.0475,189.571 C85.5235,188.806 86.3225,188.398 87.6145,188.398 C89.7225,188.398 90.9295,189.707 90.9295,192.121 Z M87.5465,196.235 C89.1785,196.235 89.9945,195.13 89.9945,193.345 L89.9945,192.121 C89.9945,190.268 89.1615,189.265 87.5465,189.265 C85.7445,189.265 85.0475,190.353 85.0475,192.019 L85.0475,193.498 C85.0645,195.096 85.6765,196.235 87.5465,196.235 Z M95.4515,189.367 L95.4515,188.5 L96.5395,188.5 L96.5395,186.63 L97.4745,186.63 L97.4745,188.5 L99.5655,188.5 L99.5655,189.367 L97.4745,189.367 L97.4745,194.127 C97.4745,195.487 97.6275,196.099 99.0045,196.099 L99.5655,196.099 L99.5655,197 L98.9705,197 C97.0835,197 96.5395,196.15 96.5395,194.382 L96.5395,189.367 L95.4515,189.367 Z M107.36,193.362 C107.36,195.674 106.187,197.102 103.909,197.102 C101.716,197.102 100.458,195.742 100.458,193.362 L100.458,192.121 C100.458,189.707 101.733,188.398 103.909,188.398 C106.085,188.398 107.36,189.707 107.36,192.121 L107.36,193.362 Z M106.425,193.362 L106.425,192.121 C106.425,190.268 105.524,189.265 103.909,189.265 C102.277,189.265 101.393,190.268 101.393,192.121 L101.393,193.362 C101.393,195.147 102.192,196.235 103.909,196.235 C105.558,196.235 106.425,195.147 106.425,193.362 Z M113.225,193.804 C113.225,195.13 114.262,196.184 115.605,196.184 C116.931,196.184 117.985,195.13 117.985,193.804 C117.985,192.41 116.846,191.407 115.605,191.407 C114.347,191.407 113.225,192.41 113.225,193.804 Z M113.395,188.296 C113.395,189.52 114.364,190.506 115.605,190.506 C116.829,190.506 117.815,189.52 117.815,188.296 C117.815,187.072 116.829,186.086 115.605,186.086 C114.364,186.086 113.395,187.072 113.395,188.296 Z M112.239,193.804 C112.239,192.478 113.072,191.373 114.109,190.931 C113.123,190.472 112.409,189.452 112.409,188.296 C112.409,186.477 113.888,185.168 115.605,185.168 C117.322,185.168 118.801,186.477 118.801,188.296 C118.801,189.452 118.07,190.472 117.084,190.931 C118.138,191.373 118.971,192.478 118.971,193.804 C118.971,195.725 117.407,197.102 115.605,197.102 C113.803,197.102 112.239,195.725 112.239,193.804 Z M128.0745,185.27 L129.0775,185.27 L122.5325,197 L121.5125,197 L128.0745,185.27 Z M122.0565,190.421 C123.1785,190.421 123.6375,189.622 123.6375,188.602 L123.6375,187.718 C123.6375,186.545 123.0595,185.933 122.0565,185.933 C121.0705,185.933 120.4925,186.545 120.4925,187.718 L120.4925,188.602 C120.4925,189.622 120.9005,190.421 122.0565,190.421 Z M122.0565,191.186 C120.5435,191.186 119.6935,190.251 119.6935,188.602 L119.6935,187.701 C119.6935,186.052 120.5775,185.151 122.0565,185.151 C123.5525,185.151 124.4195,186.052 124.4195,187.701 L124.4195,188.602 C124.4195,190.2 123.6545,191.186 122.0565,191.186 Z M128.7205,196.337 C129.8425,196.337 130.3015,195.538 130.3015,194.518 L130.3015,193.634 C130.3015,192.461 129.7235,191.849 128.7205,191.849 C127.7345,191.849 127.1565,192.461 127.1565,193.634 L127.1565,194.518 C127.1565,195.538 127.5645,196.337 128.7205,196.337 Z M128.7205,197.102 C127.2075,197.102 126.3575,196.167 126.3575,194.518 L126.3575,193.617 C126.3575,191.968 127.2415,191.067 128.7205,191.067 C130.2165,191.067 131.0835,191.968 131.0835,193.617 L131.0835,194.518 C131.0835,196.116 130.3185,197.102 128.7205,197.102 Z" id="Up-to-8%" fill="#708CA1"></path>
        </g>
    </g>
</svg>