<?xml version="1.0" encoding="UTF-8"?>
<svg width="330px" height="243px" viewBox="0 0 330 243" version="1.1" xmlns="http://www.w3.org/2000/svg" xmlns:xlink="http://www.w3.org/1999/xlink">
    <!-- Generator: Sketch 50.2 (55047) - http://www.bohemiancoding.com/sketch -->
    <title>Group 40</title>
    <desc>Created with Sketch.</desc>
    <defs>
        <linearGradient x1="-1.11022302e-14%" y1="50%" x2="100%" y2="50%" id="linearGradient-1">
            <stop stop-color="#FF8080" offset="0%"></stop>
            <stop stop-color="#FF4949" offset="100%"></stop>
        </linearGradient>
    </defs>
    <g id="Mobile" stroke="none" stroke-width="1" fill="none" fill-rule="evenodd">
        <g id="iPhone-for-DEv" transform="translate(-26.000000, -2082.000000)">
            <g id="Group-46" transform="translate(-176.000000, 1695.000000)">
                <g id="Group-19" transform="translate(199.000000, 59.000000)">
                    <g id="Group-40" transform="translate(3.000000, 328.000000)">
                        <g id="Bar-Chart-2" transform="translate(0.000000, 4.000000)">
                            <g id="chart-#s-and-lines" opacity="0.229902627" stroke="#DEDEDE">
                                <path d="M0.717729078,84.5 L329.336401,84.5" id="Line-Copy-4"></path>
                                <path d="M0.756218644,0.5 L329.37489,0.5" id="Line-Copy-2"></path>
                                <path d="M0.717729078,168.5 L329.336401,168.5" id="Line-Copy-5"></path>
                                <path d="M0.717729078,125.5 L329.336401,125.5" id="Line-Copy-6"></path>
                                <path d="M0.717729078,42.5 L329.336401,42.5" id="Line-Copy-3"></path>
                                <path d="M0.717729078,210.5 L329.336401,210.5" id="Line-Copy-7"></path>
                            </g>
                            <path d="M20.4024544,235.828595 L19.5488166,235.828595 L22.7981475,226.092211 L23.5416384,226.092211 L26.7909693,235.828595 L25.9510999,235.828595 L25.1663038,233.457997 L21.1734821,233.457997 L20.4024544,235.828595 Z M23.1698929,227.404506 L21.4213124,232.696019 L24.9184735,232.696019 L23.1698929,227.404506 Z M28.2408825,233.683768 L28.2408825,226.092211 L28.9981418,226.092211 L28.9981418,233.486218 C28.9981418,234.473967 29.1082887,235.12306 30.3061352,235.12306 L30.3061352,235.856816 C28.7227748,235.856816 28.2408825,235.151281 28.2408825,233.683768 Z M32.444466,235.828595 L32.444466,228.773244 L33.2017253,228.773244 L33.2017253,235.828595 L32.444466,235.828595 Z M32.3618559,227.037628 L32.3618559,226.092211 L33.2843354,226.092211 L33.2843354,227.037628 L32.3618559,227.037628 Z M35.9183269,226.092211 L41.5082774,226.092211 L41.5082774,226.854189 L36.7168912,226.854189 L36.7168912,230.410086 L41.0952269,230.410086 L41.0952269,231.172063 L36.7168912,231.172063 L36.7168912,235.066617 L41.5082774,235.066617 L41.5082774,235.828595 L35.9183269,235.828595 L35.9183269,226.092211 Z M48.4104577,235.828595 L47.5017465,235.828595 L45.5053356,232.893569 L43.4951564,235.828595 L42.6002135,235.828595 L45.0647484,232.216255 L42.8067388,228.773244 L43.7016816,228.773244 L45.5053356,231.553052 L47.2952212,228.773244 L48.2039324,228.773244 L45.9459228,232.216255 L48.4104577,235.828595 Z M55.4090164,231.778824 L55.4090164,232.794794 C55.4090164,234.72796 54.5140736,235.913259 52.724188,235.913259 C51.6777933,235.913259 51.0306808,235.616934 50.645167,234.996063 L50.645167,238.509628 L49.8879077,238.509628 L49.8879077,228.773244 L50.645167,228.773244 L50.645167,229.662218 C51.0306808,229.027237 51.6777933,228.68858 52.724188,228.68858 C54.4314635,228.68858 55.4090164,229.775104 55.4090164,231.778824 Z M52.6691146,235.193613 C53.9908763,235.193613 54.6517571,234.276418 54.6517571,232.794794 L54.6517571,231.778824 C54.6517571,230.240757 53.9771079,229.408226 52.6691146,229.408226 C51.2096694,229.408226 50.645167,230.311311 50.645167,231.694159 L50.645167,232.92179 C50.6589353,234.248196 51.1545959,235.193613 52.6691146,235.193613 Z M59.7227467,229.422336 C58.6488153,229.422336 58.0567762,230.2972 58.0567762,231.581274 L58.0567762,235.828595 L57.2995169,235.828595 L57.2995169,228.773244 L58.0567762,228.773244 L58.0567762,229.732772 C58.3459116,229.08368 58.9241823,228.68858 59.7915885,228.68858 C60.6865313,228.68858 61.2785704,229.041348 61.7329259,229.662218 L61.0995818,230.141982 C60.7416047,229.662218 60.3285541,229.422336 59.7227467,229.422336 Z M67.8503102,232.498469 L63.292986,232.498469 L63.292986,232.794794 C63.292986,234.191753 63.9263302,235.193613 65.3857754,235.193613 C66.2256448,235.193613 66.7901472,234.939621 67.175661,234.33286 L67.7814685,234.770292 C67.2995762,235.546381 66.5423169,235.913259 65.4270804,235.913259 C63.5958897,235.913259 62.5357267,234.756181 62.5357267,232.794794 L62.5357267,231.778824 C62.5357267,229.775104 63.4719746,228.68858 65.1930185,228.68858 C66.9140623,228.68858 67.8503102,229.775104 67.8503102,231.778824 L67.8503102,232.498469 Z M63.292986,231.778824 L63.292986,231.792934 L67.0930509,231.792934 L67.0930509,231.778824 C67.0930509,230.240757 66.4459384,229.408226 65.1930185,229.408226 C63.9400985,229.408226 63.292986,230.254868 63.292986,231.778824 Z M74.3669767,229.859768 L73.7887059,230.283089 C73.361887,229.662218 72.9212998,229.422336 71.9162102,229.422336 C70.9937307,229.422336 70.2915448,229.775104 70.2915448,230.579414 C70.2915448,231.567163 71.1589509,231.764713 72.1227354,231.891709 C73.4582655,232.075148 74.5735019,232.470248 74.5735019,233.965982 C74.5735019,235.066617 73.8850844,235.913259 72.0538937,235.913259 C70.6908269,235.913259 69.9748727,235.475827 69.4654437,234.742071 L70.0574828,234.31875 C70.4705333,234.911399 70.9937307,235.179502 72.067662,235.179502 C73.1415934,235.179502 73.8162426,234.826735 73.8162426,233.980093 C73.8162426,233.077008 73.1278251,232.766573 71.7647583,232.583133 C70.5944485,232.427916 69.5342855,232.018705 69.5342855,230.593525 C69.5342855,229.450558 70.3741549,228.68858 71.9299785,228.68858 C73.0176783,228.68858 73.8437793,228.984905 74.3669767,229.859768 Z M80.9524849,229.859768 L80.3742141,230.283089 C79.9473952,229.662218 79.506808,229.422336 78.5017184,229.422336 C77.5792389,229.422336 76.877053,229.775104 76.877053,230.579414 C76.877053,231.567163 77.7444591,231.764713 78.7082436,231.891709 C80.0437737,232.075148 81.1590101,232.470248 81.1590101,233.965982 C81.1590101,235.066617 80.4705926,235.913259 78.6394019,235.913259 C77.2763351,235.913259 76.5603809,235.475827 76.0509519,234.742071 L76.642991,234.31875 C77.0560415,234.911399 77.5792389,235.179502 78.6531702,235.179502 C79.7271016,235.179502 80.4017508,234.826735 80.4017508,233.980093 C80.4017508,233.077008 79.7133333,232.766573 78.3502665,232.583133 C77.1799567,232.427916 76.1197937,232.018705 76.1197937,230.593525 C76.1197937,229.450558 76.9596631,228.68858 78.5154867,228.68858 C79.6031865,228.68858 80.4292875,228.984905 80.9524849,229.859768 Z M125.553469,232.498469 L120.996145,232.498469 L120.996145,232.794794 C120.996145,234.191753 121.629489,235.193613 123.088934,235.193613 C123.928804,235.193613 124.493306,234.939621 124.87882,234.33286 L125.484628,234.770292 C125.002735,235.546381 124.245476,235.913259 123.13024,235.913259 C121.299049,235.913259 120.238886,234.756181 120.238886,232.794794 L120.238886,231.778824 C120.238886,229.775104 121.175134,228.68858 122.896178,228.68858 C124.617221,228.68858 125.553469,229.775104 125.553469,231.778824 L125.553469,232.498469 Z M120.996145,231.778824 L120.996145,231.792934 L124.79621,231.792934 L124.79621,231.778824 C124.79621,230.240757 124.149098,229.408226 122.896178,229.408226 C121.643258,229.408226 120.996145,230.254868 120.996145,231.778824 Z M127.829484,226.092211 L130.638227,226.092211 C132.813627,226.092211 133.87379,226.952964 133.87379,228.561584 C133.87379,229.648108 133.157836,230.522971 132.235356,230.748742 C133.433203,231.016846 134.176693,231.835266 134.176693,233.11934 C134.176693,234.445746 133.336824,235.828595 130.968668,235.828595 L127.829484,235.828595 L127.829484,226.092211 Z M128.628048,231.157953 L128.628048,235.066617 L130.968668,235.066617 C132.607101,235.066617 133.378129,234.262307 133.378129,233.11934 C133.378129,231.807045 132.510723,231.157953 130.707069,231.157953 L128.628048,231.157953 Z M128.628048,226.854189 L128.628048,230.395975 L130.886058,230.395975 C132.428113,230.395975 133.075225,229.563443 133.075225,228.561584 C133.075225,227.573835 132.579565,226.854189 130.638227,226.854189 L128.628048,226.854189 Z M135.722985,233.810764 C135.722985,232.456137 136.645465,231.821156 138.063605,231.821156 L140.073784,231.821156 L140.073784,230.946292 C140.073784,229.746883 139.60566,229.422336 138.338972,229.422336 C137.512871,229.422336 136.975905,229.478779 136.535318,230.226646 L135.957047,229.817436 C136.438939,228.984905 137.127357,228.68858 138.35274,228.68858 C140.032479,228.68858 140.831043,229.224787 140.831043,230.946292 L140.831043,235.828595 L140.073784,235.828595 L140.073784,234.953731 C139.68827,235.701598 138.999853,235.913259 138.118678,235.913259 C136.590391,235.913259 135.722985,235.165392 135.722985,233.810764 Z M140.073784,233.204004 L140.073784,232.51258 L138.063605,232.51258 C136.879527,232.51258 136.480245,233.077008 136.480245,233.824875 C136.480245,234.812624 137.154894,235.179502 138.118678,235.179502 C139.233915,235.179502 140.073784,234.784403 140.073784,233.204004 Z M143.038216,238.509628 L143.038216,237.74765 C144.112147,237.74765 144.456356,237.380772 144.92448,236.026145 L144.952017,235.94148 L142.129505,228.773244 L142.955606,228.773244 L145.337531,234.812624 L147.375247,228.773244 L148.173811,228.773244 L145.681739,236.110809 C145.117237,237.804093 144.67665,238.509628 143.038216,238.509628 Z M193.788358,226.092211 L194.614459,226.092211 L196.52826,234.304639 L198.868879,226.092211 L199.681212,226.092211 L202.076905,234.177643 L203.963169,226.092211 L204.78927,226.092211 L202.462419,235.828595 L201.608781,235.828595 L199.28193,227.559724 L196.955079,235.828595 L196.115209,235.828595 L193.788358,226.092211 Z M205.619608,233.810764 C205.619608,232.456137 206.542087,231.821156 207.960227,231.821156 L209.970407,231.821156 L209.970407,230.946292 C209.970407,229.746883 209.502283,229.422336 208.235594,229.422336 C207.409493,229.422336 206.872528,229.478779 206.431941,230.226646 L205.85367,229.817436 C206.335562,228.984905 207.02398,228.68858 208.249363,228.68858 C209.929102,228.68858 210.727666,229.224787 210.727666,230.946292 L210.727666,235.828595 L209.970407,235.828595 L209.970407,234.953731 C209.584893,235.701598 208.896475,235.913259 208.015301,235.913259 C206.487014,235.913259 205.619608,235.165392 205.619608,233.810764 Z M209.970407,233.204004 L209.970407,232.51258 L207.960227,232.51258 C206.776149,232.51258 206.376867,233.077008 206.376867,233.824875 C206.376867,234.812624 207.051516,235.179502 208.015301,235.179502 C209.130537,235.179502 209.970407,234.784403 209.970407,233.204004 Z M212.962375,233.683768 L212.962375,226.092211 L213.719635,226.092211 L213.719635,233.486218 C213.719635,234.473967 213.829781,235.12306 215.027628,235.12306 L215.027628,235.856816 C213.444268,235.856816 212.962375,235.151281 212.962375,233.683768 Z M216.959434,235.828595 L216.959434,228.773244 L217.716693,228.773244 L217.716693,229.732772 C218.005828,229.08368 218.625404,228.68858 219.534115,228.68858 C220.511668,228.68858 221.227622,229.168344 221.585599,230.071429 C221.971113,229.182455 222.728373,228.68858 223.678389,228.68858 C225.124066,228.68858 226.00524,229.732772 226.00524,231.651827 L226.00524,235.828595 L225.247981,235.828595 L225.247981,231.665938 C225.247981,230.127872 224.5871,229.422336 223.595779,229.422336 C222.494311,229.422336 221.860966,230.254868 221.860966,231.49661 L221.860966,235.828595 L221.103707,235.828595 L221.103707,231.665938 C221.103707,230.127872 220.442826,229.422336 219.451505,229.422336 C218.3225,229.422336 217.716693,230.2972 217.716693,231.595384 L217.716693,235.828595 L216.959434,235.828595 Z M227.895741,233.810764 C227.895741,232.456137 228.81822,231.821156 230.23636,231.821156 L232.24654,231.821156 L232.24654,230.946292 C232.24654,229.746883 231.778416,229.422336 230.511727,229.422336 C229.685626,229.422336 229.148661,229.478779 228.708073,230.226646 L228.129803,229.817436 C228.611695,228.984905 229.300112,228.68858 230.525496,228.68858 C232.205235,228.68858 233.003799,229.224787 233.003799,230.946292 L233.003799,235.828595 L232.24654,235.828595 L232.24654,234.953731 C231.861026,235.701598 231.172608,235.913259 230.291434,235.913259 C228.763147,235.913259 227.895741,235.165392 227.895741,233.810764 Z M232.24654,233.204004 L232.24654,232.51258 L230.23636,232.51258 C229.052282,232.51258 228.653,233.077008 228.653,233.824875 C228.653,234.812624 229.327649,235.179502 230.291434,235.179502 C231.40667,235.179502 232.24654,234.784403 232.24654,233.204004 Z M237.661738,229.422336 C236.587807,229.422336 235.995767,230.2972 235.995767,231.581274 L235.995767,235.828595 L235.238508,235.828595 L235.238508,228.773244 L235.995767,228.773244 L235.995767,229.732772 C236.284903,229.08368 236.863174,228.68858 237.73058,228.68858 C238.625523,228.68858 239.217562,229.041348 239.671917,229.662218 L239.038573,230.141982 C238.680596,229.662218 238.267545,229.422336 237.661738,229.422336 Z M240.268193,229.49289 L240.268193,228.773244 L241.149367,228.773244 L241.149367,227.221067 L241.906626,227.221067 L241.906626,228.773244 L243.600134,228.773244 L243.600134,229.49289 L241.906626,229.49289 L241.906626,233.443886 C241.906626,234.572742 242.030542,235.080728 243.145778,235.080728 L243.600134,235.080728 L243.600134,235.828595 L243.118241,235.828595 C241.589954,235.828595 241.149367,235.12306 241.149367,233.655547 L241.149367,229.49289 L240.268193,229.49289 Z M275.470689,235.828595 L274.617051,235.828595 L277.866382,226.092211 L278.609873,226.092211 L281.859204,235.828595 L281.019334,235.828595 L280.234538,233.457997 L276.241717,233.457997 L275.470689,235.828595 Z M278.238127,227.404506 L276.489547,232.696019 L279.986708,232.696019 L278.238127,227.404506 Z M283.309117,235.828595 L283.309117,228.773244 L284.066376,228.773244 L284.066376,229.732772 C284.355512,229.08368 284.975088,228.68858 285.883799,228.68858 C286.861352,228.68858 287.577306,229.168344 287.935283,230.071429 C288.320797,229.182455 289.078056,228.68858 290.028072,228.68858 C291.473749,228.68858 292.354924,229.732772 292.354924,231.651827 L292.354924,235.828595 L291.597664,235.828595 L291.597664,231.665938 C291.597664,230.127872 290.936784,229.422336 289.945462,229.422336 C288.843994,229.422336 288.21065,230.254868 288.21065,231.49661 L288.21065,235.828595 L287.453391,235.828595 L287.453391,231.665938 C287.453391,230.127872 286.79251,229.422336 285.801189,229.422336 C284.672184,229.422336 284.066376,230.2972 284.066376,231.595384 L284.066376,235.828595 L283.309117,235.828595 Z M294.245424,233.810764 C294.245424,232.456137 295.167904,231.821156 296.586044,231.821156 L298.596223,231.821156 L298.596223,230.946292 C298.596223,229.746883 298.128099,229.422336 296.861411,229.422336 C296.03531,229.422336 295.498344,229.478779 295.057757,230.226646 L294.479486,229.817436 C294.961378,228.984905 295.649796,228.68858 296.875179,228.68858 C298.554918,228.68858 299.353482,229.224787 299.353482,230.946292 L299.353482,235.828595 L298.596223,235.828595 L298.596223,234.953731 C298.210709,235.701598 297.522292,235.913259 296.641117,235.913259 C295.11283,235.913259 294.245424,235.165392 294.245424,233.810764 Z M298.596223,233.204004 L298.596223,232.51258 L296.586044,232.51258 C295.401966,232.51258 295.002684,233.077008 295.002684,233.824875 C295.002684,234.812624 295.677333,235.179502 296.641117,235.179502 C297.756354,235.179502 298.596223,234.784403 298.596223,233.204004 Z M301.243983,235.221835 L305.1955,229.49289 L301.243983,229.49289 L301.243983,228.773244 L306.186821,228.773244 L306.186821,229.380004 L302.262841,235.108949 L306.186821,235.108949 L306.186821,235.828595 L301.243983,235.828595 L301.243983,235.221835 Z M313.157843,232.808905 C313.157843,234.72796 312.207827,235.913259 310.362868,235.913259 C308.58675,235.913259 307.567892,234.784403 307.567892,232.808905 L307.567892,231.778824 C307.567892,229.775104 308.600519,228.68858 310.362868,228.68858 C312.125217,228.68858 313.157843,229.775104 313.157843,231.778824 L313.157843,232.808905 Z M312.400584,232.808905 L312.400584,231.778824 C312.400584,230.240757 311.670861,229.408226 310.362868,229.408226 C309.041106,229.408226 308.325152,230.240757 308.325152,231.778824 L308.325152,232.808905 C308.325152,234.290528 308.972264,235.193613 310.362868,235.193613 C311.698398,235.193613 312.400584,234.290528 312.400584,232.808905 Z M315.048343,235.828595 L315.048343,228.773244 L315.805603,228.773244 L315.805603,229.732772 C316.16358,229.055458 316.796924,228.68858 317.82955,228.68858 C319.357837,228.68858 320.362927,229.662218 320.362927,231.651827 L320.362927,235.828595 L319.605668,235.828595 L319.605668,231.665938 C319.605668,230.057318 318.820872,229.422336 317.74694,229.422336 C316.452715,229.422336 315.805603,230.2972 315.805603,231.595384 L315.805603,235.828595 L315.048343,235.828595 Z" id="AliExpress-eBay-Walm" fill="#FFFFFF"></path>
                            <g id="bars" transform="translate(35.990336, 19.948002)" fill="url(#linearGradient-1)">
                                <rect id="Rectangle-6" transform="translate(14.266048, 176.642513) rotate(-270.000000) translate(-14.266048, -176.642513) " x="0.209585354" y="162.659691" width="28.1129262" height="27.9656449"></rect>
                                <rect id="Rectangle-6" transform="translate(96.222503, 159.233260) rotate(-270.000000) translate(-96.222503, -159.233260) " x="65.5879053" y="144.809478" width="61.2691963" height="28.8475638"></rect>
                                <rect id="Rectangle-6" transform="translate(179.048123, 147.639937) rotate(-270.000000) translate(-179.048123, -147.639937) " x="135.999229" y="133.216156" width="86.0977877" height="28.8475638"></rect>
                                <rect id="Rectangle-6" transform="translate(260.773555, 95.188367) rotate(-270.000000) translate(-260.773555, -95.188367) " x="166.547049" y="81.4480723" width="188.453011" height="27.4805903"></rect>
                            </g>
                        </g>
                        <g id="Group-18" transform="translate(23.000000, 0.000000)" fill="#FFFFFF">
                            <path d="M245.19974,10.6890761 C243.003497,10.6890761 241.612543,9.41278173 241.612543,6.36469036 L241.612543,0.238477157 L242.461757,0.238477157 L242.461757,6.36469036 C242.461757,8.7671269 243.428104,9.87825381 245.19974,9.87825381 C246.971376,9.87825381 247.937723,8.7671269 247.937723,6.36469036 L247.937723,0.238477157 L248.786936,0.238477157 L248.786936,6.36469036 C248.786936,9.41278173 247.395983,10.6890761 245.19974,10.6890761 Z M256.59824,6.28961421 L256.59824,7.37071066 C256.59824,9.42779695 255.646535,10.6890761 253.743124,10.6890761 C252.630361,10.6890761 251.942205,10.3737563 251.53224,9.71308629 L251.53224,13.4518782 L250.726951,13.4518782 L250.726951,3.09137056 L251.53224,3.09137056 L251.53224,4.03732995 C251.942205,3.36164467 252.630361,3.00127919 253.743124,3.00127919 C255.558685,3.00127919 256.59824,4.15745178 256.59824,6.28961421 Z M253.684558,9.92329949 C255.090153,9.92329949 255.792951,8.94730964 255.792951,7.37071066 L255.792951,6.28961421 C255.792951,4.65295431 255.075512,3.76705584 253.684558,3.76705584 C252.132546,3.76705584 251.53224,4.72803046 251.53224,6.19952284 L251.53224,7.50584772 C251.546882,8.91727919 252.07398,9.92329949 253.684558,9.92329949 Z M260.49291,3.85714721 L260.49291,3.09137056 L261.429974,3.09137056 L261.429974,1.43969543 L262.235263,1.43969543 L262.235263,3.09137056 L264.036182,3.09137056 L264.036182,3.85714721 L262.235263,3.85714721 L262.235263,8.06141117 C262.235263,9.26262944 262.367038,9.80317766 263.553009,9.80317766 L264.036182,9.80317766 L264.036182,10.5989848 L263.523725,10.5989848 C261.898506,10.5989848 261.429974,9.84822335 261.429974,8.28663959 L261.429974,3.85714721 L260.49291,3.85714721 Z M270.749364,7.38572589 C270.749364,9.42779695 269.739092,10.6890761 267.777116,10.6890761 C265.888347,10.6890761 264.804867,9.48785787 264.804867,7.38572589 L264.804867,6.28961421 C264.804867,4.15745178 265.902988,3.00127919 267.777116,3.00127919 C269.651243,3.00127919 270.749364,4.15745178 270.749364,6.28961421 L270.749364,7.38572589 Z M269.944075,7.38572589 L269.944075,6.28961421 C269.944075,4.65295431 269.168069,3.76705584 267.777116,3.76705584 C266.37152,3.76705584 265.610156,4.65295431 265.610156,6.28961421 L265.610156,7.38572589 C265.610156,8.96232487 266.298312,9.92329949 267.777116,9.92329949 C269.197353,9.92329949 269.944075,8.96232487 269.944075,7.38572589 Z M278.289798,0.238477157 L279.153653,0.238477157 L275.668948,7.92627411 L279.197578,7.92627411 L279.197578,4.698 L280.046792,4.698 L280.046792,7.92627411 L281.057064,7.92627411 L281.057064,8.73709645 L280.046792,8.73709645 L280.046792,10.5989848 L279.197578,10.5989848 L279.197578,8.73709645 L274.673318,8.73709645 L274.673318,8.09144162 L278.289798,0.238477157 Z M284.593014,4.44274112 C283.729159,4.44274112 283.172777,4.99830457 282.83602,5.62894416 L282.074656,5.62894416 L282.074656,0.238477157 L287.052806,0.238477157 L287.052806,1.10936041 L282.894587,1.10936041 L282.894587,4.47277157 C283.260627,3.96225381 283.875575,3.57185787 284.724789,3.57185787 C286.657483,3.57185787 287.477413,5.02833503 287.477413,7.35569543 C287.477413,9.3977665 286.467142,10.6890761 284.593014,10.6890761 C283.070286,10.6890761 281.942881,9.56293401 281.84039,8.13648731 L282.674962,8.13648731 C282.821379,9.20256853 283.612026,9.87825381 284.593014,9.87825381 C285.837552,9.87825381 286.628199,9.1875533 286.628199,7.35569543 C286.628199,5.46377665 286.027893,4.44274112 284.593014,4.44274112 Z M295.361925,0.238477157 L296.22578,0.238477157 L290.588757,10.5989848 L289.71026,10.5989848 L295.361925,0.238477157 Z M290.178792,4.78809137 C291.145139,4.78809137 291.540462,4.08237563 291.540462,3.18146193 L291.540462,2.40067005 C291.540462,1.36461929 291.042647,0.824071066 290.178792,0.824071066 C289.329578,0.824071066 288.831763,1.36461929 288.831763,2.40067005 L288.831763,3.18146193 C288.831763,4.08237563 289.183162,4.78809137 290.178792,4.78809137 Z M290.178792,5.46377665 C288.875688,5.46377665 288.143607,4.63793909 288.143607,3.18146193 L288.143607,2.38565482 C288.143607,0.929177665 288.904971,0.133370558 290.178792,0.133370558 C291.467254,0.133370558 292.213977,0.929177665 292.213977,2.38565482 L292.213977,3.18146193 C292.213977,4.5928934 291.555104,5.46377665 290.178792,5.46377665 Z M295.918306,10.0133909 C296.884653,10.0133909 297.279977,9.30767513 297.279977,8.40676142 L297.279977,7.62596954 C297.279977,6.58991878 296.782162,6.04937056 295.918306,6.04937056 C295.069092,6.04937056 294.571277,6.58991878 294.571277,7.62596954 L294.571277,8.40676142 C294.571277,9.30767513 294.922676,10.0133909 295.918306,10.0133909 Z M295.918306,10.6890761 C294.615202,10.6890761 293.883121,9.86323858 293.883121,8.40676142 L293.883121,7.61095431 C293.883121,6.15447716 294.644486,5.35867005 295.918306,5.35867005 C297.206769,5.35867005 297.953491,6.15447716 297.953491,7.61095431 L297.953491,8.40676142 C297.953491,9.81819289 297.294618,10.6890761 295.918306,10.6890761 Z" id="Up-to-45%"></path>
                            <path d="M166.824017,113.145929 C164.627775,113.145929 163.236821,111.869635 163.236821,108.821543 L163.236821,102.69533 L164.086035,102.69533 L164.086035,108.821543 C164.086035,111.22398 165.052382,112.335107 166.824017,112.335107 C168.595653,112.335107 169.562,111.22398 169.562,108.821543 L169.562,102.69533 L170.411214,102.69533 L170.411214,108.821543 C170.411214,111.869635 169.02026,113.145929 166.824017,113.145929 Z M178.222517,108.746467 L178.222517,109.827563 C178.222517,111.88465 177.270812,113.145929 175.367402,113.145929 C174.254639,113.145929 173.566483,112.830609 173.156517,112.169939 L173.156517,115.908731 L172.351228,115.908731 L172.351228,105.548223 L173.156517,105.548223 L173.156517,106.494183 C173.566483,105.818497 174.254639,105.458132 175.367402,105.458132 C177.182962,105.458132 178.222517,106.614305 178.222517,108.746467 Z M175.308835,112.380152 C176.714431,112.380152 177.417228,111.404162 177.417228,109.827563 L177.417228,108.746467 C177.417228,107.109807 176.699789,106.223909 175.308835,106.223909 C173.756824,106.223909 173.156517,107.184883 173.156517,108.656376 L173.156517,109.962701 C173.171159,111.374132 173.698257,112.380152 175.308835,112.380152 Z M182.117188,106.314 L182.117188,105.548223 L183.054251,105.548223 L183.054251,103.896548 L183.85954,103.896548 L183.85954,105.548223 L185.66046,105.548223 L185.66046,106.314 L183.85954,106.314 L183.85954,110.518264 C183.85954,111.719482 183.991315,112.26003 185.177286,112.26003 L185.66046,112.26003 L185.66046,113.055838 L185.148003,113.055838 C183.522783,113.055838 183.054251,112.305076 183.054251,110.743492 L183.054251,106.314 L182.117188,106.314 Z M192.373642,109.842579 C192.373642,111.88465 191.36337,113.145929 189.401393,113.145929 C187.512624,113.145929 186.429145,111.944711 186.429145,109.842579 L186.429145,108.746467 C186.429145,106.614305 187.527266,105.458132 189.401393,105.458132 C191.27552,105.458132 192.373642,106.614305 192.373642,108.746467 L192.373642,109.842579 Z M191.568353,109.842579 L191.568353,108.746467 C191.568353,107.109807 190.792347,106.223909 189.401393,106.223909 C187.995798,106.223909 187.234434,107.109807 187.234434,108.746467 L187.234434,109.842579 C187.234434,111.419178 187.92259,112.380152 189.401393,112.380152 C190.82163,112.380152 191.568353,111.419178 191.568353,109.842579 Z M202.344584,112.245015 L202.344584,113.055838 L196.561145,113.055838 L196.561145,112.335107 L200.192266,107.95066 C201.070763,106.884579 201.524653,106.163848 201.524653,105.383056 C201.524653,104.076731 200.543665,103.416061 199.548035,103.416061 C198.464555,103.416061 197.600699,104.091746 197.556775,105.383056 L196.722202,105.383056 C196.722202,103.67132 197.996023,102.605239 199.548035,102.605239 C201.114688,102.605239 202.373867,103.67132 202.373867,105.443117 C202.373867,106.62932 201.436803,107.665371 200.660798,108.626345 L197.703191,112.245015 L202.344584,112.245015 Z M209.072408,105.593269 L209.072408,110.157898 C209.072408,112.064832 207.769303,113.145929 206.246575,113.145929 C204.723847,113.145929 203.420743,112.064832 203.420743,110.142883 L203.420743,105.608284 C203.420743,103.686335 204.723847,102.605239 206.246575,102.605239 C207.769303,102.605239 209.072408,103.686335 209.072408,105.593269 Z M208.223194,105.593269 C208.223194,104.241898 207.359338,103.416061 206.246575,103.416061 C205.119171,103.416061 204.255315,104.241898 204.255315,105.593269 L204.255315,110.157898 C204.255315,111.509269 205.119171,112.335107 206.246575,112.335107 C207.359338,112.335107 208.223194,111.509269 208.223194,110.157898 L208.223194,105.593269 Z M216.986202,102.69533 L217.850058,102.69533 L212.213035,113.055838 L211.334538,113.055838 L216.986202,102.69533 Z M211.803069,107.244944 C212.769416,107.244944 213.16474,106.539228 213.16474,105.638315 L213.16474,104.857523 C213.16474,103.821472 212.666925,103.280924 211.803069,103.280924 C210.953855,103.280924 210.45604,103.821472 210.45604,104.857523 L210.45604,105.638315 C210.45604,106.539228 210.807439,107.244944 211.803069,107.244944 Z M211.803069,107.920629 C210.499965,107.920629 209.767884,107.094792 209.767884,105.638315 L209.767884,104.842508 C209.767884,103.38603 210.529249,102.590223 211.803069,102.590223 C213.091532,102.590223 213.838254,103.38603 213.838254,104.842508 L213.838254,105.638315 C213.838254,107.049746 213.179381,107.920629 211.803069,107.920629 Z M217.542584,112.470244 C218.508931,112.470244 218.904254,111.764528 218.904254,110.863614 L218.904254,110.082822 C218.904254,109.046772 218.406439,108.506223 217.542584,108.506223 C216.69337,108.506223 216.195555,109.046772 216.195555,110.082822 L216.195555,110.863614 C216.195555,111.764528 216.546954,112.470244 217.542584,112.470244 Z M217.542584,113.145929 C216.23948,113.145929 215.507399,112.320091 215.507399,110.863614 L215.507399,110.067807 C215.507399,108.61133 216.268763,107.815523 217.542584,107.815523 C218.831046,107.815523 219.577769,108.61133 219.577769,110.067807 L219.577769,110.863614 C219.577769,112.275046 218.918896,113.145929 217.542584,113.145929 Z" id="Up-to-20%"></path>
                            <path d="M82.4193931,134.343898 C80.2231503,134.343898 78.8321965,133.067604 78.8321965,130.019513 L78.8321965,123.893299 L79.6814104,123.893299 L79.6814104,130.019513 C79.6814104,132.421949 80.6477572,133.533076 82.4193931,133.533076 C84.1910289,133.533076 85.1573757,132.421949 85.1573757,130.019513 L85.1573757,123.893299 L86.0065896,123.893299 L86.0065896,130.019513 C86.0065896,133.067604 84.6156358,134.343898 82.4193931,134.343898 Z M93.8178931,129.944437 L93.8178931,131.025533 C93.8178931,133.082619 92.8661879,134.343898 90.9627775,134.343898 C89.8500144,134.343898 89.1618584,134.028579 88.7518931,133.367909 L88.7518931,137.106701 L87.946604,137.106701 L87.946604,126.746193 L88.7518931,126.746193 L88.7518931,127.692152 C89.1618584,127.016467 89.8500144,126.656102 90.9627775,126.656102 C92.7783381,126.656102 93.8178931,127.812274 93.8178931,129.944437 Z M90.904211,133.578122 C92.3098064,133.578122 93.012604,132.602132 93.012604,131.025533 L93.012604,129.944437 C93.012604,128.307777 92.2951647,127.421878 90.904211,127.421878 C89.3521994,127.421878 88.7518931,128.382853 88.7518931,129.854345 L88.7518931,131.16067 C88.7665347,132.572102 89.2936329,133.578122 90.904211,133.578122 Z M97.7125636,127.51197 L97.7125636,126.746193 L98.6496272,126.746193 L98.6496272,125.094518 L99.4549162,125.094518 L99.4549162,126.746193 L101.255835,126.746193 L101.255835,127.51197 L99.4549162,127.51197 L99.4549162,131.716234 C99.4549162,132.917452 99.5866907,133.458 100.772662,133.458 L101.255835,133.458 L101.255835,134.253807 L100.743379,134.253807 C99.118159,134.253807 98.6496272,133.503046 98.6496272,131.941462 L98.6496272,127.51197 L97.7125636,127.51197 Z M107.969017,131.040548 C107.969017,133.082619 106.958746,134.343898 104.996769,134.343898 C103.108,134.343898 102.02452,133.14268 102.02452,131.040548 L102.02452,129.944437 C102.02452,127.812274 103.122642,126.656102 104.996769,126.656102 C106.870896,126.656102 107.969017,127.812274 107.969017,129.944437 L107.969017,131.040548 Z M107.163728,131.040548 L107.163728,129.944437 C107.163728,128.307777 106.387723,127.421878 104.996769,127.421878 C103.591173,127.421878 102.829809,128.307777 102.829809,129.944437 L102.829809,131.040548 C102.829809,132.617147 103.517965,133.578122 104.996769,133.578122 C106.417006,133.578122 107.163728,132.617147 107.163728,131.040548 Z M115.743717,123.893299 L115.743717,134.253807 L114.894503,134.253807 L114.894503,124.944365 L113.444983,126.010447 L113.444983,125.034457 L114.894503,123.893299 L115.743717,123.893299 Z M121.812668,128.097563 C120.948812,128.097563 120.392431,128.653127 120.055673,129.283766 L119.294309,129.283766 L119.294309,123.893299 L124.27246,123.893299 L124.27246,124.764183 L120.11424,124.764183 L120.11424,128.127594 C120.48028,127.617076 121.095228,127.22668 121.944442,127.22668 C123.877136,127.22668 124.697066,128.683157 124.697066,131.010518 C124.697066,133.052589 123.686795,134.343898 121.812668,134.343898 C120.289939,134.343898 119.162535,133.217756 119.060043,131.79131 L119.894616,131.79131 C120.041032,132.857391 120.831679,133.533076 121.812668,133.533076 C123.057205,133.533076 123.847853,132.842376 123.847853,131.010518 C123.847853,129.118599 123.247546,128.097563 121.812668,128.097563 Z M132.581578,123.893299 L133.445434,123.893299 L127.80841,134.253807 L126.929913,134.253807 L132.581578,123.893299 Z M127.398445,128.442914 C128.364792,128.442914 128.760116,127.737198 128.760116,126.836284 L128.760116,126.055492 C128.760116,125.019442 128.262301,124.478893 127.398445,124.478893 C126.549231,124.478893 126.051416,125.019442 126.051416,126.055492 L126.051416,126.836284 C126.051416,127.737198 126.402815,128.442914 127.398445,128.442914 Z M127.398445,129.118599 C126.095341,129.118599 125.36326,128.292761 125.36326,126.836284 L125.36326,126.040477 C125.36326,124.584 126.124624,123.788193 127.398445,123.788193 C128.686908,123.788193 129.43363,124.584 129.43363,126.040477 L129.43363,126.836284 C129.43363,128.247716 128.774757,129.118599 127.398445,129.118599 Z M133.13796,133.668213 C134.104306,133.668213 134.49963,132.962497 134.49963,132.061584 L134.49963,131.280792 C134.49963,130.244741 134.001815,129.704193 133.13796,129.704193 C132.288746,129.704193 131.790931,130.244741 131.790931,131.280792 L131.790931,132.061584 C131.790931,132.962497 132.142329,133.668213 133.13796,133.668213 Z M133.13796,134.343898 C131.834855,134.343898 131.102775,133.518061 131.102775,132.061584 L131.102775,131.265777 C131.102775,129.809299 131.864139,129.013492 133.13796,129.013492 C134.426422,129.013492 135.173145,129.809299 135.173145,131.265777 L135.173145,132.061584 C135.173145,133.473015 134.514272,134.343898 133.13796,134.343898 Z" id="Up-to-15%"></path>
                            <path d="M4.04367052,170.557096 C1.84742775,170.557096 0.456473988,169.280802 0.456473988,166.232711 L0.456473988,160.106497 L1.30568786,160.106497 L1.30568786,166.232711 C1.30568786,168.635147 2.27203468,169.746274 4.04367052,169.746274 C5.81530636,169.746274 6.78165318,168.635147 6.78165318,166.232711 L6.78165318,160.106497 L7.63086705,160.106497 L7.63086705,166.232711 C7.63086705,169.280802 6.23991329,170.557096 4.04367052,170.557096 Z M15.4421705,166.157635 L15.4421705,167.238731 C15.4421705,169.295817 14.4904653,170.557096 12.5870549,170.557096 C11.4742919,170.557096 10.7861358,170.241777 10.3761705,169.581107 L10.3761705,173.319898 L9.5708815,173.319898 L9.5708815,162.959391 L10.3761705,162.959391 L10.3761705,163.90535 C10.7861358,163.229665 11.4742919,162.869299 12.5870549,162.869299 C14.4026156,162.869299 15.4421705,164.025472 15.4421705,166.157635 Z M12.5284884,169.79132 C13.9340838,169.79132 14.6368815,168.81533 14.6368815,167.238731 L14.6368815,166.157635 C14.6368815,164.520975 13.9194422,163.635076 12.5284884,163.635076 C10.9764769,163.635076 10.3761705,164.596051 10.3761705,166.067543 L10.3761705,167.373868 C10.3908121,168.785299 10.9179104,169.79132 12.5284884,169.79132 Z M19.336841,163.725168 L19.336841,162.959391 L20.2739046,162.959391 L20.2739046,161.307716 L21.0791936,161.307716 L21.0791936,162.959391 L22.8801127,162.959391 L22.8801127,163.725168 L21.0791936,163.725168 L21.0791936,167.929431 C21.0791936,169.13065 21.2109682,169.671198 22.3969393,169.671198 L22.8801127,169.671198 L22.8801127,170.467005 L22.3676561,170.467005 C20.7424364,170.467005 20.2739046,169.716244 20.2739046,168.15466 L20.2739046,163.725168 L19.336841,163.725168 Z M29.5932948,167.253746 C29.5932948,169.295817 28.5830231,170.557096 26.6210462,170.557096 C24.7322775,170.557096 23.6487977,169.355878 23.6487977,167.253746 L23.6487977,166.157635 C23.6487977,164.025472 24.7469191,162.869299 26.6210462,162.869299 C28.4951734,162.869299 29.5932948,164.025472 29.5932948,166.157635 L29.5932948,167.253746 Z M28.7880058,167.253746 L28.7880058,166.157635 C28.7880058,164.520975 28.012,163.635076 26.6210462,163.635076 C25.2154509,163.635076 24.4540867,164.520975 24.4540867,166.157635 L24.4540867,167.253746 C24.4540867,168.830345 25.1422428,169.79132 26.6210462,169.79132 C28.0412832,169.79132 28.7880058,168.830345 28.7880058,167.253746 Z M34.6446532,167.644142 C34.6446532,168.81533 35.5377919,169.746274 36.6944798,169.746274 C37.836526,169.746274 38.7443064,168.81533 38.7443064,167.644142 C38.7443064,166.412893 37.7633179,165.526995 36.6944798,165.526995 C35.611,165.526995 34.6446532,166.412893 34.6446532,167.644142 Z M34.7910694,162.779208 C34.7910694,163.860305 35.6256416,164.731188 36.6944798,164.731188 C37.7486763,164.731188 38.5978902,163.860305 38.5978902,162.779208 C38.5978902,161.698112 37.7486763,160.827228 36.6944798,160.827228 C35.6256416,160.827228 34.7910694,161.698112 34.7910694,162.779208 Z M33.7954393,167.644142 C33.7954393,166.472954 34.5128786,165.496964 35.4060173,165.106569 C34.5568035,164.701157 33.9418555,163.800244 33.9418555,162.779208 C33.9418555,161.172579 35.2156763,160.016406 36.6944798,160.016406 C38.1732832,160.016406 39.447104,161.172579 39.447104,162.779208 C39.447104,163.800244 38.8175144,164.701157 37.9683006,165.106569 C38.8760809,165.496964 39.5935202,166.472954 39.5935202,167.644142 C39.5935202,169.340863 38.2464913,170.557096 36.6944798,170.557096 C35.1424682,170.557096 33.7954393,169.340863 33.7954393,167.644142 Z M47.4341069,160.106497 L48.2979624,160.106497 L42.6609393,170.467005 L41.7824422,170.467005 L47.4341069,160.106497 Z M42.250974,164.656112 C43.2173208,164.656112 43.6126445,163.950396 43.6126445,163.049482 L43.6126445,162.26869 C43.6126445,161.23264 43.1148295,160.692091 42.250974,160.692091 C41.4017601,160.692091 40.9039451,161.23264 40.9039451,162.26869 L40.9039451,163.049482 C40.9039451,163.950396 41.2553439,164.656112 42.250974,164.656112 Z M42.250974,165.331797 C40.9478699,165.331797 40.215789,164.505959 40.215789,163.049482 L40.215789,162.253675 C40.215789,160.797198 40.9771532,160.001391 42.250974,160.001391 C43.5394364,160.001391 44.286159,160.797198 44.286159,162.253675 L44.286159,163.049482 C44.286159,164.460914 43.6272861,165.331797 42.250974,165.331797 Z M47.9904884,169.881411 C48.9568353,169.881411 49.352159,169.175695 49.352159,168.274782 L49.352159,167.49399 C49.352159,166.457939 48.8543439,165.917391 47.9904884,165.917391 C47.1412746,165.917391 46.6434595,166.457939 46.6434595,167.49399 L46.6434595,168.274782 C46.6434595,169.175695 46.9948584,169.881411 47.9904884,169.881411 Z M47.9904884,170.557096 C46.6873844,170.557096 45.9553035,169.731259 45.9553035,168.274782 L45.9553035,167.478975 C45.9553035,166.022497 46.7166676,165.22669 47.9904884,165.22669 C49.2789509,165.22669 50.0256734,166.022497 50.0256734,167.478975 L50.0256734,168.274782 C50.0256734,169.686213 49.3668006,170.557096 47.9904884,170.557096 Z" id="Up-to-8%"></path>
                        </g>
                    </g>
                </g>
            </g>
        </g>
    </g>
</svg>