<?xml version="1.0" encoding="UTF-8"?>
<svg width="430px" height="306px" viewBox="0 0 430 306" version="1.1" xmlns="http://www.w3.org/2000/svg" xmlns:xlink="http://www.w3.org/1999/xlink">
    <!-- Generator: Sketch 48.2 (47327) - http://www.bohemiancoding.com/sketch -->
    <title>Group 40</title>
    <desc>Created with Sketch.</desc>
    <defs>
        <linearGradient x1="35.6606276%" y1="55.580068%" x2="113.40917%" y2="55.580068%" id="linearGradient-1">
            <stop stop-color="#1490E0" offset="0%"></stop>
            <stop stop-color="#20F0FF" offset="100%"></stop>
        </linearGradient>
    </defs>
    <g id="alternate-3" stroke="none" stroke-width="1" fill="none" fill-rule="evenodd" transform="translate(-763.000000, -2525.000000)">
        <g id="Group-40" transform="translate(763.000000, 2523.000000)">
            <g id="Bar-Chart-2" transform="translate(0.000000, 37.000000)">
                <g id="chart-#s-and-lines">
                    <path d="M3.49830579,33.0129091 C2.79330579,33.0129091 2.31330579,33.3729091 2.02830579,33.7779091 L0.843305787,33.7779091 L0.843305787,28.3929091 L6.09330579,28.3929091 L6.09330579,29.6829091 L2.08830579,29.6829091 L2.08830579,32.3979091 C2.41830579,32.0229091 2.94330579,31.7229091 3.73830579,31.7229091 C5.65830579,31.7229091 6.52830579,33.1929091 6.52830579,35.5179091 C6.52830579,37.5579091 5.47830579,38.8629091 3.49830579,38.8629091 C1.89330579,38.8629091 0.708305787,37.7379091 0.603305787,36.3129091 L1.86330579,36.3129091 C2.05830579,37.1829091 2.65830579,37.6929091 3.49830579,37.6929091 C4.56330579,37.6929091 5.23830579,37.0779091 5.23830579,35.5179091 C5.23830579,33.8979091 4.72830579,33.0129091 3.49830579,33.0129091 Z M13.6683058,31.2579091 L13.6683058,35.8779091 C13.6683058,37.7829091 12.2583058,38.8629091 10.6983058,38.8629091 C9.13830577,38.8629091 7.72830577,37.7829091 7.72830577,35.8629091 L7.72830577,31.2729091 C7.72830577,29.3529091 9.13830577,28.2729091 10.6983058,28.2729091 C12.2583058,28.2729091 13.6683058,29.3529091 13.6683058,31.2579091 Z M12.3783058,31.2579091 C12.3783058,30.1479091 11.6283058,29.4429091 10.6983058,29.4429091 C9.75330577,29.4429091 9.00330577,30.1479091 9.00330577,31.2579091 L9.00330577,35.8779091 C9.00330577,36.9879091 9.75330577,37.6929091 10.6983058,37.6929091 C11.6283058,37.6929091 12.3783058,36.9879091 12.3783058,35.8779091 L12.3783058,31.2579091 Z M3.72330579,62.3929091 L4.99830579,62.3929091 L1.57830579,69.8929091 L4.56330579,69.8929091 L4.56330579,66.8479091 L5.85330579,66.8479091 L5.85330579,69.8929091 L6.79830579,69.8929091 L6.79830579,71.0629091 L5.85330579,71.0629091 L5.85330579,72.7429091 L4.56330579,72.7429091 L4.56330579,71.0629091 L0.0783057868,71.0629091 L0.0783057868,70.1179091 L3.72330579,62.3929091 Z M13.6683058,65.2579091 L13.6683058,69.8779091 C13.6683058,71.7829091 12.2583058,72.8629091 10.6983058,72.8629091 C9.13830577,72.8629091 7.72830577,71.7829091 7.72830577,69.8629091 L7.72830577,65.2729091 C7.72830577,63.3529091 9.13830577,62.2729091 10.6983058,62.2729091 C12.2583058,62.2729091 13.6683058,63.3529091 13.6683058,65.2579091 Z M12.3783058,65.2579091 C12.3783058,64.1479091 11.6283058,63.4429091 10.6983058,63.4429091 C9.75330577,63.4429091 9.00330577,64.1479091 9.00330577,65.2579091 L9.00330577,69.8779091 C9.00330577,70.9879091 9.75330577,71.6929091 10.6983058,71.6929091 C11.6283058,71.6929091 12.3783058,70.9879091 12.3783058,69.8779091 L12.3783058,65.2579091 Z M2.56830579,101.987909 L2.56830579,100.817909 L3.21330579,100.817909 C4.57830579,100.817909 5.16330579,100.112909 5.16330579,98.9879091 C5.16330579,98.1779091 4.50330579,97.4279091 3.48330579,97.4279091 C2.50830579,97.4279091 1.81830579,98.0729091 1.78830579,98.9129091 L0.528305787,98.9129091 C0.528305787,97.2779091 1.93830579,96.2729091 3.48330579,96.2729091 C5.20830579,96.2729091 6.45330579,97.4279091 6.45330579,99.0179091 C6.45330579,100.082909 5.85330579,100.922909 4.90830579,101.372909 C5.91330579,101.777909 6.60330579,102.602909 6.60330579,103.922909 C6.60330579,105.512909 5.41830579,106.862909 3.58830579,106.862909 C1.60830579,106.862909 0.498305787,105.707909 0.393305787,104.147909 L1.65330579,104.147909 C1.78830579,104.987909 2.35830579,105.692909 3.58830579,105.692909 C4.56330579,105.692909 5.31330579,104.942909 5.31330579,103.952909 C5.31330579,102.722909 4.59330579,101.987909 3.21330579,101.987909 L2.56830579,101.987909 Z M13.6683058,99.2579091 L13.6683058,103.877909 C13.6683058,105.782909 12.2583058,106.862909 10.6983058,106.862909 C9.13830577,106.862909 7.72830577,105.782909 7.72830577,103.862909 L7.72830577,99.2729091 C7.72830577,97.3529091 9.13830577,96.2729091 10.6983058,96.2729091 C12.2583058,96.2729091 13.6683058,97.3529091 13.6683058,99.2579091 Z M12.3783058,99.2579091 C12.3783058,98.1479091 11.6283058,97.4429091 10.6983058,97.4429091 C9.75330577,97.4429091 9.00330577,98.1479091 9.00330577,99.2579091 L9.00330577,103.877909 C9.00330577,104.987909 9.75330577,105.692909 10.6983058,105.692909 C11.6283058,105.692909 12.3783058,104.987909 12.3783058,103.877909 L12.3783058,99.2579091 Z M6.42330579,139.572909 L6.42330579,140.742909 L0.348305787,140.742909 L0.348305787,139.662909 L3.99330579,135.357909 C4.69830579,134.532909 5.16330579,133.827909 5.16330579,133.047909 C5.16330579,131.967909 4.33830579,131.427909 3.48330579,131.427909 C2.55330579,131.427909 1.81830579,131.982909 1.78830579,133.047909 L0.513305787,133.047909 C0.513305787,131.337909 1.86330579,130.272909 3.48330579,130.272909 C5.13330579,130.272909 6.45330579,131.337909 6.45330579,133.107909 C6.45330579,134.337909 5.55330579,135.327909 4.89330579,136.122909 L2.04330579,139.572909 L6.42330579,139.572909 Z M13.6683058,133.257909 L13.6683058,137.877909 C13.6683058,139.782909 12.2583058,140.862909 10.6983058,140.862909 C9.13830577,140.862909 7.72830577,139.782909 7.72830577,137.862909 L7.72830577,133.272909 C7.72830577,131.352909 9.13830577,130.272909 10.6983058,130.272909 C12.2583058,130.272909 13.6683058,131.352909 13.6683058,133.257909 Z M12.3783058,133.257909 C12.3783058,132.147909 11.6283058,131.442909 10.6983058,131.442909 C9.75330577,131.442909 9.00330577,132.147909 9.00330577,133.257909 L9.00330577,137.877909 C9.00330577,138.987909 9.75330577,139.692909 10.6983058,139.692909 C11.6283058,139.692909 12.3783058,138.987909 12.3783058,137.877909 L12.3783058,133.257909 Z M4.41330579,164.392909 L4.41330579,174.742909 L3.12330579,174.742909 L3.12330579,165.877909 L1.63830579,166.942909 L1.63830579,165.532909 L3.12330579,164.392909 L4.41330579,164.392909 Z M13.6683058,167.257909 L13.6683058,171.877909 C13.6683058,173.782909 12.2583058,174.862909 10.6983058,174.862909 C9.13830577,174.862909 7.72830577,173.782909 7.72830577,171.862909 L7.72830577,167.272909 C7.72830577,165.352909 9.13830577,164.272909 10.6983058,164.272909 C12.2583058,164.272909 13.6683058,165.352909 13.6683058,167.257909 Z M12.3783058,167.257909 C12.3783058,166.147909 11.6283058,165.442909 10.6983058,165.442909 C9.75330577,165.442909 9.00330577,166.147909 9.00330577,167.257909 L9.00330577,171.877909 C9.00330577,172.987909 9.75330577,173.692909 10.6983058,173.692909 C11.6283058,173.692909 12.3783058,172.987909 12.3783058,171.877909 L12.3783058,167.257909 Z M13.6683058,201.257909 L13.6683058,205.877909 C13.6683058,207.782909 12.2583058,208.862909 10.6983058,208.862909 C9.13830577,208.862909 7.72830577,207.782909 7.72830577,205.862909 L7.72830577,201.272909 C7.72830577,199.352909 9.13830577,198.272909 10.6983058,198.272909 C12.2583058,198.272909 13.6683058,199.352909 13.6683058,201.257909 Z M12.3783058,201.257909 C12.3783058,200.147909 11.6283058,199.442909 10.6983058,199.442909 C9.75330577,199.442909 9.00330577,200.147909 9.00330577,201.257909 L9.00330577,205.877909 C9.00330577,206.987909 9.75330577,207.692909 10.6983058,207.692909 C11.6283058,207.692909 12.3783058,206.987909 12.3783058,205.877909 L12.3783058,201.257909 Z" id="50-40-30-20-10-0" fill="#7792A6"></path>
                    <path d="M28.8577863,97.7610293 L430.226559,97.7610293" id="Line-Copy-4" stroke="#DEDEDE" stroke-linecap="square" stroke-dasharray="1,3"></path>
                    <path d="M28.9047968,1.76051372 L430.273569,1.76051372" id="Line-Copy-2" stroke="#DEDEDE" stroke-linecap="square" stroke-dasharray="1,3"></path>
                    <path d="M28.8577863,192.213149 L430.226559,192.213149" id="Line-Copy-5" stroke="#DEDEDE" stroke-linecap="square" stroke-dasharray="1,3"></path>
                    <path d="M28.8577863,144.212892 L430.226559,144.212892" id="Line-Copy-6" stroke="#DEDEDE" stroke-linecap="square" stroke-dasharray="1,3"></path>
                    <path d="M28.8577863,49.7607715 L430.226559,49.7607715" id="Line-Copy-3" stroke="#DEDEDE" stroke-linecap="square" stroke-dasharray="1,3"></path>
                    <path d="M28.8577863,240.213407 L430.226559,240.213407" id="Line-Copy-7" stroke="#DEDEDE" stroke-linecap="square" stroke-dasharray="1,3"></path>
                </g>
                <path d="M62.1713371,267.403971 L61.1793371,267.403971 L64.9553371,256.363971 L65.8193371,256.363971 L69.5953371,267.403971 L68.6193371,267.403971 L67.7073371,264.715971 L63.0673371,264.715971 L62.1713371,267.403971 Z M65.3873371,257.851971 L63.3553371,263.851971 L67.4193371,263.851971 L65.3873371,257.851971 Z M71.2802601,264.971971 L71.2802601,256.363971 L72.1602601,256.363971 L72.1602601,264.747971 C72.1602601,265.867971 72.2882601,266.603971 73.6802601,266.603971 L73.6802601,267.435971 C71.8402601,267.435971 71.2802601,266.635971 71.2802601,264.971971 Z M76.1651832,267.403971 L76.1651832,259.403971 L77.0451832,259.403971 L77.0451832,267.403971 L76.1651832,267.403971 Z M76.0691832,257.435971 L76.0691832,256.363971 L77.1411832,256.363971 L77.1411832,257.435971 L76.0691832,257.435971 Z M80.2021063,256.363971 L86.6981063,256.363971 L86.6981063,257.227971 L81.1301063,257.227971 L81.1301063,261.259971 L86.2181063,261.259971 L86.2181063,262.123971 L81.1301063,262.123971 L81.1301063,266.539971 L86.6981063,266.539971 L86.6981063,267.403971 L80.2021063,267.403971 L80.2021063,256.363971 Z M94.7190294,267.403971 L93.6630294,267.403971 L91.3430294,264.075971 L89.0070294,267.403971 L87.9670294,267.403971 L90.8310294,263.307971 L88.2070294,259.403971 L89.2470294,259.403971 L91.3430294,262.555971 L93.4230294,259.403971 L94.4790294,259.403971 L91.8550294,263.307971 L94.7190294,267.403971 Z M102.851952,262.811971 L102.851952,263.963971 C102.851952,266.155971 101.811952,267.499971 99.7319524,267.499971 C98.5159524,267.499971 97.7639524,267.163971 97.3159524,266.459971 L97.3159524,270.443971 L96.4359524,270.443971 L96.4359524,259.403971 L97.3159524,259.403971 L97.3159524,260.411971 C97.7639524,259.691971 98.5159524,259.307971 99.7319524,259.307971 C101.715952,259.307971 102.851952,260.539971 102.851952,262.811971 Z M99.6679524,266.683971 C101.203952,266.683971 101.971952,265.643971 101.971952,263.963971 L101.971952,262.811971 C101.971952,261.067971 101.187952,260.123971 99.6679524,260.123971 C97.9719524,260.123971 97.3159524,261.147971 97.3159524,262.715971 L97.3159524,264.107971 C97.3319524,265.611971 97.9079524,266.683971 99.6679524,266.683971 Z M107.864876,260.139971 C106.616876,260.139971 105.928876,261.131971 105.928876,262.587971 L105.928876,267.403971 L105.048876,267.403971 L105.048876,259.403971 L105.928876,259.403971 L105.928876,260.491971 C106.264876,259.755971 106.936876,259.307971 107.944876,259.307971 C108.984876,259.307971 109.672876,259.707971 110.200876,260.411971 L109.464876,260.955971 C109.048876,260.411971 108.568876,260.139971 107.864876,260.139971 Z M117.309799,263.627971 L112.013799,263.627971 L112.013799,263.963971 C112.013799,265.547971 112.749799,266.683971 114.445799,266.683971 C115.421799,266.683971 116.077799,266.395971 116.525799,265.707971 L117.229799,266.203971 C116.669799,267.083971 115.789799,267.499971 114.493799,267.499971 C112.365799,267.499971 111.133799,266.187971 111.133799,263.963971 L111.133799,262.811971 C111.133799,260.539971 112.221799,259.307971 114.221799,259.307971 C116.221799,259.307971 117.309799,260.539971 117.309799,262.811971 L117.309799,263.627971 Z M112.013799,262.811971 L112.013799,262.827971 L116.429799,262.827971 L116.429799,262.811971 C116.429799,261.067971 115.677799,260.123971 114.221799,260.123971 C112.765799,260.123971 112.013799,261.083971 112.013799,262.811971 Z M124.882722,260.635971 L124.210722,261.115971 C123.714722,260.411971 123.202722,260.139971 122.034722,260.139971 C120.962722,260.139971 120.146722,260.539971 120.146722,261.451971 C120.146722,262.571971 121.154722,262.795971 122.274722,262.939971 C123.826722,263.147971 125.122722,263.595971 125.122722,265.291971 C125.122722,266.539971 124.322722,267.499971 122.194722,267.499971 C120.610722,267.499971 119.778722,267.003971 119.186722,266.171971 L119.874722,265.691971 C120.354722,266.363971 120.962722,266.667971 122.210722,266.667971 C123.458722,266.667971 124.242722,266.267971 124.242722,265.307971 C124.242722,264.283971 123.442722,263.931971 121.858722,263.723971 C120.498722,263.547971 119.266722,263.083971 119.266722,261.467971 C119.266722,260.171971 120.242722,259.307971 122.050722,259.307971 C123.314722,259.307971 124.274722,259.643971 124.882722,260.635971 Z M132.535645,260.635971 L131.863645,261.115971 C131.367645,260.411971 130.855645,260.139971 129.687645,260.139971 C128.615645,260.139971 127.799645,260.539971 127.799645,261.451971 C127.799645,262.571971 128.807645,262.795971 129.927645,262.939971 C131.479645,263.147971 132.775645,263.595971 132.775645,265.291971 C132.775645,266.539971 131.975645,267.499971 129.847645,267.499971 C128.263645,267.499971 127.431645,267.003971 126.839645,266.171971 L127.527645,265.691971 C128.007645,266.363971 128.615645,266.667971 129.863645,266.667971 C131.111645,266.667971 131.895645,266.267971 131.895645,265.307971 C131.895645,264.283971 131.095645,263.931971 129.511645,263.723971 C128.151645,263.547971 126.919645,263.083971 126.919645,261.467971 C126.919645,260.171971 127.895645,259.307971 129.703645,259.307971 C130.967645,259.307971 131.927645,259.643971 132.535645,260.635971 Z M184.365799,263.627971 L179.069799,263.627971 L179.069799,263.963971 C179.069799,265.547971 179.805799,266.683971 181.501799,266.683971 C182.477799,266.683971 183.133799,266.395971 183.581799,265.707971 L184.285799,266.203971 C183.725799,267.083971 182.845799,267.499971 181.549799,267.499971 C179.421799,267.499971 178.189799,266.187971 178.189799,263.963971 L178.189799,262.811971 C178.189799,260.539971 179.277799,259.307971 181.277799,259.307971 C183.277799,259.307971 184.365799,260.539971 184.365799,262.811971 L184.365799,263.627971 Z M179.069799,262.811971 L179.069799,262.827971 L183.485799,262.827971 L183.485799,262.811971 C183.485799,261.067971 182.733799,260.123971 181.277799,260.123971 C179.821799,260.123971 179.069799,261.083971 179.069799,262.811971 Z M187.010722,256.363971 L190.274722,256.363971 C192.802722,256.363971 194.034722,257.339971 194.034722,259.163971 C194.034722,260.395971 193.202722,261.387971 192.130722,261.643971 C193.522722,261.947971 194.386722,262.875971 194.386722,264.331971 C194.386722,265.835971 193.410722,267.403971 190.658722,267.403971 L187.010722,267.403971 L187.010722,256.363971 Z M187.938722,262.107971 L187.938722,266.539971 L190.658722,266.539971 C192.562722,266.539971 193.458722,265.627971 193.458722,264.331971 C193.458722,262.843971 192.450722,262.107971 190.354722,262.107971 L187.938722,262.107971 Z M187.938722,257.227971 L187.938722,261.243971 L190.562722,261.243971 C192.354722,261.243971 193.106722,260.299971 193.106722,259.163971 C193.106722,258.043971 192.530722,257.227971 190.274722,257.227971 L187.938722,257.227971 Z M196.183645,265.115971 C196.183645,263.579971 197.255645,262.859971 198.903645,262.859971 L201.239645,262.859971 L201.239645,261.867971 C201.239645,260.507971 200.695645,260.139971 199.223645,260.139971 C198.263645,260.139971 197.639645,260.203971 197.127645,261.051971 L196.455645,260.587971 C197.015645,259.643971 197.815645,259.307971 199.239645,259.307971 C201.191645,259.307971 202.119645,259.915971 202.119645,261.867971 L202.119645,267.403971 L201.239645,267.403971 L201.239645,266.411971 C200.791645,267.259971 199.991645,267.499971 198.967645,267.499971 C197.191645,267.499971 196.183645,266.651971 196.183645,265.115971 Z M201.239645,264.427971 L201.239645,263.643971 L198.903645,263.643971 C197.527645,263.643971 197.063645,264.283971 197.063645,265.131971 C197.063645,266.251971 197.847645,266.667971 198.967645,266.667971 C200.263645,266.667971 201.239645,266.219971 201.239645,264.427971 Z M204.684568,270.443971 L204.684568,269.579971 C205.932568,269.579971 206.332568,269.163971 206.876568,267.627971 L206.908568,267.531971 L203.628568,259.403971 L204.588568,259.403971 L207.356568,266.251971 L209.724568,259.403971 L210.652568,259.403971 L207.756568,267.723971 C207.100568,269.643971 206.588568,270.443971 204.684568,270.443971 Z M263.660568,256.363971 L264.620568,256.363971 L266.844568,265.675971 L269.564568,256.363971 L270.508568,256.363971 L273.292568,265.531971 L275.484568,256.363971 L276.444568,256.363971 L273.740568,267.403971 L272.748568,267.403971 L270.044568,258.027971 L267.340568,267.403971 L266.364568,267.403971 L263.660568,256.363971 Z M277.409491,265.115971 C277.409491,263.579971 278.481491,262.859971 280.129491,262.859971 L282.465491,262.859971 L282.465491,261.867971 C282.465491,260.507971 281.921491,260.139971 280.449491,260.139971 C279.489491,260.139971 278.865491,260.203971 278.353491,261.051971 L277.681491,260.587971 C278.241491,259.643971 279.041491,259.307971 280.465491,259.307971 C282.417491,259.307971 283.345491,259.915971 283.345491,261.867971 L283.345491,267.403971 L282.465491,267.403971 L282.465491,266.411971 C282.017491,267.259971 281.217491,267.499971 280.193491,267.499971 C278.417491,267.499971 277.409491,266.651971 277.409491,265.115971 Z M282.465491,264.427971 L282.465491,263.643971 L280.129491,263.643971 C278.753491,263.643971 278.289491,264.283971 278.289491,265.131971 C278.289491,266.251971 279.073491,266.667971 280.193491,266.667971 C281.489491,266.667971 282.465491,266.219971 282.465491,264.427971 Z M285.942414,264.971971 L285.942414,256.363971 L286.822414,256.363971 L286.822414,264.747971 C286.822414,265.867971 286.950414,266.603971 288.342414,266.603971 L288.342414,267.435971 C286.502414,267.435971 285.942414,266.635971 285.942414,264.971971 Z M290.587337,267.403971 L290.587337,259.403971 L291.467337,259.403971 L291.467337,260.491971 C291.803337,259.755971 292.523337,259.307971 293.579337,259.307971 C294.715337,259.307971 295.547337,259.851971 295.963337,260.875971 C296.411337,259.867971 297.291337,259.307971 298.395337,259.307971 C300.075337,259.307971 301.099337,260.491971 301.099337,262.667971 L301.099337,267.403971 L300.219337,267.403971 L300.219337,262.683971 C300.219337,260.939971 299.451337,260.139971 298.299337,260.139971 C297.019337,260.139971 296.283337,261.083971 296.283337,262.491971 L296.283337,267.403971 L295.403337,267.403971 L295.403337,262.683971 C295.403337,260.939971 294.635337,260.139971 293.483337,260.139971 C292.171337,260.139971 291.467337,261.131971 291.467337,262.603971 L291.467337,267.403971 L290.587337,267.403971 Z M303.29626,265.115971 C303.29626,263.579971 304.36826,262.859971 306.01626,262.859971 L308.35226,262.859971 L308.35226,261.867971 C308.35226,260.507971 307.80826,260.139971 306.33626,260.139971 C305.37626,260.139971 304.75226,260.203971 304.24026,261.051971 L303.56826,260.587971 C304.12826,259.643971 304.92826,259.307971 306.35226,259.307971 C308.30426,259.307971 309.23226,259.915971 309.23226,261.867971 L309.23226,267.403971 L308.35226,267.403971 L308.35226,266.411971 C307.90426,267.259971 307.10426,267.499971 306.08026,267.499971 C304.30426,267.499971 303.29626,266.651971 303.29626,265.115971 Z M308.35226,264.427971 L308.35226,263.643971 L306.01626,263.643971 C304.64026,263.643971 304.17626,264.283971 304.17626,265.131971 C304.17626,266.251971 304.96026,266.667971 306.08026,266.667971 C307.37626,266.667971 308.35226,266.219971 308.35226,264.427971 Z M314.645183,260.139971 C313.397183,260.139971 312.709183,261.131971 312.709183,262.587971 L312.709183,267.403971 L311.829183,267.403971 L311.829183,259.403971 L312.709183,259.403971 L312.709183,260.491971 C313.045183,259.755971 313.717183,259.307971 314.725183,259.307971 C315.765183,259.307971 316.453183,259.707971 316.981183,260.411971 L316.245183,260.955971 C315.829183,260.411971 315.349183,260.139971 314.645183,260.139971 Z M317.674106,260.219971 L317.674106,259.403971 L318.698106,259.403971 L318.698106,257.643971 L319.578106,257.643971 L319.578106,259.403971 L321.546106,259.403971 L321.546106,260.219971 L319.578106,260.219971 L319.578106,264.699971 C319.578106,265.979971 319.722106,266.555971 321.018106,266.555971 L321.546106,266.555971 L321.546106,267.403971 L320.986106,267.403971 C319.210106,267.403971 318.698106,266.603971 318.698106,264.939971 L318.698106,260.219971 L317.674106,260.219971 Z M358.582414,267.403971 L357.590414,267.403971 L361.366414,256.363971 L362.230414,256.363971 L366.006414,267.403971 L365.030414,267.403971 L364.118414,264.715971 L359.478414,264.715971 L358.582414,267.403971 Z M361.798414,257.851971 L359.766414,263.851971 L363.830414,263.851971 L361.798414,257.851971 Z M367.691337,267.403971 L367.691337,259.403971 L368.571337,259.403971 L368.571337,260.491971 C368.907337,259.755971 369.627337,259.307971 370.683337,259.307971 C371.819337,259.307971 372.651337,259.851971 373.067337,260.875971 C373.515337,259.867971 374.395337,259.307971 375.499337,259.307971 C377.179337,259.307971 378.203337,260.491971 378.203337,262.667971 L378.203337,267.403971 L377.323337,267.403971 L377.323337,262.683971 C377.323337,260.939971 376.555337,260.139971 375.403337,260.139971 C374.123337,260.139971 373.387337,261.083971 373.387337,262.491971 L373.387337,267.403971 L372.507337,267.403971 L372.507337,262.683971 C372.507337,260.939971 371.739337,260.139971 370.587337,260.139971 C369.275337,260.139971 368.571337,261.131971 368.571337,262.603971 L368.571337,267.403971 L367.691337,267.403971 Z M380.40026,265.115971 C380.40026,263.579971 381.47226,262.859971 383.12026,262.859971 L385.45626,262.859971 L385.45626,261.867971 C385.45626,260.507971 384.91226,260.139971 383.44026,260.139971 C382.48026,260.139971 381.85626,260.203971 381.34426,261.051971 L380.67226,260.587971 C381.23226,259.643971 382.03226,259.307971 383.45626,259.307971 C385.40826,259.307971 386.33626,259.915971 386.33626,261.867971 L386.33626,267.403971 L385.45626,267.403971 L385.45626,266.411971 C385.00826,267.259971 384.20826,267.499971 383.18426,267.499971 C381.40826,267.499971 380.40026,266.651971 380.40026,265.115971 Z M385.45626,264.427971 L385.45626,263.643971 L383.12026,263.643971 C381.74426,263.643971 381.28026,264.283971 381.28026,265.131971 C381.28026,266.251971 382.06426,266.667971 383.18426,266.667971 C384.48026,266.667971 385.45626,266.219971 385.45626,264.427971 Z M388.533183,266.715971 L393.125183,260.219971 L388.533183,260.219971 L388.533183,259.403971 L394.277183,259.403971 L394.277183,260.091971 L389.717183,266.587971 L394.277183,266.587971 L394.277183,267.403971 L388.533183,267.403971 L388.533183,266.715971 Z M402.378106,263.979971 C402.378106,266.155971 401.274106,267.499971 399.130106,267.499971 C397.066106,267.499971 395.882106,266.219971 395.882106,263.979971 L395.882106,262.811971 C395.882106,260.539971 397.082106,259.307971 399.130106,259.307971 C401.178106,259.307971 402.378106,260.539971 402.378106,262.811971 L402.378106,263.979971 Z M401.498106,263.979971 L401.498106,262.811971 C401.498106,261.067971 400.650106,260.123971 399.130106,260.123971 C397.594106,260.123971 396.762106,261.067971 396.762106,262.811971 L396.762106,263.979971 C396.762106,265.659971 397.514106,266.683971 399.130106,266.683971 C400.682106,266.683971 401.498106,265.659971 401.498106,263.979971 Z M404.575029,267.403971 L404.575029,259.403971 L405.455029,259.403971 L405.455029,260.491971 C405.871029,259.723971 406.607029,259.307971 407.807029,259.307971 C409.583029,259.307971 410.751029,260.411971 410.751029,262.667971 L410.751029,267.403971 L409.871029,267.403971 L409.871029,262.683971 C409.871029,260.859971 408.959029,260.139971 407.711029,260.139971 C406.207029,260.139971 405.455029,261.131971 405.455029,262.603971 L405.455029,267.403971 L404.575029,267.403971 Z" id="AliExpress-eBay-Walm" fill="#3F6581"></path>
                <g id="bars" transform="translate(74.285787, 20.351082)" fill="url(#linearGradient-1)">
                    <rect id="Rectangle-6" transform="translate(22.578367, 203.061005) rotate(-270.000000) translate(-22.578367, -203.061005) " x="6.24355608" y="180.706176" width="32.6696217" height="44.7096582"></rect>
                    <rect id="Rectangle-6" transform="translate(117.818768, 183.820807) rotate(-270.000000) translate(-117.818768, -183.820807) " x="82.2187485" y="161.465977" width="71.2000398" height="44.7096582"></rect>
                    <rect id="Rectangle-6" transform="translate(214.520825, 168.978800) rotate(-270.000000) translate(-214.520825, -168.978800) " x="164.494333" y="146.62397" width="100.052984" height="44.7096582"></rect>
                    <rect id="Rectangle-6" transform="translate(309.041146, 110.201269) rotate(-270.000000) translate(-309.041146, -110.201269) " x="199.541898" y="88.621036" width="218.998497" height="43.1604671"></rect>
                </g>
            </g>
            <path d="M350.695,44.102 C348.145,44.102 346.53,42.657 346.53,39.206 L346.53,32.27 L347.516,32.27 L347.516,39.206 C347.516,41.926 348.638,43.184 350.695,43.184 C352.752,43.184 353.874,41.926 353.874,39.206 L353.874,32.27 L354.86,32.27 L354.86,39.206 C354.86,42.657 353.245,44.102 350.695,44.102 Z M363.9295,39.121 L363.9295,40.345 C363.9295,42.674 362.8245,44.102 360.6145,44.102 C359.3225,44.102 358.5235,43.745 358.0475,42.997 L358.0475,47.23 L357.1125,47.23 L357.1125,35.5 L358.0475,35.5 L358.0475,36.571 C358.5235,35.806 359.3225,35.398 360.6145,35.398 C362.7225,35.398 363.9295,36.707 363.9295,39.121 Z M360.5465,43.235 C362.1785,43.235 362.9945,42.13 362.9945,40.345 L362.9945,39.121 C362.9945,37.268 362.1615,36.265 360.5465,36.265 C358.7445,36.265 358.0475,37.353 358.0475,39.019 L358.0475,40.498 C358.0645,42.096 358.6765,43.235 360.5465,43.235 Z M368.4515,36.367 L368.4515,35.5 L369.5395,35.5 L369.5395,33.63 L370.4745,33.63 L370.4745,35.5 L372.5655,35.5 L372.5655,36.367 L370.4745,36.367 L370.4745,41.127 C370.4745,42.487 370.6275,43.099 372.0045,43.099 L372.5655,43.099 L372.5655,44 L371.9705,44 C370.0835,44 369.5395,43.15 369.5395,41.382 L369.5395,36.367 L368.4515,36.367 Z M380.36,40.362 C380.36,42.674 379.187,44.102 376.909,44.102 C374.716,44.102 373.458,42.742 373.458,40.362 L373.458,39.121 C373.458,36.707 374.733,35.398 376.909,35.398 C379.085,35.398 380.36,36.707 380.36,39.121 L380.36,40.362 Z M379.425,40.362 L379.425,39.121 C379.425,37.268 378.524,36.265 376.909,36.265 C375.277,36.265 374.393,37.268 374.393,39.121 L374.393,40.362 C374.393,42.147 375.192,43.235 376.909,43.235 C378.558,43.235 379.425,42.147 379.425,40.362 Z M389.115,32.27 L390.118,32.27 L386.072,40.974 L390.169,40.974 L390.169,37.319 L391.155,37.319 L391.155,40.974 L392.328,40.974 L392.328,41.892 L391.155,41.892 L391.155,44 L390.169,44 L390.169,41.892 L384.916,41.892 L384.916,41.161 L389.115,32.27 Z M396.4335,37.03 C395.4305,37.03 394.7845,37.659 394.3935,38.373 L393.5095,38.373 L393.5095,32.27 L399.2895,32.27 L399.2895,33.256 L394.4615,33.256 L394.4615,37.064 C394.8865,36.486 395.6005,36.044 396.5865,36.044 C398.8305,36.044 399.7825,37.693 399.7825,40.328 C399.7825,42.64 398.6095,44.102 396.4335,44.102 C394.6655,44.102 393.3565,42.827 393.2375,41.212 L394.2065,41.212 C394.3765,42.419 395.2945,43.184 396.4335,43.184 C397.8785,43.184 398.7965,42.402 398.7965,40.328 C398.7965,38.186 398.0995,37.03 396.4335,37.03 Z M408.937,32.27 L409.94,32.27 L403.395,44 L402.375,44 L408.937,32.27 Z M402.919,37.421 C404.041,37.421 404.5,36.622 404.5,35.602 L404.5,34.718 C404.5,33.545 403.922,32.933 402.919,32.933 C401.933,32.933 401.355,33.545 401.355,34.718 L401.355,35.602 C401.355,36.622 401.763,37.421 402.919,37.421 Z M402.919,38.186 C401.406,38.186 400.556,37.251 400.556,35.602 L400.556,34.701 C400.556,33.052 401.44,32.151 402.919,32.151 C404.415,32.151 405.282,33.052 405.282,34.701 L405.282,35.602 C405.282,37.2 404.517,38.186 402.919,38.186 Z M409.583,43.337 C410.705,43.337 411.164,42.538 411.164,41.518 L411.164,40.634 C411.164,39.461 410.586,38.849 409.583,38.849 C408.597,38.849 408.019,39.461 408.019,40.634 L408.019,41.518 C408.019,42.538 408.427,43.337 409.583,43.337 Z M409.583,44.102 C408.07,44.102 407.22,43.167 407.22,41.518 L407.22,40.617 C407.22,38.968 408.104,38.067 409.583,38.067 C411.079,38.067 411.946,38.968 411.946,40.617 L411.946,41.518 C411.946,43.116 411.181,44.102 409.583,44.102 Z" id="Up-to-45%" fill="#708CA1"></path>
            <path d="M259.695,160.102 C257.145,160.102 255.53,158.657 255.53,155.206 L255.53,148.27 L256.516,148.27 L256.516,155.206 C256.516,157.926 257.638,159.184 259.695,159.184 C261.752,159.184 262.874,157.926 262.874,155.206 L262.874,148.27 L263.86,148.27 L263.86,155.206 C263.86,158.657 262.245,160.102 259.695,160.102 Z M272.9295,155.121 L272.9295,156.345 C272.9295,158.674 271.8245,160.102 269.6145,160.102 C268.3225,160.102 267.5235,159.745 267.0475,158.997 L267.0475,163.23 L266.1125,163.23 L266.1125,151.5 L267.0475,151.5 L267.0475,152.571 C267.5235,151.806 268.3225,151.398 269.6145,151.398 C271.7225,151.398 272.9295,152.707 272.9295,155.121 Z M269.5465,159.235 C271.1785,159.235 271.9945,158.13 271.9945,156.345 L271.9945,155.121 C271.9945,153.268 271.1615,152.265 269.5465,152.265 C267.7445,152.265 267.0475,153.353 267.0475,155.019 L267.0475,156.498 C267.0645,158.096 267.6765,159.235 269.5465,159.235 Z M277.4515,152.367 L277.4515,151.5 L278.5395,151.5 L278.5395,149.63 L279.4745,149.63 L279.4745,151.5 L281.5655,151.5 L281.5655,152.367 L279.4745,152.367 L279.4745,157.127 C279.4745,158.487 279.6275,159.099 281.0045,159.099 L281.5655,159.099 L281.5655,160 L280.9705,160 C279.0835,160 278.5395,159.15 278.5395,157.382 L278.5395,152.367 L277.4515,152.367 Z M289.36,156.362 C289.36,158.674 288.187,160.102 285.909,160.102 C283.716,160.102 282.458,158.742 282.458,156.362 L282.458,155.121 C282.458,152.707 283.733,151.398 285.909,151.398 C288.085,151.398 289.36,152.707 289.36,155.121 L289.36,156.362 Z M288.425,156.362 L288.425,155.121 C288.425,153.268 287.524,152.265 285.909,152.265 C284.277,152.265 283.393,153.268 283.393,155.121 L283.393,156.362 C283.393,158.147 284.192,159.235 285.909,159.235 C287.558,159.235 288.425,158.147 288.425,156.362 Z M300.937,159.082 L300.937,160 L294.222,160 L294.222,159.184 L298.438,154.22 C299.458,153.013 299.985,152.197 299.985,151.313 C299.985,149.834 298.846,149.086 297.69,149.086 C296.432,149.086 295.429,149.851 295.378,151.313 L294.409,151.313 C294.409,149.375 295.888,148.168 297.69,148.168 C299.509,148.168 300.971,149.375 300.971,151.381 C300.971,152.724 299.883,153.897 298.982,154.985 L295.548,159.082 L300.937,159.082 Z M308.7485,151.551 L308.7485,156.719 C308.7485,158.878 307.2355,160.102 305.4675,160.102 C303.6995,160.102 302.1865,158.878 302.1865,156.702 L302.1865,151.568 C302.1865,149.392 303.6995,148.168 305.4675,148.168 C307.2355,148.168 308.7485,149.392 308.7485,151.551 Z M307.7625,151.551 C307.7625,150.021 306.7595,149.086 305.4675,149.086 C304.1585,149.086 303.1555,150.021 303.1555,151.551 L303.1555,156.719 C303.1555,158.249 304.1585,159.184 305.4675,159.184 C306.7595,159.184 307.7625,158.249 307.7625,156.719 L307.7625,151.551 Z M317.937,148.27 L318.94,148.27 L312.395,160 L311.375,160 L317.937,148.27 Z M311.919,153.421 C313.041,153.421 313.5,152.622 313.5,151.602 L313.5,150.718 C313.5,149.545 312.922,148.933 311.919,148.933 C310.933,148.933 310.355,149.545 310.355,150.718 L310.355,151.602 C310.355,152.622 310.763,153.421 311.919,153.421 Z M311.919,154.186 C310.406,154.186 309.556,153.251 309.556,151.602 L309.556,150.701 C309.556,149.052 310.44,148.151 311.919,148.151 C313.415,148.151 314.282,149.052 314.282,150.701 L314.282,151.602 C314.282,153.2 313.517,154.186 311.919,154.186 Z M318.583,159.337 C319.705,159.337 320.164,158.538 320.164,157.518 L320.164,156.634 C320.164,155.461 319.586,154.849 318.583,154.849 C317.597,154.849 317.019,155.461 317.019,156.634 L317.019,157.518 C317.019,158.538 317.427,159.337 318.583,159.337 Z M318.583,160.102 C317.07,160.102 316.22,159.167 316.22,157.518 L316.22,156.617 C316.22,154.968 317.104,154.067 318.583,154.067 C320.079,154.067 320.946,154.968 320.946,156.617 L320.946,157.518 C320.946,159.116 320.181,160.102 318.583,160.102 Z" id="Up-to-20%" fill="#708CA1"></path>
            <path d="M161.695,184.102 C159.145,184.102 157.53,182.657 157.53,179.206 L157.53,172.27 L158.516,172.27 L158.516,179.206 C158.516,181.926 159.638,183.184 161.695,183.184 C163.752,183.184 164.874,181.926 164.874,179.206 L164.874,172.27 L165.86,172.27 L165.86,179.206 C165.86,182.657 164.245,184.102 161.695,184.102 Z M174.9295,179.121 L174.9295,180.345 C174.9295,182.674 173.8245,184.102 171.6145,184.102 C170.3225,184.102 169.5235,183.745 169.0475,182.997 L169.0475,187.23 L168.1125,187.23 L168.1125,175.5 L169.0475,175.5 L169.0475,176.571 C169.5235,175.806 170.3225,175.398 171.6145,175.398 C173.7225,175.398 174.9295,176.707 174.9295,179.121 Z M171.5465,183.235 C173.1785,183.235 173.9945,182.13 173.9945,180.345 L173.9945,179.121 C173.9945,177.268 173.1615,176.265 171.5465,176.265 C169.7445,176.265 169.0475,177.353 169.0475,179.019 L169.0475,180.498 C169.0645,182.096 169.6765,183.235 171.5465,183.235 Z M179.4515,176.367 L179.4515,175.5 L180.5395,175.5 L180.5395,173.63 L181.4745,173.63 L181.4745,175.5 L183.5655,175.5 L183.5655,176.367 L181.4745,176.367 L181.4745,181.127 C181.4745,182.487 181.6275,183.099 183.0045,183.099 L183.5655,183.099 L183.5655,184 L182.9705,184 C181.0835,184 180.5395,183.15 180.5395,181.382 L180.5395,176.367 L179.4515,176.367 Z M191.36,180.362 C191.36,182.674 190.187,184.102 187.909,184.102 C185.716,184.102 184.458,182.742 184.458,180.362 L184.458,179.121 C184.458,176.707 185.733,175.398 187.909,175.398 C190.085,175.398 191.36,176.707 191.36,179.121 L191.36,180.362 Z M190.425,180.362 L190.425,179.121 C190.425,177.268 189.524,176.265 187.909,176.265 C186.277,176.265 185.393,177.268 185.393,179.121 L185.393,180.362 C185.393,182.147 186.192,183.235 187.909,183.235 C189.558,183.235 190.425,182.147 190.425,180.362 Z M200.387,172.27 L200.387,184 L199.401,184 L199.401,173.46 L197.718,174.667 L197.718,173.562 L199.401,172.27 L200.387,172.27 Z M207.4335,177.03 C206.4305,177.03 205.7845,177.659 205.3935,178.373 L204.5095,178.373 L204.5095,172.27 L210.2895,172.27 L210.2895,173.256 L205.4615,173.256 L205.4615,177.064 C205.8865,176.486 206.6005,176.044 207.5865,176.044 C209.8305,176.044 210.7825,177.693 210.7825,180.328 C210.7825,182.64 209.6095,184.102 207.4335,184.102 C205.6655,184.102 204.3565,182.827 204.2375,181.212 L205.2065,181.212 C205.3765,182.419 206.2945,183.184 207.4335,183.184 C208.8785,183.184 209.7965,182.402 209.7965,180.328 C209.7965,178.186 209.0995,177.03 207.4335,177.03 Z M219.937,172.27 L220.94,172.27 L214.395,184 L213.375,184 L219.937,172.27 Z M213.919,177.421 C215.041,177.421 215.5,176.622 215.5,175.602 L215.5,174.718 C215.5,173.545 214.922,172.933 213.919,172.933 C212.933,172.933 212.355,173.545 212.355,174.718 L212.355,175.602 C212.355,176.622 212.763,177.421 213.919,177.421 Z M213.919,178.186 C212.406,178.186 211.556,177.251 211.556,175.602 L211.556,174.701 C211.556,173.052 212.44,172.151 213.919,172.151 C215.415,172.151 216.282,173.052 216.282,174.701 L216.282,175.602 C216.282,177.2 215.517,178.186 213.919,178.186 Z M220.583,183.337 C221.705,183.337 222.164,182.538 222.164,181.518 L222.164,180.634 C222.164,179.461 221.586,178.849 220.583,178.849 C219.597,178.849 219.019,179.461 219.019,180.634 L219.019,181.518 C219.019,182.538 219.427,183.337 220.583,183.337 Z M220.583,184.102 C219.07,184.102 218.22,183.167 218.22,181.518 L218.22,180.617 C218.22,178.968 219.104,178.067 220.583,178.067 C222.079,178.067 222.946,178.968 222.946,180.617 L222.946,181.518 C222.946,183.116 222.181,184.102 220.583,184.102 Z" id="Up-to-15%" fill="#708CA1"></path>
            <path d="M70.695,225.102 C68.145,225.102 66.53,223.657 66.53,220.206 L66.53,213.27 L67.516,213.27 L67.516,220.206 C67.516,222.926 68.638,224.184 70.695,224.184 C72.752,224.184 73.874,222.926 73.874,220.206 L73.874,213.27 L74.86,213.27 L74.86,220.206 C74.86,223.657 73.245,225.102 70.695,225.102 Z M83.9295,220.121 L83.9295,221.345 C83.9295,223.674 82.8245,225.102 80.6145,225.102 C79.3225,225.102 78.5235,224.745 78.0475,223.997 L78.0475,228.23 L77.1125,228.23 L77.1125,216.5 L78.0475,216.5 L78.0475,217.571 C78.5235,216.806 79.3225,216.398 80.6145,216.398 C82.7225,216.398 83.9295,217.707 83.9295,220.121 Z M80.5465,224.235 C82.1785,224.235 82.9945,223.13 82.9945,221.345 L82.9945,220.121 C82.9945,218.268 82.1615,217.265 80.5465,217.265 C78.7445,217.265 78.0475,218.353 78.0475,220.019 L78.0475,221.498 C78.0645,223.096 78.6765,224.235 80.5465,224.235 Z M88.4515,217.367 L88.4515,216.5 L89.5395,216.5 L89.5395,214.63 L90.4745,214.63 L90.4745,216.5 L92.5655,216.5 L92.5655,217.367 L90.4745,217.367 L90.4745,222.127 C90.4745,223.487 90.6275,224.099 92.0045,224.099 L92.5655,224.099 L92.5655,225 L91.9705,225 C90.0835,225 89.5395,224.15 89.5395,222.382 L89.5395,217.367 L88.4515,217.367 Z M100.36,221.362 C100.36,223.674 99.187,225.102 96.909,225.102 C94.716,225.102 93.458,223.742 93.458,221.362 L93.458,220.121 C93.458,217.707 94.733,216.398 96.909,216.398 C99.085,216.398 100.36,217.707 100.36,220.121 L100.36,221.362 Z M99.425,221.362 L99.425,220.121 C99.425,218.268 98.524,217.265 96.909,217.265 C95.277,217.265 94.393,218.268 94.393,220.121 L94.393,221.362 C94.393,223.147 95.192,224.235 96.909,224.235 C98.558,224.235 99.425,223.147 99.425,221.362 Z M106.225,221.804 C106.225,223.13 107.262,224.184 108.605,224.184 C109.931,224.184 110.985,223.13 110.985,221.804 C110.985,220.41 109.846,219.407 108.605,219.407 C107.347,219.407 106.225,220.41 106.225,221.804 Z M106.395,216.296 C106.395,217.52 107.364,218.506 108.605,218.506 C109.829,218.506 110.815,217.52 110.815,216.296 C110.815,215.072 109.829,214.086 108.605,214.086 C107.364,214.086 106.395,215.072 106.395,216.296 Z M105.239,221.804 C105.239,220.478 106.072,219.373 107.109,218.931 C106.123,218.472 105.409,217.452 105.409,216.296 C105.409,214.477 106.888,213.168 108.605,213.168 C110.322,213.168 111.801,214.477 111.801,216.296 C111.801,217.452 111.07,218.472 110.084,218.931 C111.138,219.373 111.971,220.478 111.971,221.804 C111.971,223.725 110.407,225.102 108.605,225.102 C106.803,225.102 105.239,223.725 105.239,221.804 Z M121.0745,213.27 L122.0775,213.27 L115.5325,225 L114.5125,225 L121.0745,213.27 Z M115.0565,218.421 C116.1785,218.421 116.6375,217.622 116.6375,216.602 L116.6375,215.718 C116.6375,214.545 116.0595,213.933 115.0565,213.933 C114.0705,213.933 113.4925,214.545 113.4925,215.718 L113.4925,216.602 C113.4925,217.622 113.9005,218.421 115.0565,218.421 Z M115.0565,219.186 C113.5435,219.186 112.6935,218.251 112.6935,216.602 L112.6935,215.701 C112.6935,214.052 113.5775,213.151 115.0565,213.151 C116.5525,213.151 117.4195,214.052 117.4195,215.701 L117.4195,216.602 C117.4195,218.2 116.6545,219.186 115.0565,219.186 Z M121.7205,224.337 C122.8425,224.337 123.3015,223.538 123.3015,222.518 L123.3015,221.634 C123.3015,220.461 122.7235,219.849 121.7205,219.849 C120.7345,219.849 120.1565,220.461 120.1565,221.634 L120.1565,222.518 C120.1565,223.538 120.5645,224.337 121.7205,224.337 Z M121.7205,225.102 C120.2075,225.102 119.3575,224.167 119.3575,222.518 L119.3575,221.617 C119.3575,219.968 120.2415,219.067 121.7205,219.067 C123.2165,219.067 124.0835,219.968 124.0835,221.617 L124.0835,222.518 C124.0835,224.116 123.3185,225.102 121.7205,225.102 Z" id="Up-to-8%" fill="#708CA1"></path>
            <path d="M129.5082,4.47 L128.3022,5.334 C127.6362,4.47 126.9162,3.84 125.3502,3.84 C123.9102,3.84 122.9382,4.488 122.9382,5.784 C122.9382,7.26 124.0542,7.764 125.8722,8.088 C128.2662,8.502 129.7242,9.366 129.7242,11.67 C129.7242,13.29 128.6442,15.144 125.5482,15.144 C123.5322,15.144 122.0562,14.46 121.1202,13.11 L122.3982,12.228 C123.2082,13.182 123.9282,13.74 125.5482,13.74 C127.5822,13.74 128.1762,12.804 128.1762,11.742 C128.1762,10.572 127.5822,9.78 125.2422,9.42 C122.9022,9.06 121.3902,7.944 121.3902,5.784 C121.3902,4.002 122.5602,2.436 125.4042,2.436 C127.3842,2.436 128.6262,3.102 129.5082,4.47 Z M137.4174,12.84 L138.5334,13.632 C137.9034,14.73 136.9494,15.144 135.3834,15.144 C132.9714,15.144 131.5314,13.578 131.5314,11.076 L131.5314,9.888 C131.5314,7.332 132.7374,5.856 135.0954,5.856 C137.4714,5.856 138.6594,7.314 138.6594,9.888 L138.6594,10.824 L132.9714,10.824 L132.9714,11.076 C132.9714,12.624 133.7094,13.848 135.2754,13.848 C136.4454,13.848 137.0394,13.506 137.4174,12.84 Z M135.0954,7.152 C133.7094,7.152 133.0614,8.07 132.9714,9.564 L137.2014,9.564 C137.1294,8.052 136.4634,7.152 135.0954,7.152 Z M140.9886,12.228 L140.9886,2.58 L142.4286,2.58 L142.4286,11.868 C142.4286,12.84 142.4826,13.668 143.9586,13.668 L143.9586,15 C141.6906,15 140.9886,14.1 140.9886,12.228 Z M146.1438,12.228 L146.1438,2.58 L147.5838,2.58 L147.5838,11.868 C147.5838,12.84 147.6378,13.668 149.1138,13.668 L149.1138,15 C146.8458,15 146.1438,14.1 146.1438,12.228 Z M151.569,15 L151.569,6 L153.009,6 L153.009,15 L151.569,15 Z M151.479,4.2 L151.479,2.58 L153.099,2.58 L153.099,4.2 L151.479,4.2 Z M155.8422,15 L155.8422,6 L157.2822,6 L157.2822,6.882 C157.7322,6.198 158.3622,5.856 159.6942,5.856 C161.6202,5.856 162.9702,6.864 162.9702,9.384 L162.9702,15 L161.5302,15 L161.5302,9.402 C161.5302,7.584 160.5402,7.188 159.4782,7.188 C158.1282,7.188 157.2822,8.142 157.2822,9.384 L157.2822,15 L155.8422,15 Z M171.1314,6.9 L171.1314,6 L172.5714,6 L172.5714,14.82 C172.5714,17.322 171.1314,18.528 168.7194,18.528 C167.1534,18.528 166.1994,18.114 165.5694,17.016 L166.6854,16.224 C167.0634,16.89 167.6574,17.232 168.8274,17.232 C170.3934,17.232 171.1314,16.368 171.1314,14.82 L171.1314,14.208 C170.6454,14.838 169.8714,15.144 168.6834,15.144 C166.2354,15.144 165.0834,13.416 165.0834,11.076 L165.0834,9.888 C165.0834,7.314 166.4514,5.856 168.6834,5.856 C169.8714,5.856 170.6454,6.234 171.1314,6.9 Z M168.8274,13.848 C170.4834,13.848 171.1314,12.624 171.1314,11.076 L171.1314,9.888 C171.1314,8.196 170.3034,7.152 168.8274,7.152 C167.3514,7.152 166.5234,8.178 166.5234,9.888 L166.5234,11.076 C166.5234,12.606 167.2974,13.848 168.8274,13.848 Z M180.2178,2.58 L187.7058,2.58 L187.7058,3.984 L181.7658,3.984 L181.7658,8.16 L187.1658,8.16 L187.1658,9.564 L181.7658,9.564 L181.7658,15 L180.2178,15 L180.2178,2.58 Z M194.535,12.84 L195.651,13.632 C195.021,14.73 194.067,15.144 192.501,15.144 C190.089,15.144 188.649,13.578 188.649,11.076 L188.649,9.888 C188.649,7.332 189.855,5.856 192.213,5.856 C194.589,5.856 195.777,7.314 195.777,9.888 L195.777,10.824 L190.089,10.824 L190.089,11.076 C190.089,12.624 190.827,13.848 192.393,13.848 C193.563,13.848 194.157,13.506 194.535,12.84 Z M192.213,7.152 C190.827,7.152 190.179,8.07 190.089,9.564 L194.319,9.564 C194.247,8.052 193.581,7.152 192.213,7.152 Z M203.5422,12.84 L204.6582,13.632 C204.0282,14.73 203.0742,15.144 201.5082,15.144 C199.0962,15.144 197.6562,13.578 197.6562,11.076 L197.6562,9.888 C197.6562,7.332 198.8622,5.856 201.2202,5.856 C203.5962,5.856 204.7842,7.314 204.7842,9.888 L204.7842,10.824 L199.0962,10.824 L199.0962,11.076 C199.0962,12.624 199.8342,13.848 201.4002,13.848 C202.5702,13.848 203.1642,13.506 203.5422,12.84 Z M201.2202,7.152 C199.8342,7.152 199.1862,8.07 199.0962,9.564 L203.3262,9.564 C203.2542,8.052 202.5882,7.152 201.2202,7.152 Z M213.2514,7.35 L212.1714,8.106 C211.6854,7.476 211.1814,7.188 209.9394,7.188 C208.8774,7.188 208.1934,7.602 208.1934,8.394 C208.1934,9.42 209.0934,9.726 210.2814,9.816 C211.9734,9.942 213.5214,10.428 213.5214,12.498 C213.5214,14.064 212.4594,15.144 210.1374,15.144 C208.3014,15.144 207.3474,14.586 206.6634,13.65 L207.7254,12.894 C208.2114,13.542 208.8594,13.812 210.1554,13.812 C211.3614,13.812 212.0814,13.344 212.0814,12.534 C212.0814,11.562 211.5054,11.22 209.7594,11.094 C208.2474,10.986 206.7534,10.374 206.7534,8.412 C206.7534,6.918 207.8334,5.856 209.9754,5.856 C211.4334,5.856 212.5494,6.234 213.2514,7.35 Z M229.1418,6.45 L227.6298,6.45 C227.1978,4.506 226.2078,3.84 224.6778,3.84 C222.7698,3.84 221.7258,5.028 221.7258,8.106 L221.7258,9.474 C221.7258,12.552 222.7698,13.74 224.6778,13.74 C226.2978,13.74 227.2158,12.948 227.6298,11.13 L229.1238,11.13 C228.7278,13.92 227.0358,15.144 224.6778,15.144 C221.9238,15.144 220.1778,13.488 220.1778,9.474 L220.1778,8.106 C220.1778,4.092 221.9238,2.436 224.6778,2.436 C227.1258,2.436 228.7458,3.732 229.1418,6.45 Z M238.113,9.888 L238.113,11.076 C238.113,13.416 236.961,15.144 234.369,15.144 C231.975,15.144 230.625,13.56 230.625,11.076 L230.625,9.888 C230.625,7.332 232.011,5.856 234.369,5.856 C236.745,5.856 238.113,7.314 238.113,9.888 Z M234.369,13.848 C235.899,13.848 236.673,12.606 236.673,11.076 L236.673,9.888 C236.673,8.178 235.845,7.152 234.369,7.152 C232.893,7.152 232.065,8.196 232.065,9.888 L232.065,11.076 C232.065,12.624 232.713,13.848 234.369,13.848 Z M240.2262,15 L240.2262,6 L241.6662,6 L241.6662,6.882 C242.0622,6.27 242.7462,5.856 243.8982,5.856 C245.1042,5.856 246.0222,6.342 246.5262,7.278 C247.1382,6.324 248.1282,5.856 249.2262,5.856 C251.1522,5.856 252.3222,7.044 252.3222,9.384 L252.3222,15 L250.8822,15 L250.8822,9.402 C250.8822,7.764 250.0722,7.188 249.0102,7.188 C247.8582,7.188 246.9942,8.106 246.9942,9.384 L246.9942,15 L245.5542,15 L245.5542,9.402 C245.5542,7.764 244.7442,7.188 243.6822,7.188 C242.5122,7.188 241.6662,8.142 241.6662,9.384 L241.6662,15 L240.2262,15 Z M256.3254,6.9 C256.8114,6.234 257.5854,5.856 258.7734,5.856 C261.0054,5.856 262.3734,7.314 262.3734,9.888 L262.3734,11.076 C262.3734,13.416 261.2214,15.144 258.7734,15.144 C257.5854,15.144 256.8114,14.766 256.3254,14.1 L256.3254,18.42 L254.8854,18.42 L254.8854,6 L256.3254,6 L256.3254,6.9 Z M258.6294,13.848 C260.1594,13.848 260.9334,12.606 260.9334,11.076 L260.9334,9.888 C260.9334,8.178 260.1054,7.152 258.6294,7.152 C257.1894,7.152 256.3254,8.142 256.3254,9.762 L256.3254,11.076 C256.3254,12.624 256.9734,13.848 258.6294,13.848 Z M264.0366,12.372 C264.0366,10.428 265.4226,9.798 267.4026,9.798 L269.5446,9.798 L269.5446,8.754 C269.5446,7.476 268.9506,7.188 267.5466,7.188 C266.4666,7.188 265.8906,7.278 265.3866,8.106 L264.3066,7.35 C264.9366,6.306 265.8546,5.856 267.5646,5.856 C269.8506,5.856 270.9846,6.594 270.9846,8.754 L270.9846,15 L269.5446,15 L269.5446,14.118 C269.0406,14.946 268.4286,15.144 267.2586,15.144 C265.1706,15.144 264.0366,14.118 264.0366,12.372 Z M269.5446,11.544 L269.5446,11.022 L267.4026,11.022 C265.9806,11.022 265.4766,11.508 265.4766,12.408 C265.4766,13.416 266.1966,13.812 267.2586,13.812 C268.5906,13.812 269.5446,13.56 269.5446,11.544 Z M279.6498,7.08 L278.4258,7.944 C278.0478,7.422 277.5798,7.188 276.9138,7.188 C275.8158,7.188 274.9878,8.016 274.9878,9.366 L274.9878,15 L273.5478,15 L273.5478,6 L274.9878,6 L274.9878,6.882 C275.3658,6.252 275.9778,5.856 277.0758,5.856 C278.2998,5.856 279.0738,6.27 279.6498,7.08 Z M281.133,15 L281.133,6 L282.573,6 L282.573,15 L281.133,15 Z M281.043,4.2 L281.043,2.58 L282.663,2.58 L282.663,4.2 L281.043,4.2 Z M291.5442,7.35 L290.4642,8.106 C289.9782,7.476 289.4742,7.188 288.2322,7.188 C287.1702,7.188 286.4862,7.602 286.4862,8.394 C286.4862,9.42 287.3862,9.726 288.5742,9.816 C290.2662,9.942 291.8142,10.428 291.8142,12.498 C291.8142,14.064 290.7522,15.144 288.4302,15.144 C286.5942,15.144 285.6402,14.586 284.9562,13.65 L286.0182,12.894 C286.5042,13.542 287.1522,13.812 288.4482,13.812 C289.6542,13.812 290.3742,13.344 290.3742,12.534 C290.3742,11.562 289.7982,11.22 288.0522,11.094 C286.5402,10.986 285.0462,10.374 285.0462,8.412 C285.0462,6.918 286.1262,5.856 288.2682,5.856 C289.7262,5.856 290.8422,6.234 291.5442,7.35 Z M301.0554,9.888 L301.0554,11.076 C301.0554,13.416 299.9034,15.144 297.3114,15.144 C294.9174,15.144 293.5674,13.56 293.5674,11.076 L293.5674,9.888 C293.5674,7.332 294.9534,5.856 297.3114,5.856 C299.6874,5.856 301.0554,7.314 301.0554,9.888 Z M297.3114,13.848 C298.8414,13.848 299.6154,12.606 299.6154,11.076 L299.6154,9.888 C299.6154,8.178 298.7874,7.152 297.3114,7.152 C295.8354,7.152 295.0074,8.196 295.0074,9.888 L295.0074,11.076 C295.0074,12.624 295.6554,13.848 297.3114,13.848 Z M303.1686,15 L303.1686,6 L304.6086,6 L304.6086,6.882 C305.0586,6.198 305.6886,5.856 307.0206,5.856 C308.9466,5.856 310.2966,6.864 310.2966,9.384 L310.2966,15 L308.8566,15 L308.8566,9.402 C308.8566,7.584 307.8666,7.188 306.8046,7.188 C305.4546,7.188 304.6086,8.142 304.6086,9.384 L304.6086,15 L303.1686,15 Z" id="Selling-Fees-Compari" fill="#02AAE6"></path>
        </g>
    </g>
</svg>