<?xml version="1.0" encoding="UTF-8"?>
<svg width="466px" height="312px" viewBox="0 0 466 312" version="1.1" xmlns="http://www.w3.org/2000/svg" xmlns:xlink="http://www.w3.org/1999/xlink">
    <!-- Generator: Sketch 48.2 (47327) - http://www.bohemiancoding.com/sketch -->
    <title>item7</title>
    <desc>Created with Sketch.</desc>
    <defs>
        <path d="M142.448939,285.654035 C63.7765624,285.654035 0,221.708201 0,142.827017 C0,63.9458339 63.7765624,0 142.448939,0 C221.121316,0 284.897878,63.9458339 284.897878,142.827017 C284.897878,221.708201 221.121316,285.654035 142.448939,285.654035 Z M142.83921,225.392773 C188.102769,225.392773 224.796134,188.602019 224.796134,143.218324 C224.796134,97.8346297 188.102769,61.043876 142.83921,61.043876 C97.575651,61.043876 60.8822863,97.8346297 60.8822863,143.218324 C60.8822863,188.602019 97.575651,225.392773 142.83921,225.392773 Z" id="path-1"></path>
        <linearGradient x1="-38.2127232%" y1="45.5107495%" x2="82.2566106%" y2="74.4850852%" id="linearGradient-3">
            <stop stop-color="#00ACF0" offset="0%"></stop>
            <stop stop-color="#2CB6F7" offset="100%"></stop>
        </linearGradient>
        <linearGradient x1="35.6606276%" y1="55.580068%" x2="113.40917%" y2="55.580068%" id="linearGradient-4">
            <stop stop-color="#1490E0" offset="0%"></stop>
            <stop stop-color="#20F0FF" offset="100%"></stop>
        </linearGradient>
        <linearGradient x1="74.534899%" y1="16.7057966%" x2="74.534899%" y2="94.4543394%" id="linearGradient-5">
            <stop stop-color="#1490E0" offset="0%"></stop>
            <stop stop-color="#20F0FF" offset="100%"></stop>
        </linearGradient>
        <linearGradient x1="4.4408921e-14%" y1="50%" x2="138.507746%" y2="50%" id="linearGradient-6">
            <stop stop-color="#17EAD9" offset="0%"></stop>
            <stop stop-color="#6078EA" offset="100%"></stop>
        </linearGradient>
    </defs>
    <g id="alternate-3" stroke="none" stroke-width="1" fill="none" fill-rule="evenodd" transform="translate(-721.000000, -2218.000000)">
        <g id="SECITON:-PROBLEM" transform="translate(591.000000, 1932.000000)">
            <g id="item7" transform="translate(130.000000, 277.000000)">
                <g id="Group-2" transform="translate(109.000000, 0.000000)">
                    <mask id="mask-2" fill="white">
                        <use xlink:href="#path-1"></use>
                    </mask>
                    <g id="Mask"></g>
                    <g mask="url(#mask-2)">
                        <g transform="translate(40.959759, 9.126327)">
                            <ellipse id="Oval" fill="url(#linearGradient-3)" opacity="0.441179801" cx="101.950983" cy="133.667543" rx="101.865926" ry="102.212046"></ellipse>
                            <path d="M101.171948,252.480619 L101.171948,109.435415 L217.89967,109.435415 C219.515265,117.25875 220.364232,125.363666 220.364232,133.667543 C220.364232,199.287583 167.348814,252.483137 101.950983,252.483137 C101.691108,252.483137 101.431429,252.482297 101.171948,252.480619 Z" id="Combined-Shape" fill="#1E5F6F"></path>
                            <path d="M65.4310707,97.0357597 C65.4734913,97.0357196 65.5159166,97.0356996 65.5583465,97.0356996 C138.700658,97.0356996 197.994217,156.530726 197.994217,229.921561 C197.994217,230.234588 197.993139,230.547363 197.990985,230.859881 L145.008107,230.425759 C145.008107,230.425759 142.284847,231.920539 140.974073,232.748457 C84.6728111,268.309745 65.5583465,301.465424 65.5583465,301.465424 L65.4310707,97.0357554 Z" id="Combined-Shape" fill="url(#linearGradient-4)" transform="translate(131.712644, 199.250562) rotate(-270.000000) translate(-131.712644, -199.250562) "></path>
                            <path d="M105.723392,0.0770040874 C176.758286,2.48416268 233.607819,61.0234942 233.607819,132.885861 C233.607819,176.778848 212.399115,215.701445 179.703452,239.898876 L166.569686,228.158175 L106.495373,178.419693 L105.723366,0.0770031827 Z" id="Combined-Shape" fill="url(#linearGradient-5)"></path>
                        </g>
                    </g>
                </g>
                <polygon id="Line" fill="url(#linearGradient-6)" fill-rule="nonzero" points="0.987589618 148 0.987589618 147 163.149188 147 163.149188 148"></polygon>
                <path d="M429.875,88.75 L431.35,88.75 L425.4,101.55 L431.425,101.55 L431.425,96.175 L432.875,96.175 L432.875,101.55 L434.6,101.55 L434.6,102.9 L432.875,102.9 L432.875,106 L431.425,106 L431.425,102.9 L423.7,102.9 L423.7,101.825 L429.875,88.75 Z M440.26,97.775 L440.26,96.425 L441.21,96.425 C443.885,96.425 445.035,95.175 445.035,93.1 C445.035,91.4 443.71,89.95 441.66,89.95 C439.71,89.95 438.335,91.25 438.285,93 L436.86,93 C436.86,90.275 439.135,88.6 441.66,88.6 C444.46,88.6 446.485,90.525 446.485,93.125 C446.485,95.225 445.26,96.5 443.71,97.075 C445.46,97.675 446.735,99.125 446.735,101.325 C446.735,104.025 444.81,106.15 441.835,106.15 C438.61,106.15 436.81,104.225 436.635,101.625 L438.06,101.625 C438.285,103.475 439.435,104.8 441.835,104.8 C443.785,104.8 445.285,103.4 445.285,101.375 C445.285,99.15 443.885,97.775 441.21,97.775 L440.26,97.775 Z M461.02,88.75 L462.495,88.75 L452.87,106 L451.37,106 L461.02,88.75 Z M452.17,96.325 C453.82,96.325 454.495,95.15 454.495,93.65 L454.495,92.35 C454.495,90.625 453.645,89.725 452.17,89.725 C450.72,89.725 449.87,90.625 449.87,92.35 L449.87,93.65 C449.87,95.15 450.47,96.325 452.17,96.325 Z M452.17,97.45 C449.945,97.45 448.695,96.075 448.695,93.65 L448.695,92.325 C448.695,89.9 449.995,88.575 452.17,88.575 C454.37,88.575 455.645,89.9 455.645,92.325 L455.645,93.65 C455.645,96 454.52,97.45 452.17,97.45 Z M461.97,105.025 C463.62,105.025 464.295,103.85 464.295,102.35 L464.295,101.05 C464.295,99.325 463.445,98.425 461.97,98.425 C460.52,98.425 459.67,99.325 459.67,101.05 L459.67,102.35 C459.67,103.85 460.27,105.025 461.97,105.025 Z M461.97,106.15 C459.745,106.15 458.495,104.775 458.495,102.35 L458.495,101.025 C458.495,98.6 459.795,97.275 461.97,97.275 C464.17,97.275 465.445,98.6 465.445,101.025 L465.445,102.35 C465.445,104.7 464.32,106.15 461.97,106.15 Z" id="43%" fill="#02AAE6"></path>
                <path d="M9.81,170.528 C9.81,174.452 8.064,176.108 5.4,176.108 C2.736,176.108 0.99,174.452 0.99,170.528 L0.99,169.052 C0.99,165.146 2.736,163.472 5.4,163.472 C8.064,163.472 9.81,165.146 9.81,169.052 L9.81,170.528 Z M2.034,169.052 L2.034,170.528 C2.034,173.894 3.366,175.136 5.4,175.136 C7.434,175.136 8.766,173.894 8.766,170.528 L8.766,169.052 C8.766,165.704 7.434,164.444 5.4,164.444 C3.366,164.444 2.034,165.704 2.034,169.052 Z M11.518,167.918 L11.518,167 L12.67,167 L12.67,165.02 L13.66,165.02 L13.66,167 L15.874,167 L15.874,167.918 L13.66,167.918 L13.66,172.958 C13.66,174.398 13.822,175.046 15.28,175.046 L15.874,175.046 L15.874,176 L15.244,176 C13.246,176 12.67,175.1 12.67,173.228 L12.67,167.918 L11.518,167.918 Z M18.104,176 L18.104,163.58 L19.094,163.58 L19.094,168.224 C19.58,167.36 20.408,166.892 21.74,166.892 C23.738,166.892 25.052,168.134 25.052,170.672 L25.052,176 L24.062,176 L24.062,170.69 C24.062,168.638 23.036,167.828 21.632,167.828 C19.94,167.828 19.094,168.944 19.094,170.6 L19.094,176 L18.104,176 Z M34.32,171.752 L28.362,171.752 L28.362,172.13 C28.362,173.912 29.19,175.19 31.098,175.19 C32.196,175.19 32.934,174.866 33.438,174.092 L34.23,174.65 C33.6,175.64 32.61,176.108 31.152,176.108 C28.758,176.108 27.372,174.632 27.372,172.13 L27.372,170.834 C27.372,168.278 28.596,166.892 30.846,166.892 C33.096,166.892 34.32,168.278 34.32,170.834 L34.32,171.752 Z M28.362,170.834 L28.362,170.852 L33.33,170.852 L33.33,170.834 C33.33,168.872 32.484,167.81 30.846,167.81 C29.208,167.81 28.362,168.89 28.362,170.834 Z M39.952,167.828 C38.548,167.828 37.774,168.944 37.774,170.582 L37.774,176 L36.784,176 L36.784,167 L37.774,167 L37.774,168.224 C38.152,167.396 38.908,166.892 40.042,166.892 C41.212,166.892 41.986,167.342 42.58,168.134 L41.752,168.746 C41.284,168.134 40.744,167.828 39.952,167.828 Z M50.118,163.58 L54.258,171.842 L58.38,163.58 L59.406,163.58 L59.406,176 L58.362,176 L58.362,165.866 L54.708,173.228 L53.772,173.228 L50.154,165.884 L50.154,176 L49.11,176 L49.11,163.58 L50.118,163.58 Z M69.034,171.752 L63.076,171.752 L63.076,172.13 C63.076,173.912 63.904,175.19 65.812,175.19 C66.91,175.19 67.648,174.866 68.152,174.092 L68.944,174.65 C68.314,175.64 67.324,176.108 65.866,176.108 C63.472,176.108 62.086,174.632 62.086,172.13 L62.086,170.834 C62.086,168.278 63.31,166.892 65.56,166.892 C67.81,166.892 69.034,168.278 69.034,170.834 L69.034,171.752 Z M63.076,170.834 L63.076,170.852 L68.044,170.852 L68.044,170.834 C68.044,168.872 67.198,167.81 65.56,167.81 C63.922,167.81 63.076,168.89 63.076,170.834 Z M74.666,167.828 C73.262,167.828 72.488,168.944 72.488,170.582 L72.488,176 L71.498,176 L71.498,167 L72.488,167 L72.488,168.224 C72.866,167.396 73.622,166.892 74.756,166.892 C75.926,166.892 76.7,167.342 77.294,168.134 L76.466,168.746 C75.998,168.134 75.458,167.828 74.666,167.828 Z M84.258,174.092 L85.05,174.65 C84.456,175.604 83.394,176.108 81.99,176.108 C79.578,176.108 78.192,174.668 78.192,172.13 L78.192,170.834 C78.192,168.278 79.614,166.892 81.99,166.892 C83.304,166.892 84.366,167.36 85.032,168.278 L84.24,168.818 C83.736,168.134 82.89,167.81 81.99,167.81 C80.208,167.81 79.182,168.89 79.182,170.834 L79.182,172.13 C79.182,173.912 80.01,175.19 81.99,175.19 C82.908,175.19 83.754,174.884 84.258,174.092 Z M86.866,176 L86.866,163.58 L87.856,163.58 L87.856,168.224 C88.342,167.36 89.17,166.892 90.502,166.892 C92.5,166.892 93.814,168.134 93.814,170.672 L93.814,176 L92.824,176 L92.824,170.69 C92.824,168.638 91.798,167.828 90.394,167.828 C88.702,167.828 87.856,168.944 87.856,170.6 L87.856,176 L86.866,176 Z M96.134,173.426 C96.134,171.698 97.34,170.888 99.194,170.888 L101.822,170.888 L101.822,169.772 C101.822,168.242 101.21,167.828 99.554,167.828 C98.474,167.828 97.772,167.9 97.196,168.854 L96.44,168.332 C97.07,167.27 97.97,166.892 99.572,166.892 C101.768,166.892 102.812,167.576 102.812,169.772 L102.812,176 L101.822,176 L101.822,174.884 C101.318,175.838 100.418,176.108 99.266,176.108 C97.268,176.108 96.134,175.154 96.134,173.426 Z M101.822,172.652 L101.822,171.77 L99.194,171.77 C97.646,171.77 97.124,172.49 97.124,173.444 C97.124,174.704 98.006,175.172 99.266,175.172 C100.724,175.172 101.822,174.668 101.822,172.652 Z M105.582,176 L105.582,167 L106.572,167 L106.572,168.224 C107.04,167.36 107.868,166.892 109.218,166.892 C111.216,166.892 112.53,168.134 112.53,170.672 L112.53,176 L111.54,176 L111.54,170.69 C111.54,168.638 110.514,167.828 109.11,167.828 C107.418,167.828 106.572,168.944 106.572,170.6 L106.572,176 L105.582,176 Z M114.508,167.918 L114.508,167 L115.66,167 L115.66,165.02 L116.65,165.02 L116.65,167 L118.864,167 L118.864,167.918 L116.65,167.918 L116.65,172.958 C116.65,174.398 116.812,175.046 118.27,175.046 L118.864,175.046 L118.864,176 L118.234,176 C116.236,176 115.66,175.1 115.66,173.228 L115.66,167.918 L114.508,167.918 Z M126.998,168.386 L126.242,168.926 C125.684,168.134 125.108,167.828 123.794,167.828 C122.588,167.828 121.67,168.278 121.67,169.304 C121.67,170.564 122.804,170.816 124.064,170.978 C125.81,171.212 127.268,171.716 127.268,173.624 C127.268,175.028 126.368,176.108 123.974,176.108 C122.192,176.108 121.256,175.55 120.59,174.614 L121.364,174.074 C121.904,174.83 122.588,175.172 123.992,175.172 C125.396,175.172 126.278,174.722 126.278,173.642 C126.278,172.49 125.378,172.094 123.596,171.86 C122.066,171.662 120.68,171.14 120.68,169.322 C120.68,167.864 121.778,166.892 123.812,166.892 C125.234,166.892 126.314,167.27 126.998,168.386 Z" id="Other-Merchants" fill="#6E8697"></path>
                <polygon id="Path-2" fill="url(#linearGradient-6)" fill-rule="nonzero" points="362.454485 118.5 362.454485 117.5 463.545668 117.5 463.545668 118.5"></polygon>
                <path d="M403.332,146 L402.216,146 L406.464,133.58 L407.436,133.58 L411.684,146 L410.586,146 L409.56,142.976 L404.34,142.976 L403.332,146 Z M406.95,135.254 L404.664,142.004 L409.236,142.004 L406.95,135.254 Z M413.428,146 L413.428,137 L414.418,137 L414.418,138.224 C414.796,137.396 415.606,136.892 416.794,136.892 C418.072,136.892 419.008,137.504 419.476,138.656 C419.98,137.522 420.97,136.892 422.212,136.892 C424.102,136.892 425.254,138.224 425.254,140.672 L425.254,146 L424.264,146 L424.264,140.69 C424.264,138.728 423.4,137.828 422.104,137.828 C420.664,137.828 419.836,138.89 419.836,140.474 L419.836,146 L418.846,146 L418.846,140.69 C418.846,138.728 417.982,137.828 416.686,137.828 C415.21,137.828 414.418,138.944 414.418,140.6 L414.418,146 L413.428,146 Z M427.574,143.426 C427.574,141.698 428.78,140.888 430.634,140.888 L433.262,140.888 L433.262,139.772 C433.262,138.242 432.65,137.828 430.994,137.828 C429.914,137.828 429.212,137.9 428.636,138.854 L427.88,138.332 C428.51,137.27 429.41,136.892 431.012,136.892 C433.208,136.892 434.252,137.576 434.252,139.772 L434.252,146 L433.262,146 L433.262,144.884 C432.758,145.838 431.858,146.108 430.706,146.108 C428.708,146.108 427.574,145.154 427.574,143.426 Z M433.262,142.652 L433.262,141.77 L430.634,141.77 C429.086,141.77 428.564,142.49 428.564,143.444 C428.564,144.704 429.446,145.172 430.706,145.172 C432.164,145.172 433.262,144.668 433.262,142.652 Z M436.572,145.226 L441.738,137.918 L436.572,137.918 L436.572,137 L443.034,137 L443.034,137.774 L437.904,145.082 L443.034,145.082 L443.034,146 L436.572,146 L436.572,145.226 Z M451.996,142.148 C451.996,144.596 450.754,146.108 448.342,146.108 C446.02,146.108 444.688,144.668 444.688,142.148 L444.688,140.834 C444.688,138.278 446.038,136.892 448.342,136.892 C450.646,136.892 451.996,138.278 451.996,140.834 L451.996,142.148 Z M451.006,142.148 L451.006,140.834 C451.006,138.872 450.052,137.81 448.342,137.81 C446.614,137.81 445.678,138.872 445.678,140.834 L445.678,142.148 C445.678,144.038 446.524,145.19 448.342,145.19 C450.088,145.19 451.006,144.038 451.006,142.148 Z M454.316,146 L454.316,137 L455.306,137 L455.306,138.224 C455.774,137.36 456.602,136.892 457.952,136.892 C459.95,136.892 461.264,138.134 461.264,140.672 L461.264,146 L460.274,146 L460.274,140.69 C460.274,138.638 459.248,137.828 457.844,137.828 C456.152,137.828 455.306,138.944 455.306,140.6 L455.306,146 L454.316,146 Z" id="Amazon" fill="#6E8697"></path>
                <path d="M7.075,120.75 C5.6,120.75 4.65,121.675 4.075,122.725 L2.775,122.725 L2.775,113.75 L11.275,113.75 L11.275,115.2 L4.175,115.2 L4.175,120.8 C4.8,119.95 5.85,119.3 7.3,119.3 C10.6,119.3 12,121.725 12,125.6 C12,129 10.275,131.15 7.075,131.15 C4.475,131.15 2.55,129.275 2.375,126.9 L3.8,126.9 C4.05,128.675 5.4,129.8 7.075,129.8 C9.2,129.8 10.55,128.65 10.55,125.6 C10.55,122.45 9.525,120.75 7.075,120.75 Z M24.51,118.575 L24.51,126.175 C24.51,129.35 22.285,131.15 19.685,131.15 C17.085,131.15 14.86,129.35 14.86,126.15 L14.86,118.6 C14.86,115.4 17.085,113.6 19.685,113.6 C22.285,113.6 24.51,115.4 24.51,118.575 Z M23.06,118.575 C23.06,116.325 21.585,114.95 19.685,114.95 C17.76,114.95 16.285,116.325 16.285,118.575 L16.285,126.175 C16.285,128.425 17.76,129.8 19.685,129.8 C21.585,129.8 23.06,128.425 23.06,126.175 L23.06,118.575 Z M39.02,113.75 L40.495,113.75 L30.87,131 L29.37,131 L39.02,113.75 Z M30.17,121.325 C31.82,121.325 32.495,120.15 32.495,118.65 L32.495,117.35 C32.495,115.625 31.645,114.725 30.17,114.725 C28.72,114.725 27.87,115.625 27.87,117.35 L27.87,118.65 C27.87,120.15 28.47,121.325 30.17,121.325 Z M30.17,122.45 C27.945,122.45 26.695,121.075 26.695,118.65 L26.695,117.325 C26.695,114.9 27.995,113.575 30.17,113.575 C32.37,113.575 33.645,114.9 33.645,117.325 L33.645,118.65 C33.645,121 32.52,122.45 30.17,122.45 Z M39.97,130.025 C41.62,130.025 42.295,128.85 42.295,127.35 L42.295,126.05 C42.295,124.325 41.445,123.425 39.97,123.425 C38.52,123.425 37.67,124.325 37.67,126.05 L37.67,127.35 C37.67,128.85 38.27,130.025 39.97,130.025 Z M39.97,131.15 C37.745,131.15 36.495,129.775 36.495,127.35 L36.495,126.025 C36.495,123.6 37.795,122.275 39.97,122.275 C42.17,122.275 43.445,123.6 43.445,126.025 L43.445,127.35 C43.445,129.7 42.32,131.15 39.97,131.15 Z" id="50%" fill="#02AAE6"></path>
                <path d="M436.99,264.844 L435.586,264.844 L435.586,260.06 L445.414,260.06 L445.414,261.464 L439.486,278 L437.874,278 L443.828,261.464 L436.99,261.464 L436.99,264.844 Z M460.4784,260.06 L462.0124,260.06 L452.0024,278 L450.4424,278 L460.4784,260.06 Z M451.2744,267.938 C452.9904,267.938 453.6924,266.716 453.6924,265.156 L453.6924,263.804 C453.6924,262.01 452.8084,261.074 451.2744,261.074 C449.7664,261.074 448.8824,262.01 448.8824,263.804 L448.8824,265.156 C448.8824,266.716 449.5064,267.938 451.2744,267.938 Z M451.2744,269.108 C448.9604,269.108 447.6604,267.678 447.6604,265.156 L447.6604,263.778 C447.6604,261.256 449.0124,259.878 451.2744,259.878 C453.5624,259.878 454.8884,261.256 454.8884,263.778 L454.8884,265.156 C454.8884,267.6 453.7184,269.108 451.2744,269.108 Z M461.4664,276.986 C463.1824,276.986 463.8844,275.764 463.8844,274.204 L463.8844,272.852 C463.8844,271.058 463.0004,270.122 461.4664,270.122 C459.9584,270.122 459.0744,271.058 459.0744,272.852 L459.0744,274.204 C459.0744,275.764 459.6984,276.986 461.4664,276.986 Z M461.4664,278.156 C459.1524,278.156 457.8524,276.726 457.8524,274.204 L457.8524,272.826 C457.8524,270.304 459.2044,268.926 461.4664,268.926 C463.7544,268.926 465.0804,270.304 465.0804,272.826 L465.0804,274.204 C465.0804,276.648 463.9104,278.156 461.4664,278.156 Z" id="7%" fill="#02AAE6"></path>
                <polygon id="Path-2" fill="url(#linearGradient-6)" fill-rule="nonzero" transform="translate(375.823727, 270.927278) scale(1, -1) translate(-375.823727, -270.927278) " points="286.352547 290.354557 285.647453 289.645443 324.010383 251.5 466 251.5 466 252.5 324.422932 252.5"></polygon>
                <path d="M432.758,312.752 L426.8,312.752 L426.8,313.13 C426.8,314.912 427.628,316.19 429.536,316.19 C430.634,316.19 431.372,315.866 431.876,315.092 L432.668,315.65 C432.038,316.64 431.048,317.108 429.59,317.108 C427.196,317.108 425.81,315.632 425.81,313.13 L425.81,311.834 C425.81,309.278 427.034,307.892 429.284,307.892 C431.534,307.892 432.758,309.278 432.758,311.834 L432.758,312.752 Z M426.8,311.834 L426.8,311.852 L431.768,311.852 L431.768,311.834 C431.768,309.872 430.922,308.81 429.284,308.81 C427.646,308.81 426.8,309.89 426.8,311.834 Z M435.582,304.58 L439.254,304.58 C442.098,304.58 443.484,305.678 443.484,307.73 C443.484,309.116 442.548,310.232 441.342,310.52 C442.908,310.862 443.88,311.906 443.88,313.544 C443.88,315.236 442.782,317 439.686,317 L435.582,317 L435.582,304.58 Z M436.626,311.042 L436.626,316.028 L439.686,316.028 C441.828,316.028 442.836,315.002 442.836,313.544 C442.836,311.87 441.702,311.042 439.344,311.042 L436.626,311.042 Z M436.626,305.552 L436.626,310.07 L439.578,310.07 C441.594,310.07 442.44,309.008 442.44,307.73 C442.44,306.47 441.792,305.552 439.254,305.552 L436.626,305.552 Z M445.75,314.426 C445.75,312.698 446.956,311.888 448.81,311.888 L451.438,311.888 L451.438,310.772 C451.438,309.242 450.826,308.828 449.17,308.828 C448.09,308.828 447.388,308.9 446.812,309.854 L446.056,309.332 C446.686,308.27 447.586,307.892 449.188,307.892 C451.384,307.892 452.428,308.576 452.428,310.772 L452.428,317 L451.438,317 L451.438,315.884 C450.934,316.838 450.034,317.108 448.882,317.108 C446.884,317.108 445.75,316.154 445.75,314.426 Z M451.438,313.652 L451.438,312.77 L448.81,312.77 C447.262,312.77 446.74,313.49 446.74,314.444 C446.74,315.704 447.622,316.172 448.882,316.172 C450.34,316.172 451.438,315.668 451.438,313.652 Z M455.162,320.42 L455.162,319.448 C456.566,319.448 457.016,318.98 457.628,317.252 L457.664,317.144 L453.974,308 L455.054,308 L458.168,315.704 L460.832,308 L461.876,308 L458.618,317.36 C457.88,319.52 457.304,320.42 455.162,320.42 Z" id="eBay" fill="#6E8697"></path>
                <path d="M220.867,112.2 L220.867,126 L219.147,126 L219.147,112.2 L220.867,112.2 Z M224.315,126 L224.315,116 L225.915,116 L225.915,116.98 C226.415,116.22 227.115,115.84 228.595,115.84 C230.735,115.84 232.235,116.96 232.235,119.76 L232.235,126 L230.635,126 L230.635,119.78 C230.635,117.76 229.535,117.32 228.355,117.32 C226.855,117.32 225.915,118.38 225.915,119.76 L225.915,126 L224.315,126 Z M241.303,117 L241.303,112.2 L242.903,112.2 L242.903,126 L241.303,126 L241.303,125.12 C240.763,125.82 239.903,126.16 238.583,126.16 C235.863,126.16 234.583,124.24 234.583,121.64 L234.583,120.32 C234.583,117.46 236.103,115.84 238.583,115.84 C239.903,115.84 240.763,116.26 241.303,117 Z M238.743,124.72 C240.523,124.72 241.303,123.44 241.303,121.78 L241.303,120.32 C241.303,118.44 240.383,117.28 238.743,117.28 C237.103,117.28 236.183,118.42 236.183,120.32 L236.183,121.64 C236.183,123.34 237.043,124.72 238.743,124.72 Z M253.671,116 L253.671,126 L252.071,126 L252.071,125.02 C251.571,125.78 250.871,126.16 249.391,126.16 C247.251,126.16 245.751,125.04 245.751,122.24 L245.751,116 L247.351,116 L247.351,122.22 C247.351,124.24 248.451,124.68 249.631,124.68 C251.131,124.68 252.071,123.62 252.071,122.24 L252.071,116 L253.671,116 Z M263.339,117.5 L262.139,118.34 C261.599,117.64 261.039,117.32 259.659,117.32 C258.479,117.32 257.719,117.78 257.719,118.66 C257.719,119.8 258.719,120.14 260.039,120.24 C261.919,120.38 263.639,120.92 263.639,123.22 C263.639,124.96 262.459,126.16 259.879,126.16 C257.839,126.16 256.779,125.54 256.019,124.5 L257.199,123.66 C257.739,124.38 258.459,124.68 259.899,124.68 C261.239,124.68 262.039,124.16 262.039,123.26 C262.039,122.18 261.399,121.8 259.459,121.66 C257.779,121.54 256.119,120.86 256.119,118.68 C256.119,117.02 257.319,115.84 259.699,115.84 C261.319,115.84 262.559,116.26 263.339,117.5 Z M265.207,117.44 L265.207,116 L266.487,116 L266.487,113.8 L268.087,113.8 L268.087,116 L270.387,116 L270.387,117.44 L268.087,117.44 L268.087,122.52 C268.087,123.9 268.247,124.48 269.587,124.48 L270.387,124.48 L270.387,126 L269.527,126 C267.167,126 266.487,125 266.487,122.92 L266.487,117.44 L265.207,117.44 Z M279.415,117.2 L278.055,118.16 C277.635,117.58 277.115,117.32 276.375,117.32 C275.155,117.32 274.235,118.24 274.235,119.74 L274.235,126 L272.635,126 L272.635,116 L274.235,116 L274.235,116.98 C274.655,116.28 275.335,115.84 276.555,115.84 C277.915,115.84 278.775,116.3 279.415,117.2 Z M283.443,126.24 L283.483,126.1 L279.563,116 L281.283,116 L284.263,123.76 L286.883,116 L288.583,116 L285.063,126.32 C284.243,128.72 283.703,129.8 280.903,129.8 L280.903,128.24 C282.223,128.24 282.843,128.02 283.443,126.24 Z M215.257,136.2 L219.397,144.8 L223.517,136.2 L225.217,136.2 L225.217,150 L223.497,150 L223.497,139.88 L220.137,147.12 L218.597,147.12 L215.297,139.94 L215.297,150 L213.577,150 L213.577,136.2 L215.257,136.2 Z M236.285,144.32 L236.285,145.64 C236.285,148.24 235.005,150.16 232.125,150.16 C229.465,150.16 227.965,148.4 227.965,145.64 L227.965,144.32 C227.965,141.48 229.505,139.84 232.125,139.84 C234.765,139.84 236.285,141.46 236.285,144.32 Z M232.125,148.72 C233.825,148.72 234.685,147.34 234.685,145.64 L234.685,144.32 C234.685,142.42 233.765,141.28 232.125,141.28 C230.485,141.28 229.565,142.44 229.565,144.32 L229.565,145.64 C229.565,147.36 230.285,148.72 232.125,148.72 Z M238.633,150 L238.633,140 L240.233,140 L240.233,140.98 C240.733,140.22 241.433,139.84 242.913,139.84 C245.053,139.84 246.553,140.96 246.553,143.76 L246.553,150 L244.953,150 L244.953,143.78 C244.953,141.76 243.853,141.32 242.673,141.32 C241.173,141.32 240.233,142.38 240.233,143.76 L240.233,150 L238.633,150 Z M257.221,144.32 L257.221,145.64 C257.221,148.24 255.941,150.16 253.061,150.16 C250.401,150.16 248.901,148.4 248.901,145.64 L248.901,144.32 C248.901,141.48 250.441,139.84 253.061,139.84 C255.701,139.84 257.221,141.46 257.221,144.32 Z M253.061,148.72 C254.761,148.72 255.621,147.34 255.621,145.64 L255.621,144.32 C255.621,142.42 254.701,141.28 253.061,141.28 C251.421,141.28 250.501,142.44 250.501,144.32 L250.501,145.64 C250.501,147.36 251.221,148.72 253.061,148.72 Z M261.169,141 C261.709,140.26 262.569,139.84 263.889,139.84 C266.369,139.84 267.889,141.46 267.889,144.32 L267.889,145.64 C267.889,148.24 266.609,150.16 263.889,150.16 C262.569,150.16 261.709,149.74 261.169,149 L261.169,153.8 L259.569,153.8 L259.569,140 L261.169,140 L261.169,141 Z M263.729,148.72 C265.429,148.72 266.289,147.34 266.289,145.64 L266.289,144.32 C266.289,142.42 265.369,141.28 263.729,141.28 C262.129,141.28 261.169,142.38 261.169,144.18 L261.169,145.64 C261.169,147.36 261.889,148.72 263.729,148.72 Z M278.057,144.32 L278.057,145.64 C278.057,148.24 276.777,150.16 273.897,150.16 C271.237,150.16 269.737,148.4 269.737,145.64 L269.737,144.32 C269.737,141.48 271.277,139.84 273.897,139.84 C276.537,139.84 278.057,141.46 278.057,144.32 Z M273.897,148.72 C275.597,148.72 276.457,147.34 276.457,145.64 L276.457,144.32 C276.457,142.42 275.537,141.28 273.897,141.28 C272.257,141.28 271.337,142.44 271.337,144.32 L271.337,145.64 C271.337,147.36 272.057,148.72 273.897,148.72 Z M280.405,146.92 L280.405,136.2 L282.005,136.2 L282.005,146.52 C282.005,147.6 282.065,148.52 283.705,148.52 L283.705,150 C281.185,150 280.405,149 280.405,146.92 Z M288.813,150.24 L288.853,150.1 L284.933,140 L286.653,140 L289.633,147.76 L292.253,140 L293.953,140 L290.433,150.32 C289.613,152.72 289.073,153.8 286.273,153.8 L286.273,152.24 C287.593,152.24 288.213,152.02 288.813,150.24 Z" id="Industry-Monopoly" fill="#02AAE6"></path>
                <path d="M224.665,176.83 L224.665,178 L218.59,178 L218.59,176.92 L222.235,172.615 C222.94,171.79 223.405,171.085 223.405,170.305 C223.405,169.225 222.58,168.685 221.725,168.685 C220.795,168.685 220.06,169.24 220.03,170.305 L218.755,170.305 C218.755,168.595 220.105,167.53 221.725,167.53 C223.375,167.53 224.695,168.595 224.695,170.365 C224.695,171.595 223.795,172.585 223.135,173.38 L220.285,176.83 L224.665,176.83 Z M232.426,170.515 L232.426,175.135 C232.426,177.04 231.016,178.12 229.456,178.12 C227.896,178.12 226.486,177.04 226.486,175.12 L226.486,170.53 C226.486,168.61 227.896,167.53 229.456,167.53 C231.016,167.53 232.426,168.61 232.426,170.515 Z M231.136,170.515 C231.136,169.405 230.386,168.7 229.456,168.7 C228.511,168.7 227.761,169.405 227.761,170.515 L227.761,175.135 C227.761,176.245 228.511,176.95 229.456,176.95 C230.386,176.95 231.136,176.245 231.136,175.135 L231.136,170.515 Z M238.027,167.65 L238.027,178 L236.737,178 L236.737,169.135 L235.252,170.2 L235.252,168.79 L236.737,167.65 L238.027,167.65 Z M243.088,170.635 L241.918,170.635 L241.918,167.65 L247.738,167.65 L247.738,168.82 L244.453,178 L243.088,178 L246.388,168.82 L243.088,168.82 L243.088,170.635 Z M260.365,169.225 L259.36,169.945 C258.805,169.225 258.205,168.7 256.9,168.7 C255.7,168.7 254.89,169.24 254.89,170.32 C254.89,171.55 255.82,171.97 257.335,172.24 C259.33,172.585 260.545,173.305 260.545,175.225 C260.545,176.575 259.645,178.12 257.065,178.12 C255.385,178.12 254.155,177.55 253.375,176.425 L254.44,175.69 C255.115,176.485 255.715,176.95 257.065,176.95 C258.76,176.95 259.255,176.17 259.255,175.285 C259.255,174.31 258.76,173.65 256.81,173.35 C254.86,173.05 253.6,172.12 253.6,170.32 C253.6,168.835 254.575,167.53 256.945,167.53 C258.595,167.53 259.63,168.085 260.365,169.225 Z M262.051,175.81 C262.051,174.19 263.206,173.665 264.856,173.665 L266.641,173.665 L266.641,172.795 C266.641,171.73 266.146,171.49 264.976,171.49 C264.076,171.49 263.596,171.565 263.176,172.255 L262.276,171.625 C262.801,170.755 263.566,170.38 264.991,170.38 C266.896,170.38 267.841,170.995 267.841,172.795 L267.841,178 L266.641,178 L266.641,177.265 C266.221,177.955 265.711,178.12 264.736,178.12 C262.996,178.12 262.051,177.265 262.051,175.81 Z M266.641,175.12 L266.641,174.685 L264.856,174.685 C263.671,174.685 263.251,175.09 263.251,175.84 C263.251,176.68 263.851,177.01 264.736,177.01 C265.846,177.01 266.641,176.8 266.641,175.12 Z M269.977,175.69 L269.977,167.65 L271.177,167.65 L271.177,175.39 C271.177,176.2 271.222,176.89 272.452,176.89 L272.452,178 C270.562,178 269.977,177.25 269.977,175.69 Z M278.803,176.2 L279.733,176.86 C279.208,177.775 278.413,178.12 277.108,178.12 C275.098,178.12 273.898,176.815 273.898,174.73 L273.898,173.74 C273.898,171.61 274.903,170.38 276.868,170.38 C278.848,170.38 279.838,171.595 279.838,173.74 L279.838,174.52 L275.098,174.52 L275.098,174.73 C275.098,176.02 275.713,177.04 277.018,177.04 C277.993,177.04 278.488,176.755 278.803,176.2 Z M276.868,171.46 C275.713,171.46 275.173,172.225 275.098,173.47 L278.623,173.47 C278.563,172.21 278.008,171.46 276.868,171.46 Z M286.894,171.625 L285.994,172.255 C285.589,171.73 285.169,171.49 284.134,171.49 C283.249,171.49 282.679,171.835 282.679,172.495 C282.679,173.35 283.429,173.605 284.419,173.68 C285.829,173.785 287.119,174.19 287.119,175.915 C287.119,177.22 286.234,178.12 284.299,178.12 C282.769,178.12 281.974,177.655 281.404,176.875 L282.289,176.245 C282.694,176.785 283.234,177.01 284.314,177.01 C285.319,177.01 285.919,176.62 285.919,175.945 C285.919,175.135 285.439,174.85 283.984,174.745 C282.724,174.655 281.479,174.145 281.479,172.51 C281.479,171.265 282.379,170.38 284.164,170.38 C285.379,170.38 286.309,170.695 286.894,171.625 Z" id="2017-Sales" fill="#02AAE6"></path>
            </g>
        </g>
    </g>
</svg>