<?xml version="1.0" encoding="UTF-8"?>
<svg width="317px" height="221px" viewBox="0 0 317 221" version="1.1" xmlns="http://www.w3.org/2000/svg" xmlns:xlink="http://www.w3.org/1999/xlink">
    <!-- Generator: Sketch 50.2 (55047) - http://www.bohemiancoding.com/sketch -->
    <title>Group 12</title>
    <desc>Created with Sketch.</desc>
    <defs>
        <path d="M101,201 C45.2192403,201 0,156.004617 0,100.5 C0,44.9953826 45.2192403,0 101,0 C156.78076,0 202,44.9953826 202,100.5 C202,156.004617 156.78076,201 101,201 Z M101.276712,158.59726 C133.369752,158.59726 159.386301,132.709506 159.386301,100.775342 C159.386301,68.8411791 133.369752,42.9534247 101.276712,42.9534247 C69.1836725,42.9534247 43.1671233,68.8411791 43.1671233,100.775342 C43.1671233,132.709506 69.1836725,158.59726 101.276712,158.59726 Z" id="path-1"></path>
        <linearGradient x1="50%" y1="84.3038729%" x2="50%" y2="21.520787%" id="linearGradient-3">
            <stop stop-color="#FF8080" offset="0%"></stop>
            <stop stop-color="#FF6060" offset="38.6803294%"></stop>
            <stop stop-color="#C14E4E" offset="100%"></stop>
        </linearGradient>
        <linearGradient x1="50%" y1="-2.48949813e-15%" x2="50%" y2="100%" id="linearGradient-4">
            <stop stop-color="#FF8080" offset="0%"></stop>
            <stop stop-color="#FF4949" offset="100%"></stop>
        </linearGradient>
        <linearGradient x1="4.4408921e-14%" y1="50%" x2="138.507746%" y2="50%" id="linearGradient-5">
            <stop stop-color="#17EAD9" offset="0%"></stop>
            <stop stop-color="#6078EA" offset="100%"></stop>
        </linearGradient>
    </defs>
    <g id="Mobile" stroke="none" stroke-width="1" fill="none" fill-rule="evenodd">
        <g id="iPhone-for-DEv" transform="translate(-34.000000, -2540.000000)">
            <g id="Group-46" transform="translate(-176.000000, 1695.000000)">
                <g id="Group-19" transform="translate(199.000000, 59.000000)">
                    <g id="Group-12" transform="translate(11.000000, 781.000000)">
                        <g id="item7">
                            <g id="Group-2" transform="translate(52.000000, 0.000000)">
                                <mask id="mask-2" fill="white">
                                    <use xlink:href="#path-1"></use>
                                </mask>
                                <g id="Mask"></g>
                                <g mask="url(#mask-2)">
                                    <g transform="translate(28.857143, 5.770335)">
                                        <ellipse id="Oval" fill="#FF7878" opacity="0.605015851" cx="72.284573" cy="93.7111725" rx="72.2242664" ry="71.6584627"></ellipse>
                                        <path d="M71.7322274,177.008228 L71.7322274,76.7225973 L154.493701,76.7225973 C155.639178,82.2073538 156.241107,87.8895198 156.241107,93.7111725 C156.241107,139.71584 118.652486,177.009992 72.284573,177.009992 C72.1003185,177.009992 71.9162027,177.009404 71.7322274,177.008228 Z" id="Combined-Shape" fill="#1E5F6F"></path>
                                        <path d="M46.3914803,68.0294903 C46.4215571,68.0294622 46.4516371,68.0294482 46.4817205,68.0294482 C98.3405711,68.0294482 140.380476,109.740013 140.380476,161.192602 C140.380476,161.412058 140.379711,161.631337 140.378184,161.850436 L102.812634,161.546083 C102.812634,161.546083 100.881808,162.594039 99.9524516,163.174473 C60.0341245,188.105655 46.4817205,211.350323 46.4817205,211.350323 L46.3914803,68.0294873 Z" id="Combined-Shape" fill="url(#linearGradient-3)" transform="translate(93.385978, 139.689886) rotate(-270.000000) translate(-93.385978, -139.689886) "></path>
                                        <path d="M74.9592606,0.0539857557 C125.323924,1.74158806 165.630983,42.7821374 165.630983,93.1631539 C165.630983,123.935495 150.593736,151.223213 127.412085,168.187463 L118.100074,159.956334 L75.5066048,125.085853 L74.9592417,0.0539851214 Z" id="Combined-Shape" fill="url(#linearGradient-4)"></path>
                                    </g>
                                </g>
                            </g>
                            <polygon id="Line" fill="url(#linearGradient-5)" fill-rule="nonzero" points="0.80834568 103.5 0.80834568 102.5 91.0533816 102.5 91.0533816 103.5"></polygon>
                            <path d="M13,121.675 C13,122.495004 12.8575014,123.247497 12.5725,123.9325 C12.2874986,124.617503 11.8950025,125.207498 11.395,125.7025 C10.8949975,126.197502 10.3000035,126.582499 9.61,126.8575 C8.91999655,127.132501 8.17000405,127.27 7.36,127.27 C6.54999595,127.27 5.80250342,127.132501 5.1175,126.8575 C4.43249658,126.582499 3.8400025,126.197502 3.34,125.7025 C2.8399975,125.207498 2.4500014,124.617503 2.17,123.9325 C1.8899986,123.247497 1.75,122.495004 1.75,121.675 C1.75,120.844996 1.8899986,120.087503 2.17,119.4025 C2.4500014,118.717497 2.8399975,118.132502 3.34,117.6475 C3.8400025,117.162498 4.43249658,116.785001 5.1175,116.515 C5.80250342,116.244999 6.54999595,116.11 7.36,116.11 C8.17000405,116.11 8.91999655,116.244999 9.61,116.515 C10.3000035,116.785001 10.8949975,117.162498 11.395,117.6475 C11.8950025,118.132502 12.2874986,118.717497 12.5725,119.4025 C12.8575014,120.087503 13,120.844996 13,121.675 Z M11.395,121.675 C11.395,121.094997 11.3000009,120.547503 11.11,120.0325 C10.919999,119.517497 10.6500017,119.065002 10.3,118.675 C9.94999825,118.284998 9.52750248,117.977501 9.0325,117.7525 C8.53749753,117.527499 7.9800031,117.415 7.36,117.415 C6.74999695,117.415 6.19750248,117.527499 5.7025,117.7525 C5.20749753,117.977501 4.78750173,118.284998 4.4425,118.675 C4.09749827,119.065002 3.83000095,119.517497 3.64,120.0325 C3.44999905,120.547503 3.355,121.094997 3.355,121.675 C3.355,122.265003 3.44999905,122.819997 3.64,123.34 C3.83000095,123.860003 4.09999825,124.312498 4.45,124.6975 C4.80000175,125.082502 5.21999755,125.384999 5.71,125.605 C6.20000245,125.825001 6.74999695,125.935 7.36,125.935 C7.97000305,125.935 8.5249975,125.825001 9.025,125.605 C9.5250025,125.384999 9.94999825,125.082502 10.3,124.6975 C10.6500017,124.312498 10.919999,123.860003 11.11,123.34 C11.3000009,122.819997 11.395,122.265003 11.395,121.675 Z M18.6383333,121.045 L16.7483333,121.045 L16.7483333,124.75 C16.7483333,125.180002 16.8283325,125.487499 16.9883333,125.6725 C17.1483341,125.857501 17.4033316,125.95 17.7533333,125.95 C17.883334,125.95 18.0233326,125.935 18.1733333,125.905 C18.3233341,125.875 18.4583327,125.83 18.5783333,125.77 L18.6233333,126.925 C18.4533325,126.985 18.2658343,127.0325 18.0608333,127.0675 C17.8558323,127.1025 17.6433344,127.12 17.4233333,127.12 C16.75333,127.12 16.2408351,126.935002 15.8858333,126.565 C15.5308315,126.194998 15.3533333,125.640004 15.3533333,124.9 L15.3533333,121.045 L13.9883333,121.045 L13.9883333,119.89 L15.3533333,119.89 L15.3533333,117.85 L16.7483333,117.85 L16.7483333,119.89 L18.6383333,119.89 L18.6383333,121.045 Z M21.7716666,120.97 C21.9416675,120.619998 22.2316646,120.320001 22.6416666,120.07 C23.0516687,119.819999 23.5116641,119.695 24.0216666,119.695 C24.4816689,119.695 24.876665,119.772499 25.2066666,119.9275 C25.5366683,120.082501 25.8116655,120.289999 26.0316666,120.55 C26.2516677,120.810001 26.4141661,121.114998 26.5191666,121.465 C26.6241672,121.815002 26.6766666,122.189998 26.6766666,122.59 L26.6766666,127 L25.2666666,127 L25.2666666,123.07 C25.2666666,122.779999 25.2441669,122.505001 25.1991666,122.245 C25.1541664,121.984999 25.0716672,121.755001 24.9516666,121.555 C24.831666,121.354999 24.6691677,121.195001 24.4641666,121.075 C24.2591656,120.954999 23.9916683,120.895 23.6616666,120.895 C23.1016638,120.895 22.6416684,121.107498 22.2816666,121.5325 C21.9216648,121.957502 21.7416666,122.524996 21.7416666,123.235 L21.7416666,127 L20.3316666,127 L20.3316666,115.66 L21.7416666,115.66 L21.7416666,120.97 L21.7716666,120.97 Z M34.4749999,122.815 C34.4649999,122.534999 34.4175004,122.272501 34.3324999,122.0275 C34.2474995,121.782499 34.1225008,121.570001 33.9574999,121.39 C33.7924991,121.209999 33.5875012,121.067501 33.3424999,120.9625 C33.0974987,120.857499 32.8100016,120.805 32.4799999,120.805 C32.1799984,120.805 31.8975013,120.857499 31.6324999,120.9625 C31.3674986,121.067501 31.1375009,121.209999 30.9424999,121.39 C30.747499,121.570001 30.5875006,121.782499 30.4624999,122.0275 C30.3374993,122.272501 30.265,122.534999 30.2449999,122.815 L34.4749999,122.815 Z M35.8999999,123.385 L35.8999999,123.625 C35.8999999,123.705 35.895,123.785 35.8849999,123.865 L30.2449999,123.865 C30.255,124.165002 30.3224993,124.447499 30.4474999,124.7125 C30.5725006,124.977501 30.7399989,125.207499 30.9499999,125.4025 C31.160001,125.597501 31.4024986,125.749999 31.6774999,125.86 C31.9525013,125.970001 32.2449984,126.025 32.5549999,126.025 C33.0350023,126.025 33.4499982,125.920001 33.7999999,125.71 C34.1500017,125.499999 34.4249989,125.245002 34.6249999,124.945 L35.6149999,125.74 C35.234998,126.240003 34.7875025,126.607499 34.2724999,126.8425 C33.7574974,127.077501 33.1850031,127.195 32.5549999,127.195 C32.0149972,127.195 31.5150022,127.105001 31.0549999,126.925 C30.5949976,126.744999 30.2000016,126.492502 29.8699999,126.1675 C29.5399983,125.842498 29.2800009,125.450002 29.0899999,124.99 C28.899999,124.529998 28.8049999,124.020003 28.8049999,123.46 C28.8049999,122.909997 28.897499,122.402502 29.0824999,121.9375 C29.2675009,121.472498 29.5249983,121.075002 29.8549999,120.745 C30.1850016,120.414998 30.5749977,120.157501 31.0249999,119.9725 C31.4750022,119.787499 31.9599973,119.695 32.4799999,119.695 C33.0000025,119.695 33.4724978,119.779999 33.8974999,119.95 C34.3225021,120.120001 34.6824985,120.364998 34.9774999,120.685 C35.2725014,121.005002 35.4999991,121.392498 35.6599999,121.8475 C35.8200007,122.302502 35.8999999,122.814997 35.8999999,123.385 Z M38.0733333,121.42 C38.0733333,121.229999 38.0683333,120.985001 38.0583333,120.685 C38.0483332,120.384998 38.0333334,120.120001 38.0133333,119.89 L39.3483333,119.89 C39.3683334,120.070001 39.3833332,120.277499 39.3933333,120.5125 C39.4033333,120.747501 39.4083333,120.939999 39.4083333,121.09 L39.4533333,121.09 C39.6533343,120.669998 39.9458313,120.332501 40.3308333,120.0775 C40.7158352,119.822499 41.1483309,119.695 41.6283333,119.695 C41.8483344,119.695 42.0333325,119.715 42.1833333,119.755 L42.1233333,121.06 C41.9233323,121.01 41.7083344,120.985 41.4783333,120.985 C41.1383316,120.985 40.8433345,121.047499 40.5933333,121.1725 C40.343332,121.297501 40.1358341,121.464999 39.9708333,121.675 C39.8058324,121.885001 39.6833337,122.127499 39.6033333,122.4025 C39.5233329,122.677501 39.4833333,122.964999 39.4833333,123.265 L39.4833333,127 L38.0733333,127 L38.0733333,121.42 Z M7.78,142.54 L7.81,142.54 L10.945,134.38 L13.255,134.38 L13.255,145 L11.77,145 L11.77,136.12 L11.74,136.12 L8.215,145 L7.27,145 L3.76,136.12 L3.73,136.12 L3.73,145 L2.29,145 L2.29,134.38 L4.6,134.38 L7.78,142.54 Z M21.1733333,140.815 C21.1633333,140.534999 21.1158337,140.272501 21.0308333,140.0275 C20.9458329,139.782499 20.8208341,139.570001 20.6558333,139.39 C20.4908325,139.209999 20.2858345,139.067501 20.0408333,138.9625 C19.7958321,138.857499 19.508335,138.805 19.1783333,138.805 C18.8783318,138.805 18.5958346,138.857499 18.3308333,138.9625 C18.065832,139.067501 17.8358343,139.209999 17.6408333,139.39 C17.4458323,139.570001 17.2858339,139.782499 17.1608333,140.0275 C17.0358327,140.272501 16.9633334,140.534999 16.9433333,140.815 L21.1733333,140.815 Z M22.5983333,141.385 L22.5983333,141.625 C22.5983333,141.705 22.5933334,141.785 22.5833333,141.865 L16.9433333,141.865 C16.9533334,142.165001 17.0208327,142.447499 17.1458333,142.7125 C17.2708339,142.977501 17.4383323,143.207499 17.6483333,143.4025 C17.8583344,143.597501 18.1008319,143.749999 18.3758333,143.86 C18.6508347,143.970001 18.9433318,144.025 19.2533333,144.025 C19.7333357,144.025 20.1483316,143.920001 20.4983333,143.71 C20.8483351,143.499999 21.1233323,143.245002 21.3233333,142.945 L22.3133333,143.74 C21.9333314,144.240003 21.4858359,144.607499 20.9708333,144.8425 C20.4558307,145.077501 19.8833365,145.195 19.2533333,145.195 C18.7133306,145.195 18.2133356,145.105001 17.7533333,144.925 C17.293331,144.744999 16.898335,144.492502 16.5683333,144.1675 C16.2383317,143.842498 15.9783343,143.450002 15.7883333,142.99 C15.5983324,142.529998 15.5033333,142.020003 15.5033333,141.46 C15.5033333,140.909997 15.5958324,140.402502 15.7808333,139.9375 C15.9658342,139.472498 16.2233317,139.075002 16.5533333,138.745 C16.883335,138.414998 17.2733311,138.157501 17.7233333,137.9725 C18.1733356,137.787499 18.6583307,137.695 19.1783333,137.695 C19.6983359,137.695 20.1708312,137.779999 20.5958333,137.95 C21.0208354,138.120001 21.3808318,138.364998 21.6758333,138.685 C21.9708348,139.005002 22.1983325,139.392498 22.3583333,139.8475 C22.5183341,140.302502 22.5983333,140.814997 22.5983333,141.385 Z M24.7716666,139.42 C24.7716666,139.229999 24.7666667,138.985002 24.7566666,138.685 C24.7466666,138.384998 24.7316667,138.120001 24.7116666,137.89 L26.0466666,137.89 C26.0666667,138.070001 26.0816666,138.277499 26.0916666,138.5125 C26.1016667,138.747501 26.1066666,138.939999 26.1066666,139.09 L26.1516666,139.09 C26.3516676,138.669998 26.6441647,138.332501 27.0291666,138.0775 C27.4141686,137.822499 27.8466642,137.695 28.3266666,137.695 C28.5466677,137.695 28.7316659,137.715 28.8816666,137.755 L28.8216666,139.06 C28.6216656,139.01 28.4066678,138.985 28.1766666,138.985 C27.8366649,138.985 27.5416679,139.047499 27.2916666,139.1725 C27.0416654,139.297501 26.8341675,139.464999 26.6691666,139.675 C26.5041658,139.885001 26.381667,140.127499 26.3016666,140.4025 C26.2216662,140.677501 26.1816666,140.964999 26.1816666,141.265 L26.1816666,145 L24.7716666,145 L24.7716666,139.42 Z M35.1199999,139.69 C34.9699992,139.459999 34.7450014,139.267501 34.4449999,139.1125 C34.1449984,138.957499 33.8250016,138.88 33.4849999,138.88 C33.1149981,138.88 32.7875014,138.949999 32.5024999,139.09 C32.2174985,139.230001 31.9750009,139.417499 31.7749999,139.6525 C31.5749989,139.887501 31.4225005,140.159998 31.3174999,140.47 C31.2124994,140.780002 31.1599999,141.104998 31.1599999,141.445 C31.1599999,141.785002 31.2124994,142.109998 31.3174999,142.42 C31.4225005,142.730002 31.5749989,143.002499 31.7749999,143.2375 C31.9750009,143.472501 32.2199985,143.659999 32.5099999,143.8 C32.8000014,143.940001 33.1299981,144.01 33.4999999,144.01 C33.8600017,144.01 34.1874985,143.940001 34.4824999,143.8 C34.7775014,143.659999 35.019999,143.470001 35.2099999,143.23 L36.1549999,144.085 C35.8549984,144.435002 35.4800022,144.707499 35.0299999,144.9025 C34.5799977,145.097501 34.0700028,145.195 33.4999999,145.195 C32.9499972,145.195 32.4425023,145.105001 31.9774999,144.925 C31.5124976,144.744999 31.1100016,144.492502 30.7699999,144.1675 C30.4299982,143.842498 30.1625009,143.450002 29.9674999,142.99 C29.772499,142.529998 29.6749999,142.015003 29.6749999,141.445 C29.6749999,140.884997 29.769999,140.375002 29.9599999,139.915 C30.1500009,139.454998 30.4149982,139.060002 30.7549999,138.73 C31.0950016,138.399998 31.4974976,138.145001 31.9624999,137.965 C32.4275023,137.784999 32.9299972,137.695 33.4699999,137.695 C33.9700024,137.695 34.4674975,137.794999 34.9624999,137.995 C35.4575024,138.195001 35.8499985,138.484998 36.1399999,138.865 L35.1199999,139.69 Z M39.2283333,138.97 C39.3983341,138.619998 39.6883312,138.320001 40.0983333,138.07 C40.5083353,137.819999 40.9683307,137.695 41.4783333,137.695 C41.9383356,137.695 42.3333316,137.772499 42.6633333,137.9275 C42.9933349,138.082501 43.2683322,138.289999 43.4883333,138.55 C43.7083344,138.810001 43.8708327,139.114998 43.9758333,139.465 C44.0808338,139.815002 44.1333333,140.189998 44.1333333,140.59 L44.1333333,145 L42.7233333,145 L42.7233333,141.07 C42.7233333,140.779999 42.7008335,140.505001 42.6558333,140.245 C42.610833,139.984999 42.5283339,139.755001 42.4083333,139.555 C42.2883327,139.354999 42.1258343,139.195001 41.9208333,139.075 C41.7158322,138.954999 41.4483349,138.895 41.1183333,138.895 C40.5583305,138.895 40.0983351,139.107498 39.7383333,139.5325 C39.3783315,139.957502 39.1983333,140.524996 39.1983333,141.235 L39.1983333,145 L37.7883333,145 L37.7883333,133.66 L39.1983333,133.66 L39.1983333,138.97 L39.2283333,138.97 Z M51.1516666,140.395 C51.1516666,139.864997 50.9916682,139.472501 50.6716666,139.2175 C50.351665,138.962499 49.9266692,138.835 49.3966666,138.835 C48.9966646,138.835 48.6191683,138.912499 48.2641666,139.0675 C47.9091648,139.222501 47.6116678,139.419999 47.3716666,139.66 L46.6216666,138.76 C46.9716683,138.429998 47.399164,138.170001 47.9041666,137.98 C48.4091691,137.789999 48.9516637,137.695 49.5316666,137.695 C50.0416691,137.695 50.4841647,137.767499 50.8591666,137.9125 C51.2341684,138.057501 51.5416654,138.254999 51.7816666,138.505 C52.0216678,138.755001 52.201666,139.049998 52.3216666,139.39 C52.4416672,139.730002 52.5016666,140.094998 52.5016666,140.485 L52.5016666,143.59 C52.5016666,143.830001 52.5091665,144.082499 52.5241666,144.3475 C52.5391666,144.612501 52.5666664,144.829999 52.6066666,145 L51.3316666,145 C51.2516662,144.659998 51.2116666,144.320002 51.2116666,143.98 L51.1666666,143.98 C50.9066653,144.360002 50.5791685,144.654999 50.1841666,144.865 C49.7891646,145.075001 49.3216693,145.18 48.7816666,145.18 C48.5016652,145.18 48.2091681,145.1425 47.9041666,145.0675 C47.599165,144.9925 47.3216678,144.870001 47.0716666,144.7 C46.8216653,144.529999 46.6141674,144.305001 46.4491666,144.025 C46.2841657,143.744999 46.2016666,143.400002 46.2016666,142.99 C46.2016666,142.449997 46.3466651,142.022502 46.6366666,141.7075 C46.926668,141.392498 47.3066642,141.152501 47.7766666,140.9875 C48.2466689,140.822499 48.7766636,140.715 49.3666666,140.665 C49.9566695,140.615 50.5516636,140.59 51.1516666,140.59 L51.1516666,140.395 Z M50.8066666,141.61 C50.4566648,141.61 50.0941684,141.625 49.7191666,141.655 C49.3441647,141.685 49.0041681,141.745 48.6991666,141.835 C48.394165,141.925 48.1416676,142.059999 47.9416666,142.24 C47.7416656,142.420001 47.6416666,142.659999 47.6416666,142.96 C47.6416666,143.170001 47.6841661,143.344999 47.7691666,143.485 C47.854167,143.625001 47.9666659,143.74 48.1066666,143.83 C48.2466673,143.92 48.4016657,143.9825 48.5716666,144.0175 C48.7416674,144.0525 48.9166657,144.07 49.0966666,144.07 C49.7566699,144.07 50.2641648,143.872502 50.6191666,143.4775 C50.9741683,143.082498 51.1516666,142.585003 51.1516666,141.985 L51.1516666,141.61 L50.8066666,141.61 Z M56.3399999,137.89 C56.36,138.070001 56.3749998,138.272499 56.3849999,138.4975 C56.3949999,138.722501 56.3999999,138.909999 56.3999999,139.06 L56.4449999,139.06 C56.5350003,138.869999 56.6574991,138.692501 56.8124999,138.5275 C56.9675007,138.362499 57.1449989,138.217501 57.3449999,138.0925 C57.5450009,137.967499 57.7649987,137.87 58.0049999,137.8 C58.2450011,137.73 58.4949986,137.695 58.7549999,137.695 C59.2150022,137.695 59.6099982,137.772499 59.9399999,137.9275 C60.2700015,138.082501 60.5449988,138.289999 60.7649999,138.55 C60.985001,138.810001 61.1474994,139.114998 61.2524999,139.465 C61.3575004,139.815002 61.4099999,140.189998 61.4099999,140.59 L61.4099999,145 L59.9999999,145 L59.9999999,141.055 C59.9999999,140.764999 59.9775001,140.490001 59.9324999,140.23 C59.8874997,139.969999 59.8050005,139.740001 59.6849999,139.54 C59.5649993,139.339999 59.4000009,139.180001 59.1899999,139.06 C58.9799988,138.939999 58.7100015,138.88 58.3799999,138.88 C57.8199971,138.88 57.3625017,139.092498 57.0074999,139.5175 C56.6524981,139.942502 56.4749999,140.509996 56.4749999,141.22 L56.4749999,145 L55.0649999,145 L55.0649999,139.42 C55.0649999,139.229999 55.0599999,138.985002 55.0499999,138.685 C55.0399998,138.384998 55.025,138.120001 55.0049999,137.89 L56.3399999,137.89 Z M67.4833332,139.045 L65.5933332,139.045 L65.5933332,142.75 C65.5933332,143.180002 65.6733324,143.487499 65.8333332,143.6725 C65.993334,143.857501 66.2483314,143.95 66.5983332,143.95 C66.7283338,143.95 66.8683324,143.935 67.0183332,143.905 C67.1683339,143.875 67.3033326,143.83 67.4233332,143.77 L67.4683332,144.925 C67.2983323,144.985 67.1108342,145.0325 66.9058332,145.0675 C66.7008322,145.1025 66.4883343,145.12 66.2683332,145.12 C65.5983298,145.12 65.085835,144.935002 64.7308332,144.565 C64.3758314,144.194998 64.1983332,143.640004 64.1983332,142.9 L64.1983332,139.045 L62.8333332,139.045 L62.8333332,137.89 L64.1983332,137.89 L64.1983332,135.85 L65.5933332,135.85 L65.5933332,137.89 L67.4833332,137.89 L67.4833332,139.045 Z M72.9866665,139.69 C72.8266657,139.429999 72.601668,139.217501 72.3116665,139.0525 C72.0216651,138.887499 71.6966683,138.805 71.3366665,138.805 C71.1766657,138.805 71.0166673,138.8225 70.8566665,138.8575 C70.6966657,138.8925 70.5541671,138.9475 70.4291665,139.0225 C70.3041659,139.0975 70.2041669,139.192499 70.1291665,139.3075 C70.0541661,139.422501 70.0166665,139.564999 70.0166665,139.735 C70.0166665,140.035001 70.1516652,140.257499 70.4216665,140.4025 C70.6916679,140.547501 71.0966638,140.679999 71.6366665,140.8 C71.9766682,140.88 72.2916651,140.974999 72.5816665,141.085 C72.871668,141.195001 73.1241654,141.332499 73.3391665,141.4975 C73.5541676,141.662501 73.7216659,141.859999 73.8416665,142.09 C73.9616671,142.320001 74.0216665,142.589998 74.0216665,142.9 C74.0216665,143.320002 73.9416673,143.674999 73.7816665,143.965 C73.6216657,144.255001 73.4091678,144.492499 73.1441665,144.6775 C72.8791652,144.862501 72.5766682,144.995 72.2366665,145.075 C71.8966648,145.155 71.5466683,145.195 71.1866665,145.195 C70.6466638,145.195 70.1191691,145.090001 69.6041665,144.88 C69.0891639,144.669999 68.6616682,144.350002 68.3216665,143.92 L69.3266665,143.065 C69.5166675,143.345001 69.7791648,143.579999 70.1141665,143.77 C70.4491682,143.960001 70.8166645,144.055 71.2166665,144.055 C71.3966674,144.055 71.5691657,144.0375 71.7341665,144.0025 C71.8991673,143.9675 72.0491658,143.91 72.1841665,143.83 C72.3191672,143.75 72.4266661,143.645001 72.5066665,143.515 C72.5866669,143.384999 72.6266665,143.220001 72.6266665,143.02 C72.6266665,142.689998 72.4691681,142.445001 72.1541665,142.285 C71.8391649,142.124999 71.3766696,141.975001 70.7666665,141.835 C70.5266653,141.775 70.2841677,141.7025 70.0391665,141.6175 C69.7941653,141.5325 69.5716675,141.415001 69.3716665,141.265 C69.1716655,141.114999 69.0091671,140.927501 68.8841665,140.7025 C68.7591659,140.477499 68.6966665,140.200002 68.6966665,139.87 C68.6966665,139.489998 68.7741657,139.162501 68.9291665,138.8875 C69.0841673,138.612499 69.2866653,138.387501 69.5366665,138.2125 C69.7866678,138.037499 70.0716649,137.9075 70.3916665,137.8225 C70.7116681,137.7375 71.0416648,137.695 71.3816665,137.695 C71.8916691,137.695 72.3841641,137.794999 72.8591665,137.995 C73.3341689,138.195001 73.7016652,138.484998 73.9616665,138.865 L72.9866665,139.69 Z" id="Other-Merchants" fill="#FFFFFF"></path>
                            <polygon id="Path-2" fill="url(#linearGradient-5)" fill-rule="nonzero" points="235 90.5 235 89.5 315 89.5 315 90.5"></polygon>
                            <path d="M259.725,111 L258.075,111 L262.68,100.38 L264.03,100.38 L268.59,111 L266.91,111 L265.83,108.39 L260.79,108.39 L259.725,111 Z M261.315,107.085 L265.29,107.085 L263.31,102.105 L261.315,107.085 Z M271.468333,105.06 C271.648334,104.679998 271.935831,104.357501 272.330833,104.0925 C272.725835,103.827499 273.193331,103.695 273.733333,103.695 C274.213336,103.695 274.645831,103.804999 275.030833,104.025 C275.415835,104.245001 275.718332,104.609997 275.938333,105.12 C276.178335,104.659998 276.513331,104.307501 276.943333,104.0625 C277.373335,103.817499 277.843331,103.695 278.353333,103.695 C278.813336,103.695 279.208332,103.772499 279.538333,103.9275 C279.868335,104.082501 280.143332,104.289999 280.363333,104.55 C280.583334,104.810001 280.745833,105.114998 280.850833,105.465 C280.955834,105.815002 281.008333,106.189998 281.008333,106.59 L281.008333,111 L279.598333,111 L279.598333,107.055 C279.598333,106.764999 279.573334,106.490001 279.523333,106.23 C279.473333,105.969999 279.388334,105.740001 279.268333,105.54 C279.148333,105.339999 278.988334,105.180001 278.788333,105.06 C278.588332,104.939999 278.333335,104.88 278.023333,104.88 C277.703332,104.88 277.428334,104.947499 277.198333,105.0825 C276.968332,105.217501 276.780834,105.392499 276.635833,105.6075 C276.490833,105.822501 276.385834,106.064999 276.320833,106.335 C276.255833,106.605001 276.223333,106.879999 276.223333,107.16 L276.223333,111 L274.813333,111 L274.813333,106.77 C274.813333,106.489999 274.788334,106.235001 274.738333,106.005 C274.688333,105.774999 274.603334,105.577501 274.483333,105.4125 C274.363333,105.247499 274.208334,105.1175 274.018333,105.0225 C273.828332,104.9275 273.593335,104.88 273.313333,104.88 C272.793331,104.88 272.360835,105.092498 272.015833,105.5175 C271.670832,105.942502 271.498333,106.509996 271.498333,107.22 L271.498333,111 L270.088333,111 L270.088333,105.42 C270.088333,105.229999 270.083333,104.985001 270.073333,104.685 C270.063333,104.384998 270.048333,104.120001 270.028333,103.89 L271.363333,103.89 C271.383333,104.070001 271.398333,104.272499 271.408333,104.4975 C271.418333,104.722501 271.423333,104.909999 271.423333,105.06 L271.468333,105.06 Z M288.026667,106.395 C288.026667,105.864997 287.866668,105.472501 287.546667,105.2175 C287.226665,104.962499 286.801669,104.835 286.271667,104.835 C285.871665,104.835 285.494168,104.912499 285.139167,105.0675 C284.784165,105.222501 284.486668,105.419999 284.246667,105.66 L283.496667,104.76 C283.846668,104.429998 284.274164,104.170001 284.779167,103.98 C285.284169,103.789999 285.826664,103.695 286.406667,103.695 C286.916669,103.695 287.359165,103.767499 287.734167,103.9125 C288.109169,104.057501 288.416665,104.254999 288.656667,104.505 C288.896668,104.755001 289.076666,105.049998 289.196667,105.39 C289.316667,105.730002 289.376667,106.094998 289.376667,106.485 L289.376667,109.59 C289.376667,109.830001 289.384167,110.082499 289.399167,110.3475 C289.414167,110.612501 289.441666,110.829999 289.481667,111 L288.206667,111 C288.126666,110.659998 288.086667,110.320002 288.086667,109.98 L288.041667,109.98 C287.781665,110.360002 287.454169,110.654999 287.059167,110.865 C286.664165,111.075001 286.196669,111.18 285.656667,111.18 C285.376665,111.18 285.084168,111.1425 284.779167,111.0675 C284.474165,110.9925 284.196668,110.870001 283.946667,110.7 C283.696665,110.529999 283.489167,110.305001 283.324167,110.025 C283.159166,109.744999 283.076667,109.400002 283.076667,108.99 C283.076667,108.449997 283.221665,108.022502 283.511667,107.7075 C283.801668,107.392498 284.181664,107.152501 284.651667,106.9875 C285.121669,106.822499 285.651664,106.715 286.241667,106.665 C286.83167,106.615 287.426664,106.59 288.026667,106.59 L288.026667,106.395 Z M287.681667,107.61 C287.331665,107.61 286.969169,107.625 286.594167,107.655 C286.219165,107.685 285.879168,107.745 285.574167,107.835 C285.269165,107.925 285.016668,108.059999 284.816667,108.24 C284.616666,108.420001 284.516667,108.659999 284.516667,108.96 C284.516667,109.170001 284.559166,109.344999 284.644167,109.485 C284.729167,109.625001 284.841666,109.74 284.981667,109.83 C285.121667,109.92 285.276666,109.9825 285.446667,110.0175 C285.616667,110.0525 285.791666,110.07 285.971667,110.07 C286.63167,110.07 287.139165,109.872502 287.494167,109.4775 C287.849168,109.082498 288.026667,108.585003 288.026667,107.985 L288.026667,107.61 L287.681667,107.61 Z M297.01,105.045 L292.96,109.815 L297.175,109.815 L297.175,111 L291.22,111 L291.22,109.845 L295.24,105.045 L291.415,105.045 L291.415,103.89 L297.01,103.89 L297.01,105.045 Z M306.278333,107.43 C306.278333,107.980003 306.180834,108.484998 305.985833,108.945 C305.790832,109.405002 305.520835,109.802498 305.175833,110.1375 C304.830832,110.472502 304.423336,110.732499 303.953333,110.9175 C303.483331,111.102501 302.978336,111.195 302.438333,111.195 C301.898331,111.195 301.393336,111.102501 300.923333,110.9175 C300.453331,110.732499 300.048335,110.472502 299.708333,110.1375 C299.368332,109.802498 299.100834,109.405002 298.905833,108.945 C298.710832,108.484998 298.613333,107.980003 298.613333,107.43 C298.613333,106.879997 298.710832,106.377502 298.905833,105.9225 C299.100834,105.467498 299.368332,105.075002 299.708333,104.745 C300.048335,104.414998 300.453331,104.157501 300.923333,103.9725 C301.393336,103.787499 301.898331,103.695 302.438333,103.695 C302.978336,103.695 303.483331,103.787499 303.953333,103.9725 C304.423336,104.157501 304.830832,104.414998 305.175833,104.745 C305.520835,105.075002 305.790832,105.467498 305.985833,105.9225 C306.180834,106.377502 306.278333,106.879997 306.278333,107.43 Z M304.808333,107.43 C304.808333,107.089998 304.755834,106.765002 304.650833,106.455 C304.545833,106.144998 304.393334,105.872501 304.193333,105.6375 C303.993332,105.402499 303.745835,105.215001 303.450833,105.075 C303.155832,104.934999 302.818335,104.865 302.438333,104.865 C302.058331,104.865 301.720835,104.934999 301.425833,105.075 C301.130832,105.215001 300.883334,105.402499 300.683333,105.6375 C300.483332,105.872501 300.330834,106.144998 300.225833,106.455 C300.120833,106.765002 300.068333,107.089998 300.068333,107.43 C300.068333,107.770002 300.120833,108.094998 300.225833,108.405 C300.330834,108.715002 300.483332,108.989999 300.683333,109.23 C300.883334,109.470001 301.130832,109.659999 301.425833,109.8 C301.720835,109.940001 302.058331,110.01 302.438333,110.01 C302.818335,110.01 303.155832,109.940001 303.450833,109.8 C303.745835,109.659999 303.993332,109.470001 304.193333,109.23 C304.393334,108.989999 304.545833,108.715002 304.650833,108.405 C304.755834,108.094998 304.808333,107.770002 304.808333,107.43 Z M309.711667,103.89 C309.731667,104.070001 309.746667,104.272499 309.756667,104.4975 C309.766667,104.722501 309.771667,104.909999 309.771667,105.06 L309.816667,105.06 C309.906667,104.869999 310.029166,104.692501 310.184167,104.5275 C310.339167,104.362499 310.516666,104.217501 310.716667,104.0925 C310.916668,103.967499 311.136665,103.87 311.376667,103.8 C311.616668,103.73 311.866665,103.695 312.126667,103.695 C312.586669,103.695 312.981665,103.772499 313.311667,103.9275 C313.641668,104.082501 313.916665,104.289999 314.136667,104.55 C314.356668,104.810001 314.519166,105.114998 314.624167,105.465 C314.729167,105.815002 314.781667,106.189998 314.781667,106.59 L314.781667,111 L313.371667,111 L313.371667,107.055 C313.371667,106.764999 313.349167,106.490001 313.304167,106.23 C313.259166,105.969999 313.176667,105.740001 313.056667,105.54 C312.936666,105.339999 312.771668,105.180001 312.561667,105.06 C312.351666,104.939999 312.081668,104.88 311.751667,104.88 C311.191664,104.88 310.734168,105.092498 310.379167,105.5175 C310.024165,105.942502 309.846667,106.509996 309.846667,107.22 L309.846667,111 L308.436667,111 L308.436667,105.42 C308.436667,105.229999 308.431667,104.985001 308.421667,104.685 C308.411667,104.384998 308.396667,104.120001 308.376667,103.89 L309.711667,103.89 Z" id="Amazon" fill="#FFFFFF"></path>
                            <path d="M289.284,71.554 L291.26,71.554 L291.26,72.751 L289.284,72.751 L289.284,76 L287.954,76 L287.954,72.751 L281.798,72.751 L281.798,71.421 L287.498,62.548 L289.284,62.548 L289.284,71.554 Z M287.954,64.087 L287.916,64.087 L283.223,71.554 L287.954,71.554 L287.954,64.087 Z M295.411173,68.362 L296.000173,68.362 C296.430842,68.362 296.836171,68.3176671 297.216173,68.229 C297.596175,68.1403329 297.928671,67.9978343 298.213673,67.8015 C298.498674,67.6051657 298.723505,67.3486683 298.888173,67.032 C299.05284,66.7153318 299.135173,66.3353355 299.135173,65.892 C299.135173,65.5119981 299.065507,65.1668349 298.926173,64.8565 C298.786839,64.5461651 298.593674,64.2801678 298.346673,64.0585 C298.099672,63.8368322 297.814674,63.6658339 297.491673,63.5455 C297.168671,63.4251661 296.829841,63.365 296.475173,63.365 C295.90517,63.365 295.401675,63.4979987 294.964673,63.764 C294.527671,64.0300013 294.176174,64.4226641 293.910173,64.942 L292.751173,64.334 C293.169175,63.6119964 293.70117,63.0768351 294.347173,62.7285 C294.993176,62.3801649 295.727835,62.206 296.551173,62.206 C297.083175,62.206 297.58667,62.2851659 298.061673,62.4435 C298.536675,62.6018341 298.954671,62.8329985 299.315673,63.137 C299.676675,63.4410015 299.961672,63.8178311 300.170673,64.2675 C300.379674,64.7171689 300.484173,65.2333304 300.484173,65.816 C300.484173,66.614004 300.262508,67.282164 299.819173,67.8205 C299.375837,68.358836 298.818509,68.7166658 298.147173,68.894 L298.147173,68.932 C298.919843,69.0966675 299.565837,69.4671638 300.085173,70.0435 C300.604509,70.6198362 300.864173,71.3639954 300.864173,72.276 C300.864173,72.9220032 300.747007,73.4951642 300.512673,73.9955 C300.278338,74.4958358 299.964841,74.9201649 299.572173,75.2685 C299.179504,75.6168351 298.720342,75.8828324 298.194673,76.0665 C297.669004,76.2501676 297.114842,76.342 296.532173,76.342 C295.544168,76.342 294.682843,76.1045024 293.948173,75.6295 C293.213502,75.1544976 292.656175,74.4736711 292.276173,73.587 L293.568173,73.112 C293.796174,73.7580032 294.17617,74.2614982 294.708173,74.6225 C295.240175,74.9835018 295.848169,75.164 296.532173,75.164 C296.912175,75.164 297.282671,75.0975007 297.643673,74.9645 C298.004675,74.8314993 298.321338,74.6415012 298.593673,74.3945 C298.866007,74.1474988 299.084505,73.8466684 299.249173,73.492 C299.41384,73.1373316 299.496173,72.7320023 299.496173,72.276 C299.496173,71.7693308 299.398007,71.3418351 299.201673,70.9935 C299.005338,70.6451649 298.742508,70.3633344 298.413173,70.148 C298.083838,69.9326656 297.710175,69.7775005 297.292173,69.6825 C296.874171,69.5874995 296.443508,69.54 296.000173,69.54 L295.411173,69.54 L295.411173,68.362 Z M309.100346,65.645 C309.100346,66.113669 309.014846,66.5506646 308.843846,66.956 C308.672845,67.3613354 308.435347,67.7128318 308.131346,68.0105 C307.827344,68.3081682 307.472681,68.5424991 307.067346,68.7135 C306.66201,68.8845009 306.225015,68.97 305.756346,68.97 C305.287677,68.97 304.850681,68.8845009 304.445346,68.7135 C304.04001,68.5424991 303.685347,68.3081682 303.381346,68.0105 C303.077344,67.7128318 302.839846,67.3613354 302.668846,66.956 C302.497845,66.5506646 302.412346,66.113669 302.412346,65.645 C302.412346,65.176331 302.497845,64.7393354 302.668846,64.334 C302.839846,63.9286646 303.077344,63.5771682 303.381346,63.2795 C303.685347,62.9818318 304.04001,62.7475009 304.445346,62.5765 C304.850681,62.4054991 305.287677,62.32 305.756346,62.32 C306.225015,62.32 306.66201,62.4054991 307.067346,62.5765 C307.472681,62.7475009 307.827344,62.9818318 308.131346,63.2795 C308.435347,63.5771682 308.672845,63.9286646 308.843846,64.334 C309.014846,64.7393354 309.100346,65.176331 309.100346,65.645 Z M307.960346,65.645 C307.960346,65.3283318 307.90018,65.0370013 307.779846,64.771 C307.659512,64.5049987 307.50118,64.2738343 307.304846,64.0775 C307.108511,63.8811657 306.877347,63.7291672 306.611346,63.6215 C306.345344,63.5138328 306.060347,63.46 305.756346,63.46 C305.452344,63.46 305.167347,63.5138328 304.901346,63.6215 C304.635344,63.7291672 304.40418,63.8811657 304.207846,64.0775 C304.011511,64.2738343 303.85318,64.5049987 303.732846,64.771 C303.612512,65.0370013 303.552346,65.3283318 303.552346,65.645 C303.552346,65.9616683 303.612512,66.2529987 303.732846,66.519 C303.85318,66.7850013 304.011511,67.0161657 304.207846,67.2125 C304.40418,67.4088343 304.635344,67.5608328 304.901346,67.6685 C305.167347,67.7761672 305.452344,67.83 305.756346,67.83 C306.060347,67.83 306.345344,67.7761672 306.611346,67.6685 C306.877347,67.5608328 307.108511,67.4088343 307.304846,67.2125 C307.50118,67.0161657 307.659512,66.7850013 307.779846,66.519 C307.90018,66.2529987 307.960346,65.9616683 307.960346,65.645 Z M316.795346,72.903 C316.795346,73.371669 316.709846,73.8086646 316.538846,74.214 C316.367845,74.6193354 316.130347,74.9708318 315.826346,75.2685 C315.522344,75.5661682 315.167681,75.8004991 314.762346,75.9715 C314.35701,76.1425009 313.920015,76.228 313.451346,76.228 C312.982677,76.228 312.545681,76.1425009 312.140346,75.9715 C311.73501,75.8004991 311.380347,75.5661682 311.076346,75.2685 C310.772344,74.9708318 310.534846,74.6193354 310.363846,74.214 C310.192845,73.8086646 310.107346,73.371669 310.107346,72.903 C310.107346,72.434331 310.192845,71.9973354 310.363846,71.592 C310.534846,71.1866646 310.772344,70.8351682 311.076346,70.5375 C311.380347,70.2398318 311.73501,70.0055009 312.140346,69.8345 C312.545681,69.6634991 312.982677,69.578 313.451346,69.578 C313.920015,69.578 314.35701,69.6634991 314.762346,69.8345 C315.167681,70.0055009 315.522344,70.2398318 315.826346,70.5375 C316.130347,70.8351682 316.367845,71.1866646 316.538846,71.592 C316.709846,71.9973354 316.795346,72.434331 316.795346,72.903 Z M315.655346,72.903 C315.655346,72.5863317 315.59518,72.2950013 315.474846,72.029 C315.354512,71.7629987 315.19618,71.5318343 314.999846,71.3355 C314.803511,71.1391657 314.572347,70.9871672 314.306346,70.8795 C314.040344,70.7718328 313.755347,70.718 313.451346,70.718 C313.147344,70.718 312.862347,70.7718328 312.596346,70.8795 C312.330344,70.9871672 312.09918,71.1391657 311.902846,71.3355 C311.706511,71.5318343 311.54818,71.7629987 311.427846,72.029 C311.307512,72.2950013 311.247346,72.5863317 311.247346,72.903 C311.247346,73.2196682 311.307512,73.5109987 311.427846,73.777 C311.54818,74.0430013 311.706511,74.2741657 311.902846,74.4705 C312.09918,74.6668343 312.330344,74.8188328 312.596346,74.9265 C312.862347,75.0341672 313.147344,75.088 313.451346,75.088 C313.755347,75.088 314.040344,75.0341672 314.306346,74.9265 C314.572347,74.8188328 314.803511,74.6668343 314.999846,74.4705 C315.19618,74.2741657 315.354512,74.0430013 315.474846,73.777 C315.59518,73.5109987 315.655346,73.2196682 315.655346,72.903 Z M305.813346,76.589 L304.825346,76.076 L313.394346,61.959 L314.363346,62.472 L305.813346,76.589 Z" id="43%" fill="#FFFFFF"></path>
                            <path d="M11.025,76.764 L5.42,76.764 L5.325,80.925 C5.61633479,80.8236662 5.92349839,80.7476669 6.2465,80.697 C6.56950162,80.6463331 6.88299848,80.621 7.187,80.621 C7.8203365,80.621 8.40299734,80.7223323 8.935,80.925 C9.46700266,81.1276677 9.92933137,81.4158315 10.322,81.7895 C10.7146686,82.1631685 11.0186656,82.6096641 11.234,83.129 C11.4493344,83.6483359 11.557,84.2183302 11.557,84.839 C11.557,85.4850032 11.4493344,86.0834972 11.234,86.6345 C11.0186656,87.1855028 10.7146686,87.660498 10.322,88.0595 C9.92933137,88.458502 9.45750276,88.7719989 8.9065,89 C8.35549725,89.2280011 7.75066996,89.342 7.092,89.342 C6.11666179,89.342 5.29333669,89.1203355 4.622,88.677 C3.95066331,88.2336644 3.43133517,87.6383371 3.064,86.891 L4.299,86.34 C4.53966787,86.8973361 4.9038309,87.340665 5.3915,87.67 C5.87916911,87.999335 6.42066369,88.164 7.016,88.164 C7.47200228,88.164 7.89316474,88.0848341 8.2795,87.9265 C8.66583527,87.7681659 8.99833194,87.5465014 9.277,87.2615 C9.55566806,86.9764986 9.77416588,86.6376686 9.9325,86.245 C10.0908341,85.8523314 10.17,85.4280023 10.17,84.972 C10.17,84.4779975 10.0845009,84.031502 9.9135,83.6325 C9.74249915,83.233498 9.50816816,82.8946681 9.2105,82.616 C8.91283185,82.3373319 8.56133536,82.1220008 8.156,81.97 C7.75066464,81.8179992 7.30733574,81.742 6.826,81.742 C6.34466426,81.742 5.86650238,81.8084993 5.3915,81.9415 C4.91649763,82.0745007 4.46366882,82.2549989 4.033,82.483 L4.166,75.548 L11.025,75.548 L11.025,76.764 Z M17.8551728,75.206 C18.691177,75.206 19.3910034,75.4118313 19.9546728,75.8235 C20.5183423,76.2351687 20.9711711,76.7734967 21.3131728,77.4385 C21.6551746,78.1035033 21.8990054,78.8603291 22.0446728,79.709 C22.1903402,80.5576709 22.2631728,81.4189956 22.2631728,82.293 C22.2631728,83.1670044 22.1903402,84.0251625 22.0446728,84.8675 C21.8990054,85.7098375 21.6551746,86.4634967 21.3131728,87.1285 C20.9711711,87.7935033 20.5183423,88.3286646 19.9546728,88.734 C19.3910034,89.1393354 18.691177,89.342 17.8551728,89.342 C17.0065019,89.342 16.3003423,89.1393354 15.7366728,88.734 C15.1730034,88.3286646 14.7201746,87.7935033 14.3781728,87.1285 C14.0361711,86.4634967 13.7955069,85.7098375 13.6561728,84.8675 C13.5168388,84.0251625 13.4471728,83.1670044 13.4471728,82.293 C13.4471728,81.4189956 13.5168388,80.5576709 13.6561728,79.709 C13.7955069,78.8603291 14.0361711,78.1035033 14.3781728,77.4385 C14.7201746,76.7734967 15.1730034,76.2351687 15.7366728,75.8235 C16.3003423,75.4118313 17.0065019,75.206 17.8551728,75.206 Z M17.8551728,76.365 C17.2598365,76.365 16.7658415,76.5486648 16.3731728,76.916 C15.9805042,77.2833352 15.670174,77.7519971 15.4421728,78.322 C15.2141717,78.8920028 15.05584,79.5284965 14.9671728,80.2315 C14.8785057,80.9345035 14.8341728,81.6216633 14.8341728,82.293 C14.8341728,82.9643367 14.8785057,83.6483298 14.9671728,84.345 C15.05584,85.0416702 15.2141717,85.6718305 15.4421728,86.2355 C15.670174,86.7991695 15.9805042,87.2614982 16.3731728,87.6225 C16.7658415,87.9835018 17.2598365,88.164 17.8551728,88.164 C18.4378424,88.164 18.9255042,87.9835018 19.3181728,87.6225 C19.7108415,87.2614982 20.0211717,86.7991695 20.2491728,86.2355 C20.477174,85.6718305 20.6386724,85.0416702 20.7336728,84.345 C20.8286733,83.6483298 20.8761728,82.9643367 20.8761728,82.293 C20.8761728,81.6216633 20.8286733,80.9345035 20.7336728,80.2315 C20.6386724,79.5284965 20.477174,78.8920028 20.2491728,78.322 C20.0211717,77.7519971 19.7108415,77.2833352 19.3181728,76.916 C18.9255042,76.5486648 18.4378424,76.365 17.8551728,76.365 Z M30.1003457,78.645 C30.1003457,79.113669 30.0148465,79.5506646 29.8438457,79.956 C29.6728448,80.3613354 29.4353472,80.7128318 29.1313457,81.0105 C28.8273442,81.3081682 28.472681,81.5424991 28.0673457,81.7135 C27.6620103,81.8845009 27.2250147,81.97 26.7563457,81.97 C26.2876767,81.97 25.850681,81.8845009 25.4453457,81.7135 C25.0400103,81.5424991 24.6853472,81.3081682 24.3813457,81.0105 C24.0773442,80.7128318 23.8398465,80.3613354 23.6688457,79.956 C23.4978448,79.5506646 23.4123457,79.113669 23.4123457,78.645 C23.4123457,78.176331 23.4978448,77.7393354 23.6688457,77.334 C23.8398465,76.9286646 24.0773442,76.5771682 24.3813457,76.2795 C24.6853472,75.9818318 25.0400103,75.7475009 25.4453457,75.5765 C25.850681,75.4054991 26.2876767,75.32 26.7563457,75.32 C27.2250147,75.32 27.6620103,75.4054991 28.0673457,75.5765 C28.472681,75.7475009 28.8273442,75.9818318 29.1313457,76.2795 C29.4353472,76.5771682 29.6728448,76.9286646 29.8438457,77.334 C30.0148465,77.7393354 30.1003457,78.176331 30.1003457,78.645 Z M28.9603457,78.645 C28.9603457,78.3283318 28.9001796,78.0370013 28.7798457,77.771 C28.6595117,77.5049987 28.50118,77.2738343 28.3048457,77.0775 C28.1085114,76.8811657 27.877347,76.7291672 27.6113457,76.6215 C27.3453444,76.5138328 27.0603472,76.46 26.7563457,76.46 C26.4523442,76.46 26.167347,76.5138328 25.9013457,76.6215 C25.6353444,76.7291672 25.40418,76.8811657 25.2078457,77.0775 C25.0115114,77.2738343 24.8531796,77.5049987 24.7328457,77.771 C24.6125117,78.0370013 24.5523457,78.3283318 24.5523457,78.645 C24.5523457,78.9616683 24.6125117,79.2529987 24.7328457,79.519 C24.8531796,79.7850013 25.0115114,80.0161657 25.2078457,80.2125 C25.40418,80.4088343 25.6353444,80.5608328 25.9013457,80.6685 C26.167347,80.7761672 26.4523442,80.83 26.7563457,80.83 C27.0603472,80.83 27.3453444,80.7761672 27.6113457,80.6685 C27.877347,80.5608328 28.1085114,80.4088343 28.3048457,80.2125 C28.50118,80.0161657 28.6595117,79.7850013 28.7798457,79.519 C28.9001796,79.2529987 28.9603457,78.9616683 28.9603457,78.645 Z M37.7953457,85.903 C37.7953457,86.371669 37.7098465,86.8086646 37.5388457,87.214 C37.3678448,87.6193354 37.1303472,87.9708318 36.8263457,88.2685 C36.5223442,88.5661682 36.167681,88.8004991 35.7623457,88.9715 C35.3570103,89.1425009 34.9200147,89.228 34.4513457,89.228 C33.9826767,89.228 33.545681,89.1425009 33.1403457,88.9715 C32.7350103,88.8004991 32.3803472,88.5661682 32.0763457,88.2685 C31.7723442,87.9708318 31.5348465,87.6193354 31.3638457,87.214 C31.1928448,86.8086646 31.1073457,86.371669 31.1073457,85.903 C31.1073457,85.434331 31.1928448,84.9973354 31.3638457,84.592 C31.5348465,84.1866646 31.7723442,83.8351682 32.0763457,83.5375 C32.3803472,83.2398318 32.7350103,83.0055009 33.1403457,82.8345 C33.545681,82.6634991 33.9826767,82.578 34.4513457,82.578 C34.9200147,82.578 35.3570103,82.6634991 35.7623457,82.8345 C36.167681,83.0055009 36.5223442,83.2398318 36.8263457,83.5375 C37.1303472,83.8351682 37.3678448,84.1866646 37.5388457,84.592 C37.7098465,84.9973354 37.7953457,85.434331 37.7953457,85.903 Z M36.6553457,85.903 C36.6553457,85.5863317 36.5951796,85.2950013 36.4748457,85.029 C36.3545117,84.7629987 36.19618,84.5318343 35.9998457,84.3355 C35.8035114,84.1391657 35.572347,83.9871672 35.3063457,83.8795 C35.0403444,83.7718328 34.7553472,83.718 34.4513457,83.718 C34.1473442,83.718 33.862347,83.7718328 33.5963457,83.8795 C33.3303444,83.9871672 33.09918,84.1391657 32.9028457,84.3355 C32.7065114,84.5318343 32.5481796,84.7629987 32.4278457,85.029 C32.3075117,85.2950013 32.2473457,85.5863317 32.2473457,85.903 C32.2473457,86.2196682 32.3075117,86.5109987 32.4278457,86.777 C32.5481796,87.0430013 32.7065114,87.2741657 32.9028457,87.4705 C33.09918,87.6668343 33.3303444,87.8188328 33.5963457,87.9265 C33.862347,88.0341672 34.1473442,88.088 34.4513457,88.088 C34.7553472,88.088 35.0403444,88.0341672 35.3063457,87.9265 C35.572347,87.8188328 35.8035114,87.6668343 35.9998457,87.4705 C36.19618,87.2741657 36.3545117,87.0430013 36.4748457,86.777 C36.5951796,86.5109987 36.6553457,86.2196682 36.6553457,85.903 Z M26.8133457,89.589 L25.8253457,89.076 L34.3943457,74.959 L35.3633457,75.472 L26.8133457,89.589 Z" id="50%" fill="#FFFFFF"></path>
                            <path d="M300.462,173.802 L295.047,186 L293.508,186 L299.075,173.764 L292.482,173.764 L292.482,172.548 L300.462,172.548 L300.462,173.802 Z M308.755173,175.645 C308.755173,176.113669 308.669674,176.550665 308.498673,176.956 C308.327672,177.361335 308.090174,177.712832 307.786173,178.0105 C307.482171,178.308168 307.127508,178.542499 306.722173,178.7135 C306.316837,178.884501 305.879842,178.97 305.411173,178.97 C304.942504,178.97 304.505508,178.884501 304.100173,178.7135 C303.694837,178.542499 303.340174,178.308168 303.036173,178.0105 C302.732171,177.712832 302.494674,177.361335 302.323673,176.956 C302.152672,176.550665 302.067173,176.113669 302.067173,175.645 C302.067173,175.176331 302.152672,174.739335 302.323673,174.334 C302.494674,173.928665 302.732171,173.577168 303.036173,173.2795 C303.340174,172.981832 303.694837,172.747501 304.100173,172.5765 C304.505508,172.405499 304.942504,172.32 305.411173,172.32 C305.879842,172.32 306.316837,172.405499 306.722173,172.5765 C307.127508,172.747501 307.482171,172.981832 307.786173,173.2795 C308.090174,173.577168 308.327672,173.928665 308.498673,174.334 C308.669674,174.739335 308.755173,175.176331 308.755173,175.645 Z M307.615173,175.645 C307.615173,175.328332 307.555007,175.037001 307.434673,174.771 C307.314339,174.504999 307.156007,174.273834 306.959673,174.0775 C306.763338,173.881166 306.532174,173.729167 306.266173,173.6215 C306.000171,173.513833 305.715174,173.46 305.411173,173.46 C305.107171,173.46 304.822174,173.513833 304.556173,173.6215 C304.290171,173.729167 304.059007,173.881166 303.862673,174.0775 C303.666338,174.273834 303.508007,174.504999 303.387673,174.771 C303.267339,175.037001 303.207173,175.328332 303.207173,175.645 C303.207173,175.961668 303.267339,176.252999 303.387673,176.519 C303.508007,176.785001 303.666338,177.016166 303.862673,177.2125 C304.059007,177.408834 304.290171,177.560833 304.556173,177.6685 C304.822174,177.776167 305.107171,177.83 305.411173,177.83 C305.715174,177.83 306.000171,177.776167 306.266173,177.6685 C306.532174,177.560833 306.763338,177.408834 306.959673,177.2125 C307.156007,177.016166 307.314339,176.785001 307.434673,176.519 C307.555007,176.252999 307.615173,175.961668 307.615173,175.645 Z M316.450173,182.903 C316.450173,183.371669 316.364674,183.808665 316.193673,184.214 C316.022672,184.619335 315.785174,184.970832 315.481173,185.2685 C315.177171,185.566168 314.822508,185.800499 314.417173,185.9715 C314.011837,186.142501 313.574842,186.228 313.106173,186.228 C312.637504,186.228 312.200508,186.142501 311.795173,185.9715 C311.389837,185.800499 311.035174,185.566168 310.731173,185.2685 C310.427171,184.970832 310.189674,184.619335 310.018673,184.214 C309.847672,183.808665 309.762173,183.371669 309.762173,182.903 C309.762173,182.434331 309.847672,181.997335 310.018673,181.592 C310.189674,181.186665 310.427171,180.835168 310.731173,180.5375 C311.035174,180.239832 311.389837,180.005501 311.795173,179.8345 C312.200508,179.663499 312.637504,179.578 313.106173,179.578 C313.574842,179.578 314.011837,179.663499 314.417173,179.8345 C314.822508,180.005501 315.177171,180.239832 315.481173,180.5375 C315.785174,180.835168 316.022672,181.186665 316.193673,181.592 C316.364674,181.997335 316.450173,182.434331 316.450173,182.903 Z M315.310173,182.903 C315.310173,182.586332 315.250007,182.295001 315.129673,182.029 C315.009339,181.762999 314.851007,181.531834 314.654673,181.3355 C314.458338,181.139166 314.227174,180.987167 313.961173,180.8795 C313.695171,180.771833 313.410174,180.718 313.106173,180.718 C312.802171,180.718 312.517174,180.771833 312.251173,180.8795 C311.985171,180.987167 311.754007,181.139166 311.557673,181.3355 C311.361338,181.531834 311.203007,181.762999 311.082673,182.029 C310.962339,182.295001 310.902173,182.586332 310.902173,182.903 C310.902173,183.219668 310.962339,183.510999 311.082673,183.777 C311.203007,184.043001 311.361338,184.274166 311.557673,184.4705 C311.754007,184.666834 311.985171,184.818833 312.251173,184.9265 C312.517174,185.034167 312.802171,185.088 313.106173,185.088 C313.410174,185.088 313.695171,185.034167 313.961173,184.9265 C314.227174,184.818833 314.458338,184.666834 314.654673,184.4705 C314.851007,184.274166 315.009339,184.043001 315.129673,183.777 C315.250007,183.510999 315.310173,183.219668 315.310173,182.903 Z M305.468173,186.589 L304.480173,186.076 L313.049173,171.959 L314.018173,172.472 L305.468173,186.589 Z" id="7%" fill="#FFFFFF"></path>
                            <polygon id="Path-2" fill="url(#linearGradient-5)" fill-rule="nonzero" transform="translate(252.824496, 186.928040) scale(1, -1) translate(-252.824496, -186.928040) " points="190.351009 199.35608 189.648991 198.64392 214.141704 174.5 316 174.5 316 175.5 214.551723 175.5"></polygon>
                            <path d="M288.42,217.815 C288.41,217.534999 288.3625,217.272501 288.2775,217.0275 C288.1925,216.782499 288.067501,216.570001 287.9025,216.39 C287.737499,216.209999 287.532501,216.067501 287.2875,215.9625 C287.042499,215.857499 286.755002,215.805 286.425,215.805 C286.124999,215.805 285.842501,215.857499 285.5775,215.9625 C285.312499,216.067501 285.082501,216.209999 284.8875,216.39 C284.692499,216.570001 284.532501,216.782499 284.4075,217.0275 C284.282499,217.272501 284.21,217.534999 284.19,217.815 L288.42,217.815 Z M289.845,218.385 L289.845,218.625 C289.845,218.705 289.84,218.785 289.83,218.865 L284.19,218.865 C284.2,219.165001 284.267499,219.447499 284.3925,219.7125 C284.517501,219.977501 284.684999,220.207499 284.895,220.4025 C285.105001,220.597501 285.347499,220.749999 285.6225,220.86 C285.897501,220.970001 286.189998,221.025 286.5,221.025 C286.980002,221.025 287.394998,220.920001 287.745,220.71 C288.095002,220.499999 288.369999,220.245002 288.57,219.945 L289.56,220.74 C289.179998,221.240003 288.732503,221.607499 288.2175,221.8425 C287.702497,222.077501 287.130003,222.195 286.5,222.195 C285.959997,222.195 285.460002,222.105001 285,221.925 C284.539998,221.744999 284.145002,221.492502 283.815,221.1675 C283.484998,220.842498 283.225001,220.450002 283.035,219.99 C282.844999,219.529998 282.75,219.020003 282.75,218.46 C282.75,217.909997 282.842499,217.402502 283.0275,216.9375 C283.212501,216.472498 283.469998,216.075002 283.8,215.745 C284.130002,215.414998 284.519998,215.157501 284.97,214.9725 C285.420002,214.787499 285.904997,214.695 286.425,214.695 C286.945003,214.695 287.417498,214.779999 287.8425,214.95 C288.267502,215.120001 288.627499,215.364998 288.9225,215.685 C289.217501,216.005002 289.444999,216.392498 289.605,216.8475 C289.765001,217.302502 289.845,217.814997 289.845,218.385 Z M292.093333,211.38 L295.753333,211.38 C296.153335,211.38 296.553331,211.425 296.953333,211.515 C297.353335,211.605 297.710832,211.754999 298.025833,211.965 C298.340835,212.175001 298.595832,212.449998 298.790833,212.79 C298.985834,213.130002 299.083333,213.554997 299.083333,214.065 C299.083333,214.655003 298.913335,215.149998 298.573333,215.55 C298.233332,215.950002 297.783336,216.224999 297.223333,216.375 L297.223333,216.405 C297.563335,216.445 297.878332,216.532499 298.168333,216.6675 C298.458335,216.802501 298.708332,216.979999 298.918333,217.2 C299.128334,217.420001 299.290833,217.679999 299.405833,217.98 C299.520834,218.280001 299.578333,218.614998 299.578333,218.985 C299.578333,219.495003 299.473334,219.939998 299.263333,220.32 C299.053332,220.700002 298.768335,221.012499 298.408333,221.2575 C298.048332,221.502501 297.625836,221.687499 297.140833,221.8125 C296.655831,221.937501 296.138336,222 295.588333,222 L292.093333,222 L292.093333,211.38 Z M293.578333,215.865 L295.513333,215.865 C295.793335,215.865 296.060832,215.8325 296.315833,215.7675 C296.570835,215.7025 296.793332,215.602501 296.983333,215.4675 C297.173334,215.332499 297.323333,215.162501 297.433333,214.9575 C297.543334,214.752499 297.598333,214.505001 297.598333,214.215 C297.598333,213.644997 297.388335,213.237501 296.968333,212.9925 C296.548331,212.747499 295.983337,212.625 295.273333,212.625 L293.578333,212.625 L293.578333,215.865 Z M293.578333,220.74 L295.438333,220.74 C295.748335,220.74 296.060832,220.7125 296.375833,220.6575 C296.690835,220.6025 296.975832,220.505001 297.230833,220.365 C297.485835,220.224999 297.690833,220.037501 297.845833,219.8025 C298.000834,219.567499 298.078333,219.270002 298.078333,218.91 C298.078333,218.279997 297.863335,217.825001 297.433333,217.545 C297.003331,217.264999 296.383337,217.125 295.573333,217.125 L293.578333,217.125 L293.578333,220.74 Z M306.281667,217.395 C306.281667,216.864997 306.121668,216.472501 305.801667,216.2175 C305.481665,215.962499 305.056669,215.835 304.526667,215.835 C304.126665,215.835 303.749168,215.912499 303.394167,216.0675 C303.039165,216.222501 302.741668,216.419999 302.501667,216.66 L301.751667,215.76 C302.101668,215.429998 302.529164,215.170001 303.034167,214.98 C303.539169,214.789999 304.081664,214.695 304.661667,214.695 C305.171669,214.695 305.614165,214.767499 305.989167,214.9125 C306.364169,215.057501 306.671665,215.254999 306.911667,215.505 C307.151668,215.755001 307.331666,216.049998 307.451667,216.39 C307.571667,216.730002 307.631667,217.094998 307.631667,217.485 L307.631667,220.59 C307.631667,220.830001 307.639167,221.082499 307.654167,221.3475 C307.669167,221.612501 307.696666,221.829999 307.736667,222 L306.461667,222 C306.381666,221.659998 306.341667,221.320002 306.341667,220.98 L306.296667,220.98 C306.036665,221.360002 305.709169,221.654999 305.314167,221.865 C304.919165,222.075001 304.451669,222.18 303.911667,222.18 C303.631665,222.18 303.339168,222.1425 303.034167,222.0675 C302.729165,221.9925 302.451668,221.870001 302.201667,221.7 C301.951665,221.529999 301.744167,221.305001 301.579167,221.025 C301.414166,220.744999 301.331667,220.400002 301.331667,219.99 C301.331667,219.449997 301.476665,219.022502 301.766667,218.7075 C302.056668,218.392498 302.436664,218.152501 302.906667,217.9875 C303.376669,217.822499 303.906664,217.715 304.496667,217.665 C305.08667,217.615 305.681664,217.59 306.281667,217.59 L306.281667,217.395 Z M305.936667,218.61 C305.586665,218.61 305.224169,218.625 304.849167,218.655 C304.474165,218.685 304.134168,218.745 303.829167,218.835 C303.524165,218.925 303.271668,219.059999 303.071667,219.24 C302.871666,219.420001 302.771667,219.659999 302.771667,219.96 C302.771667,220.170001 302.814166,220.344999 302.899167,220.485 C302.984167,220.625001 303.096666,220.74 303.236667,220.83 C303.376667,220.92 303.531666,220.9825 303.701667,221.0175 C303.871667,221.0525 304.046666,221.07 304.226667,221.07 C304.88667,221.07 305.394165,220.872502 305.749167,220.4775 C306.104168,220.082498 306.281667,219.585003 306.281667,218.985 L306.281667,218.61 L305.936667,218.61 Z M312.895,220.47 L312.925,220.47 L314.89,214.89 L316.39,214.89 L312.94,223.68 C312.819999,223.980002 312.690001,224.247499 312.55,224.4825 C312.409999,224.717501 312.245001,224.917499 312.055,225.0825 C311.864999,225.247501 311.642501,225.375 311.3875,225.465 C311.132499,225.555 310.830002,225.6 310.48,225.6 C310.329999,225.6 310.177501,225.5925 310.0225,225.5775 C309.867499,225.5625 309.710001,225.535 309.55,225.495 L309.685,224.25 C309.925001,224.33 310.159999,224.37 310.39,224.37 C310.760002,224.37 311.034999,224.267501 311.215,224.0625 C311.395001,223.857499 311.559999,223.565002 311.71,223.185 L312.16,222 L309.115,214.89 L310.69,214.89 L312.895,220.47 Z" id="eBay" fill="#FFFFFF"></path>
                        </g>
                        <path d="M125.636,96 L119.294,96 L119.294,94.95 L123.354,90.848 C123.503334,90.6986659 123.650333,90.5376675 123.795,90.365 C123.939667,90.1923325 124.067999,90.0126676 124.18,89.826 C124.292001,89.6393324 124.380666,89.441001 124.446,89.231 C124.511334,89.020999 124.544,88.8040011 124.544,88.58 C124.544,88.2906652 124.492667,88.0293345 124.39,87.796 C124.287333,87.5626655 124.145001,87.3643341 123.963,87.201 C123.780999,87.0376658 123.571001,86.9116671 123.333,86.823 C123.094999,86.7343329 122.845335,86.69 122.584,86.69 C122.051997,86.69 121.604002,86.855665 121.24,87.187 C120.875998,87.518335 120.642667,87.9406641 120.54,88.454 L119.546,88.258 C119.611334,87.9126649 119.734999,87.5906682 119.917,87.292 C120.099001,86.9933318 120.322999,86.7366677 120.589,86.522 C120.855001,86.3073323 121.155998,86.1393339 121.492,86.018 C121.828002,85.8966661 122.191998,85.836 122.584,85.836 C122.985335,85.836 123.365665,85.8943327 123.725,86.011 C124.084335,86.1276673 124.399332,86.3003322 124.67,86.529 C124.940668,86.7576678 125.157666,87.0423316 125.321,87.383 C125.484334,87.7236684 125.566,88.1179978 125.566,88.566 C125.566,88.8833349 125.521667,89.177332 125.433,89.448 C125.344333,89.718668 125.227667,89.9753321 125.083,90.218 C124.938333,90.4606679 124.768001,90.6916656 124.572,90.911 C124.375999,91.1303344 124.170668,91.3473323 123.956,91.562 L120.386,95.104 L125.636,95.104 L125.636,96 Z M130.9336,85.836 C131.549603,85.836 132.065265,85.9876651 132.4806,86.291 C132.895935,86.5943348 133.229599,86.9909976 133.4816,87.481 C133.733601,87.9710025 133.913266,88.5286635 134.0206,89.154 C134.127934,89.7793365 134.1816,90.4139968 134.1816,91.058 C134.1816,91.7020032 134.127934,92.3343302 134.0206,92.955 C133.913266,93.5756698 133.733601,94.1309975 133.4816,94.621 C133.229599,95.1110025 132.895935,95.5053318 132.4806,95.804 C132.065265,96.1026682 131.549603,96.252 130.9336,96.252 C130.308264,96.252 129.787935,96.1026682 129.3726,95.804 C128.957265,95.5053318 128.623601,95.1110025 128.3716,94.621 C128.119599,94.1309975 127.942267,93.5756698 127.8396,92.955 C127.736933,92.3343302 127.6856,91.7020032 127.6856,91.058 C127.6856,90.4139968 127.736933,89.7793365 127.8396,89.154 C127.942267,88.5286635 128.119599,87.9710025 128.3716,87.481 C128.623601,86.9909976 128.957265,86.5943348 129.3726,86.291 C129.787935,85.9876651 130.308264,85.836 130.9336,85.836 Z M130.9336,86.69 C130.494931,86.69 130.130935,86.825332 129.8416,87.096 C129.552265,87.366668 129.323601,87.7119979 129.1556,88.132 C128.987599,88.5520021 128.870934,89.0209974 128.8056,89.539 C128.740266,90.0570026 128.7076,90.5633309 128.7076,91.058 C128.7076,91.5526691 128.740266,92.0566641 128.8056,92.57 C128.870934,93.0833359 128.987599,93.5476646 129.1556,93.963 C129.323601,94.3783354 129.552265,94.7189987 129.8416,94.985 C130.130935,95.2510013 130.494931,95.384 130.9336,95.384 C131.362935,95.384 131.722265,95.2510013 132.0116,94.985 C132.300935,94.7189987 132.529599,94.3783354 132.6976,93.963 C132.865601,93.5476646 132.9846,93.0833359 133.0546,92.57 C133.1246,92.0566641 133.1596,91.5526691 133.1596,91.058 C133.1596,90.5633309 133.1246,90.0570026 133.0546,89.539 C132.9846,89.0209974 132.865601,88.5520021 132.6976,88.132 C132.529599,87.7119979 132.300935,87.366668 132.0116,87.096 C131.722265,86.825332 131.362935,86.69 130.9336,86.69 Z M140.1792,96 L139.1712,96 L139.1712,87.334 L137.3792,88.86 L136.7632,88.16 L139.2832,86.088 L140.1792,86.088 L140.1792,96 Z M150.4328,87.012 L146.4428,96 L145.3088,96 L149.4108,86.984 L144.5528,86.984 L144.5528,86.088 L150.4328,86.088 L150.4328,87.012 Z M161.546,87.684 C161.331332,87.3853318 161.056002,87.1450009 160.72,86.963 C160.383998,86.7809991 159.978002,86.69 159.502,86.69 C159.259332,86.69 159.012001,86.727333 158.76,86.802 C158.507999,86.876667 158.279334,86.9909992 158.074,87.145 C157.868666,87.2990008 157.703001,87.4926655 157.577,87.726 C157.450999,87.9593345 157.388,88.2346651 157.388,88.552 C157.388,88.8693349 157.448666,89.1306656 157.57,89.336 C157.691334,89.5413344 157.852332,89.7163326 158.053,89.861 C158.253668,90.0056674 158.482332,90.1246662 158.739,90.218 C158.995668,90.3113338 159.263999,90.4046662 159.544,90.498 C159.889335,90.6100006 160.236998,90.7313327 160.587,90.862 C160.937002,90.9926673 161.251999,91.162999 161.532,91.373 C161.812001,91.5830011 162.040666,91.8489984 162.218,92.171 C162.395334,92.4930016 162.484,92.9013309 162.484,93.396 C162.484,93.8906691 162.388334,94.3176649 162.197,94.677 C162.005666,95.0363351 161.758335,95.3326655 161.455,95.566 C161.151665,95.7993345 160.806335,95.9719994 160.419,96.084 C160.031665,96.1960006 159.642002,96.252 159.25,96.252 C158.951332,96.252 158.652668,96.221667 158.354,96.161 C158.055332,96.100333 157.770668,96.0093339 157.5,95.888 C157.229332,95.7666661 156.977335,95.6126676 156.744,95.426 C156.510666,95.2393324 156.305334,95.0246679 156.128,94.782 L156.996,94.138 C157.210668,94.4926684 157.511665,94.7889988 157.899,95.027 C158.286335,95.2650012 158.741331,95.384 159.264,95.384 C159.516001,95.384 159.772665,95.3443337 160.034,95.265 C160.295335,95.1856663 160.530999,95.0643342 160.741,94.901 C160.951001,94.7376658 161.123666,94.5370012 161.259,94.299 C161.394334,94.0609988 161.462,93.7833349 161.462,93.466 C161.462,93.1206649 161.394334,92.8336678 161.259,92.605 C161.123666,92.3763322 160.944001,92.1850008 160.72,92.031 C160.495999,91.8769992 160.239335,91.7486672 159.95,91.646 C159.660665,91.5433328 159.357335,91.4406672 159.04,91.338 C158.713332,91.2353328 158.391335,91.1186673 158.074,90.988 C157.756665,90.8573327 157.472001,90.687001 157.22,90.477 C156.967999,90.266999 156.765001,90.0080015 156.611,89.7 C156.456999,89.3919985 156.38,89.0140022 156.38,88.566 C156.38,88.0899976 156.475666,87.6793351 156.667,87.334 C156.858334,86.9886649 157.107998,86.7040011 157.416,86.48 C157.724002,86.2559989 158.064665,86.0926672 158.438,85.99 C158.811335,85.8873328 159.179998,85.836 159.544,85.836 C160.216003,85.836 160.789998,85.9549988 161.266,86.193 C161.742002,86.4310012 162.101332,86.7133317 162.344,87.04 L161.546,87.684 Z M168.8876,91.772 C168.8876,91.2026638 168.738268,90.7780014 168.4396,90.498 C168.140932,90.2179986 167.706936,90.078 167.1376,90.078 C166.745598,90.078 166.381602,90.1479993 166.0456,90.288 C165.709598,90.4280007 165.424935,90.6146655 165.1916,90.848 L164.6596,90.218 C164.930268,89.947332 165.287264,89.7233342 165.7306,89.546 C166.173936,89.3686658 166.675597,89.28 167.2356,89.28 C167.590268,89.28 167.921598,89.3289995 168.2296,89.427 C168.537602,89.5250005 168.808266,89.671999 169.0416,89.868 C169.274935,90.064001 169.456933,90.3113318 169.5876,90.61 C169.718267,90.9086682 169.7836,91.2586647 169.7836,91.66 L169.7836,94.53 C169.7836,94.7820013 169.792933,95.043332 169.8116,95.314 C169.830267,95.584668 169.858266,95.8133324 169.8956,96 L169.0416,96 C169.0136,95.8413325 168.990267,95.6686676 168.9716,95.482 C168.952933,95.2953324 168.9436,95.1133342 168.9436,94.936 L168.9156,94.936 C168.616932,95.3746689 168.278602,95.6896657 167.9006,95.881 C167.522598,96.0723343 167.067603,96.168 166.5356,96.168 C166.283599,96.168 166.024601,96.1330004 165.7586,96.063 C165.492599,95.9929997 165.249934,95.8786675 165.0306,95.72 C164.811266,95.5613325 164.629267,95.3560013 164.4846,95.104 C164.339933,94.8519987 164.2676,94.5440018 164.2676,94.18 C164.2676,93.6759975 164.395932,93.2770015 164.6526,92.983 C164.909268,92.6889985 165.252265,92.4696674 165.6816,92.325 C166.110935,92.1803326 166.603264,92.0870002 167.1586,92.045 C167.713936,92.0029998 168.290264,91.982 168.8876,91.982 L168.8876,91.772 Z M168.6076,92.724 C168.215598,92.724 167.821269,92.7403332 167.4246,92.773 C167.027931,92.8056668 166.668602,92.8709995 166.3466,92.969 C166.024598,93.0670005 165.760934,93.2093324 165.5556,93.396 C165.350266,93.5826676 165.2476,93.8299985 165.2476,94.138 C165.2476,94.3713345 165.291933,94.5673325 165.3806,94.726 C165.469267,94.8846675 165.588266,95.0129995 165.7376,95.111 C165.886934,95.2090005 166.052599,95.2789998 166.2346,95.321 C166.416601,95.3630002 166.600932,95.384 166.7876,95.384 C167.123602,95.384 167.422265,95.3256672 167.6836,95.209 C167.944935,95.0923327 168.164266,94.9336677 168.3416,94.733 C168.518934,94.5323323 168.654266,94.3013346 168.7476,94.04 C168.840934,93.7786654 168.8876,93.5033348 168.8876,93.214 L168.8876,92.724 L168.6076,92.724 Z M173.3872,96 L172.4352,96 L172.4352,85.416 L173.3872,85.416 L173.3872,96 Z M181.1068,92.22 C181.0788,91.6039969 180.880469,91.093002 180.5118,90.687 C180.143131,90.280998 179.618137,90.078 178.9368,90.078 C178.619465,90.078 178.325468,90.1363328 178.0548,90.253 C177.784132,90.3696672 177.546134,90.5283323 177.3408,90.729 C177.135466,90.9296677 176.972134,91.158332 176.8508,91.415 C176.729466,91.6716679 176.659467,91.9399986 176.6408,92.22 L181.1068,92.22 Z M182.0728,92.528 L182.0728,92.738 C182.0728,92.812667 182.068133,92.8919996 182.0588,92.976 L176.6268,92.976 C176.636133,93.3026683 176.701466,93.6106652 176.8228,93.9 C176.944134,94.1893348 177.112132,94.4413323 177.3268,94.656 C177.541468,94.8706677 177.793465,95.0409994 178.0828,95.167 C178.372135,95.2930006 178.684798,95.356 179.0208,95.356 C179.515469,95.356 179.942465,95.2416678 180.3018,95.013 C180.661135,94.7843322 180.934132,94.5206682 181.1208,94.222 L181.8348,94.782 C181.442798,95.2766691 181.011136,95.6313323 180.5398,95.846 C180.068464,96.0606677 179.562136,96.168 179.0208,96.168 C178.535464,96.168 178.085135,96.0816675 177.6698,95.909 C177.254465,95.7363325 176.897468,95.4960015 176.5988,95.188 C176.300132,94.8799985 176.064468,94.5160021 175.8918,94.096 C175.719132,93.6759979 175.6328,93.2186691 175.6328,92.724 C175.6328,92.2293309 175.716799,91.7720021 175.8848,91.352 C176.052801,90.9319979 176.286132,90.5680015 176.5848,90.26 C176.883468,89.9519985 177.233465,89.7116675 177.6348,89.539 C178.036135,89.3663325 178.470131,89.28 178.9368,89.28 C179.450136,89.28 179.902798,89.3663325 180.2948,89.539 C180.686802,89.7116675 181.013465,89.9449985 181.2748,90.239 C181.536135,90.5330015 181.734466,90.875998 181.8698,91.268 C182.005134,91.660002 182.0728,92.0799978 182.0728,92.528 Z M187.7764,91.002 C187.636399,90.731332 187.424068,90.5096675 187.1394,90.337 C186.854732,90.1643325 186.530402,90.078 186.1664,90.078 C185.998399,90.078 185.830401,90.0966665 185.6624,90.134 C185.494399,90.1713335 185.345067,90.2319996 185.2144,90.316 C185.083733,90.4000004 184.978734,90.5073327 184.8994,90.638 C184.820066,90.7686673 184.7804,90.9226658 184.7804,91.1 C184.7804,91.4080015 184.906399,91.6436659 185.1584,91.807 C185.410401,91.9703341 185.807064,92.1079994 186.3484,92.22 C187.123071,92.3786675 187.694732,92.6096651 188.0634,92.913 C188.432069,93.2163348 188.6164,93.6246641 188.6164,94.138 C188.6164,94.5113352 188.544067,94.826332 188.3994,95.083 C188.254733,95.339668 188.065735,95.5496658 187.8324,95.713 C187.599066,95.8763341 187.335401,95.9929997 187.0414,96.063 C186.747399,96.1330004 186.451068,96.168 186.1524,96.168 C185.657731,96.168 185.177069,96.0653344 184.7104,95.86 C184.243731,95.6546656 183.861068,95.3326689 183.5624,94.894 L184.3184,94.334 C184.486401,94.6233348 184.733732,94.865999 185.0604,95.062 C185.387068,95.258001 185.746398,95.356 186.1384,95.356 C186.343734,95.356 186.539732,95.3373335 186.7264,95.3 C186.913068,95.2626665 187.076399,95.1973338 187.2164,95.104 C187.356401,95.0106662 187.4684,94.8916674 187.5524,94.747 C187.6364,94.6023326 187.6784,94.4226677 187.6784,94.208 C187.6784,93.8626649 187.512735,93.6036675 187.1814,93.431 C186.850065,93.2583325 186.371736,93.0973341 185.7464,92.948 C185.550399,92.9013331 185.342734,92.8430003 185.1234,92.773 C184.904066,92.7029996 184.701068,92.600334 184.5144,92.465 C184.327732,92.329666 184.173734,92.1593344 184.0524,91.954 C183.931066,91.7486656 183.8704,91.4920015 183.8704,91.184 C183.8704,90.8479983 183.935733,90.5610012 184.0664,90.323 C184.197067,90.0849988 184.372066,89.8890008 184.5914,89.735 C184.810734,89.5809992 185.060399,89.466667 185.3404,89.392 C185.620401,89.317333 185.909732,89.28 186.2084,89.28 C186.665736,89.28 187.109065,89.3826656 187.5384,89.588 C187.967735,89.7933344 188.289732,90.0826648 188.5044,90.456 L187.7764,91.002 Z M126.7966,113.292 L126.8106,113.292 L130.1286,105.088 L131.6686,105.088 L131.6686,115 L130.6606,115 L130.6606,106.39 L130.6326,106.39 L127.0486,115 L126.5166,115 L122.9326,106.39 L122.9046,106.39 L122.9046,115 L121.8966,115 L121.8966,105.088 L123.4366,105.088 L126.7966,113.292 Z M140.9282,111.724 C140.9282,112.218669 140.841868,112.675998 140.6692,113.096 C140.496532,113.516002 140.256202,113.879998 139.9482,114.188 C139.640198,114.496002 139.271535,114.736332 138.8422,114.909 C138.412865,115.081668 137.941536,115.168 137.4282,115.168 C136.924197,115.168 136.457535,115.081668 136.0282,114.909 C135.598865,114.736332 135.230202,114.496002 134.9222,114.188 C134.614198,113.879998 134.373868,113.516002 134.2012,113.096 C134.028532,112.675998 133.9422,112.218669 133.9422,111.724 C133.9422,111.229331 134.028532,110.772002 134.2012,110.352 C134.373868,109.931998 134.614198,109.568002 134.9222,109.26 C135.230202,108.951998 135.598865,108.711668 136.0282,108.539 C136.457535,108.366332 136.924197,108.28 137.4282,108.28 C137.941536,108.28 138.412865,108.366332 138.8422,108.539 C139.271535,108.711668 139.640198,108.951998 139.9482,109.26 C140.256202,109.568002 140.496532,109.931998 140.6692,110.352 C140.841868,110.772002 140.9282,111.229331 140.9282,111.724 Z M139.9202,111.724 C139.9202,111.359998 139.861867,111.017002 139.7452,110.695 C139.628533,110.372998 139.462868,110.093001 139.2482,109.855 C139.033532,109.616999 138.772202,109.428001 138.4642,109.288 C138.156198,109.147999 137.810869,109.078 137.4282,109.078 C137.045531,109.078 136.702535,109.147999 136.3992,109.288 C136.095865,109.428001 135.836868,109.616999 135.6222,109.855 C135.407532,110.093001 135.241867,110.372998 135.1252,110.695 C135.008533,111.017002 134.9502,111.359998 134.9502,111.724 C134.9502,112.088002 135.008533,112.430998 135.1252,112.753 C135.241867,113.075002 135.407532,113.354999 135.6222,113.593 C135.836868,113.831001 136.095865,114.017666 136.3992,114.153 C136.702535,114.288334 137.045531,114.356 137.4282,114.356 C137.810869,114.356 138.156198,114.288334 138.4642,114.153 C138.772202,114.017666 139.033532,113.831001 139.2482,113.593 C139.462868,113.354999 139.628533,113.075002 139.7452,112.753 C139.861867,112.430998 139.9202,112.088002 139.9202,111.724 Z M143.9998,108.448 C144.018467,108.625334 144.032467,108.821332 144.0418,109.036 C144.051133,109.250668 144.0558,109.427999 144.0558,109.568 L144.0838,109.568 C144.270468,109.185331 144.573798,108.875001 144.9938,108.637 C145.413802,108.398999 145.857131,108.28 146.3238,108.28 C147.154471,108.28 147.777465,108.527331 148.1928,109.022 C148.608135,109.516669 148.8158,110.169996 148.8158,110.982 L148.8158,115 L147.8638,115 L147.8638,111.374 C147.8638,111.028665 147.8358,110.716001 147.7798,110.436 C147.7238,110.155999 147.628134,109.915668 147.4928,109.715 C147.357466,109.514332 147.175468,109.358001 146.9468,109.246 C146.718132,109.133999 146.431135,109.078 146.0858,109.078 C145.833799,109.078 145.588801,109.129333 145.3508,109.232 C145.112799,109.334667 144.900468,109.490999 144.7138,109.701 C144.527132,109.911001 144.377801,110.176998 144.2658,110.499 C144.153799,110.821002 144.0978,111.201331 144.0978,111.64 L144.0978,115 L143.1458,115 L143.1458,109.89 C143.1458,109.712666 143.141133,109.484001 143.1318,109.204 C143.122467,108.923999 143.108467,108.672001 143.0898,108.448 L143.9998,108.448 Z M157.9634,111.724 C157.9634,112.218669 157.877068,112.675998 157.7044,113.096 C157.531732,113.516002 157.291402,113.879998 156.9834,114.188 C156.675398,114.496002 156.306735,114.736332 155.8774,114.909 C155.448065,115.081668 154.976736,115.168 154.4634,115.168 C153.959397,115.168 153.492735,115.081668 153.0634,114.909 C152.634065,114.736332 152.265402,114.496002 151.9574,114.188 C151.649398,113.879998 151.409068,113.516002 151.2364,113.096 C151.063732,112.675998 150.9774,112.218669 150.9774,111.724 C150.9774,111.229331 151.063732,110.772002 151.2364,110.352 C151.409068,109.931998 151.649398,109.568002 151.9574,109.26 C152.265402,108.951998 152.634065,108.711668 153.0634,108.539 C153.492735,108.366332 153.959397,108.28 154.4634,108.28 C154.976736,108.28 155.448065,108.366332 155.8774,108.539 C156.306735,108.711668 156.675398,108.951998 156.9834,109.26 C157.291402,109.568002 157.531732,109.931998 157.7044,110.352 C157.877068,110.772002 157.9634,111.229331 157.9634,111.724 Z M156.9554,111.724 C156.9554,111.359998 156.897067,111.017002 156.7804,110.695 C156.663733,110.372998 156.498068,110.093001 156.2834,109.855 C156.068732,109.616999 155.807402,109.428001 155.4994,109.288 C155.191398,109.147999 154.846069,109.078 154.4634,109.078 C154.080731,109.078 153.737735,109.147999 153.4344,109.288 C153.131065,109.428001 152.872068,109.616999 152.6574,109.855 C152.442732,110.093001 152.277067,110.372998 152.1604,110.695 C152.043733,111.017002 151.9854,111.359998 151.9854,111.724 C151.9854,112.088002 152.043733,112.430998 152.1604,112.753 C152.277067,113.075002 152.442732,113.354999 152.6574,113.593 C152.872068,113.831001 153.131065,114.017666 153.4344,114.153 C153.737735,114.288334 154.080731,114.356 154.4634,114.356 C154.846069,114.356 155.191398,114.288334 155.4994,114.153 C155.807402,114.017666 156.068732,113.831001 156.2834,113.593 C156.498068,113.354999 156.663733,113.075002 156.7804,112.753 C156.897067,112.430998 156.9554,112.088002 156.9554,111.724 Z M161.133,118.36 L160.181,118.36 L160.181,108.448 L161.133,108.448 L161.133,109.582 L161.175,109.582 C161.445668,109.152665 161.807331,108.828334 162.26,108.609 C162.712669,108.389666 163.172331,108.28 163.639,108.28 C164.152336,108.28 164.616665,108.368666 165.032,108.546 C165.447335,108.723334 165.801999,108.965998 166.096,109.274 C166.390001,109.582002 166.618666,109.945998 166.782,110.366 C166.945334,110.786002 167.027,111.238664 167.027,111.724 C167.027,112.209336 166.945334,112.661998 166.782,113.082 C166.618666,113.502002 166.390001,113.865998 166.096,114.174 C165.801999,114.482002 165.447335,114.724666 165.032,114.902 C164.616665,115.079334 164.152336,115.168 163.639,115.168 C163.172331,115.168 162.712669,115.058334 162.26,114.839 C161.807331,114.619666 161.445668,114.304669 161.175,113.894 L161.133,113.894 L161.133,118.36 Z M166.019,111.724 C166.019,111.359998 165.963001,111.017002 165.851,110.695 C165.738999,110.372998 165.578001,110.093001 165.368,109.855 C165.157999,109.616999 164.899002,109.428001 164.591,109.288 C164.282998,109.147999 163.933002,109.078 163.541,109.078 C163.176998,109.078 162.841002,109.145666 162.533,109.281 C162.224998,109.416334 161.959001,109.602999 161.735,109.841 C161.510999,110.079001 161.336001,110.358998 161.21,110.681 C161.083999,111.003002 161.021,111.350665 161.021,111.724 C161.021,112.097335 161.083999,112.444998 161.21,112.767 C161.336001,113.089002 161.510999,113.366665 161.735,113.6 C161.959001,113.833335 162.224998,114.017666 162.533,114.153 C162.841002,114.288334 163.176998,114.356 163.541,114.356 C163.933002,114.356 164.282998,114.288334 164.591,114.153 C164.899002,114.017666 165.157999,113.831001 165.368,113.593 C165.578001,113.354999 165.738999,113.075002 165.851,112.753 C165.963001,112.430998 166.019,112.088002 166.019,111.724 Z M175.7546,111.724 C175.7546,112.218669 175.668268,112.675998 175.4956,113.096 C175.322932,113.516002 175.082602,113.879998 174.7746,114.188 C174.466598,114.496002 174.097935,114.736332 173.6686,114.909 C173.239265,115.081668 172.767936,115.168 172.2546,115.168 C171.750597,115.168 171.283935,115.081668 170.8546,114.909 C170.425265,114.736332 170.056602,114.496002 169.7486,114.188 C169.440598,113.879998 169.200268,113.516002 169.0276,113.096 C168.854932,112.675998 168.7686,112.218669 168.7686,111.724 C168.7686,111.229331 168.854932,110.772002 169.0276,110.352 C169.200268,109.931998 169.440598,109.568002 169.7486,109.26 C170.056602,108.951998 170.425265,108.711668 170.8546,108.539 C171.283935,108.366332 171.750597,108.28 172.2546,108.28 C172.767936,108.28 173.239265,108.366332 173.6686,108.539 C174.097935,108.711668 174.466598,108.951998 174.7746,109.26 C175.082602,109.568002 175.322932,109.931998 175.4956,110.352 C175.668268,110.772002 175.7546,111.229331 175.7546,111.724 Z M174.7466,111.724 C174.7466,111.359998 174.688267,111.017002 174.5716,110.695 C174.454933,110.372998 174.289268,110.093001 174.0746,109.855 C173.859932,109.616999 173.598602,109.428001 173.2906,109.288 C172.982598,109.147999 172.637269,109.078 172.2546,109.078 C171.871931,109.078 171.528935,109.147999 171.2256,109.288 C170.922265,109.428001 170.663268,109.616999 170.4486,109.855 C170.233932,110.093001 170.068267,110.372998 169.9516,110.695 C169.834933,111.017002 169.7766,111.359998 169.7766,111.724 C169.7766,112.088002 169.834933,112.430998 169.9516,112.753 C170.068267,113.075002 170.233932,113.354999 170.4486,113.593 C170.663268,113.831001 170.922265,114.017666 171.2256,114.153 C171.528935,114.288334 171.871931,114.356 172.2546,114.356 C172.637269,114.356 172.982598,114.288334 173.2906,114.153 C173.598602,114.017666 173.859932,113.831001 174.0746,113.593 C174.289268,113.354999 174.454933,113.075002 174.5716,112.753 C174.688267,112.430998 174.7466,112.088002 174.7466,111.724 Z M178.9522,115 L178.0002,115 L178.0002,104.416 L178.9522,104.416 L178.9522,115 Z M183.9278,113.978 L183.9558,113.978 L185.9858,108.448 L187.0218,108.448 L183.7598,116.694 C183.563799,117.198003 183.314135,117.601665 183.0108,117.905 C182.707465,118.208335 182.271136,118.36 181.7018,118.36 C181.412465,118.36 181.127801,118.332 180.8478,118.276 L180.9458,117.408 C181.169801,117.482667 181.403132,117.52 181.6458,117.52 C181.972468,117.52 182.229132,117.419668 182.4158,117.219 C182.602468,117.018332 182.765799,116.731335 182.9058,116.358 L183.4378,114.986 L180.6378,108.448 L181.7018,108.448 L183.9278,113.978 Z" id="2017-Sales-Monopoly" fill="#FFFFFF"></path>
                    </g>
                </g>
            </g>
        </g>
    </g>
</svg>