<?xml version="1.0" encoding="UTF-8"?>
<svg width="322px" height="227px" viewBox="0 0 322 227" version="1.1" xmlns="http://www.w3.org/2000/svg" xmlns:xlink="http://www.w3.org/1999/xlink">
    <!-- Generator: Sketch 48.2 (47327) - http://www.bohemiancoding.com/sketch -->
    <title>item7</title>
    <desc>Created with Sketch.</desc>
    <defs>
        <path d="M105,209 C47.0101013,209 0,162.213756 0,104.5 C0,46.7862436 47.0101013,0 105,0 C162.989899,0 210,46.7862436 210,104.5 C210,162.213756 162.989899,209 105,209 Z M105.287671,164.909589 C138.651723,164.909589 165.69863,137.991476 165.69863,104.786301 C165.69863,71.5811265 138.651723,44.6630137 105.287671,44.6630137 C71.9236199,44.6630137 44.8767123,71.5811265 44.8767123,104.786301 C44.8767123,137.991476 71.9236199,164.909589 105.287671,164.909589 Z" id="path-1"></path>
        <linearGradient x1="-38.2127232%" y1="45.5107495%" x2="82.2566106%" y2="74.4850852%" id="linearGradient-3">
            <stop stop-color="#00ACF0" offset="0%"></stop>
            <stop stop-color="#2CB6F7" offset="100%"></stop>
        </linearGradient>
        <linearGradient x1="35.6606276%" y1="55.580068%" x2="113.40917%" y2="55.580068%" id="linearGradient-4">
            <stop stop-color="#1490E0" offset="0%"></stop>
            <stop stop-color="#20F0FF" offset="100%"></stop>
        </linearGradient>
        <linearGradient x1="74.534899%" y1="16.7057966%" x2="74.534899%" y2="94.4543394%" id="linearGradient-5">
            <stop stop-color="#1490E0" offset="0%"></stop>
            <stop stop-color="#20F0FF" offset="100%"></stop>
        </linearGradient>
        <linearGradient x1="4.4408921e-14%" y1="50%" x2="138.507746%" y2="50%" id="linearGradient-6">
            <stop stop-color="#17EAD9" offset="0%"></stop>
            <stop stop-color="#6078EA" offset="100%"></stop>
        </linearGradient>
        <linearGradient x1="50%" y1="0%" x2="50%" y2="100%" id="linearGradient-7">
            <stop stop-color="#FFFFFF" stop-opacity="0.5" offset="0%"></stop>
            <stop stop-color="#000000" stop-opacity="0.5" offset="100%"></stop>
        </linearGradient>
        <path d="M11.265,125.832 C11.265,129.538 9.616,131.102 7.1,131.102 C4.584,131.102 2.935,129.538 2.935,125.832 L2.935,124.438 C2.935,120.749 4.584,119.168 7.1,119.168 C9.616,119.168 11.265,120.749 11.265,124.438 L11.265,125.832 Z M3.921,124.438 L3.921,125.832 C3.921,129.011 5.179,130.184 7.1,130.184 C9.021,130.184 10.279,129.011 10.279,125.832 L10.279,124.438 C10.279,121.276 9.021,120.086 7.1,120.086 C5.179,120.086 3.921,121.276 3.921,124.438 Z M12.8781111,123.367 L12.8781111,122.5 L13.9661111,122.5 L13.9661111,120.63 L14.9011111,120.63 L14.9011111,122.5 L16.9921111,122.5 L16.9921111,123.367 L14.9011111,123.367 L14.9011111,128.127 C14.9011111,129.487 15.0541111,130.099 16.4311111,130.099 L16.9921111,130.099 L16.9921111,131 L16.3971111,131 C14.5101111,131 13.9661111,130.15 13.9661111,128.382 L13.9661111,123.367 L12.8781111,123.367 Z M19.0982222,131 L19.0982222,119.27 L20.0332222,119.27 L20.0332222,123.656 C20.4922222,122.84 21.2742222,122.398 22.5322222,122.398 C24.4192222,122.398 25.6602222,123.571 25.6602222,125.968 L25.6602222,131 L24.7252222,131 L24.7252222,125.985 C24.7252222,124.047 23.7562222,123.282 22.4302222,123.282 C20.8322222,123.282 20.0332222,124.336 20.0332222,125.9 L20.0332222,131 L19.0982222,131 Z M34.4133333,126.988 L28.7863333,126.988 L28.7863333,127.345 C28.7863333,129.028 29.5683333,130.235 31.3703333,130.235 C32.4073333,130.235 33.1043333,129.929 33.5803333,129.198 L34.3283333,129.725 C33.7333333,130.66 32.7983333,131.102 31.4213333,131.102 C29.1603333,131.102 27.8513333,129.708 27.8513333,127.345 L27.8513333,126.121 C27.8513333,123.707 29.0073333,122.398 31.1323333,122.398 C33.2573333,122.398 34.4133333,123.707 34.4133333,126.121 L34.4133333,126.988 Z M28.7863333,126.121 L28.7863333,126.138 L33.4783333,126.138 L33.4783333,126.121 C33.4783333,124.268 32.6793333,123.265 31.1323333,123.265 C29.5853333,123.265 28.7863333,124.285 28.7863333,126.121 Z M39.7324444,123.282 C38.4064444,123.282 37.6754444,124.336 37.6754444,125.883 L37.6754444,131 L36.7404444,131 L36.7404444,122.5 L37.6754444,122.5 L37.6754444,123.656 C38.0324444,122.874 38.7464444,122.398 39.8174444,122.398 C40.9224444,122.398 41.6534444,122.823 42.2144444,123.571 L41.4324444,124.149 C40.9904444,123.571 40.4804444,123.282 39.7324444,123.282 Z M4.482,137.27 L8.392,145.073 L12.285,137.27 L13.254,137.27 L13.254,149 L12.268,149 L12.268,139.429 L8.817,146.382 L7.933,146.382 L4.516,139.446 L4.516,149 L3.53,149 L3.53,137.27 L4.482,137.27 Z M22.3471111,144.988 L16.7201111,144.988 L16.7201111,145.345 C16.7201111,147.028 17.5021111,148.235 19.3041111,148.235 C20.3411111,148.235 21.0381111,147.929 21.5141111,147.198 L22.2621111,147.725 C21.6671111,148.66 20.7321111,149.102 19.3551111,149.102 C17.0941111,149.102 15.7851111,147.708 15.7851111,145.345 L15.7851111,144.121 C15.7851111,141.707 16.9411111,140.398 19.0661111,140.398 C21.1911111,140.398 22.3471111,141.707 22.3471111,144.121 L22.3471111,144.988 Z M16.7201111,144.121 L16.7201111,144.138 L21.4121111,144.138 L21.4121111,144.121 C21.4121111,142.268 20.6131111,141.265 19.0661111,141.265 C17.5191111,141.265 16.7201111,142.285 16.7201111,144.121 Z M27.6662222,141.282 C26.3402222,141.282 25.6092222,142.336 25.6092222,143.883 L25.6092222,149 L24.6742222,149 L24.6742222,140.5 L25.6092222,140.5 L25.6092222,141.656 C25.9662222,140.874 26.6802222,140.398 27.7512222,140.398 C28.8562222,140.398 29.5872222,140.823 30.1482222,141.571 L29.3662222,142.149 C28.9242222,141.571 28.4142222,141.282 27.6662222,141.282 Z M36.7253333,147.198 L37.4733333,147.725 C36.9123333,148.626 35.9093333,149.102 34.5833333,149.102 C32.3053333,149.102 30.9963333,147.742 30.9963333,145.345 L30.9963333,144.121 C30.9963333,141.707 32.3393333,140.398 34.5833333,140.398 C35.8243333,140.398 36.8273333,140.84 37.4563333,141.707 L36.7083333,142.217 C36.2323333,141.571 35.4333333,141.265 34.5833333,141.265 C32.9003333,141.265 31.9313333,142.285 31.9313333,144.121 L31.9313333,145.345 C31.9313333,147.028 32.7133333,148.235 34.5833333,148.235 C35.4503333,148.235 36.2493333,147.946 36.7253333,147.198 Z M39.1884444,149 L39.1884444,137.27 L40.1234444,137.27 L40.1234444,141.656 C40.5824444,140.84 41.3644444,140.398 42.6224444,140.398 C44.5094444,140.398 45.7504444,141.571 45.7504444,143.968 L45.7504444,149 L44.8154444,149 L44.8154444,143.985 C44.8154444,142.047 43.8464444,141.282 42.5204444,141.282 C40.9224444,141.282 40.1234444,142.336 40.1234444,143.9 L40.1234444,149 L39.1884444,149 Z M47.9415555,146.569 C47.9415555,144.937 49.0805555,144.172 50.8315555,144.172 L53.3135555,144.172 L53.3135555,143.118 C53.3135555,141.673 52.7355555,141.282 51.1715555,141.282 C50.1515555,141.282 49.4885555,141.35 48.9445555,142.251 L48.2305555,141.758 C48.8255555,140.755 49.6755555,140.398 51.1885555,140.398 C53.2625555,140.398 54.2485555,141.044 54.2485555,143.118 L54.2485555,149 L53.3135555,149 L53.3135555,147.946 C52.8375555,148.847 51.9875555,149.102 50.8995555,149.102 C49.0125555,149.102 47.9415555,148.201 47.9415555,146.569 Z M53.3135555,145.838 L53.3135555,145.005 L50.8315555,145.005 C49.3695555,145.005 48.8765555,145.685 48.8765555,146.586 C48.8765555,147.776 49.7095555,148.218 50.8995555,148.218 C52.2765555,148.218 53.3135555,147.742 53.3135555,145.838 Z M56.8646666,149 L56.8646666,140.5 L57.7996666,140.5 L57.7996666,141.656 C58.2416666,140.84 59.0236666,140.398 60.2986666,140.398 C62.1856666,140.398 63.4266666,141.571 63.4266666,143.968 L63.4266666,149 L62.4916666,149 L62.4916666,143.985 C62.4916666,142.047 61.5226666,141.282 60.1966666,141.282 C58.5986666,141.282 57.7996666,142.336 57.7996666,143.9 L57.7996666,149 L56.8646666,149 Z M65.2947777,141.367 L65.2947777,140.5 L66.3827777,140.5 L66.3827777,138.63 L67.3177777,138.63 L67.3177777,140.5 L69.4087777,140.5 L69.4087777,141.367 L67.3177777,141.367 L67.3177777,146.127 C67.3177777,147.487 67.4707777,148.099 68.8477777,148.099 L69.4087777,148.099 L69.4087777,149 L68.8137777,149 C66.9267777,149 66.3827777,148.15 66.3827777,146.382 L66.3827777,141.367 L65.2947777,141.367 Z M77.0908888,141.809 L76.3768888,142.319 C75.8498888,141.571 75.3058888,141.282 74.0648888,141.282 C72.9258888,141.282 72.0588888,141.707 72.0588888,142.676 C72.0588888,143.866 73.1298888,144.104 74.3198888,144.257 C75.9688888,144.478 77.3458888,144.954 77.3458888,146.756 C77.3458888,148.082 76.4958888,149.102 74.2348888,149.102 C72.5518888,149.102 71.6678888,148.575 71.0388888,147.691 L71.7698888,147.181 C72.2798888,147.895 72.9258888,148.218 74.2518888,148.218 C75.5778888,148.218 76.4108888,147.793 76.4108888,146.773 C76.4108888,145.685 75.5608888,145.311 73.8778888,145.09 C72.4328888,144.903 71.1238888,144.41 71.1238888,142.693 C71.1238888,141.316 72.1608888,140.398 74.0818888,140.398 C75.4248888,140.398 76.4448888,140.755 77.0908888,141.809 Z" id="path-8"></path>
        <path d="M264.258,115 L263.204,115 L267.216,103.27 L268.134,103.27 L272.146,115 L271.109,115 L270.14,112.144 L265.21,112.144 L264.258,115 Z M267.675,104.851 L265.516,111.226 L269.834,111.226 L267.675,104.851 Z M273.793111,115 L273.793111,106.5 L274.728111,106.5 L274.728111,107.656 C275.085111,106.874 275.850111,106.398 276.972111,106.398 C278.179111,106.398 279.063111,106.976 279.505111,108.064 C279.981111,106.993 280.916111,106.398 282.089111,106.398 C283.874111,106.398 284.962111,107.656 284.962111,109.968 L284.962111,115 L284.027111,115 L284.027111,109.985 C284.027111,108.132 283.211111,107.282 281.987111,107.282 C280.627111,107.282 279.845111,108.285 279.845111,109.781 L279.845111,115 L278.910111,115 L278.910111,109.985 C278.910111,108.132 278.094111,107.282 276.870111,107.282 C275.476111,107.282 274.728111,108.336 274.728111,109.9 L274.728111,115 L273.793111,115 Z M287.153222,112.569 C287.153222,110.937 288.292222,110.172 290.043222,110.172 L292.525222,110.172 L292.525222,109.118 C292.525222,107.673 291.947222,107.282 290.383222,107.282 C289.363222,107.282 288.700222,107.35 288.156222,108.251 L287.442222,107.758 C288.037222,106.755 288.887222,106.398 290.400222,106.398 C292.474222,106.398 293.460222,107.044 293.460222,109.118 L293.460222,115 L292.525222,115 L292.525222,113.946 C292.049222,114.847 291.199222,115.102 290.111222,115.102 C288.224222,115.102 287.153222,114.201 287.153222,112.569 Z M292.525222,111.838 L292.525222,111.005 L290.043222,111.005 C288.581222,111.005 288.088222,111.685 288.088222,112.586 C288.088222,113.776 288.921222,114.218 290.111222,114.218 C291.488222,114.218 292.525222,113.742 292.525222,111.838 Z M295.651333,114.269 L300.530333,107.367 L295.651333,107.367 L295.651333,106.5 L301.754333,106.5 L301.754333,107.231 L296.909333,114.133 L301.754333,114.133 L301.754333,115 L295.651333,115 L295.651333,114.269 Z M310.218444,111.362 C310.218444,113.674 309.045444,115.102 306.767444,115.102 C304.574444,115.102 303.316444,113.742 303.316444,111.362 L303.316444,110.121 C303.316444,107.707 304.591444,106.398 306.767444,106.398 C308.943444,106.398 310.218444,107.707 310.218444,110.121 L310.218444,111.362 Z M309.283444,111.362 L309.283444,110.121 C309.283444,108.268 308.382444,107.265 306.767444,107.265 C305.135444,107.265 304.251444,108.268 304.251444,110.121 L304.251444,111.362 C304.251444,113.147 305.050444,114.235 306.767444,114.235 C308.416444,114.235 309.283444,113.147 309.283444,111.362 Z M312.409555,115 L312.409555,106.5 L313.344555,106.5 L313.344555,107.656 C313.786555,106.84 314.568555,106.398 315.843555,106.398 C317.730555,106.398 318.971555,107.571 318.971555,109.968 L318.971555,115 L318.036555,115 L318.036555,109.985 C318.036555,108.047 317.067555,107.282 315.741555,107.282 C314.143555,107.282 313.344555,108.336 313.344555,109.9 L313.344555,115 L312.409555,115 Z" id="path-9"></path>
        <path d="M292.327,224.988 L286.7,224.988 L286.7,225.345 C286.7,227.028 287.482,228.235 289.284,228.235 C290.321,228.235 291.018,227.929 291.494,227.198 L292.242,227.725 C291.647,228.66 290.712,229.102 289.335,229.102 C287.074,229.102 285.765,227.708 285.765,225.345 L285.765,224.121 C285.765,221.707 286.921,220.398 289.046,220.398 C291.171,220.398 292.327,221.707 292.327,224.121 L292.327,224.988 Z M286.7,224.121 L286.7,224.138 L291.392,224.138 L291.392,224.121 C291.392,222.268 290.593,221.265 289.046,221.265 C287.499,221.265 286.7,222.285 286.7,224.121 Z M294.994111,217.27 L298.462111,217.27 C301.148111,217.27 302.457111,218.307 302.457111,220.245 C302.457111,221.554 301.573111,222.608 300.434111,222.88 C301.913111,223.203 302.831111,224.189 302.831111,225.736 C302.831111,227.334 301.794111,229 298.870111,229 L294.994111,229 L294.994111,217.27 Z M295.980111,223.373 L295.980111,228.082 L298.870111,228.082 C300.893111,228.082 301.845111,227.113 301.845111,225.736 C301.845111,224.155 300.774111,223.373 298.547111,223.373 L295.980111,223.373 Z M295.980111,218.188 L295.980111,222.455 L298.768111,222.455 C300.672111,222.455 301.471111,221.452 301.471111,220.245 C301.471111,219.055 300.859111,218.188 298.462111,218.188 L295.980111,218.188 Z M304.597222,226.569 C304.597222,224.937 305.736222,224.172 307.487222,224.172 L309.969222,224.172 L309.969222,223.118 C309.969222,221.673 309.391222,221.282 307.827222,221.282 C306.807222,221.282 306.144222,221.35 305.600222,222.251 L304.886222,221.758 C305.481222,220.755 306.331222,220.398 307.844222,220.398 C309.918222,220.398 310.904222,221.044 310.904222,223.118 L310.904222,229 L309.969222,229 L309.969222,227.946 C309.493222,228.847 308.643222,229.102 307.555222,229.102 C305.668222,229.102 304.597222,228.201 304.597222,226.569 Z M309.969222,225.838 L309.969222,225.005 L307.487222,225.005 C306.025222,225.005 305.532222,225.685 305.532222,226.586 C305.532222,227.776 306.365222,228.218 307.555222,228.218 C308.932222,228.218 309.969222,227.742 309.969222,225.838 Z M313.486333,232.23 L313.486333,231.312 C314.812333,231.312 315.237333,230.87 315.815333,229.238 L315.849333,229.136 L312.364333,220.5 L313.384333,220.5 L316.325333,227.776 L318.841333,220.5 L319.827333,220.5 L316.750333,229.34 C316.053333,231.38 315.509333,232.23 313.486333,232.23 Z" id="path-10"></path>
    </defs>
    <g id="Mobile" stroke="none" stroke-width="1" fill="none" fill-rule="evenodd" transform="translate(-25.000000, -2083.000000)">
        <g id="item7" transform="translate(26.000000, 2077.000000)">
            <g id="Group-2" transform="translate(53.000000, 0.000000)">
                <mask id="mask-2" fill="white">
                    <use xlink:href="#path-1"></use>
                </mask>
                <g id="Mask"></g>
                <g mask="url(#mask-2)">
                    <g transform="translate(30.000000, 6.000000)">
                        <ellipse id="Oval" fill="url(#linearGradient-3)" opacity="0.441179801" cx="75.1473283" cy="97.4409704" rx="75.0846334" ry="74.5105408"></ellipse>
                        <path d="M74.5731076,184.053331 L74.5731076,79.7762331 L160.612263,79.7762331 C161.803106,85.4792882 162.428874,91.3876101 162.428874,97.4409704 C162.428874,145.27667 123.351595,184.055166 75.1473283,184.055166 C74.9557767,184.055166 74.7643692,184.054554 74.5731076,184.053331 Z" id="Combined-Shape" fill="#1E5F6F"></path>
                        <path d="M48.2287667,70.7371317 C48.2600346,70.7371025 48.2913059,70.7370879 48.3225807,70.7370879 C102.235247,70.7370879 145.940099,114.107775 145.940099,167.608228 C145.940099,167.836419 145.939304,168.064425 145.937716,168.292245 L106.884422,167.975778 C106.884422,167.975778 104.877127,169.065443 103.910964,169.668979 C62.4117136,195.592448 48.3225807,219.762276 48.3225807,219.762276 L48.2287667,70.7371286 Z" id="Combined-Shape" fill="url(#linearGradient-4)" transform="translate(97.084433, 145.249682) rotate(-270.000000) translate(-97.084433, -145.249682) "></path>
                        <path d="M77.9279442,0.0561344425 C130.287248,1.810905 172.190626,44.4849091 172.190626,96.8711401 C172.190626,128.868251 156.557844,157.242047 132.458108,174.881492 L122.777305,166.322755 L78.4969654,130.064394 L77.9279245,0.056133783 Z" id="Combined-Shape" fill="url(#linearGradient-5)"></path>
                    </g>
                </g>
            </g>
            <polygon id="Line" fill="url(#linearGradient-6)" fill-rule="nonzero" points="-0.177950067 107.5 -0.177950067 106.5 94.0335319 106.5 94.0335319 107.5"></polygon>
            <g id="Other-Merchants">
                <use fill="url(#linearGradient-7)" xlink:href="#path-8"></use>
                <use fill="#5F89AD" xlink:href="#path-8"></use>
            </g>
            <polygon id="Path-2" fill="url(#linearGradient-6)" fill-rule="nonzero" points="243.298534 93.8333333 243.298534 92.8333333 320.530398 92.8333333 320.530398 93.8333333"></polygon>
            <g id="Amazon">
                <use fill="url(#linearGradient-7)" xlink:href="#path-9"></use>
                <use fill="#5F89AD" xlink:href="#path-9"></use>
            </g>
            <path d="M289.103,72.39 C287.864,72.39 287.066,73.167 286.583,74.049 L285.491,74.049 L285.491,66.51 L292.631,66.51 L292.631,67.728 L286.667,67.728 L286.667,72.432 C287.192,71.718 288.074,71.172 289.292,71.172 C292.064,71.172 293.24,73.209 293.24,76.464 C293.24,79.32 291.791,81.126 289.103,81.126 C286.919,81.126 285.302,79.551 285.155,77.556 L286.352,77.556 C286.562,79.047 287.696,79.992 289.103,79.992 C290.888,79.992 292.022,79.026 292.022,76.464 C292.022,73.818 291.161,72.39 289.103,72.39 Z M303.7484,70.563 L303.7484,76.947 C303.7484,79.614 301.8794,81.126 299.6954,81.126 C297.5114,81.126 295.6424,79.614 295.6424,76.926 L295.6424,70.584 C295.6424,67.896 297.5114,66.384 299.6954,66.384 C301.8794,66.384 303.7484,67.896 303.7484,70.563 Z M302.5304,70.563 C302.5304,68.673 301.2914,67.518 299.6954,67.518 C298.0784,67.518 296.8394,68.673 296.8394,70.563 L296.8394,76.947 C296.8394,78.837 298.0784,79.992 299.6954,79.992 C301.2914,79.992 302.5304,78.837 302.5304,76.947 L302.5304,70.563 Z M315.9368,66.51 L317.1758,66.51 L309.0908,81 L307.8308,81 L315.9368,66.51 Z M308.5028,72.873 C309.8888,72.873 310.4558,71.886 310.4558,70.626 L310.4558,69.534 C310.4558,68.085 309.7418,67.329 308.5028,67.329 C307.2848,67.329 306.5708,68.085 306.5708,69.534 L306.5708,70.626 C306.5708,71.886 307.0748,72.873 308.5028,72.873 Z M308.5028,73.818 C306.6338,73.818 305.5838,72.663 305.5838,70.626 L305.5838,69.513 C305.5838,67.476 306.6758,66.363 308.5028,66.363 C310.3508,66.363 311.4218,67.476 311.4218,69.513 L311.4218,70.626 C311.4218,72.6 310.4768,73.818 308.5028,73.818 Z M316.7348,80.181 C318.1208,80.181 318.6878,79.194 318.6878,77.934 L318.6878,76.842 C318.6878,75.393 317.9738,74.637 316.7348,74.637 C315.5168,74.637 314.8028,75.393 314.8028,76.842 L314.8028,77.934 C314.8028,79.194 315.3068,80.181 316.7348,80.181 Z M316.7348,81.126 C314.8658,81.126 313.8158,79.971 313.8158,77.934 L313.8158,76.821 C313.8158,74.784 314.9078,73.671 316.7348,73.671 C318.5828,73.671 319.6538,74.784 319.6538,76.821 L319.6538,77.934 C319.6538,79.908 318.7088,81.126 316.7348,81.126 Z" id="50%" fill="#02AAE6"></path>
            <path d="M8.775,79.51 L10.014,79.51 L5.016,90.262 L10.077,90.262 L10.077,85.747 L11.295,85.747 L11.295,90.262 L12.744,90.262 L12.744,91.396 L11.295,91.396 L11.295,94 L10.077,94 L10.077,91.396 L3.588,91.396 L3.588,90.493 L8.775,79.51 Z M14.9591384,83.374 L13.8251384,83.374 L13.8251384,79.51 L21.7631384,79.51 L21.7631384,80.644 L16.9751384,94 L15.6731384,94 L20.4821384,80.644 L14.9591384,80.644 L14.9591384,83.374 Z M32.9242767,79.51 L34.1632767,79.51 L26.0782767,94 L24.8182767,94 L32.9242767,79.51 Z M25.4902767,85.873 C26.8762767,85.873 27.4432767,84.886 27.4432767,83.626 L27.4432767,82.534 C27.4432767,81.085 26.7292767,80.329 25.4902767,80.329 C24.2722767,80.329 23.5582767,81.085 23.5582767,82.534 L23.5582767,83.626 C23.5582767,84.886 24.0622767,85.873 25.4902767,85.873 Z M25.4902767,86.818 C23.6212767,86.818 22.5712767,85.663 22.5712767,83.626 L22.5712767,82.513 C22.5712767,80.476 23.6632767,79.363 25.4902767,79.363 C27.3382767,79.363 28.4092767,80.476 28.4092767,82.513 L28.4092767,83.626 C28.4092767,85.6 27.4642767,86.818 25.4902767,86.818 Z M33.7222767,93.181 C35.1082767,93.181 35.6752767,92.194 35.6752767,90.934 L35.6752767,89.842 C35.6752767,88.393 34.9612767,87.637 33.7222767,87.637 C32.5042767,87.637 31.7902767,88.393 31.7902767,89.842 L31.7902767,90.934 C31.7902767,92.194 32.2942767,93.181 33.7222767,93.181 Z M33.7222767,94.126 C31.8532767,94.126 30.8032767,92.971 30.8032767,90.934 L30.8032767,89.821 C30.8032767,87.784 31.8952767,86.671 33.7222767,86.671 C35.5702767,86.671 36.6412767,87.784 36.6412767,89.821 L36.6412767,90.934 C36.6412767,92.908 35.6962767,94.126 33.7222767,94.126 Z" id="47%" fill="#02AAE6"></path>
            <path d="M298.948,193.091 L298.948,191.957 L299.746,191.957 C301.993,191.957 302.959,190.907 302.959,189.164 C302.959,187.736 301.846,186.518 300.124,186.518 C298.486,186.518 297.331,187.61 297.289,189.08 L296.092,189.08 C296.092,186.791 298.003,185.384 300.124,185.384 C302.476,185.384 304.177,187.001 304.177,189.185 C304.177,190.949 303.148,192.02 301.846,192.503 C303.316,193.007 304.387,194.225 304.387,196.073 C304.387,198.341 302.77,200.126 300.271,200.126 C297.562,200.126 296.05,198.509 295.903,196.325 L297.1,196.325 C297.289,197.879 298.255,198.992 300.271,198.992 C301.909,198.992 303.169,197.816 303.169,196.115 C303.169,194.246 301.993,193.091 299.746,193.091 L298.948,193.091 Z M316.3864,185.51 L317.6254,185.51 L309.5404,200 L308.2804,200 L316.3864,185.51 Z M308.9524,191.873 C310.3384,191.873 310.9054,190.886 310.9054,189.626 L310.9054,188.534 C310.9054,187.085 310.1914,186.329 308.9524,186.329 C307.7344,186.329 307.0204,187.085 307.0204,188.534 L307.0204,189.626 C307.0204,190.886 307.5244,191.873 308.9524,191.873 Z M308.9524,192.818 C307.0834,192.818 306.0334,191.663 306.0334,189.626 L306.0334,188.513 C306.0334,186.476 307.1254,185.363 308.9524,185.363 C310.8004,185.363 311.8714,186.476 311.8714,188.513 L311.8714,189.626 C311.8714,191.6 310.9264,192.818 308.9524,192.818 Z M317.1844,199.181 C318.5704,199.181 319.1374,198.194 319.1374,196.934 L319.1374,195.842 C319.1374,194.393 318.4234,193.637 317.1844,193.637 C315.9664,193.637 315.2524,194.393 315.2524,195.842 L315.2524,196.934 C315.2524,198.194 315.7564,199.181 317.1844,199.181 Z M317.1844,200.126 C315.3154,200.126 314.2654,198.971 314.2654,196.934 L314.2654,195.821 C314.2654,193.784 315.3574,192.671 317.1844,192.671 C319.0324,192.671 320.1034,193.784 320.1034,195.821 L320.1034,196.934 C320.1034,198.908 319.1584,200.126 317.1844,200.126 Z" id="3%" fill="#02AAE6"></path>
            <polyline id="Path-2" stroke="url(#linearGradient-6)" opacity="0.667176178" transform="translate(255.500000, 194.500000) scale(1, -1) translate(-255.500000, -194.500000) " points="196 207 221.265457 182 315 182"></polyline>
            <g id="eBay">
                <use fill="url(#linearGradient-7)" xlink:href="#path-10"></use>
                <use fill="#5F89AD" xlink:href="#path-10"></use>
            </g>
            <path d="M127.498,103.596 L127.498,105 L120.208,105 L120.208,103.704 L124.582,98.538 C125.428,97.548 125.986,96.702 125.986,95.766 C125.986,94.47 124.996,93.822 123.97,93.822 C122.854,93.822 121.972,94.488 121.936,95.766 L120.406,95.766 C120.406,93.714 122.026,92.436 123.97,92.436 C125.95,92.436 127.534,93.714 127.534,95.838 C127.534,97.314 126.454,98.502 125.662,99.456 L122.242,103.596 L127.498,103.596 Z M136.8112,96.018 L136.8112,101.562 C136.8112,103.848 135.1192,105.144 133.2472,105.144 C131.3752,105.144 129.6832,103.848 129.6832,101.544 L129.6832,96.036 C129.6832,93.732 131.3752,92.436 133.2472,92.436 C135.1192,92.436 136.8112,93.732 136.8112,96.018 Z M135.2632,96.018 C135.2632,94.686 134.3632,93.84 133.2472,93.84 C132.1132,93.84 131.2132,94.686 131.2132,96.018 L131.2132,101.562 C131.2132,102.894 132.1132,103.74 133.2472,103.74 C134.3632,103.74 135.2632,102.894 135.2632,101.562 L135.2632,96.018 Z M143.5324,92.58 L143.5324,105 L141.9844,105 L141.9844,94.362 L140.2024,95.64 L140.2024,93.948 L141.9844,92.58 L143.5324,92.58 Z M153.2236,92.58 L150.8296,98.052 C151.1536,97.854 151.6576,97.8 151.9996,97.8 C153.9796,97.8 155.2576,99.366 155.2576,101.436 C155.2576,103.632 153.7996,105.144 151.6756,105.144 C149.5876,105.144 148.0936,103.668 148.0936,101.508 C148.0936,100.644 148.5436,99.546 148.9396,98.628 L151.4956,92.58 L153.2236,92.58 Z M149.6416,101.436 C149.6416,102.84 150.4516,103.74 151.6756,103.74 C152.8816,103.74 153.7096,102.84 153.7096,101.436 C153.7096,100.05 152.8816,99.132 151.6756,99.132 C150.4516,99.132 149.6416,100.05 149.6416,101.436 Z M170.338,94.47 L169.132,95.334 C168.466,94.47 167.746,93.84 166.18,93.84 C164.74,93.84 163.768,94.488 163.768,95.784 C163.768,97.26 164.884,97.764 166.702,98.088 C169.096,98.502 170.554,99.366 170.554,101.67 C170.554,103.29 169.474,105.144 166.378,105.144 C164.362,105.144 162.886,104.46 161.95,103.11 L163.228,102.228 C164.038,103.182 164.758,103.74 166.378,103.74 C168.412,103.74 169.006,102.804 169.006,101.742 C169.006,100.572 168.412,99.78 166.072,99.42 C163.732,99.06 162.22,97.944 162.22,95.784 C162.22,94.002 163.39,92.436 166.234,92.436 C168.214,92.436 169.456,93.102 170.338,94.47 Z M172.3612,102.372 C172.3612,100.428 173.7472,99.798 175.7272,99.798 L177.8692,99.798 L177.8692,98.754 C177.8692,97.476 177.2752,97.188 175.8712,97.188 C174.7912,97.188 174.2152,97.278 173.7112,98.106 L172.6312,97.35 C173.2612,96.306 174.1792,95.856 175.8892,95.856 C178.1752,95.856 179.3092,96.594 179.3092,98.754 L179.3092,105 L177.8692,105 L177.8692,104.118 C177.3652,104.946 176.7532,105.144 175.5832,105.144 C173.4952,105.144 172.3612,104.118 172.3612,102.372 Z M177.8692,101.544 L177.8692,101.022 L175.7272,101.022 C174.3052,101.022 173.8012,101.508 173.8012,102.408 C173.8012,103.416 174.5212,103.812 175.5832,103.812 C176.9152,103.812 177.8692,103.56 177.8692,101.544 Z M181.8724,102.228 L181.8724,92.58 L183.3124,92.58 L183.3124,101.868 C183.3124,102.84 183.3664,103.668 184.8424,103.668 L184.8424,105 C182.5744,105 181.8724,104.1 181.8724,102.228 Z M192.4636,102.84 L193.5796,103.632 C192.9496,104.73 191.9956,105.144 190.4296,105.144 C188.0176,105.144 186.5776,103.578 186.5776,101.076 L186.5776,99.888 C186.5776,97.332 187.7836,95.856 190.1416,95.856 C192.5176,95.856 193.7056,97.314 193.7056,99.888 L193.7056,100.824 L188.0176,100.824 L188.0176,101.076 C188.0176,102.624 188.7556,103.848 190.3216,103.848 C191.4916,103.848 192.0856,103.506 192.4636,102.84 Z M190.1416,97.152 C188.7556,97.152 188.1076,98.07 188.0176,99.564 L192.2476,99.564 C192.1756,98.052 191.5096,97.152 190.1416,97.152 Z M202.1728,97.35 L201.0928,98.106 C200.6068,97.476 200.1028,97.188 198.8608,97.188 C197.7988,97.188 197.1148,97.602 197.1148,98.394 C197.1148,99.42 198.0148,99.726 199.2028,99.816 C200.8948,99.942 202.4428,100.428 202.4428,102.498 C202.4428,104.064 201.3808,105.144 199.0588,105.144 C197.2228,105.144 196.2688,104.586 195.5848,103.65 L196.6468,102.894 C197.1328,103.542 197.7808,103.812 199.0768,103.812 C200.2828,103.812 201.0028,103.344 201.0028,102.534 C201.0028,101.562 200.4268,101.22 198.6808,101.094 C197.1688,100.986 195.6748,100.374 195.6748,98.412 C195.6748,96.918 196.7548,95.856 198.8968,95.856 C200.3548,95.856 201.4708,96.234 202.1728,97.35 Z M138.8254,117.754 L143.3434,117.754 L143.3434,118.474 C143.3434,122.488 141.5254,124.144 138.7714,124.144 C136.0174,124.144 134.2714,122.488 134.2714,118.474 L134.2714,117.106 C134.2714,113.092 136.0174,111.436 138.7714,111.436 C141.1834,111.436 142.8394,112.714 143.2354,115.45 L141.7234,115.45 C141.3274,113.596 140.3554,112.84 138.7714,112.84 C136.8634,112.84 135.8194,114.028 135.8194,117.106 L135.8194,118.474 C135.8194,121.552 136.8634,122.74 138.7714,122.74 C140.5174,122.74 141.6154,121.732 141.7774,119.158 L138.8254,119.158 L138.8254,117.754 Z M151.7386,116.08 L150.5146,116.944 C150.1366,116.422 149.6686,116.188 149.0026,116.188 C147.9046,116.188 147.0766,117.016 147.0766,118.366 L147.0766,124 L145.6366,124 L145.6366,115 L147.0766,115 L147.0766,115.882 C147.4546,115.252 148.0666,114.856 149.1646,114.856 C150.3886,114.856 151.1626,115.27 151.7386,116.08 Z M159.9898,118.888 L159.9898,120.076 C159.9898,122.416 158.8378,124.144 156.2458,124.144 C153.8518,124.144 152.5018,122.56 152.5018,120.076 L152.5018,118.888 C152.5018,116.332 153.8878,114.856 156.2458,114.856 C158.6218,114.856 159.9898,116.314 159.9898,118.888 Z M156.2458,122.848 C157.7758,122.848 158.5498,121.606 158.5498,120.076 L158.5498,118.888 C158.5498,117.178 157.7218,116.152 156.2458,116.152 C154.7698,116.152 153.9418,117.196 153.9418,118.888 L153.9418,120.076 C153.9418,121.624 154.5898,122.848 156.2458,122.848 Z M167.377,117.268 L164.983,124 L163.723,124 L161.113,115 L162.643,115 L164.443,121.318 L166.711,115 L167.917,115 L170.311,121.372 L172.111,115 L173.641,115 L171.031,124 L169.771,124 L167.377,117.268 Z M174.4222,116.296 L174.4222,115 L175.5742,115 L175.5742,113.02 L177.0142,113.02 L177.0142,115 L179.0842,115 L179.0842,116.296 L177.0142,116.296 L177.0142,120.868 C177.0142,122.11 177.1582,122.632 178.3642,122.632 L179.0842,122.632 L179.0842,124 L178.3102,124 C176.1862,124 175.5742,123.1 175.5742,121.228 L175.5742,116.296 L174.4222,116.296 Z M181.1074,124 L181.1074,111.58 L182.5474,111.58 L182.5474,115.882 C182.9974,115.198 183.6274,114.856 184.9594,114.856 C186.8854,114.856 188.2354,115.864 188.2354,118.384 L188.2354,124 L186.7954,124 L186.7954,118.402 C186.7954,116.584 185.8054,116.188 184.7434,116.188 C183.3934,116.188 182.5474,117.142 182.5474,118.384 L182.5474,124 L181.1074,124 Z" id="2016-Sales-Growth" fill="#02AAE6"></path>
        </g>
    </g>
</svg>