<?xml version="1.0" encoding="UTF-8"?>
<svg width="54px" height="55px" viewBox="0 0 54 55" version="1.1" xmlns="http://www.w3.org/2000/svg" xmlns:xlink="http://www.w3.org/1999/xlink">
    <!-- Generator: Sketch 48.2 (47327) - http://www.bohemiancoding.com/sketch -->
    <title>Group</title>
    <desc>Created with Sketch.</desc>
    <defs>
        <linearGradient x1="58.3877861%" y1="-158.155488%" x2="58.3932977%" y2="100%" id="linearGradient-1">
            <stop stop-color="#FFC35E" offset="0%"></stop>
            <stop stop-color="#E22B43" offset="51.9451531%"></stop>
            <stop stop-color="#A64AA8" offset="100%"></stop>
        </linearGradient>
    </defs>
    <g id="Mobile" stroke="none" stroke-width="1" fill="none" fill-rule="evenodd" transform="translate(-161.000000, -5218.000000)">
        <g id="SECTION:-BENEFITS" transform="translate(1.000000, 4316.000000)">
            <g id="Group-26" transform="translate(27.000000, 356.000000)">
                <g id="Group-14" transform="translate(0.000000, 523.000000)">
                    <g id="Group-34" transform="translate(104.000000, 0.000000)">
                        <g id="Group" transform="translate(29.000000, 23.000000)">
                            <path d="M49.5,45.8333333 L4.5,45.8333333 C3.2625,45.8333333 2.25,44.8020833 2.25,43.5416667 L2.25,11.4583333 C2.25,10.1979167 3.2625,9.16666667 4.5,9.16666667 L15.8625,9.16666667 L15.8625,11.4583333 L4.5,11.4583333 L4.5,43.5416667 L49.5,43.5416667 L49.5,11.4583333 L38.1375,11.4583333 L38.1375,9.16666667 L49.5,9.16666667 C50.7375,9.16666667 51.75,10.1979167 51.75,11.4583333 L51.75,43.5416667 C51.75,44.8020833 50.7375,45.8333333 49.5,45.8333333 Z" id="Shape" fill="url(#linearGradient-1)" fill-rule="nonzero"></path>
                            <polygon id="Shape" fill="url(#linearGradient-1)" fill-rule="nonzero" points="47.25 41.25 6.75 41.25 6.75 13.75 16.65 13.75 16.65 16.0416667 9 16.0416667 9 38.9583333 45 38.9583333 45 16.0416667 37.4625 16.0416667 37.4625 13.75 47.25 13.75"></polygon>
                            <path d="M49.5,55 L4.5,55 C2.025,55 0,52.9375 0,50.4166667 L0,43.5416667 L54,43.5416667 L54,50.4166667 C54,52.9375 51.975,55 49.5,55 Z M2.25,45.8333333 L2.25,50.4166667 C2.25,51.6770833 3.2625,52.7083333 4.5,52.7083333 L49.5,52.7083333 C50.7375,52.7083333 51.75,51.6770833 51.75,50.4166667 L51.75,45.8333333 L2.25,45.8333333 Z" id="Shape" fill="url(#linearGradient-1)" fill-rule="nonzero"></path>
                            <path d="M29.25,50.4166667 L24.75,50.4166667 C24.075,50.4166667 23.625,49.9583333 23.625,49.2708333 C23.625,48.5833333 24.075,48.125 24.75,48.125 L29.25,48.125 C29.925,48.125 30.375,48.5833333 30.375,49.2708333 C30.375,49.9583333 29.925,50.4166667 29.25,50.4166667 Z" id="Shape" fill="url(#linearGradient-1)" fill-rule="nonzero"></path>
                            <path d="M27,32.0833333 C26.8875,32.0833333 26.775,32.0833333 26.6625,31.96875 C14.5125,27.6145833 14.625,8.02083333 14.625,7.21875 C14.625,6.64583333 14.9625,6.30208333 15.525,6.07291667 C22.95,4.23958333 26.1,0.458333333 26.2125,0.458333333 C26.325,0.114583333 26.6625,0 27,0 C27,0 27,0 27,0 C27.3375,0 27.675,0.114583333 27.9,0.458333333 C27.9,0.458333333 31.1625,4.23958333 38.5875,6.07291667 C39.0375,6.1875 39.4875,6.64583333 39.4875,7.21875 C39.4875,8.02083333 39.6,27.7291667 27.45,32.0833333 C27.225,32.0833333 27.1125,32.0833333 27,32.0833333 Z" id="Shape" fill="url(#linearGradient-1)" fill-rule="nonzero"></path>
                            <path d="M16.875,8.02083333 C16.9875,11.6875 18.1125,26.125 27,29.6770833 C35.8875,26.125 37.0125,11.6875 37.125,8.02083333 C31.6125,6.53125 28.4625,4.01041667 27,2.75 C25.5375,4.125 22.3875,6.53125 16.875,8.02083333 Z" id="Path" stroke="url(#linearGradient-1)" stroke-width="2"></path>
                            <path d="M24.75,20.625 C24.75,20.625 24.6375,20.625 24.75,20.625 C24.3,20.625 23.9625,20.3958333 23.85,20.1666667 L21.6,16.7291667 C21.2625,16.15625 21.375,15.46875 21.9375,15.125 C22.5,14.78125 23.175,14.8958333 23.5125,15.46875 L24.975,17.7604167 L30.7125,11.9166667 C31.1625,11.4583333 31.8375,11.4583333 32.2875,11.9166667 C32.7375,12.375 32.7375,13.0625 32.2875,13.5208333 L25.5375,20.3958333 C25.3125,20.5104167 25.0875,20.625 24.75,20.625 Z" id="Shape" fill="#FFFFFF" fill-rule="nonzero"></path>
                        </g>
                    </g>
                </g>
            </g>
        </g>
    </g>
</svg>