<?xml version="1.0" encoding="UTF-8"?>
<svg width="19px" height="20px" viewBox="0 0 19 20" version="1.1" xmlns="http://www.w3.org/2000/svg" xmlns:xlink="http://www.w3.org/1999/xlink">
    <!-- Generator: Sketch 50.2 (55047) - http://www.bohemiancoding.com/sketch -->
    <title></title>
    <desc>Created with Sketch.</desc>
    <defs></defs>
    <g id="Tablet" stroke="none" stroke-width="1" fill="none" fill-rule="evenodd">
        <g id="Goodfair-Tablet" transform="translate(-465.000000, -8124.000000)" fill="#30BDFD">
            <path d="M482.062459,8124.93754 C482.417927,8124.93754 482.725544,8125.06742 482.985309,8125.32719 C483.245073,8125.58695 483.374956,8125.89457 483.374956,8126.25004 L483.374956,8142 C483.374956,8142.35547 483.245073,8142.66308 482.985309,8142.92285 C482.725544,8143.18261 482.417927,8143.3125 482.062459,8143.3125 L466.312497,8143.3125 C465.957029,8143.3125 465.649412,8143.18261 465.389648,8142.92285 C465.129883,8142.66308 465,8142.35547 465,8142 L465,8126.25004 C465,8125.89457 465.129883,8125.58695 465.389648,8125.32719 C465.649412,8125.06742 465.957029,8124.93754 466.312497,8124.93754 L482.062459,8124.93754 Z M467.830071,8140.6875 L470.578112,8140.6875 L470.578112,8131.91018 L467.830071,8131.91018 L467.830071,8140.6875 Z M469.183584,8130.72073 C469.621083,8130.72073 469.997058,8130.5635 470.311511,8130.24905 C470.625963,8129.9346 470.783189,8129.56546 470.783189,8129.14163 C470.783189,8128.71781 470.625963,8128.34867 470.311511,8128.03421 C469.997058,8127.71976 469.621083,8127.56253 469.183584,8127.56253 C468.746085,8127.56253 468.376945,8127.71976 468.076165,8128.03421 C467.775384,8128.34867 467.624994,8128.71781 467.624994,8129.14163 C467.624994,8129.56546 467.775384,8129.9346 468.076165,8130.24905 C468.376945,8130.5635 468.746085,8130.72073 469.183584,8130.72073 Z M480.749962,8140.6875 L480.749962,8135.88869 C480.749962,8134.5215 480.558556,8133.52346 480.175745,8132.89455 C479.656215,8132.10159 478.767546,8131.7051 477.509736,8131.7051 C476.880831,8131.7051 476.320286,8131.85549 475.828099,8132.15627 C475.417944,8132.40237 475.117164,8132.71682 474.925758,8133.09963 L474.884742,8133.09963 L474.884742,8131.91018 L472.259748,8131.91018 L472.259748,8140.6875 L474.966773,8140.6875 L474.966773,8136.33986 C474.966773,8135.65626 475.062476,8135.13674 475.253882,8134.78127 C475.527319,8134.31642 475.97849,8134.084 476.607394,8134.084 C477.236299,8134.084 477.646454,8134.34377 477.83786,8134.8633 C477.974578,8135.19142 478.042938,8135.71095 478.042938,8136.42189 L478.042938,8140.6875 L480.749962,8140.6875 Z" id=""></path>
        </g>
    </g>
</svg>