<?xml version="1.0" encoding="UTF-8"?>
<svg width="69px" height="46px" viewBox="0 0 69 46" version="1.1" xmlns="http://www.w3.org/2000/svg" xmlns:xlink="http://www.w3.org/1999/xlink">
    <!-- Generator: Sketch 48.2 (47327) - http://www.bohemiancoding.com/sketch -->
    <title>Group</title>
    <desc>Created with Sketch.</desc>
    <defs>
        <linearGradient x1="50%" y1="-74.0461483%" x2="50%" y2="142.941497%" id="linearGradient-1">
            <stop stop-color="#3023AE" offset="0%"></stop>
            <stop stop-color="#C86DD7" offset="100%"></stop>
        </linearGradient>
    </defs>
    <g id="Mobile" stroke="none" stroke-width="1" fill="none" fill-rule="evenodd" transform="translate(-152.000000, -4789.000000)">
        <g id="SECTION:-BENEFITS" transform="translate(1.000000, 4316.000000)" fill="url(#linearGradient-1)" fill-rule="nonzero">
            <g id="Group-26" transform="translate(27.000000, 356.000000)">
                <g id="Group-14" transform="translate(12.000000, 86.000000)">
                    <g id="Group-33" transform="translate(92.000000, 0.000000)">
                        <g id="Group" transform="translate(20.000000, 31.000000)">
                            <path d="M45.1644868,22 C42.7087575,22 40.4024146,22.9854315 38.6699897,24.7752009 C36.9375649,26.5649703 35.9894186,28.941922 36.0000891,31.4670412 L36.0534414,43.8449076 L36.0625875,46 L38.1578078,46 L42.3977899,46 C45.8504447,46 48.7718633,43.6144248 49.6864738,40.3617953 L53.4119875,40.3617953 C55.7610123,40.3617953 57.7647715,38.813484 58.5101791,36.6576076 C60.1137963,36.0939439 61.3812941,34.7949304 61.9331091,33.1564644 C63.5237693,32.5732018 64.7722127,31.2412622 65.2744863,29.5745737 C67.4451621,28.7859149 69,26.6582609 69,24.1644999 L69,22 L66.8956336,22 L45.1644868,22 Z M63.4262109,27.737767 L53.5522278,27.737767 C53.1650426,27.737767 52.8510263,28.0607565 52.8510263,28.4590057 C52.8510263,28.8572549 53.1650426,29.1802443 53.5522278,29.1802443 L63.174693,29.1802443 C62.7090038,30.3836153 61.5931789,31.2381263 60.2715666,31.296923 C60.2243117,31.2867316 60.1808677,31.2679166 60.1305642,31.2679166 L50.5218181,31.2679166 C50.134633,31.2679166 49.8206167,31.5909061 49.8206167,31.9891553 C49.8206167,32.3874045 50.134633,32.7103939 50.5218181,32.7103939 L59.8409375,32.7103939 C59.3165608,33.9380676 58.1275671,34.7972823 56.7396455,34.7972823 L56.7167803,34.7972823 C56.7167803,34.7972823 56.7160181,34.7972823 56.7160181,34.7972823 L48.3793429,34.7972823 C47.9921578,34.7972823 47.6781415,35.1202718 47.6781415,35.5185209 C47.6781415,35.9167701 47.9921578,36.2397596 48.3793429,36.2397596 L56.3936179,36.2397596 C55.8646681,37.3929575 54.7328376,38.1957274 53.4119875,38.1957274 L47.8793558,38.1957274 C47.8793558,41.3095969 45.4251508,43.8339322 42.3977899,43.8339322 L38.1578078,43.8339322 L38.1044555,31.4560659 C38.0869255,27.4335925 41.2530024,24.162148 45.1637247,24.162148 L66.8956336,24.162148 C66.8956336,26.1361469 65.3430821,27.7346312 63.4262109,27.737767 Z" id="Shape"></path>
                            <path d="M23.8355132,22 L2.10436645,22 L0,22 L0,24.1644999 C0,26.6606128 1.55788664,28.7898347 3.72551365,29.5769256 C4.22854945,31.2420461 5.47623068,32.5732018 7.06612869,33.1564644 C7.61946808,34.7996342 8.89001457,36.1009995 10.4913452,36.6623114 C11.2382772,38.8158359 13.2412743,40.3617953 15.5880125,40.3617953 L19.3135262,40.3617953 C20.2281367,43.6144248 23.1495553,46 26.6022101,46 L30.8421922,46 L32.9374125,46 L32.9465586,43.8449076 L32.9999109,31.4670412 C33.0105814,28.941922 32.0624351,26.5649703 30.3300103,24.7752009 C28.5975854,22.9854315 26.2912425,22 23.8355132,22 Z M30.8421922,43.8355001 L26.6022101,43.8355001 C23.5748492,43.8355001 21.1206442,41.3111648 21.1206442,38.1972954 L15.5880125,38.1972954 C14.2664003,38.1972954 13.1345697,37.3937414 12.6063821,36.2413275 L20.6206571,36.2413275 C21.0078422,36.2413275 21.3218585,35.918338 21.3218585,35.5200888 C21.3218585,35.1218397 21.0078422,34.7988502 20.6206571,34.7988502 L12.2832197,34.7988502 C12.2832197,34.7988502 12.2824575,34.7988502 12.2824575,34.7988502 L12.2595923,34.7988502 C10.8724329,34.7988502 9.68343922,33.9396355 9.15830033,32.7119618 L18.4774197,32.7119618 C18.8646048,32.7119618 19.1786211,32.3889724 19.1786211,31.9907232 C19.1786211,31.592474 18.8646048,31.2694845 18.4774197,31.2694845 L8.87019801,31.2694845 C8.81989443,31.2694845 8.77645043,31.2882995 8.72919555,31.2984909 C7.4075833,31.2396943 6.29099625,30.3851832 5.82606922,29.1818122 L15.4477722,29.1818122 C15.8349574,29.1818122 16.1489737,28.8588228 16.1489737,28.4605736 C16.1489737,28.0623244 15.8349574,27.7393349 15.4477722,27.7393349 L5.57378914,27.7393349 C3.65691786,27.7369831 2.10436645,26.1384987 2.10436645,24.1660678 L23.8362753,24.1660678 C27.7477598,24.1660678 30.9130745,27.4367283 30.8955445,31.4599856 L30.8421922,43.8355001 Z" id="Shape"></path>
                            <path d="M24.8416283,8.66363663 C24.9185343,8.22458891 24.6245666,7.9354951 24.1882868,8.02200697 L21.6503893,8.52521764 C21.2141096,8.61172951 20.5356119,8.51151993 20.142457,8.30172866 L17.8575587,7.0847951 C17.4644038,6.87572477 17.0999988,7.0667718 17.0468115,7.50942417 L16.7391875,10.0860359 C16.686719,10.5294092 16.3812513,11.1450853 16.0614086,11.4550861 L14.20129,13.2588585 C13.8814474,13.5688593 13.9504472,13.976186 14.3536645,14.1636284 L16.7018127,15.2529569 C17.1057488,15.4403993 17.5959346,15.921982 17.7907152,16.3228203 L18.9256175,18.655036 C19.1211168,19.0558743 19.5279279,19.1164326 19.8305206,18.7891294 L21.5892958,16.8858684 C21.8918885,16.5585652 22.4992302,16.2399131 22.9398224,16.177913 L25.5021573,15.8152841 C25.9427495,15.7532839 26.1253114,15.3834457 25.9089684,14.9934214 L24.6475665,12.7275314 C24.4305048,12.3375071 24.3162239,11.6598309 24.3931299,11.2200622 L24.8416283,8.66363663 Z" id="Shape"></path>
                            <path d="M41.0913473,14.9938051 C40.8742822,15.3831412 41.0575656,15.7530106 41.4981645,15.815737 L44.0598193,16.1776754 C44.5004182,16.2396808 45.1084878,16.5590806 45.4103663,16.8856904 L47.1691681,18.7891116 C47.4717653,19.1164424 47.8785826,19.055879 48.0740848,18.655007 L49.2090043,16.322595 C49.4045066,15.9217229 49.893981,15.4400997 50.2979232,15.2526415 L52.6461068,14.1632212 C53.050049,13.9757631 53.1183311,13.5691231 52.7984836,13.2583752 L50.9383369,11.454451 C50.6184895,11.144424 50.3137359,10.5279751 50.2605478,10.0852855 L49.953638,7.50989884 C49.9004499,7.06648821 49.5360394,6.87542509 49.1428785,7.08523403 L46.8579457,8.30227003 C46.4647849,8.51135797 45.7862769,8.61229697 45.3499906,8.52577782 L42.8120548,8.02252479 C42.3757685,7.93600564 42.0817963,8.22512379 42.1587035,8.66420846 L42.6072087,11.2201283 C42.6841158,11.6599339 42.5698332,12.3383882 42.3527682,12.7277244 L41.0913473,14.9938051 Z" id="Shape"></path>
                            <path d="M38.7262493,11.3970273 L38.6499302,8.71572449 C38.6368248,8.2544331 38.8642406,7.57851825 39.1548702,7.21261506 L40.8469977,5.08650143 C41.1376273,4.72059824 41.0019487,4.31519838 40.5440336,4.18478482 L37.8821129,3.42615051 C37.4241978,3.29573695 36.8290623,2.87766834 36.559247,2.49760597 L34.9904637,0.28504678 C34.7206484,-0.0950155934 34.2796931,-0.0950155934 34.0098778,0.28504678 L32.4410945,2.49760597 C32.1712791,2.87841356 31.5761437,3.29648217 31.1182285,3.42615051 L28.4563078,4.18478482 C27.9983927,4.31519838 27.8619432,4.72134347 28.1533438,5.08650143 L29.8454712,7.21261506 C30.1368717,7.57851825 30.3635166,8.2544331 30.3504113,8.71572449 L30.2740921,11.3970273 C30.2609868,11.8583187 30.6179139,12.1087127 31.0673491,11.9544521 L33.6822449,11.0557164 C34.1316801,10.9014557 34.8678904,10.9014557 35.3173256,11.0557164 L37.9322214,11.9544521 C38.3824276,12.1087127 38.7393547,11.8583187 38.7262493,11.3970273 Z" id="Shape"></path>
                        </g>
                    </g>
                </g>
            </g>
        </g>
    </g>
</svg>