<?xml version="1.0" encoding="UTF-8"?>
<svg width="50px" height="51px" viewBox="0 0 50 51" version="1.1" xmlns="http://www.w3.org/2000/svg" xmlns:xlink="http://www.w3.org/1999/xlink">
    <!-- Generator: Sketch 50.2 (55047) - http://www.bohemiancoding.com/sketch -->
    <title>Page 1</title>
    <desc>Created with Sketch.</desc>
    <defs></defs>
    <g id="Mobile" stroke="none" stroke-width="1" fill="none" fill-rule="evenodd">
        <g id="iPhone-for-DEv" transform="translate(-42.000000, -6301.000000)">
            <g id="Group-35" transform="translate(-177.000000, 4876.000000)">
                <g id="SECTION:-Marketplace" transform="translate(69.000000, 61.000000)">
                    <g id="Group-26" transform="translate(130.000000, 709.000000)">
                        <g id="Group-13" transform="translate(0.000000, 640.000000)">
                            <g id="Group-20">
                                <g id="Group-29" transform="translate(1.299569, 0.000000)">
                                    <g id="Page-1" transform="translate(19.000000, 15.000000)">
                                        <path d="M9.73694032,45.1567925 L5.50025637,40.8155833 L12.1154296,34.0372042 L13.4533298,35.4081123 L18.5819472,30.1529644 C18.8049306,30.4576107 19.1022417,30.7622569 19.3252251,30.9907416 C19.6225362,31.2953879 19.8455196,31.5238725 20.1428307,31.7523572 L15.0142133,37.0836667 L16.3521135,38.4545749 L9.73694032,45.1567925 Z M6.24353425,48.8125475 C5.05428963,50.0311326 3.12176713,50.0311326 2.0068503,48.8125475 C1.41222799,48.203255 1.11491683,47.4416394 1.11491683,46.6038622 C1.11491683,45.766085 1.41222799,45.0044693 2.0068503,44.3951768 L3.04743934,43.3289149 L7.2841233,47.6701241 L6.24353425,48.8125475 Z M4.68265069,41.6533605 L8.91933465,45.9945697 L8.10172897,46.9085084 L3.86504501,42.5672993 L4.68265069,41.6533605 Z M21.0347642,32.5139729 C23.1159423,33.9610426 25.4944315,34.7226582 28.0215764,34.7226582 C31.3663268,34.7226582 34.4137662,33.4279116 36.7922554,30.9907416 C41.6235617,26.04024 41.6235617,17.9671142 36.7922554,13.0166125 C34.488094,10.6556041 31.3663268,9.28469591 28.0215764,9.28469591 C24.6768259,9.28469591 21.6293865,10.5794425 19.2508973,13.0166125 C14.9398855,17.4339832 14.4939188,24.2123624 17.8386693,29.1628641 L13.379002,33.7325579 L12.0411018,32.4378113 L1.18924462,43.6335612 C0.445966732,44.3951768 0,45.4614387 0,46.6038622 C0,47.7462856 0.445966732,48.8125475 1.18924462,49.5741632 C2.0068503,50.4119404 3.04743934,50.7927482 4.08802838,50.7927482 C5.12861742,50.7927482 6.16920647,50.4119404 6.98681214,49.5741632 L17.9129971,38.3784133 L16.5750969,37.0075051 L21.0347642,32.5139729 Z" id="Fill-1" fill="#FFFFFF"></path>
                                        <g id="Group-5" transform="translate(7.100062, 0.000000)">
                                            <path d="M13.045926,13.830087 C15.2097542,11.6097287 18.0451154,10.4612676 21.0297062,10.4612676 C24.0889117,10.4612676 26.9242729,11.6862928 29.0134864,13.830087 C33.4157578,18.3473677 33.4157578,25.6975192 29.0134864,30.291364 C26.8496581,32.5117223 24.0142969,33.6601834 21.0297062,33.6601834 C17.9705007,33.6601834 15.1351395,32.4351582 13.045926,30.291364 C8.6436546,25.6975192 8.6436546,18.3473677 13.045926,13.830087 Z" id="Path" fill="#80C43B"></path>
                                            <path d="M42.1439369,25.1828658 L42.1439369,18.7335953 L37.8078279,17.889048 C37.4274675,16.1231763 36.7428187,14.4340816 35.7538815,12.821764 L38.2642604,9.13646655 L33.7760072,4.52984476 L30.124547,7.06348675 C28.5270331,6.06538536 26.8534472,5.37439209 25.1037891,4.91372991 L24.3430683,0.537439209 L17.9530128,0.537439209 L17.1162199,4.91372991 C15.3665618,5.37439209 13.6169038,6.06538536 12.095462,6.98670972 L8.4440018,4.45306773 L3.95574859,8.98291249 L6.46612751,12.6682099 C5.47719036,14.2037505 4.79254156,15.9696222 4.33610903,17.7354939 L0,18.5032642 L0,24.9525347 L4.33610903,25.797082 C4.79254156,27.7165078 5.55326245,29.5591565 6.61827168,31.1714741 L7.60720883,30.5572579 C6.5421996,28.9449403 5.8575508,27.1022915 5.40111827,25.1828658 L5.32504618,24.7989806 L1.21715341,24.0312103 L1.21715341,19.5013656 L5.32504618,18.7335953 L5.47719036,18.3497101 C5.8575508,16.4302844 6.61827168,14.6644127 7.75935301,12.975318 L7.98756927,12.6682099 L5.55326245,9.13646655 L8.74829016,5.98860833 L12.1715341,8.44547328 L12.4758225,8.21514219 C14.0733363,7.14026378 15.8990665,6.44927051 17.8008687,5.98860833 L18.1812291,5.9118313 L18.94195,1.76587169 L23.4302032,1.76587169 L24.1909241,5.9118313 L24.5712845,5.98860833 C26.4730867,6.37249348 28.2227448,7.14026378 29.8963307,8.21514219 L30.2006191,8.44547328 L33.6999351,6.06538536 L36.8949628,9.29002061 L34.460656,12.744987 L34.6888723,13.0520951 C35.7538815,14.7411897 36.5146024,16.5070614 36.8949628,18.4264872 L36.9710349,18.8103723 L41.0789277,19.5781426 L41.0789277,24.1079874 L36.9710349,24.8757577 L36.8949628,25.2596428 C36.4385303,27.1790686 35.6778094,29.0217173 34.6888723,30.6340349 L34.3845839,31.0179201 L36.7428187,34.5496634 L33.5477909,37.6975217 L30.0484749,35.2406567 L29.7441865,35.4709878 C28.0706006,36.5458662 26.3209426,37.3136365 24.4191404,37.6975217 L24.0387799,37.7742987 L23.278059,41.9202583 L18.7898058,41.9202583 L18.0290849,37.7742987 L17.6487245,37.6207446 C15.7469223,37.1600824 13.9211922,36.3923121 12.3236783,35.3174337 L11.7151016,36.3155351 C13.3126155,37.3904135 15.1383456,38.1581838 17.0401478,38.695623 L17.8008687,43.0719137 L24.1909241,43.0719137 L25.0277171,38.695623 C26.7773751,38.3117379 28.450961,37.6207446 30.0484749,36.6226432 L33.6999351,39.1562852 L38.2642604,34.6264405 L35.7538815,30.941143 C36.7428187,29.4056024 37.4274675,27.7165078 37.8839,25.8738591 L42.1439369,25.1828658 Z" id="Fill-3" fill="#FFFFFF"></path>
                                        </g>
                                        <path d="M27.7975886,15.9071643 L27.7975886,17.0420392 L28.9275718,17.0420392 L28.9275718,15.9071643 C31.7148639,16.2097976 33.8994982,18.4038892 34.2008271,21.2032475 L33.1461761,21.2032475 L33.1461761,22.3381225 L34.2008271,22.3381225 C33.8994982,25.1374807 31.7148639,27.3315724 28.9275718,27.6342057 L28.9275718,26.4993307 L27.7975886,26.4993307 L27.7975886,27.6342057 C25.0102965,27.4072307 22.7503299,25.1374807 22.5243333,22.3381225 L23.6543166,22.3381225 L23.6543166,21.2032475 L22.5243333,21.2032475 C22.8256621,18.4038892 25.0102965,16.2097976 27.7975886,15.9071643 M27.7975886,28.7690807 L27.7975886,30.5848806 L28.9275718,30.5848806 L28.9275718,28.844739 C32.3175217,28.5421057 35.0294815,25.8184057 35.3308104,22.4137808 L37.1387836,22.4137808 L37.1387836,21.2789058 L35.3308104,21.2789058 C35.0294815,17.8742809 32.3175217,15.1505809 28.9275718,14.8479476 L28.9275718,13.107806 L27.7975886,13.107806 L27.7975886,14.8479476 C24.4076387,15.1505809 21.6956789,17.8742809 21.39435,21.2789058 L19.661709,21.2789058 L19.661709,22.4137808 L21.39435,22.4137808 C21.6956789,25.8184057 24.4076387,28.5421057 27.7975886,28.7690807" id="Fill-6" fill="#FFFFFF"></path>
                                    </g>
                                </g>
                            </g>
                        </g>
                    </g>
                </g>
            </g>
        </g>
    </g>
</svg>