<?xml version="1.0" encoding="UTF-8"?>
<svg width="55px" height="58px" viewBox="0 0 55 58" version="1.1" xmlns="http://www.w3.org/2000/svg" xmlns:xlink="http://www.w3.org/1999/xlink">
    <!-- Generator: Sketch 48.2 (47327) - http://www.bohemiancoding.com/sketch -->
    <title>Group</title>
    <desc>Created with Sketch.</desc>
    <defs>
        <linearGradient x1="138.507746%" y1="50%" x2="4.4408921e-14%" y2="50%" id="linearGradient-1">
            <stop stop-color="#FCDF8A" offset="0%"></stop>
            <stop stop-color="#F38381" offset="100%"></stop>
        </linearGradient>
    </defs>
    <g id="Mobile" stroke="none" stroke-width="1" fill="none" fill-rule="evenodd" transform="translate(-163.000000, -5002.000000)">
        <g id="SECTION:-BENEFITS" transform="translate(1.000000, 4316.000000)" fill="url(#linearGradient-1)" fill-rule="nonzero" stroke="url(#linearGradient-1)" stroke-width="0.5">
            <g id="Group-26" transform="translate(27.000000, 356.000000)">
                <g id="Group-14" transform="translate(0.000000, 308.000000)">
                    <g id="Group-34" transform="translate(104.000000, 0.000000)">
                        <g id="Group" transform="translate(32.000000, 23.000000)">
                            <path d="M37.2086645,19.0928463 L37.2086645,18.8371385 C37.2086645,8.43835616 28.8094174,0 18.562336,0 C8.31525459,0 0,8.43835616 0,18.8371385 L0.587947295,18.8371385 L0.587947295,19.43379 L0.587947295,18.8371385 L1.00790965,18.8371385 L1.17589459,18.8371385 C1.17589459,18.8371385 1.17589459,18.8371385 1.17589459,18.8371385 L1.17589459,18.7519026 C1.34387953,9.03500761 9.07118683,1.27853881 18.562336,1.27853881 C28.1374777,1.27853881 35.864785,9.20547945 35.864785,18.8371385 L35.864785,18.9223744 C35.5288151,18.9223744 35.1928452,18.9223744 34.8568753,18.9223744 C34.1009431,18.9223744 33.3450108,19.0076104 32.6730711,19.0928463 L32.6730711,18.8371385 C32.6730711,10.9101979 26.3736358,4.51750381 18.562336,4.51750381 C10.7510362,4.51750381 4.45160094,10.9101979 4.45160094,18.8371385 C4.45160094,20.9680365 2.68775906,22.7579909 0.587947295,22.7579909 L0.587947295,24.0365297 C3.4436913,24.0365297 5.711488,21.7351598 5.711488,18.8371385 C5.711488,11.6773212 11.5069685,5.79604262 18.562336,5.79604262 C25.6177035,5.79604262 31.413184,11.6773212 31.413184,18.8371385 L31.413184,19.2633181 C30.3212819,19.5190259 29.2293798,19.7747336 28.2214701,20.2009132 L28.2214701,18.8371385 C28.2214701,13.4672755 23.9378541,9.12024353 18.6463285,9.12024353 C13.3548028,9.12024353 9.07118683,13.4672755 9.07118683,18.8371385 L9.07118683,19.2633181 C8.81920942,23.7808219 5.20753318,27.3607306 0.755932236,27.3607306 L0.755932236,28.6392694 C5.87947295,28.6392694 10.0790965,24.5479452 10.3310739,19.348554 L10.3310739,18.8371385 C10.3310739,14.1491629 14.1107351,10.3987823 18.6463285,10.3987823 C23.2659144,10.3987823 26.9615831,14.2343988 26.9615831,18.8371385 L26.9615831,20.7975647 C25.7856885,21.3942161 24.6937864,22.0761035 23.7698692,22.8432268 L23.7698692,18.8371385 C23.7698692,15.9391172 21.5020725,13.6377473 18.6463285,13.6377473 C15.7905845,13.6377473 13.5227878,15.9391172 13.5227878,18.8371385 L13.5227878,19.7747336 C13.1028254,26.5936073 7.47532989,31.8782344 0.671939765,31.8782344 L0.671939765,33.1567732 C8.06327718,33.1567732 14.1947275,27.2754947 14.7826748,19.8599696 L14.7826748,18.9223744 L14.1947275,18.9223744 L14.8666673,18.9223744 C14.8666673,16.7914764 16.6305092,15.0015221 18.730321,15.0015221 C20.8301327,15.0015221 22.5939746,16.7914764 22.5939746,18.9223744 L22.5939746,24.0365297 C20.0742005,26.4231355 18.2263661,29.5768645 17.3864414,33.1567732 C13.4387953,37.8447489 7.81129977,40.7427702 1.84783435,40.9984779 L1.76384188,42.1917808 C7.39133742,41.9360731 12.850848,39.4642314 16.8824866,35.3729072 C16.7984941,36.0547945 16.7984941,36.651446 16.7984941,37.3333333 C16.7984941,38.1004566 16.8824866,38.9528158 16.9664791,39.7199391 C13.1028254,42.7884323 8.65122448,44.6636225 3.94764612,45.3455099 L4.11563106,46.6240487 C8.81920942,46.0273973 13.3548028,44.152207 17.134464,41.1689498 C17.3864414,42.2770167 17.7224113,43.3850837 18.1423737,44.4931507 C14.9506598,46.7945205 11.422976,48.414003 7.64331483,49.3515982 L7.89529224,50.630137 C11.7589459,49.6925419 15.3706221,48.0730594 18.562336,45.7716895 C19.0662908,46.7945205 19.6542381,47.6468798 20.2421854,48.5844749 C18.0583812,50.1187215 15.706592,51.3972603 13.1868179,52.4200913 L13.6907727,53.6133942 C16.2945393,52.5905632 18.730321,51.2267884 21.0821101,49.6073059 C24.441809,53.5281583 29.3133723,56 34.8568753,56 C44.8519793,56 52.999249,47.7321157 52.999249,37.5890411 C53.0832415,27.957382 46.1118664,20.2009132 37.2086645,19.0928463 Z M34.9408678,54.5509893 C25.6177035,54.5509893 18.0583812,46.8797565 18.0583812,37.4185693 C18.0583812,27.957382 25.6177035,20.2861492 34.9408678,20.2861492 C44.264032,20.2861492 51.8233544,27.957382 51.8233544,37.4185693 C51.8233544,46.8797565 44.264032,54.5509893 34.9408678,54.5509893 Z" id="Shape"></path>
                            <path d="M28,36 C26.8888889,36 26,36.8888889 26,38 C26,39.1111111 26.8888889,40 28,40 C29.1111111,40 30,39.1111111 30,38 C30,36.8888889 29.1111111,36 28,36 Z M28,38.8888889 C27.5555556,38.8888889 27.1111111,38.5185185 27.1111111,38 C27.1111111,37.5555556 27.4814815,37.1111111 28,37.1111111 C28.4444444,37.1111111 28.8888889,37.4814815 28.8888889,38 C28.8888889,38.5185185 28.5185185,38.8888889 28,38.8888889 Z" id="Shape"></path>
                            <path d="M48,36.3703704 L33.8452722,36.3703704 C33.1002865,33.8518519 30.7908309,32 28.034384,32 C24.6819484,32 22,34.6666667 22,38 C22,41.3333333 24.6819484,44 28.034384,44 C30.7908309,44 33.1002865,42.1481481 33.8452722,39.6296296 L40.4756447,39.6296296 L40.4756447,42.1481481 L41.5931232,42.1481481 L41.5931232,39.6296296 L42.3381089,39.6296296 L42.3381089,42.8888889 L43.4555874,42.8888889 L43.4555874,39.6296296 L44.2750716,39.6296296 L44.2750716,41.3333333 L45.3925501,41.3333333 L45.3925501,39.6296296 L46.8080229,39.6296296 L46.8080229,38.5185185 L33.9942693,38.5185185 C33.9942693,38.2962963 33.9942693,38.1481481 33.9942693,37.9259259 C33.9942693,37.7037037 33.9942693,37.5555556 33.9942693,37.3333333 L47.9255014,37.3333333 L47.9255014,36.3703704 L48,36.3703704 Z M27.9990799,42.9230769 C25.1965654,42.9230769 23,40.6503497 23,37.9230769 C23,35.1200466 25.272309,32.9230769 27.9990799,32.9230769 C30.8015944,32.9230769 32.9981598,35.1958042 32.9981598,37.9230769 C33.0739034,40.6503497 30.8015944,42.9230769 27.9990799,42.9230769 Z" id="Shape"></path>
                            <path d="M19,20.0363636 L19,19.0863636 L17.7045455,19 L17.7045455,19.95 C17.1,29.3636364 9.32727273,36.7045455 0,36.7045455 L0,38 C10.0181818,38 18.3090909,30.1409091 19,20.0363636 Z" id="Shape"></path>
                        </g>
                    </g>
                </g>
            </g>
        </g>
    </g>
</svg>