<?xml version="1.0" encoding="UTF-8"?>
<svg width="17px" height="13px" viewBox="0 0 17 13" version="1.1" xmlns="http://www.w3.org/2000/svg" xmlns:xlink="http://www.w3.org/1999/xlink">
    <!-- Generator: Sketch 50.2 (55047) - http://www.bohemiancoding.com/sketch -->
    <title>icon_poc_checkmark</title>
    <desc>Created with Sketch.</desc>
    <defs>
        <linearGradient x1="113.491287%" y1="50.6146592%" x2="35.8947936%" y2="50.6146592%" id="linearGradient-1">
            <stop stop-color="#14ACE0" offset="0%"></stop>
            <stop stop-color="#00EABD" offset="100%"></stop>
        </linearGradient>
    </defs>
    <g id="Page-1" stroke="none" stroke-width="1" fill="none" fill-rule="evenodd">
        <g id="icon_poc_checkmark" fill-rule="nonzero">
            <path d="M16.1,2.9 C16.1,3.2 16,3.4 15.8,3.6 L7.2,12.2 C7,12.4 6.8,12.5 6.5,12.5 C6.2,12.5 6,12.4 5.8,12.2 L0.8,7.2 C0.6,7 0.5,6.8 0.5,6.5 C0.5,6.2 0.6,6 0.8,5.8 L2.2,4.4 C2.4,4.2 2.6,4.1 2.9,4.1 C3.2,4.1 3.4,4.2 3.6,4.4 L6.6,7.4 L13.2,0.8 C13.4,0.6 13.6,0.5 13.9,0.5 C14.2,0.5 14.4,0.6 14.6,0.8 L16,2.2 C16,2.4 16.1,2.7 16.1,2.9 Z" id="Shape" fill="#72D3FF"></path>
            <path d="M16.1,2.9 C16.1,3.2 16,3.4 15.8,3.6 L7.2,12.2 C7,12.4 6.8,12.5 6.5,12.5 C6.2,12.5 6,12.4 5.8,12.2 L0.8,7.2 C0.6,7 0.5,6.8 0.5,6.5 C0.5,6.2 0.6,6 0.8,5.8 L2.2,4.4 C2.4,4.2 2.6,4.1 2.9,4.1 C3.2,4.1 3.4,4.2 3.6,4.4 L6.6,7.4 L13.2,0.8 C13.4,0.6 13.6,0.5 13.9,0.5 C14.2,0.5 14.4,0.6 14.6,0.8 L16,2.2 C16,2.4 16.1,2.7 16.1,2.9 Z" id="Shape" fill="url(#linearGradient-1)"></path>
        </g>
    </g>
</svg>