<?xml version="1.0" encoding="UTF-8"?>
<svg width="46px" height="51px" viewBox="0 0 46 51" version="1.1" xmlns="http://www.w3.org/2000/svg" xmlns:xlink="http://www.w3.org/1999/xlink">
    <!-- Generator: Sketch 48.2 (47327) - http://www.bohemiancoding.com/sketch -->
    <title>Page 1</title>
    <desc>Created with Sketch.</desc>
    <defs>
        <linearGradient x1="50%" y1="0%" x2="50%" y2="100%" id="linearGradient-1">
            <stop stop-color="#B4EC51" offset="0%"></stop>
            <stop stop-color="#429321" offset="100%"></stop>
        </linearGradient>
    </defs>
    <g id="Mobile" stroke="none" stroke-width="1" fill="none" fill-rule="evenodd" transform="translate(-165.000000, -5678.000000)">
        <g id="SECTION:-BENEFITS" transform="translate(1.000000, 4316.000000)" fill="url(#linearGradient-1)">
            <g id="Group-26" transform="translate(27.000000, 356.000000)">
                <g id="Group-14" transform="translate(12.000000, 984.000000)">
                    <g id="Group-34" transform="translate(99.000000, 0.000000)">
                        <g id="Page-1" transform="translate(27.000000, 23.000000)">
                            <path d="M27.6581193,41.9984302 L37.0248145,32.3225088 L42.8163364,35.3970625 L27.6581193,41.9984302 Z M28.0565717,44.996699 L22.568146,46.8445643 L22.5667838,46.3064834 L23.3146482,46.3085267 L23.3160104,46.3085267 C23.443379,46.3085267 23.5632552,46.2540375 23.6470324,46.1586814 L25.7884583,43.7393605 C25.8463531,43.7386794 25.9056101,43.7277815 25.9614616,43.7032614 L35.3336057,39.6213385 L28.0565717,44.996699 Z M25.1325445,47.7279707 C24.7518011,47.8389924 23.301707,48.2401692 22.1261023,48.2401692 C20.9511787,48.2401692 19.520837,47.8396735 19.1455425,47.7286518 L17.8017024,46.4658643 L21.9857926,47.8798593 C22.0314273,47.8948439 22.0797865,47.9030172 22.1274646,47.9030172 C22.1751426,47.9030172 22.2228207,47.8948439 22.2691365,47.8798593 L26.4763846,46.4631399 L25.1325445,47.7279707 Z M9.1440481,39.7405336 L18.6387929,43.9096393 L20.6276491,46.1518703 C20.7114262,46.2465453 20.8313025,46.3003534 20.9573088,46.3010345 L21.6820153,46.3030778 L21.6833775,46.842521 L16.2290076,44.9994235 L9.1440481,39.7405336 Z M7.25395363,32.3211466 L16.9387296,42.1966347 L1.45766395,35.3984247 L7.25395363,32.3211466 Z M5.78615055,1.70638409 L14.219718,14.1646608 L9.59630854,18.3337665 C9.58745404,18.3419398 9.58268624,18.3535188 9.57451285,18.3623733 C9.56633947,18.3705467 9.55544163,18.3746334 9.54794936,18.384169 L3.39611758,25.9833704 L5.78615055,1.70638409 Z M15.0030004,13.7437316 L7.25395363,2.29622979 L20.3708687,11.8631728 L15.0030004,13.7437316 Z M22.1458547,12.1785291 L28.8432597,14.7511009 L22.1349568,27.0173031 L15.408945,14.5392741 L22.1458547,12.1785291 Z M37.086796,2.25127619 L29.3323003,13.9909764 L23.8806549,11.8965474 L37.086796,2.25127619 Z M40.8806072,25.9847326 L34.7280943,18.3848501 C34.7199209,18.3746334 34.7076609,18.3698656 34.6988064,18.3610111 C34.6892707,18.3507943 34.6838218,18.3378531 34.672924,18.3283175 L30.1155827,14.4105433 L38.4932987,1.72886089 L40.8806072,25.9847326 Z M42.7012279,30.0087608 L43.2890303,34.6444303 L38.0001714,31.8368737 L42.7012279,30.0087608 Z M33.8644403,28.0246724 L41.4323105,29.5524136 L37.0500158,31.2572448 L33.8644403,28.0246724 Z M31.2680295,36.9970019 L27.052608,32.0146448 C31.1222709,31.714273 32.3843772,29.4516086 32.7760184,28.18201 L36.3205415,31.7776167 L31.2680295,36.9970019 Z M26.0534121,42.3839414 C26.0493254,40.5510606 26.0738456,36.1674037 26.3476538,32.5520446 L30.649577,37.636569 L26.0534121,42.3839414 Z M17.846656,32.0418894 C17.8616405,32.0418894 17.8739006,32.0446139 17.8888851,32.0446139 C18.1933436,35.6565673 18.2260371,40.2384288 18.2239938,42.2422695 L13.8560025,37.7884577 L17.846656,32.0418894 Z M11.4952575,28.1629388 C11.8671464,29.3855404 13.0529678,31.5548921 16.8154477,31.974459 L13.2246088,37.1448039 L7.95822667,31.7742112 L11.4952575,28.1629388 Z M7.22670903,31.2565637 L2.60534293,29.4591009 L10.3605197,28.0560037 L7.22670903,31.2565637 Z M1.57890244,30.010123 L6.27723455,31.8368737 L0.989056741,34.6437492 L1.57890244,30.010123 Z M14.527582,15.0793984 L17.1682653,27.572412 L10.4899316,18.7206398 L14.527582,15.0793984 Z M18.7586692,30.8104333 L15.9095646,17.3332083 L21.650684,27.9844866 L18.7586692,30.8104333 Z M25.5221423,30.8186066 L22.6090129,27.9960656 L28.472733,17.2746324 L25.5221423,30.8186066 Z M27.1554564,27.4770558 L29.8063564,15.3109775 L33.7806632,18.727451 L27.1554564,27.4770558 Z M22.5810872,29.2016393 L25.4771887,32.0078336 C25.484681,32.0146448 25.4942166,32.0173693 25.50239,32.0241804 C25.1918015,35.7600968 25.1638758,40.4877169 25.1679625,42.4057371 C24.6074047,42.0202259 23.7192306,41.5795444 22.5810872,41.4930428 C22.5810872,41.4930428 22.5810872,29.2016393 22.5810872,29.2016393 Z M18.7743348,32.0207748 C18.7825082,32.0139637 18.793406,32.0132826 18.8008983,32.0064714 L21.6956376,29.1778003 L21.6956376,41.5032596 C20.5813332,41.6176869 19.6768123,42.0624551 19.1094434,42.4357062 C19.1135301,40.5347139 19.0876478,35.7750814 18.7743348,32.0207748 Z M34.3963912,19.3813215 L41.9901437,28.7623201 L32.3380613,26.8143308 C32.2992378,26.8068386 32.2624576,26.8122875 32.2249962,26.8150119 C31.5268532,26.7278292 29.9630129,26.6215753 28.51973,27.1433094 L34.3963912,19.3813215 Z M9.88033354,19.3826837 L15.7277069,27.1324116 C13.853278,26.466281 11.788137,26.8497488 11.681883,26.8701823 C11.6512329,26.8763123 11.6253505,26.8912968 11.5974248,26.9028758 C11.5517901,26.9130925 11.5088798,26.9308015 11.4680129,26.9560028 L2.42552853,28.5920413 L9.88033354,19.3826837 Z M44.2092168,35.6579296 C44.2405481,35.6054837 44.2589382,35.54827 44.2657494,35.4862886 C44.2671116,35.4740285 44.2759661,35.465174 44.2766472,35.4529139 C44.2773283,35.4433783 44.2705172,35.4352049 44.2698361,35.4256693 C44.2698361,35.4100037 44.275285,35.3957003 44.2732416,35.3793535 L43.5069871,29.3344568 C43.506306,29.3276456 43.5015382,29.3221967 43.500176,29.3147044 C43.4967704,29.2935899 43.4872348,29.2758809 43.4804236,29.2554474 C43.4661202,29.2111749 43.4484112,29.170308 43.4225288,29.1342089 C43.417761,29.1273978 43.4170799,29.1185433 43.411631,29.1117321 L41.8798031,27.2195943 L41.8900198,27.2182321 L39.2520609,0.400005289 C39.2370764,0.241986581 39.1376336,0.103720211 38.9925561,0.0390142742 C38.8474786,-0.0263727775 38.678562,-0.00798266923 38.5505124,0.0853301025 L22.8964435,11.5185285 L22.3113656,11.2937605 C22.2132851,11.2562992 22.1049878,11.254937 22.0062261,11.2896739 L21.3850491,11.5076307 L5.72621241,0.0853301025 C5.59816277,-0.00866378435 5.42856511,-0.0263727775 5.28484982,0.0390142742 C5.13977229,0.103720211 5.0410106,0.241305465 5.02534495,0.400005289 L2.38602386,27.2189132 L2.39624058,27.2202754 L0.864412674,29.1124133 C0.84534145,29.1362523 0.839892529,29.1655402 0.826270227,29.1921037 C0.825589112,29.193466 0.824907997,29.1948282 0.824226882,29.1961904 C0.801068968,29.2425062 0.782678859,29.288141 0.776548823,29.3392246 C0.775186593,29.3467169 0.770418787,29.3528469 0.769056557,29.3610203 L0.00280204454,35.3807157 C0.000758699178,35.3970625 0.00620762015,35.4113659 0.00620762015,35.4270316 C0.00620762015,35.435886 -0.000603531066,35.4433783 7.75840564e-05,35.4529139 C0.000758699178,35.465174 0.00961319576,35.4740285 0.010975426,35.4856075 C0.0184676923,35.5475889 0.0361766855,35.6048026 0.066826866,35.6572485 C0.0736380172,35.6688274 0.0770435928,35.6817686 0.0845358592,35.6926664 C0.126764997,35.7512423 0.183297552,35.7968771 0.249365719,35.8295706 C0.255495755,35.832295 0.258220215,35.8391062 0.263669136,35.8418307 L5.55048471,38.163071 C5.56274479,38.17465 5.57023705,38.1903156 5.58454047,38.2005323 L15.7188524,45.7200433 L18.6135916,48.4445038 C18.6619508,48.4894574 18.7191645,48.5235131 18.7825082,48.5439466 C18.8567497,48.5677856 20.6276491,49.1263 22.1254212,49.1263 C23.6218311,49.1263 25.4165695,48.5684667 25.4914921,48.5446277 C25.555517,48.5248753 25.6140929,48.4908196 25.662452,48.4451849 L28.5163244,45.754099 L38.8611009,38.1167552 C38.8801721,38.1024518 38.8910699,38.0820183 38.9074167,38.0656715 L44.0110123,35.8425118 C44.0171423,35.8397873 44.0205479,35.8329762 44.026678,35.8295706 C44.0927461,35.7968771 44.1492787,35.7519235 44.1915078,35.6926664 C44.1996812,35.6817686 44.2030868,35.6695085 44.2092168,35.6579296 Z" id="Fill-1" stroke="url(#linearGradient-1)" stroke-width="0.5"></path>
                            <path d="M21.1589188,45.4155848 L19.3348926,43.3592983 C19.8103109,43.0023939 20.8612715,42.3492045 22.2098795,42.3492045 C23.5394162,42.3492045 24.5181786,42.9962639 24.9540923,43.3477193 L23.1184871,45.4210337 L21.1589188,45.4155848 Z" id="Path"></path>
                            <path d="M26.4811524,31.0549536 C26.5996664,29.9317947 27.0485213,29.0735897 27.8161381,28.5034963 C28.7751481,27.7910499 30.0692669,27.6303068 31.0418993,27.6303068 C31.4287727,27.6303068 31.7652435,27.6561891 32.0097639,27.6820715 C31.7965748,28.6499361 30.8287102,31.0379257 26.4702546,31.1571209 C26.4736601,31.1230651 26.4777468,31.0890093 26.4811524,31.0549536 Z" id="Path"></path>
                            <path d="M17.7962535,31.0549536 C17.7996591,31.0890093 17.8030646,31.1230651 17.8071513,31.1564397 C13.4466523,31.0372446 12.48015,28.6458494 12.267642,27.6807093 C13.1258471,27.5880776 15.1140221,27.5036193 16.4585434,28.5007719 C17.2275224,29.0715463 17.6777395,29.9311136 17.7962535,31.0549536 Z" id="Path"></path>
                        </g>
                    </g>
                </g>
            </g>
        </g>
    </g>
</svg>