<svg xmlns="http://www.w3.org/2000/svg" width="48" height="60" viewBox="0 0 48 60">
    <g fill="none" fill-rule="evenodd">
        <path fill="#FFDDA8" d="M24.722 0L0 14.418l9.607 5.599 3.092 1.799L23.305 28l24.678-14.41.017-.01-10.587-6.182-3.085-1.792z"/>
        <path fill="#F9C98A" d="M1 14.475L23.31 27 47 13.665 24.716 1z"/>
        <path fill="#BC7C46" d="M0 46.477l9.41 5.541 3.053 1.795L22.973 60 23 27.69 0 14z"/>
        <path fill="#DDA866" d="M23.028 27.262L23 59l25-14.143V13z"/>
        <path fill="#9B7451" d="M14 21.8V54l-4-1.789V20z"/>
        <path fill="#CAAF8F" d="M38 6.761l-8.668 4.968-3.104 1.78-13.036 7.437-.089.054L10 19.23l.088-.054 13.036-7.447 3.104-1.78L34.905 5z"/>
        <path fill="#4F2E16" d="M38 24.131V28l.159-.13-.001-3.87z"/>
        <path fill="#4F2E16" d="M39 23.697l-.18.31-.82-.57L37.18 25 37 24.906 38 23zM40 22.126V26l.158-.129V22z"/>
        <path fill="#4F2E16" d="M41 22.698l-.18.31-.818-.573L39.179 24 39 23.906 40.002 22z"/>
        <g fill="#4F2E16">
            <path d="M40.144 25.688l-3.282 1.934c-.048.026-.088.004-.088-.053 0-.059.04-.127.088-.156l3.282-1.934c.05-.026.087-.005.087.053a.2.2 0 0 1-.087.156"/>
            <path d="M36.89 23.391c-.242.142-.44.491-.44.776v3.801c0 .286.198.401.44.258l3.227-1.899a.999.999 0 0 0 .439-.776v-3.803c0-.285-.197-.402-.44-.258l-3.227 1.901zm3.227 3.143l-3.228 1.9c-.339.198-.615.036-.615-.363v-3.8c0-.4.276-.888.615-1.087l3.228-1.902c.338-.2.614-.036.614.363v3.801c0 .4-.276.888-.614 1.088zM43.227 24.117c-.049.03-.087.006-.087-.051v-2.722c0-.056.038-.125.087-.154.048-.029.088-.006.088.052v2.721c0 .055-.04.127-.088.154"/>
            <path d="M41.613 20.538c-.243.143-.438.49-.439.776v3.802c0 .285.196.4.439.258l3.228-1.9c.241-.142.44-.493.44-.777v-3.802c0-.284-.199-.402-.44-.257l-3.228 1.9zm3.228 3.144l-3.228 1.898c-.34.2-.615.039-.614-.36l-.001-3.802c0-.4.276-.887.615-1.087l3.228-1.901c.34-.2.615-.036.615.362v3.803c0 .398-.275.886-.615 1.087z"/>
            <path d="M44.56 21.376c-.126-.504-.675-.616-1.333-.228-.658.386-1.206 1.145-1.333 1.797l2.666-1.569zM42.763 21.076c-.048.029-.089.005-.089-.051v-.663c0-.059.04-.126.089-.157.049-.026.088-.005.088.052v.664c0 .057-.04.127-.088.155M43.227 20.804c-.049.027-.087.004-.087-.052v-.664c0-.058.038-.126.087-.157.048-.028.087-.005.087.052v.664c0 .059-.04.128-.087.157M43.69 20.53c-.047.028-.087.005-.087-.052v-.662c0-.06.04-.13.088-.156.049-.03.088-.006.088.051v.663a.198.198 0 0 1-.088.156M41.6 26.614c-.243.144-.44.492-.439.778v3.802c0 .286.196.4.439.258l3.226-1.9c.243-.144.44-.49.44-.777l.028-3.8c0-.288-.198-.403-.44-.259L41.6 26.614zm3.226 3.145L41.6 31.66c-.34.2-.616.036-.616-.363v-3.802c0-.398.276-.886.616-1.087l3.254-1.901c.34-.198.615-.035.615.363l-.026 3.801c0 .401-.277.888-.617 1.088z"/>
            <path d="M43.212 29.671c-.048.03-.088.007-.088-.05v-2.72c0-.06.04-.128.088-.156.048-.03.088-.006.088.053v2.719c0 .057-.04.127-.088.154"/>
            <path d="M43.612 29.436l-.8.472c-.048.03-.088.005-.088-.051 0-.057.04-.127.089-.157l.8-.47c.049-.03.087-.006.087.053a.194.194 0 0 1-.088.153M44.063 25.994v1.27c0 .342-.237.761-.527.932l-.645.381c-.293.17-.529.033-.529-.313v-1.268l.321-.19v1.363c0 .054.038.08.087.05a.199.199 0 0 0 .088-.156v-1.36l1.205-.709zM37.644 30.645l.635.374-.634 1.121zM39.122 29.53l-.62 1.095-.618-.366zM38.502 31.15l.678.401-1.356.798zM39.388 29.586v1.562l-.662-.391zM39.65 31.696l-2.407-1.418.112-.198 2.408 1.418z"/>
            <path d="M37.355 33.05l-.113-.067 2.408-4.255.113.066zM39.786 31.194l-.158.094v-2.054l.158-.094zM37.378 32.612l-.16.094v-2.054l.16-.093zM40.644 29.731l-.389.23v-.14l.39-.228z"/>
            <path d="M40.34 29.494l-.51.649.51.046zM36.781 32.008l-.39.228v-.138l.39-.231z"/>
            <path d="M36.694 32.336l.512-.649-.512-.047z"/>
            <path d="M36.835 29.475a.897.897 0 0 0-.396.698l.001 3.928c0 .257.176.362.395.234l3.336-1.964a.903.903 0 0 0 .395-.698v-3.93c0-.256-.178-.36-.395-.232l-3.336 1.964zm3.336 3.08l-3.336 1.965c-.305.18-.553.034-.553-.325v-3.928c0-.361.248-.798.553-.977l3.336-1.965c.304-.18.553-.033.553.326v3.929c0 .359-.248.797-.553.976z"/>
        </g>
    </g>
</svg>
