<?xml version="1.0" encoding="UTF-8"?>
<svg width="52px" height="51px" viewBox="0 0 52 51" version="1.1" xmlns="http://www.w3.org/2000/svg" xmlns:xlink="http://www.w3.org/1999/xlink">
    <!-- Generator: Sketch 50.2 (55047) - http://www.bohemiancoding.com/sketch -->
    <title>Asset 1patternxxxx</title>
    <desc>Created with Sketch.</desc>
    <defs></defs>
    <g id="Mobile" stroke="none" stroke-width="1" fill="none" fill-rule="evenodd">
        <g id="iPhone-for-DEv" transform="translate(-40.000000, -5661.000000)" fill="#FFFFFF" fill-rule="nonzero">
            <g id="Group-35" transform="translate(-177.000000, 4876.000000)">
                <g id="SECTION:-Marketplace" transform="translate(69.000000, 61.000000)">
                    <g id="Group-26" transform="translate(130.000000, 709.000000)">
                        <g id="Group-13">
                            <g id="Group-27">
                                <g id="Group-17" transform="translate(0.407950, 0.000000)">
                                    <g id="Asset-1patternxxxx" transform="translate(18.000000, 15.000000)">
                                        <path d="M41.3877763,2.73382676 L45.4852976,1.5805968 C45.9089611,1.4498265 46.1474735,1.01156426 46.0216223,0.595109372 C45.9713349,0.389896354 45.8376908,0.213558106 45.6514956,0.10674124 C45.4653004,-7.56253748e-05 45.2426206,-0.0281539945 45.0347848,0.0289782997 L38.5988875,1.83221061 C38.3496745,1.89925082 38.1477571,2.07783334 38.0546847,2.31352174 C37.9616124,2.54921015 37.9884147,2.81407401 38.1269217,3.0273762 L41.6881182,8.52094439 C41.9270185,8.88884644 42.423986,9.00093759 42.8036737,8.7725582 C43.1800886,8.53906081 43.2947735,8.05333249 43.0611096,7.68223169 L40.8729045,4.2225418 C45.6161196,5.46364821 49.0503861,9.48317476 49.4541009,14.2661264 C49.4869958,14.673501 49.8298773,14.990513 50.2478615,15 C50.689832,14.9664651 51.0233776,14.5938911 50.9987162,14.1612873 C50.5773366,8.75387089 46.7341826,4.18433952 41.3877763,2.73382676 Z" id="Shape"></path>
                                        <path d="M9.33344276,42.4775537 C9.2204089,42.2995202 9.03927408,42.1744551 8.83143155,42.1309385 C8.62358902,42.0874218 8.40680125,42.1291727 8.23060897,42.24665 C7.85848666,42.4804083 7.7451097,42.9666794 7.97610886,43.3381949 L10.0969431,46.8017506 C5.40425194,45.5647907 2.00657997,41.5377271 1.61360621,36.7469433 C1.58432359,36.3064038 1.19976402,35.9727712 0.754668355,36.0017541 C0.309572691,36.0307369 -0.0275103937,36.41136 0.00177220638,36.8518996 C0.424433802,42.2629356 4.22125281,46.8345532 9.5031095,48.2921291 L5.4311078,49.4466477 C5.06368374,49.5677647 4.83524485,49.9304193 4.88710666,50.3102683 C4.93896848,50.6901173 5.25646619,50.9797518 5.64319122,51 L5.85527465,51 L12.2177773,49.1947528 C12.5353173,49.172006 12.8095669,48.9663679 12.9176526,48.6699716 C13.0274491,48.4518543 13.0274491,48.1953777 12.9176526,47.9772604 L9.33344276,42.4775537 Z" id="Shape"></path>
                                        <path d="M33.5213133,50.9999872 C26.4414168,51.008507 20.0539144,46.7502374 17.3386499,40.2117106 C14.6233854,33.6731837 16.1153869,26.1427808 21.1186184,21.133522 C26.1218499,16.1242632 33.6504518,14.6231957 40.1922442,17.3305849 C46.7340367,20.0379741 50.9999949,26.4203436 51,33.5002442 C50.9884271,43.1520709 43.1731204,50.9767927 33.5213133,50.9999872 Z M33.5213133,17.600959 C24.7403793,17.600959 17.6220259,24.7193115 17.6220259,33.5002442 C17.6220259,42.281177 24.7403793,49.3995294 33.5213133,49.3995294 C42.3022472,49.3995294 49.4206006,42.281177 49.4206006,33.5002442 C49.4089996,24.7241212 42.2974374,17.61256 33.5213133,17.600959 Z" id="Shape"></path>
                                        <path d="M33.5,46 C26.5964406,46 21,40.4035594 21,33.5 C21,26.5964406 26.5964406,21 33.5,21 C40.4035594,21 46,26.5964406 46,33.5 C46,36.8152061 44.6830395,39.99463 42.3388348,42.3388348 C39.99463,44.6830395 36.8152061,46 33.5,46 Z M33.5,22.3958333 C27.4133618,22.3958333 22.4791667,27.3300285 22.4791667,33.4166667 C22.4791667,39.5033048 27.4133618,44.4375 33.5,44.4375 C39.5866382,44.4375 44.5208333,39.5033048 44.5208333,33.4166667 C44.5208333,27.3300285 39.5866382,22.3958333 33.5,22.3958333 Z" id="Shape"></path>
                                        <path d="M32.710415,39.9091356 C31.9864475,39.8537672 31.2788872,39.6731228 30.6219179,39.3759297 C30.0160785,39.0938766 29.4669818,38.7111833 29,38.2455331 L29.5110152,37.4990447 C29.5545398,37.4288499 29.6156363,37.3702003 29.6887597,37.3284188 C29.7761981,37.3067465 29.8679379,37.3067465 29.9553763,37.3284188 C30.1048903,37.3404638 30.2457978,37.4005813 30.3553013,37.4990447 L30.9107527,37.9042812 C31.1640294,38.0683873 31.4316476,38.2111097 31.7106026,38.330846 C32.0629415,38.4800701 32.4380708,38.5736976 32.8215053,38.6081131 L33.1769942,33.766603 L31.866129,33.3400382 C31.458803,33.1884554 31.0769891,32.9800406 30.7330082,32.7215193 C30.3858838,32.4577315 30.1049413,32.12244 29.9109402,31.7404203 C29.6902664,31.2795095 29.5838001,30.7757973 29.5998875,30.2687719 C29.5975313,29.8223731 29.6881804,29.380028 29.8665041,28.9677493 C30.0404924,28.5428826 30.3054103,28.1577875 30.644136,27.8373527 C31.0072697,27.4906039 31.4374688,27.2152906 31.9105651,27.0268796 C32.4670442,26.8072674 33.0641869,26.6984267 33.6657914,26.7069561 L33.7990997,25.4272618 C33.813939,25.3178171 33.8600825,25.2144608 33.932408,25.1286664 C34.0181334,25.0405385 34.1402882,24.9936334 34.2656788,25.000697 L34.8877843,25.000697 L34.754476,26.792269 C35.3522107,26.8490666 35.9330059,27.0156029 36.4652662,27.2828185 C36.9378641,27.5197376 37.3719743,27.8215036 37.7539133,28.1786045 L37.3539883,28.7757952 C37.2675864,28.9373378 37.0984948,29.0428456 36.9096273,29.0530623 C36.7980518,29.0440635 36.690845,29.0073088 36.5985745,28.9464211 L36.0209051,28.583841 L35.3987996,28.2852457 C35.1346693,28.1827884 34.8586669,28.1111806 34.5767316,28.0719633 L34.2656788,32.4869087 L35.6209801,32.9348017 C36.0484241,33.0874725 36.4520938,33.295576 36.820755,33.5533206 C37.1698433,33.8035602 37.457952,34.1237993 37.6650411,34.4917631 C37.9007269,34.9255447 38.0155347,35.410468 37.9983119,35.8994268 C38.0012164,36.4239988 37.9033001,36.9445856 37.7094772,37.43506 C37.5287134,37.9107362 37.2490174,38.3461325 36.8874092,38.7147543 C36.5074038,39.0931033 36.0547219,39.3972899 35.554326,39.6105403 C34.9856935,39.843212 34.3727468,39.9594389 33.7546636,39.9517921 L33.7546636,41.5727382 C33.737453,41.685685 33.6829379,41.7903485 33.5991372,41.8713336 C33.5134118,41.9594615 33.391257,42.0063666 33.2658664,41.999303 L32.6437609,41.999303 L32.710415,39.9091356 Z M31.1773693,30.0554895 C31.1607664,30.5603036 31.380942,31.0456435 31.7772568,31.3778403 C31.9773584,31.5495059 32.2017647,31.6931185 32.4437984,31.804405 C32.7099248,31.9288649 32.9845849,32.0357541 33.2658664,32.1243286 L33.5547011,28.0079786 C33.1890385,28.0348491 32.8295955,28.1139225 32.4882345,28.2425892 C32.215505,28.3440997 31.9663406,28.4963086 31.7550387,28.6904822 C31.5635491,28.8646051 31.4121783,29.0753024 31.3106776,29.3090011 C31.2150377,29.5468624 31.1697196,29.8006306 31.1773693,30.0554895 Z M36.4430481,36.091381 C36.4487274,35.8186252 36.3878574,35.5483763 36.2653037,35.3022361 C36.1440553,35.0869432 35.9776193,34.8981237 35.7765065,34.7477019 C35.5606389,34.5810696 35.3212679,34.4446351 35.0655288,34.3424654 L34.1990247,33.9585571 L33.7990997,38.5654566 C34.1820532,38.5425882 34.5579503,38.4559859 34.9100024,38.3095178 C35.2082136,38.18947 35.4797193,38.0157153 35.7098523,37.79764 C35.92517,37.584209 36.0916594,37.3299473 36.1986495,37.0511517 C36.3437473,36.7493237 36.4267341,36.4234286 36.4430481,36.091381 Z" id="Shape"></path>
                                        <path d="M13.7043863,33.3543473 C6.07168601,31.4090247 0.960075428,24.2315057 1.6141536,16.3777266 C2.26823176,8.52394751 8.49661374,2.29194403 16.3458289,1.63748555 C24.195044,0.983027062 31.368392,6.0976098 33.3125843,13.7347481 L33.8465766,13.7347481 L35,13.7347481 C33.0258419,5.21084902 25.1348739,-0.599561542 16.4142606,0.0493830741 C7.69364728,0.698327691 0.748499187,7.61276813 0.0562277565,16.3350896 C-0.636043674,25.0574111 5.13136395,32.9819928 13.6403072,35 C13.6403072,34.615302 13.6403072,34.230604 13.6403072,33.8459059 C13.6403072,33.4612079 13.7043863,33.5466964 13.7043863,33.3543473 Z" id="Shape"></path>
                                        <path d="M6.3710995,17.6610511 C6.33865605,12.0504465 10.4362168,7.26992352 15.9848161,6.44496529 C21.5334154,5.62000705 26.8440388,9.00173396 28.444626,14.3791891 C28.9559819,14.2300135 29.4886442,14.1021488 30,14.0169056 C28.2068864,8.20465398 22.5682618,4.46039182 16.5167949,5.06354225 C10.465328,5.66669268 5.67633201,10.450277 5.06524057,16.5021561 C4.45414913,22.5540351 8.19013935,28.1987816 13.9988239,30 C13.9988239,29.4672302 14.2331953,28.9557712 14.3610343,28.4230014 C9.62307037,26.9809834 6.38128788,22.614502 6.3710995,17.6610511 Z" id="Shape"></path>
                                        <path d="M17.1484716,22.149596 C16.4742674,21.3339289 16.0700084,20.3300742 15.9912664,19.2760275 L19.790393,19.2760275 C19.9197363,19.2811996 20.0456985,19.2341035 20.139738,19.1454107 C20.2187485,19.071718 20.2657581,18.9701653 20.2707424,18.8624077 L20.2707424,18.3399407 L15.9039301,18.3399407 C15.9039301,18.3399407 15.9039301,18.1440156 15.9039301,18.0569378 L15.9039301,17.7739348 C15.9039301,17.643318 15.9039301,17.5127013 15.9039301,17.3820845 C15.9039301,17.2514678 15.9039301,17.1426205 15.9039301,17.0120037 L20.6637555,17.0120037 C20.7935091,17.0198065 20.9204866,16.9723308 21.0131004,16.881387 C21.0953774,16.8010009 21.1424642,16.6914569 21.1441048,16.5766146 L21.1441048,16.0541476 L16.0349345,16.0541476 C16.152336,15.0475042 16.570759,14.0993567 17.2358079,13.3329652 C17.8057098,12.7379628 18.5940408,12.3999834 19.419214,12.3968785 C19.8050359,12.3873247 20.1894849,12.4462957 20.5545852,12.5710342 C20.8192913,12.6661877 21.0692074,12.7981048 21.2969432,12.9628844 C21.4603241,13.0807138 21.6136821,13.2117746 21.7554585,13.3547347 C21.8383154,13.4523586 21.9554981,13.5146711 22.0829694,13.5288903 C22.1466863,13.5504545 22.2157591,13.5504545 22.279476,13.5288903 L22.4323144,13.3765041 L23,12.7451898 C22.5846544,12.2167163 22.0643279,11.779453 21.4716157,11.4607918 C20.7929613,11.1306337 20.0427385,10.9735531 19.2882096,11.0036331 C18.6526067,10.9967267 18.0218981,11.1150971 17.4323144,11.3519445 C16.8667949,11.5895509 16.3545869,11.9374139 15.9257642,12.375109 C15.4710524,12.8450116 15.1016609,13.3900934 14.8340611,13.986049 C14.5183092,14.6772711 14.3050163,15.4105877 14.2008734,16.1629949 L13,16.1629949 L13,17.120851 L14.2663755,17.120851 C14.2663755,17.2514678 14.2663755,17.3603151 14.2663755,17.4909318 C14.2663755,17.6215486 14.2663755,17.7521653 14.2663755,17.8610126 L14.2663755,18.1440156 C14.2609286,18.2382718 14.2609286,18.3327624 14.2663755,18.4270186 L13,18.4270186 L13,19.3631053 L14.3318777,19.3631053 C14.414875,20.1099152 14.5984793,20.8421592 14.8777293,21.5400512 C15.1272836,22.1484398 15.4820113,22.7084302 15.9257642,23.19453 C16.2187486,23.5110766 16.5572238,23.7825229 16.930131,24 C17.1921397,23.5646108 17.4759825,23.1292217 17.7816594,22.7156019 C17.5442658,22.5584414 17.3309841,22.367789 17.1484716,22.149596 Z" id="Shape"></path>
                                    </g>
                                </g>
                            </g>
                        </g>
                    </g>
                </g>
            </g>
        </g>
    </g>
</svg>