<?xml version="1.0" encoding="UTF-8"?>
<svg width="34px" height="35px" viewBox="0 0 34 35" version="1.1" xmlns="http://www.w3.org/2000/svg" xmlns:xlink="http://www.w3.org/1999/xlink">
    <!-- Generator: Sketch 48.2 (47327) - http://www.bohemiancoding.com/sketch -->
    <title>Title Icon</title>
    <desc>Created with Sketch.</desc>
    <defs>
        <linearGradient x1="113.40917%" y1="55.580068%" x2="35.6606276%" y2="55.580068%" id="linearGradient-1">
            <stop stop-color="#1490E0" offset="0%"></stop>
            <stop stop-color="#20F0FF" offset="100%"></stop>
        </linearGradient>
    </defs>
    <g id="Mobile" stroke="none" stroke-width="1" fill="none" fill-rule="evenodd" transform="translate(-30.000000, -1362.000000)">
        <g id="Background" transform="translate(-448.000000, -1.000000)" fill-rule="nonzero">
            <g id="Group-39" transform="translate(476.000000, 1007.000000)">
                <g id="Group-13">
                    <g id="POC" transform="translate(2.000000, 296.000000)">
                        <g id="Group-10" transform="translate(0.000000, 60.000000)">
                            <g id="Section-1">
                                <g id="Title-Icon">
                                    <path d="M27.0018228,23.1596131 L16.3448779,23.1596131 L16.3448779,32.949214 L1.9611739,32.949214 L1.9611739,5.08948005 L16.233868,5.08948005 C16.3078746,4.35429262 16.4558877,3.69649335 16.6779074,3 L0,3 L0,35 L17.6029894,35 L29,24.668682 L29,16.1172914 C28.3709442,16.3494559 27.7048852,16.5429262 27.0018228,16.6590085 L27.0018228,23.1596131 Z M18.3060518,31.5949214 L18.3060518,25.210399 L25.3366752,25.210399 L18.3060518,31.5949214 Z" id="Shape" fill="#FFFFFF"></path>
                                    <path d="M4,10 L4,11 L16,11 C15.7795276,10.6851852 15.6535433,10.3518519 15.5590551,10 L4,10 Z" id="Shape" fill="url(#linearGradient-1)"></path>
                                    <path d="M18.0626305,14.25 L4,14.25 L4,15.25 L20,15.25 C19.2651357,14.9722222 18.6304802,14.6388889 18.0626305,14.25 Z" id="Shape" fill="url(#linearGradient-1)"></path>
                                    <rect id="Rectangle-path" fill="url(#linearGradient-1)" x="4" y="18.5" width="19" height="1"></rect>
                                    <rect id="Rectangle-path" fill="url(#linearGradient-1)" x="4" y="22.75" width="10" height="1"></rect>
                                    <rect id="Rectangle-path" fill="url(#linearGradient-1)" x="4" y="27" width="10" height="1"></rect>
                                    <path d="M26.5184275,0 C23.1646192,0 20.1793612,2.24815725 19.2948403,5.49140049 C19.1842752,5.82309582 19.1105651,6.19164619 19.0737101,6.52334152 L19.036855,6.78132678 C19.036855,6.78132678 19.036855,6.81818182 19.036855,6.81818182 C19,7.03931204 19,7.26044226 19,7.51842752 C19,7.85012285 19.036855,8.14496314 19.0737101,8.47665848 C19.1474201,8.91891892 19.2211302,9.36117936 19.3685504,9.8034398 C19.3685504,9.8034398 19.3685504,9.84029484 19.3685504,9.84029484 C19.5528256,10.4299754 19.8108108,10.982801 20.1425061,11.4987715 C20.1425061,11.4987715 20.1425061,11.4987715 20.1425061,11.4987715 C20.1425061,11.4987715 20.1793612,11.5356265 20.1793612,11.5356265 L20.2530713,11.6461916 C20.5479115,12.0884521 20.8427518,12.4570025 21.2113022,12.8255528 C21.9115479,13.5257985 22.7592138,14.0786241 23.6805897,14.4471744 C24.2334152,14.6683047 24.7862408,14.8157248 25.3759214,14.9262899 C25.7444717,15 26.1130221,15 26.5184275,15 C26.8132678,15 27.1081081,15 27.4029484,14.963145 C27.8452088,14.9262899 28.2874693,14.8157248 28.7297297,14.6683047 C31.8992629,13.6732187 34,10.7985258 34,7.48157248 C34,3.35380835 30.6461916,0 26.5184275,0 Z M28.5085995,12.9361179 C28.1031941,13.0835381 27.6977887,13.1941032 27.2923833,13.2309582 C27.034398,13.2678133 26.7395577,13.3046683 26.4815725,13.3046683 C25.3390663,13.3046683 24.2334152,12.972973 23.2751843,12.3464373 C22.7960688,12.014742 22.3538084,11.6461916 21.985258,11.1670762 L21.9484029,11.1302211 C21.9484029,11.1302211 21.9484029,11.1302211 21.9484029,11.1302211 C21.5798526,10.6879607 21.2850123,10.1719902 21.1007371,9.61916462 C21.1007371,9.61916462 21.1007371,9.58230958 21.1007371,9.58230958 C20.953317,9.21375921 20.8427518,8.80835381 20.7690418,8.36609337 C20.7321867,8.07125307 20.6953317,7.77641278 20.6953317,7.51842752 C20.6953317,7.51842752 20.6953317,7.51842752 20.6953317,7.51842752 C20.6953317,7.33415233 20.6953317,7.14987715 20.7321867,6.92874693 C20.7321867,6.92874693 20.7321867,6.92874693 20.7321867,6.89189189 L20.7321867,6.81818182 C20.7690418,6.44963145 20.8427518,6.08108108 20.990172,5.71253071 C21.8009828,3.31695332 24.012285,1.73218673 26.5184275,1.73218673 C29.7248157,1.73218673 32.3046683,4.31203931 32.3046683,7.51842752 C32.3046683,9.91400491 30.7936118,12.0884521 28.5085995,12.9361179 Z" id="Shape" fill="#FFFFFF"></path>
                                    <path d="M30.4230769,5 C30.2692308,5 30.1153846,5.06896552 30,5.13793103 L26.0384615,8.75862069 L24,6.86206897 C23.8846154,6.75862069 23.7692308,6.72413793 23.5769231,6.72413793 C23.2692308,6.72413793 23,6.96551724 23,7.24137931 C23,7.37931034 23.0769231,7.51724138 23.1538462,7.62068966 L25.6153846,9.86206897 C25.7307692,9.96551724 25.8461538,10 26.0384615,10 C26.1923077,10 26.3461538,9.93103448 26.4615385,9.86206897 L30.8076923,5.89655172 C30.9230769,5.79310345 30.9615385,5.68965517 31,5.51724138 C30.9615385,5.24137931 30.7307692,5 30.4230769,5 Z" id="Shape" fill="url(#linearGradient-1)"></path>
                                </g>
                            </g>
                        </g>
                    </g>
                </g>
            </g>
        </g>
    </g>
</svg>