<?xml version="1.0" encoding="UTF-8"?>
<svg width="63px" height="44px" viewBox="0 0 63 44" version="1.1" xmlns="http://www.w3.org/2000/svg" xmlns:xlink="http://www.w3.org/1999/xlink">
    <!-- Generator: Sketch 50.2 (55047) - http://www.bohemiancoding.com/sketch -->
    <title>Group</title>
    <desc>Created with Sketch.</desc>
    <defs>
        <linearGradient x1="50%" y1="-74.0461483%" x2="50%" y2="142.941497%" id="linearGradient-1">
            <stop stop-color="#3023AE" offset="0%"></stop>
            <stop stop-color="#C86DD7" offset="100%"></stop>
        </linearGradient>
    </defs>
    <g id="Mobile" stroke="none" stroke-width="1" fill="none" fill-rule="evenodd">
        <g id="iPhone-for-DEv" transform="translate(-37.000000, -5909.000000)" fill="#FFFFFF" fill-rule="nonzero">
            <g id="Group-35" transform="translate(-177.000000, 4876.000000)">
                <g id="SECTION:-Marketplace" transform="translate(69.000000, 61.000000)">
                    <g id="Group-26" transform="translate(130.000000, 709.000000)">
                        <g id="Group-13" transform="translate(0.000000, 245.000000)">
                            <g id="Group-20">
                                <g id="Group-29" transform="translate(1.299569, 0.000000)">
                                    <g id="Group" transform="translate(14.051553, 18.442664)">
                                        <path d="M40.1522351,21.0773301 C37.8648518,21.0773301 35.716614,21.9788173 34.1029509,23.6161246 C32.4892879,25.253432 31.6061392,27.4279023 31.6160782,29.7379184 L31.6657731,41.0613722 L31.6742922,43.0328824 L33.6258803,43.0328824 L37.5752017,43.0328824 C40.791169,43.0328824 43.5123175,40.8505232 44.3642294,37.8749699 L47.8343504,37.8749699 C50.0223441,37.8749699 51.888741,36.4585521 52.5830491,34.4863247 C54.0767346,33.9706769 55.2573425,32.7823203 55.7713293,31.2834275 C57.252946,30.7498503 58.4158057,29.5313724 58.8836473,28.0066614 C60.9055182,27.2851847 62.3537684,25.3387756 62.3537684,23.0574464 L62.3537684,21.0773301 L60.3936611,21.0773301 L40.1522351,21.0773301 Z M57.1620754,26.3263236 L47.9649769,26.3263236 C47.6043342,26.3263236 47.3118445,26.6217992 47.3118445,26.9861233 C47.3118445,27.3504475 47.6043342,27.645923 47.9649769,27.645923 L56.9277997,27.645923 C56.4940345,28.7467845 55.4547021,29.5285037 54.2236894,29.5822917 C54.179674,29.5729685 54.1392082,29.5557563 54.092353,29.5557563 L45.1423089,29.5557563 C44.7816662,29.5557563 44.4891765,29.8512318 44.4891765,30.215556 C44.4891765,30.5798802 44.7816662,30.8753557 45.1423089,30.8753557 L53.8225809,30.8753557 C53.3341514,31.9984496 52.226666,32.7844718 50.9338898,32.7844718 L50.912592,32.7844718 C50.912592,32.7844718 50.911882,32.7844718 50.911882,32.7844718 L43.1467053,32.7844718 C42.7860627,32.7844718 42.4935729,33.0799473 42.4935729,33.4442715 C42.4935729,33.8085957 42.7860627,34.1040712 43.1467053,34.1040712 L50.6115831,34.1040712 C50.1188941,35.1590336 49.0646531,35.8934193 47.8343504,35.8934193 L42.6809935,35.8934193 C42.6809935,38.7420328 40.39503,41.0513318 37.5752017,41.0513318 L33.6258803,41.0513318 L33.5761854,29.727878 C33.5598571,26.0480603 36.508892,23.0552949 40.1515252,23.0552949 L60.3936611,23.0552949 C60.3936611,24.861138 58.9475407,26.3234549 57.1620754,26.3263236 Z" id="Shape" stroke="#9155E1" stroke-width="0.5"></path>
                                        <path d="M22.2015332,21.0773301 L1.96010722,21.0773301 L0,21.0773301 L0,23.0574464 C0,25.3409271 1.45108988,27.2887706 3.47012101,28.0088129 C3.93867254,29.5320896 5.10082231,30.7498503 6.58172911,31.2834275 C7.09713579,32.7866233 8.28058336,33.9771315 9.77213906,34.4906278 C10.4678671,36.4607036 12.3335541,37.8749699 14.5194179,37.8749699 L17.989539,37.8749699 C18.8414508,40.8505232 21.5625993,43.0328824 24.7785666,43.0328824 L28.7278881,43.0328824 L30.6794762,43.0328824 L30.6879953,41.0613722 L30.7376901,29.7379184 C30.7476291,27.4279023 29.8644805,25.253432 28.2508174,23.6161246 C26.6371544,21.9788173 24.4889166,21.0773301 22.2015332,21.0773301 Z M28.7278881,41.0527661 L24.7785666,41.0527661 C21.9587383,41.0527661 19.6727748,38.7434672 19.6727748,35.8948537 L14.5194179,35.8948537 C13.2884053,35.8948537 12.2341644,35.1597507 11.7421853,34.1055056 L19.207063,34.1055056 C19.5677057,34.1055056 19.8601954,33.81003 19.8601954,33.4457059 C19.8601954,33.0813817 19.5677057,32.7859062 19.207063,32.7859062 L11.4411764,32.7859062 C11.4411764,32.7859062 11.4404665,32.7859062 11.4404665,32.7859062 L11.4191687,32.7859062 C10.1271023,32.7859062 9.01961691,31.9998839 8.53047751,30.8767901 L17.2107495,30.8767901 C17.5713922,30.8767901 17.863882,30.5813145 17.863882,30.2169904 C17.863882,29.8526662 17.5713922,29.5571907 17.2107495,29.5571907 L8.26212527,29.5571907 C8.21527012,29.5571907 8.17480431,29.5744028 8.13078886,29.5837261 C6.89977621,29.5299381 5.8597338,28.7482188 5.4266786,27.6473574 L14.3887915,27.6473574 C14.7494342,27.6473574 15.0419239,27.3518819 15.0419239,26.9875577 C15.0419239,26.6232335 14.7494342,26.327758 14.3887915,26.327758 L5.19169291,26.327758 C3.40622762,26.3256065 1.96010722,24.8632895 1.96010722,23.0588808 L22.2022431,23.0588808 C25.8455862,23.0588808 28.7939112,26.050929 28.7775829,29.7314638 L28.7278881,41.0527661 Z" id="Shape" stroke="#9155E1" stroke-width="0.5"></path>
                                        <path d="M22.6099132,7.60859706 C22.6830821,7.22301566 22.4033991,6.96912709 21.9883194,7.04510372 L19.5737452,7.48703445 C19.1586655,7.56301108 18.5131379,7.47500482 18.1390875,7.29076149 L15.9652186,6.22202356 C15.5911682,6.03841337 15.2444706,6.20619509 15.1938678,6.59494219 L14.9011922,8.85777949 C14.8512732,9.24715972 14.560649,9.78786007 14.2563484,10.0601097 L12.4866181,11.6442224 C12.1823174,11.916472 12.2479643,12.2741953 12.6315882,12.4388113 L14.8656334,13.3954837 C15.2499412,13.5600998 15.7163075,13.9830363 15.9016232,14.3350614 L16.9813775,16.3832647 C17.167377,16.7352898 17.55442,16.7884734 17.8423089,16.5010285 L19.5156204,14.8295426 C19.8035093,14.5420977 20.3813386,14.2622504 20.8005212,14.2078005 L23.2383453,13.8893318 C23.6575279,13.8348819 23.8312186,13.5100818 23.6253883,13.1675538 L22.4252814,11.1775993 C22.2187672,10.8350713 22.1100396,10.239921 22.1832085,9.85370648 L22.6099132,7.60859706 Z" id="Shape"></path>
                                        <path d="M37.8504583,13.1678908 C37.6439411,13.5098144 37.8183182,13.8346419 38.2375072,13.8897296 L40.6746842,14.2075919 C41.0938732,14.2620464 41.672395,14.5425504 41.9596044,14.8293863 L43.6329411,16.5010129 C43.9208344,16.788482 44.3078833,16.7352939 44.4938855,16.3832392 L45.5736562,14.3348635 C45.7596585,13.9828088 46.225348,13.5598366 46.6096616,13.3952067 L48.8437405,12.4384538 C49.228054,12.2738239 49.2930181,11.9167036 48.9887128,11.6437979 L47.2189558,10.0595518 C46.9146506,9.78727934 46.6247059,9.24590028 46.5741023,8.85712046 L46.2821061,6.59535905 C46.2315025,6.20594604 45.8847997,6.03815019 45.5107436,6.22240903 L43.3368419,7.29123693 C42.9627858,7.47486258 42.3172485,7.56350944 41.9021625,7.48752642 L39.487552,7.04555848 C39.072466,6.96957545 38.7927787,7.2234854 38.8659487,7.60909926 L39.2926599,9.85376449 C39.3658299,10.2400115 39.2571006,10.8358451 39.0505834,11.1777687 L37.8504583,13.1678908 Z" id="Shape"></path>
                                        <path d="M34.0102476,10.0091211 L33.9432224,7.65434177 C33.931713,7.24922548 34.1314346,6.65562213 34.386672,6.33427787 L35.8727356,4.46707792 C36.127973,4.14573365 36.0088171,3.78970254 35.6066659,3.67517047 L33.2689083,3.00892106 C32.8667572,2.89438899 32.344096,2.52723191 32.1071383,2.19345273 L30.7293981,0.250334379 C30.4924404,-0.0834447929 30.1051837,-0.0834447929 29.8682259,0.250334379 L28.4904858,2.19345273 C28.253528,2.52788637 27.7308669,2.89504346 27.3287157,3.00892106 L24.9909581,3.67517047 C24.5888069,3.78970254 24.468974,4.14638812 24.7248884,4.46707792 L26.2109521,6.33427787 C26.4668665,6.65562213 26.665911,7.24922548 26.6544016,7.65434177 L26.5873764,10.0091211 C26.575867,10.4142374 26.8893283,10.634139 27.2840322,10.4986639 L29.5804915,9.70937432 C29.9751954,9.57389924 30.6217516,9.57389924 31.0164555,9.70937432 L33.3129148,10.4986639 C33.7082957,10.634139 34.021757,10.4142374 34.0102476,10.0091211 Z" id="Shape"></path>
                                    </g>
                                </g>
                            </g>
                        </g>
                    </g>
                </g>
            </g>
        </g>
    </g>
</svg>