<?xml version="1.0" encoding="UTF-8"?>
<svg width="38px" height="61px" viewBox="0 0 38 61" version="1.1" xmlns="http://www.w3.org/2000/svg" xmlns:xlink="http://www.w3.org/1999/xlink">
    <!-- Generator: Sketch 48.2 (47327) - http://www.bohemiancoding.com/sketch -->
    <title>Spaceship Icon</title>
    <desc>Created with Sketch.</desc>
    <defs>
        <linearGradient x1="74.534899%" y1="94.4543394%" x2="74.534899%" y2="16.7057966%" id="linearGradient-1">
            <stop stop-color="#1490E0" offset="0%"></stop>
            <stop stop-color="#20F0FF" offset="100%"></stop>
        </linearGradient>
    </defs>
    <g id="Mobile" stroke="none" stroke-width="1" fill="none" fill-rule="evenodd" transform="translate(-36.000000, -754.000000)">
        <g id="Our-Vision" transform="translate(-117.000000, 680.000000)" fill-rule="nonzero">
            <g id="Our-Vison" transform="translate(138.000000, 72.436116)">
                <g id="Spaceship-Icon" transform="translate(33.941125, 34.505010) rotate(-45.000000) translate(-33.941125, -34.505010) translate(9.941125, 10.505010)">
                    <path d="M47.185683,0.783807512 C46.5983093,0.293927817 45.0319796,0 42.4866938,0 C37.4940178,0 30.8371165,1.17571127 27.1170834,4.50689319 C27.0191878,4.50689319 27.0191878,4.60486913 26.9212922,4.60486913 L22.5159898,9.01378638 L11.7474729,9.89556983 C11.5516817,9.89556983 11.2579949,9.99354577 11.1600993,10.1894977 L1.2726429,20.1830434 C0.978956079,20.4769712 0.881060471,20.868875 1.07685169,21.2607788 C1.17474729,21.5547066 1.56632973,21.8486344 1.95791216,21.8486344 L9.69166518,22.0445863 L6.46111012,25.2777923 C6.2653189,25.4737441 6.16742329,25.669696 6.16742329,25.9636238 C6.16742329,26.2575516 6.2653189,26.4535035 6.46111012,26.6494554 L7.83164863,28.1190945 L5.48215404,33.3118192 C5.28636282,33.703723 5.38425843,34.0956268 5.67794526,34.3895546 L13.6074895,42.3256056 C13.8032807,42.5215575 13.9990719,42.6195334 14.2927587,42.6195334 C14.3906544,42.6195334 14.5864456,42.6195334 14.6843412,42.5215575 L19.7749128,40.170135 L21.2433469,41.6397741 C21.4391381,41.8357259 21.6349293,41.9337019 21.9286162,41.9337019 C22.222303,41.9337019 22.4180942,41.8357259 22.6138854,41.6397741 L25.8444405,38.4065681 L26.0402317,46.1466672 C26.0402317,46.538571 26.3339185,46.9304748 26.6276053,47.0284507 C26.7255009,47.0284507 26.8233966,47.1264266 27.0191878,47.1264266 C27.3128746,47.1264266 27.5086658,47.0284507 27.704457,46.8324988 L37.5919134,36.936929 C37.7877046,36.7409771 37.8856002,36.5450252 37.8856002,36.3490734 L38.7666607,25.4737441 L43.1719631,21.0648269 C43.2698587,20.9668509 43.2698587,20.9668509 43.2698587,20.868875 C48.5562215,15.0882946 48.6541171,2.2534466 47.185683,0.783807512 Z M4.20951114,19.8891156 L12.236951,11.8550886 L20.3622864,11.169257 L11.4537861,20.0850675 L4.20951114,19.8891156 Z M14.48855,40.3660869 L7.5379618,33.4097952 L9.30008275,29.5887336 L18.3064787,38.6025199 L14.48855,40.3660869 Z M36.1234793,35.6632418 L28.0960395,43.6972688 L27.9002482,36.4470493 L36.8087486,27.5312388 L36.1234793,35.6632418 Z M41.8993202,19.5951878 C41.8993202,19.5951878 41.8014246,19.6931637 41.8014246,19.6931637 L22.0265118,39.4843034 L8.41902228,25.9636238 L28.2918307,6.17248415 C28.2918307,6.17248415 28.3897263,6.07450822 28.3897263,6.07450822 C31.6202813,3.03725411 37.8856002,1.95951878 42.4866938,1.95951878 C44.2488147,1.95951878 45.3256664,2.15547066 45.7172489,2.2534466 C46.3046225,4.11498944 46.3046225,14.7943668 41.8993202,19.5951878 Z" id="Shape" fill="#FFFFFF"></path>
                    <path d="M10.1811432,41.4438222 L7.83164863,43.7952447 C7.4400662,44.1871485 7.4400662,44.7750041 7.83164863,45.1669079 C8.02743984,45.3628597 8.32112667,45.4608357 8.51691788,45.4608357 C8.7127091,45.4608357 9.00639592,45.3628597 9.20218714,45.1669079 L11.5516817,42.8154853 C11.9432642,42.4235816 11.9432642,41.8357259 11.5516817,41.4438222 C11.1600993,41.0519184 10.47483,41.0519184 10.1811432,41.4438222 Z" id="Shape" fill="url(#linearGradient-1)"></path>
                    <path d="M9.00639592,38.9944237 C8.61481349,38.6025199 8.02743984,38.6025199 7.63585741,38.9944237 L4.30740675,42.3256056 C3.91582431,42.7175094 3.91582431,43.305365 4.30740675,43.6972688 C4.50319796,43.8932207 4.79688478,43.9911966 4.992676,43.9911966 C5.18846722,43.9911966 5.48215404,43.8932207 5.67794526,43.6972688 L9.00639592,40.3660869 C9.39797835,39.9741831 9.39797835,39.2883515 9.00639592,38.9944237 Z" id="Shape" fill="url(#linearGradient-1)"></path>
                    <path d="M6.55900573,37.8187124 C6.95058816,37.4268087 6.95058816,36.838953 6.55900573,36.4470493 C6.16742329,36.0551455 5.58004965,36.0551455 5.18846722,36.4470493 L2.83897263,38.7984718 C2.4473902,39.1903756 2.4473902,39.7782312 2.83897263,40.170135 C3.03476384,40.3660869 3.32845067,40.4640628 3.52424188,40.4640628 C3.7200331,40.4640628 4.01371992,40.3660869 4.20951114,40.170135 L6.55900573,37.8187124 Z" id="Shape" fill="url(#linearGradient-1)"></path>
                    <path d="M35.1445232,6.76033979 C33.5781935,6.76033979 32.0118638,7.34819542 30.8371165,8.52390669 C29.6623692,9.69961796 29.0749955,11.169257 29.0749955,12.834848 C29.0749955,14.500439 29.6623692,15.9700781 30.8371165,17.1457893 C32.0118638,18.3215006 33.4802979,18.9093562 35.1445232,18.9093562 C36.7108529,18.9093562 38.2771827,18.3215006 39.45193,17.1457893 C41.8014246,14.7943668 41.8014246,10.9733052 39.45193,8.62188263 C38.2771827,7.34819542 36.8087486,6.76033979 35.1445232,6.76033979 Z M38.0813915,15.6761502 C37.2982266,16.4599577 36.3192705,16.8518615 35.2424188,16.8518615 C34.1655671,16.8518615 33.0887155,16.4599577 32.4034462,15.6761502 C31.6202813,14.8923427 31.2286989,13.9125833 31.2286989,12.834848 C31.2286989,11.7571127 31.6202813,10.6793773 32.4034462,9.99354577 C33.1866111,9.20973826 34.1655671,8.81783451 35.2424188,8.81783451 C36.3192705,8.81783451 37.3961222,9.20973826 38.0813915,9.99354577 C39.6477212,11.4631849 39.6477212,14.1085352 38.0813915,15.6761502 Z" id="Shape" fill="url(#linearGradient-1)"></path>
                </g>
            </g>
        </g>
    </g>
</svg>