<?xml version="1.0" encoding="UTF-8"?>
<svg width="56px" height="53px" viewBox="0 0 56 53" version="1.1" xmlns="http://www.w3.org/2000/svg" xmlns:xlink="http://www.w3.org/1999/xlink">
    <!-- Generator: Sketch 50.2 (55047) - http://www.bohemiancoding.com/sketch -->
    <title>Page 1</title>
    <desc>Created with Sketch.</desc>
    <defs></defs>
    <g id="Mobile" stroke="none" stroke-width="1" fill="none" fill-rule="evenodd">
        <g id="iPhone-for-DEv" transform="translate(-39.000000, -6103.000000)">
            <g id="Group-35" transform="translate(-177.000000, 4876.000000)">
                <g id="SECTION:-Marketplace" transform="translate(69.000000, 61.000000)">
                    <g id="Group-26" transform="translate(130.000000, 709.000000)">
                        <g id="Group-13" transform="translate(0.000000, 443.000000)">
                            <g id="Group-20">
                                <g id="Group-38" transform="translate(1.000000, 0.000000)">
                                    <g id="Page-1" transform="translate(17.000000, 15.000000)">
                                        <path d="M8.05185148,19.7908645 L6.88996815,19.2932082 C6.72339727,19.707579 6.5578546,20.122978 6.47456915,20.4550916 L7.55419526,20.9527478 C7.71973793,20.538377 7.88630881,20.122978 8.05185148,19.7908645" id="Fill-1" fill="#FFFFFF" opacity="0.505264946"></path>
                                        <path d="M11.3721644,14.2292477 L10.4591092,13.3994779 C10.2102811,13.7315915 9.87816756,14.063705 9.62933945,14.3947904 L10.6246519,15.1423029 C10.8745082,14.8934748 11.1233363,14.5613613 11.3721644,14.2292477" id="Fill-3" fill="#FFFFFF" opacity="0.505264946"></path>
                                        <path d="M16.3527367,9.9957767 L15.6885096,8.91717881 C15.3563961,9.16600692 14.9420253,9.41483504 14.6099117,9.5803777 L15.3563961,10.5767184 C15.6052242,10.4111757 15.9373377,10.2446048 16.3527367,9.9957767" id="Fill-5" fill="#FFFFFF" opacity="0.505264946"></path>
                                        <path d="M5.47853696,30.7479384 L6.72370573,30.5823957 C6.64042029,30.1669967 6.64042029,29.7515977 6.55816306,29.4194842 L5.31299429,29.5027696 C5.39525151,29.9181686 5.39525151,30.3325394 5.47853696,30.7479384" id="Fill-7" fill="#FFFFFF" opacity="0.505264946"></path>
                                        <path d="M6.55764895,26.0994797 L5.31248018,26.0161942 C5.31248018,26.4315932 5.22919474,26.8469922 5.22919474,27.261363 L6.47436351,27.261363 C6.47436351,26.9292494 6.47436351,26.5148787 6.55764895,26.0994797" id="Fill-9" fill="#FFFFFF" opacity="0.505264946"></path>
                                        <path d="M9.46297421,16.8855392 L8.38437632,16.2213121 C8.13451999,16.5534257 7.96897732,16.9688246 7.72014921,17.3009382 L8.7987471,17.8818799 C9.04757521,17.5497663 9.29743154,17.2176528 9.46297421,16.8855392" id="Fill-11" fill="#FFFFFF" opacity="0.505264946"></path>
                                        <path d="M13.6964452,11.9049669 L12.8666754,10.9919117 C12.5345619,11.2407398 12.2024483,11.5728534 11.9536202,11.8216815 L12.78339,12.7347367 C13.1155035,12.4859086 13.3643317,12.153795 13.6964452,11.9049669" id="Fill-13" fill="#FFFFFF" opacity="0.505264946"></path>
                                        <path d="M7.05571646,22.8621437 L5.81054769,22.6133156 C5.72726225,23.0276863 5.64500502,23.4430853 5.56171958,23.8584843 L6.80688835,24.1073124 C6.89017379,23.6919134 6.97243102,23.2775427 7.05571646,22.8621437" id="Fill-15" fill="#FFFFFF" opacity="0.505264946"></path>
                                        <path d="M24.7365989,49.3419789 C25.1519979,49.4252643 25.5663687,49.4252643 25.9817677,49.4252643 L26.0650531,48.1800956 C25.6496541,48.1800956 25.2342551,48.0968101 24.8198844,48.0968101 L24.7365989,49.3419789 Z" id="Fill-17" fill="#FFFFFF" opacity="0.505264946"></path>
                                        <path d="M34.0336192,47.0176981 L34.4490182,48.1795814 C34.863389,48.0140388 35.278788,47.8474679 35.6109015,47.6819252 L35.1122171,46.5200419 C34.7811317,46.76887 34.4490182,46.9344127 34.0336192,47.0176981" id="Fill-19" fill="#FFFFFF" opacity="0.505264946"></path>
                                        <path d="M21.4992629,48.7609344 C21.9146619,48.8442198 22.3290327,48.9264771 22.7444317,49.0930479 L22.9932598,47.8478792 C22.5778608,47.7645937 22.16349,47.6823365 21.8313765,47.5990511 L21.4992629,48.7609344 Z" id="Fill-21" fill="#FFFFFF" opacity="0.505264946"></path>
                                        <path d="M18.4279837,47.6818224 C18.8433827,47.8473651 19.1754963,48.013936 19.5898671,48.1794786 L20.0052661,47.0175953 C19.5898671,46.8520526 19.2577535,46.7687672 18.8433827,46.6021963 L18.4279837,47.6818224 Z" id="Fill-23" fill="#FFFFFF" opacity="0.505264946"></path>
                                        <path d="M31.0453169,47.8477764 L31.2941451,49.0929451 C31.7095441,49.0096597 32.1239148,48.9263742 32.5393138,48.844117 L32.2072003,47.5989482 C31.8750867,47.6822337 31.4607159,47.7644909 31.0453169,47.8477764" id="Fill-25" fill="#FFFFFF" opacity="0.505264946"></path>
                                        <path d="M27.9739349,48.2628669 L28.0572204,49.5080357 C28.4715911,49.5080357 28.8869901,49.4247502 29.3023891,49.4247502 L29.2191037,48.1795814 C28.8037047,48.1795814 28.3893339,48.1795814 27.9739349,48.2628669" id="Fill-27" fill="#FFFFFF" opacity="0.505264946"></path>
                                        <path d="M42.2514246,11.739013 C41.9193111,11.4068994 41.5871975,11.1580713 41.3383694,10.9092432 L40.5085996,11.8222984 C40.8407132,12.0711265 41.0895413,12.3199546 41.4216548,12.6520682 L42.2514246,11.739013 Z" id="Fill-29" fill="#FFFFFF" opacity="0.505264946"></path>
                                        <path d="M39.5951331,9.58078899 C39.2630196,9.33196088 38.8476206,9.08313277 38.5165352,8.91656188 L37.8523081,9.99618799 C38.1844217,10.2450161 38.5165352,10.4105588 38.8476206,10.6604151 L39.5951331,9.58078899 Z" id="Fill-31" fill="#FFFFFF" opacity="0.505264946"></path>
                                        <path d="M46.6509524,20.7868967 L47.8128357,20.3714977 C47.6472931,19.9571269 47.4807222,19.5417279 47.3151795,19.2096143 L46.1532962,19.7082988 C46.4021243,20.0393841 46.567667,20.4547831 46.6509524,20.7868967" id="Fill-33" fill="#FFFFFF" opacity="0.505264946"></path>
                                        <path d="M44.5757054,14.3122247 C44.3268773,13.9801111 44.0780492,13.6479976 43.7459356,13.315884 L42.8328804,14.146682 C43.0817085,14.4777674 43.3305366,14.7276237 43.5793647,15.0597372 L44.5757054,14.3122247 Z" id="Fill-35" fill="#FFFFFF" opacity="0.505264946"></path>
                                        <path d="M46.4848956,17.2175499 C46.319353,16.8021509 46.0694966,16.4700374 45.8206685,16.1389521 L44.7420706,16.8021509 C44.9908987,17.1342645 45.1564414,17.4663781 45.3230123,17.881777 L46.4848956,17.2175499 Z" id="Fill-37" fill="#FFFFFF" opacity="0.505264946"></path>
                                        <path d="M47.8130414,27.1785917 L49.0582101,27.1785917 C49.0582101,26.7631927 49.0582101,26.3488219 48.9749247,25.9334229 L47.7297559,26.0167083 C47.7297559,26.3488219 47.8130414,26.7631927 47.8130414,27.1785917" id="Fill-39" fill="#FFFFFF" opacity="0.505264946"></path>
                                        <path d="M47.5640076,30.4159276 L48.8091764,30.5814703 C48.8924618,30.1670995 48.8924618,29.7517005 48.9747191,29.3373298 L47.7295503,29.2540443 C47.7295503,29.6684151 47.6472931,30.0838141 47.5640076,30.4159276" id="Fill-41" fill="#FFFFFF" opacity="0.505264946"></path>
                                        <path d="M47.4810306,23.9412557 L48.7261994,23.6924276 C48.642914,23.2770286 48.5596285,22.8626578 48.4773713,22.4472588 L47.2322025,22.6960869 C47.315488,23.1937431 47.3977452,23.5258567 47.4810306,23.9412557" id="Fill-43" fill="#FFFFFF" opacity="0.505264946"></path>
                                        <g id="Group-51" transform="translate(17.479661, 0.121516)">
                                            <path d="M9.66429877,0.411080492 C4.43479557,0.411080492 0.201633028,4.64424303 0.201633028,9.87374624 C0.201633028,15.1042777 4.43479557,19.3374402 9.66429877,19.3374402 C14.893802,19.3374402 19.1269645,15.1042777 19.1269645,9.87374624 C19.1269645,4.64424303 14.893802,0.411080492 9.66429877,0.411080492" id="Path" stroke="#FFFFFF" stroke-width="1.5"></path>
                                            <path d="M15.8068572,15.2698203 L15.8068572,14.4400505 C15.8068572,12.2818266 13.9807468,10.4557161 11.8225228,10.4557161 L11.4904092,10.4557161 L9.82984144,13.6092526 L9.58101333,13.6092526 L7.92147378,10.4557161 L7.58936022,10.4557161 C5.43113623,10.4557161 3.60502579,12.2818266 3.60502579,14.4400505 L3.60502579,15.2698203 C2.27657158,13.7758234 1.52905903,11.8664276 1.52905903,9.79148901 C1.52905903,5.22621291 5.1812799,1.57296382 9.74758421,1.57296382 C14.3128603,1.57296382 17.9650812,5.22621291 17.9650812,9.79148901 C17.8817957,11.949713 17.1353114,13.8591089 15.8068572,15.2698203" id="Path"></path>
                                            <path d="M4.76690912,17.4225293 L4.76690912,15.4308762 C4.76690912,14.0191366 5.84550701,12.8572532 7.17396123,12.6917106 L8.83452899,15.7629898 L10.577354,15.7629898 L12.2379218,12.6917106 C13.5653478,12.8572532 14.6449739,14.0191366 14.6449739,15.4308762 L14.6449739,17.4225293 C13.2332342,18.41887 11.5736947,19.0830971 9.74758421,19.0830971 C7.92147378,19.0830971 6.17762056,18.5021554 4.76690912,17.4225293" id="Path" stroke="#FFFFFF"></path>
                                        </g>
                                        <path d="M27.1438567,8.9997445 C26.147516,8.9997445 25.3177462,8.16997473 25.3177462,7.17363407 C25.3177462,6.1772934 26.147516,5.34752363 27.1438567,5.34752363 C28.1401973,5.34752363 28.9699671,6.1772934 28.9699671,7.17363407 C28.9699671,8.16997473 28.1401973,8.9997445 27.1438567,8.9997445 M27.1438567,4.10235486 C25.4832889,4.10235486 24.0725775,5.5130663 24.0725775,7.17363407 C24.0725775,8.83420183 25.4832889,10.2449133 27.1438567,10.2449133 C28.8044244,10.2449133 30.2151359,8.83420183 30.2151359,7.17363407 C30.2151359,5.5130663 28.8044244,4.10235486 27.1438567,4.10235486" id="Fill-52" fill="#FFFFFF"></path>
                                        <path d="M9.46307703,31.5776053 C4.23357383,31.5776053 0.000411286135,35.8117961 0.000411286135,41.0412993 C0.000411286135,46.2708025 4.23357383,50.503965 9.46307703,50.503965 C14.6925802,50.503965 18.9257428,46.2708025 18.9257428,41.0412993 C18.9257428,35.8117961 14.6925802,31.5776053 9.46307703,31.5776053" id="Path" stroke="#FFFFFF" stroke-width="1.5"></path>
                                        <path d="M15.6056355,46.5196306 L15.6056355,45.6898608 C15.6056355,43.5316368 13.779525,41.7055264 11.621301,41.7055264 L11.2891875,41.7055264 L9.6286197,44.8590628 L9.29650615,44.8590628 L7.63696659,41.7055264 L7.30485304,41.7055264 C5.14662905,41.7055264 3.32051861,43.5316368 3.32051861,45.6898608 L3.32051861,46.5196306 C1.99206439,45.0256337 1.24558006,43.1162378 1.24558006,41.0412993 C1.24558006,36.4760232 4.89780093,32.8227741 9.46307703,32.8227741 C14.0283531,32.8227741 17.680574,36.4760232 17.680574,41.0412993 C17.680574,43.1995233 16.8508042,45.1089192 15.6056355,46.5196306" id="Fill-54"></path>
                                        <path d="M4.07027454,48.6723396 L4.07027454,46.6806865 C4.07027454,45.2689469 5.14887243,44.1070635 6.47732664,43.9415209 L8.13789441,47.0128001 L9.8807194,47.0128001 L11.5412872,43.9415209 C12.8687132,44.1070635 13.9483393,45.2689469 13.9483393,46.6806865 L13.9483393,48.6723396 C12.5365996,49.6686803 10.8770601,50.3329074 9.05094963,50.3329074 C7.14155375,50.2496219 5.39770054,49.6686803 4.07027454,48.6723396" id="Path" stroke="#FFFFFF"></path>
                                        <path d="M9.46297421,40.1279356 C8.46663355,40.1279356 7.63686377,39.2981658 7.63686377,38.3018252 C7.63686377,37.3054845 8.46663355,36.4757147 9.46297421,36.4757147 C10.4593149,36.4757147 11.2890846,37.3054845 11.2890846,38.3018252 C11.2890846,39.2981658 10.4593149,40.1279356 9.46297421,40.1279356 M9.46297421,35.230546 C7.80240644,35.230546 6.391695,36.6412574 6.391695,38.3018252 C6.391695,40.0446502 7.80240644,41.3731044 9.46297421,41.3731044 C11.123542,41.3731044 12.5342534,39.9623929 12.5342534,38.3018252 C12.5342534,36.5590002 11.123542,35.230546 9.46297421,35.230546" id="Fill-56" fill="#FFFFFF"></path>
                                        <path d="M44.4219872,31.3792626 C39.192484,31.3792626 34.9593214,35.6134533 34.9593214,40.8429566 C34.9593214,46.0724598 39.192484,50.3056223 44.4219872,50.3056223 C49.6514904,50.3056223 53.8846529,46.0724598 53.8846529,40.8429566 C53.8846529,35.6134533 49.6514904,31.3792626 44.4219872,31.3792626" id="Path" stroke="#FFFFFF" stroke-width="1.5"></path>
                                        <path d="M39.5675956,48.4112757 L39.5675956,46.4196226 C39.5675956,45.007883 40.6461935,43.8459997 41.9746477,43.680457 L43.6352155,46.7517362 L45.3780405,46.7517362 L47.0386083,43.680457 C48.3660343,43.8459997 49.4456604,45.007883 49.4456604,46.4196226 L49.4456604,48.4112757 C48.0339207,49.4076164 46.3743812,50.0718435 44.5482707,50.0718435 C42.6388748,49.9885581 40.8950216,49.4076164 39.5675956,48.4112757" id="Path" stroke="#FFFFFF"></path>
                                        <path d="M44.1998927,40.3895136 C43.203552,40.3895136 42.3737822,39.5597438 42.3737822,38.5634032 C42.3737822,37.5670625 43.203552,36.7372927 44.1998927,36.7372927 C45.1962333,36.7372927 46.0260031,37.5670625 46.0260031,38.5634032 C46.0260031,39.5597438 45.1962333,40.3895136 44.1998927,40.3895136 M44.1998927,35.4921239 C42.5393249,35.4921239 41.1286135,36.9028354 41.1286135,38.5634032 C41.1286135,40.3062281 42.5393249,41.6346824 44.1998927,41.6346824 C45.8604604,41.6346824 47.2711719,40.2239709 47.2711719,38.5634032 C47.2711719,36.8205782 45.8604604,35.4921239 44.1998927,35.4921239" id="Fill-56" fill="#FFFFFF"></path>
                                    </g>
                                </g>
                            </g>
                        </g>
                    </g>
                </g>
            </g>
        </g>
    </g>
</svg>