<?xml version="1.0" encoding="UTF-8"?>
<svg width="16px" height="13px" viewBox="0 0 16 13" version="1.1" xmlns="http://www.w3.org/2000/svg" xmlns:xlink="http://www.w3.org/1999/xlink">
    <!-- Generator: Sketch 48.2 (47327) - http://www.bohemiancoding.com/sketch -->
    <title></title>
    <desc>Created with Sketch.</desc>
    <defs>
        <linearGradient x1="100%" y1="159.249906%" x2="0%" y2="-57.9124579%" id="linearGradient-1">
            <stop stop-color="#1490E0" offset="0%"></stop>
            <stop stop-color="#20F0FF" offset="100%"></stop>
        </linearGradient>
    </defs>
    <g id="Mobile" stroke="none" stroke-width="1" fill="none" fill-rule="evenodd" transform="translate(-33.000000, -1420.000000)">
        <g id="Background" transform="translate(-448.000000, -1.000000)" fill="url(#linearGradient-1)">
            <g id="Group-39" transform="translate(476.000000, 1007.000000)">
                <g id="Group-13">
                    <g id="POC" transform="translate(2.000000, 296.000000)">
                        <g id="Group-6" transform="translate(2.000000, 113.000000)">
                            <g id="email-signup">
                                <g id="Group-7">
                                    <g id="Group-5">
                                        <g id="Group-8">
                                            <path d="M16.7845982,8.25669643 C16.7845982,8.52455491 16.6908492,8.75223121 16.5033482,8.93973214 L7.86495536,17.578125 C7.67745442,17.7656259 7.44977813,17.859375 7.18191964,17.859375 C6.91406116,17.859375 6.68638487,17.7656259 6.49888393,17.578125 L1.49665179,12.5758929 C1.30915085,12.3883919 1.21540179,12.1607156 1.21540179,11.8928571 C1.21540179,11.6249987 1.30915085,11.3973224 1.49665179,11.2098214 L2.86272321,9.84375 C3.05022415,9.65624906 3.27790045,9.5625 3.54575893,9.5625 C3.81361741,9.5625 4.04129371,9.65624906 4.22879464,9.84375 L7.18191964,12.8069196 L13.7712054,6.20758929 C13.9587063,6.02008835 14.1863826,5.92633929 14.4542411,5.92633929 C14.7220996,5.92633929 14.9497758,6.02008835 15.1372768,6.20758929 L16.5033482,7.57366071 C16.6908492,7.76116165 16.7845982,7.98883795 16.7845982,8.25669643 Z" id=""></path>
                                        </g>
                                    </g>
                                </g>
                            </g>
                        </g>
                    </g>
                </g>
            </g>
        </g>
    </g>
</svg>