<?xml version="1.0" encoding="UTF-8"?>
<svg width="145px" height="42px" viewBox="0 0 145 42" version="1.1" xmlns="http://www.w3.org/2000/svg" xmlns:xlink="http://www.w3.org/1999/xlink">
    <!-- Generator: Sketch 48.2 (47327) - http://www.bohemiancoding.com/sketch -->
    <title>logo</title>
    <desc>Created with Sketch.</desc>
    <defs>
        <linearGradient x1="-43.6290923%" y1="279.678199%" x2="138.384739%" y2="-6.7027014%" id="linearGradient-1">
            <stop stop-color="#2B37EE" offset="0%"></stop>
            <stop stop-color="#00D7ED" offset="100%"></stop>
        </linearGradient>
    </defs>
    <g id="alternate-3" stroke="none" stroke-width="1" fill="none" fill-rule="evenodd" transform="translate(-151.000000, -119.000000)">
        <g id="logo" transform="translate(151.000000, 119.000000)" fill-rule="nonzero">
            <path d="M16.5750496,0 C7.42090247,-5.60529848e-16 1.1210597e-15,7.42090247 0,16.5750496 L0,42 L25.4249504,42 C34.5790975,42 42,34.5790975 42,25.4249504 L42,0 L16.5750496,0 Z M23.7725369,34.2794798 L8.72029976,34.2794798 L8.72029976,33.4741018 C8.72285185,30.512396 11.123152,28.1120958 14.0848578,28.1095438 L22.1802953,28.1095438 C22.337434,28.1043991 22.4931451,28.0779282 22.6431563,28.0308574 L22.7310998,28.0308574 C22.8878126,28.004786 23.0424854,27.9676645 23.1939608,27.9197708 L23.3050474,27.8873705 C23.4485343,27.8364558 23.5318492,27.8133128 23.6105356,27.7762839 C25.2333414,27.1091254 26.2816169,25.5157942 26.2519517,23.7614513 C26.2222864,22.0071083 25.1207403,20.4501298 23.4763059,19.8382191 L19.3105576,18.2737492 L23.7725369,18.2737492 C26.6817369,18.2038304 29.4003763,19.7158971 30.8755352,22.2243307 C32.3506941,24.7327644 32.3506941,27.8436077 30.8755352,30.3520413 C29.4003763,32.860475 26.6817369,34.3725416 23.7725369,34.3026229 L23.7725369,34.2794798 Z M33.2797002,8.52589817 C33.2745981,11.4857963 30.8750436,13.8832804 27.9151422,13.8858276 L19.8197047,13.8858276 C19.6626002,13.8913093 19.506934,13.9177725 19.3568437,13.964514 C19.178332,13.998221 19.0021013,14.0430516 18.8291823,14.0987437 L18.713467,14.1357725 C18.5699802,14.1820586 18.4912938,14.2098303 18.4126074,14.2422305 C16.7842782,14.9013567 15.7270011,16.4918426 15.7495207,18.2483721 C15.7720403,20.0049017 16.8697449,21.5677596 18.5144369,22.184924 L22.6801851,23.7493939 L18.2367203,23.7493939 C15.3275203,23.8193126 12.6088809,22.307246 11.133722,19.7988123 C9.65856308,17.2903787 9.65856308,14.1795354 11.133722,11.6711017 C12.6088809,9.16266805 15.3275203,7.65060141 18.2367203,7.72052017 L33.2797002,7.72052017 L33.2797002,8.52589817 Z" id="Shape" fill="url(#linearGradient-1)"></path>
            <rect id="Rectangle-path" fill="#FFFFFF" x="76" y="14" width="3" height="15"></rect>
            <path d="M122.119196,20.9993987 C122.585749,20.4102187 122.884722,19.7059564 122.984573,18.960914 C123.147815,17.7088833 122.764725,16.4471082 121.933045,15.4975163 C121.101364,14.5479244 119.901527,14.0023535 118.639658,14 L111,14 L111,29 L119.870116,29 C121.262647,28.9400669 122.54399,28.22201 123.322611,27.0652435 C124.67927,24.6434155 123.854457,22.2351173 122.119196,20.9993987 Z M113.555567,16.5616356 L118.626137,16.5616356 C119.631791,16.5616356 120.447035,17.3773766 120.447035,18.383644 C120.447035,19.3899115 119.631791,20.2056524 118.626137,20.2056524 L113.564581,20.2056524 L113.555567,16.5616356 Z M119.6087,26.4158148 L113.564581,26.4158148 L113.564581,22.771798 L119.617715,22.771798 C120.623369,22.771798 121.438613,23.5875389 121.438613,24.5938064 C121.438613,25.6000738 120.623369,26.4158148 119.617715,26.4158148 L119.6087,26.4158148 Z" id="Shape" fill="#FFFFFF"></path>
            <path d="M137.058462,13 L129,29 L131.955861,29 L133.068986,26.7923251 L140.959076,26.7923251 L142.053493,29 L145,29 L137.058462,13 Z M134.359836,24.2099323 L137.039754,18.8961625 L139.682257,24.2099323 L134.359836,24.2099323 Z" id="Shape" fill="#FFFFFF"></path>
            <path d="M102.683584,14 L95.9720352,24.8714919 L89.3303988,14 L87,14 L87,30 L89.7219057,30 L89.7219057,19.8186115 L95.3707923,29.016839 C95.4987288,29.2232797 95.7222875,29.3485682 95.9627136,29.3485682 C96.2031398,29.3485682 96.4266985,29.2232797 96.5546349,29.016839 L102.278094,19.8091581 L102.278094,30 L105,30 L105,14 L102.669601,14 L102.683584,14 Z" id="Shape" fill="#FFFFFF"></path>
            <path d="M67.4988405,20.5642118 L60.9285397,19.6512477 C60.1190171,19.5428139 59.5331514,18.8209339 59.590911,18.0030758 C59.6486706,17.1852176 60.3301282,16.5535459 61.1467919,16.5608643 L67.2032907,16.5608643 C68.6120711,16.5608643 69.7541134,15.4143263 69.7541134,14 L61.142245,14 C59.95799,14.0003661 58.8319646,14.515763 58.0550327,15.4130583 C57.2781009,16.3103536 56.9264585,17.5015469 57.0909384,18.678941 C57.4122493,20.5292756 58.9029886,21.9498476 60.7603037,22.1755934 L67.125993,23.0885575 C67.8882772,23.1993393 68.4549257,23.8536475 68.4582409,24.626902 L68.4582409,24.8734023 C68.4618884,25.2881887 68.2999977,25.6871812 68.0086936,25.9813473 C67.7173895,26.2755134 67.3209151,26.4403719 66.9077408,26.4391357 L59.5508227,26.4391357 C58.1420422,26.4391357 57,27.5856737 57,29 L66.9077408,29 C69.1678164,29 70.9999697,27.1606342 70.9999697,24.8916616 L70.9999697,24.6451613 C71.0077524,22.599455 69.5151727,20.8596899 67.4988405,20.5642118 Z" id="Shape" fill="#FFFFFF"></path>
        </g>
    </g>
</svg>