<svg xmlns="http://www.w3.org/2000/svg" viewBox="0 0 587 313.25"><defs><style>.cls-1{fill:#314057;fill-rule:evenodd;}</style></defs><title>Asset 1pattern</title><g id="Layer_2" data-name="Layer 2"><g id="Isolation_Mode" data-name="Isolation Mode"><path class="cls-1" d="M1.52,268.61c2.25-3.9,4.53-7.79,6.73-11.71a1.71,1.71,0,0,1,1.76-1c4.5,0,9,0,13.52,0H24.7v-1.11H23.42c-4.43,0-8.86,0-13.29,0a1.94,1.94,0,0,1-2-1.18C6,249.78,3.7,245.92,1.47,242.05c-.2-.35-.42-.69-.58-1l-.89.29v.89a6.85,6.85,0,0,1,.77.91c1.58,2.7,3.13,5.4,4.69,8.11l2.32,4a3.15,3.15,0,0,1-.15.36q-3.51,6.09-7,12.17a3.2,3.2,0,0,1-.61.6v.9l.9.32ZM8.42,255c.17,0,.35.14.64.28-.24.21-.4.43-.53.42s-.3-.23-.45-.35C8.19,255.25,8.3,255,8.42,255Z"/><path class="cls-1" d="M1.52,189.64c2.25-3.9,4.53-7.79,6.73-11.71a1.71,1.71,0,0,1,1.76-1c4.5,0,9,0,13.51,0H24.7v-1.11H23.42c-4.39,0-8.79,0-13.18,0-1.74,0-1.26.23-2.12-1.26-2.21-3.79-4.4-7.6-6.59-11.41-.22-.38-.45-.76-.63-1.06l-.89.29v.9a6.83,6.83,0,0,1,.77.91c1.56,2.66,3.1,5.34,4.64,8l2.38,4.12a3.12,3.12,0,0,1-.15.36q-3.51,6.09-7,12.17a3.19,3.19,0,0,1-.61.6v.89l.9.31Zm7.06-13.59c.1,0,.34.26.31.35s-.23.3-.43.52c-.16-.25-.38-.45-.34-.56A.64.64,0,0,1,8.58,176.05Z"/><path class="cls-1" d="M1.47,110.77C3.74,106.84,6,102.92,8.25,99A1.71,1.71,0,0,1,10,98c4.5,0,9,0,13.51,0H24.7V96.88H23.42c-4.39,0-8.79,0-13.18,0-1.73,0-1.26.23-2.12-1.26C5.88,91.8,3.68,88,1.47,84.12c-.2-.35-.42-.69-.58-1L0,83.44v.89a6.85,6.85,0,0,1,.77.91c1.52,2.6,3,5.21,4.53,7.82l2.49,4.32a3.14,3.14,0,0,1-.15.36q-3.51,6.09-7,12.17a3.25,3.25,0,0,1-.61.6v.89l.9.31C1.08,111.41,1.28,111.09,1.47,110.77Zm7-13.69c.17,0,.34.16.63.31-.26.19-.42.41-.56.4s-.28-.24-.43-.37C8.2,97.3,8.32,97.08,8.44,97.08Z"/><path class="cls-1" d="M1.46,150.27c2.31-4,4.63-8,6.92-12a1.3,1.3,0,0,1,1.32-.77c1.49,0,3,0,4.47,0H24.23a3,3,0,0,0,.49-.08v-1.05H23.36c-4.47,0-8.94,0-13.41,0a1.65,1.65,0,0,1-1.67-.95c-2.28-4-4.6-8-6.91-12-.16-.28-.35-.55-.51-.8L0,123v.9c.54,0,.6.51.79.83q3.31,5.69,6.59,11.4c.15.25.27.52.38.76a3.38,3.38,0,0,1-.15.36q-3.48,6-7,12.08a5.52,5.52,0,0,1-.64.75v.67l.87.46C1.07,150.9,1.27,150.59,1.46,150.27Zm7.06-13.73c.15,0,.26.26.39.41-.15.13-.29.35-.44.35s-.3-.22-.53-.41C8.2,136.73,8.38,136.52,8.52,136.54Z"/><path class="cls-1" d="M1.34,229.43c2.35-4.06,4.71-8.12,7-12.2a1.3,1.3,0,0,1,1.32-.77c1.41,0,2.83,0,4.25,0H24.22a3,3,0,0,0,.49-.08v-1.05H23.36c-4.47,0-8.94,0-13.41,0a1.65,1.65,0,0,1-1.67-.95c-2.28-4-4.6-8-6.91-12-.16-.28-.35-.55-.51-.8L0,202v.9c.54,0,.6.51.79.83q3.31,5.69,6.59,11.4c.15.25.27.52.38.76a3.4,3.4,0,0,1-.15.36q-3.48,6-7,12.08a5.49,5.49,0,0,1-.64.75v.67l.87.46C1,229.94,1.19,229.69,1.34,229.43Zm7.14-13.92c.14,0,.32.18.57.35-.23.19-.38.41-.53.41s-.29-.23-.44-.35C8.21,215.78,8.33,215.54,8.48,215.51Z"/><path class="cls-1" d="M24.72,295.36v-1.05H23.37c-4.47,0-8.94,0-13.42,0a1.65,1.65,0,0,1-1.67-.95c-2.28-4-4.6-8-6.91-12-.16-.28-.35-.55-.51-.8L0,281v.9c.54,0,.6.51.79.83q3.31,5.69,6.59,11.4c.15.25.27.52.39.76a3.54,3.54,0,0,1-.15.36q-3.48,6-7,12.08A5.52,5.52,0,0,1,0,308v.67l.87.46c.16-.27.32-.52.47-.77,2.35-4.06,4.71-8.12,7-12.2a1.28,1.28,0,0,1,1.32-.77c1,0,2,0,3,0H24.22A3,3,0,0,0,24.72,295.36Zm-16.19-.12c-.15,0-.29-.22-.44-.35.13-.14.25-.38.4-.41s.32.18.57.35C8.82,295,8.67,295.25,8.53,295.24Z"/><path class="cls-1" d="M1.46,71.3c2.31-4,4.63-8,6.92-12a1.3,1.3,0,0,1,1.32-.77c1.41,0,2.83,0,4.25,0H24.22a3,3,0,0,0,.49-.08V57.4H23.37c-4.47,0-8.94,0-13.42,0a1.65,1.65,0,0,1-1.67-.95c-2.28-4-4.6-8-6.91-12-.16-.28-.35-.55-.51-.8L0,44.07V45c.54,0,.6.51.79.83q3.34,5.74,6.64,11.5c.13.22.23.46.33.66a3.32,3.32,0,0,1-.15.35q-3.48,6-7,12.08a5.61,5.61,0,0,1-.64.75v.67l.87.46C1.07,71.94,1.27,71.62,1.46,71.3Zm7-13.72a.54.54,0,0,1,.41.36c0,.14-.18.31-.35.56-.2-.22-.43-.37-.42-.51A.55.55,0,0,1,8.48,57.58Z"/><path class="cls-1" d="M1.41,31.9c2.22-3.84,4.42-7.68,6.65-11.51C9,18.76,8.51,19,10.47,19c1.79,0,3.58,0,5.36,0h8.6a1.19,1.19,0,0,0,.32-.1L24.69,18H23.35c-4.47,0-8.94,0-13.41,0a1.65,1.65,0,0,1-1.67-1c-2.28-4-4.6-8-6.91-12C1.2,4.81,1,4.54.85,4.29L0,4.7v.89c.54,0,.6.51.79.83Q3.6,11.25,6.38,16.1l1.37,2.37a3.36,3.36,0,0,1-.15.38q-3.49,6.05-7,12.1a3.21,3.21,0,0,1-.61.6v.9l.9.31C1.07,32.47,1.24,32.19,1.41,31.9ZM8.48,18.2c.13,0,.29.12.54.24-.2.19-.34.41-.43.39s-.33-.2-.49-.31C8.22,18.4,8.34,18.22,8.48,18.2Z"/><path class="cls-1" d="M97,12.59,89.71,0H88.36L96,13.21Z"/><path class="cls-1" d="M233.88,12.6,226.61,0h-1.34l7.63,13.21Z"/><path class="cls-1" d="M111.18,0h-1.34l-7.27,12.6,1,.58Z"/><path class="cls-1" d="M165.42,12.6,158.16,0h-1.34l7.63,13.21Z"/><path class="cls-1" d="M179.64,0h-1.34L171,12.6l1,.58Z"/><path class="cls-1" d="M42.73,0H41.39L34.12,12.6l1,.58Z"/><path class="cls-1" d="M28.51,12.6,21.25,0H19.91l7.63,13.21Z"/><path class="cls-1" d="M248.09,0h-1.34l-7.27,12.6,1,.58Z"/><path class="cls-1" d="M22.69,308.63c-.87,1.51-1.71,3-2.56,4.56h1.34c.18-.36.35-.73.55-1.08l5.91-10.23c.2-.35.38-.7.57-1.05l-1-.55C25.89,303.1,24.28,305.86,22.69,308.63Z"/><path class="cls-1" d="M35.65,301.2c-.18-.32-.38-.63-.57-.94l-1,.61,6,10.47c.35.61.66,1.24,1,1.86H42.5c-.17-.33-.31-.67-.5-1Z"/><path class="cls-1" d="M91.09,308.73c-.85,1.48-1.67,3-2.5,4.46h1.34c.16-.33.31-.67.5-1l6-10.33c.2-.35.38-.7.58-1.05l-1-.55C94.32,303.13,92.7,305.92,91.09,308.73Z"/><path class="cls-1" d="M104.11,301.2c-.18-.32-.38-.63-.57-.94l-.95.6c.23.4.42.76.63,1.11l5.74,9.94c.24.42.44.85.66,1.28H111c-.17-.33-.31-.67-.5-1Z"/><path class="cls-1" d="M159.6,308.63c-.87,1.51-1.71,3-2.56,4.56h1.34c.18-.36.35-.73.55-1.08l5.91-10.23c.2-.35.38-.7.57-1.05l-1-.55C162.79,303.1,161.19,305.86,159.6,308.63Z"/><path class="cls-1" d="M172.56,301.2c-.18-.32-.38-.63-.57-.94l-1,.61,6,10.47c.35.61.66,1.24,1,1.86h1.34c-.17-.33-.31-.67-.5-1Z"/><path class="cls-1" d="M228,308.73c-.85,1.48-1.67,3-2.51,4.46h1.34c.16-.33.31-.67.49-1l6-10.33c.2-.35.38-.7.57-1.05l-1-.55C231.23,303.13,229.61,305.92,228,308.73Z"/><path class="cls-1" d="M241,301.2c-.18-.32-.38-.63-.57-.94l-.95.6c.23.4.42.76.63,1.11l5.74,9.94c.24.42.44.85.66,1.28h1.34c-.17-.33-.31-.67-.5-1Z"/><path class="cls-1" d="M301.34,300.27c-1.63,2.82-3.24,5.59-4.83,8.36-.87,1.51-1.71,3-2.56,4.56h0l0,.06h1.34c.18-.36.35-.73.55-1.08l5.91-10.23c.2-.35.38-.7.57-1.05h0l0-.05Z"/><path class="cls-1" d="M308,12.61l0,.06,1,.58L316.54.06H315.2l-3.34,5.8-3.93,6.72Z"/><path class="cls-1" d="M95.36,24.93C93.18,28.7,91,32.49,88.82,36.25c-1,1.65-.43,1.36-2.4,1.37-4.62,0-9.24,0-13.86,0a2.49,2.49,0,0,0-.4.06v1.1h1.27c4.43,0,8.87,0,13.3,0a2,2,0,0,1,2,1.18c2.08,3.7,4.22,7.37,6.35,11L96,52.56,97,52,89,38.22l8-13.8-1-.55C95.78,24.23,95.57,24.58,95.36,24.93Zm-7,13.72c-.15-.13-.39-.25-.42-.4s.19-.32.35-.58c.21.23.44.38.44.53S88.52,38.49,88.39,38.65Z"/><path class="cls-1" d="M232.17,25.11c-2.24,3.87-4.49,7.73-6.69,11.62a1.56,1.56,0,0,1-1.58.91c-4.55,0-9.09,0-13.64,0h-1.21V38.8h1.37c4.47,0,8.94,0,13.42,0a1.65,1.65,0,0,1,1.66,1c2.28,4,4.6,8,6.91,12,.16.28.35.53.52.8l.93-.59-7.93-13.75,8-13.79-1-.56ZM225.3,38.62a.56.56,0,0,1-.42-.37c0-.13.22-.39.37-.41s.33.18.59.35C225.6,38.38,225.45,38.62,225.3,38.62Z"/><path class="cls-1" d="M198.66,241l-8,13.77H174.83v1.11h1.22c4.51,0,9,0,13.53,0a1.64,1.64,0,0,1,1.67.94c2.24,4,4.53,7.89,6.8,11.82.2.35.42.69.63,1l1-.61-7.92-13.73,7.93-13.76ZM191,255.73c-.09,0-.33-.26-.3-.36s.24-.29.44-.52c.16.25.37.45.33.57A.64.64,0,0,1,191,255.73Z"/><path class="cls-1" d="M103.55,181.79l-1,.6,7.94,13.77-7.93,13.75,1,.57c.2-.32.38-.6.54-.89,2.29-4,4.6-7.93,6.86-11.92a1.65,1.65,0,0,1,1.67-1c4.47,0,8.94,0,13.42,0h1.33v-1.19H111.5Zm7.6,14.8c-.13-.15-.37-.3-.37-.45s.23-.3.43-.53c.17.26.38.44.36.57S111.3,196.45,111.16,196.58Z"/><path class="cls-1" d="M240.45,181.77l-1,.62,7.94,13.76-7.93,13.74,1,.61c.22-.36.39-.64.56-.93,2.24-3.87,4.5-7.73,6.68-11.63a2.12,2.12,0,0,1,2.19-1.24c4.36.07,8.72,0,13.08,0h1.34v-1.17H248.42Zm7.62,14.78c-.15,0-.27-.27-.41-.42.15-.13.3-.35.45-.36s.3.22.54.41C248.39,196.36,248.21,196.57,248.07,196.55Z"/><path class="cls-1" d="M53.79,254.82H37.92v1.11h1.26c4.51,0,9,0,13.53,0a1.64,1.64,0,0,1,1.66,1c2.24,4,4.53,7.89,6.8,11.82.2.35.42.68.63,1l.95-.61-7.92-13.74,7.94-13.76-1-.58Zm.31,1.07c-.17-.25-.34-.4-.36-.57s.25-.33.34-.31.31.23.46.35Z"/><path class="cls-1" d="M35.08,210.49c.19-.3.37-.58.54-.87,2.29-4,4.61-7.92,6.85-11.92a1.71,1.71,0,0,1,1.76-1c2.87.05,5.74,0,8.61,0h5.7a1.59,1.59,0,0,0,.38-.1v-1.06H44.57a6.74,6.74,0,0,0-.78,0,1,1,0,0,1-1.13-.68c-.17-.37-.41-.71-.61-1.07l-6.76-11.71a1.92,1.92,0,0,0-.25-.29l-.91.57,7.94,13.77-7.94,13.76Zm7.63-14.72c.15,0,.33.18.58.35-.24.2-.39.44-.54.43s-.3-.24-.45-.37C42.44,196,42.56,195.79,42.71,195.77Z"/><path class="cls-1" d="M19.57,195.58H3.67l.05,1.16H5c4.4,0,8.79,0,13.19,0a2,2,0,0,1,2.08,1.23c2.19,3.9,4.45,7.75,6.69,11.63.18.32.38.62.57.94l1-.6-7.93-13.75,8-13.79-1-.55Zm.37,1.15c-.19-.24-.42-.39-.42-.54a.55.55,0,0,1,.37-.41.55.55,0,0,1,.42.36C20.32,196.29,20.11,196.46,19.94,196.72Z"/><path class="cls-1" d="M266.48,242.15c-2.27,3.94-4.56,7.87-6.8,11.82a1.47,1.47,0,0,1-1.49.87c-4.55,0-9.09,0-13.64,0h-1.26v1.11h1.22c4.47,0,8.95,0,13.42,0a1.8,1.8,0,0,1,1.85,1c2.21,3.93,4.49,7.82,6.74,11.73.2.35.42.7.63,1l1-.61-7.92-13.73,7.93-13.76-1-.57Zm-7,13.58c-.13,0-.26-.28-.3-.46s.27-.28.38-.26.3.22.55.42C259.77,255.58,259.58,255.76,259.43,255.73Z"/><path class="cls-1" d="M206.89,268.6c2.25-3.91,4.53-7.8,6.75-11.73a1.64,1.64,0,0,1,1.66-1c4.51,0,9,0,13.53,0h1.26v-1.11H214.21l-8-13.8-1,.62,7.92,13.73-7.93,13.75,1,.58Zm7-13.58c.09,0,.36.18.36.28s-.16.33-.25.49l-.28.17c-.09-.19-.25-.39-.23-.57S213.71,255.07,213.88,255Z"/><path class="cls-1" d="M138.44,268.6c2.25-3.91,4.53-7.8,6.75-11.73a1.64,1.64,0,0,1,1.66-1c4.51,0,9,0,13.53,0h1.25v-1.12H145.75l-8-13.8-1,.63,7.92,13.73-7.93,13.75,1,.57Zm7-13.73c.16.25.32.41.33.58s-.26.32-.35.3-.3-.23-.45-.36Z"/><path class="cls-1" d="M130.21,241.05l-8,13.78H106.37v1.1h1.24c4.51,0,9,0,13.53,0a1.64,1.64,0,0,1,1.67,1c2.24,4,4.53,7.89,6.8,11.82.2.35.42.69.63,1l1-.59-7.93-13.75,7.93-13.76Zm-7.62,14.68c-.15,0-.27-.25-.41-.39.12-.12.25-.33.36-.32s.34.17.62.33C122.9,255.54,122.73,255.74,122.59,255.73Z"/><path class="cls-1" d="M69.33,269.71c.23-.39.45-.74.65-1.1,2.25-3.9,4.53-7.8,6.75-11.73a1.65,1.65,0,0,1,1.66-1c4.51,0,9,0,13.53,0h1.26v-1.1H77.3l-8-13.8-1,.61,7.92,13.74-7.93,13.75ZM76.89,255c.17,0,.34.16.63.31-.26.19-.42.41-.56.4s-.28-.24-.42-.37C76.66,255.24,76.78,255,76.89,255Z"/><path class="cls-1" d="M274.38,189a4,4,0,0,1-.57.55V190l-.11.19.11.06v.21l.9.31.62-1c2.11-3.66,4.24-7.3,6.31-11l.21-.36.22-.38a1.71,1.71,0,0,1,1.76-1c4.5,0,9,0,13.51,0h1.17V177h0v-1.14H282.64l-8-13.77-.48.3-.39.13v.12l-.11.07.11.19v.52a6.83,6.83,0,0,1,.77.91c1.56,2.66,3.1,5.34,4.64,8l2.38,4.12-.07.18Zm8.31-12.59a.14.14,0,0,1,0,0,.15.15,0,0,1,0,0,.49.49,0,0,1-.06.09c-.08.09-.19.18-.24.17a1.18,1.18,0,0,1-.44-.3s0,0,0,0a.64.64,0,0,1,.46-.31c.06,0,.17.09.24.19A.46.46,0,0,1,282.69,176.4Z"/><path class="cls-1" d="M266.5,163.14c-2.27,3.94-4.56,7.87-6.8,11.82a1.56,1.56,0,0,1-1.57.91c-4.55,0-9.09,0-13.64,0h-1.19V177h1.28c4.51,0,9,0,13.53,0a1.56,1.56,0,0,1,1.59.9c2.26,4,4.57,7.95,6.86,11.92.2.34.41.67.61,1l1-.6-7.93-13.74,7.94-13.77-1-.55C266.92,162.44,266.71,162.79,266.5,163.14Zm-7.07,13.63c-.12,0-.23-.22-.35-.34.14-.13.28-.36.43-.37s.3.21.55.4C259.78,176.61,259.61,176.77,259.43,176.77Z"/><path class="cls-1" d="M206.22,190.75c.21-.34.43-.69.63-1,2.27-3.94,4.56-7.86,6.8-11.82a1.64,1.64,0,0,1,1.67-.95c4.51,0,9,0,13.53,0h1.23v-1.13H214.19l-8-13.79-1,.62,7.92,13.74-7.93,13.75Zm7.59-14.69c.17,0,.34.16.62.31-.25.19-.42.41-.56.4s-.28-.24-.42-.37C213.56,176.27,213.68,176.05,213.8,176.05Z"/><path class="cls-1" d="M190.7,175.86H174.83V177h1.25c4.51,0,9,0,13.53,0a1.64,1.64,0,0,1,1.67,1c2.24,4,4.53,7.89,6.8,11.82.2.35.42.69.63,1l1-.59-7.93-13.75,7.93-13.76-1-.57Zm.29.9c-.09,0-.35-.22-.33-.32s.2-.31.38-.55l.43.54C191.31,176.55,191.16,176.73,191,176.76Z"/><path class="cls-1" d="M136.8,190.16l1,.58c.19-.32.37-.6.54-.89,2.31-4,4.64-8,6.92-12a1.53,1.53,0,0,1,1.59-.9c1.56.06,3.13,0,4.7,0h9.73a2.36,2.36,0,0,0,.41-.07v-1h-15.9l-8-13.77-1,.6,7.93,13.75Zm8.7-14.1c.1,0,.34.26.31.35s-.23.3-.43.52c-.16-.25-.38-.45-.34-.56A.64.64,0,0,1,145.49,176.05Z"/><path class="cls-1" d="M130.23,162.08c-.22.37-.44.72-.64,1.07-2.16,3.74-4.31,7.49-6.49,11.23-1,1.79-.44,1.46-2.57,1.47-4.58,0-9.17,0-13.75,0a2.17,2.17,0,0,0-.39.06v1h1.29c4.55,0,9.09,0,13.64,0a1.39,1.39,0,0,1,1.41.81c1.18,2.12,2.41,4.2,3.62,6.3l3.86,6.69,1-.57-7.94-13.76,7.94-13.77Zm-7.76,14.66c-.13-.05-.17-.32-.25-.49a1.49,1.49,0,0,1,.55-.16c.11,0,.19.24.35.46C122.83,176.65,122.61,176.8,122.47,176.74Z"/><path class="cls-1" d="M69.31,190.75c.21-.34.43-.69.63-1,2.27-3.94,4.56-7.87,6.8-11.82a1.64,1.64,0,0,1,1.67-.95c4.51,0,9,0,13.53,0h1.23v-1.13H77.28l-8-13.79-1,.62,7.92,13.74-7.93,13.75ZM77,175.89c.16.25.32.41.33.58s-.26.32-.35.3-.3-.23-.45-.36Z"/><path class="cls-1" d="M61.77,162.06l-8,13.81H37.92V177h1.24c4.51,0,9,0,13.53,0a1.64,1.64,0,0,1,1.67,1c2.24,4,4.53,7.89,6.8,11.82.2.35.42.69.63,1l1-.58-7.93-13.75,7.93-13.75Zm-7.65,14.71c-.09,0-.36-.19-.36-.29s.17-.33.32-.58l.48.5C54.41,176.53,54.29,176.72,54.12,176.77Z"/><path class="cls-1" d="M61.77,83.11l-.65,1.09c-2.24,3.87-4.5,7.73-6.68,11.63a1.77,1.77,0,0,1-1.93,1.07c-.85-.08-1.71,0-2.57,0H38.31a2.84,2.84,0,0,0-.4.05v1h1.33c4.47,0,8.95,0,13.42,0a1.71,1.71,0,0,1,1.74,1c2,3.54,4,7,6.07,10.56l1.3,2.23,1-.6L54.82,97.44l7.94-13.76ZM54,97.79c-.09,0-.33-.26-.3-.35s.24-.3.44-.52c.16.25.37.45.33.57A.63.63,0,0,1,54,97.79Z"/><path class="cls-1" d="M232.91,260.78c-.21.34-.41.65-.59,1l-6.2,10.75c-.37.64-.63,1.52-1.19,1.84a5,5,0,0,1-2.28.19H209.45a3.29,3.29,0,0,0-.41.05v1.11h1.42c4.43,0,8.87,0,13.3,0a1.72,1.72,0,0,1,1.76,1c2.12,3.77,4.3,7.5,6.46,11.24l.92,1.57,1-.62-7.92-13.74,8-13.8Zm-7.67,14.74c-.15,0-.27-.27-.4-.42.15-.13.3-.36.45-.36s.3.22.54.42C225.58,275.33,225.39,275.54,225.25,275.52Z"/><path class="cls-1" d="M70,110.65c2.25-3.9,4.53-7.8,6.74-11.73a1.65,1.65,0,0,1,1.67-1c4.51,0,9,0,13.53,0h1.24v-1.1H77.3l-8-13.82-1,.63,7.92,13.74L68.34,111.2l1,.57Zm7-13.57c.1,0,.34.26.31.35s-.23.3-.43.52c-.16-.25-.38-.45-.34-.56A.64.64,0,0,1,77,97.08Z"/><path class="cls-1" d="M130.22,83.1l-8,13.79H106.37V98h1.26c4.55,0,9.09,0,13.64,0a1.47,1.47,0,0,1,1.49.87c2.26,4,4.57,7.95,6.86,11.92.2.35.42.69.63,1l1-.6-7.92-13.74,7.93-13.76ZM122.56,98c-.17-.25-.34-.4-.36-.57s.25-.33.34-.31.31.23.46.35Z"/><path class="cls-1" d="M146.94,98c4.47.05,8.95,0,13.42,0h1.26v-1.1H145.75l-8-13.8-1,.61,7.92,13.74-7.92,13.75,1,.58c.22-.36.41-.67.6-1,2.25-3.91,4.53-7.8,6.74-11.73A1.8,1.8,0,0,1,146.94,98Zm-1.47-.88c.13,0,.26.28.3.45s-.27.28-.38.26-.3-.22-.55-.41C145.13,97.24,145.33,97.06,145.48,97.09Z"/><path class="cls-1" d="M196.31,87.18c-1.71,3-3.45,5.93-5.13,8.91a1.28,1.28,0,0,1-1.41.8,7.08,7.08,0,0,0-.89,0H175.35a4.82,4.82,0,0,0-.51,0V98h7.43c2.53,0,5.07,0,7.6,0a1.12,1.12,0,0,1,1.23.71,5.56,5.56,0,0,0,.39.68l6.93,12a3.47,3.47,0,0,0,.3.39l.92-.58-7.92-13.74,7.94-13.78-1-.56ZM191,98c-.17-.25-.34-.4-.36-.57s.25-.33.34-.31.31.23.46.35Z"/><path class="cls-1" d="M206.23,111.77c.21-.35.43-.69.63-1,2.24-3.87,4.5-7.73,6.68-11.63A1.88,1.88,0,0,1,215.45,98c4.47.05,8.95,0,13.42,0h1.21V96.85H214.19l-8-13.77-1,.61,7.93,13.75-7.93,13.76Zm7.58-14.69c.17,0,.34.16.62.31-.25.19-.42.41-.56.4s-.28-.24-.43-.37C213.56,97.3,213.68,97.08,213.8,97.08Z"/><path class="cls-1" d="M267.13,83.1l-8,13.79H243.28V98h1.26c4.51,0,9,0,13.53,0a1.64,1.64,0,0,1,1.66,1c2.24,4,4.53,7.89,6.8,11.82.2.35.42.69.63,1l1-.61-7.92-13.74,7.94-13.76ZM259.51,98c-.19-.23-.37-.37-.41-.54s.23-.35.32-.34a.63.63,0,0,1,.45.33C259.91,97.53,259.69,97.72,259.51,98Z"/><path class="cls-1" d="M274.38,110a4.14,4.14,0,0,1-.57.55V111l-.1.18.1.06v.22l.9.31c.19-.31.39-.63.57-.95,2.27-3.93,4.56-7.85,6.79-11.81a1.71,1.71,0,0,1,1.76-1c4.5,0,9,0,13.51,0h1.17V98h0V96.89H282.7l-.06,0-8-13.76-.44.28-.44.14v.13l-.1.06.1.18v.52a6.85,6.85,0,0,1,.77.91c1.52,2.6,3,5.21,4.53,7.82l2.49,4.32-.07.18Zm7.55-12.58c.11-.12.22-.3.33-.3s.33.14.58.29c-.23.18-.38.37-.51.36S282.06,97.58,281.92,97.45Z"/><path class="cls-1" d="M27.52,102.84l-7.94,13.75H3.69v1.17H5c4.43,0,8.87,0,13.3,0a1.81,1.81,0,0,1,1.85,1c2.25,4,4.56,7.95,6.85,11.92.16.28.35.55.52.82l.94-.59-7.93-13.75,8-13.79Zm-7.64,14.77c-.13-.15-.37-.3-.37-.45s.23-.3.43-.53c.17.26.39.44.36.58S20,117.48,19.88,117.61Z"/><path class="cls-1" d="M301.35,260.77l-8,13.77H277.55v.07h0v1.16h1.4c4.44,0,8.87,0,13.3,0a1.72,1.72,0,0,1,1.74,1c2.24,4,4.53,7.88,6.8,11.82.18.32.38.63.57.94l1-.59,0,0,0,0-7.92-13.72,7.93-13.75h0l0-.05Zm-7.6,14c.14,0,.29.2.5.38-.24.17-.41.36-.55.34s-.25-.24-.37-.39C293.47,275,293.6,274.8,293.75,274.8Z"/><path class="cls-1" d="M27.54,23.86l-.73,1.24c-2.24,3.87-4.48,7.74-6.69,11.62a1.56,1.56,0,0,1-1.57.92c-4.55,0-9.09,0-13.64,0H3.69V38.8H5.06c4.47,0,8.94,0,13.42,0a1.66,1.66,0,0,1,1.67,1c2.28,4,4.6,8,6.91,12,.16.28.35.54.52.81l.94-.59L20.58,38.22l7.95-13.78ZM19.88,38.64c-.13-.15-.36-.3-.37-.45s.23-.3.43-.53c.17.26.39.44.36.58S20,38.51,19.88,38.64Z"/><path class="cls-1" d="M34.12,52l1,.58c.2-.32.38-.6.54-.89,2.29-4,4.6-7.93,6.86-11.91a1.65,1.65,0,0,1,1.66-1c4.47,0,8.94,0,13.42,0h1.35V37.63H57.62c-4.51,0-9,0-13.53,0a1.56,1.56,0,0,1-1.58-.91C40.3,32.81,38,28.92,35.78,25l-.68-1.16-1,.6,7.94,13.77ZM42.7,37.83c.15,0,.33.18.59.34-.23.2-.38.44-.53.44s-.3-.23-.45-.37C42.43,38.1,42.55,37.85,42.7,37.83Z"/><path class="cls-1" d="M102.57,52l1,.58c.21-.34.41-.65.59-1,2.26-3.9,4.54-7.79,6.74-11.72a1.87,1.87,0,0,1,1.93-1.09c2.91.06,5.81,0,8.72,0H127a1.57,1.57,0,0,0,.38-.1V37.63h-1.28c-4.36,0-8.72,0-13.08,0-1.86,0-1.36.23-2.24-1.26-1.33-2.25-2.61-4.52-3.91-6.78l-3.31-5.73-1,.56,8,13.8Zm8.58-14.14c.15,0,.33.18.59.34-.23.2-.39.44-.53.44s-.3-.23-.45-.37C110.89,38.1,111,37.86,111.16,37.83Z"/><path class="cls-1" d="M163.82,24.93c-2.18,3.78-4.34,7.56-6.54,11.32-1,1.65-.43,1.36-2.4,1.37-4.62,0-9.24,0-13.86,0a2.4,2.4,0,0,0-.4.06v1.1H142c4.4,0,8.8,0,13.19,0a2,2,0,0,1,2,1.18c2,3.64,4.15,7.24,6.24,10.85l1,1.76,1-.61-7.93-13.75,8-13.8-1-.55C164.24,24.23,164,24.58,163.82,24.93Zm-7,13.69a.56.56,0,0,1-.41-.38c0-.13.22-.39.37-.41s.33.19.59.35C157.15,38.39,157,38.62,156.84,38.62Z"/><path class="cls-1" d="M171,52l1,.58c.19-.3.37-.58.54-.87,2.29-4,4.61-7.92,6.85-11.92a1.71,1.71,0,0,1,1.76-1c2.79.05,5.59,0,8.38,0h5.92a1.6,1.6,0,0,0,.39-.1V37.63H181.37a7.35,7.35,0,0,0-.78,0,.89.89,0,0,1-1-.58c-.2-.4-.44-.78-.66-1.16l-6.76-11.71a1.91,1.91,0,0,0-.25-.29l-.92.57L179,38.22Zm8.58-14.14c.15,0,.33.18.58.35-.23.2-.39.44-.54.44s-.3-.23-.45-.37C179.34,38.1,179.46,37.86,179.61,37.83Z"/><path class="cls-1" d="M239.48,52l1,.57c.21-.34.41-.65.59-1,2.26-3.9,4.53-7.8,6.75-11.72a1.81,1.81,0,0,1,1.82-1.08c4.4.05,8.79,0,13.19,0,.41,0,.82,0,1.23,0a.72.72,0,0,0,.25-.11v-1H263c-4.55,0-9.09,0-13.64,0a1.39,1.39,0,0,1-1.41-.8c-1.36-2.44-2.78-4.85-4.18-7.27l-3.32-5.73-1,.6,7.94,13.77Zm8.59-14.15a.55.55,0,0,1,.42.36c0,.15-.2.33-.37.59-.2-.23-.42-.39-.42-.54A.55.55,0,0,1,248.07,37.84Z"/><path class="cls-1" d="M301.36,23.86l-.73,1.24c-2.22,3.84-4.45,7.67-6.63,11.53a1.71,1.71,0,0,1-1.74,1c-4.51-.05-9,0-13.53,0h-1.23v.06h0v1.17h1.36c4.47,0,8.94,0,13.42,0a1.66,1.66,0,0,1,1.67,1c2.28,4,4.6,8,6.91,12,.16.28.35.54.52.81l.94-.59,0,0,0,0-7.92-13.72,7.92-13.74h0l0,0ZM293.7,38.62c-.14,0-.25-.23-.37-.39a.31.31,0,0,1,.08-.14c.11-.12.23-.25.34-.25a.2.2,0,0,1,.1,0c.14.19.28.33.26.44a.33.33,0,0,1-.12.17C293.88,38.56,293.79,38.63,293.7,38.62Z"/><path class="cls-1" d="M35.08,131.53c.2-.33.4-.64.58-1,2.27-3.94,4.57-7.86,6.8-11.82a1.72,1.72,0,0,1,1.75-1c4.47,0,8.94,0,13.42,0H59v-1.2H43l-8-13.76-1,.6,7.94,13.77-7.93,13.76ZM42.7,116.8c.15,0,.33.18.58.35-.23.2-.38.44-.53.44s-.3-.24-.45-.37C42.44,117.07,42.55,116.82,42.7,116.8Z"/><path class="cls-1" d="M240.46,289.46c.21-.34.38-.62.55-.91,2.29-4,4.6-7.93,6.86-11.91a1.65,1.65,0,0,1,1.67-.95c4.47,0,8.94,0,13.42,0h1.35v-1.17H248.43l-8-13.78-1,.6,7.95,13.78-7.93,13.75Zm7.66-14.72c.14,0,.3.22.54.41-.26.18-.45.39-.59.37s-.27-.27-.4-.42C247.82,275,248,274.74,248.12,274.74Z"/><path class="cls-1" d="M88,116.6H72.18v1.16h1.4c4.43,0,8.87,0,13.3,0a1.72,1.72,0,0,1,1.74,1c2.24,4,4.53,7.88,6.8,11.82.18.32.38.63.57.94l1-.59L89,117.19l8-13.79-1-.55Zm.32,1c-.15,0-.27-.28-.4-.43.15-.13.3-.36.45-.36s.31.23.54.42C88.67,117.39,88.48,117.61,88.34,117.59Z"/><path class="cls-1" d="M156.49,116.59H140.6v1.17h1.23c4.4,0,8.79,0,13.19,0a2.12,2.12,0,0,1,2.19,1.24c2.2,3.93,4.48,7.82,6.74,11.72.16.28.35.55.52.82l.95-.59-7.93-13.75,8-13.79-1-.55Zm.36,1.16c-.19-.24-.42-.39-.42-.54a.4.4,0,0,1,.79,0C157.24,117.32,157,117.49,156.84,117.75Z"/><path class="cls-1" d="M164.43,260.78l-7.94,13.75H140.6v1.17h1.34c4.36,0,8.72,0,13.08,0a2.12,2.12,0,0,1,2.19,1.24c2.18,3.9,4.45,7.76,6.68,11.63.18.31.38.62.57.93l1-.59-7.93-13.75,8-13.8Zm-7.65,14.91c-.17-.26-.38-.44-.36-.59a.4.4,0,0,1,.79.05C157.21,275.31,157,275.46,156.78,275.69Z"/><path class="cls-1" d="M103.55,289.46c.2-.34.38-.62.55-.91,2.29-4,4.6-7.93,6.86-11.91a1.65,1.65,0,0,1,1.67-1c4.47,0,8.94,0,13.42,0h1.36v-1.16H111.52l-8-13.79-1,.61,7.94,13.77-7.93,13.75Zm7.61-14.72c.15,0,.33.19.58.35-.24.2-.39.44-.54.43s-.3-.24-.45-.37C110.89,275,111,274.76,111.16,274.74Z"/><path class="cls-1" d="M96,260.76l-.67,1.14c-2.25,3.9-4.52,7.8-6.75,11.72a1.56,1.56,0,0,1-1.57.92c-4.55,0-9.09,0-13.64,0H72.15v1.17h1.36c4.47,0,8.94,0,13.42,0a1.65,1.65,0,0,1,1.67,1c2.28,4,4.6,8,6.91,12,.16.28.35.54.52.81l.94-.59L89,275.12,97,261.34Zm-7.66,14.79c-.13-.15-.37-.3-.37-.45s.23-.3.43-.53c.17.26.39.44.36.58S88.49,275.42,88.34,275.55Z"/><path class="cls-1" d="M171,130.94l1,.58c.21-.34.4-.65.59-1,2.26-3.9,4.54-7.79,6.74-11.72a1.87,1.87,0,0,1,1.93-1.09c2.94.06,5.89,0,8.83,0h5.37a1.53,1.53,0,0,0,.38-.1V116.6h-1.28c-4.43,0-8.87,0-13.3,0a1.85,1.85,0,0,1-1.93-1.08c-1.27-2.36-2.66-4.66-4-7L172,102.82l-1,.59L179,117.18Zm8.64-14.14c.15,0,.3.22.53.42-.27.18-.45.39-.59.37s-.27-.27-.4-.43C179.36,117,179.51,116.8,179.67,116.8Z"/><path class="cls-1" d="M27.53,260.77l-8,13.77H3.73v1.16h1.4c4.44,0,8.87,0,13.3,0a1.72,1.72,0,0,1,1.74,1c2.24,4,4.53,7.88,6.8,11.82.18.32.38.63.57.94l1-.59-7.93-13.75,8-13.79Zm-7.64,14.75c-.15,0-.27-.27-.4-.42.15-.13.3-.36.45-.36s.3.22.54.42C20.21,275.33,20,275.54,19.89,275.52Z"/><path class="cls-1" d="M274.38,268a4,4,0,0,1-.57.55v.43l-.1.18.1.06v.22l.9.32.62-1c2.25-3.9,4.53-7.79,6.73-11.71a1.71,1.71,0,0,1,1.76-1c4.5,0,9,0,13.52,0h1.17v-.06h0v-1.11H283.19a1.65,1.65,0,0,1-.83-.52L274.69,241l-.44.28-.44.14v.13l-.1.06.1.18v.52a6.85,6.85,0,0,1,.77.91c1.58,2.7,3.13,5.4,4.69,8.11l2.32,4-.07.19Zm8.34-12.59a1.12,1.12,0,0,1-.32.41l-.05,0a.4.4,0,0,1-.23-.14.66.66,0,0,1-.16-.29c.09-.12.19-.28.29-.28a1,1,0,0,1,.45.19A.15.15,0,0,1,282.71,255.37Z"/><path class="cls-1" d="M232.89,102.84l-8,13.77H209.1v1.16h1.41c4.4,0,8.79,0,13.19,0a1.88,1.88,0,0,1,1.91,1.13c2.21,3.93,4.49,7.82,6.74,11.72.18.32.38.62.57.93l1-.59-7.93-13.75,8-13.8Zm-7.64,14.77c-.13-.15-.36-.3-.37-.45s.23-.3.43-.53c.17.26.39.44.36.58S225.39,117.48,225.25,117.61Z"/><path class="cls-1" d="M301.34,102.84l-8,13.76H277.49v1.22h1.35c4.43,0,8.87,0,13.3,0a1.81,1.81,0,0,1,1.85,1c2.25,4,4.56,7.95,6.85,11.92.16.28.35.55.52.82l.94-.59,0,0,0,0-7.92-13.72,7.93-13.75h0l0-.05Zm-7.64,14.74c-.14,0-.25-.23-.37-.38a.31.31,0,0,1,.08-.15c.11-.12.22-.25.34-.26a.2.2,0,0,1,.1,0c.15.19.28.33.26.44a.31.31,0,0,1-.11.16C293.89,117.53,293.79,117.6,293.71,117.58Z"/><path class="cls-1" d="M300.61,183.08c-2.25,3.9-4.52,7.8-6.75,11.72a1.25,1.25,0,0,1-1.31.78c-.67-.06-1.34,0-2,0H277.9a2.58,2.58,0,0,0-.37,0v0h0l0,1.07v0h0v.06h1.3c4.4,0,8.79,0,13.19,0a2,2,0,0,1,2.08,1.23c2.19,3.9,4.45,7.75,6.69,11.63.18.32.38.62.57.94l1-.6,0-.05,0,0-7.91-13.71,7.93-13.76h0l0-.06-1-.55Zm-6.91,13.48c-.13,0-.24-.22-.35-.37,0-.15.23-.34.35-.35a.55.55,0,0,1,.42.36.27.27,0,0,1,0,.16C293.92,196.47,293.8,196.57,293.7,196.55Z"/><path class="cls-1" d="M232.89,181.81l-7.94,13.75H209.06v1.17h1.34c4.29,0,8.57,0,12.86,0,2,0,1.52-.27,2.5,1.41,2.21,3.8,4.4,7.61,6.6,11.42.18.31.38.62.57.93l1-.6-7.93-13.75,8-13.8Zm-7.59,14.91c-.19-.24-.42-.39-.42-.54a.55.55,0,0,1,.37-.41.56.56,0,0,1,.42.36C225.69,196.29,225.47,196.46,225.3,196.72Z"/><path class="cls-1" d="M171,209.91l1,.58.5-.84c2.29-4,4.6-7.93,6.86-11.92a1.72,1.72,0,0,1,1.74-1c4.47,0,8.94,0,13.42,0h1.32v-1.18H180l-8-13.77-1,.6L179,196.15Zm8.64-14.15c.15,0,.3.22.54.41-.26.18-.44.39-.59.37s-.27-.27-.4-.42C179.36,196,179.51,195.78,179.66,195.77Z"/><path class="cls-1" d="M164.44,181.8l-.72,1.24c-2.24,3.87-4.49,7.74-6.69,11.62a1.56,1.56,0,0,1-1.58.91c-4.55,0-9.09,0-13.64,0h-1.21v1.17H142c4.47,0,8.94,0,13.42,0a1.65,1.65,0,0,1,1.66,1c2.28,4,4.6,8,6.92,12,.16.28.35.53.52.8l.93-.59-7.93-13.75,8-13.79Zm-7.65,14.78c-.13-.15-.36-.3-.37-.45s.23-.3.43-.53c.17.26.39.44.36.58S156.94,196.45,156.79,196.58Z"/><path class="cls-1" d="M88,195.57H72.15v1.16h1.43c4.43,0,8.87,0,13.3,0a1.72,1.72,0,0,1,1.74,1c2.24,4,4.53,7.88,6.8,11.82.18.32.38.63.57.94l1-.59L89,196.15l8-13.79-1-.56Zm.37,1.15c-.19-.24-.42-.39-.42-.54a.4.4,0,0,1,.79,0C88.78,196.28,88.57,196.46,88.39,196.72Z"/><path class="cls-1" d="M301.36,63.37c-.19.31-.39.62-.57.94-2.25,3.9-4.53,7.79-6.74,11.72a1.88,1.88,0,0,1-1.91,1.13c-4.47-.05-8.94,0-13.41,0h-1.22v.06h0v1.16h15.88l8,13.78,1-.62,0,0,0,0-7.92-13.73L302.34,64h0l0,0Zm-7.61,14c.11,0,.22.12.36.26a.18.18,0,0,1,0,0,.39.39,0,0,1-.79,0s0,0,0,0S293.61,77.37,293.75,77.37Z"/><path class="cls-1" d="M301.36,142.34c-.2.32-.39.63-.58,1-2.29,4-4.59,7.92-6.86,11.91a1.57,1.57,0,0,1-1.57.93c-4.54,0-9.09,0-13.63,0h-1.21v1.16h0v0h1.29c4.51,0,9,0,13.52,0a1.55,1.55,0,0,1,1.58.9c2.26,4,4.56,7.94,6.85,11.91.2.34.41.67.61,1l1-.6,0,0,0,0-7.93-13.75L302.33,143h0l0-.06Zm-7.61,13.84a2.8,2.8,0,0,1,.35.51c0,.15-.23.35-.35.36a.55.55,0,0,1-.42-.36h0C293.35,156.54,293.56,156.4,293.75,156.18Z"/><path class="cls-1" d="M241.1,248.92c2.27-3.93,4.56-7.86,6.8-11.81a1.55,1.55,0,0,1,1.57-.91c4.54,0,9.09,0,13.63,0h1.2v-1.15H263c-4.51,0-9,0-13.52,0a1.65,1.65,0,0,1-1.66-1c-2.26-4-4.56-7.94-6.85-11.91-.18-.31-.38-.62-.57-.92l-1,.58,7.94,13.77-8,13.79,1,.56C240.68,249.62,240.89,249.27,241.1,248.92Zm7-13.66a.55.55,0,0,1,.42.36c0,.14-.19.32-.36.57-.2-.23-.44-.38-.43-.52A.56.56,0,0,1,248.07,235.25Z"/><path class="cls-1" d="M239.49,130.94l1,.59c.2-.32.4-.63.58-1,2.29-4,4.6-7.93,6.86-11.92a1.57,1.57,0,0,1,1.58-.92c4.51,0,9,0,13.53,0h1.31v-1.19H248.41l-8-13.77-1,.6,7.94,13.77Zm8.58-14.13a.55.55,0,0,1,.42.36c0,.15-.19.33-.37.59-.2-.23-.42-.39-.42-.54A.55.55,0,0,1,248.07,116.8Z"/><path class="cls-1" d="M164.46,63.35c-.23.38-.42.69-.61,1-2.25,3.9-4.53,7.79-6.74,11.72a1.8,1.8,0,0,1-1.82,1.09c-4.43-.05-8.87,0-13.3,0-.41,0-.82,0-1.23,0-.06,0-.11.08-.14.1v1h1.29c4.51,0,9,0,13.52,0a1.56,1.56,0,0,1,1.58.9c2.26,4,4.56,7.94,6.85,11.91.2.34.41.67.61,1l1-.6L157.49,77.7l7.94-13.76Zm-7.61,14.9c-.2-.23-.43-.38-.43-.52a.39.39,0,0,1,.79,0C157.24,77.81,157,78,156.85,78.25Z"/><path class="cls-1" d="M172,92.06c.23-.38.44-.73.65-1.08,2.27-3.93,4.56-7.86,6.8-11.81a1.56,1.56,0,0,1,1.58-.9c4.54,0,9.09,0,13.63,0h1.2V77.14h-1.26c-4.51,0-9,0-13.52,0a1.65,1.65,0,0,1-1.66-1c-2.26-4-4.56-7.94-6.85-11.91-.18-.31-.38-.62-.56-.92l-1,.58L179,77.7,171,91.47Zm7.66-14.75c.15,0,.27.27.4.41-.15.13-.3.35-.45.35s-.3-.22-.54-.41C179.33,77.5,179.51,77.29,179.66,77.31Z"/><path class="cls-1" d="M232.91,92.09l1-.63L225.95,77.7l7.94-13.78-1-.56c-.2.33-.4.64-.58,1-2.29,4-4.59,7.93-6.86,11.91a1.57,1.57,0,0,1-1.58.92c-4.54,0-9.09,0-13.63,0H209v1.17h15.9Zm-7.61-14.94c.17.25.38.43.36.58a.56.56,0,0,1-.43.35.55.55,0,0,1-.36-.41C224.88,77.52,225.11,77.37,225.31,77.15Z"/><path class="cls-1" d="M241,91.15c2.12-3.68,4.31-7.32,6.33-11a3,3,0,0,1,3.17-1.87c4.47.14,8.94,0,13.41,0a2.58,2.58,0,0,0,.41-.07V77.14H263c-4.43,0-8.87,0-13.3,0a1.88,1.88,0,0,1-1.93-1.09c-2.22-4-4.52-7.88-6.79-11.81-.18-.31-.38-.61-.57-.91l-.95.59,7.94,13.76-7.94,13.78,1,.57C240.65,91.72,240.83,91.44,241,91.15Zm7.12-13.84c.15,0,.27.27.4.42-.15.13-.3.35-.45.35s-.3-.22-.54-.41C247.79,77.5,248,77.29,248.12,77.31Z"/><path class="cls-1" d="M241.1,169.95c2.27-3.93,4.56-7.86,6.8-11.81a1.56,1.56,0,0,1,1.58-.9c4.54,0,9.09,0,13.63,0h1.2v-1.14H263c-4.51,0-9,0-13.52,0a1.65,1.65,0,0,1-1.66-1c-2.26-4-4.56-7.94-6.85-11.91-.18-.31-.38-.62-.56-.92l-1,.58,7.94,13.77-7.95,13.79,1,.56C240.68,170.65,240.89,170.3,241.1,169.95Zm7-13.66a.56.56,0,0,1,.42.36c0,.14-.19.32-.36.57-.2-.23-.44-.38-.43-.52A.56.56,0,0,1,248.07,156.28Z"/><path class="cls-1" d="M301.36,221.29c-.24.4-.43.72-.62,1-2.25,3.9-4.53,7.79-6.74,11.72a1.81,1.81,0,0,1-1.84,1c-4.47,0-8.94,0-13.41,0h-1.24v1.14h0v.07h1.27c4.47,0,8.94,0,13.41,0a1.79,1.79,0,0,1,1.82,1.08c2.22,3.92,4.49,7.81,6.74,11.72.2.35.42.69.62,1l1-.61,0,0,0,0-7.93-13.74,7.92-13.73h0l0-.06Zm-7.93,14.2c.11-.12.22-.24.33-.24a.21.21,0,0,1,.1,0c.14.18.28.33.27.44a.28.28,0,0,1,0,.11c-.15.11-.26.2-.37.19s-.25-.22-.37-.37A.35.35,0,0,1,293.43,235.49Z"/><path class="cls-1" d="M180,157.25h15.88V156.1h-1.24c-4.51,0-9,0-13.52,0a1.65,1.65,0,0,1-1.67-.95c-2.24-4-4.52-7.88-6.8-11.81-.2-.35-.42-.7-.62-1l-1,.58L179,156.67l-8,13.79,1,.57Zm-.3-1.13c.17.25.38.43.36.58a.4.4,0,0,1-.79-.06C179.25,156.49,179.48,156.34,179.68,156.12Z"/><path class="cls-1" d="M164.44,142.34l-.61,1c-2.27,3.93-4.56,7.86-6.8,11.81a1.65,1.65,0,0,1-1.67,1c-4.51,0-9,0-13.52,0H140.6v1.14h15.88l8,13.79,1-.6-7.94-13.77,7.94-13.78Zm-7.59,14.87c-.2-.23-.43-.38-.43-.52a.4.4,0,0,1,.79-.05C157.24,156.78,157,157,156.85,157.21Z"/><path class="cls-1" d="M224,157.23a1.39,1.39,0,0,1,1.4.81c1.38,2.47,2.82,4.91,4.23,7.36L232.9,171l1-.59-7.95-13.77,7.94-13.77-1-.58c-.23.39-.43.71-.61,1-2.27,3.93-4.56,7.86-6.8,11.81a1.65,1.65,0,0,1-1.67,1c-4.51,0-9,0-13.52,0h-1.23v1.14h1.29C214.92,157.25,219.47,157.26,224,157.23Zm1.29-1.12c.17.26.38.43.36.58a.56.56,0,0,1-.43.35.55.55,0,0,1-.36-.41C224.88,156.49,225.11,156.34,225.31,156.11Z"/><path class="cls-1" d="M111.52,157.25H127.4V156.1h-1.24c-4.51,0-9,0-13.52,0a1.65,1.65,0,0,1-1.67-.95c-2.26-4-4.56-7.94-6.85-11.91-.18-.32-.38-.63-.57-.95l-1,.6,7.93,13.75-8,13.79,1,.57Zm-.36-1c.14,0,.32.19.59.36-.24.19-.39.42-.54.41s-.3-.23-.45-.36C110.89,156.55,111,156.3,111.16,156.28Z"/><path class="cls-1" d="M96,142.31c-.22.37-.42.68-.6,1q-3.07,5.32-6.15,10.64c-.41.7-.72,1.64-1.35,2a5.31,5.31,0,0,1-2.4.15H72.66a3.49,3.49,0,0,0-.5.07v1.07h1.28c4.25,0,8.49,0,12.74,0,2.3,0,1.62-.36,2.74,1.55,2.18,3.73,4.32,7.48,6.48,11.22.2.35.41.68.62,1l1-.6L89,156.67,97,142.91ZM88.34,157c-.15,0-.26-.27-.39-.41.15-.13.3-.36.45-.36s.3.23.54.43C88.67,156.87,88.49,157.07,88.34,157Z"/><path class="cls-1" d="M34.11,170.45l1,.57,8-13.82H59l-.06-1.1H57.63c-4.51,0-9,0-13.52,0a1.56,1.56,0,0,1-1.58-.92c-1.77-3.15-3.6-6.27-5.4-9.39l-2-3.49-1,.57,7.95,13.78Zm8.66-14.33c.17.25.38.43.36.58a.55.55,0,0,1-.42.35.54.54,0,0,1-.36-.41C42.34,156.49,42.57,156.34,42.77,156.12Z"/><path class="cls-1" d="M27.54,142.34c-.21.36-.41.67-.59,1-2.27,3.93-4.56,7.86-6.8,11.81a1.65,1.65,0,0,1-1.66,1c-4.51,0-9,0-13.52,0H3.71v1.14H5c4.51,0,9,0,13.52,0a1.55,1.55,0,0,1,1.58.9c2.26,4,4.56,7.94,6.85,11.91.2.34.41.67.61,1l1-.6-7.94-13.77,7.94-13.77ZM19.88,157a.55.55,0,0,1-.37-.41c0-.15.23-.3.42-.53.17.25.38.43.36.58A.56.56,0,0,1,19.88,157Z"/><path class="cls-1" d="M232.91,221.3c-.19.31-.39.62-.57.94-2.27,3.93-4.57,7.85-6.79,11.81a1.81,1.81,0,0,1-1.85,1c-4.47,0-8.94,0-13.41,0h-1.23v1.15h15.88l8,13.79,1-.61-7.94-13.76,7.94-13.77ZM225.25,236c-.15,0-.27-.26-.4-.41.15-.13.3-.36.45-.36s.3.22.54.42C225.58,235.83,225.4,236,225.25,236Z"/><path class="cls-1" d="M164.44,221.31c-.21.36-.41.67-.6,1-2.27,3.93-4.56,7.86-6.8,11.81a1.65,1.65,0,0,1-1.66,1c-4.51,0-9,0-13.52,0h-1.25v1.15h1.29c4.51,0,9,0,13.52,0a1.56,1.56,0,0,1,1.58.9c2.26,4,4.56,7.94,6.85,11.91.2.34.41.67.61,1l1-.6-7.94-13.77,7.94-13.77Zm-7.6,14.7a.55.55,0,0,1-.42-.35c0-.15.19-.32.36-.58.2.23.43.38.43.53A.55.55,0,0,1,156.84,236Z"/><path class="cls-1" d="M27.54,63.37c-.19.31-.39.63-.57.94-2.27,3.93-4.56,7.86-6.8,11.81a1.72,1.72,0,0,1-1.74,1c-4.51-.05-9,0-13.52,0H3.69v1.16H19.58l8,13.78,1-.62L20.58,77.7l7.95-13.78ZM19.89,78.08c-.15,0-.27-.26-.4-.41.15-.13.3-.36.45-.36s.3.23.54.42C20.21,77.9,20,78.1,19.89,78.08Z"/><path class="cls-1" d="M35.09,92.06c.23-.38.44-.73.65-1.08C38,87,40.29,83.12,42.53,79.17a1.56,1.56,0,0,1,1.57-.91c4.54,0,9.09,0,13.63,0h1.21V77.14H57.68c-4.51,0-9,0-13.52,0a1.65,1.65,0,0,1-1.66-1c-2.26-4-4.56-7.94-6.85-11.91-.18-.32-.38-.62-.57-.93l-1,.58L42.05,77.7,34.11,91.48Zm7.68-14.92c.17.25.38.43.36.58a.4.4,0,0,1-.79-.06C42.33,77.52,42.57,77.37,42.77,77.15Z"/><path class="cls-1" d="M27.55,221.3c-.19.31-.37.59-.54.88-2.18,3.77-4.35,7.55-6.54,11.31-1.1,1.89-.52,1.56-2.74,1.57-4.47,0-8.94,0-13.41,0a5.6,5.6,0,0,0-.62.07v1.07H5c4.47,0,8.94,0,13.41,0a1.79,1.79,0,0,1,1.82,1.08c2.22,3.92,4.49,7.81,6.74,11.72.2.35.42.69.62,1l1-.61-7.94-13.77,7.94-13.77ZM19.88,236a.55.55,0,0,1-.37-.41c0-.15.23-.3.42-.53.17.25.38.43.36.58A.56.56,0,0,1,19.88,236Z"/><path class="cls-1" d="M96,63.37c-.19.31-.39.63-.57.95-2.27,3.93-4.56,7.86-6.8,11.81a1.72,1.72,0,0,1-1.74,1c-4.51-.05-9,0-13.52,0H72.15v1.16H88l8,13.78,1-.62L89,77.7,97,63.92ZM88.4,78.25c-.2-.23-.44-.37-.43-.52a.4.4,0,0,1,.79-.06C88.78,77.81,88.57,78,88.4,78.25Z"/><path class="cls-1" d="M103.54,131.53c.2-.33.4-.64.58-1,2.27-3.94,4.57-7.86,6.8-11.82a1.72,1.72,0,0,1,1.75-1c4.47,0,8.94,0,13.42,0h1.3v-1.2H111.5l-8-13.76-1,.6,7.94,13.77-7.93,13.76Zm7.67-14.72a.55.55,0,0,1,.36.41c0,.15-.23.3-.43.54-.17-.26-.38-.44-.36-.59A.56.56,0,0,1,111.21,116.8Z"/><path class="cls-1" d="M96,221.29c-.24.39-.43.71-.62,1-2.27,3.93-4.56,7.86-6.8,11.81a1.65,1.65,0,0,1-1.67,1c-4.51,0-9,0-13.52,0H72.15v1.14H88L96,250l1-.6L89,235.64,97,221.87Zm-7.67,14.9c-.17-.25-.38-.43-.35-.57a.39.39,0,0,1,.79.05C88.76,235.81,88.53,236,88.33,236.18Z"/><path class="cls-1" d="M111.52,236.22H127.4v-1.14h-1.24c-4.51,0-9,0-13.52,0a1.65,1.65,0,0,1-1.67-.95c-2.26-4-4.56-7.94-6.85-11.91-.18-.32-.38-.63-.58-.95l-1,.6,7.93,13.75-8,13.79,1,.57Zm-.31-1c.15,0,.3.22.54.42-.26.17-.44.37-.59.35s-.27-.26-.4-.41C110.91,235.48,111.06,235.25,111.21,235.25Z"/><path class="cls-1" d="M172,289.46c.21-.35.39-.63.55-.92,2.27-3.94,4.57-7.86,6.8-11.82a1.81,1.81,0,0,1,1.85-1c4.43,0,8.87,0,13.3,0h1.34v-1.17H180l-8-13.79-1,.6L179,275.12,171,288.87Zm7.66-14.72c.15,0,.3.22.54.41-.26.18-.44.39-.59.37s-.27-.27-.4-.42C179.36,275,179.51,274.74,179.66,274.74Z"/><path class="cls-1" d="M35.09,289.46c.21-.34.38-.62.55-.91,2.29-4,4.6-7.93,6.86-11.91a1.65,1.65,0,0,1,1.67-1c4.47,0,8.94,0,13.42,0h1.35v-1.16H43.06l-8-13.79-1,.61,7.94,13.77-7.93,13.75Zm7.61-14.72c.15,0,.33.18.58.35-.24.2-.39.43-.54.43s-.3-.24-.45-.37C42.44,275,42.56,274.76,42.71,274.74Z"/><path class="cls-1" d="M103.56,92.06l8-13.77H127.4V77.14h-1.24c-4.47,0-8.94,0-13.41,0a1.81,1.81,0,0,1-1.85-1c-2.23-4-4.52-7.88-6.79-11.81-.18-.32-.38-.63-.58-1l-1,.6,7.93,13.75-8,13.79Zm7.66-14.91c.17.25.38.43.36.58a.55.55,0,0,1-.42.35.55.55,0,0,1-.36-.41C110.79,77.52,111,77.37,111.22,77.15Z"/><path class="cls-1" d="M35.57,249.19q3.13-5.42,6.26-10.84c.41-.7.72-1.62,1.34-2s1.52-.14,2.3-.14H58.55a2.74,2.74,0,0,0,.38-.05v-1.09H44.35c-.51,0-1-.05-1.54-.08v0h0a1.81,1.81,0,0,1,.31.53.5.5,0,0,1-.2.43.51.51,0,0,1-.47-.06.5.5,0,0,1-.07-.47,2,2,0,0,1,.44-.43l0,0h0a5.21,5.21,0,0,0-.31-.87Q39,228,35.41,221.82c-.11-.18-.25-.35-.37-.52l-.93.58,7.94,13.76-7.94,13.78,1,.57C35.26,249.7,35.43,249.45,35.57,249.19Z"/><path class="cls-1" d="M172,250c.18-.29.34-.54.49-.8q3.13-5.42,6.26-10.84c.41-.7.72-1.62,1.34-2s1.52-.14,2.29-.14h13.08a2.7,2.7,0,0,0,.38-.05v-1.09H181.26c-.51,0-1-.05-1.53-.08v0h0a1.82,1.82,0,0,1,.31.53.5.5,0,0,1-.2.43.51.51,0,0,1-.48-.06.5.5,0,0,1-.07-.47,2,2,0,0,1,.44-.43l0,0h0a5.22,5.22,0,0,0-.31-.87q-3.53-6.15-7.09-12.29c-.11-.18-.25-.35-.36-.52l-.93.58L179,235.64,171,249.42Z"/><path class="cls-1" d="M61.77,280.55c-.21.35-.41.66-.59,1-2.27,3.94-4.56,7.86-6.8,11.82a1.65,1.65,0,0,1-1.66,1c-4.47,0-8.94,0-13.41,0H37.93v1.14h1.24c4.32,0,8.64,0,13,0,2,0,1.48-.32,2.54,1.51,2.17,3.73,4.32,7.48,6.49,11.22.2.35.42.69.63,1l1-.62-7.92-13.73,7.92-13.73Zm-7.6,14.86c-.19-.22-.42-.37-.42-.52a.39.39,0,0,1,.77-.05C54.54,295,54.34,295.16,54.17,295.41Z"/><path class="cls-1" d="M130.23,122.61c-.21.34-.41.65-.59,1-2.22,3.84-4.47,7.65-6.62,11.53a2.19,2.19,0,0,1-2.28,1.28c-3.72-.07-7.45,0-11.18,0l-2.91,0a.87.87,0,0,0-.29.12v1h1.23c4.51,0,9,0,13.53,0a1.71,1.71,0,0,1,1.74,1c2.12,3.76,4.3,7.49,6.46,11.24l.9,1.55,1-.65-7.91-13.72,7.93-13.74Zm-7.66,14.69a.54.54,0,0,1-.36-.4c0-.14.22-.29.42-.52.17.25.38.43.36.57A.55.55,0,0,1,122.57,137.3Z"/><path class="cls-1" d="M160.21,136.37c-4.47,0-8.94,0-13.41,0a1.57,1.57,0,0,1-1.59-.9c-2.13-3.76-4.3-7.49-6.46-11.24l-1-1.66-1,.6,7.92,13.74-7.91,13.73,1,.61c.24-.4.47-.77.69-1.16,2.22-3.84,4.45-7.67,6.63-11.53a1.88,1.88,0,0,1,1.92-1.11c4.69.05,9.39,0,14.08,0a5.42,5.42,0,0,0,.58-.06c0-.37,0-.68-.06-1.07Zm-14.77,1.1c-.2-.22-.42-.37-.42-.51a.55.55,0,0,1,.36-.41.54.54,0,0,1,.41.36C145.81,137,145.61,137.22,145.44,137.47Z"/><path class="cls-1" d="M198.67,122.62c-.2.33-.37.61-.54.89-2.29,4-4.6,7.93-6.86,11.91a1.65,1.65,0,0,1-1.67,1c-4.47,0-8.94,0-13.41,0h-1.36v1.14h1.25c4.51,0,9,0,13.53,0a1.64,1.64,0,0,1,1.67,1c2.24,4,4.53,7.88,6.8,11.82.2.34.41.68.62,1l1-.62-7.92-13.73,7.93-13.74ZM191,137.3a.54.54,0,0,1-.36-.41c0-.14.22-.29.42-.52.17.25.38.43.35.57A.54.54,0,0,1,191,137.3Z"/><path class="cls-1" d="M267.13,122.6c-.21.34-.36.59-.51.85-2.29,4-4.6,7.92-6.86,11.91a1.72,1.72,0,0,1-1.75,1c-4.47,0-8.94,0-13.41,0H243.3v1.14h1.28c4.47,0,8.94,0,13.41,0a1.7,1.7,0,0,1,1.76,1c1.28,2.35,2.66,4.66,4,7l3.37,5.83,1-.64-7.91-13.72,7.92-13.73Zm-7.61,14.7c-.15,0-.29-.23-.44-.35.13-.15.24-.39.39-.41s.32.19.58.36C259.82,137.09,259.67,137.31,259.53,137.3Z"/><path class="cls-1" d="M230.09,295.38v-1.07h-1.44c-4.47,0-8.94,0-13.41,0a1.57,1.57,0,0,1-1.58-.92c-2.26-4-4.57-7.94-6.86-11.91-.19-.32-.38-.63-.59-1l-.94.63,7.91,13.71-7.92,13.74,1,.61,2.59-4.47c1.62-2.81,3.26-5.6,4.84-8.43a1.43,1.43,0,0,1,1.59-.88,5.86,5.86,0,0,0,.78,0h13.52A4.35,4.35,0,0,0,230.09,295.38Zm-16.25-.13c-.14,0-.29-.22-.52-.41.26-.17.43-.37.58-.35s.26.26.39.41C214.13,295,214,295.24,213.83,295.24Z"/><path class="cls-1" d="M192.38,296a1.94,1.94,0,0,1,0-2.31c2.3-3.84,4.5-7.73,6.73-11.6.2-.34.37-.7.55-1l-.95-.55c-.21.34-.4.65-.59,1-2.24,3.87-4.49,7.73-6.68,11.62a2,2,0,0,1-2,1.18c-4.4-.06-8.79,0-13.19,0h-1.38v1.14h1.22c4.47,0,8.94,0,13.41,0a1.88,1.88,0,0,1,1.91,1.13c2.17,3.86,4.41,7.69,6.63,11.53.22.38.45.76.69,1.15l.93-.64-.53-.94C196.87,303.77,194.66,299.89,192.38,296Zm-1.35-.8c-.15,0-.26-.26-.39-.41.15-.13.29-.36.44-.36s.3.23.52.42C191.34,295.06,191.17,295.26,191,295.24Z"/><path class="cls-1" d="M161.67,295.37l-.08-1.06h-1.4c-4.43,0-8.87,0-13.3,0a1.66,1.66,0,0,1-1.74-1c-.59-1.16-1.29-2.27-1.94-3.4l-5.42-9.38-1,.6,7.92,13.74-7.92,13.74,1,.6.86-1.47c2.14-3.71,4.32-7.4,6.4-11.15a1.93,1.93,0,0,1,2.11-1.17c.85.08,1.71,0,2.57,0h11.4A4.75,4.75,0,0,0,161.67,295.37Zm-16.29,0c-.17-.25-.38-.42-.36-.56a.55.55,0,0,1,.41-.36.54.54,0,0,1,.36.4C145.8,295,145.57,295.18,145.38,295.4Z"/><path class="cls-1" d="M93.21,295.38l-.06-1.07H91.75c-4.47,0-8.94,0-13.41,0a1.57,1.57,0,0,1-1.58-.9c-2.13-3.76-4.3-7.49-6.46-11.24l-1-1.67-1,.63,7.91,13.72-7.92,13.73,1,.62.85-1.45c2.16-3.74,4.34-7.47,6.46-11.24a1.88,1.88,0,0,1,1.92-1.11c4.69.05,9.39,0,14.08,0A5.64,5.64,0,0,0,93.21,295.38ZM77,295.24c-.15,0-.29-.23-.44-.35.13-.14.25-.38.4-.41s.32.18.57.35C77.27,295,77.12,295.25,77,295.24Z"/><path class="cls-1" d="M62.17,45.23c.2-.34.37-.7.55-1l-.95-.54c-.19.31-.37.59-.54.88C59,48.43,56.7,52.32,54.5,56.25a2,2,0,0,1-2,1.18c-4.4-.06-8.79,0-13.19,0H37.93v1.14h1.22c4.43,0,8.87,0,13.3,0a2,2,0,0,1,2.08,1.23c2.17,3.87,4.41,7.69,6.63,11.53.2.35.42.69.64,1l.92-.64-.58-1c-2.23-3.87-4.45-7.75-6.72-11.6a1.78,1.78,0,0,1,0-2.11C57.69,53.05,59.92,49.13,62.17,45.23ZM54.11,58.34c-.15,0-.26-.26-.39-.41.15-.13.29-.36.44-.36s.3.22.52.42C54.44,58.15,54.26,58.36,54.11,58.34Z"/><path class="cls-1" d="M91.73,57.4c-4.43,0-8.87,0-13.3,0a1.72,1.72,0,0,1-1.74-1c-2.24-4-4.53-7.88-6.8-11.82-.18-.32-.38-.63-.57-.95l-1,.59L76.27,58,68.35,71.7l1,.6.91-1.57c2.12-3.68,4.28-7.34,6.34-11a1.87,1.87,0,0,1,2.11-1.16,6.34,6.34,0,0,0,.89,0H92.66a4.66,4.66,0,0,0,.56-.07l-.08-1.06ZM76.92,58.5c-.17-.25-.38-.42-.36-.56a.55.55,0,0,1,.41-.36.55.55,0,0,1,.36.41C77.34,58.13,77.12,58.27,76.92,58.5Z"/><path class="cls-1" d="M198.68,43.65c-.19.31-.35.56-.5.81-2.29,4-4.61,7.92-6.85,11.91a1.81,1.81,0,0,1-1.85,1c-4.43,0-8.87,0-13.3,0h-1.34v1.14h1.26c4.51,0,9,0,13.53,0a1.64,1.64,0,0,1,1.66,1c2.28,4,4.6,8,6.92,12,.16.28.35.54.52.81l.92-.61L191.73,58l7.92-13.73Zm-7.6,14.69c-.15,0-.29-.23-.44-.35.13-.15.25-.39.39-.41s.32.19.58.36C191.37,58.12,191.22,58.34,191.07,58.34Z"/><path class="cls-1" d="M206.22,72.33l.93-1.6c2.2-3.81,4.41-7.61,6.58-11.42a1.27,1.27,0,0,1,1.31-.78c.93.05,1.86,0,2.79,0h11.74a3.25,3.25,0,0,0,.5-.07V57.4h-1.35c-4.4,0-8.79,0-13.19,0a2,2,0,0,1-2-1.13c-2.2-3.94-4.48-7.82-6.74-11.72-.18-.32-.38-.62-.57-.93l-1,.6L213.18,58l-7.91,13.72Zm7.62-14.75c.14,0,.32.19.57.35-.23.19-.38.41-.53.41s-.29-.23-.44-.35C213.58,57.84,213.69,57.6,213.84,57.57Z"/><path class="cls-1" d="M297.14,215.34c-4.43,0-8.87,0-13.3,0a1.65,1.65,0,0,1-1.81-1.09,5.37,5.37,0,0,0-.39-.68L274.94,202a3.29,3.29,0,0,0-.31-.4L274,202l-.21.1v0l-.08.05.08.15V203c.54,0,.6.51.79.83q3.31,5.69,6.59,11.4c.07.11.12.23.17.34a1.66,1.66,0,0,1-.27,1.33c-2.27,3.85-4.49,7.74-6.72,11.62-.16.23-.37.43-.56.65v.37l-.06.12.06,0v.14l.87.46c.16-.27.32-.52.47-.77,2.35-4.06,4.71-8.12,7-12.2a2.21,2.21,0,0,1,.2-.29,1.61,1.61,0,0,1,.74-.46,1.76,1.76,0,0,1,.38,0c1.42,0,2.83,0,4.25,0H298a1.93,1.93,0,0,0,.39-.06h.09v0h0V215.4h0v-.06Zm-14.44.58a.55.55,0,0,1-.41.35c-.12,0-.3-.2-.34-.35.11-.14.21-.32.35-.35s.22.09.37.21A.23.23,0,0,1,282.7,215.92Z"/><path class="cls-1" d="M267.14,201.57c-.2.33-.36.58-.51.84-2.29,4-4.61,7.92-6.85,11.91a1.81,1.81,0,0,1-1.85,1c-4.43,0-8.87,0-13.3,0H243.3v1.14h1.27c4.51,0,9,0,13.53,0a1.64,1.64,0,0,1,1.66,1c2.28,4,4.6,8,6.92,12,.16.28.35.54.52.8l.92-.62-7.92-13.73,7.92-13.72Zm-7.61,14.71c-.15,0-.29-.23-.44-.35.13-.15.25-.39.39-.41s.32.19.58.35C259.82,216.06,259.67,216.28,259.53,216.27Z"/><path class="cls-1" d="M206.24,230.23,207,229c2-3.52,4.14-7,6-10.57a3.16,3.16,0,0,1,3.35-2c4.39.14,8.79,0,13.19,0a3.69,3.69,0,0,0,.51-.07v-1.06h-1.34c-4.4,0-8.79,0-13.19,0a2,2,0,0,1-2.08-1.23c-2.19-3.9-4.45-7.75-6.69-11.62-.18-.32-.38-.63-.57-.94l-1,.59,7.92,13.73-7.92,13.75Zm7.65-14.72c.15,0,.3.22.52.41-.25.17-.43.37-.57.35s-.26-.26-.39-.4C213.6,215.74,213.74,215.51,213.89,215.51Z"/><path class="cls-1" d="M198.68,201.58c-.21.34-.41.65-.59,1-2.24,3.87-4.5,7.72-6.68,11.63a2,2,0,0,1-2.11,1.18c-2.9-.06-5.81,0-8.72,0l-5.48,0a.86.86,0,0,0-.29.12v1h1.23c4.51,0,9,0,13.53,0a1.71,1.71,0,0,1,1.74,1c2.12,3.76,4.3,7.5,6.46,11.24l.91,1.55,1-.65-7.91-13.72,7.93-13.74Zm-7.61,14.69c-.15,0-.29-.23-.44-.35.13-.15.25-.39.39-.41s.32.19.58.35C191.37,216.06,191.22,216.28,191.07,216.27Z"/><path class="cls-1" d="M137.77,230.22c.14-.23.27-.41.38-.61,2.37-4.1,4.74-8.19,7.08-12.3a1.46,1.46,0,0,1,1.5-.86c1.9.05,3.8,0,5.7,0h8.72a2.59,2.59,0,0,0,.48-.08v-1h-1.36c-4.47,0-8.94,0-13.41,0a1.65,1.65,0,0,1-1.67-1c-2.28-4-4.6-8-6.91-12-.16-.28-.35-.55-.52-.82l-.94.59,7.92,13.73-7.92,13.74Zm7.62-14.71c.14,0,.32.18.57.35-.23.19-.38.41-.53.41s-.3-.22-.44-.35C145.12,215.78,145.24,215.54,145.39,215.51Z"/><path class="cls-1" d="M130.23,201.58c-.19.31-.37.59-.54.88-2.24,3.87-4.5,7.72-6.68,11.63a2.12,2.12,0,0,1-2.16,1.28c-4.36-.07-8.72,0-13.08,0h-1.38v1.14h1.22c4.47,0,8.94,0,13.41,0a1.88,1.88,0,0,1,1.91,1.13c2.12,3.77,4.3,7.5,6.46,11.24.28.48.56,1,.86,1.44l.94-.65-7.91-13.71,7.93-13.75Zm-7.66,14.69a.54.54,0,0,1-.36-.4c0-.14.22-.29.41-.52.17.25.38.43.36.57A.55.55,0,0,1,122.57,216.27Z"/><path class="cls-1" d="M78.59,215.37a1.77,1.77,0,0,1-2-1.19,4.29,4.29,0,0,0-.33-.58L69.57,202a3.31,3.31,0,0,0-.31-.39l-.89.57c.2.36.37.69.56,1,2.25,3.9,4.48,7.82,6.78,11.7a1.78,1.78,0,0,1,0,2.11c-2.29,3.88-4.52,7.8-6.77,11.7-.18.32-.34.64-.52,1l.92.61c.21-.35.43-.69.63-1,2.24-3.87,4.49-7.73,6.68-11.63a1.88,1.88,0,0,1,1.91-1.13c4.47.05,8.94,0,13.41,0h1.22v-1.14H91.89C87.46,215.34,83,215.3,78.59,215.37Zm-1.61.91c-.15,0-.29-.23-.44-.35.13-.15.25-.38.4-.41s.32.18.57.35C77.27,216.06,77.12,216.28,77,216.27Z"/><path class="cls-1" d="M61.77,201.58c-.21.34-.41.65-.59,1-2.2,3.81-4.39,7.62-6.6,11.42-.93,1.6-.45,1.36-2.41,1.37-3.73,0-7.45,0-11.18,0l-2.79,0a.88.88,0,0,0-.28.12v1h1.23c4.51,0,9,0,13.53,0a1.71,1.71,0,0,1,1.74,1c2.12,3.76,4.3,7.5,6.46,11.24l.91,1.55,1-.65-7.91-13.72,7.93-13.74Zm-7.66,14.69c-.14,0-.26-.26-.39-.41.15-.13.29-.35.44-.36s.29.22.52.42C54.43,216.09,54.26,216.29,54.11,216.27Z"/><path class="cls-1" d="M52.67,137.48a1.71,1.71,0,0,1,1.74,1c2.14,3.8,4.34,7.56,6.52,11.33.28.48.56,1,.85,1.45l.95-.64-7.91-13.72,7.93-13.74-1-.57c-.21.34-.41.65-.59,1-2.24,3.87-4.5,7.72-6.68,11.63a2,2,0,0,1-2.11,1.18c-2.94-.06-5.89,0-8.83,0l-5.36,0a.87.87,0,0,0-.29.12v1h1.23C43.66,137.51,48.16,137.53,52.67,137.48Zm1.49-.94c.15,0,.29.22.52.42-.25.16-.43.37-.58.35s-.26-.26-.39-.41C53.87,136.77,54,136.54,54.17,136.54Z"/><path class="cls-1" d="M91.86,136.37c-4.51,0-9,0-13.53,0a1.57,1.57,0,0,1-1.58-.91c-2.26-4-4.57-7.94-6.86-11.91-.18-.32-.38-.63-.59-1l-.94.63,7.91,13.71-7.92,13.73,1,.61c.3-.5.58-1,.86-1.46,2.16-3.74,4.34-7.47,6.46-11.24a1.88,1.88,0,0,1,1.93-1.1c4.69.05,9.39,0,14.08,0a5.1,5.1,0,0,0,.57-.07l-.07-1.07ZM77,137.3c-.15,0-.29-.23-.44-.35.13-.15.25-.38.39-.41s.32.18.57.35C77.27,137.09,77.12,137.31,77,137.3Z"/><path class="cls-1" d="M267.13,280.56c-.19.31-.37.59-.54.88-2.29,4-4.6,7.93-6.86,11.91a1.66,1.66,0,0,1-1.66,1c-4.47,0-8.94,0-13.41,0h-1.37v1.14h1.23c4.4,0,8.79,0,13.19,0a2.11,2.11,0,0,1,2.19,1.24c2.09,3.74,4.26,7.44,6.4,11.15.28.48.56,1,.84,1.43l1-.62-7.92-13.73,7.93-13.75Zm-7.6,14.84c-.19-.22-.42-.37-.42-.51a.54.54,0,0,1,.36-.41.55.55,0,0,1,.41.36C259.91,295,259.7,295.16,259.53,295.4Z"/><path class="cls-1" d="M130.22,280.55l-.5.84c-2.29,4-4.6,7.92-6.86,11.91a1.72,1.72,0,0,1-1.74,1c-4.51,0-9,0-13.53,0h-1.2v1.14h1.28c4.47,0,8.94,0,13.41,0a1.7,1.7,0,0,1,1.76,1c1.28,2.35,2.66,4.66,4,7l3.37,5.83,1-.63-7.91-13.72,7.92-13.74Zm-7.66,14.86c-.17-.25-.37-.42-.35-.56a.39.39,0,0,1,.77,0C123,295,122.75,295.18,122.56,295.41Z"/><path class="cls-1" d="M267.13,43.64c-.2.32-.35.58-.5.83-2.27,3.94-4.57,7.86-6.8,11.82a1.88,1.88,0,0,1-1.91,1.13c-4.43-.06-8.87,0-13.3,0H243.3v1.14h1.28c4.36,0,8.72,0,13.08,0,1.83,0,1.35-.27,2.3,1.36,2.34,4,4.66,8.06,7,12.09a1.86,1.86,0,0,0,.25.29l.91-.57L260.18,58l7.93-13.74Zm-7.65,14.69c-.15,0-.26-.26-.39-.41.15-.13.29-.35.44-.36s.3.22.53.41C259.8,58.15,259.63,58.36,259.48,58.34Z"/><path class="cls-1" d="M274.37,70.56c-.16.23-.37.43-.56.65v.32l-.1.18.1.06v.12l.87.46c.2-.33.4-.64.58-1,2.31-4,4.63-8,6.92-12a1.3,1.3,0,0,1,1.32-.77c1.41,0,2.83,0,4.25,0H298a3,3,0,0,0,.49-.08v-.09h0c0-.29,0-.56,0-.86v-.09h0V57.4h-1.35c-4.47,0-8.94,0-13.41,0a1.65,1.65,0,0,1-1.67-1c-2.28-4-4.6-8-6.91-12-.16-.28-.35-.54-.52-.81L274,44l-.2.09v0l-.1.06.1.17V45c.54,0,.6.51.79.83q3.34,5.74,6.64,11.5c.13.22.23.46.33.66l-.05.14Zm8-12.22c-.14,0-.27-.19-.41-.32a.55.55,0,0,1,.35-.37.54.54,0,0,1,.41.35.19.19,0,0,1,0,.11C282.55,58.23,282.44,58.34,282.34,58.33Z"/><path class="cls-1" d="M146.79,57.42a1.57,1.57,0,0,1-1.58-.91c-2.13-3.76-4.3-7.49-6.46-11.24l-1-1.66-1,.63L144.72,58l-7.92,13.73,1,.62.86-1.46c2.16-3.74,4.34-7.47,6.46-11.24a1.88,1.88,0,0,1,1.92-1.1c4.69.05,9.39,0,14.08,0a4.73,4.73,0,0,0,.55-.06V57.4H160.2C155.73,57.4,151.26,57.38,146.79,57.42Zm-1.41.92c-.15,0-.26-.26-.39-.4.15-.13.29-.35.44-.36s.29.22.52.41C145.7,58.15,145.53,58.36,145.39,58.34Z"/><path class="cls-1" d="M206.21,151.28c.19-.32.35-.57.5-.82,2.35-4.06,4.71-8.12,7-12.2a1.3,1.3,0,0,1,1.32-.77c1.56,0,3.13,0,4.7,0h9.84a3,3,0,0,0,.49-.08v-1.05h-1.24c-4.51,0-9,0-13.52,0a1.65,1.65,0,0,1-1.67-.95c-2.28-4-4.6-8-6.91-12-.16-.28-.35-.55-.52-.82l-.94.59,7.92,13.73-7.92,13.73Zm7.63-14.73a.54.54,0,0,1,.41.36c0,.14-.19.31-.35.56-.2-.22-.43-.37-.42-.51A.55.55,0,0,1,213.84,136.55Z"/><path class="cls-1" d="M130.23,43.64c-.2.32-.39.63-.58.95-2.29,4-4.6,7.93-6.86,11.91a1.57,1.57,0,0,1-1.58.92c-4.51,0-9,0-13.52,0h-1.33v1.14h1.32c4.51,0,9,0,13.52,0a1.56,1.56,0,0,1,1.59.9c2.22,3.92,4.49,7.82,6.74,11.72.22.38.45.76.7,1.18l.95-.64L123.28,58l7.92-13.74Zm-7.67,14.69a.54.54,0,0,1-.36-.41c0-.14.22-.29.42-.52.17.25.38.43.36.57A.55.55,0,0,1,122.56,58.33Z"/><path class="cls-1" d="M37.93,18v1h1.26c4.51,0,9,0,13.53,0a1.64,1.64,0,0,1,1.66,1c2.24,4,4.53,7.88,6.8,11.82.2.35.42.68.63,1l.95-.61L54.85,18.53,62.75,4.84l-1-.56c-.21.34-.41.65-.59,1C58.95,9.12,56.69,13,54.5,16.87a2,2,0,0,1-2,1.18c-4.43-.06-8.87,0-13.3,0Zm16.34.19c.12,0,.21.22.41.46a2.14,2.14,0,0,1-.72.11c-.09,0-.12-.28-.17-.43C53.95,18.31,54.12,18.19,54.27,18.22Z"/><path class="cls-1" d="M174.84,18v1h1.25c4.51,0,9,0,13.53,0a1.64,1.64,0,0,1,1.66,1c2.24,4,4.53,7.88,6.8,11.82.2.35.42.68.63,1l1-.61-7.89-13.68,7.9-13.69-1-.57c-.21.34-.4.65-.59,1-2.24,3.87-4.5,7.73-6.69,11.63a2,2,0,0,1-2,1.18c-4.43-.06-8.87,0-13.3,0Zm16.08.19a2,2,0,0,1,.67.2c-.22.21-.33.4-.46.41s-.3-.14-.45-.21C190.76,18.48,190.82,18.23,190.92,18.22Z"/><path class="cls-1" d="M206.23,32.8c.21-.35.43-.7.63-1.05,2.24-3.87,4.49-7.73,6.68-11.63A1.88,1.88,0,0,1,215.45,19c4.7.06,9.39,0,14.09,0,.18,0,.35,0,.57-.06l0-.94h-1.43c-4.43,0-8.87,0-13.3,0a1.72,1.72,0,0,1-1.74-1c-2.24-4-4.53-7.88-6.8-11.82-.18-.32-.38-.63-.57-.94l-1,.59,7.89,13.67-7.9,13.71Zm7.67-14.6c.1,0,.27.17.48.32-.22.15-.35.32-.49.32s-.27-.17-.41-.26C213.62,18.44,213.74,18.24,213.9,18.2Z"/><path class="cls-1" d="M69.31,32.81c.21-.34.43-.69.63-1,2.27-3.94,4.56-7.86,6.8-11.82A1.64,1.64,0,0,1,78.41,19c4.51,0,9,0,13.53,0H93.2c0-.23,0-.38,0-.52s0-.27,0-.48H91.75c-4.47,0-8.94,0-13.42,0a1.57,1.57,0,0,1-1.58-.91c-2.26-4-4.57-7.95-6.86-11.91-.18-.32-.38-.63-.59-1l-.94.63,7.88,13.65-7.9,13.7ZM77,18.2c.1,0,.27.17.48.32-.22.15-.36.32-.49.32s-.28-.17-.41-.26C76.71,18.44,76.83,18.24,77,18.2Z"/><path class="cls-1" d="M106.39,18v1h7.43c2.53,0,5.07,0,7.6,0a1.12,1.12,0,0,1,1.23.72,5.92,5.92,0,0,0,.39.68l6.93,12a3.46,3.46,0,0,0,.3.39l.92-.58-7.89-13.69,7.89-13.67-1-.61c-.21.36-.39.64-.56.93-2.29,4-4.6,7.93-6.86,11.91a1.65,1.65,0,0,1-1.68,1c-4.47,0-8.94,0-13.42,0Zm16.24.17c.1,0,.27.17.49.32-.22.15-.36.32-.49.32s-.27-.17-.41-.27C122.35,18.44,122.46,18.24,122.63,18.2Z"/><path class="cls-1" d="M137.77,32.8c.22-.36.43-.7.63-1.06,2.24-3.87,4.5-7.73,6.68-11.63A1.88,1.88,0,0,1,147,19c4.69.05,9.39,0,14.09,0,.18,0,.35,0,.59-.06l-.1-.94h-1.4c-4.4,0-8.79,0-13.19,0a1.88,1.88,0,0,1-1.91-1.13C142.87,13,140.59,9.1,138.34,5.2c-.18-.32-.38-.62-.57-.94l-1,.59,7.89,13.67-7.91,13.71Zm7.61-14.61c.13,0,.29.12.54.24-.2.19-.34.41-.43.39s-.32-.2-.48-.32C145.13,18.4,145.25,18.22,145.39,18.2Z"/><path class="cls-1" d="M243.3,18v1h1.29c4.55,0,9.09,0,13.64,0a1.39,1.39,0,0,1,1.41.81c1.18,2.12,2.41,4.2,3.62,6.3l3.87,6.7,1-.6-7.9-13.69L268.1,4.86l-1-.61-.56.93C264.31,9.12,262,13,259.78,17a1.81,1.81,0,0,1-1.85,1c-4.47,0-8.94,0-13.42,0Zm16.23.17c.1,0,.27.17.49.32-.22.15-.36.32-.49.32s-.27-.17-.41-.27C259.25,18.44,259.37,18.24,259.53,18.2Z"/><path class="cls-1" d="M274.38,31a3.92,3.92,0,0,1-.57.56V32l-.11.19.11.06v.2l.9.31c.17-.28.35-.56.51-.85,2.22-3.84,4.42-7.68,6.65-11.51.2-.34.33-.6.44-.79a1.64,1.64,0,0,1,.88-.58h1.08c1.79,0,3.58,0,5.36,0h8.6a1.19,1.19,0,0,0,.32-.1h0l-.07-.68v-.19h0V18H297.1c-4.43,0-8.87,0-13.3,0a1.72,1.72,0,0,1-1.74-1c-2.24-4-4.53-7.88-6.8-11.82-.18-.32-.38-.63-.57-.95l-.65.4-.21.1v0l-.1.06.1.17v.63c.54,0,.6.51.79.83,1.88,3.22,3.73,6.45,5.59,9.68l1.37,2.37-.06.17Zm8-12.22a1.27,1.27,0,0,1-.45-.29c.11-.11.21-.26.34-.28s.28.11.51.22C282.62,18.66,282.49,18.85,282.4,18.83Z"/><path class="cls-1" d="M274.68,151.3c.2-.33.4-.64.58-1,2.31-4,4.63-8,6.92-12a1.3,1.3,0,0,1,1.32-.77c1.49,0,3,0,4.47,0H298a3,3,0,0,0,.49-.08v-.06h0v-1.05h-1.35c-4.47,0-8.94,0-13.41,0a1.65,1.65,0,0,1-1.67-.95c-2.26-4-4.57-7.94-6.86-11.91-.18-.31-.38-.62-.57-.93L274,123l-.23.11v0l-.1.06.1.17V124c.54,0,.6.51.79.83q3.31,5.69,6.59,11.4c.15.25.27.52.38.76l-.05.14-7.15,12.4c-.16.23-.37.43-.56.65v.32l-.1.17.1.06v.12ZM282,136.82c.15-.12.27-.22.38-.21s.24.22.36.36a.54.54,0,0,1-.4.33.54.54,0,0,1-.36-.4A.2.2,0,0,1,282,136.82Z"/><path class="cls-1" d="M298.43,295.44h.09v0h0v-1.05h0v-.06h-1.38c-4.36,0-8.72,0-13.08,0a2,2,0,0,1-2.11-1.18c-1.74-3.17-3.59-6.27-5.39-9.4l-1.87-3.22-.63.39-.25.12v0l-.1.06.1.17v.63c.54,0,.6.51.79.83q3.31,5.69,6.59,11.4c.15.25.27.52.39.76l-.05.13-7.15,12.4a8.43,8.43,0,0,1-.56.66v.32l-.09.15.09.06v.14l.87.46c.16-.27.32-.52.47-.77,2.35-4.06,4.71-8.12,7-12.2a2.29,2.29,0,0,1,.2-.29,1.61,1.61,0,0,1,.75-.46,1.67,1.67,0,0,1,.37,0c1,0,2,0,3,0H298A2,2,0,0,0,298.43,295.44Zm-16.09-.2c-.14,0-.28-.2-.42-.33.12-.15.23-.35.36-.37s.3.16.54.32C282.62,295.05,282.48,295.24,282.34,295.24Z"/><path class="cls-1" d="M370.78,12.66,363.52.06h-1.34l7.63,13.21Z"/><path class="cls-1" d="M507.69,12.66,500.43.06h-1.34l7.63,13.21Z"/><path class="cls-1" d="M385,.06h-1.34l-7.27,12.6,1,.58Z"/><path class="cls-1" d="M439.23,12.66,432,.06h-1.34l7.63,13.21Z"/><path class="cls-1" d="M453.45.06h-1.34l-7.27,12.6,1,.58Z"/><path class="cls-1" d="M301.35,13.27l1-.61,0,0,0,0L295.07,0h-1.34l0,.06h0Z"/><path class="cls-1" d="M576.14,12.66,568.88.06h-1.34l7.63,13.21Z"/><path class="cls-1" d="M521.9.06h-1.34l-7.27,12.6,1,.58Z"/><path class="cls-1" d="M313.19,307.71v-.12l-4.28-7.35-1,.59,0,.06,0,0,6,10.47c.35.61.67,1.24,1,1.86h1.34c-.17-.33-.31-.67-.5-1Z"/><path class="cls-1" d="M364.9,308.79c-.85,1.48-1.67,3-2.5,4.46h1.34c.16-.33.31-.67.5-1l6-10.33c.2-.35.38-.7.58-1.05l-1-.55C368.13,303.19,366.51,306,364.9,308.79Z"/><path class="cls-1" d="M377.92,301.26c-.18-.32-.38-.63-.57-.94l-.95.6c.23.4.42.76.63,1.11l5.74,9.94c.24.42.44.85.66,1.28h1.34c-.17-.33-.31-.67-.5-1Z"/><path class="cls-1" d="M433.41,308.69c-.87,1.51-1.71,3-2.56,4.56h1.34c.18-.36.35-.73.55-1.08l5.91-10.23c.2-.35.38-.7.57-1.05l-1-.55C436.61,303.16,435,305.92,433.41,308.69Z"/><path class="cls-1" d="M446.37,301.26c-.18-.32-.38-.63-.57-.94l-1,.61,6,10.47c.35.61.66,1.24,1,1.86h1.34c-.17-.33-.31-.67-.5-1Z"/><path class="cls-1" d="M501.81,308.79c-.85,1.48-1.67,3-2.51,4.46h1.34c.16-.33.31-.67.49-1l6-10.33c.2-.35.38-.7.57-1.05l-1-.55C505,303.19,503.42,306,501.81,308.79Z"/><path class="cls-1" d="M514.83,301.26c-.18-.32-.38-.63-.57-.94l-.95.6c.23.4.42.76.63,1.11l5.74,9.94c.24.42.44.85.66,1.28h1.34c-.17-.33-.31-.67-.5-1Z"/><path class="cls-1" d="M570.32,308.69c-.87,1.51-1.71,3-2.56,4.56h1.34c.18-.36.35-.73.55-1.08l5.91-10.23c.2-.35.38-.7.57-1.05l-1-.55C573.52,303.16,571.91,305.92,570.32,308.69Z"/><path class="cls-1" d="M582.73,102.88l-1,.6,5.26,9.11v-2.46c-.59-1-1.19-1.94-1.77-2.92C584.39,105.77,583.56,104.33,582.73,102.88Z"/><path class="cls-1" d="M582.72,260.82l-1,.6,5.26,9.11v-2.46c-.59-1-1.19-1.94-1.77-2.92C584.39,263.71,583.56,262.26,582.72,260.82Z"/><path class="cls-1" d="M582.72,23.91l-1,.6L587,33.62V31.16c-.55-.91-1.12-1.81-1.65-2.73C584.46,26.93,583.6,25.42,582.72,23.91Z"/><path class="cls-1" d="M582.72,181.85l-1,.6,5.26,9.11V189.1c-.55-.91-1.12-1.81-1.65-2.73C584.46,184.87,583.6,183.36,582.72,181.85Z"/><path class="cls-1" d="M582.72,171.1l.68-1.14,3.61-6.14v-2.46l-5.26,9.16Z"/><path class="cls-1" d="M582.72,92.13l.68-1.14L587,84.85V82.39l-5.26,9.16Z"/><path class="cls-1" d="M582.72,250.06l.68-1.14,3.61-6.14v-2.46l-5.26,9.16Z"/><path class="cls-1" d="M581.75,221.93c.44.77.87,1.54,1.32,2.31l3.93,6.69v-2.24l-4.28-7.35Z"/><path class="cls-1" d="M581.75,64c.44.77.87,1.54,1.32,2.31L587,73V70.76l-4.28-7.35Z"/><path class="cls-1" d="M581.75,143c.44.77.87,1.54,1.32,2.31L587,152v-2.24l-4.28-7.35Z"/><path class="cls-1" d="M581.75,300.9c.44.77.87,1.54,1.32,2.31L587,309.9v-2.24l-4.28-7.35Z"/><path class="cls-1" d="M582.74,210.57l4.26-7.38V201l-5.27,9Z"/><path class="cls-1" d="M582.74,52.63,587,45.25V43l-5.27,9Z"/><path class="cls-1" d="M581.73,12.65l1,.61L587,5.88V3.64Z"/><path class="cls-1" d="M582.74,131.6l4.26-7.38V122l-5.27,9Z"/><path class="cls-1" d="M582.74,289.54l4.26-7.38v-2.24l-5.27,9Z"/><path class="cls-1" d="M585.54,98H587V96.93h-1.46Z"/><path class="cls-1" d="M585.54,256H587v-1.12h-1.47Z"/><path class="cls-1" d="M585.54,177H587V175.9h-1.46Z"/><path class="cls-1" d="M585.55,137.51l1.45.14v-1.12l-1.45-.1Z"/><path class="cls-1" d="M585.55,58.54l1.45.14V57.56l-1.45-.1Z"/><path class="cls-1" d="M585.55,295.44l1.45.14v-1.12l-1.45-.1Z"/><path class="cls-1" d="M585.55,216.48l1.45.14v-1.12l-1.45-.1Z"/><path class="cls-1" d="M585.55,19.08H587v-.9l-1.45-.1Z"/><path class="cls-1" d="M369.17,25c-2.18,3.78-4.34,7.56-6.54,11.32-1,1.65-.43,1.36-2.4,1.37-4.62,0-9.24,0-13.86,0a2.5,2.5,0,0,0-.4.06v1.1h1.27c4.43,0,8.87,0,13.3,0a2,2,0,0,1,2,1.18c2.08,3.7,4.22,7.37,6.35,11l.92,1.57,1-.58-7.94-13.76,8-13.8-1-.55C369.6,24.3,369.38,24.64,369.17,25Zm-7,13.72c-.15-.13-.39-.25-.42-.4s.19-.32.35-.58c.21.23.44.38.44.53S362.33,38.56,362.2,38.71Z"/><path class="cls-1" d="M506,25.17c-2.24,3.87-4.49,7.73-6.69,11.62a1.56,1.56,0,0,1-1.58.91c-4.55,0-9.09,0-13.64,0h-1.21v1.17h1.37c4.47,0,8.94,0,13.42,0a1.65,1.65,0,0,1,1.66,1c2.28,4,4.6,8,6.91,12,.16.28.35.53.52.8l.93-.59-7.93-13.75,8-13.79-1-.56Zm-6.87,13.51a.56.56,0,0,1-.42-.37c0-.13.22-.39.37-.41s.33.18.59.35C499.41,38.45,499.26,38.68,499.11,38.68Z"/><path class="cls-1" d="M472.48,241.11l-8,13.77H448.64V256h1.22c4.51,0,9,0,13.53,0a1.64,1.64,0,0,1,1.67.94c2.24,4,4.53,7.89,6.8,11.82.2.35.42.69.63,1l1-.61-7.92-13.73,7.93-13.76Zm-7.71,14.68c-.09,0-.33-.26-.3-.36s.24-.29.44-.52c.16.25.37.45.33.57A.64.64,0,0,1,464.77,255.8Z"/><path class="cls-1" d="M377.36,181.85l-1,.6,7.94,13.77L376.38,210l1,.57c.2-.32.38-.6.54-.89,2.29-4,4.6-7.93,6.86-11.92a1.65,1.65,0,0,1,1.67-1c4.47,0,8.94,0,13.42,0h1.33v-1.19H385.31Zm7.6,14.8c-.13-.15-.37-.3-.37-.45s.23-.3.43-.53c.17.26.38.44.36.57S385.12,196.51,385,196.65Z"/><path class="cls-1" d="M514.27,181.84l-1,.62,7.94,13.76L513.3,210l1,.61c.22-.36.39-.64.56-.93,2.24-3.87,4.5-7.73,6.68-11.63a2.12,2.12,0,0,1,2.19-1.24c4.36.07,8.72,0,13.08,0h1.34v-1.17H522.24Zm7.62,14.78c-.15,0-.27-.27-.41-.42.15-.13.3-.35.45-.36s.3.22.54.41C522.21,196.42,522,196.64,521.88,196.62Z"/><path class="cls-1" d="M327.61,254.89H313.19v-.08h-1.47v1.12h0V256H313c4.51,0,9,0,13.53,0a1.64,1.64,0,0,1,1.66,1c2.24,4,4.53,7.89,6.8,11.82.2.35.42.68.63,1l.95-.61-7.92-13.74,7.94-13.76-1-.58Zm.31,1.07c-.17-.25-.34-.4-.36-.57s.25-.33.34-.31.31.23.46.35Z"/><path class="cls-1" d="M308.89,210.56l0-.05h0l0,0c.17-.27.33-.52.48-.77,2.29-4,4.61-7.92,6.85-11.92a1.71,1.71,0,0,1,1.76-1c2.87.05,5.74,0,8.61,0h5.7a1.59,1.59,0,0,0,.38-.1v-1.06H318.38a6.74,6.74,0,0,0-.78,0,1,1,0,0,1-1.13-.68c-.17-.37-.41-.71-.61-1.07l-2.67-4.62V189c-.55-.91-1.12-1.81-1.65-2.73-.88-1.5-1.75-3-2.62-4.52l-1,.6,0,0,0,0,7.94,13.77L311.93,203l-4,6.85,0,0,0,.06Zm7.63-14.72c.15,0,.33.18.58.35-.24.2-.39.44-.54.43s-.3-.24-.45-.37C316.25,196.1,316.37,195.86,316.52,195.83Z"/><path class="cls-1" d="M540.29,242.21c-2.27,3.94-4.56,7.87-6.8,11.82a1.47,1.47,0,0,1-1.49.87c-4.55,0-9.09,0-13.64,0H517.1V256h1.22c4.47,0,8.95,0,13.42,0a1.8,1.8,0,0,1,1.85,1c2.21,3.93,4.49,7.82,6.74,11.73.2.35.42.7.63,1l1-.61L534,255.45l7.93-13.76-1-.57Zm-7,13.58c-.13,0-.26-.28-.3-.46s.27-.28.38-.26.3.22.55.42C533.59,255.65,533.39,255.83,533.24,255.79Z"/><path class="cls-1" d="M480.7,268.67c2.25-3.91,4.53-7.8,6.75-11.73a1.64,1.64,0,0,1,1.66-1c4.51,0,9,0,13.53,0h1.26v-1.11H488l-8-13.8-1,.62L487,255.44l-7.93,13.75,1,.58Zm7-13.58c.09,0,.36.18.36.28s-.16.33-.25.49l-.28.17c-.09-.19-.25-.39-.23-.57S487.52,255.14,487.69,255.09Z"/><path class="cls-1" d="M412.25,268.66c2.25-3.91,4.53-7.8,6.75-11.73a1.64,1.64,0,0,1,1.66-1c4.51,0,9,0,13.53,0h1.25v-1.12H419.56l-8-13.8-1,.63,7.92,13.73-7.93,13.75,1,.57Zm7-13.73c.16.25.32.41.33.58s-.26.32-.35.3-.3-.23-.45-.36Z"/><path class="cls-1" d="M404,241.12l-8,13.78H380.19V256h1.24c4.51,0,9,0,13.53,0a1.64,1.64,0,0,1,1.67,1c2.24,4,4.53,7.89,6.8,11.82.2.35.42.69.63,1l1-.59-7.93-13.75L405,241.69Zm-7.62,14.68c-.15,0-.27-.25-.41-.39.12-.12.25-.33.36-.32s.34.17.62.33C396.71,255.6,396.54,255.81,396.4,255.79Z"/><path class="cls-1" d="M343.14,269.77c.23-.39.45-.74.65-1.1,2.25-3.9,4.53-7.8,6.75-11.73a1.65,1.65,0,0,1,1.66-1c4.51,0,9,0,13.53,0H367v-1.1H351.11l-8-13.8-1,.61,7.92,13.74-7.93,13.75Zm7.57-14.68c.17,0,.34.16.63.31-.26.19-.42.41-.56.4s-.28-.24-.42-.37C350.47,255.3,350.59,255.09,350.71,255.09Z"/><path class="cls-1" d="M548.49,190.81c.21-.35.43-.69.63-1,2.18-3.78,4.35-7.56,6.54-11.32,1-1.69.44-1.4,2.49-1.41,4.32,0,8.65,0,13,0h1.21v-1.14H556.45l-8-13.78-1,.61,7.93,13.75-7.93,13.76ZM556.12,176c.19.24.37.38.4.54s-.23.35-.33.33-.32-.21-.48-.32Z"/><path class="cls-1" d="M540.31,163.2c-2.27,3.94-4.56,7.87-6.8,11.82a1.56,1.56,0,0,1-1.57.91c-4.55,0-9.09,0-13.64,0h-1.19V177h1.28c4.51,0,9,0,13.53,0a1.56,1.56,0,0,1,1.59.9c2.26,4,4.57,7.95,6.86,11.92.2.34.41.67.61,1l1-.6L534,176.48l7.94-13.77-1-.55C540.73,162.51,540.52,162.85,540.31,163.2Zm-7.07,13.63c-.12,0-.23-.22-.35-.34.14-.13.28-.36.43-.37s.3.21.55.4C533.59,176.67,533.42,176.83,533.24,176.83Z"/><path class="cls-1" d="M480,190.81c.21-.34.43-.69.63-1,2.27-3.94,4.56-7.86,6.8-11.82a1.64,1.64,0,0,1,1.67-.95c4.51,0,9,0,13.53,0h1.23V175.9H488l-8-13.79-1,.62L487,176.48l-7.93,13.75Zm7.59-14.69c.17,0,.34.16.62.31-.25.19-.42.41-.56.4s-.28-.24-.42-.37C487.38,176.33,487.5,176.12,487.62,176.12Z"/><path class="cls-1" d="M464.51,175.93H448.64V177h1.25c4.51,0,9,0,13.53,0a1.64,1.64,0,0,1,1.66,1c2.24,4,4.53,7.89,6.8,11.82.2.35.42.69.63,1l1-.59-7.93-13.75,7.93-13.76-1-.57Zm.29.9c-.09,0-.35-.22-.33-.32s.2-.31.38-.55l.43.54C465.12,176.61,465,176.79,464.8,176.83Z"/><path class="cls-1" d="M410.61,190.22l1,.58c.19-.32.37-.6.54-.89,2.31-4,4.64-8,6.92-12a1.53,1.53,0,0,1,1.59-.9c1.56.06,3.13,0,4.7,0H435a2.36,2.36,0,0,0,.41-.07v-1h-15.9l-8-13.77-1,.6,7.93,13.75Zm8.7-14.1c.1,0,.34.26.31.35s-.23.3-.43.52c-.16-.25-.38-.45-.34-.56A.64.64,0,0,1,419.3,176.12Z"/><path class="cls-1" d="M404,162.15c-.22.37-.44.72-.64,1.07-2.16,3.74-4.31,7.49-6.49,11.23-1,1.79-.44,1.46-2.57,1.47-4.58,0-9.17,0-13.75,0a2.17,2.17,0,0,0-.39.06v1h1.29c4.55,0,9.09,0,13.64,0a1.39,1.39,0,0,1,1.41.81c1.18,2.12,2.41,4.2,3.62,6.3l3.86,6.69,1-.57-7.94-13.76L405,162.7Zm-7.76,14.66c-.13-.05-.17-.32-.25-.49a1.49,1.49,0,0,1,.55-.16c.11,0,.19.24.35.46C396.64,176.71,396.42,176.86,396.28,176.81Z"/><path class="cls-1" d="M343.12,190.81c.21-.34.43-.69.63-1,2.27-3.94,4.56-7.87,6.8-11.82a1.64,1.64,0,0,1,1.67-.95c4.51,0,9,0,13.53,0H367V175.9H351.1l-8-13.79-1,.62,7.92,13.74-7.93,13.75ZM350.81,176c.16.25.32.41.33.58s-.26.32-.35.3-.3-.23-.45-.36Z"/><path class="cls-1" d="M335.58,162.12l-8,13.81H313.19v-.09h-1.46V177h0V177H313c4.51,0,9,0,13.53,0a1.64,1.64,0,0,1,1.67,1c2.24,4,4.53,7.89,6.8,11.82.2.35.42.69.63,1l1-.58-7.93-13.75,7.93-13.75Zm-7.65,14.71c-.09,0-.36-.19-.36-.29s.17-.33.32-.58l.48.5C328.22,176.59,328.1,176.78,327.93,176.83Z"/><path class="cls-1" d="M335.58,83.17l-.65,1.09c-2.24,3.87-4.5,7.73-6.68,11.63A1.77,1.77,0,0,1,326.32,97c-.85-.08-1.71,0-2.57,0H313.19v-.09h-1.46V97h0v1h1.33c4.47,0,8.95,0,13.42,0a1.71,1.71,0,0,1,1.74,1c2,3.54,4,7,6.07,10.56l1.3,2.23,1-.6-7.92-13.74,7.94-13.76Zm-7.73,14.69c-.09,0-.33-.26-.3-.35s.24-.3.44-.52c.16.25.37.46.33.57A.63.63,0,0,1,327.86,97.86Z"/><path class="cls-1" d="M506.73,260.84c-.21.34-.41.65-.59,1l-6.2,10.75c-.37.64-.63,1.52-1.19,1.84a5,5,0,0,1-2.28.19H483.26a3.3,3.3,0,0,0-.41.05v1.11h1.42c4.43,0,8.87,0,13.3,0a1.72,1.72,0,0,1,1.76,1c2.12,3.77,4.3,7.5,6.46,11.24l.92,1.57,1-.62-7.92-13.74,8-13.8Zm-7.67,14.74c-.15,0-.27-.27-.4-.42.15-.13.3-.36.45-.36s.3.22.54.42C499.39,275.39,499.21,275.61,499.06,275.59Z"/><path class="cls-1" d="M343.8,110.71c2.25-3.9,4.53-7.8,6.74-11.73a1.65,1.65,0,0,1,1.67-1c4.51,0,9,0,13.53,0H367V97H351.11l-8-13.82-1,.63,7.92,13.74-7.93,13.75,1,.57Zm7-13.57c.1,0,.34.26.31.35s-.23.3-.43.52c-.16-.25-.38-.45-.34-.56A.64.64,0,0,1,350.85,97.15Z"/><path class="cls-1" d="M404,83.16l-8,13.79H380.18v1.11h1.26c4.55,0,9.09,0,13.64,0a1.47,1.47,0,0,1,1.49.87c2.26,4,4.57,7.95,6.86,11.92.2.35.42.69.63,1l1-.6-7.92-13.74L405,83.75ZM396.37,98c-.17-.25-.34-.4-.36-.57s.25-.33.34-.31.31.23.46.35Z"/><path class="cls-1" d="M420.75,98c4.47.05,8.95,0,13.42,0h1.26V97H419.56l-8-13.8-1,.61,7.92,13.74-7.92,13.75,1,.58c.22-.36.41-.67.6-1,2.25-3.91,4.53-7.8,6.74-11.73A1.8,1.8,0,0,1,420.75,98Zm-1.47-.88c.13,0,.26.28.3.45s-.27.28-.38.26-.3-.22-.55-.41C418.95,97.3,419.14,97.12,419.29,97.15Z"/><path class="cls-1" d="M470.12,87.24c-1.71,3-3.45,5.93-5.13,8.91a1.28,1.28,0,0,1-1.41.8,7.08,7.08,0,0,0-.89,0H449.16a4.82,4.82,0,0,0-.51,0v1.05h7.43c2.53,0,5.07,0,7.6,0a1.12,1.12,0,0,1,1.23.71,5.56,5.56,0,0,0,.39.68l6.93,12a3.47,3.47,0,0,0,.3.39l.92-.58-7.92-13.74,7.94-13.78-1-.56ZM464.83,98c-.17-.25-.34-.4-.36-.57s.25-.33.34-.31.31.23.46.35Z"/><path class="cls-1" d="M480,111.83c.21-.35.43-.69.63-1,2.24-3.87,4.5-7.73,6.68-11.63A1.88,1.88,0,0,1,489.26,98c4.47.05,8.95,0,13.42,0h1.21V96.92H488l-8-13.77-1,.61L487,97.51l-7.93,13.76Zm7.58-14.69c.17,0,.34.16.62.31-.25.19-.42.41-.56.4s-.28-.24-.43-.37C487.38,97.37,487.5,97.15,487.62,97.15Z"/><path class="cls-1" d="M540.94,83.16l-8,13.79H517.09v1.11h1.26c4.51,0,9,0,13.53,0a1.64,1.64,0,0,1,1.66,1c2.24,4,4.53,7.89,6.8,11.82.2.35.42.69.63,1l1-.61L534,97.51l7.94-13.76ZM533.33,98c-.19-.23-.37-.37-.41-.54s.23-.35.32-.34a.63.63,0,0,1,.45.33C533.73,97.6,533.5,97.78,533.33,98Z"/><path class="cls-1" d="M548.5,111.83c.24-.4.45-.75.65-1.1,2.25-3.9,4.52-7.8,6.74-11.73a1.64,1.64,0,0,1,1.66-1c4.51,0,9,0,13.53,0h1.26V97H556.47l-8-13.8-1,.62,7.92,13.74-7.93,13.75Zm7.57-14.68c.17,0,.34.16.62.31-.26.19-.42.41-.56.4s-.28-.24-.43-.37C555.83,97.37,556,97.15,556.07,97.15Z"/><path class="cls-1" d="M575.16,260.84l-8,13.77H551.36v1.16h1.4c4.43,0,8.87,0,13.3,0a1.72,1.72,0,0,1,1.74,1c2.24,4,4.53,7.88,6.8,11.82.18.32.38.63.57.94l1-.59-7.93-13.75,8-13.79Zm-7.64,14.75c-.15,0-.27-.27-.4-.43.15-.13.3-.36.45-.36s.3.22.54.42C567.84,275.39,567.66,275.61,567.51,275.59Z"/><path class="cls-1" d="M307.93,52l1,.58c.2-.32.38-.6.54-.89,2.29-4,4.6-7.93,6.86-11.91a1.65,1.65,0,0,1,1.66-1c4.47,0,8.94,0,13.42,0h1.35V37.69h-1.29c-4.51,0-9,0-13.53,0a1.56,1.56,0,0,1-1.58-.91q-1.56-2.75-3.14-5.49V31.1c-.55-.91-1.12-1.81-1.65-2.73-.88-1.5-1.75-3-2.62-4.52l-1,.6,0,0,0,0,7.94,13.77-4,6.88-4,6.79,0,0Zm8.58-14.14c.15,0,.33.18.59.34-.23.2-.38.44-.53.44s-.3-.23-.45-.37C316.25,38.16,316.36,37.92,316.51,37.9Z"/><path class="cls-1" d="M376.39,52l1,.58c.21-.34.41-.65.59-1,2.26-3.9,4.54-7.79,6.74-11.72a1.87,1.87,0,0,1,1.93-1.09c2.91.06,5.81,0,8.72,0h5.48a1.57,1.57,0,0,0,.38-.1V37.69h-1.28c-4.36,0-8.72,0-13.08,0-1.86,0-1.36.23-2.24-1.26-1.33-2.25-2.61-4.52-3.91-6.78l-3.31-5.73-1,.56,8,13.8ZM385,37.9c.15,0,.33.18.59.34-.23.2-.39.44-.53.44s-.3-.23-.45-.37C384.7,38.16,384.82,37.92,385,37.9Z"/><path class="cls-1" d="M437.63,25c-2.18,3.78-4.34,7.56-6.54,11.32-1,1.65-.43,1.36-2.4,1.37-4.62,0-9.24,0-13.86,0a2.4,2.4,0,0,0-.4.06v1.1h1.38c4.4,0,8.8,0,13.19,0A2,2,0,0,1,431,40c2,3.64,4.15,7.24,6.24,10.85l1,1.76,1-.6L431.3,38.28l8-13.8-1-.55C438,24.3,437.83,24.64,437.63,25Zm-7,13.69a.56.56,0,0,1-.41-.38c0-.13.22-.39.37-.41s.33.19.59.35C431,38.45,430.8,38.68,430.65,38.68Z"/><path class="cls-1" d="M444.84,52l1,.58c.19-.3.37-.58.54-.87,2.29-4,4.61-7.92,6.85-11.92a1.71,1.71,0,0,1,1.76-1c2.79.05,5.59,0,8.38,0h5.92a1.6,1.6,0,0,0,.39-.1V37.69H455.18a7.35,7.35,0,0,0-.78,0,.89.89,0,0,1-1-.58c-.2-.4-.44-.78-.67-1.16L446,24.24a1.91,1.91,0,0,0-.25-.29l-.92.57,7.94,13.77Zm8.58-14.14c.15,0,.33.18.59.35-.23.2-.39.44-.54.44s-.3-.23-.45-.37C453.16,38.16,453.27,37.92,453.42,37.9Z"/><path class="cls-1" d="M513.29,52l1,.57c.21-.34.41-.65.59-1,2.26-3.9,4.53-7.8,6.75-11.72a1.81,1.81,0,0,1,1.82-1.08c4.4.05,8.79,0,13.19,0,.41,0,.82,0,1.23,0a.72.72,0,0,0,.25-.11v-1h-1.29c-4.55,0-9.09,0-13.64,0a1.39,1.39,0,0,1-1.41-.8c-1.36-2.44-2.78-4.85-4.18-7.27l-3.32-5.73-1,.6,7.94,13.77Zm8.59-14.15a.55.55,0,0,1,.42.36c0,.15-.2.33-.37.59-.2-.23-.42-.39-.42-.54A.55.55,0,0,1,521.88,37.9Z"/><path class="cls-1" d="M575.17,23.92l-.73,1.24c-2.22,3.84-4.45,7.67-6.63,11.53a1.71,1.71,0,0,1-1.74,1c-4.51-.05-9,0-13.53,0h-1.23v1.17h1.36c4.47,0,8.94,0,13.41,0a1.65,1.65,0,0,1,1.67,1c2.28,4,4.6,8,6.91,12,.16.28.35.54.52.81l.94-.59-7.93-13.75,7.95-13.78Zm-7.66,14.76c-.15,0-.27-.27-.4-.43.15-.13.3-.36.45-.36s.3.22.54.42C567.84,38.49,567.66,38.7,567.52,38.68Z"/><path class="cls-1" d="M308.9,131.59c.2-.33.4-.64.58-1,2.27-3.94,4.57-7.86,6.8-11.82a1.72,1.72,0,0,1,1.75-1c4.47,0,8.94,0,13.42,0h1.32v-1.2H316.86l-3.67-6.35v-.22c-.59-1-1.19-1.94-1.77-2.92-.84-1.44-1.67-2.88-2.51-4.33l-1,.6,0,0,0,0,7.94,13.77-3.95,6.85-4,6.83,0,0,0,.05Zm7.62-14.73c.15,0,.33.18.58.35-.23.2-.38.44-.53.44s-.3-.24-.45-.37C316.25,117.13,316.36,116.89,316.52,116.86Z"/><path class="cls-1" d="M514.27,289.52c.21-.34.38-.62.55-.91,2.29-4,4.6-7.93,6.86-11.91a1.65,1.65,0,0,1,1.67-.95c4.47,0,8.94,0,13.42,0h1.35V274.6H522.24l-8-13.78-1,.6,7.95,13.78-7.93,13.75Zm7.66-14.72c.14,0,.3.22.54.41-.26.18-.45.39-.59.37s-.27-.27-.4-.42C521.63,275,521.78,274.81,521.93,274.8Z"/><path class="cls-1" d="M361.83,116.67H346v1.16h1.4c4.43,0,8.87,0,13.3,0a1.72,1.72,0,0,1,1.74,1c2.24,4,4.53,7.88,6.8,11.82.18.32.38.63.57.94l1-.59-7.93-13.75,8-13.79-1-.55Zm.32,1c-.15,0-.27-.28-.4-.43.15-.13.3-.36.45-.36s.31.23.54.42C362.48,117.46,362.29,117.67,362.15,117.65Z"/><path class="cls-1" d="M430.3,116.66H414.41v1.17h1.23c4.4,0,8.79,0,13.19,0A2.12,2.12,0,0,1,431,119c2.2,3.93,4.48,7.82,6.74,11.72.16.28.35.55.52.82l.95-.59-7.93-13.75,8-13.79-1-.55Zm.36,1.16c-.19-.24-.42-.39-.42-.54a.4.4,0,0,1,.79,0C431,117.38,430.83,117.56,430.66,117.82Z"/><path class="cls-1" d="M438.24,260.85l-7.94,13.75H414.41v1.17h1.34c4.36,0,8.72,0,13.08,0A2.12,2.12,0,0,1,431,277c2.18,3.9,4.45,7.76,6.68,11.63.18.31.38.62.57.93l1-.59-7.93-13.75,8-13.8Zm-7.65,14.91c-.17-.26-.38-.44-.36-.59a.4.4,0,0,1,.79.05C431,275.37,430.79,275.52,430.59,275.75Z"/><path class="cls-1" d="M377.36,289.52c.2-.34.38-.62.55-.91,2.29-4,4.6-7.93,6.86-11.91a1.65,1.65,0,0,1,1.67-1c4.47,0,8.94,0,13.42,0h1.36V274.6H385.33l-8-13.79-1,.61,7.94,13.77-7.93,13.75ZM385,274.8c.15,0,.33.19.58.35-.24.2-.39.44-.54.43s-.3-.24-.45-.37C384.7,275.07,384.82,274.82,385,274.8Z"/><path class="cls-1" d="M369.81,260.83l-.67,1.14c-2.25,3.9-4.52,7.8-6.75,11.72a1.56,1.56,0,0,1-1.57.92c-4.55,0-9.09,0-13.64,0H346v1.17h1.36c4.47,0,8.94,0,13.42,0a1.65,1.65,0,0,1,1.67,1c2.28,4,4.6,8,6.91,12,.16.28.35.54.52.81l.94-.59-7.93-13.75,7.95-13.78Zm-7.66,14.79c-.13-.15-.37-.3-.37-.45s.23-.3.43-.53c.17.26.39.44.36.58S362.3,275.48,362.15,275.61Z"/><path class="cls-1" d="M444.84,131l1,.58c.21-.34.4-.65.59-1,2.26-3.9,4.54-7.79,6.74-11.72a1.87,1.87,0,0,1,1.93-1.09c2.94.06,5.89,0,8.83,0h5.37a1.53,1.53,0,0,0,.38-.1v-1.06h-1.28c-4.43,0-8.87,0-13.3,0a1.85,1.85,0,0,1-1.93-1.08c-1.27-2.36-2.66-4.66-4-7l-3.32-5.73-1,.59,7.95,13.78Zm8.64-14.14c.15,0,.3.22.53.42-.27.18-.45.39-.59.37s-.27-.27-.4-.43C453.17,117.09,453.33,116.87,453.48,116.87Z"/><path class="cls-1" d="M548.5,269.77c.24-.4.45-.75.65-1.1,2.25-3.91,4.53-7.8,6.75-11.73a1.65,1.65,0,0,1,1.66-1c4.51,0,9,0,13.53,0h1.26v-1.11H556.47l-8-13.8-1,.62,7.92,13.73-7.93,13.75Zm7.71-14.68c.1,0,.33.26.31.35s-.23.3-.44.52c-.16-.25-.38-.45-.34-.56A.64.64,0,0,1,556.21,255.09Z"/><path class="cls-1" d="M506.7,102.91l-8,13.77H482.91v1.16h1.41c4.4,0,8.79,0,13.19,0a1.88,1.88,0,0,1,1.91,1.13c2.21,3.93,4.49,7.82,6.74,11.72.18.32.38.62.57.93l1-.59-7.93-13.75,8-13.8Zm-7.64,14.77c-.13-.15-.36-.3-.37-.45s.23-.3.43-.53c.17.26.39.44.36.58S499.21,117.54,499.06,117.68Z"/><path class="cls-1" d="M575.15,102.91l-8,13.76H551.3l.05,1.16h1.3c4.4,0,8.79,0,13.19,0a2,2,0,0,1,2.08,1.23c2.19,3.9,4.45,7.75,6.69,11.63.18.32.38.62.57.93l1-.59-7.93-13.75,8-13.79Zm-7.64,14.74c-.15,0-.27-.27-.4-.42.15-.13.3-.36.45-.36s.3.22.54.41C567.84,117.45,567.66,117.67,567.52,117.65Z"/><path class="cls-1" d="M574.42,183.14c-2.25,3.9-4.52,7.8-6.75,11.72a1.25,1.25,0,0,1-1.31.78c-.67-.06-1.34,0-2,0H551.72a2.58,2.58,0,0,0-.37,0v1.11h1.39c4.47,0,8.94,0,13.42,0a1.57,1.57,0,0,1,1.59.9c2.15,3.79,4.34,7.56,6.52,11.34l.92,1.56,1-.62-7.93-13.74,8-13.8-1-.55Zm-6.91,13.48c-.15,0-.27-.28-.4-.43.15-.13.3-.35.45-.36s.3.22.54.42C567.84,196.43,567.66,196.64,567.51,196.62Z"/><path class="cls-1" d="M506.7,181.88l-7.94,13.75H482.87v1.17h1.34c4.29,0,8.57,0,12.86,0,2,0,1.52-.27,2.5,1.41,2.21,3.8,4.4,7.61,6.6,11.42.18.31.38.62.57.93l1-.6-7.93-13.75,8-13.79Zm-7.59,14.91c-.19-.24-.42-.39-.42-.54a.55.55,0,0,1,.37-.41.56.56,0,0,1,.42.36C499.5,196.35,499.29,196.53,499.11,196.79Z"/><path class="cls-1" d="M444.84,210l1,.58.5-.84c2.29-4,4.6-7.93,6.86-11.92a1.72,1.72,0,0,1,1.74-1c4.47,0,8.94,0,13.42,0h1.32v-1.18H453.77l-8-13.77-1,.6,7.95,13.78Zm8.64-14.15c.15,0,.3.22.54.41-.26.18-.44.39-.59.37s-.27-.27-.4-.42C453.17,196.06,453.32,195.84,453.48,195.83Z"/><path class="cls-1" d="M438.25,181.87l-.72,1.24c-2.24,3.87-4.49,7.74-6.69,11.62a1.56,1.56,0,0,1-1.58.91c-4.55,0-9.09,0-13.64,0h-1.21v1.17h1.37c4.47,0,8.94,0,13.42,0a1.65,1.65,0,0,1,1.66,1c2.28,4,4.6,8,6.92,12,.16.28.35.53.52.8l.93-.59-7.93-13.75,8-13.79Zm-7.65,14.78c-.13-.15-.36-.3-.37-.45s.23-.3.43-.53c.17.26.39.44.36.58S430.75,196.51,430.6,196.65Z"/><path class="cls-1" d="M361.83,195.64H346v1.16h1.43c4.43,0,8.87,0,13.3,0a1.72,1.72,0,0,1,1.74,1c2.24,4,4.53,7.88,6.8,11.82.18.32.38.63.57.94l1-.59-7.93-13.75,8-13.79-1-.56Zm.37,1.15c-.19-.24-.42-.39-.42-.54a.4.4,0,0,1,.79,0C362.59,196.35,362.38,196.53,362.2,196.79Z"/><path class="cls-1" d="M575.17,63.43c-.19.31-.39.62-.57.94-2.25,3.9-4.53,7.79-6.74,11.72A1.88,1.88,0,0,1,566,77.22c-4.47-.05-8.94,0-13.41,0h-1.22v1.15h15.88l8,13.78,1-.62-7.93-13.76L576.16,64Zm-7.61,14.71a.55.55,0,0,1-.41-.36c0-.15.19-.32.36-.57.2.23.42.38.42.53A.55.55,0,0,1,567.56,78.14Z"/><path class="cls-1" d="M575.17,142.4c-.2.32-.39.63-.58,1-2.29,4-4.59,7.92-6.86,11.91a1.57,1.57,0,0,1-1.57.93c-4.54,0-9.09,0-13.63,0h-1.21v1.16h15.88l8,13.77,1-.59-7.95-13.78L576.16,143Zm-7.61,14.71a.55.55,0,0,1-.42-.36c0-.15.19-.32.36-.58.2.23.43.38.43.53A.55.55,0,0,1,567.56,157.11Z"/><path class="cls-1" d="M514.91,249c2.27-3.93,4.56-7.86,6.8-11.81a1.55,1.55,0,0,1,1.57-.91c4.54,0,9.09,0,13.63,0h1.2v-1.15h-1.26c-4.51,0-9,0-13.52,0a1.65,1.65,0,0,1-1.66-1c-2.26-4-4.56-7.94-6.85-11.91-.18-.31-.38-.62-.57-.92l-1,.58,7.94,13.77-8,13.79,1,.56C514.49,249.68,514.7,249.33,514.91,249Zm7-13.66a.55.55,0,0,1,.42.36c0,.14-.19.32-.36.57-.2-.23-.44-.38-.43-.52A.56.56,0,0,1,521.88,235.32Z"/><path class="cls-1" d="M513.3,131l1,.59c.2-.32.4-.63.58-1,2.29-4,4.6-7.93,6.86-11.91a1.57,1.57,0,0,1,1.58-.92c4.51,0,9,0,13.53,0h1.31v-1.19H522.22l-8-13.77-1,.6,7.94,13.77Zm8.58-14.13a.55.55,0,0,1,.42.36c0,.15-.19.33-.37.59-.2-.23-.42-.39-.42-.54A.55.55,0,0,1,521.88,116.87Z"/><path class="cls-1" d="M438.27,63.41c-.23.38-.42.69-.61,1-2.25,3.9-4.53,7.79-6.74,11.72a1.8,1.8,0,0,1-1.82,1.09c-4.43-.05-8.87,0-13.3,0-.41,0-.82,0-1.23,0-.06,0-.11.08-.14.1v1h1.29c4.51,0,9,0,13.52,0a1.56,1.56,0,0,1,1.58.9c2.26,4,4.56,7.94,6.85,11.91.2.34.41.67.61,1l1-.6L431.3,77.77,439.24,64Zm-7.61,14.9c-.2-.23-.43-.38-.43-.52a.39.39,0,0,1,.79,0C431,77.88,430.83,78.06,430.66,78.31Z"/><path class="cls-1" d="M445.81,92.12c.23-.38.44-.73.65-1.08,2.27-3.93,4.56-7.86,6.8-11.81a1.56,1.56,0,0,1,1.58-.9c4.54,0,9.09,0,13.63,0h1.2V77.2H468.4c-4.51,0-9,0-13.52,0a1.65,1.65,0,0,1-1.66-1c-2.26-4-4.56-7.94-6.85-11.91-.18-.31-.38-.62-.56-.92l-1,.58,7.94,13.77-7.94,13.77Zm7.66-14.75c.15,0,.27.27.4.41-.15.13-.3.35-.45.35s-.3-.22-.54-.41C453.15,77.56,453.33,77.35,453.47,77.38Z"/><path class="cls-1" d="M506.73,92.15l1-.63-7.93-13.75L507.7,64l-1-.56c-.2.33-.4.64-.58,1-2.29,4-4.59,7.93-6.86,11.91a1.57,1.57,0,0,1-1.58.92c-4.54,0-9.09,0-13.63,0h-1.21v1.17h15.9Zm-7.61-14.94c.17.25.38.43.36.58a.56.56,0,0,1-.43.35.55.55,0,0,1-.36-.41C498.69,77.58,498.92,77.44,499.12,77.21Z"/><path class="cls-1" d="M514.81,91.22c2.12-3.68,4.31-7.32,6.33-11a3,3,0,0,1,3.17-1.87c4.47.14,8.94,0,13.41,0a2.58,2.58,0,0,0,.41-.07V77.2h-1.3c-4.43,0-8.87,0-13.3,0a1.88,1.88,0,0,1-1.93-1.09c-2.22-4-4.52-7.88-6.79-11.81-.18-.31-.38-.61-.57-.91l-.95.59,7.94,13.76-7.94,13.78,1,.57C514.46,91.79,514.64,91.5,514.81,91.22Zm7.12-13.84c.15,0,.27.27.4.42-.15.13-.3.35-.45.35s-.3-.22-.54-.41C521.6,77.56,521.78,77.35,521.93,77.37Z"/><path class="cls-1" d="M514.91,170c2.27-3.93,4.56-7.86,6.8-11.81a1.56,1.56,0,0,1,1.58-.9c4.54,0,9.09,0,13.63,0h1.2v-1.14h-1.26c-4.51,0-9,0-13.52,0a1.65,1.65,0,0,1-1.66-1c-2.26-4-4.56-7.94-6.85-11.91-.18-.31-.38-.62-.56-.92l-1,.58,7.94,13.77-7.95,13.79,1,.56C514.49,170.71,514.71,170.36,514.91,170Zm7-13.66a.56.56,0,0,1,.42.36c0,.14-.19.32-.36.57-.2-.23-.44-.38-.43-.52A.56.56,0,0,1,521.88,156.35Z"/><path class="cls-1" d="M575.17,221.35l-.62,1c-2.25,3.9-4.53,7.79-6.74,11.72a1.81,1.81,0,0,1-1.84,1c-4.47,0-8.94,0-13.41,0h-1.24v1.14H567.2l8,13.79,1-.6-7.94-13.77,7.94-13.77Zm-7.66,14.73c-.15,0-.27-.26-.4-.41.15-.13.3-.36.45-.36s.3.23.54.42C567.84,235.9,567.66,236.1,567.51,236.08Z"/><path class="cls-1" d="M453.79,157.31h15.88v-1.14h-1.24c-4.51,0-9,0-13.52,0a1.65,1.65,0,0,1-1.67-.95c-2.24-4-4.52-7.88-6.8-11.81-.2-.35-.42-.7-.62-1l-1,.58,7.94,13.77-8,13.79,1,.57Zm-.3-1.13c.17.25.38.43.36.58a.4.4,0,0,1-.79-.06C453.06,156.55,453.29,156.4,453.49,156.18Z"/><path class="cls-1" d="M438.25,142.4l-.61,1c-2.27,3.93-4.56,7.86-6.8,11.81a1.65,1.65,0,0,1-1.67,1c-4.51,0-9,0-13.52,0h-1.24v1.14h15.88l8,13.79,1-.6-7.94-13.77L439.25,143Zm-7.59,14.87c-.2-.23-.43-.38-.43-.52a.4.4,0,0,1,.79-.05C431,156.85,430.83,157,430.66,157.28Z"/><path class="cls-1" d="M497.82,157.3a1.39,1.39,0,0,1,1.4.81c1.38,2.47,2.82,4.91,4.23,7.36l3.26,5.63,1-.59-7.95-13.77L507.7,143l-1-.58c-.23.39-.43.71-.61,1-2.27,3.93-4.56,7.86-6.8,11.81a1.65,1.65,0,0,1-1.67,1c-4.51,0-9,0-13.52,0H482.9v1.14h1.29C488.74,157.31,493.28,157.33,497.82,157.3Zm1.29-1.12c.17.26.38.43.36.58a.56.56,0,0,1-.43.35.55.55,0,0,1-.36-.41C498.69,156.55,498.92,156.4,499.12,156.18Z"/><path class="cls-1" d="M385.33,157.31h15.88v-1.14H400c-4.51,0-9,0-13.52,0a1.65,1.65,0,0,1-1.67-.95c-2.26-4-4.56-7.94-6.85-11.91-.18-.32-.38-.63-.57-.95l-1,.6,7.93,13.75-8,13.79,1,.57Zm-.36-1c.14,0,.32.19.59.36-.24.19-.39.42-.54.41s-.3-.23-.45-.36C384.7,156.61,384.82,156.37,385,156.34Z"/><path class="cls-1" d="M369.82,142.38c-.22.37-.42.68-.6,1q-3.07,5.32-6.15,10.64c-.41.7-.72,1.64-1.35,2a5.31,5.31,0,0,1-2.4.15H346.47a3.5,3.5,0,0,0-.5.07v1.07h1.28c4.25,0,8.49,0,12.74,0,2.3,0,1.62-.36,2.74,1.55,2.18,3.73,4.32,7.48,6.48,11.22.2.35.41.68.62,1l1-.6-7.94-13.77L370.78,143Zm-7.67,14.73c-.15,0-.26-.27-.39-.41.15-.13.3-.36.45-.36s.3.23.54.43C362.48,156.93,362.3,157.13,362.15,157.11Z"/><path class="cls-1" d="M313.19,161.37v-.08l-5.26,9.16h0l0,0,1,.57,2.34-4.05,1.93-3.28v-.05l3.72-6.43h15.89l-.06-1.1h-1.29c-4.51,0-9,0-13.52,0a1.56,1.56,0,0,1-1.58-.92q-1.56-2.77-3.15-5.51v-.1l-4.28-7.35-1,.59,0,0,0,0,7.95,13.78Zm3.39-5.19c.17.25.38.43.36.58a.55.55,0,0,1-.42.35.55.55,0,0,1-.36-.41C316.15,156.55,316.38,156.4,316.58,156.18Z"/><path class="cls-1" d="M506.72,221.36c-.19.31-.39.62-.57.94-2.27,3.93-4.57,7.85-6.79,11.81a1.81,1.81,0,0,1-1.85,1c-4.47,0-8.94,0-13.41,0h-1.23v1.15h15.88l8,13.79,1-.61-7.94-13.76,7.94-13.77Zm-7.66,14.72c-.15,0-.27-.26-.4-.41.15-.13.3-.36.45-.36s.3.22.54.42C499.39,235.9,499.21,236.1,499.06,236.08Z"/><path class="cls-1" d="M438.26,221.37c-.21.36-.41.67-.6,1-2.27,3.93-4.56,7.86-6.8,11.81a1.65,1.65,0,0,1-1.66,1c-4.51,0-9,0-13.52,0h-1.25v1.15h1.29c4.51,0,9,0,13.52,0a1.56,1.56,0,0,1,1.58.9c2.26,4,4.56,7.94,6.85,11.91.2.34.41.67.61,1l1-.6L431.3,235.7l7.94-13.77Zm-7.6,14.7a.55.55,0,0,1-.42-.35c0-.15.19-.32.36-.58.2.23.43.38.43.53A.55.55,0,0,1,430.65,236.08Z"/><path class="cls-1" d="M309.54,91l2-3.52,1.61-2.74v0q1.58-2.75,3.15-5.5a1.56,1.56,0,0,1,1.57-.91c4.54,0,9.09,0,13.63,0h1.21V77.2H331.5c-4.51,0-9,0-13.52,0a1.65,1.65,0,0,1-1.66-1q-1.55-2.73-3.12-5.45v-.11l-4.28-7.35-1,.59,0,0,0,0,7.94,13.77-2.68,4.64v-.08l-5.26,9.16h0l0,.05,1,.58C309.12,91.75,309.34,91.4,309.54,91Zm7-13.83c.17.25.38.43.36.58a.4.4,0,0,1-.79-.06C316.15,77.59,316.38,77.44,316.58,77.21Z"/><path class="cls-1" d="M369.81,63.43c-.19.31-.39.63-.57.95-2.27,3.93-4.56,7.86-6.8,11.81a1.72,1.72,0,0,1-1.74,1c-4.51-.05-9,0-13.52,0H346v1.16h15.88l8,13.78,1-.62-7.93-13.76L370.8,64Zm-7.6,14.88c-.2-.23-.44-.37-.43-.52a.4.4,0,0,1,.79-.06C362.59,77.87,362.38,78.06,362.21,78.31Z"/><path class="cls-1" d="M377.35,131.59c.2-.33.4-.64.58-1,2.27-3.94,4.57-7.86,6.8-11.82a1.72,1.72,0,0,1,1.75-1c4.47,0,8.94,0,13.42,0h1.3v-1.2H385.31l-8-13.76-1,.6,7.94,13.77L376.39,131ZM385,116.87a.55.55,0,0,1,.36.41c0,.15-.23.3-.43.54-.17-.26-.38-.44-.36-.59A.56.56,0,0,1,385,116.87Z"/><path class="cls-1" d="M369.81,221.35c-.24.39-.43.71-.62,1-2.27,3.93-4.56,7.86-6.8,11.81a1.65,1.65,0,0,1-1.67,1c-4.51,0-9,0-13.52,0H346v1.14h15.87l8,13.8,1-.6-7.94-13.77,7.94-13.77Zm-7.67,14.9c-.17-.25-.38-.43-.35-.57a.39.39,0,0,1,.79.05C362.57,235.87,362.34,236,362.14,236.25Z"/><path class="cls-1" d="M385.33,236.28h15.88v-1.14H400c-4.51,0-9,0-13.52,0a1.65,1.65,0,0,1-1.67-.95c-2.26-4-4.56-7.94-6.85-11.91-.18-.32-.38-.63-.58-.95l-1,.6,7.93,13.75-8,13.79,1,.57Zm-.31-1c.15,0,.3.22.54.42-.26.17-.44.37-.59.35s-.27-.26-.4-.41C384.72,235.54,384.87,235.32,385,235.31Z"/><path class="cls-1" d="M445.81,289.52c.21-.35.39-.63.55-.92,2.27-3.94,4.57-7.86,6.8-11.82a1.81,1.81,0,0,1,1.85-1c4.43,0,8.87,0,13.3,0h1.34V274.6H453.78l-8-13.79-1,.6,7.94,13.77-7.93,13.75Zm7.66-14.72c.15,0,.3.22.54.41-.26.18-.44.39-.59.37s-.27-.27-.4-.42C453.17,275,453.32,274.81,453.48,274.8Z"/><path class="cls-1" d="M308.91,289.52c.21-.34.38-.62.55-.91,2.29-4,4.6-7.93,6.86-11.91a1.65,1.65,0,0,1,1.67-1c4.47,0,8.94,0,13.42,0h1.35V274.6H316.87l-3.69-6.38V268c-.59-1-1.19-1.94-1.77-2.92-.84-1.44-1.67-2.88-2.51-4.33l-1,.6,0,0,0,0,7.94,13.77-4,6.85-4,6.82,0,0,0,.05Zm7.61-14.72c.15,0,.33.18.58.35-.24.2-.39.43-.54.43s-.3-.24-.45-.37C316.25,275.07,316.37,274.82,316.52,274.8Z"/><path class="cls-1" d="M377.37,92.12l8-13.77h15.88V77.2H400c-4.47,0-8.94,0-13.41,0a1.81,1.81,0,0,1-1.85-1c-2.23-4-4.52-7.88-6.79-11.81-.18-.32-.38-.63-.58-1l-1,.6,7.93,13.75-8,13.79ZM385,77.21c.17.25.38.43.36.58a.55.55,0,0,1-.42.35.55.55,0,0,1-.36-.41C384.6,77.58,384.83,77.44,385,77.21Z"/><path class="cls-1" d="M309.38,249.25l2-3.53,1.76-3v-.05l2.46-4.25c.41-.7.72-1.62,1.34-2s1.52-.14,2.3-.14h13.08a2.74,2.74,0,0,0,.38-.05v-1.09H318.16c-.51,0-1-.05-1.54-.08v0h0a1.81,1.81,0,0,1,.31.53.5.5,0,0,1-.2.43.51.51,0,0,1-.47-.06.5.5,0,0,1-.07-.47,2,2,0,0,1,.44-.43l0,0h0a5.22,5.22,0,0,0-.31-.87l-3.13-5.42v-.13l-4.28-7.35-1,.59,0,0,0,0,7.94,13.76-2.68,4.64v-.08l-5.26,9.16h0l0,0,1,.57C309.08,249.76,309.24,249.51,309.38,249.25Z"/><path class="cls-1" d="M445.8,250.05c.18-.29.34-.54.49-.8q3.13-5.42,6.26-10.84c.41-.7.72-1.62,1.34-2s1.52-.14,2.29-.14h13.08a2.7,2.7,0,0,0,.38-.05v-1.09H455.07c-.51,0-1-.05-1.53-.08v0h0a1.81,1.81,0,0,1,.31.53.5.5,0,0,1-.2.43.51.51,0,0,1-.48-.06.5.5,0,0,1-.07-.47,2,2,0,0,1,.44-.43l0,0h0a5.21,5.21,0,0,0-.31-.87q-3.53-6.15-7.09-12.29c-.11-.18-.25-.35-.36-.52l-.93.58,7.94,13.76-7.95,13.78Z"/><path class="cls-1" d="M335.58,280.61c-.21.35-.41.66-.59,1-2.27,3.94-4.56,7.86-6.8,11.82a1.65,1.65,0,0,1-1.66,1c-4.47,0-8.94,0-13.41,0h-.36l-1-.07v1.08h0v.13h1.45c4.25,0,8.5,0,12.75,0,2,0,1.48-.32,2.54,1.51,2.17,3.73,4.32,7.48,6.49,11.22.2.35.42.69.63,1l1-.62-7.92-13.73,7.92-13.73ZM328,295.47c-.19-.22-.42-.37-.42-.52a.39.39,0,0,1,.77-.05C328.36,295,328.15,295.22,328,295.47Z"/><path class="cls-1" d="M404,122.68c-.21.34-.41.65-.59,1-2.22,3.84-4.47,7.65-6.62,11.53a2.19,2.19,0,0,1-2.28,1.28c-3.72-.07-7.45,0-11.18,0l-2.91,0a.87.87,0,0,0-.29.12v1h1.23c4.51,0,9,0,13.53,0a1.71,1.71,0,0,1,1.74,1c2.12,3.76,4.3,7.49,6.46,11.24l.9,1.55,1-.65L397.09,137,405,123.25Zm-7.66,14.69a.54.54,0,0,1-.36-.4c0-.14.22-.29.42-.52.17.25.38.43.36.57A.55.55,0,0,1,396.38,137.37Z"/><path class="cls-1" d="M434,136.43c-4.47,0-8.94,0-13.41,0a1.57,1.57,0,0,1-1.59-.9c-2.13-3.76-4.3-7.49-6.46-11.24l-1-1.66-1,.6L418.54,137l-7.91,13.73,1,.61c.24-.4.47-.77.69-1.16,2.22-3.84,4.45-7.67,6.63-11.53a1.88,1.88,0,0,1,1.92-1.11c4.69.05,9.39,0,14.08,0a5.42,5.42,0,0,0,.58-.06c0-.37,0-.68-.06-1.07Zm-14.77,1.1c-.2-.22-.42-.37-.42-.51a.55.55,0,0,1,.36-.41.54.54,0,0,1,.41.36C419.62,137.11,419.42,137.28,419.25,137.53Z"/><path class="cls-1" d="M472.49,122.69c-.2.33-.37.61-.54.89-2.29,4-4.6,7.93-6.86,11.91a1.65,1.65,0,0,1-1.67,1c-4.47,0-8.94,0-13.41,0h-1.36v1.14h1.25c4.51,0,9,0,13.53,0a1.64,1.64,0,0,1,1.67,1c2.24,4,4.53,7.88,6.8,11.82.2.34.41.68.62,1l1-.62L465.54,137l7.93-13.74Zm-7.66,14.68a.54.54,0,0,1-.36-.41c0-.14.22-.29.42-.52.17.25.38.43.35.57A.54.54,0,0,1,464.83,137.37Z"/><path class="cls-1" d="M540.95,122.67c-.21.34-.36.59-.51.85-2.29,4-4.6,7.92-6.86,11.91a1.72,1.72,0,0,1-1.75,1c-4.47,0-8.94,0-13.41,0h-1.31v1.14h1.28c4.47,0,8.94,0,13.41,0a1.7,1.7,0,0,1,1.76,1c1.28,2.35,2.66,4.66,4,7l3.37,5.83,1-.64L534,137l7.92-13.73Zm-7.61,14.7c-.15,0-.29-.23-.44-.35.13-.15.24-.39.39-.41s.32.19.58.36C533.63,137.15,533.48,137.37,533.34,137.37Z"/><path class="cls-1" d="M548.49,151.32c.18-.29.34-.54.48-.8,2.35-4.06,4.71-8.12,7-12.2a1.3,1.3,0,0,1,1.32-.77c1.49,0,3,0,4.47,0h10.06a3.1,3.1,0,0,0,.49-.08v-1.05H571c-4.47,0-8.94,0-13.41,0a1.65,1.65,0,0,1-1.67-.95c-2.26-4-4.57-7.94-6.86-11.91-.18-.31-.38-.62-.57-.93l-1,.6L555.45,137l-7.92,13.73Zm7.67-14.87c.16.25.37.43.35.57a.39.39,0,0,1-.77-.05C555.74,136.82,556,136.67,556.16,136.45Z"/><path class="cls-1" d="M572.33,295.51v-1.14H571c-4.36,0-8.72,0-13.08,0a2,2,0,0,1-2.11-1.18c-1.74-3.17-3.59-6.27-5.39-9.4l-1.87-3.22-1,.6,7.92,13.73-7.91,13.72.95.63c.23-.38.46-.76.68-1.14,2.22-3.84,4.45-7.67,6.63-11.53a1.88,1.88,0,0,1,1.91-1.13c4.47.06,8.94,0,13.41,0Zm-16.18-.2c-.15,0-.29-.22-.44-.35.13-.14.25-.38.4-.41s.32.18.57.35C556.45,295.09,556.3,295.31,556.15,295.31Z"/><path class="cls-1" d="M503.9,295.44v-1.07h-1.44c-4.47,0-8.94,0-13.41,0a1.57,1.57,0,0,1-1.58-.92c-2.26-4-4.57-7.94-6.86-11.91-.19-.32-.38-.63-.59-1l-.94.63L487,294.93l-7.92,13.74,1,.61,2.59-4.47c1.62-2.81,3.26-5.6,4.84-8.43a1.43,1.43,0,0,1,1.59-.88,5.86,5.86,0,0,0,.78,0h13.52A4.35,4.35,0,0,0,503.9,295.44Zm-16.25-.13c-.14,0-.29-.22-.52-.41.26-.17.43-.37.58-.35s.26.26.39.41C487.94,295.08,487.79,295.3,487.64,295.31Z"/><path class="cls-1" d="M466.19,296.1a1.94,1.94,0,0,1,0-2.31c2.3-3.84,4.5-7.73,6.73-11.6.2-.34.37-.7.55-1l-.95-.55c-.21.34-.4.65-.59,1-2.24,3.87-4.49,7.73-6.68,11.62a2,2,0,0,1-2,1.18c-4.4-.06-8.79,0-13.19,0h-1.38v1.14h1.22c4.47,0,8.94,0,13.41,0a1.88,1.88,0,0,1,1.91,1.13c2.17,3.86,4.41,7.69,6.63,11.53.22.38.45.76.69,1.15l.93-.64-.53-.94C470.68,303.84,468.47,300,466.19,296.1Zm-1.35-.8c-.15,0-.26-.26-.39-.41.15-.13.29-.36.44-.36s.3.23.52.42C465.16,295.12,465,295.33,464.83,295.31Z"/><path class="cls-1" d="M435.48,295.43l-.08-1.06H434c-4.43,0-8.87,0-13.3,0a1.66,1.66,0,0,1-1.74-1c-.59-1.16-1.29-2.27-1.94-3.4l-5.42-9.38-1,.6,7.92,13.74-7.92,13.74,1,.6.86-1.47c2.14-3.71,4.32-7.4,6.4-11.15a1.93,1.93,0,0,1,2.11-1.17c.85.08,1.71,0,2.57,0h11.4A4.75,4.75,0,0,0,435.48,295.43Zm-16.29,0c-.17-.25-.38-.42-.36-.56a.55.55,0,0,1,.41-.36.54.54,0,0,1,.36.4C419.61,295.1,419.38,295.24,419.19,295.47Z"/><path class="cls-1" d="M367,295.44l-.06-1.07h-1.39c-4.47,0-8.94,0-13.41,0a1.57,1.57,0,0,1-1.59-.9c-2.13-3.76-4.3-7.49-6.46-11.24l-1-1.67-1,.63,7.91,13.72-7.92,13.73,1,.62.85-1.45c2.16-3.74,4.34-7.47,6.46-11.24a1.88,1.88,0,0,1,1.92-1.11c4.69.05,9.39,0,14.08,0A5.64,5.64,0,0,0,367,295.44Zm-16.23-.13c-.15,0-.29-.23-.44-.35.13-.14.25-.38.4-.41s.32.18.57.35C351.08,295.09,350.93,295.31,350.79,295.31Z"/><path class="cls-1" d="M313,58.6h.22c4.36,0,8.72,0,13.08,0a2,2,0,0,1,2.08,1.23c2.17,3.87,4.41,7.69,6.63,11.53.2.35.42.69.64,1l.92-.64-.58-1c-2.23-3.87-4.45-7.75-6.72-11.6a1.78,1.78,0,0,1,0-2.11c2.3-3.87,4.53-7.79,6.78-11.7.2-.34.37-.7.55-1l-.95-.54c-.19.31-.37.59-.54.88-2.26,3.9-4.53,7.79-6.74,11.72a2,2,0,0,1-2,1.18c-4.4-.06-8.79,0-13.19,0h-.36l-1-.07v1.08h0v.13Zm15-1c.15,0,.3.22.52.42-.25.16-.43.37-.58.35s-.26-.26-.39-.41C327.68,57.87,327.83,57.64,328,57.64Z"/><path class="cls-1" d="M365.54,57.46c-4.43,0-8.87,0-13.3,0a1.72,1.72,0,0,1-1.74-1c-2.24-4-4.53-7.88-6.8-11.82-.18-.32-.38-.63-.57-.95l-1,.59L350.08,58l-7.92,13.74,1,.6L344,70.8c2.12-3.68,4.28-7.34,6.34-11a1.87,1.87,0,0,1,2.11-1.16,6.34,6.34,0,0,0,.89,0h13.08a4.68,4.68,0,0,0,.56-.07l-.08-1.06Zm-14.81,1.1c-.17-.25-.38-.42-.36-.56a.55.55,0,0,1,.41-.36.55.55,0,0,1,.36.41C351.15,58.19,350.93,58.34,350.73,58.56Z"/><path class="cls-1" d="M472.49,43.71c-.19.31-.35.56-.5.81-2.29,4-4.61,7.92-6.85,11.91a1.81,1.81,0,0,1-1.85,1c-4.43,0-8.87,0-13.3,0h-1.34V58.6h1.26c4.51,0,9,0,13.53,0a1.64,1.64,0,0,1,1.66,1c2.28,4,4.6,8,6.92,12,.16.28.35.54.52.81l.92-.61L465.54,58l7.92-13.73Zm-7.6,14.69c-.15,0-.29-.23-.44-.35.13-.15.25-.39.39-.41s.32.19.58.36C465.18,58.18,465,58.4,464.88,58.4Z"/><path class="cls-1" d="M480,72.39l.93-1.6c2.2-3.81,4.41-7.61,6.58-11.42a1.27,1.27,0,0,1,1.31-.78c.93.05,1.86,0,2.79,0h11.74a3.25,3.25,0,0,0,.5-.07V57.46h-1.35c-4.4,0-8.79,0-13.19,0a2,2,0,0,1-2-1.13c-2.2-3.94-4.48-7.82-6.74-11.72-.18-.32-.38-.62-.57-.93l-1,.6L487,58l-7.91,13.72Zm7.62-14.75c.14,0,.32.19.57.35-.23.19-.38.41-.53.41s-.29-.23-.44-.35C487.39,57.9,487.5,57.66,487.65,57.64Z"/><path class="cls-1" d="M557.65,215.43a1.65,1.65,0,0,1-1.81-1.09,5.39,5.39,0,0,0-.39-.68L548.75,202a3.29,3.29,0,0,0-.31-.4l-.9.57c.22.39.41.75.61,1.1,2.25,3.9,4.49,7.82,6.78,11.7a1.62,1.62,0,0,1,0,1.91c-2.31,3.92-4.56,7.86-6.83,11.8-.18.31-.35.64-.52,1l.94.62.95-1.63c2.12-3.68,4.27-7.34,6.35-11a1.88,1.88,0,0,1,1.91-1.13c4.47.05,8.94,0,13.41,0h1.22V215.4H571C566.52,215.4,562.09,215.37,557.65,215.43Zm-1.55.91a.54.54,0,0,1-.36-.4c0-.15.23-.29.43-.52.16.25.37.43.35.57A.55.55,0,0,1,556.1,216.34Z"/><path class="cls-1" d="M541,201.63c-.2.33-.36.58-.51.84-2.29,4-4.61,7.92-6.85,11.91a1.81,1.81,0,0,1-1.85,1c-4.43,0-8.87,0-13.3,0h-1.33v1.14h1.27c4.51,0,9,0,13.53,0a1.64,1.64,0,0,1,1.66,1c2.28,4,4.6,8,6.92,12,.16.28.35.54.52.8l.92-.62L534,216l7.92-13.72Zm-7.61,14.71c-.15,0-.29-.23-.44-.35.13-.15.25-.39.39-.41s.32.19.58.35C533.63,216.12,533.48,216.34,533.34,216.34Z"/><path class="cls-1" d="M480.05,230.3l.74-1.28c2-3.52,4.14-7,6-10.57a3.16,3.16,0,0,1,3.35-2c4.39.14,8.79,0,13.19,0a3.69,3.69,0,0,0,.51-.07V215.4h-1.34c-4.4,0-8.79,0-13.19,0a2,2,0,0,1-2.08-1.23c-2.19-3.9-4.45-7.75-6.69-11.62-.18-.32-.38-.63-.57-.94l-1,.59L487,216l-7.92,13.75Zm7.65-14.72c.15,0,.3.22.52.41-.25.17-.43.37-.57.35s-.26-.26-.39-.4C487.41,215.81,487.55,215.58,487.7,215.58Z"/><path class="cls-1" d="M472.5,201.64c-.21.34-.41.65-.59,1-2.24,3.87-4.5,7.72-6.68,11.63a2,2,0,0,1-2.11,1.18c-2.9-.06-5.81,0-8.72,0l-5.48,0a.86.86,0,0,0-.29.12v1h1.23c4.51,0,9,0,13.53,0a1.71,1.71,0,0,1,1.74,1c2.12,3.76,4.3,7.5,6.46,11.24l.91,1.55,1-.65L465.54,216l7.93-13.74Zm-7.61,14.69c-.15,0-.29-.23-.44-.35.13-.15.25-.39.39-.41s.32.19.58.35C465.18,216.12,465,216.34,464.89,216.34Z"/><path class="cls-1" d="M411.58,230.29c.14-.23.27-.41.38-.61,2.37-4.1,4.74-8.19,7.08-12.3a1.46,1.46,0,0,1,1.5-.86c1.9.05,3.8,0,5.7,0H435a2.59,2.59,0,0,0,.48-.08v-1h-1.36c-4.47,0-8.94,0-13.41,0a1.65,1.65,0,0,1-1.67-1c-2.28-4-4.6-8-6.91-12-.16-.28-.35-.55-.52-.82l-.94.59L418.54,216l-7.92,13.74Zm7.62-14.71c.14,0,.32.18.57.35-.23.19-.38.41-.53.41s-.3-.22-.44-.35C418.93,215.84,419,215.6,419.2,215.58Z"/><path class="cls-1" d="M404,201.65c-.19.31-.37.59-.54.88-2.24,3.87-4.5,7.72-6.68,11.63a2.12,2.12,0,0,1-2.16,1.28c-4.36-.07-8.72,0-13.08,0H380.2v1.14h1.22c4.47,0,8.94,0,13.41,0a1.88,1.88,0,0,1,1.91,1.13c2.12,3.77,4.3,7.5,6.46,11.24.28.48.56,1,.86,1.44l.94-.65L397.09,216,405,202.21Zm-7.66,14.69a.54.54,0,0,1-.36-.4c0-.14.22-.29.41-.52.17.25.38.43.36.57A.55.55,0,0,1,396.38,216.34Z"/><path class="cls-1" d="M352.4,215.43a1.77,1.77,0,0,1-2-1.19,4.29,4.29,0,0,0-.33-.58L343.38,202a3.32,3.32,0,0,0-.31-.39l-.89.57c.2.36.37.69.56,1,2.25,3.9,4.48,7.82,6.78,11.7a1.78,1.78,0,0,1,0,2.11c-2.29,3.88-4.52,7.8-6.77,11.7-.18.32-.34.64-.52,1l.92.61c.21-.35.43-.69.63-1,2.24-3.87,4.49-7.73,6.68-11.63a1.88,1.88,0,0,1,1.91-1.13c4.47.05,8.94,0,13.41,0H367V215.4H365.7C361.27,215.4,356.83,215.37,352.4,215.43Zm-1.61.91c-.15,0-.29-.23-.44-.35.13-.15.25-.38.4-.41s.32.18.57.35C351.08,216.12,350.93,216.34,350.79,216.34Z"/><path class="cls-1" d="M335.59,201.64c-.21.34-.41.65-.59,1-2.2,3.81-4.39,7.62-6.6,11.42-.93,1.6-.45,1.36-2.41,1.37-3.73,0-7.45,0-11.18,0l-1.77,0-1.3-.09v.21h0v1h1.46c4.43,0,8.87,0,13.3,0a1.71,1.71,0,0,1,1.74,1c2.12,3.76,4.3,7.5,6.46,11.24l.91,1.55,1-.65L328.63,216l7.93-13.74Zm-7.66,14.69c-.14,0-.26-.26-.39-.41.15-.13.29-.35.44-.36s.29.22.52.42C328.25,216.16,328.07,216.36,327.92,216.34Z"/><path class="cls-1" d="M313.1,137.57h.09c4.43,0,8.86,0,13.29,0a1.71,1.71,0,0,1,1.74,1c2.14,3.79,4.34,7.56,6.52,11.33.28.48.56,1,.85,1.45l.95-.64L328.63,137l7.93-13.74-1-.57c-.21.34-.41.65-.59,1-2.24,3.87-4.5,7.72-6.68,11.63a2,2,0,0,1-2.11,1.18c-2.94-.06-5.89,0-8.83,0l-4.27,0-1.37-.09v.21h0v1h1.37Zm14.88-1c.15,0,.29.22.52.42-.25.16-.43.37-.58.35s-.26-.26-.39-.41C327.68,136.83,327.83,136.61,328,136.61Z"/><path class="cls-1" d="M365.67,136.43c-4.51,0-9,0-13.53,0a1.57,1.57,0,0,1-1.58-.91c-2.26-4-4.57-7.94-6.86-11.91-.18-.32-.38-.63-.59-1l-.94.63L350.08,137l-7.92,13.73,1,.61c.3-.5.59-1,.86-1.46,2.16-3.74,4.34-7.47,6.46-11.24a1.88,1.88,0,0,1,1.93-1.1c4.69.05,9.39,0,14.08,0a5.08,5.08,0,0,0,.57-.07l-.07-1.07Zm-14.88.94c-.15,0-.29-.23-.44-.35.13-.15.25-.38.39-.41s.32.18.57.35C351.08,137.15,350.93,137.37,350.79,137.37Z"/><path class="cls-1" d="M540.94,280.62c-.19.31-.37.59-.54.88-2.29,4-4.6,7.93-6.86,11.91a1.66,1.66,0,0,1-1.66,1c-4.47,0-8.94,0-13.41,0H517.1v1.14h1.23c4.4,0,8.79,0,13.19,0a2.11,2.11,0,0,1,2.19,1.24c2.09,3.74,4.26,7.44,6.4,11.15.28.48.56,1,.84,1.43l1-.62L534,294.93l7.93-13.75Zm-7.6,14.84c-.19-.22-.42-.37-.42-.51a.54.54,0,0,1,.36-.41.55.55,0,0,1,.41.36C533.72,295,533.51,295.22,533.34,295.47Z"/><path class="cls-1" d="M404,280.61l-.5.84c-2.29,4-4.6,7.92-6.86,11.91a1.72,1.72,0,0,1-1.74,1c-4.51,0-9,0-13.53,0h-1.2v1.14h1.28c4.47,0,8.94,0,13.41,0a1.7,1.7,0,0,1,1.76,1c1.28,2.36,2.66,4.66,4,7l3.37,5.83,1-.63-7.91-13.72L405,281.19Zm-7.66,14.86c-.17-.25-.37-.42-.35-.56a.39.39,0,0,1,.77,0C396.79,295.1,396.57,295.25,396.37,295.47Z"/><path class="cls-1" d="M540.94,43.71c-.2.32-.35.58-.5.83-2.27,3.94-4.57,7.86-6.8,11.82a1.88,1.88,0,0,1-1.91,1.13c-4.43-.06-8.87,0-13.3,0h-1.32V58.6h1.28c4.36,0,8.72,0,13.08,0,1.83,0,1.35-.27,2.3,1.36,2.34,4,4.66,8.06,7,12.09a1.85,1.85,0,0,0,.25.29l.91-.57L534,58l7.93-13.74ZM533.29,58.4c-.15,0-.26-.26-.39-.41.15-.13.29-.35.44-.36s.3.22.53.41C533.61,58.22,533.44,58.42,533.29,58.4Z"/><path class="cls-1" d="M548.49,72.35c.15-.23.27-.42.38-.61,2.37-4.1,4.75-8.19,7.08-12.3a1.46,1.46,0,0,1,1.5-.85c2.38,0,4.77,0,7.15,0H572a1.61,1.61,0,0,0,.4-.11c0-.35,0-.63,0-1H571c-4.47,0-8.94,0-13.41,0a1.65,1.65,0,0,1-1.67-1c-2.28-4-4.6-8-6.91-12-.16-.28-.35-.54-.52-.81l-.94.59L555.45,58l-7.92,13.74Zm7.61-14.71c.14,0,.32.18.57.35-.23.19-.38.41-.53.41s-.29-.23-.44-.35C555.84,57.9,556,57.66,556.11,57.64Z"/><path class="cls-1" d="M420.6,57.48a1.57,1.57,0,0,1-1.58-.91c-2.13-3.76-4.3-7.49-6.46-11.24l-1-1.66-1,.63L418.54,58l-7.92,13.73,1,.62.86-1.46c2.16-3.74,4.34-7.47,6.46-11.24a1.88,1.88,0,0,1,1.92-1.1c4.69.05,9.39,0,14.08,0a4.73,4.73,0,0,0,.55-.06V57.46H434C429.54,57.46,425.07,57.45,420.6,57.48Zm-1.41.92c-.15,0-.26-.26-.39-.4.15-.13.29-.35.44-.36s.29.22.52.41C419.52,58.22,419.34,58.42,419.2,58.4Z"/><path class="cls-1" d="M480,151.35c.19-.32.35-.57.5-.82,2.35-4.06,4.71-8.12,7-12.2a1.3,1.3,0,0,1,1.32-.77c1.56,0,3.13,0,4.7,0h9.84a3,3,0,0,0,.49-.08v-1.05h-1.24c-4.51,0-9,0-13.52,0a1.65,1.65,0,0,1-1.67-.95c-2.28-4-4.6-8-6.91-12-.16-.28-.35-.55-.52-.82l-.94.59L487,137l-7.91,13.73Zm7.63-14.73a.54.54,0,0,1,.41.36c0,.14-.19.31-.35.56-.2-.22-.43-.37-.42-.51A.55.55,0,0,1,487.65,136.61Z"/><path class="cls-1" d="M404,43.7c-.2.32-.39.63-.58.95-2.29,4-4.6,7.93-6.86,11.91a1.57,1.57,0,0,1-1.58.92c-4.51,0-9,0-13.52,0h-1.33V58.6h1.32c4.51,0,9,0,13.52,0a1.56,1.56,0,0,1,1.59.9c2.22,3.92,4.49,7.82,6.74,11.72.22.38.45.76.7,1.18l.95-.64L397.09,58,405,44.29ZM396.38,58.4A.54.54,0,0,1,396,58c0-.14.22-.29.42-.52.17.25.38.43.36.57A.55.55,0,0,1,396.38,58.4Z"/><path class="cls-1" d="M312.79,18.09,311.74,18v1h0v.07H313c4.51,0,9,0,13.53,0a1.64,1.64,0,0,1,1.66,1c2.24,4,4.53,7.88,6.8,11.82.2.35.42.68.63,1l.95-.61-7.89-13.68L336.56,4.9l-1-.56c-.21.34-.41.65-.59,1-2.24,3.87-4.5,7.73-6.69,11.63a2,2,0,0,1-2,1.18c-4.43-.06-8.87,0-13.3,0Zm15.29.19c.12,0,.21.22.41.46a2.15,2.15,0,0,1-.72.11c-.09,0-.12-.28-.17-.43C327.76,18.37,327.93,18.25,328.08,18.28Z"/><path class="cls-1" d="M448.65,18.09v1h1.25c4.51,0,9,0,13.53,0a1.64,1.64,0,0,1,1.66,1c2.24,4,4.53,7.88,6.8,11.82.2.35.42.68.63,1l1-.61-7.89-13.68,7.9-13.69-1-.57c-.21.34-.4.65-.59,1-2.24,3.87-4.5,7.73-6.69,11.63a2,2,0,0,1-2,1.18c-4.43-.06-8.87,0-13.3,0Zm16.08.19a2,2,0,0,1,.67.2c-.22.21-.33.4-.46.41s-.3-.14-.45-.21C464.57,18.54,464.63,18.29,464.73,18.28Z"/><path class="cls-1" d="M480,32.87c.21-.35.43-.7.63-1.05,2.24-3.87,4.49-7.73,6.68-11.63a1.88,1.88,0,0,1,1.91-1.13c4.7.06,9.39,0,14.09,0,.18,0,.35,0,.57-.06l0-.94h-1.43c-4.43,0-8.87,0-13.3,0a1.72,1.72,0,0,1-1.74-1c-2.24-4-4.53-7.88-6.8-11.82-.18-.32-.38-.63-.57-.94l-1,.59L487,18.59l-7.9,13.71Zm7.67-14.6c.1,0,.27.17.48.32-.22.15-.35.32-.49.32s-.27-.17-.41-.26C487.43,18.5,487.55,18.31,487.71,18.26Z"/><path class="cls-1" d="M343.12,32.87c.21-.34.43-.69.63-1C346,27.9,348.31,24,350.55,20a1.64,1.64,0,0,1,1.67-.95c4.51,0,9,0,13.53,0H367c0-.23,0-.38,0-.52s0-.27,0-.48h-1.38c-4.47,0-8.94,0-13.42,0a1.57,1.57,0,0,1-1.58-.91c-2.26-4-4.57-7.95-6.86-11.91-.18-.32-.38-.63-.59-1l-.94.63L350,18.59l-7.9,13.7Zm7.68-14.61c.1,0,.27.17.48.32-.22.15-.36.32-.49.32s-.28-.17-.41-.26C350.52,18.5,350.64,18.31,350.8,18.26Z"/><path class="cls-1" d="M380.2,18.09v1h7.43c2.53,0,5.07,0,7.6,0a1.12,1.12,0,0,1,1.23.72,5.92,5.92,0,0,0,.39.68l6.93,12a3.46,3.46,0,0,0,.3.39l.92-.58-7.89-13.69L405,4.92l-1-.61c-.21.36-.39.64-.56.93-2.29,4-4.6,7.93-6.86,11.91a1.65,1.65,0,0,1-1.68,1c-4.47,0-8.94,0-13.42,0Zm16.24.17c.1,0,.27.17.49.32-.22.15-.36.32-.49.32s-.27-.17-.41-.27C396.16,18.5,396.28,18.31,396.44,18.26Z"/><path class="cls-1" d="M411.58,32.87c.22-.36.43-.7.63-1.06,2.24-3.87,4.5-7.73,6.68-11.63a1.88,1.88,0,0,1,1.91-1.12c4.69.05,9.39,0,14.09,0,.18,0,.35,0,.59-.06l-.1-.94H434c-4.4,0-8.79,0-13.19,0A1.88,1.88,0,0,1,418.89,17c-2.21-3.93-4.49-7.82-6.74-11.72-.18-.32-.38-.62-.57-.94l-1,.59,7.89,13.67L410.6,32.3Zm7.61-14.61c.13,0,.29.12.54.24-.2.19-.34.41-.43.39s-.32-.2-.48-.32C418.94,18.47,419.06,18.28,419.2,18.26Z"/><path class="cls-1" d="M517.11,18.09v1h1.29c4.55,0,9.09,0,13.64,0a1.39,1.39,0,0,1,1.41.81c1.18,2.12,2.41,4.2,3.62,6.3l3.87,6.7,1-.6L534,18.59l7.89-13.67-1-.61-.56.93c-2.27,3.94-4.57,7.86-6.8,11.82a1.81,1.81,0,0,1-1.85,1c-4.47,0-8.94,0-13.42,0Zm16.23.17c.1,0,.27.17.49.32-.22.15-.36.32-.49.32s-.27-.17-.41-.27C533.06,18.5,533.18,18.31,533.34,18.26Z"/><path class="cls-1" d="M548.49,32.87c.21-.35.43-.69.63-1,2.24-3.87,4.5-7.73,6.68-11.63a1.88,1.88,0,0,1,1.91-1.13c4.7.05,9.39,0,14.09,0,.18,0,.35,0,.59-.06l-.09-.94h-1.39c-4.43,0-8.87,0-13.3,0a1.72,1.72,0,0,1-1.74-1c-2.24-4-4.53-7.88-6.8-11.82-.18-.32-.38-.63-.57-.95l-1,.59,7.89,13.67-7.9,13.71Zm7.61-14.6c.13,0,.29.12.54.24-.2.19-.34.41-.43.39s-.33-.2-.49-.31C555.85,18.47,556,18.29,556.11,18.26Z"/></g></g></svg>