<svg xmlns="http://www.w3.org/2000/svg" width="44" height="40" viewBox="0 0 44 40">
    <defs>
        <linearGradient id="b" x1="113.409%" x2="35.661%" y1="55.58%" y2="55.58%">
            <stop offset="0%" stop-color="#1490E0"/>
            <stop offset="100%" stop-color="#20F0FF"/>
        </linearGradient>
        <linearGradient id="a" x1="190.762%" x2="-30.436%" y1="145.18%" y2="-38.197%">
            <stop offset="0%" stop-color="#1490E0"/>
            <stop offset="61.112%" stop-color="#17AAE8"/>
            <stop offset="100%" stop-color="#20F0FF"/>
        </linearGradient>
    </defs>
    <g fill="none" fill-rule="nonzero">
        <path fill="url(#b)" stroke="url(#a)" d="M20.778 0C17.606 0 15 2.606 15 5.778c0 3.06 2.38 5.495 5.325 5.722h.85c3.002-.227 5.325-2.72 5.325-5.722C26.557 2.606 23.95 0 20.778 0zm0 10.65a4.932 4.932 0 0 1-4.928-4.928c0-2.72 2.21-4.929 4.928-4.929 2.72 0 4.929 2.21 4.929 4.929 0 2.719-2.21 4.928-4.929 4.928zM36.694 27a5.696 5.696 0 0 0-4.736 2.537l-.394.733A5.937 5.937 0 0 0 31 32.75c0 3.157 2.593 5.75 5.75 5.75s5.75-2.593 5.75-5.75c-.056-3.213-2.65-5.75-5.806-5.75zm0 10.598a4.908 4.908 0 0 1-4.905-4.904 4.908 4.908 0 0 1 4.905-4.905 4.908 4.908 0 0 1 4.904 4.905 4.908 4.908 0 0 1-4.904 4.904zM10.88 30.27l-.395-.733A5.696 5.696 0 0 0 5.75 27C2.593 27 0 29.593 0 32.75s2.593 5.75 5.75 5.75 5.75-2.593 5.75-5.75a7.643 7.643 0 0 0-.62-2.48zm-5.186 7.384A4.908 4.908 0 0 1 .789 32.75a4.908 4.908 0 0 1 4.905-4.904 4.908 4.908 0 0 1 4.904 4.904 4.908 4.908 0 0 1-4.904 4.904z" transform="translate(1 1)"/>
        <path fill="#096FB4" d="M22.618 20.088L21.295 20v.088c-1.765.353-3.089 1.853-3.089 3.706 0 .441.089.882.265 1.235h-.088L19 26.176h.088c.706.795 1.676 1.324 2.912 1.324 1.147 0 2.205-.53 2.911-1.324h.089l.617-1.147h-.088c.176-.353.265-.794.265-1.235-.089-1.853-1.5-3.353-3.177-3.706zm-.706 6.177a2.466 2.466 0 0 1-2.47-2.47 2.466 2.466 0 0 1 2.47-2.471 2.466 2.466 0 0 1 2.47 2.47c0 1.324-1.146 2.47-2.47 2.47zM21 14h1.5v1.4H21zM21 17h1.5v1.4H21zM27.724 28.733l-1.475-.845.746-1.302 1.475.846zM30.6 30.321l-1.476-.845.746-1.301 1.475.845zM13.465 30.37l-.746-1.3 1.475-.846.746 1.301zM16.278 28.728l-.747-1.301 1.475-.846.746 1.301z"/>
    </g>
</svg>
