<?xml version="1.0" encoding="UTF-8"?>
<svg width="45px" height="45px" viewBox="0 0 45 45" version="1.1" xmlns="http://www.w3.org/2000/svg" xmlns:xlink="http://www.w3.org/1999/xlink">
    <!-- Generator: Sketch 50.2 (55047) - http://www.bohemiancoding.com/sketch -->
    <title>Page 1</title>
    <desc>Created with Sketch.</desc>
    <defs>
        <linearGradient x1="-1.11022302e-14%" y1="50%" x2="100%" y2="50%" id="linearGradient-1">
            <stop stop-color="#FF8080" offset="0%"></stop>
            <stop stop-color="#FF4949" offset="100%"></stop>
        </linearGradient>
    </defs>
    <g id="Mobile" stroke="none" stroke-width="1" fill="none" fill-rule="evenodd">
        <g id="iPhone-for-DEv" transform="translate(-23.000000, -1756.000000)">
            <g id="Group-46" transform="translate(-176.000000, 1695.000000)">
                <g id="Group-19" transform="translate(199.000000, 59.000000)">
                    <g id="Group-11">
                        <g id="Page-1" transform="translate(0.000000, 2.000000)">
                            <path d="M22.5,30 C18.358125,30 15,26.64375 15,22.5 C15,18.358125 18.358125,15 22.5,15 C26.641875,15 30,18.358125 30,22.5 C30,26.64375 26.641875,30 22.5,30 M43.125,18.75 L40.816875,18.75 C39.785625,18.75 38.68125,17.9475 38.36625,16.965 L37.63875,15.19125 C37.1625,14.278125 37.36875,12.931875 38.098125,12.2025 L39.733125,10.5675 C40.4625,9.838125 40.464375,8.645625 39.733125,7.91625 L37.08,5.265 C36.350625,4.535625 35.158125,4.535625 34.42875,5.265 L32.79375,6.9 C32.064375,7.629375 30.72,7.835625 29.805,7.359375 L28.033125,6.631875 C27.054375,6.315 26.25,5.2125 26.25,4.18125 L26.25,1.875 C26.25,0.84375 25.40625,0 24.375,0 L20.625,0 C19.59375,0 18.75,0.84375 18.75,1.875 L18.75,4.18125 C18.75,5.2125 17.945625,6.315 16.965,6.63 L15.19125,7.359375 C14.274375,7.835625 12.93,7.6275 12.2025,6.9 L10.5675,5.263125 C9.838125,4.53375 8.645625,4.53375 7.91625,5.263125 L5.265,7.91625 C4.535625,8.645625 4.535625,9.838125 5.265,10.5675 L6.9,12.2025 C7.629375,12.931875 7.835625,14.27625 7.359375,15.19125 L6.631875,16.965 C6.316875,17.945625 5.2125,18.75 4.18125,18.75 L1.875,18.75 C0.841875,18.75 0,19.59375 0,20.625 L0,24.375 C0,25.40625 0.84375,26.25 1.875,26.25 L4.18125,26.25 C5.2125,26.25 6.315,27.0525 6.631875,28.035 L7.359375,29.80875 C7.835625,30.721875 7.629375,32.068125 6.9,32.7975 L5.263125,34.434375 C4.53375,35.16375 4.53375,36.35625 5.263125,37.085625 L7.91625,39.736875 C8.6475,40.46625 9.83625,40.46625 10.5675,39.736875 L12.2025,38.101875 C12.931875,37.3725 14.27625,37.16625 15.19125,37.6425 L16.965,38.37 C17.945625,38.685 18.75,39.7875 18.75,40.81875 L18.75,43.125 C18.75,44.15625 19.59375,45 20.625,45 L24.375,45 C25.40625,45 26.25,44.15625 26.25,43.125 L26.25,42.1875 C25.648125,40.74375 25.3125,39.16125 25.3125,37.5 C25.3125,30.76875 30.76875,25.3125 37.5,25.3125 C39.16125,25.3125 40.741875,25.648125 42.1875,26.25 L43.125,26.25 C44.15625,26.25 45,25.40625 45,24.375 L45,20.625 C45,19.591875 44.15625,18.75 43.125,18.75" id="Fill-1" fill="url(#linearGradient-1)"></path>
                            <polygon id="Fill-3" fill="#FFFFFF" points="34.6 45 38.5 41.1005515 42.4 45 45 42.4003677 41.1 38.5009192 45 34.5996323 42.4 32 38.5 35.8994485 34.6 32 32 34.5996323 35.9 38.5009192 32 42.4003677"></polygon>
                        </g>
                    </g>
                </g>
            </g>
        </g>
    </g>
</svg>