<svg xmlns="http://www.w3.org/2000/svg" width="38" height="52" viewBox="0 0 38 52">
    <g fill="none" fill-rule="evenodd">
        <path fill="#00A8E7" fill-rule="nonzero" d="M19 0c-4.964 0-9.086 3.57-9.926 8.273H4.751c-1.953 0-3.5 1.612-3.562 3.508L.002 48.418C-.063 50.406 1.61 52 3.564 52h30.872c1.953 0 3.627-1.594 3.562-3.582L36.811 11.78c-.062-1.896-1.61-3.508-3.562-3.508h-4.323C28.086 3.57 23.964 0 19 0zm0 2.364c3.679 0 6.717 2.506 7.514 5.909H11.486c.797-3.403 3.835-5.91 7.514-5.91zM4.751 10.636h4.156v2.623c-1.044.461-1.78 1.497-1.78 2.696 0 1.617 1.342 2.954 2.968 2.954 1.625 0 2.968-1.337 2.968-2.954 0-1.199-.737-2.235-1.781-2.696v-2.623h15.436v2.623c-1.044.461-1.781 1.497-1.781 2.696 0 1.617 1.343 2.954 2.968 2.954 1.626 0 2.969-1.337 2.969-2.954 0-1.199-.737-2.235-1.781-2.696v-2.623h4.156c.677 0 1.164.498 1.187 1.22l1.187 36.635c.02.63-.51 1.145-1.187 1.145H3.564c-.678 0-1.208-.515-1.187-1.145l1.187-36.636c.023-.72.51-1.219 1.187-1.219zm5.344 4.728c.341 0 .593.25.593.59 0 .34-.252.591-.593.591a.575.575 0 0 1-.594-.59c0-.34.252-.591.594-.591zm17.81 0c.342 0 .594.25.594.59 0 .34-.252.591-.594.591a.575.575 0 0 1-.593-.59c0-.34.252-.591.593-.591z"/>
        <path fill="#31D1FF" d="M23 23c1.645 0 3 1.43 3 3.167 0 1.736-1.355 3.166-3 3.166-.767 0-1.467-.316-2-.824l-5.031 3.546a3.354 3.354 0 0 1 0 .907l5.015 3.546c.535-.518 1.241-.841 2.016-.841 1.645 0 3 1.43 3 3.166C26 40.57 24.645 42 23 42s-3-1.43-3-3.167c0-.15.012-.3.031-.445L15 34.842c-.533.508-1.233.825-2 .825-1.645 0-3-1.43-3-3.167 0-1.736 1.355-3.167 3-3.167.775 0 1.48.324 2.015.841l5.016-3.546a3.43 3.43 0 0 1-.03-.461C20 24.43 21.354 23 23 23zm0 2.111c-.564 0-1 .46-1 1.056 0 .595.436 1.055 1 1.055.564 0 1-.46 1-1.055 0-.596-.436-1.056-1-1.056zm-10 6.333c-.564 0-1 .46-1 1.056 0 .595.436 1.056 1 1.056.564 0 1-.46 1-1.056 0-.595-.436-1.056-1-1.056zm10 6.334c-.564 0-1 .46-1 1.055 0 .596.436 1.056 1 1.056.564 0 1-.46 1-1.056 0-.595-.436-1.055-1-1.055z"/>
    </g>
</svg>
