<?xml version="1.0" encoding="UTF-8"?>
<svg width="61px" height="61px" viewBox="0 0 61 61" version="1.1" xmlns="http://www.w3.org/2000/svg" xmlns:xlink="http://www.w3.org/1999/xlink">
    <!-- Generator: Sketch 50.2 (55047) - http://www.bohemiancoding.com/sketch -->
    <title>Page 1</title>
    <desc>Created with Sketch.</desc>
    <defs>
        <linearGradient x1="50%" y1="0%" x2="50%" y2="100%" id="linearGradient-1">
            <stop stop-color="#FF8080" offset="0%"></stop>
            <stop stop-color="#FF4949" offset="100%"></stop>
        </linearGradient>
    </defs>
    <g id="Mobile" stroke="none" stroke-width="1" fill="none" fill-rule="evenodd">
        <g id="iPhone-for-DEv" transform="translate(-23.000000, -1899.000000)">
            <g id="Group-46" transform="translate(-176.000000, 1695.000000)">
                <g id="Group-19" transform="translate(199.000000, 59.000000)">
                    <g id="Group-8" transform="translate(0.000000, 145.000000)">
                        <g id="Page-1">
                            <path d="M30.5,57.648742 L3.35125796,30.5 L30.5,3.35125796 L57.648742,30.5 L30.5,57.648742 Z M0,30.5 L30.5,61 L61,30.5 L30.5,0 L0,30.5 Z" id="Fill-1" fill="url(#linearGradient-1)"></path>
                            <path d="M24.55536,23 L23,24.5553356 L28.44442,30.00011 L23,35.4444444 L24.55536,37 L29.99978,31.5556656 L35.44464,37 L37,35.4444444 L31.55514,30.00011 L37,24.5553356 L35.44464,23 L29.99978,28.4447744 C29.99978,28.4447744 24.55536,23 24.55536,23" id="Fill-1" fill="#FF4949"></path>
                        </g>
                    </g>
                </g>
            </g>
        </g>
    </g>
</svg>