<svg xmlns="http://www.w3.org/2000/svg" width="38" height="48" viewBox="0 0 38 48">
    <g fill="none" fill-rule="nonzero">
        <path fill="#51D0FF" d="M9.176 7.422A4.7 4.7 0 0 0 10 4.779C10 2.137 7.765 0 5 0S0 2.137 0 4.78a4.7 4.7 0 0 0 .824 2.642L5 14l4.176-6.578zM1.765 4.779c0-1.687 1.47-3.092 3.235-3.092s3.235 1.405 3.235 3.092c0 .619-.176 1.18-.53 1.687L5 10.739 2.294 6.466a2.882 2.882 0 0 1-.53-1.687zM33 26c-2.765 0-5 2.128-5 4.76 0 .952.294 1.848.824 2.632L33 40l4.176-6.608c.53-.784.824-1.68.824-2.632 0-2.632-2.235-4.76-5-4.76zm2.706 6.496L33 36.752l-2.706-4.256a2.99 2.99 0 0 1-.53-1.68c0-1.68 1.471-3.08 3.236-3.08 1.765 0 3.235 1.4 3.235 3.08a2.99 2.99 0 0 1-.53 1.68z"/>
        <circle cx="33" cy="31" r="1" fill="#51D0FF"/>
        <circle cx="5" cy="5" r="1" fill="#51D0FF"/>
        <path fill="#00A8E7" d="M32.24 42.236c-1.27 0-2.318.848-2.65 2.035H17.12c-4.25 0-7.726-3.56-7.726-7.911 0-4.351 3.477-7.911 7.726-7.911h3.973c3.09 0 5.573-2.543 5.573-5.708 0-3.164-2.483-5.707-5.573-5.707H7.463C7.132 15.848 6.028 15 4.814 15 3.27 15 2 16.3 2 17.882s1.27 2.882 2.814 2.882c1.27 0 2.318-.848 2.649-2.035h13.63c2.152 0 3.917 1.809 3.917 4.012 0 2.204-1.765 4.012-3.917 4.012H17.12c-5.187 0-9.381 4.295-9.381 9.607 0 5.311 4.194 9.606 9.38 9.606h12.416C29.866 47.152 30.97 48 32.184 48c1.545 0 2.814-1.3 2.814-2.882.055-1.582-1.214-2.882-2.759-2.882zM4.813 19.125c-.662 0-1.159-.509-1.159-1.187s.497-1.186 1.16-1.186c.661 0 1.158.508 1.158 1.186a1.18 1.18 0 0 1-1.159 1.187zm27.425 27.18c-.662 0-1.159-.509-1.159-1.187s.497-1.186 1.16-1.186c.661 0 1.158.508 1.158 1.186a1.18 1.18 0 0 1-1.159 1.187z"/>
    </g>
</svg>
