<?xml version="1.0" encoding="UTF-8"?>
<svg width="41px" height="23px" viewBox="0 0 41 23" version="1.1" xmlns="http://www.w3.org/2000/svg" xmlns:xlink="http://www.w3.org/1999/xlink">
    <!-- Generator: Sketch 48.2 (47327) - http://www.bohemiancoding.com/sketch -->
    <title>Fill 1</title>
    <desc>Created with Sketch.</desc>
    <defs></defs>
    <g id="alternate-3" stroke="none" stroke-width="1" fill="none" fill-rule="evenodd" transform="translate(-668.000000, -6508.000000)">
        <g id="Roadmap" transform="translate(-5.000000, 5960.000000)" fill="#0FAEE9">
            <g id="Arrow" transform="translate(179.000000, 301.000000)">
                <g id="Group-3" transform="translate(494.000000, 247.000000)">
                    <path d="M40.2601504,10.7427259 L31.0120301,0.316998469 C30.6421053,-0.105666156 30.087218,-0.105666156 29.7172932,0.316998469 C29.3473684,0.739663093 29.3473684,1.37366003 29.7172932,1.79632466 L37.362406,10.4609495 L0.92481203,10.4609495 C0.431578947,10.4609495 0,10.9540582 0,11.517611 C0,12.0811639 0.431578947,12.5742726 0.92481203,12.5742726 L37.362406,12.5742726 L29.7172932,21.2388974 C29.3473684,21.661562 29.3473684,22.295559 29.7172932,22.7182236 C29.9022556,22.9295559 30.1488722,23 30.3954887,23 C30.6421053,23 30.8887218,22.9295559 31.0736842,22.7182236 L40.3218045,12.2924962 L41,11.517611 L40.2601504,10.7427259 Z" id="Fill-1" transform="translate(20.500000, 11.500000) scale(-1, 1) translate(-20.500000, -11.500000) "></path>
                </g>
            </g>
        </g>
    </g>
</svg>