<svg xmlns="http://www.w3.org/2000/svg" xmlns:xlink="http://www.w3.org/1999/xlink" width="38" height="48" viewBox="0 0 38 48">
    <defs>
        <linearGradient id="c" x1="65.808%" x2="59.513%" y1="85.631%" y2="-55.374%">
            <stop offset="0%" stop-color="#1490E0"/>
            <stop offset="100%" stop-color="#20F0FF"/>
        </linearGradient>
        <path id="b" d="M9.176 7.422A4.7 4.7 0 0 0 10 4.779C10 2.137 7.765 0 5 0S0 2.137 0 4.78a4.7 4.7 0 0 0 .824 2.642L5 14l4.176-6.578zM1.765 4.779c0-1.687 1.47-3.092 3.235-3.092s3.235 1.405 3.235 3.092c0 .619-.176 1.18-.53 1.687L5 10.739 2.294 6.466a2.882 2.882 0 0 1-.53-1.687z"/>
        <filter id="a" width="240%" height="200%" x="-70%" y="-35.7%" filterUnits="objectBoundingBox">
            <feOffset dy="2" in="SourceAlpha" result="shadowOffsetOuter1"/>
            <feMorphology in="SourceAlpha" radius="2" result="shadowInner"/>
            <feOffset dy="2" in="shadowInner" result="shadowInner"/>
            <feComposite in="shadowOffsetOuter1" in2="shadowInner" operator="out" result="shadowOffsetOuter1"/>
            <feGaussianBlur in="shadowOffsetOuter1" result="shadowBlurOuter1" stdDeviation="2"/>
            <feColorMatrix in="shadowBlurOuter1" values="0 0 0 0 0.0332785885 0 0 0 0 0.326671603 0 0 0 0 0.537547832 0 0 0 0.150249094 0"/>
        </filter>
        <path id="e" d="M33 26c-2.765 0-5 2.128-5 4.76 0 .952.294 1.848.824 2.632L33 40l4.176-6.608c.53-.784.824-1.68.824-2.632 0-2.632-2.235-4.76-5-4.76zm2.706 6.496L33 36.752l-2.706-4.256a2.99 2.99 0 0 1-.53-1.68c0-1.68 1.471-3.08 3.236-3.08 1.765 0 3.235 1.4 3.235 3.08a2.99 2.99 0 0 1-.53 1.68z"/>
        <filter id="d" width="240%" height="200%" x="-70%" y="-35.7%" filterUnits="objectBoundingBox">
            <feOffset dy="2" in="SourceAlpha" result="shadowOffsetOuter1"/>
            <feMorphology in="SourceAlpha" radius="2" result="shadowInner"/>
            <feOffset dy="2" in="shadowInner" result="shadowInner"/>
            <feComposite in="shadowOffsetOuter1" in2="shadowInner" operator="out" result="shadowOffsetOuter1"/>
            <feGaussianBlur in="shadowOffsetOuter1" result="shadowBlurOuter1" stdDeviation="2"/>
            <feColorMatrix in="shadowBlurOuter1" values="0 0 0 0 0.0332785885 0 0 0 0 0.326671603 0 0 0 0 0.537547832 0 0 0 0.150249094 0"/>
        </filter>
        <linearGradient id="f" x1="113.409%" x2="35.661%" y1="55.58%" y2="55.58%">
            <stop offset="0%" stop-color="#14ACE0"/>
            <stop offset="100%" stop-color="#00EABD"/>
        </linearGradient>
    </defs>
    <g fill="none" fill-rule="nonzero">
        <g opacity=".776">
            <use fill="#000" filter="url(#a)" xlink:href="#b"/>
            <path stroke="url(#c)" stroke-linejoin="square" stroke-width="2" d="M5 12.134l3.332-5.248.015-.022A3.7 3.7 0 0 0 9 4.779C9 2.7 7.222 1 5 1S1 2.7 1 4.78c0 .736.223 1.444.668 2.106L5 12.134zM.765 4.78C.765 2.53 2.693.687 5 .687c2.307 0 4.235 1.843 4.235 4.092a3.84 3.84 0 0 1-.684 2.222L5 12.608l-.845-1.334-2.681-4.236a3.882 3.882 0 0 1-.71-2.259z"/>
        </g>
        <g opacity=".776">
            <use fill="#000" filter="url(#d)" xlink:href="#e"/>
            <path stroke="url(#c)" stroke-linejoin="square" stroke-width="2" d="M33 38.128l3.348-5.296c.429-.635.652-1.34.652-2.072 0-2.068-1.777-3.76-4-3.76s-4 1.692-4 3.76c0 .733.223 1.437.669 2.098L33 38.128zm3.539-5.078L33 38.616l-.844-1.327-2.681-4.22a3.99 3.99 0 0 1-.71-2.253c0-2.244 1.929-4.08 4.235-4.08s4.235 1.836 4.235 4.08a3.99 3.99 0 0 1-.696 2.234z"/>
        </g>
        <path fill="#FFF" d="M32.24 42.236c-1.27 0-2.318.848-2.65 2.035H17.12c-4.25 0-7.726-3.56-7.726-7.911 0-4.351 3.477-7.911 7.726-7.911h3.973c3.09 0 5.573-2.543 5.573-5.708 0-3.164-2.483-5.707-5.573-5.707H7.463C7.132 15.848 6.028 15 4.814 15 3.27 15 2 16.3 2 17.882s1.27 2.882 2.814 2.882c1.27 0 2.318-.848 2.649-2.035h13.63c2.152 0 3.917 1.809 3.917 4.012 0 2.204-1.765 4.012-3.917 4.012H17.12c-5.187 0-9.381 4.295-9.381 9.607 0 5.311 4.194 9.606 9.38 9.606h12.416C29.866 47.152 30.97 48 32.184 48c1.545 0 2.814-1.3 2.814-2.882.055-1.582-1.214-2.882-2.759-2.882zM4.813 19.125c-.662 0-1.159-.509-1.159-1.187s.497-1.186 1.16-1.186c.661 0 1.158.508 1.158 1.186a1.18 1.18 0 0 1-1.159 1.187zm27.425 27.18c-.662 0-1.159-.509-1.159-1.187s.497-1.186 1.16-1.186c.661 0 1.158.508 1.158 1.186a1.18 1.18 0 0 1-1.159 1.187z"/>
        <circle cx="33" cy="31" r="1" fill="url(#f)"/>
        <circle cx="5" cy="5" r="1" fill="url(#f)"/>
    </g>
</svg>
