<?xml version="1.0" encoding="UTF-8"?>
<svg width="111px" height="45px" viewBox="0 0 111 45" version="1.1" xmlns="http://www.w3.org/2000/svg" xmlns:xlink="http://www.w3.org/1999/xlink">
    <!-- Generator: Sketch 48.2 (47327) - http://www.bohemiancoding.com/sketch -->
    <title>Group 11</title>
    <desc>Created with Sketch.</desc>
    <defs></defs>
    <g id="Light-Blue-Theme" stroke="none" stroke-width="1" fill="none" fill-rule="evenodd" transform="translate(-130.000000, -590.000000)">
        <g id="Group-11" transform="translate(130.000000, 586.000000)" fill="#FFFFFF">
            <path d="M0.50390625,11.9453125 L1.13085938,11.3183594 C1.47461109,11.6621111 1.82421697,11.9042962 2.1796875,12.0449219 C2.53515803,12.1855476 2.96093502,12.2558594 3.45703125,12.2558594 C4.08203437,12.2558594 4.57421695,12.1162123 4.93359375,11.8369141 C5.29297055,11.5576158 5.47265625,11.1699244 5.47265625,10.6738281 C5.47265625,10.2011695 5.33593887,9.84375121 5.0625,9.6015625 C4.92578057,9.48046814 4.78613353,9.3945315 4.64355469,9.34375 C4.50097585,9.2929685 4.26953285,9.24414086 3.94921875,9.19726562 L2.953125,9.0390625 C2.2734341,8.92578068 1.75000184,8.71093908 1.3828125,8.39453125 C0.949216582,8.01171684 0.732421875,7.47851904 0.732421875,6.79492188 C0.732421875,6.06835574 0.978513164,5.48535376 1.47070312,5.04589844 C1.96289309,4.60644312 2.62890205,4.38671875 3.46875,4.38671875 C4.01172146,4.38671875 4.47949022,4.4580071 4.87207031,4.60058594 C5.2646504,4.74316478 5.64452941,4.9824202 6.01171875,5.31835938 L5.42578125,5.91015625 C4.89062232,5.42187256 4.22656646,5.17773438 3.43359375,5.17773438 C2.87499721,5.17773438 2.43554848,5.32128763 2.11523438,5.60839844 C1.79492027,5.89550925 1.63476562,6.27929447 1.63476562,6.75976562 C1.63476562,7.19336154 1.76171748,7.52148326 2.015625,7.74414062 C2.28125133,7.97461053 2.66601311,8.13085896 3.16992188,8.21289062 L4.1015625,8.35351562 C4.79687848,8.4589849 5.31835764,8.66015477 5.66601562,8.95703125 C6.14648678,9.36328328 6.38671875,9.92773076 6.38671875,10.6503906 C6.38671875,11.3925818 6.11816675,11.9814431 5.58105469,12.4169922 C5.04394263,12.8525412 4.32812947,13.0703125 3.43359375,13.0703125 C2.79296555,13.0703125 2.24414291,12.9824228 1.78710938,12.8066406 C1.33007584,12.6308585 0.902345742,12.343752 0.50390625,11.9453125 Z M10.9344645,8.72851562 C10.9344645,7.68163539 10.9764562,6.9355491 11.060441,6.49023438 C11.1444258,6.04491965 11.3700095,5.63867371 11.7371988,5.27148438 C12.3309518,4.67773141 13.0594601,4.38281248 13.9227457,4.38671875 C14.7000933,4.38671875 15.3524306,4.61034933 15.879777,5.05761719 C16.4071233,5.50488505 16.7411044,6.12890225 16.8817301,6.9296875 L15.9500895,6.9296875 C15.8368076,6.40234111 15.602435,5.98242344 15.2469645,5.66992188 C14.8914939,5.35742031 14.4500921,5.20117188 13.9227457,5.20117188 C13.3211802,5.20117188 12.8289976,5.40038863 12.4461832,5.79882812 C12.1883694,6.06445445 12.023332,6.38476375 11.951066,6.75976562 C11.8788,7.1347675 11.8426676,7.79101094 11.8426676,8.72851562 C11.8426676,9.66602031 11.8788,10.3222638 11.951066,10.6972656 C12.023332,11.0722675 12.1883694,11.3925768 12.4461832,11.6582031 C12.8289976,12.0566426 13.3211802,12.2558594 13.9227457,12.2558594 C14.4500921,12.2558594 14.8954001,12.0996109 15.2586832,11.7871094 C15.6219663,11.4746078 15.8602451,11.0546901 15.973527,10.5273438 L16.8817301,10.5273438 C16.7450106,11.3203165 16.4090765,11.9423806 15.8739176,12.3935547 C15.3387587,12.8447288 14.6883745,13.0703125 13.9227457,13.0703125 C13.0594601,13.0703125 12.3309518,12.7753936 11.7371988,12.1855469 C11.3700095,11.8183575 11.1444258,11.4121116 11.060441,10.9667969 C10.9764562,10.5214821 10.9344645,9.77539586 10.9344645,8.72851562 Z M21.8630695,13 L21.8630695,4.45703125 L25.1384602,4.45703125 C25.8923702,4.45703125 26.5027156,4.6708963 26.9695148,5.09863281 C27.4363141,5.52636933 27.6697102,6.10351199 27.6697102,6.83007812 C27.6697102,7.43945617 27.5017431,7.94433394 27.1658039,8.34472656 C26.8298647,8.74511919 26.3786974,9.00390566 25.8122883,9.12109375 L27.839632,13 L26.7732258,13 L24.8279133,9.20898438 L22.777132,9.20898438 L22.777132,13 L21.8630695,13 Z M22.777132,8.40625 L25.0564289,8.40625 C25.5759628,8.40625 25.9900211,8.27148572 26.2986164,8.00195312 C26.6072117,7.73242053 26.761507,7.34570564 26.761507,6.84179688 C26.761507,6.33788811 26.6052586,5.95019667 26.292757,5.67871094 C25.9802555,5.40722521 25.5681502,5.27148438 25.0564289,5.27148438 L22.777132,5.27148438 L22.777132,8.40625 Z M32.375659,8.72851562 C32.375659,7.68163539 32.4176508,6.9355491 32.5016356,6.49023438 C32.5856203,6.04491965 32.811204,5.63867371 33.1783934,5.27148438 C33.7721463,4.67773141 34.5006547,4.38183593 35.3639402,4.38378906 C36.2272258,4.3857422 36.953781,4.68163768 37.5436277,5.27148438 C37.9108171,5.63867371 38.1373773,6.04491965 38.2233152,6.49023438 C38.3092532,6.9355491 38.3522215,7.68163539 38.3522215,8.72851562 C38.3522215,9.77539586 38.3102297,10.5214821 38.2262449,10.9667969 C38.1422601,11.4121116 37.9147233,11.8183575 37.5436277,12.1855469 C36.9498748,12.7792998 36.2213664,13.0751953 35.3580809,13.0732422 C34.4947953,13.0712891 33.7682401,12.7753936 33.1783934,12.1855469 C32.811204,11.8183575 32.5856203,11.4121116 32.5016356,10.9667969 C32.4176508,10.5214821 32.375659,9.77539586 32.375659,8.72851562 Z M33.2838621,8.72851562 C33.2838621,9.66602031 33.3199946,10.3203106 33.3922606,10.6914062 C33.4645265,11.0625019 33.6295639,11.380858 33.8873777,11.6464844 C34.2780047,12.0527364 34.7692107,12.2558594 35.3610106,12.2558594 C35.9528104,12.2558594 36.4459695,12.0527364 36.8405027,11.6464844 C37.0983165,11.380858 37.2623774,11.0625019 37.3326902,10.6914062 C37.4030031,10.3203106 37.438159,9.66602031 37.438159,8.72851562 C37.438159,7.79101094 37.4020265,7.13672061 37.3297606,6.765625 C37.2574946,6.39452939 37.0944103,6.0761732 36.8405027,5.81054688 C36.4498758,5.40429484 35.9576932,5.20117188 35.3639402,5.20117188 C34.7701873,5.20117188 34.2780047,5.40429484 33.8873777,5.81054688 C33.6295639,6.0761732 33.4645265,6.39452939 33.3922606,6.765625 C33.3199946,7.13672061 33.2838621,7.79101094 33.2838621,8.72851562 Z M43.4624672,13 L43.4624672,4.45703125 L44.3765297,4.45703125 L44.3765297,12.1855469 L48.7417641,12.1855469 L48.7417641,13 L43.4624672,13 Z M53.3012285,13 L53.3012285,4.45703125 L54.215291,4.45703125 L54.215291,12.1855469 L58.5805254,12.1855469 L58.5805254,13 L53.3012285,13 Z M69.0881262,13 L69.0881262,4.45703125 L72.0178137,4.45703125 C72.9279745,4.45703125 73.6467173,4.72070049 74.1740637,5.24804688 C74.3420333,5.41601646 74.48461,5.61816288 74.6017981,5.85449219 C74.7189861,6.09082149 74.8029697,6.2910148 74.8537512,6.45507812 C74.9045327,6.61914145 74.9445713,6.87109205 74.9738684,7.2109375 C75.0031654,7.55078295 75.0178137,7.77343697 75.0178137,7.87890625 L75.0178137,8.63476562 C75.0178137,9.70508348 74.9650798,10.4609353 74.8596106,10.9023438 C74.7228911,11.4531278 74.4943778,11.8886703 74.1740637,12.2089844 C73.6467173,12.7363308 72.9279745,13 72.0178137,13 L69.0881262,13 Z M70.0021887,12.1855469 L71.8596106,12.1855469 C72.5705516,12.1855469 73.1310929,11.9765646 73.5412512,11.5585938 C73.7248459,11.3671865 73.8605867,11.0839863 73.9484777,10.7089844 C74.0363688,10.3339825 74.0842199,10.0244153 74.0920324,9.78027344 C74.099845,9.53613159 74.1037512,9.15429947 74.1037512,8.63476562 C74.1037512,8.13866939 74.099845,7.77636833 74.0920324,7.54785156 C74.0842199,7.31933479 74.0363688,7.03515795 73.9484777,6.6953125 C73.8605867,6.35546705 73.7248459,6.08984471 73.5412512,5.8984375 C73.1349992,5.48437293 72.5744579,5.27539064 71.8596106,5.27148438 L70.0021887,5.27148438 L70.0021887,12.1855469 Z M79.8057938,8.72851562 C79.8057938,7.68163539 79.8477855,6.9355491 79.9317703,6.49023438 C80.0157551,6.04491965 80.2413388,5.63867371 80.6085281,5.27148438 C81.2022811,4.67773141 81.9307894,4.38183593 82.794075,4.38378906 C83.6573606,4.3857422 84.3839158,4.68163768 84.9737625,5.27148438 C85.3409518,5.63867371 85.5675121,6.04491965 85.65345,6.49023438 C85.7393879,6.9355491 85.7823563,7.68163539 85.7823563,8.72851562 C85.7823563,9.77539586 85.7403645,10.5214821 85.6563797,10.9667969 C85.5723949,11.4121116 85.3448581,11.8183575 84.9737625,12.1855469 C84.3800095,12.7792998 83.6515012,13.0751953 82.7882156,13.0732422 C81.9249301,13.0712891 81.1983748,12.7753936 80.6085281,12.1855469 C80.2413388,11.8183575 80.0157551,11.4121116 79.9317703,10.9667969 C79.8477855,10.5214821 79.8057938,9.77539586 79.8057938,8.72851562 Z M80.7139969,8.72851562 C80.7139969,9.66602031 80.7501293,10.3203106 80.8223953,10.6914062 C80.8946613,11.0625019 81.0596987,11.380858 81.3175125,11.6464844 C81.7081395,12.0527364 82.1993455,12.2558594 82.7911453,12.2558594 C83.3829452,12.2558594 83.8761043,12.0527364 84.2706375,11.6464844 C84.5284513,11.380858 84.6925122,11.0625019 84.762825,10.6914062 C84.8331379,10.3203106 84.8682938,9.66602031 84.8682938,8.72851562 C84.8682938,7.79101094 84.8321613,7.13672061 84.7598953,6.765625 C84.6876293,6.39452939 84.524545,6.0761732 84.2706375,5.81054688 C83.8800106,5.40429484 83.387828,5.20117188 82.794075,5.20117188 C82.200322,5.20117188 81.7081395,5.40429484 81.3175125,5.81054688 C81.0596987,6.0761732 80.8946613,6.39452939 80.8223953,6.765625 C80.7501293,7.13672061 80.7139969,7.79101094 80.7139969,8.72851562 Z M89.8496332,4.45703125 L90.8222895,4.45703125 L92.486352,11.3417969 L94.3730707,4.45703125 L95.1875238,4.45703125 L97.0742426,11.3417969 L98.7383051,4.45703125 L99.7109613,4.45703125 L97.5254145,13 L96.6758051,13 L94.7773676,6.16210938 L92.8847895,13 L92.0351801,13 L89.8496332,4.45703125 Z M104.100504,13 L104.100504,4.45703125 L104.961832,4.45703125 L109.502848,11.2832031 L109.502848,4.45703125 L110.411051,4.45703125 L110.411051,13 L109.549723,13 L105.014566,6.15039062 L105.014566,13 L104.100504,13 Z" id="SCROLL-DOWN"></path>
            <path d="M48.6361729,32.1432087 C48.5338476,32.0610364 48.4854924,31.9289226 48.5105947,31.8001101 C48.535697,31.6712977 48.6301214,31.5670081 48.7558141,31.5292707 C48.8815069,31.4915334 49.0177605,31.5265654 49.1096638,31.6202487 L56.9823324,38.7155443 L64.8903362,31.5778465 C65.0361659,31.460738 65.2479932,31.4775504 65.373524,31.6161964 C65.4990548,31.7548423 65.4948037,31.9672932 65.3638271,32.1008066 L57.2190779,39.4540487 C57.0845856,39.5754315 56.8800793,39.5754315 56.745587,39.4540487 L48.6361729,32.1432087 Z M64.8903362,40.4752342 L56.9823324,47.6164655 L49.1096638,40.5211699 C49.0156147,40.4365889 48.8835864,40.4086074 48.7633126,40.4477657 C48.6430389,40.4869241 48.552792,40.5872732 48.5265672,40.7110125 C48.5003424,40.8347518 48.5421239,40.9630824 48.6361729,41.0476634 L56.745587,48.3549699 C56.8800793,48.4763527 57.0845856,48.4763527 57.2190779,48.3549699 L65.3638271,41.0017278 C65.4661524,40.9195554 65.5145076,40.7874416 65.4894053,40.6586291 C65.464303,40.5298167 65.3698786,40.4255271 65.2441859,40.3877898 C65.1184931,40.3500524 64.9822395,40.3850845 64.8903362,40.4787677 L64.8903362,40.4752342 Z" id="Shape" fill-rule="nonzero"></path>
        </g>
    </g>
</svg>