<?xml version="1.0" encoding="UTF-8"?>
<svg width="26px" height="14px" viewBox="0 0 26 14" version="1.1" xmlns="http://www.w3.org/2000/svg" xmlns:xlink="http://www.w3.org/1999/xlink">
    <!-- Generator: Sketch 50.2 (55047) - http://www.bohemiancoding.com/sketch -->
    <title>Fill 1</title>
    <desc>Created with Sketch.</desc>
    <defs></defs>
    <g id="Mobile" stroke="none" stroke-width="1" fill="none" fill-rule="evenodd">
        <g id="iPhone-for-DEv" transform="translate(-195.000000, -4756.000000)" fill="#98ABD4">
            <g id="Group-34" transform="translate(-271.000000, 3960.000000)">
                <g id="Group-31" transform="translate(304.000000, 379.000000)">
                    <g id="Arrow" transform="translate(122.000000, 417.000000)">
                        <path d="M65.5308271,6.53905054 L59.6661654,0.19295559 C59.4315789,-0.0643185299 59.0796992,-0.0643185299 58.8451128,0.19295559 C58.6105263,0.450229709 58.6105263,0.836140888 58.8451128,1.09341501 L63.6932331,6.36753446 L40.5864662,6.36753446 C40.2736842,6.36753446 40,6.6676876 40,7.01071975 C40,7.35375191 40.2736842,7.65390505 40.5864662,7.65390505 L63.6932331,7.65390505 L58.8451128,12.9280245 C58.6105263,13.1852986 58.6105263,13.5712098 58.8451128,13.8284839 C58.962406,13.957121 59.118797,14 59.275188,14 C59.4315789,14 59.5879699,13.957121 59.7052632,13.8284839 L65.5699248,7.48238897 L66,7.01071975 L65.5308271,6.53905054 Z" id="Fill-1"></path>
                    </g>
                </g>
            </g>
        </g>
    </g>
</svg>