<?xml version="1.0" encoding="UTF-8"?>
<svg width="37px" height="37px" viewBox="0 0 37 37" version="1.1" xmlns="http://www.w3.org/2000/svg" xmlns:xlink="http://www.w3.org/1999/xlink">
    <!-- Generator: Sketch 48.2 (47327) - http://www.bohemiancoding.com/sketch -->
    <title>Fill 1</title>
    <desc>Created with Sketch.</desc>
    <defs></defs>
    <g id="Mobile" stroke="none" stroke-width="1" fill="none" fill-rule="evenodd" transform="translate(-311.000000, -3866.000000)">
        <g id="Group-18" transform="translate(26.000000, 3736.000000)" fill="#FFFFFF">
            <path d="M306.109177,142.834357 C305.652913,142.84969 305.294863,143.232604 305.310196,143.689698 C305.317656,143.918452 305.4196,144.133944 305.591166,144.284789 L308.971087,147.405705 L295.399185,147.405705 C295.373492,147.404462 295.347384,147.404462 295.321691,147.405705 C294.864597,147.425597 294.510278,147.81307 294.530169,148.270577 C294.550061,148.728499 294.936705,149.083648 295.393798,149.063342 C295.395456,149.063342 295.397528,149.063342 295.399185,149.063342 L308.971087,149.063342 L305.591166,152.171411 C305.250936,152.478074 305.223585,153.003131 305.529833,153.343775 C305.836082,153.684834 306.360309,153.712185 306.700539,153.405108 C306.702197,153.403864 306.70344,153.402621 306.704683,153.401378 L311.664747,148.843291 C312.004148,148.536628 312.031085,148.013229 311.725251,147.673414 C311.706188,147.652279 311.685882,147.631973 311.664747,147.61291 L306.704683,143.054408 C306.543478,142.904807 306.329229,142.82524 306.109177,142.834357 Z M286.554035,164.91408 L319.913977,164.91408 L319.913977,131.54212 L286.554035,131.54212 L286.554035,164.91408 Z M285.699523,130.000932 C285.305834,130.039887 285.004144,130.369342 285,130.765103 L285,165.691098 C284.999586,166.119597 285.346446,166.467286 285.77536,166.468115 L285.777018,166.468115 L320.691409,166.468115 C321.119908,166.468529 321.467597,166.121669 321.468426,165.69317 L321.468426,165.691098 L321.468426,130.765103 C321.461796,130.340748 321.115764,130.000518 320.691409,130.000932 L285.777018,130.000932 C285.751324,129.999689 285.725217,129.999689 285.699523,130.000932 Z" id="Fill-1"></path>
        </g>
    </g>
</svg>