<?xml version="1.0" encoding="UTF-8"?>
<svg width="26px" height="14px" viewBox="0 0 26 14" version="1.1" xmlns="http://www.w3.org/2000/svg" xmlns:xlink="http://www.w3.org/1999/xlink">
    <!-- Generator: Sketch 50.2 (55047) - http://www.bohemiancoding.com/sketch -->
    <title>Fill 1</title>
    <desc>Created with Sketch.</desc>
    <defs></defs>
    <g id="Mobile" stroke="none" stroke-width="1" fill="none" fill-rule="evenodd">
        <g id="iPhone-for-DEv" transform="translate(-155.000000, -4756.000000)" fill="#98ABD4">
            <g id="Group-34" transform="translate(-271.000000, 3960.000000)">
                <g id="Group-31" transform="translate(304.000000, 379.000000)">
                    <g id="Arrow" transform="translate(122.000000, 417.000000)">
                        <path d="M25.5308271,6.53905054 L19.6661654,0.19295559 C19.4315789,-0.0643185299 19.0796992,-0.0643185299 18.8451128,0.19295559 C18.6105263,0.450229709 18.6105263,0.836140888 18.8451128,1.09341501 L23.6932331,6.36753446 L0.586466165,6.36753446 C0.273684211,6.36753446 0,6.6676876 0,7.01071975 C0,7.35375191 0.273684211,7.65390505 0.586466165,7.65390505 L23.6932331,7.65390505 L18.8451128,12.9280245 C18.6105263,13.1852986 18.6105263,13.5712098 18.8451128,13.8284839 C18.962406,13.957121 19.118797,14 19.275188,14 C19.4315789,14 19.5879699,13.957121 19.7052632,13.8284839 L25.5699248,7.48238897 L26,7.01071975 L25.5308271,6.53905054 Z" id="Fill-1" transform="translate(13.000000, 7.000000) scale(-1, 1) translate(-13.000000, -7.000000) "></path>
                    </g>
                </g>
            </g>
        </g>
    </g>
</svg>