<?xml version="1.0" encoding="UTF-8"?>
<svg width="37px" height="37px" viewBox="0 0 37 37" version="1.1" xmlns="http://www.w3.org/2000/svg" xmlns:xlink="http://www.w3.org/1999/xlink">
    <!-- Generator: Sketch 48.2 (47327) - http://www.bohemiancoding.com/sketch -->
    <title>Fill 1</title>
    <desc>Created with Sketch.</desc>
    <defs></defs>
    <g id="Mobile" stroke="none" stroke-width="1" fill="none" fill-rule="evenodd" transform="translate(-29.000000, -3866.000000)">
        <g id="Group-18" transform="translate(26.000000, 3736.000000)" fill="#FFFFFF">
            <path d="M24.1091772,142.834357 C23.6529127,142.84969 23.2948631,143.232604 23.3101962,143.689698 C23.3176556,143.918452 23.4196003,144.133944 23.5911657,144.284789 L26.9710873,147.405705 L13.3991853,147.405705 C13.373492,147.404462 13.3473842,147.404462 13.3216908,147.405705 C12.8645974,147.425597 12.5102776,147.81307 12.5301692,148.270577 C12.5500608,148.728499 12.9367046,149.083648 13.393798,149.063342 C13.3954556,149.063342 13.3975277,149.063342 13.3991853,149.063342 L26.9710873,149.063342 L23.5911657,152.171411 C23.2509357,152.478074 23.2235847,153.003131 23.5298331,153.343775 C23.8360815,153.684834 24.3603092,153.712185 24.7005392,153.405108 C24.7021968,153.403864 24.70344,153.402621 24.7046833,153.401378 L29.6647472,148.843291 C30.0041484,148.536628 30.031085,148.013229 29.725251,147.673414 C29.7061881,147.652279 29.6858821,147.631973 29.6647472,147.61291 L24.7046833,143.054408 C24.5434781,142.904807 24.3292285,142.82524 24.1091772,142.834357 Z M4.55403494,164.91408 L37.9139771,164.91408 L37.9139771,131.54212 L4.55403494,131.54212 L4.55403494,164.91408 Z M3.69952313,130.000932 C3.30583438,130.039887 3.00414446,130.369342 3.00000037,130.765103 L3.00000037,165.691098 C2.99958596,166.119597 3.34644648,166.467286 3.77536002,166.468115 L3.77701766,166.468115 L38.6914088,166.468115 C39.119908,166.468529 39.4675973,166.121669 39.4684261,165.69317 L39.4684261,165.691098 L39.4684261,130.765103 C39.4617956,130.340748 39.1157639,130.000518 38.6914088,130.000932 L3.77701766,130.000932 C3.75132429,129.999689 3.72521651,129.999689 3.69952313,130.000932 Z" id="Fill-1" transform="translate(21.234213, 148.234058) scale(-1, 1) translate(-21.234213, -148.234058) "></path>
        </g>
    </g>
</svg>