<?xml version="1.0" encoding="UTF-8"?>
<svg width="53px" height="61px" viewBox="0 0 53 61" version="1.1" xmlns="http://www.w3.org/2000/svg" xmlns:xlink="http://www.w3.org/1999/xlink">
    <!-- Generator: Sketch 50.2 (55047) - http://www.bohemiancoding.com/sketch -->
    <title>Solution Icon</title>
    <desc>Created with Sketch.</desc>
    <defs>
        <linearGradient x1="113.40917%" y1="55.580068%" x2="35.6606276%" y2="55.580068%" id="linearGradient-1">
            <stop stop-color="#14ACE0" offset="0%"></stop>
            <stop stop-color="#00EABD" offset="100%"></stop>
        </linearGradient>
    </defs>
    <g id="Mobile" stroke="none" stroke-width="1" fill="none" fill-rule="evenodd">
        <g id="iPhone-for-DEv" transform="translate(-28.000000, -3256.000000)" stroke="#00468E">
            <g id="Group-33" transform="translate(-216.000000, 3175.000000)">
                <g id="Group-3" transform="translate(238.000000, 82.000000)">
                    <g id="Group-23" transform="translate(7.000000, 0.000000)">
                        <g id="Solution-Icon" transform="translate(25.500000, 29.500000) rotate(-90.000000) translate(-25.500000, -29.500000) translate(-4.000000, 4.500000)">
                            <path d="M4.8582996,29.8150808 C4.8582996,29.8150808 4.8582996,29.8150808 4.8582996,29.8150808 L12.9554656,43 C13.7327935,42.0305206 14.7692308,41.3195691 16,40.9317774 L8.29149798,28.3285458 C9.13360324,27.4883303 9.65182186,26.2603232 9.65182186,24.967684 C9.65182186,23.6750449 9.13360324,22.4470377 8.29149798,21.6068223 L16,9.06822262 C14.7692308,8.68043088 13.7327935,7.96947935 12.9554656,7 L4.92307692,20.1202873 C4.92307692,20.1202873 4.92307692,20.1202873 4.8582996,20.1202873 C2.20242915,20.1202873 0,22.2531418 0,24.967684 C-7.19172809e-16,27.6175943 2.20242915,29.8150808 4.8582996,29.8150808 Z" id="Path" stroke-width="2" fill="#FFFFFF"></path>
                            <path d="M22.0616967,2.56559767 C21.2262211,1.02623907 19.6838046,0 17.8200514,0 C15.18509,0 13,2.11661808 13,4.81049563 C13,7.44023324 15.1208226,9.62099125 17.8200514,9.62099125 C18.2056555,9.62099125 18.5912596,9.55685131 18.9125964,9.49271137 L26.6246787,22 C27.5244216,21.1661808 28.6812339,20.5889213 29.9023136,20.3323615 L21.8688946,7.37609329 C22.0616967,6.99125364 22.2544987,6.60641399 22.3830334,6.22157434 L37.7429306,6.22157434 C37.6786632,5.77259475 37.6143959,5.32361516 37.6143959,4.81049563 C37.6143959,4.04081633 37.7429306,3.27113703 38,2.56559767 L22.0616967,2.56559767 Z" id="Path" stroke-width="2" fill="#FFFFFF"></path>
                            <path d="M42.5627376,0 C40.0684411,0 38,2.11661808 38,4.81049563 C38,7.44023324 40.0076046,9.62099125 42.5627376,9.62099125 C42.9277567,9.62099125 43.2927757,9.55685131 43.5969582,9.49271137 L50.8973384,22 C51.7490494,21.1661808 52.8441065,20.5889213 54,20.3323615 L46.3954373,7.31195335 C46.8212928,6.60641399 47.0646388,5.70845481 47.0646388,4.81049563 C47.0646388,2.11661808 45.0570342,0 42.5627376,0 Z" id="Path" stroke-width="2" fill="#FFFFFF"></path>
                            <path d="M17.8717949,50 C19.7948718,50 21.3974359,48.909621 22.1666667,47.3061224 L38,47.3061224 C37.7435897,46.6005831 37.6153846,45.8309038 37.6153846,45.0612245 C37.6153846,44.6122449 37.6794872,44.0991254 37.7435897,43.6501458 L22.4230769,43.6501458 C22.2948718,43.2653061 22.1666667,42.9446064 21.974359,42.6239067 L29.9230769,29.6676385 C28.7051282,29.4110787 27.5512821,28.8338192 26.6538462,28 L19.025641,40.3790087 C18.6410256,40.2507289 18.2564103,40.2507289 17.8076923,40.2507289 C15.1794872,40.2507289 13,42.3673469 13,45.0612245 C13,45.1253644 13,45.1895044 13,45.1895044 C13.0641026,47.8833819 15.1794872,50 17.8717949,50 Z" id="Path" stroke-width="2" fill="#FFFFFF"></path>
                            <path d="M50.8973384,28 L43.5969582,40.5072886 C43.2319392,40.4431487 42.9277567,40.3790087 42.5627376,40.3790087 C40.0684411,40.3790087 38,42.4956268 38,45.1895044 C38,47.819242 40.0076046,50 42.5627376,50 C45.0570342,50 47.1254753,47.8833819 47.1254753,45.1895044 C47.1254753,44.2915452 46.8821293,43.393586 46.4562738,42.6880466 L54,29.6676385 C52.78327,29.3469388 51.7490494,28.7696793 50.8973384,28 Z" id="Path" stroke-width="2" fill="#FFFFFF"></path>
                            <path d="M54.1282051,21 C52.2692308,21 50.7307692,21.96 49.8974359,23.4 L34,23.4 C34.2564103,24.06 34.3846154,24.7847118 34.3846154,25.5 C34.3846154,25.92 34.3205128,26.4 34.2564103,26.82 L49.5769231,26.82 C50.1538462,28.68 52.0128205,30 54.1923077,30 C56.8205128,30 59,28.02 59,25.5 C58.9358974,23.04 56.7564103,21 54.1282051,21 Z" id="Path" stroke-width="2" fill="#FFFFFF"></path>
                            <path d="M30.3449692,19.8491921 C28.0410678,19.8491921 26.0759754,21.3500898 25.4661191,23.464991 L9.27104723,23.464991 C9.33880903,23.9425494 9.40657084,24.4201077 9.40657084,24.9658887 C9.40657084,25.7845601 9.27104723,26.6032316 9,27.3536804 L25.8049281,27.3536804 C26.6858316,28.9910233 28.312115,30.0825853 30.2772074,30.0825853 C30.2772074,30.0825853 33.1232033,34.7217235 38.8151951,44 C39.6283368,42.9766607 40.7125257,42.2262118 42,41.8168761 L33.8685832,28.513465 C34.7494867,27.6265709 35.2915811,26.3303411 35.2915811,24.9658887 C35.2915811,23.6014363 34.7494867,22.3052065 33.8685832,21.4183124 L41.9322382,8.18312388 C40.6447639,7.77378815 39.5605749,7.02333932 38.7474333,6 L30.3449692,19.8491921 Z" id="Path" stroke-width="1.5" fill="url(#linearGradient-1)"></path>
                        </g>
                    </g>
                </g>
            </g>
        </g>
    </g>
</svg>