<svg xmlns="http://www.w3.org/2000/svg" width="48" height="55" viewBox="0 0 48 55">
    <defs>
        <linearGradient id="a" x1="113.409%" x2="35.661%" y1="55.58%" y2="55.58%">
            <stop offset="0%" stop-color="#1490E0"/>
            <stop offset="100%" stop-color="#20F0FF"/>
        </linearGradient>
    </defs>
    <g fill="none" fill-rule="evenodd">
        <path fill="#FFF" stroke="#1B519C" stroke-width="2" d="M28.802 48.859l11.443-7.028a5.445 5.445 0 0 1-1.795-2.642l-10.938 6.69c-.73-.73-1.795-1.18-2.917-1.18-1.122 0-2.188.45-2.917 1.18l-10.883-6.69A5.445 5.445 0 0 1 9 41.83l11.387 6.972v.056a4.206 4.206 0 0 0 4.208 4.216c2.3 0 4.207-1.911 4.207-4.216z"/>
        <path fill="#FFF" stroke="#1B519C" stroke-width="2" d="M4.095 33.928c-1.336.725-2.227 2.063-2.227 3.681a4.174 4.174 0 0 0 4.175 4.183 4.174 4.174 0 0 0 4.175-4.183c0-.335-.055-.67-.111-.948l10.855-6.694a6.034 6.034 0 0 1-1.447-2.844L8.27 34.095c-.334-.167-.668-.335-1.002-.446V20.317c-.39.056-.78.112-1.225.112a5.724 5.724 0 0 1-1.948-.335v13.834zM2 16.134c0 2.165 1.837 3.96 4.175 3.96 2.283 0 4.175-1.742 4.175-3.96 0-.317-.055-.633-.111-.897L21.094 8.9a5.608 5.608 0 0 1-1.447-2.692l-11.3 6.6c-.613-.37-1.392-.581-2.172-.581C3.837 12.227 2 13.969 2 16.134zM46.132 37.564c0-1.669-.946-3.06-2.338-3.728V20.094a5.737 5.737 0 0 1-1.948.334c-.39 0-.835-.055-1.225-.111v13.297a4.31 4.31 0 0 0-.89.39l-11.246-6.9a6.013 6.013 0 0 1-1.447 2.838l10.744 6.62c-.112.334-.112.668-.112 1.058a4.168 4.168 0 0 0 4.176 4.172h.111c2.338-.055 4.175-1.891 4.175-4.228zM27.906 8.9l10.855 6.337c-.056.316-.111.58-.111.897 0 2.165 1.837 3.96 4.175 3.96 2.282 0 4.175-1.742 4.175-3.96 0-2.165-1.837-3.96-4.175-3.96-.78 0-1.559.211-2.171.58L29.353 6.209A6.406 6.406 0 0 1 27.906 8.9z"/>
        <path fill="#FFF" stroke="#1B519C" stroke-width="2" d="M21 5.606c0 1.613.833 2.948 2.083 3.672v13.797a5.072 5.072 0 0 1 1.823-.333c.364 0 .78.055 1.145.11V9.557c1.615-.5 2.76-2.114 2.76-4.006 0-2.281-1.718-4.173-3.905-4.173C22.77 1.433 21 3.325 21 5.606z"/>
        <path fill="url(#a)" stroke="#1C519C" d="M26.526 19.02c-2 0-3.705 1.303-4.235 3.138H8.235c.06.415.118.83.118 1.303 0 .71-.118 1.421-.353 2.072h14.585c.765 1.421 2.176 2.369 3.882 2.369l7.41 12.08a5.694 5.694 0 0 1 2.765-1.896L29.584 26.54c.765-.77 1.235-1.895 1.235-3.079 0-1.184-.47-2.31-1.235-3.08l6.999-11.486A5.694 5.694 0 0 1 33.819 7l-7.293 12.02z" transform="rotate(-90 27.038 26.038)"/>
    </g>
</svg>
