<svg xmlns="http://www.w3.org/2000/svg" width="49" height="47" viewBox="0 0 49 47">
    <defs>
        <linearGradient id="a" x1="113.409%" x2="35.661%" y1="55.58%" y2="55.58%">
            <stop offset="0%" stop-color="#14ACE0"/>
            <stop offset="100%" stop-color="#00EABD"/>
        </linearGradient>
    </defs>
    <g fill="none" fill-rule="nonzero">
        <path fill="url(#a)" d="M16 5A20.776 20.776 0 0 0 5 16h1.755A19.168 19.168 0 0 1 16 6.755V5zM33 5v1.755A19.17 19.17 0 0 1 42.245 16H44A20.774 20.774 0 0 0 33 5zM16 44v-1.755A19.168 19.168 0 0 1 6.755 33H5a20.775 20.775 0 0 0 11 11zM42.245 33A19.17 19.17 0 0 1 33 42.245V44a20.775 20.775 0 0 0 11-11h-1.755z"/>
        <path fill="#FCFEFF" d="M27.577 33.723a4.961 4.961 0 0 0-5.154 0A4.996 4.996 0 0 0 20 38c0 2.757 2.243 5 5 5s5-2.243 5-5c0-1.813-.974-3.4-2.423-4.277zM25 41.212A3.215 3.215 0 0 1 21.788 38 3.215 3.215 0 0 1 25 34.788 3.215 3.215 0 0 1 28.212 38 3.215 3.215 0 0 1 25 41.212z"/>
        <path fill="#FCFEFF" d="M18.783 47h.784c0-1.884 1.518-3.417 3.382-3.417h3.101c1.865 0 3.382 1.533 3.382 3.417H31c0-2.757-2.22-5-4.95-5h-3.1C20.22 42 18 44.243 18 47h.783zM30 5c0-2.757-2.243-5-5-5s-5 2.243-5 5 2.243 5 5 5 5-2.243 5-5zm-8.212 0c0-1.77 1.44-3.212 3.212-3.212A3.215 3.215 0 0 1 28.212 5 3.215 3.215 0 0 1 25 8.212 3.215 3.215 0 0 1 21.788 5zM18 15h1.568c0-1.884 1.517-3.416 3.382-3.416h3.1c1.865 0 3.382 1.532 3.382 3.416H31c0-2.757-2.22-5-4.95-5h-3.1C20.22 10 18 12.243 18 15zM43 16c-2.757 0-5 2.243-5 5s2.243 5 5 5 5-2.243 5-5-2.243-5-5-5zm0 8.212A3.215 3.215 0 0 1 39.788 21c0-1.77 1.44-3.212 3.212-3.212 1.77 0 3.212 1.44 3.212 3.212A3.216 3.216 0 0 1 43 24.212zM47.432 32H49c0-2.757-2.22-5-4.95-5h-3.1C38.22 27 36 29.243 36 32h1.568c0-1.884 1.517-3.417 3.382-3.417h3.1c1.865 0 3.382 1.533 3.382 3.417zM7 16c-2.757 0-5 2.243-5 5s2.243 5 5 5 5-2.243 5-5-2.243-5-5-5zm0 8.212A3.215 3.215 0 0 1 3.788 21c0-1.77 1.44-3.212 3.212-3.212A3.215 3.215 0 0 1 10.212 21 3.215 3.215 0 0 1 7 24.212zM1.568 32c0-1.884 1.517-3.417 3.382-3.417h3.1c1.865 0 3.382 1.533 3.382 3.417H13c0-2.757-2.22-5-4.95-5h-3.1C2.22 27 0 29.243 0 32h1.568z"/>
    </g>
</svg>
