<svg xmlns="http://www.w3.org/2000/svg" width="44" height="44" viewBox="0 0 44 44">
    <g fill="none" fill-rule="evenodd">
        <path fill="#FFF" fill-rule="nonzero" d="M44 21.901c0 6.47-2.782 12.303-7.225 16.372l-1.562-2.745c3.564-3.48 5.76-8.284 5.76-13.627 0-6.52-3.27-12.254-8.25-15.686l-2.489 4.363-1.318-.735c-2.05-1.177-4.393-1.863-6.883-1.863-6.053 0-11.227 3.921-13.082 9.362H5.778C7.73 10.235 14.272 4.941 22.033 4.941c2.539 0 4.882.588 7.03 1.569L31.6 2l2.636 1.52v.049C40.144 7.539 44 14.254 44 21.9zm-4.778.373c0-4.538-1.848-8.69-4.814-11.683l-1.556 2.704c2.09 2.413 3.404 5.552 3.404 8.98 0 5.069-2.772 9.462-6.857 11.828l-1.313.772 2.529 4.297c-2.529 1.159-5.3 1.835-8.218 1.835-8.802 0-16.242-6.035-18.285-14.146H1C3.14 36.613 11.893 44 22.397 44c3.452 0 6.76-.82 9.677-2.22l.048.047 2.626-1.496-2.626-4.442c4.28-3.041 7.1-8.014 7.1-13.615z"/>
        <path fill="#4BC7FF" d="M22.194 39c1.48 0 2.91-.196 4.29-.539l-1.627-2.744c-.888.147-1.775.245-2.663.245-7.694 0-13.958-6.173-14.007-13.816v-1.52h-5.08c.74-9.798 9.026-17.588 19.087-17.588 1.825 0 3.6.245 5.228.735L29 1.078A22.234 22.234 0 0 0 22.194 0C10.456 0 .789 9.113.049 20.627H0V23.665h5.228C6.066 32.239 13.316 39 22.194 39z"/>
    </g>
</svg>
