<?xml version="1.0" encoding="UTF-8"?>
<svg width="64px" height="64px" viewBox="0 0 64 64" version="1.1" xmlns="http://www.w3.org/2000/svg" xmlns:xlink="http://www.w3.org/1999/xlink">
    <!-- Generator: Sketch 48.2 (47327) - http://www.bohemiancoding.com/sketch -->
    <title>Page 1</title>
    <desc>Created with Sketch.</desc>
    <defs>
        <polygon id="path-1" points="0.000139130435 0 64 0 64 63.9997217 0.000139130435 63.9997217"></polygon>
        <linearGradient x1="74.534899%" y1="94.4543394%" x2="74.534899%" y2="16.7057966%" id="linearGradient-3">
            <stop stop-color="#1490E0" offset="0%"></stop>
            <stop stop-color="#20F0FF" offset="100%"></stop>
        </linearGradient>
    </defs>
    <g id="Mobile" stroke="none" stroke-width="1" fill="none" fill-rule="evenodd" transform="translate(-158.000000, -882.000000)">
        <g id="Background" transform="translate(-448.000000, -1.000000)">
            <g id="Group-39" transform="translate(477.000000, 883.000000)">
                <g id="Group-13">
                    <g id="Group-38">
                        <g id="Page-1" transform="translate(129.000000, 0.000000)">
                            <g id="Group-5">
                                <mask id="mask-2" fill="white">
                                    <use xlink:href="#path-1"></use>
                                </mask>
                                <g id="Clip-4"></g>
                                <path d="M56.6999652,51.4000696 L51.400487,56.6995478 L12.5997913,56.6995478 L7.30031304,51.4000696 L7.30031304,12.5993739 L12.5997913,7.29989565 L51.400487,7.29989565 L56.6999652,12.5993739 L56.6999652,51.4000696 Z M64.0001391,17.0000696 L64.0001391,15.5002435 L58.1997913,15.5002435 L58.1997913,11.9997217 L52.0001391,5.80006957 L48.4996174,5.80006957 L48.4996174,-0.00027826087 L46.9997913,-0.00027826087 L46.9997913,5.80006957 L43.300313,5.80006957 L43.300313,-0.00027826087 L41.800487,-0.00027826087 L41.800487,5.80006957 L38.0996174,5.80006957 L38.0996174,-0.00027826087 L36.4996174,-0.00027826087 L36.4996174,5.80006957 L32.8001391,5.80006957 L32.8001391,-0.00027826087 L31.300313,-0.00027826087 L31.300313,5.80006957 L27.4992696,5.80006957 L27.4992696,-0.00027826087 L25.9994435,-0.00027826087 L25.9994435,5.80006957 L22.2999652,5.80006957 L22.2999652,-0.00027826087 L20.8001391,-0.00027826087 L20.8001391,5.80006957 L17.0992696,5.80006957 L17.0992696,-0.00027826087 L15.4992696,-0.00027826087 L15.4992696,5.80006957 L12.0001391,5.80006957 L5.80048696,11.9997217 L5.80048696,15.5002435 L0.000139130435,15.5002435 L0.000139130435,17.0000696 L5.80048696,17.0000696 L5.80048696,20.6995478 L0.000139130435,20.6995478 L0.000139130435,22.1993739 L5.80048696,22.1993739 L5.80048696,25.9002435 L0.000139130435,25.9002435 L0.000139130435,27.5002435 L5.80048696,27.5002435 L5.80048696,31.1997217 L0.000139130435,31.1997217 L0.000139130435,32.6995478 L5.80048696,32.6995478 L5.80048696,36.5005913 L0.000139130435,36.5005913 L0.000139130435,38.0004174 L5.80048696,38.0004174 L5.80048696,41.6998957 L0.000139130435,41.6998957 L0.000139130435,43.1997217 L5.80048696,43.1997217 L5.80048696,46.9005913 L0.000139130435,46.9005913 L0.000139130435,48.5005913 L5.80048696,48.5005913 L5.80048696,51.9997217 L12.0001391,58.1993739 L15.4992696,58.1993739 L15.4992696,63.9997217 L17.000487,63.9997217 L17.000487,58.1993739 L20.6999652,58.1993739 L20.6999652,63.9997217 L22.1997913,63.9997217 L22.1997913,58.1993739 L25.9006609,58.1993739 L25.9006609,63.9997217 L27.4992696,63.9997217 L27.4992696,58.1993739 L31.2001391,58.1993739 L31.2001391,63.9997217 L32.6999652,63.9997217 L32.6999652,58.1993739 L36.4996174,58.1993739 L36.4996174,63.9997217 L37.9994435,63.9997217 L37.9994435,58.1993739 L41.700313,58.1993739 L41.700313,63.9997217 L43.2001391,63.9997217 L43.2001391,58.1993739 L46.8996174,58.1993739 L46.8996174,63.9997217 L48.4996174,63.9997217 L48.4996174,58.1993739 L52.0001391,58.1993739 L58.1997913,51.9997217 L58.1997913,48.5005913 L64.0001391,48.5005913 L64.0001391,46.9993739 L58.1997913,46.9993739 L58.1997913,43.2998957 L64.0001391,43.2998957 L64.0001391,41.8000696 L58.1997913,41.8000696 L58.1997913,38.1005913 L64.0001391,38.1005913 L64.0001391,36.5005913 L58.1997913,36.5005913 L58.1997913,32.7997217 L64.0001391,32.7997217 L64.0001391,31.2998957 L58.1997913,31.2998957 L58.1997913,27.5002435 L64.0001391,27.5002435 L64.0001391,26.0004174 L58.1997913,26.0004174 L58.1997913,22.2995478 L64.0001391,22.2995478 L64.0001391,20.7997217 L58.1997913,20.7997217 L58.1997913,17.1002435 L64.0001391,17.1002435 L64.0001391,17.0000696 Z" id="Fill-3" fill="url(#linearGradient-3)" mask="url(#mask-2)"></path>
                                <path d="M34.8,25.6 C35.4998261,26.1996522 35.9005217,26.9996522 35.9005217,27.8998261 L37.5005217,27.8998261 C37.5005217,26.6003478 36.8994783,25.3996522 35.9005217,24.4994783 C35.1005217,23.7996522 34,23.3001739 32.8006957,23.2 L32.8006957,19.6006957 L31.2994783,19.6006957 L31.2994783,23.2 C30.1001739,23.3001739 29.0998261,23.7996522 28.1996522,24.4994783 C27.1005217,25.3996522 26.5996522,26.6003478 26.5996522,27.8998261 C26.5996522,29.2006957 27.2006957,30.4 28.1996522,31.3001739 C29.2,32.2003478 30.5996522,32.6998261 32.0006957,32.6998261 C33.0998261,32.6998261 34.1001739,33.1005217 34.8,33.7001739 C35.4998261,34.2998261 35.9005217,35.0998261 35.9005217,36 C35.9005217,36.9001739 35.4998261,37.7001739 34.8,38.2998261 C33.3001739,39.6006957 30.5996522,39.6006957 29.0998261,38.2998261 C28.4,37.7001739 28.0006957,36.9001739 28.0006957,36 L26.4994783,36 C26.4994783,37.2994783 27.1005217,38.5001739 28.0994783,39.4003478 C28.8994783,40.1001739 30,40.5996522 31.2006957,40.6998261 L31.2006957,44.3005217 L32.7005217,44.3005217 L32.7005217,40.6998261 C33.8998261,40.5996522 34.9001739,40.1001739 35.8003478,39.4003478 C36.8994783,38.5001739 37.4003478,37.2994783 37.4003478,36 C37.4003478,34.7005217 36.7993043,33.4998261 35.8003478,32.5996522 C34.8,31.6994783 33.4003478,31.2 32.0006957,31.2 C30.9001739,31.2 29.8998261,30.8006957 29.2,30.1996522 C28.5001739,29.6 28.0994783,28.8 28.0994783,27.8998261 C28.0994783,26.9996522 28.5001739,26.1996522 29.2,25.6 C30.6998261,24.3005217 33.3001739,24.3005217 34.8,25.6" id="Fill-1" stroke="#FFFFFF" stroke-width="0.5" fill="#FFFFFF" mask="url(#mask-2)"></path>
                            </g>
                            <path d="M49.7000348,43.7999304 C46.6002087,44.1004522 44.1000348,46.5992348 43.7007304,49.7992348 L20.2002087,49.7992348 C19.899687,46.6994087 17.399513,44.2006261 14.199513,43.7999304 L14.199513,20.2006261 C17.2993391,19.9001043 19.799513,17.3999304 20.2002087,14.1999304 L43.799513,14.1999304 C44.1000348,17.2997565 46.6002087,19.7999304 49.8002087,20.2006261 L49.8002087,43.7999304 L49.7000348,43.7999304 Z M45.2005565,13.5001043 L45.2005565,12.7001043 L18.8005565,12.7001043 L18.8005565,13.5001043 C18.8005565,16.3995826 16.4005565,18.6994087 13.499687,18.6994087 L12.699687,18.6994087 L12.699687,45.1995826 L13.499687,45.1995826 C16.4005565,45.1995826 18.8005565,47.5995826 18.8005565,50.5004522 L18.8005565,51.3004522 L45.2993391,51.3004522 L45.2993391,50.5004522 C45.2993391,47.5995826 47.7007304,45.1995826 50.6002087,45.1995826 L51.4002087,45.1995826 L51.4002087,18.7995826 L50.5000348,18.7995826 C47.6005565,18.7995826 45.2005565,16.3995826 45.2005565,13.5001043 Z" id="Fill-6" fill="url(#linearGradient-3)"></path>
                        </g>
                    </g>
                </g>
            </g>
        </g>
    </g>
</svg>