<?xml version="1.0" encoding="UTF-8"?>
<svg width="53px" height="63px" viewBox="0 0 53 63" version="1.1" xmlns="http://www.w3.org/2000/svg" xmlns:xlink="http://www.w3.org/1999/xlink">
    <!-- Generator: Sketch 48.2 (47327) - http://www.bohemiancoding.com/sketch -->
    <title>Page 1</title>
    <desc>Created with Sketch.</desc>
    <defs>
        <linearGradient x1="74.534899%" y1="132.962671%" x2="74.534899%" y2="16.7057966%" id="linearGradient-1">
            <stop stop-color="#1490E0" offset="0%"></stop>
            <stop stop-color="#20F0FF" offset="100%"></stop>
        </linearGradient>
        <linearGradient x1="74.534899%" y1="134.095426%" x2="74.534899%" y2="16.7057966%" id="linearGradient-2">
            <stop stop-color="#1490E0" offset="0%"></stop>
            <stop stop-color="#20F0FF" offset="100%"></stop>
        </linearGradient>
    </defs>
    <g id="Mobile" stroke="none" stroke-width="1" fill="none" fill-rule="evenodd" transform="translate(-162.000000, -1697.000000)">
        <g id="Background" transform="translate(-448.000000, -1.000000)">
            <g id="Group-39" transform="translate(477.000000, 883.000000)">
                <g id="Group-13" transform="translate(0.000000, 622.000000)">
                    <g id="Group-38" transform="translate(0.000000, 193.000000)">
                        <g id="Page-1" transform="translate(134.000000, 0.000000)">
                            <polygon id="Fill-1" fill="#FFFFFF" points="24.225 47.8735632 22.1515152 46.0009579 21.25 46.8965517 24.225 49.5833333 31.1666667 43.3141762 30.2651515 42.5"></polygon>
                            <g id="Group-6">
                                <path d="M25.5,53.9277778 C20.8722222,53.9277778 17.0944444,50.15 17.0944444,45.5222222 C17.0944444,40.8944444 20.8722222,37.1166667 25.5,37.1166667 C30.1277778,37.1166667 33.9055556,40.8944444 33.9055556,45.5222222 C33.9055556,50.15 30.1277778,53.9277778 25.5,53.9277778 M25.5,35.6055556 C20.0222222,35.6055556 15.6777778,40.0444444 15.6777778,45.4277778 C15.6777778,50.9055556 20.1166667,55.25 25.5,55.25 C30.9777778,55.25 35.3222222,50.8111111 35.3222222,45.4277778 C35.3222222,40.0444444 30.9777778,35.6055556 25.5,35.6055556" id="Fill-2" fill="#FFFFFF"></path>
                                <path d="M46.4666667,60.9166667 L4.53333333,60.9166667 C2.83333333,60.9166667 1.41666667,59.5 1.41666667,57.8 L1.41666667,55.6277778 L5.47777778,55.6277778 L5.47777778,54.2111111 L1.51111111,54.2111111 L1.51111111,51.3777778 L6.32777778,51.3777778 L6.32777778,49.9611111 L1.51111111,49.9611111 L1.51111111,47.1277778 L6.32777778,47.1277778 L6.32777778,45.7111111 L1.51111111,45.7111111 L1.51111111,42.8777778 L6.32777778,42.8777778 L6.32777778,41.3666667 L1.51111111,41.3666667 L1.51111111,38.5333333 L5.57222222,38.5333333 L5.57222222,37.1166667 L1.51111111,37.1166667 L1.51111111,33.15 C1.51111111,31.45 2.92777778,30.1277778 4.62777778,30.1277778 L46.5611111,30.1277778 C48.2611111,30.1277778 49.6777778,31.5444444 49.6777778,33.15 L49.6777778,37.1166667 L45.6166667,37.1166667 L45.6166667,38.5333333 L49.6777778,38.5333333 L49.6777778,41.3666667 L44.8611111,41.3666667 L44.8611111,42.7833333 L49.6777778,42.7833333 L49.6777778,45.6166667 L44.8611111,45.6166667 L44.8611111,47.0333333 L49.6777778,47.0333333 L49.6777778,49.8666667 L44.8611111,49.8666667 L44.8611111,51.2833333 L49.6777778,51.2833333 L49.6777778,54.1166667 L45.6166667,54.1166667 L45.6166667,55.5333333 L49.6777778,55.5333333 L49.6777778,57.7055556 C49.4888889,59.5944444 48.1666667,60.9166667 46.4666667,60.9166667 Z M8.97222222,18.4166667 C8.97222222,9.35 16.3388889,1.88888889 25.5,1.88888889 C34.5666667,1.88888889 42.0277778,9.35 42.0277778,18.4166667 L42.0277778,28.5222222 L36.55,28.5222222 L36.55,18.4166667 C36.55,15.3944444 35.2277778,12.4666667 33.0555556,10.3888889 C30.7888889,8.21666667 27.8611111,7.17777778 24.7444444,7.36666667 C18.9833333,7.74444444 14.45,12.75 14.45,18.7944444 L14.45,28.6166667 L8.97222222,28.6166667 L8.97222222,18.4166667 Z M15.8666667,28.6166667 L15.8666667,18.7944444 C15.8666667,13.5055556 19.8333333,9.16111111 24.8388889,8.78333333 C27.5777778,8.59444444 30.1277778,9.53888889 32.1111111,11.3333333 C34.0944444,13.1277778 35.1333333,15.6777778 35.1333333,18.4166667 L35.1333333,28.6166667 L15.8666667,28.6166667 Z M46.4666667,28.6166667 L43.4444444,28.6166667 L43.4444444,18.4166667 C43.4444444,8.5 35.4166667,0.472222222 25.5,0.472222222 C15.5833333,0.472222222 7.55555556,8.5 7.55555556,18.4166667 L7.55555556,28.6166667 L4.53333333,28.6166667 C2.07777778,28.6166667 0,30.6 0,33.0555556 L0,57.8 C0,60.2555556 1.98333333,62.3333333 4.53333333,62.3333333 L46.4666667,62.3333333 C48.9222222,62.3333333 51,60.35 51,57.8 L51,33.15 C50.9055556,30.6 48.9222222,28.6166667 46.4666667,28.6166667 Z" id="Fill-4" stroke="url(#linearGradient-2)" stroke-width="0.5" fill="url(#linearGradient-1)"></path>
                            </g>
                        </g>
                    </g>
                </g>
            </g>
        </g>
    </g>
</svg>