<?xml version="1.0" encoding="UTF-8"?>
<svg width="61px" height="63px" viewBox="0 0 61 63" version="1.1" xmlns="http://www.w3.org/2000/svg" xmlns:xlink="http://www.w3.org/1999/xlink">
    <!-- Generator: Sketch 48.2 (47327) - http://www.bohemiancoding.com/sketch -->
    <title>Page 1</title>
    <desc>Created with Sketch.</desc>
    <defs>
        <linearGradient x1="74.534899%" y1="128.49657%" x2="74.534899%" y2="16.7057966%" id="linearGradient-1">
            <stop stop-color="#1490E0" offset="0%"></stop>
            <stop stop-color="#20F0FF" offset="100%"></stop>
        </linearGradient>
        <linearGradient x1="74.534899%" y1="94.4543394%" x2="74.534899%" y2="16.7057966%" id="linearGradient-2">
            <stop stop-color="#1490E0" offset="0%"></stop>
            <stop stop-color="#20F0FF" offset="100%"></stop>
        </linearGradient>
    </defs>
    <g id="Mobile" stroke="none" stroke-width="1" fill="none" fill-rule="evenodd" transform="translate(-157.000000, -1903.000000)">
        <g id="Background" transform="translate(-448.000000, -1.000000)">
            <g id="Group-39" transform="translate(477.000000, 883.000000)">
                <g id="Group-13" transform="translate(0.000000, 622.000000)">
                    <g id="Group-38" transform="translate(0.000000, 399.000000)">
                        <g id="Page-1" transform="translate(128.000000, 0.000000)">
                            <path d="M11.2672744,56.0204082 L6.2244898,50.6174246 L14.0983114,42.1811872 L15.6907697,43.8873925 L21.7951932,37.3469388 C22.0606029,37.7260955 22.4144825,38.1052523 22.6798923,38.3896198 C23.0337719,38.7687765 23.2991816,39.0531441 23.6530612,39.3375117 L17.5486377,45.9727546 L19.141096,47.6789599 L11.2672744,56.0204082 Z M7.45438898,59.9329446 C6.01450701,61.3556851 3.6746988,61.3556851 2.32480944,59.9329446 C1.60486845,59.2215743 1.24489796,58.3323615 1.24489796,57.3542274 C1.24489796,56.3760933 1.60486845,55.4868805 2.32480944,54.7755102 L3.58470617,53.5306122 L8.71428571,58.5991254 L7.45438898,59.9329446 Z M5.9864946,51.0408163 L11.2040816,56.1827862 L10.1971789,57.2653061 L4.97959184,52.1233363 L5.9864946,51.0408163 Z M25.9167722,39.7682082 C28.4809758,41.5476128 31.4114943,42.4841415 34.5251701,42.4841415 C38.6462116,42.4841415 42.4009383,40.8920427 45.3314567,37.8951507 C51.2840722,31.8077139 51.2840722,21.8805093 45.3314567,15.7930725 C42.492517,12.8898334 38.6462116,11.2040816 34.5251701,11.2040816 C30.4041285,11.2040816 26.6494018,12.7961805 23.7188834,15.7930725 C18.4073188,21.2249391 17.8578466,29.5600449 21.9788881,35.6474817 L16.4841661,41.2666542 L14.8357495,39.6745553 L1.46525921,53.4415278 C0.549472203,54.3780565 0,55.6891968 0,57.0939899 C0,58.498783 0.549472203,59.8099232 1.46525921,60.746452 C2.47262491,61.7766336 3.75472672,62.244898 5.03682852,62.244898 C6.31893033,62.244898 7.60103214,61.7766336 8.60839784,60.746452 L22.0704668,46.9794795 L20.4220502,45.2937278 L25.9167722,39.7682082 Z" id="Fill-1" fill="url(#linearGradient-1)"></path>
                            <g id="Group-5" transform="translate(8.714286, 0.000000)">
                                <path d="M16.0119634,16.9169069 C18.6677457,14.2009736 22.1477363,12.7961805 25.8108844,12.7961805 C29.5656111,12.7961805 33.0456017,14.2946265 35.6098053,16.9169069 C41.0129486,22.4424265 41.0129486,31.4331024 35.6098053,37.0522749 C32.954023,39.7682082 29.4740324,41.1730013 25.8108844,41.1730013 C22.0561576,41.1730013 18.576167,39.6745553 16.0119634,37.0522749 C10.6088201,31.4331024 10.6088201,22.4424265 16.0119634,16.9169069 Z" id="Path" fill="#0D65A8"></path>
                                <path d="M51.7255102,30.8035804 L51.7255102,22.9148586 L46.4035714,21.8818117 C45.9367347,19.7218045 45.0964286,17.6557107 43.8826531,15.6835303 L46.9637755,11.1756892 L41.455102,5.54088793 L36.9734694,8.64002864 C35.0127551,7.41915503 32.9586735,6.57393484 30.8112245,6.01045471 L29.877551,0.657393484 L22.0346939,0.657393484 L21.0076531,6.01045471 C18.8602041,6.57393484 16.7127551,7.41915503 14.8454082,8.54611529 L10.3637755,5.44697458 L4.85510204,10.9878625 L7.93622449,15.4957035 C6.72244898,17.3739706 5.88214286,19.5339778 5.32193878,21.693985 L0,22.6331185 L0,30.5218403 L5.32193878,31.5548872 C5.88214286,33.9027211 6.81581633,36.1566416 8.12295918,38.1288221 L9.33673469,37.3775152 C8.02959184,35.4053348 7.18928571,33.1514142 6.62908163,30.8035804 L6.53571429,30.3340136 L1.49387755,29.3948801 L1.49387755,23.8539921 L6.53571429,22.9148586 L6.72244898,22.4452918 C7.18928571,20.0974579 8.12295918,17.9374508 9.52346939,15.871357 L9.80357143,15.4957035 L6.81581633,11.1756892 L10.7372449,7.32524168 L14.9387755,10.330469 L15.3122449,10.048729 C17.2729592,8.733942 19.5137755,7.8887218 21.8479592,7.32524168 L22.3147959,7.23132832 L23.2484694,2.16000716 L28.7571429,2.16000716 L29.6908163,7.23132832 L30.1576531,7.32524168 C32.4918367,7.79480845 34.6392857,8.733942 36.6933673,10.048729 L37.0668367,10.330469 L41.3617347,7.41915503 L45.2831633,11.3635159 L42.2954082,15.5896169 L42.5755102,15.9652703 C43.8826531,18.0313641 44.8163265,20.1913713 45.2831633,22.5392052 L45.3765306,23.0087719 L50.4183673,23.9479055 L50.4183673,29.4887934 L45.3765306,30.427927 L45.2831633,30.8974937 C44.7229592,33.2453276 43.7892857,35.4992481 42.5755102,37.4714286 L42.2020408,37.9409953 L45.0964286,42.2610097 L41.175,46.1114572 L36.880102,43.1062299 L36.5066327,43.3879699 C34.452551,44.7027569 32.305102,45.6418904 29.9709184,46.1114572 L29.5040816,46.2053706 L28.5704082,51.2766917 L23.0617347,51.2766917 L22.1280612,46.2053706 L21.6612245,46.0175439 C19.3270408,45.4540637 17.0862245,44.5149302 15.1255102,43.2001432 L14.3785714,44.4210168 C16.3392857,45.7358038 18.580102,46.6749373 20.9142857,47.3323308 L21.8479592,52.6853921 L29.6908163,52.6853921 L30.7178571,47.3323308 C32.8653061,46.8627641 34.9193878,46.0175439 36.880102,44.7966702 L41.3617347,47.895811 L46.9637755,42.354923 L43.8826531,37.847082 C45.0964286,35.9688149 45.9367347,33.9027211 46.4969388,31.6488006 L51.7255102,30.8035804 Z" id="Fill-3" fill="url(#linearGradient-2)"></path>
                            </g>
                            <path d="M33.5049261,19.5734606 L33.5049261,20.9476986 L34.8732407,20.9476986 L34.8732407,19.5734606 C38.2484166,19.939924 40.8938248,22.5967842 41.2587087,25.9865713 L39.9816151,25.9865713 L39.9816151,27.3608093 L41.2587087,27.3608093 C40.8938248,30.7505963 38.2484166,33.4074565 34.8732407,33.77392 L34.8732407,32.399682 L33.5049261,32.399682 L33.5049261,33.77392 C30.1297502,33.4990724 27.393121,30.7505963 27.1194581,27.3608093 L28.4877727,27.3608093 L28.4877727,25.9865713 L27.1194581,25.9865713 C27.484342,22.5967842 30.1297502,19.939924 33.5049261,19.5734606 M33.5049261,35.148158 L33.5049261,37.3469388 L34.8732407,37.3469388 L34.8732407,35.2397738 C38.9781844,34.8733104 42.2621393,31.5751391 42.6270232,27.4524251 L44.8163265,27.4524251 L44.8163265,26.0781871 L42.6270232,26.0781871 C42.2621393,21.9554731 38.9781844,18.6573019 34.8732407,18.2908384 L34.8732407,16.1836735 L33.5049261,16.1836735 L33.5049261,18.2908384 C29.3999824,18.6573019 26.1160274,21.9554731 25.7511436,26.0781871 L23.6530612,26.0781871 L23.6530612,27.4524251 L25.7511436,27.4524251 C26.1160274,31.5751391 29.3999824,34.8733104 33.5049261,35.148158" id="Fill-6" fill="#FFFFFF"></path>
                        </g>
                    </g>
                </g>
            </g>
        </g>
    </g>
</svg>