<?xml version="1.0" encoding="UTF-8"?>
<svg width="63px" height="70px" viewBox="0 0 63 70" version="1.1" xmlns="http://www.w3.org/2000/svg" xmlns:xlink="http://www.w3.org/1999/xlink">
    <!-- Generator: Sketch 48.2 (47327) - http://www.bohemiancoding.com/sketch -->
    <title>Page 1</title>
    <desc>Created with Sketch.</desc>
    <defs>
        <linearGradient x1="74.534899%" y1="94.4543394%" x2="74.534899%" y2="16.7057966%" id="linearGradient-1">
            <stop stop-color="#1490E0" offset="0%"></stop>
            <stop stop-color="#20F0FF" offset="100%"></stop>
        </linearGradient>
    </defs>
    <g id="Mobile" stroke="none" stroke-width="1" fill="none" fill-rule="evenodd" transform="translate(-156.000000, -1291.000000)">
        <g id="Background" transform="translate(-448.000000, -1.000000)">
            <g id="Group-39" transform="translate(477.000000, 883.000000)">
                <g id="Group-13">
                    <g id="Group-38" transform="translate(1.000000, 409.000000)">
                        <g id="Page-1" transform="translate(126.000000, 0.000000)">
                            <path d="M32.2047196,1.66470934 C33.5851977,1.66470934 34.7532945,2.88549618 34.7532945,4.32824427 C34.7532945,5.77099237 33.5851977,6.99177921 32.2047196,6.99177921 C30.8242415,6.99177921 29.6561447,5.77099237 29.6561447,4.32824427 C29.6561447,2.77451556 30.8242415,1.66470934 32.2047196,1.66470934 Z M10.8604045,14.5384615 C15.5327919,9.54433353 21.691848,6.32589548 28.2756666,5.4380505 C28.8066197,7.21374046 30.2932884,8.65648855 32.2047196,8.65648855 C34.4347226,8.65648855 36.3461538,6.76981797 36.3461538,4.32824427 C36.3461538,1.88667058 34.5409133,0 32.2047196,0 C30.0809071,0 28.3818572,1.66470934 28.1694759,3.77334116 C21.1608949,4.66118614 14.5770763,8.10158544 9.69230769,13.3176747 L10.8604045,14.5384615 Z" id="Fill-1" fill="url(#linearGradient-1)"></path>
                            <path d="M3.02851176,18.4634831 C3.47718017,17.73293 4.37451698,17.2111063 5.3840209,17.2111063 C5.83268931,17.2111063 6.28135772,17.315471 6.73002613,17.5242005 C7.29086164,17.8372947 7.73953005,18.3591184 7.96386425,19.0896716 C8.18819845,19.71586 8.07603135,20.4464131 7.73953005,20.9682368 C6.95436033,22.1162489 5.2718538,22.5337079 4.03801568,21.8031547 C2.69201045,21.1769663 2.24334204,19.6114952 3.02851176,18.4634831 M1.45817233,43.6153846 L3.02851176,43.1979257 C2.13117494,40.4844425 1.79467363,37.7709594 1.79467363,34.9531115 C1.79467363,31.0916162 2.57984335,27.230121 4.15018278,23.68172 C4.48668408,23.7860847 4.93535249,23.7860847 5.2718538,23.7860847 C6.84219323,23.7860847 8.30036556,23.0555315 9.08553527,21.8031547 C9.64637078,20.8638721 9.87070499,19.8202247 9.53420368,18.7765774 C9.19770237,17.73293 8.52469976,16.8980121 7.51519584,16.2718237 C6.84219323,15.9587295 6.05702351,15.75 5.2718538,15.75 C3.70151437,15.75 2.24334204,16.4805532 1.45817233,17.73293 C0.336501306,19.5071305 0.897336817,21.69879 2.57984335,22.9511668 C0.897336817,26.7082973 0,30.778522 0,34.9531115 C0.112167102,37.7709594 0.560835511,40.7975367 1.45817233,43.6153846" id="Fill-3" fill="url(#linearGradient-1)"></path>
                            <path d="M3.19726716,51.500425 C2.87367482,50.8578411 2.76581071,50.2152571 2.98153894,49.5726732 C3.19726716,48.9300892 3.62872362,48.3946026 4.16804418,48.0733107 C4.59950063,47.859116 5.03095709,47.7520187 5.46241354,47.7520187 C6.43319056,47.7520187 7.29610346,48.2875053 7.72755992,49.0371866 C8.3747446,50.2152571 7.94328814,51.821717 6.7567829,52.5713982 C5.57027765,53.2139822 3.95231596,52.6784955 3.19726716,51.500425 M8.3747446,53.2139822 C9.66911395,51.9288143 9.99270629,49.8939652 9.02192927,48.180408 C8.26688048,46.8952401 6.86464701,46.0384615 5.35454943,46.0384615 C4.59950063,46.0384615 3.95231596,46.2526562 3.30513128,46.5739482 C2.33435426,47.1094348 1.57930547,47.9662133 1.36357724,49.0371866 C1.0399849,50.1081598 1.25571313,51.179133 1.79503369,52.2501062 C2.55008248,53.5352741 3.95231596,54.3920527 5.46241354,54.3920527 C6.00173411,54.3920527 6.54105467,54.2849554 7.08037524,54.0707607 C11.2870757,59.5327242 17.1117378,63.6024224 23.7993128,65.4230769 L24.2307692,63.9237144 C17.9746507,62.2101572 12.3657168,58.3546536 8.3747446,53.2139822" id="Fill-5" fill="url(#linearGradient-1)"></path>
                            <path d="M32.0569169,67.6113596 L32.0569169,68.4378354 L32.0569169,67.6113596 C31.3045906,67.6113596 30.6597395,67.3014311 30.2298387,66.8881932 C29.799938,66.3716458 29.4775124,65.7517889 29.4775124,65.131932 C29.4775124,63.7889088 30.6597395,62.6525045 32.0569169,62.6525045 C33.4540943,62.6525045 34.6363213,63.7889088 34.6363213,65.131932 C34.6363213,66.4749553 33.4540943,67.6113596 32.0569169,67.6113596 Z M53.4444789,55.7307692 C48.7155707,60.2763864 42.5894851,63.1690519 36.0334988,63.9955277 C35.603598,62.342576 33.9914702,60.9995528 32.0569169,60.9995528 C29.799938,60.9995528 27.8653846,62.755814 27.8653846,64.9253131 C27.8653846,65.9584079 28.2952854,66.9915027 29.0476117,67.8179785 C29.799938,68.5411449 30.8746898,69.0576923 31.9494417,69.0576923 C34.0989454,69.0576923 35.8185484,67.5080501 36.0334988,65.5451699 C43.0193859,64.7186941 49.467897,61.6194097 54.5192308,56.763864 L53.4444789,55.7307692 Z" id="Fill-7" fill="url(#linearGradient-1)"></path>
                            <path d="M61.0754118,17.7040943 C61.4018437,18.3294045 61.5106544,18.9547146 61.2930331,19.5800248 C61.0754118,20.205335 60.6401693,20.7264268 60.0961161,21.0390819 C58.899199,21.6643921 57.2670394,21.2475186 56.6141756,20.1011166 C56.2877437,19.4758065 56.1789331,18.8504963 56.3965543,18.2251861 C56.6141756,17.5998759 57.0494182,17.0787841 57.5934714,16.766129 C58.0287139,16.5576923 58.4639565,16.4534739 58.899199,16.4534739 C59.7696841,16.4534739 60.6401693,16.9745658 61.0754118,17.7040943 M55.8525011,16.0366005 C55.3084479,16.5576923 54.982016,17.0787841 54.7643947,17.8083127 C54.4379628,18.8504963 54.5467735,19.8926799 55.0908267,20.9348635 C55.8525011,22.1854839 57.2670394,23.0192308 58.7903884,23.0192308 C59.5520629,23.0192308 60.2049267,22.810794 60.8577905,22.498139 C61.8370863,21.9770471 62.5987608,21.1433002 62.816382,20.1011166 C63.142814,19.058933 63.0340033,18.0167494 62.4899501,16.9745658 C61.7282757,15.7239454 60.3137373,14.8901985 58.7903884,14.8901985 C58.2463352,14.8901985 57.702282,14.9944169 57.2670394,15.2028536 C52.8058032,9.47084367 46.3859755,5.30210918 39.2044733,3.63461538 L38.7692308,5.19789082 C45.624301,6.76116625 51.7176968,10.6172457 55.8525011,16.0366005" id="Fill-9" fill="url(#linearGradient-1)"></path>
                            <path d="M59.9303696,51.7433687 C59.2725916,52.9177719 57.5185171,53.3448276 56.3125908,52.5974801 C55.1066646,51.8501326 54.6681459,50.3554377 55.4355535,49.0742706 C55.8740722,48.3269231 56.7511095,47.7931034 57.7377764,47.7931034 C58.176295,47.7931034 58.6148137,47.8998674 59.0533323,48.1133952 C59.6014806,48.433687 60.0399992,48.9675066 60.2592585,49.7148541 C60.4785178,50.4622016 60.3688882,51.1027851 59.9303696,51.7433687 M60.3688882,47.1525199 C62.1229627,43.2022546 63,39.0384615 63,34.6611406 C63,31.9920424 62.671111,29.2161804 61.9037034,26.6538462 L60.2592585,27.0809019 C60.9170365,29.5364721 61.2459255,32.0988064 61.2459255,34.6611406 C61.2459255,38.7181698 60.3688882,42.668435 58.7244433,46.4051724 C58.3955543,46.2984085 57.9570357,46.2984085 57.5185171,46.2984085 C55.9837018,46.2984085 54.6681459,47.045756 53.9007383,48.3269231 C53.35259,49.2877984 53.1333307,50.3554377 53.4622197,51.4230769 C53.7911087,52.4907162 54.4488866,53.4515915 55.4355535,53.9854111 C56.0933315,54.4124668 56.8607391,54.5192308 57.6281467,54.5192308 C59.1629619,54.5192308 60.4785178,53.7718833 61.2459255,52.4907162 C61.7940738,51.5298408 62.0133331,50.4622016 61.6844441,49.3945623 C61.6844441,48.5404509 61.1362958,47.7931034 60.3688882,47.1525199" id="Fill-11" fill="url(#linearGradient-1)"></path>
                            <path d="M38.5366154,21.0120551 C41.0953846,21.0120551 43.2276923,23.1819747 43.2276923,25.7858783 C43.2276923,28.3897819 41.0953846,30.5597015 38.5366154,30.5597015 C38.2167692,30.5597015 37.8969231,30.5597015 37.4704615,30.4512055 C38.1101538,29.3662457 38.5366154,28.0642939 38.5366154,26.7623421 C38.5366154,24.7009185 37.6836923,22.9649828 36.4043077,21.663031 C37.1506154,21.2290471 37.7903077,21.0120551 38.5366154,21.0120551 M31.5,32.2956372 C28.5147692,32.2956372 25.956,29.8002296 25.956,26.6538462 C25.956,23.6159587 28.4081538,21.0120551 31.5,21.0120551 C34.4852308,21.0120551 37.044,23.5074627 37.044,26.6538462 C37.044,29.8002296 34.4852308,32.2956372 31.5,32.2956372 M19.7723077,25.7858783 C19.7723077,23.1819747 21.9046154,21.0120551 24.4633846,21.0120551 C25.2096923,21.0120551 25.956,21.2290471 26.5956923,21.554535 C25.3163077,22.8564868 24.4633846,24.7009185 24.4633846,26.6538462 C24.4633846,28.0642939 24.8898462,29.2577497 25.5295385,30.3427095 C25.2096923,30.4512055 24.8898462,30.4512055 24.4633846,30.4512055 C21.798,30.5597015 19.7723077,28.3897819 19.7723077,25.7858783 M31.5,19.4931114 C30.2206154,19.4931114 28.9412308,19.8185993 27.8750769,20.4695752 C26.8089231,19.8185993 25.6361538,19.3846154 24.4633846,19.3846154 C21.0516923,19.3846154 18.1730769,22.2055109 18.1730769,25.7858783 C18.1730769,29.3662457 20.9450769,32.1871412 24.4633846,32.1871412 C25.2096923,32.1871412 25.8493846,32.0786452 26.4890769,31.8616533 C27.7684615,33.1636051 29.5809231,33.9230769 31.5,33.9230769 C33.4190769,33.9230769 35.2315385,33.1636051 36.5109231,31.8616533 C37.1506154,32.0786452 37.8969231,32.1871412 38.5366154,32.1871412 C41.9483077,32.1871412 44.8269231,29.3662457 44.8269231,25.7858783 C44.8269231,22.2055109 42.0549231,19.3846154 38.5366154,19.3846154 C37.2572308,19.3846154 36.0844615,19.8185993 35.1249231,20.4695752 C34.0587692,19.8185993 32.7793846,19.4931114 31.5,19.4931114" id="Fill-13" fill="#FFFFFF"></path>
                            <path d="M46.3034856,43.2504634 C46.1962139,42.3308619 46.0889423,41.5134384 45.9816707,40.6960148 L45.9816707,40.5938369 C45.874399,39.6742354 45.5525841,38.652456 44.9089543,37.7328545 L44.9089543,37.6306766 C44.3725962,36.813253 43.6216947,36.0980074 42.65625,35.5871177 L43.836238,33.4413809 L46.9471154,34.5653383 C47.1616587,34.6675162 47.3762019,34.7696942 47.5907452,34.8718721 C48.1271034,35.1784059 48.5561899,35.5871177 48.9852764,36.0980074 L48.9852764,36.2001854 C49.414363,36.915431 49.6289062,37.5284986 49.7361779,38.1415663 L49.7361779,38.3459222 C49.9507212,39.7764133 50.1652644,41.4112604 50.2725361,43.3526413 L46.3034856,43.3526413 L46.3034856,43.2504634 Z M17.7692308,46.8266914 C17.983774,43.1482854 18.4128606,41.3090825 18.4128606,41.3090825 L18.4128606,41.1047266 C18.4128606,40.2873031 18.7346755,39.3677016 19.2710337,38.4481001 C19.8073918,37.6306766 20.6655649,36.915431 21.6310096,36.6088971 L25.3855168,35.2805839 L29.6763822,42.9439296 L33.0018029,42.9439296 L37.2926683,35.2805839 L41.0471755,36.5067192 C41.3689904,36.6088971 41.5835337,36.7110751 41.7980769,36.813253 C42.4417067,37.2219648 42.9780649,37.6306766 43.4071514,38.3459222 L43.4071514,38.4481001 C43.836238,39.2655236 44.1580529,39.9807692 44.2653245,40.6960148 L44.2653245,40.9003707 C44.4798678,42.5352178 44.6944111,44.5787766 44.9089543,46.8266914 L17.7692308,46.8266914 Z M12.5129207,43.2504634 C12.6201923,41.3090825 12.8347356,39.6742354 13.0492788,38.2437442 L13.0492788,38.0393883 C13.1565505,37.4263207 13.3710937,36.813253 13.8001803,35.9958295 C14.1219952,35.4849398 14.5510817,35.076228 15.1947115,34.6675162 C15.4092548,34.5653383 15.6237981,34.4631603 15.8383413,34.3609824 L19.0564904,33.237025 L20.2364784,35.3827618 C19.2710337,35.8936515 18.4128606,36.6088971 17.8765024,37.5284986 C17.2328726,38.652456 16.8037861,39.7764133 16.8037861,40.9003707 C16.8037861,41.1047266 16.5892428,41.9221501 16.4819712,43.1482854 L12.5129207,43.1482854 L12.5129207,43.2504634 Z M51.8816106,43.965709 C51.7743389,41.7177943 51.5597957,39.6742354 51.2379808,38.0393883 L51.2379808,37.9372104 C51.1307091,37.1197868 50.8088942,36.3023633 50.3798077,35.3827618 L50.3798077,35.2805839 C49.9507212,34.5653383 49.1998197,33.8500927 48.4489183,33.4413809 C48.234375,33.339203 47.9125601,33.1348471 47.5907452,33.0326691 L42.9780649,31.5 L41.1544471,34.8718721 L36.6490385,33.339203 L32.1436298,41.3090825 L30.6418269,41.3090825 L26.1364183,33.339203 L21.6310096,34.8718721 L19.8073918,31.5 L15.3019832,33.0326691 C14.9801683,33.1348471 14.6583534,33.237025 14.4438101,33.4413809 C13.585637,33.8500927 12.9420072,34.5653383 12.5129207,35.2805839 L12.405649,35.4849398 C11.8692909,36.3023633 11.6547476,37.2219648 11.547476,38.0393883 L11.547476,38.1415663 C11.3329327,39.7764133 11.1183894,41.8199722 10.9038462,44.0678869 L10.9038462,44.8853105 L16.3746995,44.8853105 C16.2674279,45.702734 16.2674279,46.6223355 16.1601562,47.6441149 L16.1601562,48.4615385 L46.8398437,48.4615385 L46.8398437,47.6441149 C46.7325721,46.6223355 46.7325721,45.702734 46.6253005,44.8853105 L52.0961538,44.8853105 L51.8816106,43.965709 Z" id="Fill-15" fill="#FFFFFF"></path>
                        </g>
                    </g>
                </g>
            </g>
        </g>
    </g>
</svg>