<?xml version="1.0" encoding="UTF-8"?>
<svg width="47px" height="52px" viewBox="0 0 47 52" version="1.1" xmlns="http://www.w3.org/2000/svg" xmlns:xlink="http://www.w3.org/1999/xlink">
    <!-- Generator: Sketch 48.2 (47327) - http://www.bohemiancoding.com/sketch -->
    <title>Page 1</title>
    <desc>Created with Sketch.</desc>
    <defs>
        <linearGradient x1="74.534899%" y1="94.4543394%" x2="74.534899%" y2="16.7057966%" id="linearGradient-1">
            <stop stop-color="#1490E0" offset="0%"></stop>
            <stop stop-color="#20F0FF" offset="100%"></stop>
        </linearGradient>
    </defs>
    <g id="Mobile" stroke="none" stroke-width="1" fill="none" fill-rule="evenodd" transform="translate(-30.000000, -1087.000000)">
        <g id="Background" transform="translate(-448.000000, -1.000000)">
            <g id="Group-39" transform="translate(476.000000, 1007.000000)">
                <g id="Group-13" transform="translate(1.000000, 81.000000)">
                    <g id="Page-1" transform="translate(1.000000, 0.000000)">
                        <path d="M23.8924303,1.25954198 C24.9282869,1.25954198 25.8047809,2.18320611 25.8047809,3.27480916 C25.8047809,4.36641221 24.9282869,5.29007634 23.8924303,5.29007634 C22.8565737,5.29007634 21.9800797,4.36641221 21.9800797,3.27480916 C21.9800797,2.09923664 22.8565737,1.25954198 23.8924303,1.25954198 Z M7.87649402,11 C11.3824701,7.22137405 16.0039841,4.78625954 20.9442231,4.11450382 C21.3426295,5.45801527 22.4581673,6.54961832 23.8924303,6.54961832 C25.5657371,6.54961832 27,5.1221374 27,3.27480916 C27,1.42748092 25.6454183,0 23.8924303,0 C22.2988048,0 21.0239044,1.25954198 20.8645418,2.85496183 C15.6055777,3.52671756 10.6653386,6.12977099 7,10.0763359 L7.87649402,11 Z" id="Fill-1" fill="url(#linearGradient-1)"></path>
                        <path d="M2.18725849,14.0449438 C2.51129679,13.494382 3.15937338,13.1011236 3.88845954,13.1011236 C4.21249783,13.1011236 4.53653613,13.1797753 4.86057442,13.3370787 C5.26562229,13.5730337 5.58966059,13.9662921 5.75167974,14.5168539 C5.91369888,14.988764 5.83268931,15.5393258 5.58966059,15.9325843 C5.02259357,16.7977528 3.80744997,17.1123596 2.91634465,16.5617978 C1.94422977,16.0898876 1.62019147,14.9101124 2.18725849,14.0449438 M1.05312446,33 L2.18725849,32.6853933 C1.5391819,30.6404494 1.29615318,28.5955056 1.29615318,26.4719101 C1.29615318,23.5617978 1.8632202,20.6516854 2.99735423,17.9775281 C3.24038295,18.0561798 3.56442124,18.0561798 3.80744997,18.0561798 C4.941584,18.0561798 5.99470846,17.505618 6.56177547,16.5617978 C6.96682334,15.8539326 7.12884249,15.0674157 6.88581377,14.2808989 C6.64278505,13.494382 6.1567276,12.8651685 5.42764144,12.3932584 C4.941584,12.1573034 4.37451698,12 3.80744997,12 C2.67331593,12 1.62019147,12.5505618 1.05312446,13.494382 C0.243028721,14.8314607 0.64807659,16.4831461 1.8632202,17.4269663 C0.64807659,20.258427 0,23.3258427 0,26.4719101 C0.0810095737,28.5955056 0.405047869,30.8764045 1.05312446,33" id="Fill-3" fill="url(#linearGradient-1)"></path>
                        <path d="M2.46648636,39.2265193 C2.22750923,38.7292818 2.14785018,38.2320442 2.30716827,37.7348066 C2.46648636,37.2375691 2.78512254,36.8232044 3.18341776,36.5745856 C3.50205394,36.4088398 3.82069011,36.3259669 4.13932629,36.3259669 C4.85625769,36.3259669 5.49353004,36.7403315 5.81216622,37.320442 C6.29012049,38.2320442 5.97148431,39.4751381 5.09523482,40.0552486 C4.21898533,40.5524862 3.02409967,40.1381215 2.46648636,39.2265193 M6.29012049,40.5524862 C7.24602902,39.558011 7.48500615,37.9834254 6.76807475,36.6574586 C6.21046144,35.6629834 5.17489387,35 4.05966725,35 C3.50205394,35 3.02409967,35.1657459 2.5461454,35.4143646 C1.82921401,35.8287293 1.2716007,36.4917127 1.11228261,37.320442 C0.873305473,38.1491713 1.03262356,38.9779006 1.43091878,39.8066298 C1.98853209,40.801105 3.02409967,41.4640884 4.13932629,41.4640884 C4.53762151,41.4640884 4.93591673,41.3812155 5.33421195,41.2154696 C8.44091468,45.441989 12.7425031,48.5911602 17.6813638,50 L18,48.839779 C13.3797754,47.5138122 9.23750513,44.5303867 6.29012049,40.5524862" id="Fill-5" fill="url(#linearGradient-1)"></path>
                        <path d="M24.1451613,50.9147287 L24.1451613,51.5348837 L24.1451613,50.9147287 C23.5806452,50.9147287 23.0967742,50.6821705 22.7741935,50.372093 C22.4516129,49.9844961 22.2096774,49.5193798 22.2096774,49.0542636 C22.2096774,48.0465116 23.0967742,47.1937984 24.1451613,47.1937984 C25.1935484,47.1937984 26.0806452,48.0465116 26.0806452,49.0542636 C26.0806452,50.0620155 25.1935484,50.9147287 24.1451613,50.9147287 Z M40.1935484,42 C36.6451613,45.4108527 32.0483871,47.5813953 27.1290323,48.2015504 C26.8064516,46.9612403 25.5967742,45.9534884 24.1451613,45.9534884 C22.4516129,45.9534884 21,47.2713178 21,48.8992248 C21,49.6744186 21.3225806,50.4496124 21.8870968,51.0697674 C22.4516129,51.6124031 23.2580645,52 24.0645161,52 C25.6774194,52 26.9677419,50.8372093 27.1290323,49.3643411 C32.3709677,48.744186 37.2096774,46.4186047 41,42.7751938 L40.1935484,42 Z" id="Fill-7" fill="url(#linearGradient-1)"></path>
                        <path d="M45.5703059,13.8870968 C45.8127982,14.3709677 45.893629,14.8548387 45.7319674,15.3387097 C45.5703059,15.8225806 45.2469829,16.2258065 44.8428291,16.4677419 C43.9536907,16.9516129 42.7412293,16.6290323 42.2562447,15.7419355 C42.0137525,15.2580645 41.9329217,14.7741935 42.0945832,14.2903226 C42.2562447,13.8064516 42.5795678,13.4032258 42.9837216,13.1612903 C43.3070446,13 43.6303677,12.9193548 43.9536907,12.9193548 C44.6003368,12.9193548 45.2469829,13.3225806 45.5703059,13.8870968 M41.6904294,12.5967742 C41.2862756,13 41.0437833,13.4032258 40.8821218,13.9677419 C40.6396295,14.7741935 40.7204603,15.5806452 41.1246141,16.3870968 C41.6904294,17.3548387 42.7412293,18 43.8728599,18 C44.4386753,18 44.9236598,17.8387097 45.4086444,17.5967742 C46.1361212,17.1935484 46.7019366,16.5483871 46.8635981,15.7419355 C47.1060904,14.9354839 47.0252596,14.1290323 46.6211058,13.3225806 C46.0552905,12.3548387 45.0044906,11.7096774 43.8728599,11.7096774 C43.4687061,11.7096774 43.0645523,11.7903226 42.7412293,11.9516129 C39.4271681,7.51612903 34.6581532,4.29032258 29.323323,3 L29,4.20967742 C34.0923379,5.41935484 38.6188605,8.40322581 41.6904294,12.5967742" id="Fill-9" fill="url(#linearGradient-1)"></path>
                        <path d="M44.7830447,38.908046 C44.3079828,39.7931034 43.0411512,40.1149425 42.1702045,39.5517241 C41.2992577,38.9885057 40.9825498,37.862069 41.5367887,36.8965517 C41.8534966,36.3333333 42.4869124,35.9310345 43.1995052,35.9310345 C43.5162131,35.9310345 43.832921,36.0114943 44.1496289,36.1724138 C44.5455138,36.4137931 44.8622217,36.816092 45.0205756,37.3793103 C45.1789296,37.9425287 45.0997526,38.4252874 44.7830447,38.908046 M45.0997526,35.4482759 C46.3665842,32.4712644 47,29.3333333 47,26.0344828 C47,24.0229885 46.7624691,21.9310345 46.2082302,20 L45.0205756,20.3218391 C45.4956375,22.1724138 45.7331684,24.1034483 45.7331684,26.0344828 C45.7331684,29.091954 45.0997526,32.0689655 43.9120979,34.8850575 C43.674567,34.8045977 43.3578591,34.8045977 43.0411512,34.8045977 C41.9326736,34.8045977 40.9825498,35.3678161 40.428311,36.3333333 C40.0324261,37.0574713 39.8740722,37.862069 40.1116031,38.6666667 C40.349134,39.4712644 40.8241959,40.1954023 41.5367887,40.5977011 C42.0118505,40.9195402 42.5660894,41 43.1203282,41 C44.2288058,41 45.1789296,40.4367816 45.7331684,39.4712644 C46.1290533,38.7471264 46.2874072,37.9425287 46.0498763,37.137931 C46.0498763,36.4942529 45.6539914,35.9310345 45.0997526,35.4482759" id="Fill-11" fill="url(#linearGradient-1)"></path>
                        <path d="M29.28,16.2313433 C31.2,16.2313433 32.8,17.8731343 32.8,19.8432836 C32.8,21.8134328 31.2,23.4552239 29.28,23.4552239 C29.04,23.4552239 28.8,23.4552239 28.48,23.3731343 C28.96,22.5522388 29.28,21.5671642 29.28,20.5820896 C29.28,19.0223881 28.64,17.7089552 27.68,16.7238806 C28.24,16.3955224 28.72,16.2313433 29.28,16.2313433 M24,24.7686567 C21.76,24.7686567 19.84,22.880597 19.84,20.5 C19.84,18.2014925 21.68,16.2313433 24,16.2313433 C26.24,16.2313433 28.16,18.119403 28.16,20.5 C28.16,22.880597 26.24,24.7686567 24,24.7686567 M15.2,19.8432836 C15.2,17.8731343 16.8,16.2313433 18.72,16.2313433 C19.28,16.2313433 19.84,16.3955224 20.32,16.641791 C19.36,17.6268657 18.72,19.0223881 18.72,20.5 C18.72,21.5671642 19.04,22.4701493 19.52,23.2910448 C19.28,23.3731343 19.04,23.3731343 18.72,23.3731343 C16.72,23.4552239 15.2,21.8134328 15.2,19.8432836 M24,15.0820896 C23.04,15.0820896 22.08,15.3283582 21.28,15.8208955 C20.48,15.3283582 19.6,15 18.72,15 C16.16,15 14,17.1343284 14,19.8432836 C14,22.5522388 16.08,24.6865672 18.72,24.6865672 C19.28,24.6865672 19.76,24.6044776 20.24,24.4402985 C21.2,25.4253731 22.56,26 24,26 C25.44,26 26.8,25.4253731 27.76,24.4402985 C28.24,24.6044776 28.8,24.6865672 29.28,24.6865672 C31.84,24.6865672 34,22.5522388 34,19.8432836 C34,17.1343284 31.92,15 29.28,15 C28.32,15 27.44,15.3283582 26.72,15.8208955 C25.92,15.3283582 24.96,15.0820896 24,15.0820896" id="Fill-13" fill="#FFFFFF"></path>
                        <path d="M34.640625,33.0060241 C34.5598958,32.3012048 34.4791667,31.6746988 34.3984375,31.0481928 L34.3984375,30.9698795 C34.3177083,30.2650602 34.0755208,29.4819277 33.5911458,28.7771084 L33.5911458,28.6987952 C33.1875,28.0722892 32.6223958,27.5240964 31.8958333,27.1325301 L32.7838542,25.4879518 L35.125,26.3493976 C35.2864583,26.4277108 35.4479167,26.5060241 35.609375,26.5843373 C36.0130208,26.8192771 36.3359375,27.1325301 36.6588542,27.5240964 L36.6588542,27.6024096 C36.9817708,28.1506024 37.1432292,28.6204819 37.2239583,29.0903614 L37.2239583,29.246988 C37.3854167,30.3433735 37.546875,31.5963855 37.6276042,33.0843373 L34.640625,33.0843373 L34.640625,33.0060241 Z M13.1666667,35.746988 C13.328125,32.9277108 13.6510417,31.5180723 13.6510417,31.5180723 L13.6510417,31.3614458 C13.6510417,30.7349398 13.8932292,30.0301205 14.296875,29.3253012 C14.7005208,28.6987952 15.3463542,28.1506024 16.0729167,27.9156627 L18.8984375,26.8975904 L22.1276042,32.7710843 L24.6302083,32.7710843 L27.859375,26.8975904 L30.6848958,27.8373494 C30.9270833,27.9156627 31.0885417,27.9939759 31.25,28.0722892 C31.734375,28.3855422 32.1380208,28.6987952 32.4609375,29.246988 L32.4609375,29.3253012 C32.7838542,29.9518072 33.0260417,30.5 33.1067708,31.0481928 L33.1067708,31.2048193 C33.2682292,32.4578313 33.4296875,34.0240964 33.5911458,35.746988 L13.1666667,35.746988 Z M9.2109375,33.0060241 C9.29166667,31.5180723 9.453125,30.2650602 9.61458333,29.1686747 L9.61458333,29.0120482 C9.6953125,28.5421687 9.85677083,28.0722892 10.1796875,27.4457831 C10.421875,27.0542169 10.7447917,26.7409639 11.2291667,26.4277108 C11.390625,26.3493976 11.5520833,26.2710843 11.7135417,26.1927711 L14.1354167,25.3313253 L15.0234375,26.9759036 C14.296875,27.3674699 13.6510417,27.9156627 13.2473958,28.6204819 C12.7630208,29.4819277 12.4401042,30.3433735 12.4401042,31.2048193 C12.4401042,31.3614458 12.2786458,31.9879518 12.1979167,32.9277108 L9.2109375,32.9277108 L9.2109375,33.0060241 Z M38.8385417,33.5542169 C38.7578125,31.8313253 38.5963542,30.2650602 38.3541667,29.0120482 L38.3541667,28.9337349 C38.2734375,28.3072289 38.03125,27.6807229 37.7083333,26.9759036 L37.7083333,26.8975904 C37.3854167,26.3493976 36.8203125,25.8012048 36.2552083,25.4879518 C36.09375,25.4096386 35.8515625,25.253012 35.609375,25.1746988 L32.1380208,24 L30.765625,26.5843373 L27.375,25.4096386 L23.984375,31.5180723 L22.8541667,31.5180723 L19.4635417,25.4096386 L16.0729167,26.5843373 L14.7005208,24 L11.3098958,25.1746988 C11.0677083,25.253012 10.8255208,25.3313253 10.6640625,25.4879518 C10.0182292,25.8012048 9.53385417,26.3493976 9.2109375,26.8975904 L9.13020833,27.0542169 C8.7265625,27.6807229 8.56510417,28.3855422 8.484375,29.0120482 L8.484375,29.0903614 C8.32291667,30.3433735 8.16145833,31.9096386 8,33.6325301 L8,34.2590361 L12.1171875,34.2590361 C12.0364583,34.8855422 12.0364583,35.5903614 11.9557292,36.373494 L11.9557292,37 L35.0442708,37 L35.0442708,36.373494 C34.9635417,35.5903614 34.9635417,34.8855422 34.8828125,34.2590361 L39,34.2590361 L38.8385417,33.5542169 Z" id="Fill-15" fill="#FFFFFF"></path>
                    </g>
                </g>
            </g>
        </g>
    </g>
</svg>