<?xml version="1.0" encoding="UTF-8"?>
<svg width="76px" height="71px" viewBox="0 0 76 71" version="1.1" xmlns="http://www.w3.org/2000/svg" xmlns:xlink="http://www.w3.org/1999/xlink">
    <!-- Generator: Sketch 48.2 (47327) - http://www.bohemiancoding.com/sketch -->
    <title>Page 1</title>
    <desc>Created with Sketch.</desc>
    <defs>
        <linearGradient x1="74.534899%" y1="94.4543394%" x2="74.534899%" y2="16.7057966%" id="linearGradient-1">
            <stop stop-color="#1490E0" offset="0%"></stop>
            <stop stop-color="#20F0FF" offset="100%"></stop>
        </linearGradient>
    </defs>
    <g id="Mobile" stroke="none" stroke-width="1" fill="none" fill-rule="evenodd" transform="translate(-152.000000, -1085.000000)">
        <g id="Background" transform="translate(-448.000000, -1.000000)">
            <g id="Group-39" transform="translate(477.000000, 883.000000)">
                <g id="Group-13">
                    <g id="Group-38" transform="translate(1.000000, 203.000000)">
                        <g id="Page-1" transform="translate(123.000000, 0.000000)">
                            <path d="M11.0814623,27.9192453 L9.48240566,27.2343396 C9.25316038,27.8046226 9.02533019,28.3763208 8.91070755,28.8333962 L10.3965566,29.5183019 C10.6243868,28.9480189 10.8536321,28.3763208 11.0814623,27.9192453" id="Fill-1" fill="url(#linearGradient-1)"></path>
                            <path d="M15.6510849,20.265 L14.3944811,19.1230189 C14.0520283,19.5800943 13.5949528,20.0371698 13.2525,20.4928302 L14.6223113,21.5216038 C14.9661792,21.1791509 15.3086321,20.7220755 15.6510849,20.265" id="Fill-3" fill="url(#linearGradient-1)"></path>
                            <path d="M22.5056604,14.4386321 L21.5915094,12.9541981 C21.134434,13.2966509 20.5641509,13.6391038 20.1070755,13.866934 L21.134434,15.2381604 C21.4768868,15.0103302 21.9339623,14.7810849 22.5056604,14.4386321" id="Fill-5" fill="url(#linearGradient-1)"></path>
                            <path d="M7.53990566,42.9990566 L9.25358491,42.7712264 C9.13896226,42.1995283 9.13896226,41.6278302 9.02575472,41.1707547 L7.31207547,41.2853774 C7.42528302,41.8570755 7.42528302,42.4273585 7.53990566,42.9990566" id="Fill-7" fill="url(#linearGradient-1)"></path>
                            <path d="M9.02504717,36.6015566 L7.31136792,36.486934 C7.31136792,37.0586321 7.19674528,37.6303302 7.19674528,38.2006132 L8.91042453,38.2006132 C8.91042453,37.7435377 8.91042453,37.1732547 9.02504717,36.6015566" id="Fill-9" fill="url(#linearGradient-1)"></path>
                            <path d="M13.0235377,23.9207547 L11.5391038,23.0066038 C11.1952358,23.4636792 10.9674057,24.0353774 10.6249528,24.4924528 L12.1093868,25.2919811 C12.4518396,24.8349057 12.7957075,24.3778302 13.0235377,23.9207547" id="Fill-11" fill="url(#linearGradient-1)"></path>
                            <path d="M18.8499057,17.0661792 L17.7079245,15.8095755 C17.2508491,16.1520283 16.7937736,16.6091038 16.4513208,16.9515566 L17.5933019,18.2081604 C18.0503774,17.8657075 18.3928302,17.4086321 18.8499057,17.0661792" id="Fill-13" fill="url(#linearGradient-1)"></path>
                            <path d="M9.71051887,32.1461321 L7.99683962,31.8036792 C7.88221698,32.3739623 7.76900943,32.9456604 7.65438679,33.5173585 L9.36806604,33.8598113 C9.48268868,33.2881132 9.59589623,32.7178302 9.71051887,32.1461321" id="Fill-15" fill="url(#linearGradient-1)"></path>
                            <path d="M34.0440566,68.5893396 C34.6157547,68.7039623 35.1860377,68.7039623 35.7577358,68.7039623 L35.8723585,66.990283 C35.3006604,66.990283 34.7289623,66.8756604 34.1586792,66.8756604 L34.0440566,68.5893396 Z" id="Fill-17" fill="url(#linearGradient-1)"></path>
                            <path d="M46.8391981,65.3905189 L47.4108962,66.9895755 C47.9811792,66.7617453 48.5528774,66.5325 49.0099528,66.3046698 L48.3236321,64.7056132 C47.8679717,65.048066 47.4108962,65.2758962 46.8391981,65.3905189" id="Fill-19" fill="url(#linearGradient-1)"></path>
                            <path d="M29.5886321,67.7896698 C30.1603302,67.9042925 30.7306132,68.0175 31.3023113,68.2467453 L31.6447642,66.533066 C31.073066,66.4184434 30.502783,66.3052358 30.0457075,66.1906132 L29.5886321,67.7896698 Z" id="Fill-21" fill="url(#linearGradient-1)"></path>
                            <path d="M25.3617453,66.3045283 C25.9334434,66.5323585 26.3905189,66.7616038 26.9608019,66.989434 L27.5325,65.3903774 C26.9608019,65.1625472 26.5037264,65.0479245 25.9334434,64.8186792 L25.3617453,66.3045283 Z" id="Fill-23" fill="url(#linearGradient-1)"></path>
                            <path d="M42.7265094,66.5329245 L43.0689623,68.2466038 C43.6406604,68.1319811 44.2109434,68.0173585 44.7826415,67.9041509 L44.325566,66.1904717 C43.8684906,66.3050943 43.2982075,66.4183019 42.7265094,66.5329245" id="Fill-25" fill="url(#linearGradient-1)"></path>
                            <path d="M38.4994811,67.1041981 L38.6141038,68.8178774 C39.1843868,68.8178774 39.7560849,68.7032547 40.327783,68.7032547 L40.2131604,66.9895755 C39.6414623,66.9895755 39.0711792,66.9895755 38.4994811,67.1041981" id="Fill-27" fill="url(#linearGradient-1)"></path>
                            <path d="M58.1490566,16.837783 C57.6919811,16.3807075 57.2349057,16.0382547 56.8924528,15.6958019 L55.7504717,16.9524057 C56.2075472,17.2948585 56.55,17.6373113 57.0070755,18.0943868 L58.1490566,16.837783 Z" id="Fill-29" fill="url(#linearGradient-1)"></path>
                            <path d="M54.4933019,13.8675 C54.0362264,13.5250472 53.4645283,13.1825943 53.0088679,12.9533491 L52.094717,14.4391981 C52.5517925,14.7816509 53.0088679,15.0094811 53.4645283,15.3533491 L54.4933019,13.8675 Z" id="Fill-31" fill="url(#linearGradient-1)"></path>
                            <path d="M64.2039623,29.2900472 L65.8030189,28.7183491 C65.5751887,28.148066 65.3459434,27.5763679 65.1181132,27.1192925 L63.5190566,27.8056132 C63.8615094,28.2612736 64.0893396,28.8329717 64.2039623,29.2900472" id="Fill-33" fill="url(#linearGradient-1)"></path>
                            <path d="M61.3478774,20.3791981 C61.0054245,19.9221226 60.6629717,19.4650472 60.2058962,19.0079717 L58.9492925,20.1513679 C59.2917453,20.6070283 59.6341981,20.9508962 59.9766509,21.4079717 L61.3478774,20.3791981 Z" id="Fill-35" fill="url(#linearGradient-1)"></path>
                            <path d="M63.9754245,24.3776887 C63.7475943,23.8059906 63.4037264,23.3489151 63.0612736,22.8932547 L61.5768396,23.8059906 C61.9192925,24.263066 62.1471226,24.7201415 62.3763679,25.2918396 L63.9754245,24.3776887 Z" id="Fill-37" fill="url(#linearGradient-1)"></path>
                            <path d="M65.8033019,38.0866981 L67.5169811,38.0866981 C67.5169811,37.515 67.5169811,36.944717 67.4023585,36.3730189 L65.6886792,36.4876415 C65.6886792,36.944717 65.8033019,37.515 65.8033019,38.0866981" id="Fill-39" fill="url(#linearGradient-1)"></path>
                            <path d="M65.460566,42.5421226 L67.1742453,42.7699528 C67.2888679,42.1996698 67.2888679,41.6279717 67.4020755,41.0576887 L65.6883962,40.943066 C65.6883962,41.5133491 65.5751887,42.0850472 65.460566,42.5421226" id="Fill-41" fill="url(#linearGradient-1)"></path>
                            <path d="M65.3463679,33.6312736 L67.0600472,33.2888208 C66.9454245,32.7171226 66.8308019,32.1468396 66.7175943,31.5751415 L65.0039151,31.9175943 C65.1185377,32.6025 65.2317453,33.0595755 65.3463679,33.6312736" id="Fill-43" fill="url(#linearGradient-1)"></path>
                            <g id="Group-51" transform="translate(24.056604, 0.849057)">
                                <path d="M13.3006132,0.565754717 C6.1034434,0.565754717 0.2775,6.39169811 0.2775,13.5888679 C0.2775,20.7874528 6.1034434,26.6133962 13.3006132,26.6133962 C20.497783,26.6133962 26.3237264,20.7874528 26.3237264,13.5888679 C26.3237264,6.39169811 20.497783,0.565754717 13.3006132,0.565754717" id="Path" stroke="url(#linearGradient-1)" fill="#0E61A5"></path>
                                <path d="M21.7543868,21.015283 L21.7543868,19.8733019 C21.7543868,16.9030189 19.2411792,14.3898113 16.2708962,14.3898113 L15.8138208,14.3898113 L13.5284434,18.7299057 L13.1859906,18.7299057 L10.9020283,14.3898113 L10.4449528,14.3898113 C7.47466981,14.3898113 4.96146226,16.9030189 4.96146226,19.8733019 L4.96146226,21.015283 C3.13316038,18.9591509 2.10438679,16.3313208 2.10438679,13.4756604 C2.10438679,7.19264151 7.13080189,2.16481132 13.4152358,2.16481132 C19.6982547,2.16481132 24.7246698,7.19264151 24.7246698,13.4756604 C24.6100472,16.4459434 23.5826887,19.0737736 21.7543868,21.015283" id="Path"></path>
                                <path d="M6.56051887,22.6143396 L6.56051887,19.8733019 C6.56051887,17.9303774 8.04495283,16.3313208 9.87325472,16.1034906 L12.1586321,20.3303774 L14.557217,20.3303774 L16.8425943,16.1034906 C18.6694811,16.3313208 20.1553302,17.9303774 20.1553302,19.8733019 L20.1553302,22.6143396 C18.2124057,23.985566 15.9284434,24.899717 13.4152358,24.899717 C10.9020283,24.899717 8.5020283,24.1001887 6.56051887,22.6143396" id="Path" stroke="#FFFFFF" stroke-width="1.5"></path>
                            </g>
                            <path d="M37.3570755,13.0678302 C35.9858491,13.0678302 34.8438679,11.9258491 34.8438679,10.5546226 C34.8438679,9.18339623 35.9858491,8.04141509 37.3570755,8.04141509 C38.7283019,8.04141509 39.870283,9.18339623 39.870283,10.5546226 C39.870283,11.9258491 38.7283019,13.0678302 37.3570755,13.0678302 M37.3570755,6.32773585 C35.0716981,6.32773585 33.1301887,8.26924528 33.1301887,10.5546226 C33.1301887,12.84 35.0716981,14.7815094 37.3570755,14.7815094 C39.6424528,14.7815094 41.5839623,12.84 41.5839623,10.5546226 C41.5839623,8.26924528 39.6424528,6.32773585 37.3570755,6.32773585" id="Fill-52" fill="#FFFFFF"></path>
                            <path d="M13.0236792,44.1408962 C5.82650943,44.1408962 0.000566037736,49.9682547 0.000566037736,57.1654245 C0.000566037736,64.3625943 5.82650943,70.1885377 13.0236792,70.1885377 C20.2208491,70.1885377 26.0467925,64.3625943 26.0467925,57.1654245 C26.0467925,49.9682547 20.2208491,44.1408962 13.0236792,44.1408962" id="Path" stroke="url(#linearGradient-1)" fill="#0E61A5"></path>
                            <path d="M21.4774528,64.7050472 L21.4774528,63.563066 C21.4774528,60.592783 18.9642453,58.0795755 15.9939623,58.0795755 L15.5368868,58.0795755 L13.2515094,62.4196698 L12.794434,62.4196698 L10.5104717,58.0795755 L10.0533962,58.0795755 C7.08311321,58.0795755 4.56990566,60.592783 4.56990566,63.563066 L4.56990566,64.7050472 C2.74160377,62.6489151 1.71424528,60.0210849 1.71424528,57.1654245 C1.71424528,50.8824057 6.74066038,45.8545755 13.0236792,45.8545755 C19.3066981,45.8545755 24.3331132,50.8824057 24.3331132,57.1654245 C24.3331132,60.1357075 23.1911321,62.7635377 21.4774528,64.7050472" id="Fill-54"></path>
                            <path d="M6.28358491,66.3041038 L6.28358491,63.563066 C6.28358491,61.6201415 7.76801887,60.0210849 9.59632075,59.7932547 L11.8816981,64.0201415 L14.280283,64.0201415 L16.5656604,59.7932547 C18.3925472,60.0210849 19.8783962,61.6201415 19.8783962,63.563066 L19.8783962,66.3041038 C17.9354717,67.6753302 15.6515094,68.5894811 13.1383019,68.5894811 C10.5104717,68.4748585 8.1104717,67.6753302 6.28358491,66.3041038" id="Path" stroke="#FFFFFF" stroke-width="1.5"></path>
                            <path d="M13.0235377,55.9083962 C11.6523113,55.9083962 10.5103302,54.7664151 10.5103302,53.3951887 C10.5103302,52.0239623 11.6523113,50.8819811 13.0235377,50.8819811 C14.3947642,50.8819811 15.5367453,52.0239623 15.5367453,53.3951887 C15.5367453,54.7664151 14.3947642,55.9083962 13.0235377,55.9083962 M13.0235377,49.1683019 C10.7381604,49.1683019 8.79665094,51.1098113 8.79665094,53.3951887 C8.79665094,55.7937736 10.7381604,57.6220755 13.0235377,57.6220755 C15.3089151,57.6220755 17.2504245,55.680566 17.2504245,53.3951887 C17.2504245,50.9966038 15.3089151,49.1683019 13.0235377,49.1683019" id="Fill-56" fill="#FFFFFF"></path>
                            <path d="M61.1363208,43.8679245 C53.9391509,43.8679245 48.1132075,49.695283 48.1132075,56.8924528 C48.1132075,64.0896226 53.9391509,69.915566 61.1363208,69.915566 C68.3334906,69.915566 74.159434,64.0896226 74.159434,56.8924528 C74.159434,49.695283 68.3334906,43.8679245 61.1363208,43.8679245" id="Path" stroke="url(#linearGradient-1)" fill="#0E61A5"></path>
                            <path d="M53.7735849,65.9448113 L53.7735849,63.2037736 C53.7735849,61.2608491 55.2580189,59.6617925 57.0863208,59.4339623 L59.3716981,63.6608491 L61.770283,63.6608491 L64.0556604,59.4339623 C65.8825472,59.6617925 67.3683962,61.2608491 67.3683962,63.2037736 L67.3683962,65.9448113 C65.4254717,67.3160377 63.1415094,68.2301887 60.6283019,68.2301887 C58.0004717,68.115566 55.6004717,67.3160377 53.7735849,65.9448113" id="Path" stroke="#FFFFFF" stroke-width="1.5"></path>
                            <path d="M60.8306604,56.2683962 C59.459434,56.2683962 58.3174528,55.1264151 58.3174528,53.7551887 C58.3174528,52.3839623 59.459434,51.2419811 60.8306604,51.2419811 C62.2018868,51.2419811 63.3438679,52.3839623 63.3438679,53.7551887 C63.3438679,55.1264151 62.2018868,56.2683962 60.8306604,56.2683962 M60.8306604,49.5283019 C58.545283,49.5283019 56.6037736,51.4698113 56.6037736,53.7551887 C56.6037736,56.1537736 58.545283,57.9820755 60.8306604,57.9820755 C63.1160377,57.9820755 65.0575472,56.040566 65.0575472,53.7551887 C65.0575472,51.3566038 63.1160377,49.5283019 60.8306604,49.5283019" id="Fill-56" fill="#FFFFFF"></path>
                        </g>
                    </g>
                </g>
            </g>
        </g>
    </g>
</svg>