<?xml version="1.0" encoding="UTF-8"?>
<svg width="28px" height="33px" viewBox="0 0 28 33" version="1.1" xmlns="http://www.w3.org/2000/svg" xmlns:xlink="http://www.w3.org/1999/xlink">
    <!-- Generator: Sketch 48.2 (47327) - http://www.bohemiancoding.com/sketch -->
    <title>noun_923671_cc</title>
    <desc>Created with Sketch.</desc>
    <defs></defs>
    <g id="Light-Blue-Theme" stroke="none" stroke-width="1" fill="none" fill-rule="evenodd" transform="translate(-209.000000, -1017.000000)">
        <g id="noun_923671_cc" transform="translate(209.000000, 1017.000000)" fill="#93D4FF" fill-rule="nonzero">
            <path d="M13.9446369,32.8191917 L13.8329309,32.800974 C5.81802275,31.3071223 0,24.5756811 0,16.7876132 C0,16.7693955 0,1.594049 0,1.594049 C0,0.428116017 1.01466317,0 1.69420822,0 L26.1950656,0 C27.4424497,0 27.8892738,0.947320547 27.8892738,1.594049 C27.8892738,1.594049 27.8892738,16.7876132 27.8892738,16.7876132 C27.8892738,24.5756811 22.0712511,31.3071223 14.0470341,32.800974 L13.9446369,32.8191917 Z M1.70351706,1.18415068 C1.48941382,1.19325954 1.21945757,1.26613035 1.21945757,1.594049 C1.21945757,1.594049 1.21945757,16.7693955 1.21945757,16.7876132 C1.21945757,23.9744969 6.5720385,30.1867336 13.9539458,31.6168233 C21.3451619,30.1958425 26.6977428,23.9744969 26.6977428,16.7876132 C26.6977428,16.7693955 26.6977428,1.95840305 26.6977428,1.594049 C26.6791251,1.18415068 26.3253893,1.18415068 26.2136833,1.18415068 L1.70351706,1.18415068 Z" id="Shape"></path>
            <path d="M7.06540682,26.3245806 C6.95370079,26.3245806 6.85130359,26.2881452 6.76752406,26.2061655 C5.84594926,25.2952804 5.03608049,24.2841979 4.36584427,23.2093534 C4.2448294,23.0180675 4.30999125,22.7630197 4.50547682,22.6446046 C4.70096238,22.5261896 4.9616098,22.5899515 5.08262467,22.7812374 C5.72493438,23.8105376 6.48825897,24.766967 7.36328959,25.6323079 C7.53084864,25.7962672 7.52153981,26.0513151 7.36328959,26.2152744 C7.27951006,26.2881452 7.17711286,26.3245806 7.06540682,26.3245806 Z" id="Shape"></path>
            <path d="M8.54551181,27.6544729 C8.44311461,27.6544729 8.35002625,27.6180375 8.26624672,27.5542755 C8.08937883,27.3994251 7.91251094,27.2445746 7.74495188,27.0897241 C7.57739283,26.9348736 7.56808399,26.670717 7.72633421,26.5067576 C7.88458443,26.3427983 8.15454068,26.3336894 8.32209974,26.4976488 C8.48034996,26.6433904 8.64790901,26.7982409 8.81546807,26.9348736 C8.99233596,27.0806153 9.01095363,27.344772 8.85270341,27.5178401 C8.77823272,27.6089286 8.66652668,27.6544729 8.54551181,27.6544729 Z" id="Shape"></path>
            <path d="M13.9539458,32.1178101 C13.6188276,32.1178101 13.3488714,31.8536534 13.3488714,31.5257348 L13.3488714,16.5598919 L1.06120735,16.5598919 C0.726089239,16.5598919 0.456132983,16.2957352 0.456132983,15.9678165 C0.456132983,15.6398979 0.726089239,15.3757412 1.06120735,15.3757412 L13.3395626,15.3757412 L13.3395626,0.856232033 C13.3395626,0.528313382 13.6095188,0.264156691 13.9446369,0.264156691 C14.279755,0.264156691 14.5497113,0.528313382 14.5497113,0.856232033 L14.5497113,15.3757412 L26.8280665,15.3757412 C27.1631846,15.3757412 27.4331409,15.6398979 27.4331409,15.9678165 C27.4331409,16.2957352 27.1631846,16.5598919 26.8280665,16.5598919 L14.5497113,16.5598919 L14.5497113,31.5257348 C14.5497113,31.8536534 14.279755,32.1178101 13.9539458,32.1178101 Z" id="Shape"></path>
        </g>
    </g>
</svg>