<?xml version="1.0" encoding="UTF-8"?>
<svg width="34px" height="36px" viewBox="0 0 34 36" version="1.1" xmlns="http://www.w3.org/2000/svg" xmlns:xlink="http://www.w3.org/1999/xlink">
    <!-- Generator: Sketch 48.2 (47327) - http://www.bohemiancoding.com/sketch -->
    <title>noun_203561_cc</title>
    <desc>Created with Sketch.</desc>
    <defs></defs>
    <g id="Light-Blue-Theme" stroke="none" stroke-width="1" fill="none" fill-rule="evenodd" transform="translate(-30.000000, -1011.000000)">
        <g id="noun_203561_cc" transform="translate(30.000000, 1011.000000)" fill="#93D4FF" fill-rule="nonzero">
            <g id="Group">
                <path d="M32.6917778,21.5620244 L31.1457778,12.5359024 C31.5364444,12.2465854 31.7928889,11.789561 31.7928889,11.2697561 C31.7928889,10.3934634 31.0737778,9.68312195 30.1862222,9.68312195 C29.97,9.68312195 29.7642222,9.72680488 29.576,9.80363415 L25.5126667,5.66560976 C25.992,5.17587805 26.2886667,4.51053659 26.2886667,3.77692683 C26.2886667,2.27678049 25.0531111,1.05629268 23.5344444,1.05629268 C22.5117778,1.05629268 21.6195556,1.61078049 21.1444444,2.43043902 L14.6715556,1.06858537 C14.5457778,0.458780488 14,0 13.3455556,0 C12.5975556,0 11.9917778,0.598609756 11.9917778,1.33704878 C11.9917778,1.57104878 12.0584444,1.78858537 12.1655556,1.98 L6.27222222,8.00517073 C6.18844444,7.99265854 6.10444444,7.97992683 6.01688889,7.97992683 C5.08133333,7.97992683 4.32288889,8.72912195 4.32288889,9.6534878 C4.32288889,10.2725122 4.66711111,10.8070244 5.17311111,11.096561 L2.10644444,18.8813415 C2.02822222,18.8705854 1.95044444,18.8578537 1.86911111,18.8578537 C0.933777778,18.8578537 0.175333333,19.6072683 0.175333333,20.5316341 C0.175333333,21.2296829 0.608222222,21.8263171 1.22244444,22.077439 L1.108,30.1895122 C0.462444444,30.4263659 0,31.0346341 0,31.7548537 C0,32.6792195 0.758222222,33.4284146 1.69377778,33.4284146 C2.54977778,33.4284146 3.25044444,32.7992927 3.36422222,31.9840244 L17.4115556,31.0669024 C17.6584444,31.5862683 18.1888889,31.9480244 18.8082222,31.9480244 C19.166,31.9480244 19.4904444,31.8237805 19.7528889,31.6222683 L25.4015556,33.5048049 C25.6051111,34.8080488 26.7448889,35.8099024 28.12,35.8099024 C29.6386667,35.8099024 30.8742222,34.5894146 30.8742222,33.0892683 C30.8742222,32.3082439 30.5373333,31.6049268 30.002,31.1083902 L32.6733333,24.5713171 C33.4168889,24.4598049 33.9875556,23.8309024 33.9875556,23.0652439 C33.9886667,22.3061707 33.4262222,21.6807805 32.6917778,21.5620244 Z M13.3173333,20.6916585 C13.2164444,20.159122 12.9586667,19.6810244 12.5922222,19.305878 L16.0131111,13.8711951 C16.2222222,13.941 16.4451111,13.9809512 16.6784444,13.9809512 C17.0728889,13.9809512 17.4413333,13.869878 17.7548889,13.680439 L23.2495556,20.6751951 C23.0873333,20.8694634 22.9651111,21.0924878 22.8906667,21.3392195 L13.3173333,20.6916585 Z M10.6115556,23.4733171 C9.33822222,23.4733171 8.302,22.4497317 8.302,21.1917073 C8.302,19.9336829 9.338,18.9100976 10.6115556,18.9100976 C11.8851111,18.9100976 12.9215556,19.9336829 12.9215556,21.1917073 C12.9215556,22.4497317 11.8851111,23.4733171 10.6115556,23.4733171 Z M18.4502222,12.9927073 C18.5637778,12.8067805 18.6457778,12.600439 18.6955556,12.3822439 L28.67,11.7717805 C28.736,11.9662683 28.838,12.1423171 28.9693333,12.294878 L24.9015556,19.9927317 C24.8453333,19.9879024 24.7915556,19.9758293 24.7337778,19.9758293 C24.4842222,19.9758293 24.248,20.0263171 24.0297778,20.1112683 L18.4502222,12.9927073 Z M28.6262222,10.9066829 L18.7031111,11.5167073 C18.6433333,11.2348537 18.5295556,10.9725366 18.3653333,10.745561 L21.9706667,6.01397561 C22.4153333,6.31821951 22.9537778,6.49756098 23.5344444,6.49756098 C23.9711111,6.49756098 24.3828889,6.39395122 24.7502222,6.21439024 L28.8328889,10.422 C28.738,10.5695122 28.6675556,10.7326098 28.6262222,10.9066829 Z M23.5344444,1.49553659 C24.808,1.49553659 25.8442222,2.51912195 25.8442222,3.77714634 C25.8442222,5.03517073 24.8082222,6.0587561 23.5344444,6.0587561 C22.2606667,6.0587561 21.2246667,5.03517073 21.2246667,3.77714634 C21.2246667,2.51912195 22.2608889,1.49553659 23.5344444,1.49553659 Z M14.5086667,2.01095122 L20.8193333,3.33878049 C20.7957778,3.48190244 20.7802222,3.62743902 20.7802222,3.77714634 C20.7802222,4.36390244 20.9708889,4.90631707 21.2922222,5.35104878 L17.6488889,10.1232439 C17.4102222,9.99790244 17.1442222,9.91734146 16.8604444,9.89319512 C16.7657778,9.87870732 16.6695556,9.87080488 16.5706667,9.87080488 C16.5064444,9.87080488 16.4464444,9.88331707 16.3844444,9.8892439 L14.0924444,2.45107317 C14.2642222,2.3382439 14.404,2.18634146 14.5086667,2.01095122 Z M12.9557778,2.61087805 C13.016,2.62887805 13.078,2.64402439 13.1417778,2.65390244 L15.4735556,10.2095122 C15.1082222,10.4586585 14.8428889,10.8313902 14.7195556,11.2629512 C14.7091111,11.2928049 14.6984444,11.3222195 14.6895556,11.3527317 L7.68266667,9.38107317 C7.61822222,8.99429268 7.42,8.65580488 7.13622222,8.40687805 L12.9557778,2.61087805 Z M7.56466667,10.3291463 L14.6368889,12.2852195 C14.7153333,12.7323659 14.94,13.1288049 15.2615556,13.4260244 L11.8893333,18.783878 C11.5071111,18.585 11.0726667,18.4712927 10.6115556,18.4712927 C10.454,18.4712927 10.3006667,18.4873171 10.1502222,18.512561 L7.05088889,10.970561 C7.27133333,10.8010976 7.45022222,10.584 7.56466667,10.3291463 Z M6.02266667,11.3263902 C6.09933333,11.3263902 6.17222222,11.3143171 6.24577778,11.3042195 L9.322,18.7895854 C8.60111111,19.1689024 8.07066667,19.854878 7.90977778,20.6705854 L3.53244444,20.2247561 C3.456,19.8177805 3.22911111,19.4672195 2.91311111,19.2218049 L6.02266667,11.3263902 Z M2.556,30.3207805 C2.40955556,30.2349512 2.25088889,30.168439 2.07977778,30.1287073 L2.18555556,22.1729268 C2.78177778,22.0614146 3.26155556,21.6412683 3.46,21.0867805 L7.882,21.5367805 C7.95777778,22.1237561 8.22288889,22.6523415 8.616,23.0612927 L2.556,30.3207805 Z M17.2924444,30.1179512 L3.218,31.0361707 C3.20333333,31.005439 3.18555556,30.9764634 3.16888889,30.9463902 L9.31155556,23.589 C9.69888889,23.7949024 10.1415556,23.9123415 10.6115556,23.9123415 C11.0633333,23.9123415 11.4888889,23.8023659 11.8657778,23.6109512 L17.5073333,29.5992439 C17.4057778,29.7557561 17.3306667,29.9296098 17.2924444,30.1179512 Z M19.4384444,29.0263171 C19.2457778,28.9411463 19.0335556,28.8910976 18.8086667,28.8910976 C18.6131111,28.8910976 18.4288889,28.9299512 18.2575556,28.9958049 L12.6311111,23.0353902 C12.9857778,22.6565122 13.2322222,22.1795122 13.3237778,21.6496098 L22.8466667,22.2943171 C22.8964444,22.518 22.9857778,22.7265366 23.1071111,22.913122 L19.4384444,29.0263171 Z M20.1506667,29.6740976 L23.8197778,23.5600244 C24.0928889,23.706 24.4006667,23.796878 24.7331111,23.796878 C24.756,23.796878 24.7782222,23.7907317 24.8,23.7900732 L26.8264444,30.689122 C26.1262222,31.059 25.6064444,31.7188537 25.4315556,32.5055854 L20.3026667,30.7958049 C20.3337778,30.6746341 20.3551111,30.5501707 20.3551111,30.4197805 C20.3553333,30.1473659 20.2768889,29.8949268 20.1506667,29.6740976 Z M30.4297778,33.0894878 C30.4297778,34.3475122 29.3937778,35.3710976 28.12,35.3710976 C26.8462222,35.3710976 25.8102222,34.3475122 25.8102222,33.0894878 C25.8102222,31.8314634 26.8462222,30.807878 28.12,30.807878 C29.3937778,30.807878 30.4297778,31.8314634 30.4297778,33.0894878 Z M29.1764444,30.5776098 C28.8508889,30.4434878 28.4942222,30.3688537 28.12,30.3688537 C27.9911111,30.3688537 27.8653333,30.3807073 27.7413333,30.3976098 L25.7304444,23.5152439 C26.1688889,23.2520488 26.4935556,22.8270732 26.6133333,22.319122 L31.0191111,23.6647317 C31.1548889,23.9801707 31.3991111,24.2350244 31.7013333,24.399439 L29.1764444,30.5776098 Z M30.94,22.7124878 L26.5848889,21.3642439 C26.4606667,20.934878 26.1955556,20.565439 25.8326667,20.3178293 L29.7913333,12.8023902 C29.2806667,12.6254634 30.0486667,12.8563902 30.1864444,12.8563902 C30.1986667,12.8563902 30.21,12.852878 30.2226667,12.852878 L31.736,21.7123902 C31.3408889,21.914561 31.0451111,22.275 30.94,22.7124878 Z" id="Shape"></path>
                <polygon id="Shape" points="22.9473333 5.2794878 23.5097778 4.47343902 24.0884444 5.2794878 25.0755556 5.2794878 24.0166667 3.7817561 25.0368889 2.34943902 24.0664444 2.34943902 23.5426667 3.13353659 23.0355556 2.34943902 22.0486667 2.34943902 23.03 3.7872439 21.9935556 5.2794878"></polygon>
                <polygon id="Shape" points="29.6224444 31.6242439 28.652 31.6242439 28.1282222 32.408561 27.6211111 31.6242439 26.6342222 31.6242439 27.6155556 33.0622683 26.5788889 34.5545122 27.5326667 34.5545122 28.0953333 33.7484634 28.674 34.5545122 29.6611111 34.5545122 28.6022222 33.0567805"></polygon>
                <polygon id="Shape" points="12.114 19.719439 11.1435556 19.719439 10.6197778 20.5039756 10.1126667 19.719439 9.12555556 19.719439 10.1068889 21.1574634 9.07044444 22.6499268 10.0244444 22.6499268 10.5868889 21.8436585 11.1657778 22.6499268 12.1528889 22.6499268 11.094 21.1519756"></polygon>
            </g>
        </g>
    </g>
</svg>