<?xml version="1.0" encoding="UTF-8"?>
<svg width="35px" height="32px" viewBox="0 0 35 32" version="1.1" xmlns="http://www.w3.org/2000/svg" xmlns:xlink="http://www.w3.org/1999/xlink">
    <!-- Generator: Sketch 48.2 (47327) - http://www.bohemiancoding.com/sketch -->
    <title>Fill 5</title>
    <desc>Created with Sketch.</desc>
    <defs></defs>
    <g id="Light-Blue-Theme" stroke="none" stroke-width="1" fill="none" fill-rule="evenodd" transform="translate(-29.000000, -1070.000000)">
        <path d="M59.6636091,1076.74664 L59.6523551,1076.75864 L56.5653356,1080.02529 L51.9782511,1084.88131 L48.8923685,1088.14947 L47.2500656,1089.88806 L46.8865905,1089.50327 L45.6078129,1088.14952 L41.2402735,1083.52727 L40.8544388,1083.11812 L36.6334536,1087.58907 L33.5464342,1090.85572 L32.8068552,1091.63866 L30.3123516,1088.99604 L40.8546003,1077.83282 L47.2500218,1084.60319 L57.1663402,1074.10296 L53.7629185,1070.5 L63.094721,1070.5 L63.094721,1080.37891 L59.6636091,1076.74664 Z M38.3088566,1086.6772 L39.2496486,1086.6772 L39.2496486,1101.36559 L32.8845072,1101.36559 L32.8845072,1092.21298 L38.3088566,1086.6772 Z M40.038029,1101.36559 L40.038029,1083.48907 L46.4031703,1089.79615 L46.4031703,1101.36559 L40.038029,1101.36559 Z M53.8103953,1084.1884 L54.7489457,1084.1884 L54.7489457,1101.36559 L48.3838044,1101.36559 L48.3838044,1089.64256 L53.8103953,1084.1884 Z M55.5373261,1081.3305 L59.6665686,1077.13136 L61.9024674,1079.40159 L61.9024674,1101.36559 L55.5373261,1101.36559 L55.5373261,1081.3305 Z" id="Fill-5" stroke="#93D4FF"></path>
    </g>
</svg>