<?xml version="1.0" encoding="UTF-8"?>
<svg width="59px" height="59px" viewBox="0 0 59 59" version="1.1" xmlns="http://www.w3.org/2000/svg" xmlns:xlink="http://www.w3.org/1999/xlink">
    <!-- Generator: Sketch 48.2 (47327) - http://www.bohemiancoding.com/sketch -->
    <title>Page 1</title>
    <desc>Created with Sketch.</desc>
    <defs>
        <linearGradient x1="74.534899%" y1="94.4543394%" x2="74.534899%" y2="16.7057966%" id="linearGradient-1">
            <stop stop-color="#1490E0" offset="0%"></stop>
            <stop stop-color="#20F0FF" offset="100%"></stop>
        </linearGradient>
    </defs>
    <g id="Mobile" stroke="none" stroke-width="1" fill="none" fill-rule="evenodd" transform="translate(-158.000000, -1503.000000)">
        <g id="Background" transform="translate(-448.000000, -1.000000)">
            <g id="Group-39" transform="translate(477.000000, 883.000000)">
                <g id="Group-13" transform="translate(0.000000, 622.000000)">
                    <g id="Group-38">
                        <g id="Page-1" transform="translate(129.000000, 0.000000)">
                            <g id="Group-4" transform="translate(1.000000, 9.000000)"></g>
                            <polygon id="Stroke-1" stroke="url(#linearGradient-1)" stroke-width="1.5" points="1 57 58 57 58 0 1 0"></polygon>
                            <g id="Group-21" transform="translate(0.152174, 4.108696)">
                                <path d="M16.4911043,34.0737457 C16.2383217,33.0465065 16.1007783,31.9721804 16.1007783,30.8668761 C16.1007783,25.0503978 19.8194087,20.1050283 25.0076478,18.2711152 C24.8354087,17.7804196 24.7362783,17.2562674 24.7362783,16.7060935 C24.7362783,16.6466152 24.743713,16.5883761 24.7461913,16.5288978 C18.7190609,18.5090283 14.3659957,24.17805 14.3659957,30.8668761 C14.3659957,32.2100935 14.5444304,33.5124196 14.8740391,34.7527891 C15.3585391,34.4318543 15.9037565,34.1988978 16.4911043,34.0737457" id="Fill-9" fill="#FFFFFF"></path>
                                <path d="M37.4723087,41.5548717 C35.2406348,43.2314152 32.4662217,44.2251978 29.4588522,44.2251978 C26.388287,44.2251978 23.5618304,43.1868065 21.3053739,41.4445891 C20.9608957,41.9216543 20.5321565,42.3330457 20.0365043,42.6527413 C22.6200913,44.7196109 25.8938739,45.9587413 29.4588522,45.9587413 C32.9792217,45.9587413 36.2158304,44.7505891 38.7833087,42.7295674 C38.2765043,42.422263 37.8316565,42.0245022 37.4723087,41.5548717" id="Fill-11" fill="#FFFFFF"></path>
                                <path d="M42.8172978,30.8665043 C42.8172978,31.9916348 42.676037,33.0833087 42.4145804,34.1278957 C42.9969717,34.2803087 43.5347543,34.539287 44.0056239,34.8862435 C44.3587761,33.6062217 44.5520804,32.259287 44.5520804,30.8665043 C44.5520804,24.1764391 40.1977761,18.5074174 34.1694065,16.527287 C34.1718848,16.5880043 34.1780804,16.6462435 34.1780804,16.7069609 C34.1780804,17.2558957 34.0801891,17.7800478 33.90795,18.2707435 C39.0974283,20.1034174 42.8172978,25.048787 42.8172978,30.8665043" id="Fill-13" fill="#FFFFFF"></path>
                                <path d="M29.4413804,12.4646739 C31.8093587,12.4646739 33.7300109,14.384087 33.7300109,16.7533043 C33.7300109,19.1212826 31.8093587,21.0406957 29.4413804,21.0406957 C27.0734022,21.0406957 25.15275,19.1212826 25.15275,16.7533043 C25.15275,14.384087 27.0734022,12.4646739 29.4413804,12.4646739 Z" id="Stroke-15" stroke="#FFFFFF"></path>
                                <path d="M41.2185717,34.4019913 C43.58655,34.4019913 45.5072022,36.3214043 45.5072022,38.6906217 C45.5072022,41.0586 43.58655,42.978013 41.2185717,42.978013 C38.8505935,42.978013 36.9299413,41.0586 36.9299413,38.6906217 C36.9299413,36.3214043 38.8505935,34.4019913 41.2185717,34.4019913 Z" id="Stroke-17" stroke="#FFFFFF"></path>
                                <path d="M17.4770804,34.4019913 C19.8450587,34.4019913 21.7657109,36.3214043 21.7657109,38.6906217 C21.7657109,41.0586 19.8450587,42.978013 17.4770804,42.978013 C15.1091022,42.978013 13.18845,41.0586 13.18845,38.6906217 C13.18845,36.3214043 15.1091022,34.4019913 17.4770804,34.4019913 Z" id="Stroke-19" stroke="#FFFFFF"></path>
                                <path d="M0.847826087,5.80434783 L57.8478261,5.80434783" id="Stroke-3" stroke="url(#linearGradient-1)" stroke-width="2"></path>
                                <path d="M54.1304348,0.847826087 L51.6521739,0.847826087" id="Stroke-5" stroke="url(#linearGradient-1)" stroke-width="2"></path>
                                <path d="M49.173913,0.847826087 L46.6956522,0.847826087" id="Stroke-6" stroke="url(#linearGradient-1)" stroke-width="2"></path>
                                <path d="M44.2173913,0.847826087 L41.7391304,0.847826087" id="Stroke-7" stroke="url(#linearGradient-1)" stroke-width="2"></path>
                                <path d="M5.80434783,0.847826087 L36.7826087,0.847826087" id="Stroke-8" stroke="url(#linearGradient-1)" stroke-width="1.5"></path>
                            </g>
                        </g>
                    </g>
                </g>
            </g>
        </g>
    </g>
</svg>